<?xml version="1.0" encoding="utf-8" standalone="no"?>
<!DOCTYPE svg PUBLIC "-//W3C//DTD SVG 1.1//EN"
  "http://www.w3.org/Graphics/SVG/1.1/DTD/svg11.dtd">
<svg xmlns:xlink="http://www.w3.org/1999/xlink" width="460.8pt" height="345.6pt" viewBox="0 0 460.8 345.6" xmlns="http://www.w3.org/2000/svg" version="1.1">
 <metadata>
  <rdf:RDF xmlns:dc="http://purl.org/dc/elements/1.1/" xmlns:cc="http://creativecommons.org/ns#" xmlns:rdf="http://www.w3.org/1999/02/22-rdf-syntax-ns#">
   <cc:Work>
    <dc:type rdf:resource="http://purl.org/dc/dcmitype/StillImage"/>
    <dc:date>2026-03-16T13:30:14.818347</dc:date>
    <dc:format>image/svg+xml</dc:format>
    <dc:creator>
     <cc:Agent>
      <dc:title>Matplotlib v3.10.8, https://matplotlib.org/</dc:title>
     </cc:Agent>
    </dc:creator>
   </cc:Work>
  </rdf:RDF>
 </metadata>
 <defs>
  <style type="text/css">*{stroke-linejoin: round; stroke-linecap: butt}</style>
 </defs>
 <g id="figure_1">
  <g id="patch_1">
   <path d="M 0 345.6 
L 460.8 345.6 
L 460.8 0 
L 0 0 
z
" style="fill: #ffffff"/>
  </g>
  <g id="axes_1">
   <g id="patch_2">
    <path d="M 57.6 307.584 
L 414.72 307.584 
L 414.72 41.472 
L 57.6 41.472 
z
" style="fill: #ffffff"/>
   </g>
   <g id="matplotlib.axis_1">
    <g id="xtick_1">
     <g id="line2d_1">
      <defs>
       <path id="m67c9132e91" d="M 0 0 
L 0 3.5 
" style="stroke: #000000; stroke-width: 0.8"/>
      </defs>
      <g>
       <use xlink:href="#m67c9132e91" x="73.832727" y="307.584" style="stroke: #000000; stroke-width: 0.8"/>
      </g>
     </g>
     <g id="text_1">
      <!-- 0.0 -->
      <g transform="translate(65.881165 322.182437) scale(0.1 -0.1)">
       <defs>
        <path id="DejaVuSans-30" d="M 2034 4250 
Q 1547 4250 1301 3770 
Q 1056 3291 1056 2328 
Q 1056 1369 1301 889 
Q 1547 409 2034 409 
Q 2525 409 2770 889 
Q 3016 1369 3016 2328 
Q 3016 3291 2770 3770 
Q 2525 4250 2034 4250 
z
M 2034 4750 
Q 2819 4750 3233 4129 
Q 3647 3509 3647 2328 
Q 3647 1150 3233 529 
Q 2819 -91 2034 -91 
Q 1250 -91 836 529 
Q 422 1150 422 2328 
Q 422 3509 836 4129 
Q 1250 4750 2034 4750 
z
" transform="scale(0.015625)"/>
        <path id="DejaVuSans-2e" d="M 684 794 
L 1344 794 
L 1344 0 
L 684 0 
L 684 794 
z
" transform="scale(0.015625)"/>
       </defs>
       <use xlink:href="#DejaVuSans-30"/>
       <use xlink:href="#DejaVuSans-2e" transform="translate(63.623047 0)"/>
       <use xlink:href="#DejaVuSans-30" transform="translate(95.410156 0)"/>
      </g>
     </g>
    </g>
    <g id="xtick_2">
     <g id="line2d_2">
      <g>
       <use xlink:href="#m67c9132e91" x="138.763636" y="307.584" style="stroke: #000000; stroke-width: 0.8"/>
      </g>
     </g>
     <g id="text_2">
      <!-- 0.2 -->
      <g transform="translate(130.812074 322.182437) scale(0.1 -0.1)">
       <defs>
        <path id="DejaVuSans-32" d="M 1228 531 
L 3431 531 
L 3431 0 
L 469 0 
L 469 531 
Q 828 903 1448 1529 
Q 2069 2156 2228 2338 
Q 2531 2678 2651 2914 
Q 2772 3150 2772 3378 
Q 2772 3750 2511 3984 
Q 2250 4219 1831 4219 
Q 1534 4219 1204 4116 
Q 875 4013 500 3803 
L 500 4441 
Q 881 4594 1212 4672 
Q 1544 4750 1819 4750 
Q 2544 4750 2975 4387 
Q 3406 4025 3406 3419 
Q 3406 3131 3298 2873 
Q 3191 2616 2906 2266 
Q 2828 2175 2409 1742 
Q 1991 1309 1228 531 
z
" transform="scale(0.015625)"/>
       </defs>
       <use xlink:href="#DejaVuSans-30"/>
       <use xlink:href="#DejaVuSans-2e" transform="translate(63.623047 0)"/>
       <use xlink:href="#DejaVuSans-32" transform="translate(95.410156 0)"/>
      </g>
     </g>
    </g>
    <g id="xtick_3">
     <g id="line2d_3">
      <g>
       <use xlink:href="#m67c9132e91" x="203.694545" y="307.584" style="stroke: #000000; stroke-width: 0.8"/>
      </g>
     </g>
     <g id="text_3">
      <!-- 0.4 -->
      <g transform="translate(195.742983 322.182437) scale(0.1 -0.1)">
       <defs>
        <path id="DejaVuSans-34" d="M 2419 4116 
L 825 1625 
L 2419 1625 
L 2419 4116 
z
M 2253 4666 
L 3047 4666 
L 3047 1625 
L 3713 1625 
L 3713 1100 
L 3047 1100 
L 3047 0 
L 2419 0 
L 2419 1100 
L 313 1100 
L 313 1709 
L 2253 4666 
z
" transform="scale(0.015625)"/>
       </defs>
       <use xlink:href="#DejaVuSans-30"/>
       <use xlink:href="#DejaVuSans-2e" transform="translate(63.623047 0)"/>
       <use xlink:href="#DejaVuSans-34" transform="translate(95.410156 0)"/>
      </g>
     </g>
    </g>
    <g id="xtick_4">
     <g id="line2d_4">
      <g>
       <use xlink:href="#m67c9132e91" x="268.625455" y="307.584" style="stroke: #000000; stroke-width: 0.8"/>
      </g>
     </g>
     <g id="text_4">
      <!-- 0.6 -->
      <g transform="translate(260.673892 322.182437) scale(0.1 -0.1)">
       <defs>
        <path id="DejaVuSans-36" d="M 2113 2584 
Q 1688 2584 1439 2293 
Q 1191 2003 1191 1497 
Q 1191 994 1439 701 
Q 1688 409 2113 409 
Q 2538 409 2786 701 
Q 3034 994 3034 1497 
Q 3034 2003 2786 2293 
Q 2538 2584 2113 2584 
z
M 3366 4563 
L 3366 3988 
Q 3128 4100 2886 4159 
Q 2644 4219 2406 4219 
Q 1781 4219 1451 3797 
Q 1122 3375 1075 2522 
Q 1259 2794 1537 2939 
Q 1816 3084 2150 3084 
Q 2853 3084 3261 2657 
Q 3669 2231 3669 1497 
Q 3669 778 3244 343 
Q 2819 -91 2113 -91 
Q 1303 -91 875 529 
Q 447 1150 447 2328 
Q 447 3434 972 4092 
Q 1497 4750 2381 4750 
Q 2619 4750 2861 4703 
Q 3103 4656 3366 4563 
z
" transform="scale(0.015625)"/>
       </defs>
       <use xlink:href="#DejaVuSans-30"/>
       <use xlink:href="#DejaVuSans-2e" transform="translate(63.623047 0)"/>
       <use xlink:href="#DejaVuSans-36" transform="translate(95.410156 0)"/>
      </g>
     </g>
    </g>
    <g id="xtick_5">
     <g id="line2d_5">
      <g>
       <use xlink:href="#m67c9132e91" x="333.556364" y="307.584" style="stroke: #000000; stroke-width: 0.8"/>
      </g>
     </g>
     <g id="text_5">
      <!-- 0.8 -->
      <g transform="translate(325.604801 322.182437) scale(0.1 -0.1)">
       <defs>
        <path id="DejaVuSans-38" d="M 2034 2216 
Q 1584 2216 1326 1975 
Q 1069 1734 1069 1313 
Q 1069 891 1326 650 
Q 1584 409 2034 409 
Q 2484 409 2743 651 
Q 3003 894 3003 1313 
Q 3003 1734 2745 1975 
Q 2488 2216 2034 2216 
z
M 1403 2484 
Q 997 2584 770 2862 
Q 544 3141 544 3541 
Q 544 4100 942 4425 
Q 1341 4750 2034 4750 
Q 2731 4750 3128 4425 
Q 3525 4100 3525 3541 
Q 3525 3141 3298 2862 
Q 3072 2584 2669 2484 
Q 3125 2378 3379 2068 
Q 3634 1759 3634 1313 
Q 3634 634 3220 271 
Q 2806 -91 2034 -91 
Q 1263 -91 848 271 
Q 434 634 434 1313 
Q 434 1759 690 2068 
Q 947 2378 1403 2484 
z
M 1172 3481 
Q 1172 3119 1398 2916 
Q 1625 2713 2034 2713 
Q 2441 2713 2670 2916 
Q 2900 3119 2900 3481 
Q 2900 3844 2670 4047 
Q 2441 4250 2034 4250 
Q 1625 4250 1398 4047 
Q 1172 3844 1172 3481 
z
" transform="scale(0.015625)"/>
       </defs>
       <use xlink:href="#DejaVuSans-30"/>
       <use xlink:href="#DejaVuSans-2e" transform="translate(63.623047 0)"/>
       <use xlink:href="#DejaVuSans-38" transform="translate(95.410156 0)"/>
      </g>
     </g>
    </g>
    <g id="xtick_6">
     <g id="line2d_6">
      <g>
       <use xlink:href="#m67c9132e91" x="398.487273" y="307.584" style="stroke: #000000; stroke-width: 0.8"/>
      </g>
     </g>
     <g id="text_6">
      <!-- 1.0 -->
      <g transform="translate(390.53571 322.182437) scale(0.1 -0.1)">
       <defs>
        <path id="DejaVuSans-31" d="M 794 531 
L 1825 531 
L 1825 4091 
L 703 3866 
L 703 4441 
L 1819 4666 
L 2450 4666 
L 2450 531 
L 3481 531 
L 3481 0 
L 794 0 
L 794 531 
z
" transform="scale(0.015625)"/>
       </defs>
       <use xlink:href="#DejaVuSans-31"/>
       <use xlink:href="#DejaVuSans-2e" transform="translate(63.623047 0)"/>
       <use xlink:href="#DejaVuSans-30" transform="translate(95.410156 0)"/>
      </g>
     </g>
    </g>
   </g>
   <g id="matplotlib.axis_2">
    <g id="ytick_1">
     <g id="line2d_7">
      <defs>
       <path id="ma941b83727" d="M 0 0 
L -3.5 0 
" style="stroke: #000000; stroke-width: 0.8"/>
      </defs>
      <g>
       <use xlink:href="#ma941b83727" x="57.6" y="287.210039" style="stroke: #000000; stroke-width: 0.8"/>
      </g>
     </g>
     <g id="text_7">
      <!-- 0.6 -->
      <g transform="translate(34.696875 291.009258) scale(0.1 -0.1)">
       <use xlink:href="#DejaVuSans-30"/>
       <use xlink:href="#DejaVuSans-2e" transform="translate(63.623047 0)"/>
       <use xlink:href="#DejaVuSans-36" transform="translate(95.410156 0)"/>
      </g>
     </g>
    </g>
    <g id="ytick_2">
     <g id="line2d_8">
      <g>
       <use xlink:href="#ma941b83727" x="57.6" y="228.79953" style="stroke: #000000; stroke-width: 0.8"/>
      </g>
     </g>
     <g id="text_8">
      <!-- 0.7 -->
      <g transform="translate(34.696875 232.598748) scale(0.1 -0.1)">
       <defs>
        <path id="DejaVuSans-37" d="M 525 4666 
L 3525 4666 
L 3525 4397 
L 1831 0 
L 1172 0 
L 2766 4134 
L 525 4134 
L 525 4666 
z
" transform="scale(0.015625)"/>
       </defs>
       <use xlink:href="#DejaVuSans-30"/>
       <use xlink:href="#DejaVuSans-2e" transform="translate(63.623047 0)"/>
       <use xlink:href="#DejaVuSans-37" transform="translate(95.410156 0)"/>
      </g>
     </g>
    </g>
    <g id="ytick_3">
     <g id="line2d_9">
      <g>
       <use xlink:href="#ma941b83727" x="57.6" y="170.38902" style="stroke: #000000; stroke-width: 0.8"/>
      </g>
     </g>
     <g id="text_9">
      <!-- 0.8 -->
      <g transform="translate(34.696875 174.188238) scale(0.1 -0.1)">
       <use xlink:href="#DejaVuSans-30"/>
       <use xlink:href="#DejaVuSans-2e" transform="translate(63.623047 0)"/>
       <use xlink:href="#DejaVuSans-38" transform="translate(95.410156 0)"/>
      </g>
     </g>
    </g>
    <g id="ytick_4">
     <g id="line2d_10">
      <g>
       <use xlink:href="#ma941b83727" x="57.6" y="111.97851" style="stroke: #000000; stroke-width: 0.8"/>
      </g>
     </g>
     <g id="text_10">
      <!-- 0.9 -->
      <g transform="translate(34.696875 115.777729) scale(0.1 -0.1)">
       <defs>
        <path id="DejaVuSans-39" d="M 703 97 
L 703 672 
Q 941 559 1184 500 
Q 1428 441 1663 441 
Q 2288 441 2617 861 
Q 2947 1281 2994 2138 
Q 2813 1869 2534 1725 
Q 2256 1581 1919 1581 
Q 1219 1581 811 2004 
Q 403 2428 403 3163 
Q 403 3881 828 4315 
Q 1253 4750 1959 4750 
Q 2769 4750 3195 4129 
Q 3622 3509 3622 2328 
Q 3622 1225 3098 567 
Q 2575 -91 1691 -91 
Q 1453 -91 1209 -44 
Q 966 3 703 97 
z
M 1959 2075 
Q 2384 2075 2632 2365 
Q 2881 2656 2881 3163 
Q 2881 3666 2632 3958 
Q 2384 4250 1959 4250 
Q 1534 4250 1286 3958 
Q 1038 3666 1038 3163 
Q 1038 2656 1286 2365 
Q 1534 2075 1959 2075 
z
" transform="scale(0.015625)"/>
       </defs>
       <use xlink:href="#DejaVuSans-30"/>
       <use xlink:href="#DejaVuSans-2e" transform="translate(63.623047 0)"/>
       <use xlink:href="#DejaVuSans-39" transform="translate(95.410156 0)"/>
      </g>
     </g>
    </g>
    <g id="ytick_5">
     <g id="line2d_11">
      <g>
       <use xlink:href="#ma941b83727" x="57.6" y="53.568" style="stroke: #000000; stroke-width: 0.8"/>
      </g>
     </g>
     <g id="text_11">
      <!-- 1.0 -->
      <g transform="translate(34.696875 57.367219) scale(0.1 -0.1)">
       <use xlink:href="#DejaVuSans-31"/>
       <use xlink:href="#DejaVuSans-2e" transform="translate(63.623047 0)"/>
       <use xlink:href="#DejaVuSans-30" transform="translate(95.410156 0)"/>
      </g>
     </g>
    </g>
   </g>
   <g id="line2d_12">
    <path d="M 398.487273 295.488 
L 398.377543 123.750097 
L 398.374114 123.75075 
L 398.374114 123.640842 
L 398.264385 115.817975 
L 398.254098 115.790169 
L 398.254098 115.711301 
L 398.144369 112.125209 
L 398.14094 112.125766 
L 398.14094 112.015748 
L 398.031211 109.262262 
L 398.027782 109.262795 
L 398.024352 109.152069 
L 397.914623 104.508874 
L 397.911194 104.509366 
L 397.911194 104.401208 
L 397.801465 91.459211 
L 397.798036 91.459586 
L 397.798036 91.351437 
L 397.688307 86.478042 
L 397.681449 86.4787 
L 397.681449 86.368529 
L 397.571719 85.08082 
L 397.544287 84.97811 
L 397.544287 84.97257 
L 397.434558 84.677691 
L 397.35569 84.57387 
L 397.245961 84.400527 
L 397.136231 84.299253 
L 397.026502 84.125527 
L 396.964779 84.019701 
L 396.858479 83.661292 
L 396.85505 83.661595 
L 396.813902 83.564796 
L 396.813902 83.559215 
L 396.711031 83.333717 
L 396.704172 83.334317 
L 396.673311 83.247599 
L 396.673311 83.230829 
L 396.563582 82.915898 
L 396.515575 82.824847 
L 396.515575 82.813645 
L 396.412704 82.542228 
L 396.405846 82.542814 
L 396.354411 82.44622 
L 396.354411 82.440609 
L 396.251539 82.179809 
L 396.244681 82.180388 
L 396.196675 82.077653 
L 396.086945 81.833726 
L 396.042368 81.730474 
L 395.932639 81.525471 
L 395.877774 81.43978 
L 395.877774 81.42286 
L 395.768045 81.256942 
L 395.723467 81.158942 
L 395.723467 81.153293 
L 395.613738 80.890911 
L 395.565732 80.787302 
L 395.456002 80.43365 
L 395.418283 80.357287 
L 395.418283 80.328935 
L 395.308554 79.85508 
L 395.219399 79.759719 
L 395.219399 79.754033 
L 395.109669 79.466662 
L 395.023943 79.382133 
L 395.023943 79.365041 
L 394.914214 79.11119 
L 394.835346 79.008762 
L 394.742762 78.770171 
L 394.725617 78.771459 
L 394.639891 78.674995 
L 394.639891 78.669277 
L 394.530162 78.414248 
L 394.468439 78.315732 
L 394.35871 77.985547 
L 394.266126 77.883248 
L 394.163255 77.396417 
L 394.156397 77.396907 
L 394.115248 77.307769 
L 394.115248 77.290501 
L 394.008948 76.992732 
L 394.005519 76.992973 
L 393.933509 76.888471 
L 393.830638 76.566631 
L 393.82378 76.567104 
L 393.762057 76.46158 
L 393.652328 76.284068 
L 393.594034 76.207032 
L 393.594034 76.178093 
L 393.487734 75.930444 
L 393.484305 75.930674 
L 393.439727 75.829325 
L 393.439727 75.823527 
L 393.329998 75.529106 
L 393.230556 75.425311 
L 393.124256 75.15901 
L 393.120827 75.159234 
L 393.07282 75.057605 
L 393.07282 75.051784 
L 392.963091 74.849199 
L 392.887652 74.743285 
L 392.777923 74.505229 
L 392.685339 74.400123 
L 392.57561 74.167356 
L 392.489884 74.061533 
L 392.383583 73.839733 
L 392.380154 73.839944 
L 392.311574 73.738658 
L 392.205273 73.528109 
L 392.201844 73.528317 
L 392.129835 73.432874 
L 392.129835 73.427002 
L 392.020105 73.263223 
L 391.978957 73.159859 
L 391.889802 73.02985 
L 391.869228 73.031067 
L 391.735495 72.932989 
L 391.629195 72.6976 
L 391.625766 72.6978 
L 391.533182 72.620606 
L 391.533182 72.597006 
L 391.423453 72.390805 
L 391.358301 72.288182 
L 391.25543 72.116644 
L 391.248572 72.117032 
L 391.179991 72.014389 
L 391.070262 71.807331 
L 391.032542 71.702742 
L 390.929671 71.577948 
L 390.922813 71.578326 
L 390.840516 71.487889 
L 390.840516 71.476016 
L 390.737645 71.398499 
L 390.730787 71.398873 
L 390.583338 71.299926 
L 390.473609 71.192866 
L 390.370738 71.091276 
L 390.264437 70.870586 
L 390.261008 70.870768 
L 390.171853 70.77413 
L 390.171853 70.768166 
L 390.062124 70.559097 
L 390.010689 70.454273 
L 389.921534 70.327409 
L 389.900959 70.328469 
L 389.822091 70.224872 
L 389.712362 70.026959 
L 389.623207 69.94161 
L 389.623207 69.923633 
L 389.523765 69.736764 
L 389.513478 69.737277 
L 389.482617 69.642815 
L 389.482617 69.630813 
L 389.376316 69.413874 
L 389.372887 69.414042 
L 389.321452 69.320398 
L 389.321452 69.308376 
L 389.211722 68.994835 
L 389.174003 68.888242 
L 389.067703 68.694388 
L 389.064274 68.694548 
L 389.019696 68.588075 
L 388.909967 68.224855 
L 388.855102 68.124596 
L 388.855102 68.118551 
L 388.745373 67.911763 
L 388.680221 67.805686 
L 388.57735 67.610272 
L 388.570492 67.610571 
L 388.522486 67.503518 
L 388.416185 67.259275 
L 388.412756 67.259421 
L 388.323601 67.178168 
L 388.323601 67.153865 
L 388.213872 67.012588 
L 388.097285 66.907942 
L 387.987556 66.808987 
L 387.812675 66.706499 
L 387.702945 66.63781 
L 387.548639 66.53424 
L 387.438909 66.422635 
L 387.181731 66.322888 
L 387.082289 66.247307 
L 387.072002 66.247715 
L 386.962273 66.166345 
L 386.962273 66.14185 
L 386.855973 66.023482 
L 386.852544 66.023615 
L 386.725669 65.930444 
L 386.725669 65.918177 
L 386.61594 65.83037 
L 386.492495 65.724572 
L 386.417056 65.684436 
L 386.382765 65.685738 
L 386.194168 65.588355 
L 386.194168 65.582204 
L 386.091297 65.487615 
L 386.084439 65.487871 
L 385.86841 65.385064 
L 385.75868 65.30283 
L 385.621519 65.196837 
L 385.51179 65.089718 
L 385.292331 64.992607 
L 385.192889 64.903416 
L 385.182602 64.903783 
L 385.01115 64.804675 
L 384.90485 64.746501 
L 384.901421 64.746622 
L 384.733398 64.647163 
L 384.627097 64.601258 
L 384.486507 64.506843 
L 384.486507 64.500634 
L 384.380207 64.429772 
L 384.376778 64.42989 
L 384.126458 64.332783 
L 384.023587 64.236731 
L 384.016729 64.236963 
L 383.769838 64.139406 
L 383.666967 64.086754 
L 383.660109 64.086983 
L 383.385785 63.990051 
L 383.279485 63.918634 
L 383.276056 63.918747 
L 383.101175 63.818249 
L 382.991446 63.72801 
L 382.703407 63.637129 
L 382.607394 63.571284 
L 382.593677 63.571721 
L 382.391364 63.490366 
L 382.391364 63.471547 
L 382.302209 63.411607 
L 382.281635 63.412253 
L 381.952447 63.315762 
L 381.866721 63.261841 
L 381.842718 63.262584 
L 381.640405 63.161855 
L 381.55125 63.101613 
L 381.530675 63.102241 
L 381.37294 62.999901 
L 381.270068 62.971474 
L 381.26321 62.971681 
L 381.040323 62.87108 
L 380.930594 62.84277 
L 380.831151 62.73829 
L 380.752284 62.715318 
L 380.721422 62.716224 
L 380.426525 62.617262 
L 380.361373 62.581153 
L 380.316796 62.582444 
L 380.104195 62.480817 
L 379.997895 62.407729 
L 379.994466 62.407827 
L 379.682423 62.308708 
L 379.582981 62.24794 
L 379.572694 62.248228 
L 379.353236 62.146192 
L 379.246935 62.11093 
L 379.243506 62.111025 
L 379.054909 62.007891 
L 378.958896 61.965874 
L 378.94518 61.966246 
L 378.636567 61.872474 
L 378.636567 61.866088 
L 378.530266 61.837001 
L 378.526837 61.837092 
L 378.283375 61.734898 
L 378.177075 61.705717 
L 378.173646 61.705808 
L 377.895894 61.604236 
L 377.793023 61.56205 
L 377.786165 61.562228 
L 377.487838 61.460872 
L 377.388396 61.405628 
L 377.378109 61.40589 
L 376.928905 61.307989 
L 376.836321 61.252392 
L 376.819176 61.252821 
L 376.524279 61.157088 
L 376.524279 61.150642 
L 376.435124 61.114155 
L 376.414549 61.114662 
L 375.91391 61.017168 
L 375.828184 60.974003 
L 375.80418 60.974584 
L 375.529857 60.871199 
L 375.478422 60.814148 
L 375.420128 60.815531 
L 375.20067 60.723496 
L 375.20067 60.710527 
L 375.108085 60.505053 
L 375.09094 60.505443 
L 374.936634 60.398524 
L 374.847479 60.231496 
L 374.826904 60.231946 
L 374.686314 60.124396 
L 374.580013 59.957349 
L 374.576584 59.957421 
L 374.387987 59.850543 
L 374.278258 59.781042 
L 374.065658 59.674364 
L 373.959357 59.59154 
L 373.955928 59.591609 
L 373.84277 59.489212 
L 373.733041 59.419365 
L 373.613025 59.323447 
L 373.613025 59.316897 
L 373.503295 59.253446 
L 373.366134 59.177327 
L 373.366134 59.15109 
L 373.256404 58.982456 
L 373.150104 58.879252 
L 373.043804 58.789088 
L 373.040375 58.789148 
L 372.954649 58.685383 
L 372.872352 58.627544 
L 372.84492 58.628004 
L 372.457438 58.535627 
L 372.457438 58.529033 
L 372.364854 58.490981 
L 372.347709 58.491262 
L 371.836782 58.393883 
L 371.727053 58.349351 
L 371.092681 58.253407 
L 370.98981 58.215218 
L 370.982952 58.215324 
L 370.598899 58.114998 
L 370.492599 58.090026 
L 370.48917 58.090078 
L 369.717636 57.995125 
L 369.607907 57.970076 
L 369.117555 57.870416 
L 369.117555 57.863732 
L 369.007825 57.865317 
L 368.476324 57.765825 
L 368.45575 57.746013 
L 368.366595 57.747269 
L 367.629352 57.650142 
L 367.567629 57.617373 
L 367.519622 57.61803 
L 366.871534 57.51906 
L 366.837244 57.492543 
L 366.761805 57.493547 
L 366.343462 57.391016 
L 366.257736 57.371849 
L 366.233733 57.372159 
L 365.595932 57.271991 
L 365.53078 57.225352 
L 365.486202 57.225908 
L 364.663233 57.127363 
L 364.604939 57.100852 
L 364.553504 57.101474 
L 363.583086 57.003953 
L 363.583086 56.997121 
L 363.476786 56.998372 
L 362.489222 56.900303 
L 362.406925 56.887524 
L 362.379493 56.887838 
L 361.625104 56.786382 
L 361.573669 56.773185 
L 361.515375 56.773831 
L 360.562102 56.67387 
L 360.469518 56.640298 
L 360.459231 56.640408 
L 359.495671 56.539693 
L 359.389371 56.526908 
L 359.385942 56.526943 
L 358.638412 56.430231 
L 358.528682 56.410429 
L 357.997181 56.317984 
L 357.997181 56.311002 
L 357.863449 56.284343 
L 356.104352 56.195731 
L 356.025484 56.168325 
L 356.018626 56.168388 
L 355.013917 56.071723 
L 355.013917 56.064661 
L 354.904188 56.065631 
L 354.300677 55.971842 
L 354.300677 55.964759 
L 354.208093 55.951376 
L 354.190948 55.951522 
L 352.990785 55.854965 
L 352.990785 55.847846 
L 352.881055 55.848739 
L 351.807766 55.750256 
L 351.807766 55.743104 
L 351.698037 55.74396 
L 349.880646 55.650191 
L 349.846356 55.636038 
L 349.770917 55.636602 
L 349.040532 55.533658 
L 348.937661 55.519927 
L 348.930802 55.519976 
L 347.788933 55.419132 
L 347.679203 55.390799 
L 346.69164 55.287937 
L 346.58534 55.266704 
L 346.581911 55.266725 
L 345.65607 55.16259 
L 345.65607 55.155262 
L 345.546341 55.155901 
L 343.519779 55.056987 
L 343.519779 55.049598 
L 343.41005 55.050199 
L 341.33891 54.957339 
L 341.277188 54.942752 
L 341.229181 54.942998 
L 339.312348 54.84776 
L 339.312348 54.840249 
L 339.202619 54.840773 
L 335.307231 54.752906 
L 335.200931 54.73049 
L 335.197502 54.730505 
L 328.17483 54.652718 
L 328.089104 54.621688 
L 328.065101 54.621788 
L 322.852962 54.539608 
L 322.852962 54.531592 
L 322.743232 54.532016 
L 317.568813 54.445959 
L 317.465941 54.429936 
L 317.459083 54.42996 
L 308.937922 54.35072 
L 308.937922 54.342224 
L 308.828192 54.342585 
L 296.377352 54.278142 
L 296.377352 54.269163 
L 296.267623 54.269509 
L 266.69902 54.252608 
L 266.582433 54.242654 
L 249.872727 54.1931 
L 249.872727 54.181747 
L 249.762997 54.182129 
L 244.269677 54.096347 
L 244.269677 54.084616 
L 244.166806 54.084928 
L 206.371939 54.096438 
L 206.255352 54.081805 
L 178.524714 54.084095 
L 178.411556 54.065534 
L 170.116711 54.00452 
L 169.996694 53.984266 
L 148.678359 53.969134 
L 148.551485 53.943045 
L 124.020141 53.966815 
L 123.924128 53.927646 
L 123.550362 53.849865 
L 123.413201 53.810283 
L 117.820438 53.750078 
L 117.710709 53.70491 
L 103.43562 53.703288 
L 103.312175 53.635935 
L 84.589622 53.568 
L 73.832727 53.568 
L 73.832727 53.568 
" clip-path="url(#p2a96377e01)" style="fill: none; stroke: #1f77b4; stroke-width: 1.5; stroke-linecap: square"/>
   </g>
   <g id="patch_3">
    <path d="M 57.6 307.584 
L 57.6 41.472 
" style="fill: none; stroke: #000000; stroke-width: 0.8; stroke-linejoin: miter; stroke-linecap: square"/>
   </g>
   <g id="patch_4">
    <path d="M 414.72 307.584 
L 414.72 41.472 
" style="fill: none; stroke: #000000; stroke-width: 0.8; stroke-linejoin: miter; stroke-linecap: square"/>
   </g>
   <g id="patch_5">
    <path d="M 57.6 307.584 
L 414.72 307.584 
" style="fill: none; stroke: #000000; stroke-width: 0.8; stroke-linejoin: miter; stroke-linecap: square"/>
   </g>
   <g id="patch_6">
    <path d="M 57.6 41.472 
L 414.72 41.472 
" style="fill: none; stroke: #000000; stroke-width: 0.8; stroke-linejoin: miter; stroke-linecap: square"/>
   </g>
   <g id="text_12">
    <!-- Precision Recall -->
    <g transform="translate(189.584063 35.472) scale(0.12 -0.12)">
     <defs>
      <path id="DejaVuSans-50" d="M 1259 4147 
L 1259 2394 
L 2053 2394 
Q 2494 2394 2734 2622 
Q 2975 2850 2975 3272 
Q 2975 3691 2734 3919 
Q 2494 4147 2053 4147 
L 1259 4147 
z
M 628 4666 
L 2053 4666 
Q 2838 4666 3239 4311 
Q 3641 3956 3641 3272 
Q 3641 2581 3239 2228 
Q 2838 1875 2053 1875 
L 1259 1875 
L 1259 0 
L 628 0 
L 628 4666 
z
" transform="scale(0.015625)"/>
      <path id="DejaVuSans-72" d="M 2631 2963 
Q 2534 3019 2420 3045 
Q 2306 3072 2169 3072 
Q 1681 3072 1420 2755 
Q 1159 2438 1159 1844 
L 1159 0 
L 581 0 
L 581 3500 
L 1159 3500 
L 1159 2956 
Q 1341 3275 1631 3429 
Q 1922 3584 2338 3584 
Q 2397 3584 2469 3576 
Q 2541 3569 2628 3553 
L 2631 2963 
z
" transform="scale(0.015625)"/>
      <path id="DejaVuSans-65" d="M 3597 1894 
L 3597 1613 
L 953 1613 
Q 991 1019 1311 708 
Q 1631 397 2203 397 
Q 2534 397 2845 478 
Q 3156 559 3463 722 
L 3463 178 
Q 3153 47 2828 -22 
Q 2503 -91 2169 -91 
Q 1331 -91 842 396 
Q 353 884 353 1716 
Q 353 2575 817 3079 
Q 1281 3584 2069 3584 
Q 2775 3584 3186 3129 
Q 3597 2675 3597 1894 
z
M 3022 2063 
Q 3016 2534 2758 2815 
Q 2500 3097 2075 3097 
Q 1594 3097 1305 2825 
Q 1016 2553 972 2059 
L 3022 2063 
z
" transform="scale(0.015625)"/>
      <path id="DejaVuSans-63" d="M 3122 3366 
L 3122 2828 
Q 2878 2963 2633 3030 
Q 2388 3097 2138 3097 
Q 1578 3097 1268 2742 
Q 959 2388 959 1747 
Q 959 1106 1268 751 
Q 1578 397 2138 397 
Q 2388 397 2633 464 
Q 2878 531 3122 666 
L 3122 134 
Q 2881 22 2623 -34 
Q 2366 -91 2075 -91 
Q 1284 -91 818 406 
Q 353 903 353 1747 
Q 353 2603 823 3093 
Q 1294 3584 2113 3584 
Q 2378 3584 2631 3529 
Q 2884 3475 3122 3366 
z
" transform="scale(0.015625)"/>
      <path id="DejaVuSans-69" d="M 603 3500 
L 1178 3500 
L 1178 0 
L 603 0 
L 603 3500 
z
M 603 4863 
L 1178 4863 
L 1178 4134 
L 603 4134 
L 603 4863 
z
" transform="scale(0.015625)"/>
      <path id="DejaVuSans-73" d="M 2834 3397 
L 2834 2853 
Q 2591 2978 2328 3040 
Q 2066 3103 1784 3103 
Q 1356 3103 1142 2972 
Q 928 2841 928 2578 
Q 928 2378 1081 2264 
Q 1234 2150 1697 2047 
L 1894 2003 
Q 2506 1872 2764 1633 
Q 3022 1394 3022 966 
Q 3022 478 2636 193 
Q 2250 -91 1575 -91 
Q 1294 -91 989 -36 
Q 684 19 347 128 
L 347 722 
Q 666 556 975 473 
Q 1284 391 1588 391 
Q 1994 391 2212 530 
Q 2431 669 2431 922 
Q 2431 1156 2273 1281 
Q 2116 1406 1581 1522 
L 1381 1569 
Q 847 1681 609 1914 
Q 372 2147 372 2553 
Q 372 3047 722 3315 
Q 1072 3584 1716 3584 
Q 2034 3584 2315 3537 
Q 2597 3491 2834 3397 
z
" transform="scale(0.015625)"/>
      <path id="DejaVuSans-6f" d="M 1959 3097 
Q 1497 3097 1228 2736 
Q 959 2375 959 1747 
Q 959 1119 1226 758 
Q 1494 397 1959 397 
Q 2419 397 2687 759 
Q 2956 1122 2956 1747 
Q 2956 2369 2687 2733 
Q 2419 3097 1959 3097 
z
M 1959 3584 
Q 2709 3584 3137 3096 
Q 3566 2609 3566 1747 
Q 3566 888 3137 398 
Q 2709 -91 1959 -91 
Q 1206 -91 779 398 
Q 353 888 353 1747 
Q 353 2609 779 3096 
Q 1206 3584 1959 3584 
z
" transform="scale(0.015625)"/>
      <path id="DejaVuSans-6e" d="M 3513 2113 
L 3513 0 
L 2938 0 
L 2938 2094 
Q 2938 2591 2744 2837 
Q 2550 3084 2163 3084 
Q 1697 3084 1428 2787 
Q 1159 2491 1159 1978 
L 1159 0 
L 581 0 
L 581 3500 
L 1159 3500 
L 1159 2956 
Q 1366 3272 1645 3428 
Q 1925 3584 2291 3584 
Q 2894 3584 3203 3211 
Q 3513 2838 3513 2113 
z
" transform="scale(0.015625)"/>
      <path id="DejaVuSans-20" transform="scale(0.015625)"/>
      <path id="DejaVuSans-52" d="M 2841 2188 
Q 3044 2119 3236 1894 
Q 3428 1669 3622 1275 
L 4263 0 
L 3584 0 
L 2988 1197 
Q 2756 1666 2539 1819 
Q 2322 1972 1947 1972 
L 1259 1972 
L 1259 0 
L 628 0 
L 628 4666 
L 2053 4666 
Q 2853 4666 3247 4331 
Q 3641 3997 3641 3322 
Q 3641 2881 3436 2590 
Q 3231 2300 2841 2188 
z
M 1259 4147 
L 1259 2491 
L 2053 2491 
Q 2509 2491 2742 2702 
Q 2975 2913 2975 3322 
Q 2975 3731 2742 3939 
Q 2509 4147 2053 4147 
L 1259 4147 
z
" transform="scale(0.015625)"/>
      <path id="DejaVuSans-61" d="M 2194 1759 
Q 1497 1759 1228 1600 
Q 959 1441 959 1056 
Q 959 750 1161 570 
Q 1363 391 1709 391 
Q 2188 391 2477 730 
Q 2766 1069 2766 1631 
L 2766 1759 
L 2194 1759 
z
M 3341 1997 
L 3341 0 
L 2766 0 
L 2766 531 
Q 2569 213 2275 61 
Q 1981 -91 1556 -91 
Q 1019 -91 701 211 
Q 384 513 384 1019 
Q 384 1609 779 1909 
Q 1175 2209 1959 2209 
L 2766 2209 
L 2766 2266 
Q 2766 2663 2505 2880 
Q 2244 3097 1772 3097 
Q 1472 3097 1187 3025 
Q 903 2953 641 2809 
L 641 3341 
Q 956 3463 1253 3523 
Q 1550 3584 1831 3584 
Q 2591 3584 2966 3190 
Q 3341 2797 3341 1997 
z
" transform="scale(0.015625)"/>
      <path id="DejaVuSans-6c" d="M 603 4863 
L 1178 4863 
L 1178 0 
L 603 0 
L 603 4863 
z
" transform="scale(0.015625)"/>
     </defs>
     <use xlink:href="#DejaVuSans-50"/>
     <use xlink:href="#DejaVuSans-72" transform="translate(58.552734 0)"/>
     <use xlink:href="#DejaVuSans-65" transform="translate(97.416016 0)"/>
     <use xlink:href="#DejaVuSans-63" transform="translate(158.939453 0)"/>
     <use xlink:href="#DejaVuSans-69" transform="translate(213.919922 0)"/>
     <use xlink:href="#DejaVuSans-73" transform="translate(241.703125 0)"/>
     <use xlink:href="#DejaVuSans-69" transform="translate(293.802734 0)"/>
     <use xlink:href="#DejaVuSans-6f" transform="translate(321.585938 0)"/>
     <use xlink:href="#DejaVuSans-6e" transform="translate(382.767578 0)"/>
     <use xlink:href="#DejaVuSans-20" transform="translate(446.146484 0)"/>
     <use xlink:href="#DejaVuSans-52" transform="translate(477.933594 0)"/>
     <use xlink:href="#DejaVuSans-65" transform="translate(542.916016 0)"/>
     <use xlink:href="#DejaVuSans-63" transform="translate(604.439453 0)"/>
     <use xlink:href="#DejaVuSans-61" transform="translate(659.419922 0)"/>
     <use xlink:href="#DejaVuSans-6c" transform="translate(720.699219 0)"/>
     <use xlink:href="#DejaVuSans-6c" transform="translate(748.482422 0)"/>
    </g>
   </g>
  </g>
 </g>
 <defs>
  <clipPath id="p2a96377e01">
   <rect x="57.6" y="41.472" width="357.12" height="266.112"/>
  </clipPath>
 </defs>
</svg>
