<?xml version="1.0" encoding="utf-8" standalone="no"?>
<!DOCTYPE svg PUBLIC "-//W3C//DTD SVG 1.1//EN"
  "http://www.w3.org/Graphics/SVG/1.1/DTD/svg11.dtd">
<svg xmlns:xlink="http://www.w3.org/1999/xlink" width="460.8pt" height="345.6pt" viewBox="0 0 460.8 345.6" xmlns="http://www.w3.org/2000/svg" version="1.1">
 <metadata>
  <rdf:RDF xmlns:dc="http://purl.org/dc/elements/1.1/" xmlns:cc="http://creativecommons.org/ns#" xmlns:rdf="http://www.w3.org/1999/02/22-rdf-syntax-ns#">
   <cc:Work>
    <dc:type rdf:resource="http://purl.org/dc/dcmitype/StillImage"/>
    <dc:date>2026-03-17T11:22:16.802016</dc:date>
    <dc:format>image/svg+xml</dc:format>
    <dc:creator>
     <cc:Agent>
      <dc:title>Matplotlib v3.10.8, https://matplotlib.org/</dc:title>
     </cc:Agent>
    </dc:creator>
   </cc:Work>
  </rdf:RDF>
 </metadata>
 <defs>
  <style type="text/css">*{stroke-linejoin: round; stroke-linecap: butt}</style>
 </defs>
 <g id="figure_1">
  <g id="patch_1">
   <path d="M 0 345.6 
L 460.8 345.6 
L 460.8 0 
L 0 0 
z
" style="fill: #ffffff"/>
  </g>
  <g id="axes_1">
   <g id="patch_2">
    <path d="M 57.6 307.584 
L 414.72 307.584 
L 414.72 41.472 
L 57.6 41.472 
z
" style="fill: #ffffff"/>
   </g>
   <g id="matplotlib.axis_1">
    <g id="xtick_1">
     <g id="line2d_1">
      <defs>
       <path id="m610b327263" d="M 0 0 
L 0 3.5 
" style="stroke: #000000; stroke-width: 0.8"/>
      </defs>
      <g>
       <use xlink:href="#m610b327263" x="73.832727" y="307.584" style="stroke: #000000; stroke-width: 0.8"/>
      </g>
     </g>
     <g id="text_1">
      <!-- 0.0 -->
      <g transform="translate(65.881165 322.182437) scale(0.1 -0.1)">
       <defs>
        <path id="DejaVuSans-30" d="M 2034 4250 
Q 1547 4250 1301 3770 
Q 1056 3291 1056 2328 
Q 1056 1369 1301 889 
Q 1547 409 2034 409 
Q 2525 409 2770 889 
Q 3016 1369 3016 2328 
Q 3016 3291 2770 3770 
Q 2525 4250 2034 4250 
z
M 2034 4750 
Q 2819 4750 3233 4129 
Q 3647 3509 3647 2328 
Q 3647 1150 3233 529 
Q 2819 -91 2034 -91 
Q 1250 -91 836 529 
Q 422 1150 422 2328 
Q 422 3509 836 4129 
Q 1250 4750 2034 4750 
z
" transform="scale(0.015625)"/>
        <path id="DejaVuSans-2e" d="M 684 794 
L 1344 794 
L 1344 0 
L 684 0 
L 684 794 
z
" transform="scale(0.015625)"/>
       </defs>
       <use xlink:href="#DejaVuSans-30"/>
       <use xlink:href="#DejaVuSans-2e" transform="translate(63.623047 0)"/>
       <use xlink:href="#DejaVuSans-30" transform="translate(95.410156 0)"/>
      </g>
     </g>
    </g>
    <g id="xtick_2">
     <g id="line2d_2">
      <g>
       <use xlink:href="#m610b327263" x="138.763636" y="307.584" style="stroke: #000000; stroke-width: 0.8"/>
      </g>
     </g>
     <g id="text_2">
      <!-- 0.2 -->
      <g transform="translate(130.812074 322.182437) scale(0.1 -0.1)">
       <defs>
        <path id="DejaVuSans-32" d="M 1228 531 
L 3431 531 
L 3431 0 
L 469 0 
L 469 531 
Q 828 903 1448 1529 
Q 2069 2156 2228 2338 
Q 2531 2678 2651 2914 
Q 2772 3150 2772 3378 
Q 2772 3750 2511 3984 
Q 2250 4219 1831 4219 
Q 1534 4219 1204 4116 
Q 875 4013 500 3803 
L 500 4441 
Q 881 4594 1212 4672 
Q 1544 4750 1819 4750 
Q 2544 4750 2975 4387 
Q 3406 4025 3406 3419 
Q 3406 3131 3298 2873 
Q 3191 2616 2906 2266 
Q 2828 2175 2409 1742 
Q 1991 1309 1228 531 
z
" transform="scale(0.015625)"/>
       </defs>
       <use xlink:href="#DejaVuSans-30"/>
       <use xlink:href="#DejaVuSans-2e" transform="translate(63.623047 0)"/>
       <use xlink:href="#DejaVuSans-32" transform="translate(95.410156 0)"/>
      </g>
     </g>
    </g>
    <g id="xtick_3">
     <g id="line2d_3">
      <g>
       <use xlink:href="#m610b327263" x="203.694545" y="307.584" style="stroke: #000000; stroke-width: 0.8"/>
      </g>
     </g>
     <g id="text_3">
      <!-- 0.4 -->
      <g transform="translate(195.742983 322.182437) scale(0.1 -0.1)">
       <defs>
        <path id="DejaVuSans-34" d="M 2419 4116 
L 825 1625 
L 2419 1625 
L 2419 4116 
z
M 2253 4666 
L 3047 4666 
L 3047 1625 
L 3713 1625 
L 3713 1100 
L 3047 1100 
L 3047 0 
L 2419 0 
L 2419 1100 
L 313 1100 
L 313 1709 
L 2253 4666 
z
" transform="scale(0.015625)"/>
       </defs>
       <use xlink:href="#DejaVuSans-30"/>
       <use xlink:href="#DejaVuSans-2e" transform="translate(63.623047 0)"/>
       <use xlink:href="#DejaVuSans-34" transform="translate(95.410156 0)"/>
      </g>
     </g>
    </g>
    <g id="xtick_4">
     <g id="line2d_4">
      <g>
       <use xlink:href="#m610b327263" x="268.625455" y="307.584" style="stroke: #000000; stroke-width: 0.8"/>
      </g>
     </g>
     <g id="text_4">
      <!-- 0.6 -->
      <g transform="translate(260.673892 322.182437) scale(0.1 -0.1)">
       <defs>
        <path id="DejaVuSans-36" d="M 2113 2584 
Q 1688 2584 1439 2293 
Q 1191 2003 1191 1497 
Q 1191 994 1439 701 
Q 1688 409 2113 409 
Q 2538 409 2786 701 
Q 3034 994 3034 1497 
Q 3034 2003 2786 2293 
Q 2538 2584 2113 2584 
z
M 3366 4563 
L 3366 3988 
Q 3128 4100 2886 4159 
Q 2644 4219 2406 4219 
Q 1781 4219 1451 3797 
Q 1122 3375 1075 2522 
Q 1259 2794 1537 2939 
Q 1816 3084 2150 3084 
Q 2853 3084 3261 2657 
Q 3669 2231 3669 1497 
Q 3669 778 3244 343 
Q 2819 -91 2113 -91 
Q 1303 -91 875 529 
Q 447 1150 447 2328 
Q 447 3434 972 4092 
Q 1497 4750 2381 4750 
Q 2619 4750 2861 4703 
Q 3103 4656 3366 4563 
z
" transform="scale(0.015625)"/>
       </defs>
       <use xlink:href="#DejaVuSans-30"/>
       <use xlink:href="#DejaVuSans-2e" transform="translate(63.623047 0)"/>
       <use xlink:href="#DejaVuSans-36" transform="translate(95.410156 0)"/>
      </g>
     </g>
    </g>
    <g id="xtick_5">
     <g id="line2d_5">
      <g>
       <use xlink:href="#m610b327263" x="333.556364" y="307.584" style="stroke: #000000; stroke-width: 0.8"/>
      </g>
     </g>
     <g id="text_5">
      <!-- 0.8 -->
      <g transform="translate(325.604801 322.182437) scale(0.1 -0.1)">
       <defs>
        <path id="DejaVuSans-38" d="M 2034 2216 
Q 1584 2216 1326 1975 
Q 1069 1734 1069 1313 
Q 1069 891 1326 650 
Q 1584 409 2034 409 
Q 2484 409 2743 651 
Q 3003 894 3003 1313 
Q 3003 1734 2745 1975 
Q 2488 2216 2034 2216 
z
M 1403 2484 
Q 997 2584 770 2862 
Q 544 3141 544 3541 
Q 544 4100 942 4425 
Q 1341 4750 2034 4750 
Q 2731 4750 3128 4425 
Q 3525 4100 3525 3541 
Q 3525 3141 3298 2862 
Q 3072 2584 2669 2484 
Q 3125 2378 3379 2068 
Q 3634 1759 3634 1313 
Q 3634 634 3220 271 
Q 2806 -91 2034 -91 
Q 1263 -91 848 271 
Q 434 634 434 1313 
Q 434 1759 690 2068 
Q 947 2378 1403 2484 
z
M 1172 3481 
Q 1172 3119 1398 2916 
Q 1625 2713 2034 2713 
Q 2441 2713 2670 2916 
Q 2900 3119 2900 3481 
Q 2900 3844 2670 4047 
Q 2441 4250 2034 4250 
Q 1625 4250 1398 4047 
Q 1172 3844 1172 3481 
z
" transform="scale(0.015625)"/>
       </defs>
       <use xlink:href="#DejaVuSans-30"/>
       <use xlink:href="#DejaVuSans-2e" transform="translate(63.623047 0)"/>
       <use xlink:href="#DejaVuSans-38" transform="translate(95.410156 0)"/>
      </g>
     </g>
    </g>
    <g id="xtick_6">
     <g id="line2d_6">
      <g>
       <use xlink:href="#m610b327263" x="398.487273" y="307.584" style="stroke: #000000; stroke-width: 0.8"/>
      </g>
     </g>
     <g id="text_6">
      <!-- 1.0 -->
      <g transform="translate(390.53571 322.182437) scale(0.1 -0.1)">
       <defs>
        <path id="DejaVuSans-31" d="M 794 531 
L 1825 531 
L 1825 4091 
L 703 3866 
L 703 4441 
L 1819 4666 
L 2450 4666 
L 2450 531 
L 3481 531 
L 3481 0 
L 794 0 
L 794 531 
z
" transform="scale(0.015625)"/>
       </defs>
       <use xlink:href="#DejaVuSans-31"/>
       <use xlink:href="#DejaVuSans-2e" transform="translate(63.623047 0)"/>
       <use xlink:href="#DejaVuSans-30" transform="translate(95.410156 0)"/>
      </g>
     </g>
    </g>
   </g>
   <g id="matplotlib.axis_2">
    <g id="ytick_1">
     <g id="line2d_7">
      <defs>
       <path id="mb603c64fb3" d="M 0 0 
L -3.5 0 
" style="stroke: #000000; stroke-width: 0.8"/>
      </defs>
      <g>
       <use xlink:href="#mb603c64fb3" x="57.6" y="278.405695" style="stroke: #000000; stroke-width: 0.8"/>
      </g>
     </g>
     <g id="text_7">
      <!-- 0.5 -->
      <g transform="translate(34.696875 282.204913) scale(0.1 -0.1)">
       <defs>
        <path id="DejaVuSans-35" d="M 691 4666 
L 3169 4666 
L 3169 4134 
L 1269 4134 
L 1269 2991 
Q 1406 3038 1543 3061 
Q 1681 3084 1819 3084 
Q 2600 3084 3056 2656 
Q 3513 2228 3513 1497 
Q 3513 744 3044 326 
Q 2575 -91 1722 -91 
Q 1428 -91 1123 -41 
Q 819 9 494 109 
L 494 744 
Q 775 591 1075 516 
Q 1375 441 1709 441 
Q 2250 441 2565 725 
Q 2881 1009 2881 1497 
Q 2881 1984 2565 2268 
Q 2250 2553 1709 2553 
Q 1456 2553 1204 2497 
Q 953 2441 691 2322 
L 691 4666 
z
" transform="scale(0.015625)"/>
       </defs>
       <use xlink:href="#DejaVuSans-30"/>
       <use xlink:href="#DejaVuSans-2e" transform="translate(63.623047 0)"/>
       <use xlink:href="#DejaVuSans-35" transform="translate(95.410156 0)"/>
      </g>
     </g>
    </g>
    <g id="ytick_2">
     <g id="line2d_8">
      <g>
       <use xlink:href="#mb603c64fb3" x="57.6" y="233.438156" style="stroke: #000000; stroke-width: 0.8"/>
      </g>
     </g>
     <g id="text_8">
      <!-- 0.6 -->
      <g transform="translate(34.696875 237.237374) scale(0.1 -0.1)">
       <use xlink:href="#DejaVuSans-30"/>
       <use xlink:href="#DejaVuSans-2e" transform="translate(63.623047 0)"/>
       <use xlink:href="#DejaVuSans-36" transform="translate(95.410156 0)"/>
      </g>
     </g>
    </g>
    <g id="ytick_3">
     <g id="line2d_9">
      <g>
       <use xlink:href="#mb603c64fb3" x="57.6" y="188.470617" style="stroke: #000000; stroke-width: 0.8"/>
      </g>
     </g>
     <g id="text_9">
      <!-- 0.7 -->
      <g transform="translate(34.696875 192.269836) scale(0.1 -0.1)">
       <defs>
        <path id="DejaVuSans-37" d="M 525 4666 
L 3525 4666 
L 3525 4397 
L 1831 0 
L 1172 0 
L 2766 4134 
L 525 4134 
L 525 4666 
z
" transform="scale(0.015625)"/>
       </defs>
       <use xlink:href="#DejaVuSans-30"/>
       <use xlink:href="#DejaVuSans-2e" transform="translate(63.623047 0)"/>
       <use xlink:href="#DejaVuSans-37" transform="translate(95.410156 0)"/>
      </g>
     </g>
    </g>
    <g id="ytick_4">
     <g id="line2d_10">
      <g>
       <use xlink:href="#mb603c64fb3" x="57.6" y="143.503078" style="stroke: #000000; stroke-width: 0.8"/>
      </g>
     </g>
     <g id="text_10">
      <!-- 0.8 -->
      <g transform="translate(34.696875 147.302297) scale(0.1 -0.1)">
       <use xlink:href="#DejaVuSans-30"/>
       <use xlink:href="#DejaVuSans-2e" transform="translate(63.623047 0)"/>
       <use xlink:href="#DejaVuSans-38" transform="translate(95.410156 0)"/>
      </g>
     </g>
    </g>
    <g id="ytick_5">
     <g id="line2d_11">
      <g>
       <use xlink:href="#mb603c64fb3" x="57.6" y="98.535539" style="stroke: #000000; stroke-width: 0.8"/>
      </g>
     </g>
     <g id="text_11">
      <!-- 0.9 -->
      <g transform="translate(34.696875 102.334758) scale(0.1 -0.1)">
       <defs>
        <path id="DejaVuSans-39" d="M 703 97 
L 703 672 
Q 941 559 1184 500 
Q 1428 441 1663 441 
Q 2288 441 2617 861 
Q 2947 1281 2994 2138 
Q 2813 1869 2534 1725 
Q 2256 1581 1919 1581 
Q 1219 1581 811 2004 
Q 403 2428 403 3163 
Q 403 3881 828 4315 
Q 1253 4750 1959 4750 
Q 2769 4750 3195 4129 
Q 3622 3509 3622 2328 
Q 3622 1225 3098 567 
Q 2575 -91 1691 -91 
Q 1453 -91 1209 -44 
Q 966 3 703 97 
z
M 1959 2075 
Q 2384 2075 2632 2365 
Q 2881 2656 2881 3163 
Q 2881 3666 2632 3958 
Q 2384 4250 1959 4250 
Q 1534 4250 1286 3958 
Q 1038 3666 1038 3163 
Q 1038 2656 1286 2365 
Q 1534 2075 1959 2075 
z
" transform="scale(0.015625)"/>
       </defs>
       <use xlink:href="#DejaVuSans-30"/>
       <use xlink:href="#DejaVuSans-2e" transform="translate(63.623047 0)"/>
       <use xlink:href="#DejaVuSans-39" transform="translate(95.410156 0)"/>
      </g>
     </g>
    </g>
    <g id="ytick_6">
     <g id="line2d_12">
      <g>
       <use xlink:href="#mb603c64fb3" x="57.6" y="53.568" style="stroke: #000000; stroke-width: 0.8"/>
      </g>
     </g>
     <g id="text_12">
      <!-- 1.0 -->
      <g transform="translate(34.696875 57.367219) scale(0.1 -0.1)">
       <use xlink:href="#DejaVuSans-31"/>
       <use xlink:href="#DejaVuSans-2e" transform="translate(63.623047 0)"/>
       <use xlink:href="#DejaVuSans-30" transform="translate(95.410156 0)"/>
      </g>
     </g>
    </g>
   </g>
   <g id="line2d_13">
    <path d="M 398.487273 295.488 
L 398.376286 244.161859 
L 398.375973 244.161964 
L 398.373159 244.04567 
L 398.262172 241.572837 
L 398.261859 241.572942 
L 398.250917 241.459484 
L 398.13993 240.526741 
L 398.138992 240.525725 
L 398.122735 240.41677 
L 398.121797 240.415605 
L 398.01081 239.663575 
L 398.007371 239.656686 
L 397.987674 239.555386 
L 397.986736 239.554509 
L 397.875749 238.847777 
L 397.875124 238.847087 
L 397.857304 238.736786 
L 397.746316 237.835474 
L 397.746004 237.835579 
L 397.729434 237.724064 
L 397.618447 236.785999 
L 397.602502 236.671307 
L 397.491828 235.636508 
L 397.491515 235.636613 
L 397.478384 235.522196 
L 397.367397 234.515459 
L 397.367084 234.515563 
L 397.35239 234.403413 
L 397.241403 233.58768 
L 397.24109 233.587784 
L 397.231086 233.473989 
L 397.120099 232.554145 
L 397.103842 232.438803 
L 396.992854 231.534974 
L 396.991291 231.533112 
L 396.980974 231.421977 
L 396.869987 230.500391 
L 396.868736 230.500006 
L 396.857794 230.388156 
L 396.857169 230.387723 
L 396.746182 229.308529 
L 396.744931 229.307328 
L 396.734614 229.198088 
L 396.733676 229.19565 
L 396.622689 228.276925 
L 396.622376 228.277029 
L 396.603931 228.169906 
L 396.601742 228.167044 
L 396.490755 227.4093 
L 396.489504 227.40791 
L 396.467307 227.307981 
L 396.464493 227.301035 
L 396.353506 226.720472 
L 396.352568 226.720452 
L 396.338499 226.609828 
L 396.337874 226.608714 
L 396.2272 225.88438 
L 396.226887 225.884483 
L 396.225011 225.882944 
L 396.20594 225.77936 
L 396.203126 225.775473 
L 396.092139 224.880034 
L 396.091827 224.880137 
L 396.081509 224.766629 
L 395.970522 223.828584 
L 395.949888 223.710781 
L 395.838901 223.162588 
L 395.838588 223.162691 
L 395.828584 223.049055 
L 395.717597 222.294405 
L 395.701339 222.177263 
L 395.590352 221.416956 
L 395.575658 221.300024 
L 395.464671 220.521913 
L 395.440285 220.362169 
L 395.329298 219.622052 
L 395.312103 219.504087 
L 395.201116 218.858637 
L 395.200803 218.858738 
L 395.186422 218.746665 
L 395.075435 217.840441 
L 395.0548 217.721386 
L 394.943813 216.975293 
L 394.943501 216.975394 
L 394.932871 216.871982 
L 394.929432 216.863329 
L 394.818445 215.95259 
L 394.818132 215.952692 
L 394.8025 215.841135 
L 394.692138 215.228483 
L 394.691513 215.228685 
L 394.673067 215.109478 
L 394.56208 214.307479 
L 394.561142 214.306876 
L 394.548324 214.196402 
L 394.547699 214.195516 
L 394.436712 213.440971 
L 394.436399 213.441071 
L 394.425144 213.328442 
L 394.424831 213.328178 
L 394.313844 212.49791 
L 394.313531 212.49801 
L 394.294773 212.387342 
L 394.29446 212.387442 
L 394.183473 211.65318 
L 394.173469 211.535648 
L 394.062482 210.619431 
L 394.043723 210.499128 
L 393.932736 209.835216 
L 393.932424 209.835315 
L 393.911164 209.726483 
L 393.910539 209.725747 
L 393.799864 209.009144 
L 393.782044 208.900388 
L 393.782044 208.898505 
L 393.671057 208.026646 
L 393.670431 208.026087 
L 393.65605 207.917878 
L 393.654487 207.91534 
L 393.5435 207.165486 
L 393.543187 207.165585 
L 393.528806 207.058951 
L 393.526617 207.054301 
L 393.41563 206.267996 
L 393.415317 206.268095 
L 393.396872 206.157404 
L 393.285884 205.17264 
L 393.269002 205.051435 
L 393.158015 204.19372 
L 393.147385 204.074138 
L 393.036398 203.134603 
L 393.017952 203.012411 
L 392.906965 202.166394 
L 392.90634 202.166391 
L 392.896648 202.054412 
L 392.896023 202.053421 
L 392.785035 201.236514 
L 392.782534 201.231924 
L 392.770654 201.124632 
L 392.659667 200.351245 
L 392.645911 200.229818 
L 392.534924 199.516033 
L 392.533048 199.51279 
L 392.51554 199.410495 
L 392.513664 199.406443 
L 392.402677 198.790981 
L 392.400488 198.785385 
L 392.379542 198.681959 
L 392.268555 198.019111 
L 392.264178 198.00805 
L 392.250421 197.913186 
L 392.247608 197.90937 
L 392.136621 197.248125 
L 392.135995 197.248317 
L 392.119425 197.137194 
L 392.008438 196.356856 
L 392.006562 196.352697 
L 391.990618 196.2462 
L 391.879943 195.763862 
L 391.879631 195.763957 
L 391.879318 195.764053 
L 391.858684 195.65437 
L 391.747697 195.142664 
L 391.746759 195.141912 
L 391.723936 195.033821 
L 391.612949 194.474561 
L 391.612324 194.474126 
L 391.589501 194.37069 
L 391.587312 194.366346 
L 391.476325 193.805231 
L 391.474762 193.804449 
L 391.45319 193.697154 
L 391.452877 193.69641 
L 391.34189 193.122063 
L 391.341578 193.122157 
L 391.33595 193.058143 
L 391.320318 193.012517 
L 391.209331 192.470057 
L 391.204329 192.460357 
L 391.186196 192.361067 
L 391.075208 191.83797 
L 391.073333 191.835986 
L 391.053949 191.734471 
L 391.05176 191.729176 
L 390.940773 191.24726 
L 390.91076 191.135027 
L 390.799773 190.594894 
L 390.799147 190.595082 
L 390.776637 190.486021 
L 390.66565 189.979791 
L 390.663462 189.975495 
L 390.642202 189.870923 
L 390.531215 189.359887 
L 390.530903 189.35998 
L 390.509956 189.251138 
L 390.509643 189.250366 
L 390.398656 188.701454 
L 390.395529 188.697607 
L 390.38615 188.645421 
L 390.368955 188.594461 
L 390.257968 188.088392 
L 390.255779 188.084679 
L 390.233895 187.979637 
L 390.122908 187.462385 
L 390.094457 187.331149 
L 389.98347 186.754265 
L 389.9669 186.703217 
L 389.957521 186.646268 
L 389.846847 186.166745 
L 389.846534 186.166837 
L 389.845909 186.166137 
L 389.823399 186.060389 
L 389.822148 186.058324 
L 389.711161 185.486493 
L 389.710223 185.486325 
L 389.691152 185.399251 
L 389.682398 185.37915 
L 389.571411 184.92691 
L 389.570473 184.925847 
L 389.548901 184.821268 
L 389.547963 184.818195 
L 389.437288 184.326459 
L 389.436976 184.326551 
L 389.435725 184.326246 
L 389.420719 184.260957 
L 389.40665 184.219803 
L 389.295663 183.747699 
L 389.276592 183.702213 
L 389.26221 183.641826 
L 389.151536 183.207247 
L 389.151223 183.207339 
L 389.145283 183.19914 
L 389.118396 183.10127 
L 389.007409 182.718414 
L 388.993653 182.677552 
L 388.982398 182.617123 
L 388.979896 182.610823 
L 388.868909 182.245098 
L 388.84171 182.156806 
L 388.852965 182.179691 
L 388.838271 182.138466 
L 388.727284 181.716331 
L 388.716341 181.683446 
L 388.712277 181.657914 
L 388.696332 181.609795 
L 388.585345 181.278881 
L 388.570026 181.233864 
L 388.566274 181.20357 
L 388.555957 181.171968 
L 388.44497 180.831349 
L 388.435903 180.804342 
L 388.424961 180.747536 
L 388.416207 180.724098 
L 388.30522 180.287012 
L 388.298654 180.273231 
L 388.277082 180.181197 
L 388.276457 180.179763 
L 388.166095 179.77558 
L 388.16547 179.77576 
L 388.136394 179.701977 
L 388.158592 179.748584 
L 388.129516 179.670615 
L 388.018529 179.274025 
L 388.018216 179.274116 
L 387.996332 179.171456 
L 387.993831 179.165669 
L 387.882843 178.748841 
L 387.868775 178.707191 
L 387.861584 178.671712 
L 387.852517 178.642129 
L 387.74153 178.192924 
L 387.739342 178.18817 
L 387.715268 178.087857 
L 387.714331 178.085316 
L 387.603343 177.709564 
L 387.57333 177.61551 
L 387.598029 177.684785 
L 387.570516 177.603627 
L 387.459529 177.233485 
L 387.429516 177.149205 
L 387.459216 177.232161 
L 387.426389 177.127464 
L 387.315402 176.739585 
L 387.28789 176.65425 
L 387.311963 176.720231 
L 387.282888 176.633673 
L 387.171901 176.22979 
L 387.140637 176.132825 
L 387.170025 176.215849 
L 387.139386 176.123683 
L 387.028399 175.669345 
L 386.990882 175.528425 
L 386.879895 175.149959 
L 386.859573 175.097371 
L 386.87927 175.147745 
L 386.84613 175.044248 
L 386.735143 174.641763 
L 386.730766 174.629564 
L 386.711695 174.538707 
L 386.708256 174.533916 
L 386.597581 174.140323 
L 386.597269 174.140411 
L 386.587264 174.10856 
L 386.581324 174.075554 
L 386.568818 174.033068 
L 386.457831 173.594995 
L 386.456581 173.593897 
L 386.430944 173.487242 
L 386.32027 173.07877 
L 386.315267 173.070231 
L 386.295884 172.987116 
L 386.290882 172.971774 
L 386.289944 172.971795 
L 386.179894 172.538863 
L 386.155509 172.471426 
L 386.171766 172.504863 
L 386.145817 172.433217 
L 386.035142 172.018201 
L 386.03483 172.018289 
L 385.995437 171.874319 
L 385.88445 171.422264 
L 385.849434 171.28034 
L 385.738447 170.874507 
L 385.721252 170.82535 
L 385.709684 170.767217 
L 385.598697 170.327139 
L 385.560242 170.182749 
L 385.449568 169.772623 
L 385.449255 169.772709 
L 385.448943 169.772796 
L 385.444566 169.733559 
L 385.423306 169.664719 
L 385.312319 169.217925 
L 385.279804 169.075897 
L 385.168817 168.693852 
L 385.162252 168.671662 
L 385.148808 168.60435 
L 385.142868 168.585975 
L 385.113793 168.445324 
L 385.002806 168.011193 
L 385.001555 168.011536 
L 384.979983 167.903411 
L 384.979045 167.902663 
L 384.868058 167.462706 
L 384.859617 167.440314 
L 384.853051 167.3932 
L 384.841796 167.354919 
L 384.730809 166.938932 
L 384.722368 166.919987 
L 384.712989 166.871945 
L 384.70017 166.832416 
L 384.589183 166.391401 
L 384.588871 166.391486 
L 384.569799 166.28163 
L 384.458812 165.834199 
L 384.421608 165.687497 
L 384.310621 165.183044 
L 384.306869 165.178428 
L 384.286235 165.075964 
L 384.285297 165.074937 
L 384.17431 164.587222 
L 384.144609 164.488557 
L 384.171809 164.568881 
L 384.143046 164.480751 
L 384.032059 164.064898 
L 384.002984 163.974438 
L 384.026119 164.032455 
L 384.00142 163.958087 
L 383.890433 163.496834 
L 383.874176 163.443977 
L 383.867298 163.396616 
L 383.864171 163.388906 
L 383.753184 162.965181 
L 383.74443 162.940762 
L 383.726297 162.857508 
L 383.655953 162.568986 
L 383.545279 162.166314 
L 383.544966 162.166397 
L 383.509325 162.018321 
L 383.398338 161.511781 
L 383.363948 161.363971 
L 383.252961 160.918217 
L 383.216694 160.768935 
L 383.105707 160.324107 
L 383.105395 160.32419 
L 383.087887 160.228311 
L 383.082259 160.215507 
L 382.971272 159.78052 
L 382.963769 159.757813 
L 382.953452 159.704256 
L 382.942822 159.673329 
L 382.832147 159.226638 
L 382.831835 159.22672 
L 382.828083 159.219979 
L 382.809637 159.125709 
L 382.806824 159.118451 
L 382.778061 158.972406 
L 382.667074 158.49833 
L 382.660821 158.479623 
L 382.644251 158.398286 
L 382.640812 158.390614 
L 382.530137 157.900463 
L 382.529825 157.900544 
L 382.50794 157.823741 
L 382.519508 157.853522 
L 382.502 157.793029 
L 382.391013 157.322123 
L 382.38601 157.309666 
L 382.369753 157.229177 
L 382.362875 157.214767 
L 382.251888 156.765405 
L 382.220624 156.616428 
L 382.109637 156.121339 
L 382.097757 156.084437 
L 382.104322 156.095527 
L 382.083063 156.013714 
L 381.972075 155.472531 
L 381.942687 155.372491 
L 381.960195 155.422074 
L 381.942062 155.365551 
L 381.8317 154.872116 
L 381.831075 154.872275 
L 381.824509 154.850112 
L 381.812942 154.777692 
L 381.80794 154.763614 
L 381.696952 154.236289 
L 381.614103 153.910877 
L 381.503116 153.4431 
L 381.47404 153.342014 
L 381.499051 153.42477 
L 381.473102 153.336163 
L 381.362115 152.856429 
L 381.348984 152.826699 
L 381.361803 152.855119 
L 381.333665 152.749189 
L 381.222678 152.304742 
L 381.19454 152.154889 
L 381.083553 151.671039 
L 381.081677 151.668151 
L 381.061668 151.562066 
L 380.950681 151.016904 
L 380.943178 150.998827 
L 380.929109 150.922249 
L 380.923794 150.909236 
L 380.81312 150.404067 
L 380.812807 150.404144 
L 380.784669 150.313237 
L 380.812182 150.40148 
L 380.781856 150.297568 
L 380.670869 149.841492 
L 380.64148 149.689618 
L 380.530493 149.173003 
L 380.530181 149.17308 
L 380.508921 149.066286 
L 380.507983 149.064241 
L 380.396996 148.608103 
L 380.384803 148.571432 
L 380.395746 148.598425 
L 380.370109 148.501115 
L 380.259435 148.046472 
L 380.259122 148.046549 
L 380.257871 148.043132 
L 380.244428 147.967091 
L 380.235049 147.938153 
L 380.124062 147.42398 
L 380.090296 147.267119 
L 379.979309 146.722225 
L 379.978997 146.722301 
L 379.95805 146.613292 
L 379.847375 146.100042 
L 379.847063 146.100117 
L 379.844562 146.095212 
L 379.829242 146.010766 
L 379.823615 145.991529 
L 379.713253 145.500977 
L 379.712628 145.501126 
L 379.703248 145.467585 
L 379.691993 145.403341 
L 379.687304 145.39311 
L 379.576629 144.911937 
L 379.576317 144.912012 
L 379.568813 144.891898 
L 379.551618 144.805146 
L 379.550993 144.803834 
L 379.440631 144.369215 
L 379.440006 144.369363 
L 379.420935 144.305895 
L 379.417496 144.269186 
L 379.415307 144.261495 
L 379.30432 143.727676 
L 379.301194 143.718705 
L 379.293378 143.666703 
L 379.280247 143.619763 
L 379.16926 143.1001 
L 379.153002 143.039521 
L 379.14675 142.997551 
L 379.144561 142.991859 
L 379.033574 142.52565 
L 379.013878 142.451983 
L 379.026696 142.490203 
L 379.007625 142.417854 
L 378.896638 141.935161 
L 378.889447 141.880594 
L 378.869751 141.827428 
L 378.758764 141.288658 
L 378.745633 141.24778 
L 378.758451 141.28395 
L 378.730939 141.181248 
L 378.619951 140.639465 
L 378.581809 140.474199 
L 378.470822 139.910489 
L 378.445498 139.807187 
L 378.455503 139.83444 
L 378.444873 139.802507 
L 378.333886 139.292468 
L 378.313877 139.223214 
L 378.333573 139.290725 
L 378.307312 139.184764 
L 378.196325 138.642775 
L 378.161622 138.478676 
L 378.050634 137.921861 
L 378.024998 137.822068 
L 378.045945 137.892109 
L 378.024373 137.813968 
L 377.913386 137.29474 
L 377.913073 137.29481 
L 377.893377 137.18773 
L 377.892439 137.185796 
L 377.781452 136.609908 
L 377.777387 136.595131 
L 377.773323 136.56313 
L 377.758941 136.501116 
L 377.647954 135.960847 
L 377.647016 135.959203 
L 377.630447 135.855718 
L 377.628883 135.851431 
L 377.517896 135.323959 
L 377.506954 135.292896 
L 377.492572 135.216072 
L 377.381585 134.675724 
L 377.379709 134.672401 
L 377.363139 134.573943 
L 377.361264 134.56657 
L 377.250589 133.996591 
L 377.250277 133.996659 
L 377.249339 133.99655 
L 377.238396 133.929248 
L 377.227454 133.888178 
L 377.116467 133.394702 
L 377.115841 133.394524 
L 377.101773 133.30096 
L 377.097083 133.285344 
L 376.986096 132.753937 
L 376.966712 132.682223 
L 376.983595 132.73716 
L 376.959834 132.64622 
L 376.848847 132.150733 
L 376.842907 132.126092 
L 376.829776 132.041658 
L 376.719102 131.482514 
L 376.718789 131.482581 
L 376.683773 131.312273 
L 376.572786 130.766068 
L 376.56028 130.726645 
L 376.571848 130.760849 
L 376.548713 130.657683 
L 376.437726 130.22419 
L 376.422406 130.174332 
L 376.413965 130.115653 
L 376.302978 129.559214 
L 376.301727 129.554982 
L 376.287346 129.46423 
L 376.282969 129.450048 
L 376.171982 128.939789 
L 376.169168 128.933607 
L 376.152286 128.830752 
L 376.151973 128.830494 
L 376.040986 128.2589 
L 376.013786 128.158364 
L 376.031607 128.202918 
L 376.012848 128.151436 
L 375.902174 127.661944 
L 375.901861 127.662008 
L 375.884353 127.5961 
L 375.897797 127.640112 
L 375.87685 127.553781 
L 375.765863 127.132396 
L 375.740539 127.055123 
L 375.7371 127.025186 
L 375.626113 126.587189 
L 375.592973 126.482742 
L 375.59266 126.480843 
L 375.481673 126.078219 
L 375.459163 125.992238 
L 375.480423 126.067978 
L 375.455411 125.970357 
L 375.344737 125.562587 
L 375.344424 125.562649 
L 375.314098 125.457846 
L 375.313786 125.455604 
L 375.202798 124.996237 
L 375.176224 124.894559 
L 375.202486 124.993989 
L 375.175599 124.888408 
L 375.064924 124.454003 
L 375.064612 124.454065 
L 375.048042 124.395741 
L 375.062111 124.440651 
L 375.039601 124.346057 
L 374.928613 123.816348 
L 374.907354 123.741062 
L 374.928301 123.814747 
L 374.90329 123.708268 
L 374.792928 123.250573 
L 374.792302 123.250696 
L 374.76354 123.146206 
L 374.79199 123.246754 
L 374.76354 123.143202 
L 374.652552 122.713297 
L 374.618787 122.608713 
L 374.618475 122.606765 
L 374.507488 122.158783 
L 374.490918 122.088092 
L 374.507175 122.154142 
L 374.485915 122.050083 
L 374.374928 121.569047 
L 374.349292 121.461711 
L 374.372115 121.554085 
L 374.349292 121.461037 
L 374.23893 121.026647 
L 374.238305 121.026767 
L 374.215795 120.938395 
L 374.236429 121.011909 
L 374.213919 120.918454 
L 374.102932 120.397725 
L 374.084486 120.327219 
L 374.101368 120.386482 
L 374.078233 120.289354 
L 373.967246 119.82434 
L 373.941297 119.732139 
L 373.939421 119.716817 
L 373.828747 119.285802 
L 373.828434 119.28586 
L 373.796857 119.178977 
L 373.686183 118.709665 
L 373.68587 118.709723 
L 373.654294 118.607897 
L 373.653668 118.602866 
L 373.542681 118.2181 
L 373.517357 118.114758 
L 373.53549 118.173684 
L 373.516732 118.110056 
L 373.405745 117.656669 
L 373.373856 117.552062 
L 373.373856 117.549646 
L 373.262869 117.066465 
L 373.237545 116.959884 
L 373.262556 117.061674 
L 373.237545 116.958152 
L 373.126558 116.49737 
L 373.09373 116.391037 
L 373.122181 116.471057 
L 373.09373 116.390689 
L 372.982743 115.961585 
L 372.961796 115.879572 
L 372.95867 115.853277 
L 372.847683 115.455454 
L 372.817982 115.356173 
L 372.84737 115.452363 
L 372.817669 115.348182 
L 372.706682 115.015222 
L 372.674168 114.911562 
L 372.674168 114.908405 
L 372.563181 114.589131 
L 372.491274 114.368215 
L 372.380286 113.959093 
L 372.350273 113.854555 
L 372.34996 113.851785 
L 372.238973 113.418884 
L 372.198955 113.313562 
L 372.198955 113.313208 
L 372.088281 112.942562 
L 372.087968 112.942616 
L 372.057329 112.839565 
L 372.056704 112.835409 
L 371.945717 112.456429 
L 371.915078 112.350528 
L 371.915078 112.349102 
L 371.804404 111.986264 
L 371.804091 111.986317 
L 371.778767 111.890236 
L 371.803779 111.982798 
L 371.777517 111.878297 
L 371.66653 111.462345 
L 371.636516 111.365276 
L 371.635266 111.35509 
L 371.524591 110.939734 
L 371.524279 110.939786 
L 371.497079 110.849799 
L 371.494578 110.832236 
L 371.383591 110.481763 
L 371.382965 110.47574 
L 371.352952 110.374382 
L 371.241965 109.97431 
L 371.215703 109.880654 
L 371.21414 109.866443 
L 371.103153 109.520798 
L 371.072201 109.419634 
L 371.071889 109.413518 
L 370.960902 109.08092 
L 370.926824 108.974853 
L 370.926824 108.974126 
L 370.816149 108.59921 
L 370.815837 108.599261 
L 370.780821 108.492615 
L 370.669834 108.15742 
L 370.625752 108.054088 
L 370.625752 108.052625 
L 370.514765 107.707542 
L 370.486314 107.600981 
L 370.513827 107.695226 
L 370.486314 107.599881 
L 370.375327 107.259923 
L 370.337811 107.154471 
L 370.337811 107.153736 
L 370.227136 106.835109 
L 370.226823 106.835159 
L 370.193996 106.734164 
L 370.193371 106.727993 
L 370.082384 106.399914 
L 370.040178 106.294157 
L 369.92919 105.993931 
L 369.889172 105.888244 
L 369.889172 105.887873 
L 369.778498 105.584819 
L 369.778185 105.584868 
L 369.740669 105.478465 
L 369.629681 105.166707 
L 369.593415 105.061272 
L 369.593415 105.060154 
L 369.482428 104.763483 
L 369.438659 104.658135 
L 369.327671 104.386386 
L 369.291405 104.279584 
L 369.180731 103.949203 
L 369.180418 103.94925 
L 369.138212 103.843756 
L 369.180105 103.945169 
L 369.138212 103.843381 
L 369.027225 103.581221 
L 368.984706 103.475472 
L 368.873718 103.17748 
L 368.835889 103.072968 
L 368.835889 103.071081 
L 368.725527 102.76604 
L 368.724902 102.766133 
L 368.684571 102.660535 
L 368.684571 102.660157 
L 368.573584 102.388386 
L 368.531065 102.290391 
L 368.530127 102.282564 
L 368.420078 101.992379 
L 368.41914 101.992517 
L 368.379122 101.886249 
L 368.268135 101.602947 
L 368.226241 101.497019 
L 368.115254 101.189196 
L 368.075862 101.094421 
L 368.114942 101.18695 
L 368.074611 101.083137 
L 367.964249 100.761638 
L 367.963624 100.761728 
L 367.923919 100.655961 
L 367.963311 100.758709 
L 367.923919 100.655195 
L 367.812932 100.356959 
L 367.769162 100.251449 
L 367.769162 100.251065 
L 367.658175 99.947301 
L 367.617532 99.841018 
L 367.506545 99.558701 
L 367.4634 99.453226 
L 367.506232 99.55643 
L 367.4634 99.45284 
L 367.352413 99.144156 
L 367.310519 99.038175 
L 367.199532 98.740947 
L 367.163891 98.634552 
L 367.163891 98.633776 
L 367.052904 98.364027 
L 367.00976 98.258754 
L 367.00976 98.257976 
L 366.898773 97.956268 
L 366.856879 97.850497 
L 366.856879 97.850107 
L 366.746205 97.568531 
L 366.745892 97.568573 
L 366.708063 97.463893 
L 366.708063 97.461939 
L 366.597388 97.147813 
L 366.597075 97.147855 
L 366.557995 97.043017 
L 366.557995 97.041058 
L 366.447008 96.754661 
L 366.407928 96.648729 
L 366.407928 96.647943 
L 366.296941 96.326059 
L 366.262238 96.221576 
L 366.262238 96.218819 
L 366.151251 95.925527 
L 366.108732 95.819393 
L 365.997745 95.490801 
L 365.960853 95.38359 
L 365.850179 95.082481 
L 365.849866 95.082521 
L 365.810474 94.975709 
L 365.699487 94.653843 
L 365.659781 94.547131 
L 365.548794 94.241004 
L 365.508464 94.134442 
L 365.397477 93.850162 
L 365.356208 93.745804 
L 365.356208 93.743405 
L 365.245846 93.433764 
L 365.245221 93.433842 
L 365.206454 93.334059 
L 365.205828 93.32692 
L 365.094841 93.02404 
L 365.045131 92.919272 
L 365.045131 92.918468 
L 364.934457 92.6114 
L 364.934144 92.611438 
L 364.933832 92.608657 
L 364.899441 92.504093 
L 364.788767 92.18721 
L 364.788454 92.187248 
L 364.755314 92.079387 
L 364.64464 91.804432 
L 364.644327 91.804469 
L 364.601808 91.697841 
L 364.490821 91.370594 
L 364.448615 91.26399 
L 364.337628 90.94385 
L 364.300111 90.837575 
L 364.300111 90.836761 
L 364.189124 90.537653 
L 364.155359 90.429809 
L 364.044371 90.101591 
L 364.009356 89.995195 
L 364.009356 89.993967 
L 363.898369 89.664724 
L 363.853349 89.558317 
L 363.742361 89.227211 
L 363.698279 89.121171 
L 363.698279 89.12076 
L 363.587605 88.814949 
L 363.587292 88.814984 
L 363.546024 88.707886 
L 363.435349 88.403211 
L 363.435036 88.403245 
L 363.393143 88.302916 
L 363.393143 88.296301 
L 363.282156 88.013515 
L 363.245577 87.915206 
L 363.244951 87.906158 
L 363.134277 87.629152 
L 363.133964 87.629186 
L 363.08613 87.523925 
L 363.08613 87.522679 
L 362.975143 87.279014 
L 362.940753 87.172014 
L 362.940753 87.171181 
L 362.829766 86.921008 
L 362.773178 86.816927 
L 362.773178 86.815675 
L 362.663129 86.549647 
L 362.662191 86.549746 
L 362.612481 86.444201 
L 362.612481 86.443365 
L 362.502745 86.153075 
L 362.501494 86.153206 
L 362.454285 86.046652 
L 362.343298 85.801405 
L 362.295777 85.69753 
L 362.295777 85.695008 
L 362.185103 85.467562 
L 362.18479 85.467594 
L 362.137269 85.361335 
L 362.137269 85.360913 
L 362.026282 85.09239 
L 361.983137 84.985797 
L 361.983137 84.985375 
L 361.872463 84.688564 
L 361.87215 84.688596 
L 361.83182 84.582243 
L 361.83182 84.581397 
L 361.720832 84.359172 
L 361.509801 83.915822 
L 361.398813 83.657908 
L 361.346603 83.55144 
L 361.235928 83.304279 
L 361.235616 83.304309 
L 361.188094 83.198365 
L 361.188094 83.197512 
L 361.077107 82.959095 
L 361.032712 82.854275 
L 361.032712 82.852136 
L 360.921725 82.60578 
L 360.870765 82.499576 
L 360.921413 82.601953 
L 360.870765 82.499147 
L 360.760716 82.269191 
L 360.759778 82.269279 
L 360.70913 82.165764 
L 360.70913 82.162756 
L 360.598143 81.897828 
L 360.557812 81.790901 
L 360.557812 81.790039 
L 360.446825 81.545927 
L 360.391801 81.439624 
L 360.280814 81.207797 
L 360.241421 81.100218 
L 360.131059 80.852978 
L 360.130434 80.853034 
L 360.086977 80.746398 
L 360.086977 80.745531 
L 359.97599 80.524146 
L 359.93222 80.417264 
L 359.93222 80.41683 
L 359.821233 80.180929 
L 359.774962 80.074416 
L 359.774962 80.073545 
L 359.663975 79.801237 
L 359.617079 79.694903 
L 359.617079 79.69403 
L 359.506092 79.441918 
L 359.458884 79.334437 
L 359.347896 79.093444 
L 359.291621 78.987308 
L 359.291621 78.986869 
L 359.180634 78.737301 
L 359.13749 78.630204 
L 359.13749 78.629764 
L 359.026815 78.346029 
L 359.026503 78.346054 
L 358.973667 78.239435 
L 358.973667 78.238994 
L 358.862679 77.972975 
L 358.809843 77.866037 
L 358.699481 77.610256 
L 358.699169 77.610281 
L 358.650084 77.504061 
L 358.650084 77.503176 
L 358.539097 77.256915 
L 358.491889 77.149363 
L 358.380902 76.902861 
L 358.32744 76.796829 
L 358.32744 76.79594 
L 358.216453 76.552753 
L 358.163304 76.445505 
L 358.052942 76.227466 
L 358.052317 76.227513 
L 357.997605 76.120543 
L 357.886618 75.947105 
L 357.825966 75.840767 
L 357.825966 75.84032 
L 357.714979 75.58359 
L 357.666207 75.476056 
L 357.55522 75.285482 
L 357.49488 75.179424 
L 357.49488 75.178526 
L 357.383893 74.976662 
L 357.313862 74.872364 
L 357.313862 74.870564 
L 357.202875 74.651033 
L 357.115961 74.545818 
L 357.005599 74.356794 
L 357.004974 74.356837 
L 356.930878 74.250872 
L 356.819891 74.077682 
L 356.738605 73.972384 
L 356.738605 73.971931 
L 356.628555 73.850813 
L 356.627618 73.850878 
L 356.532262 73.74629 
L 356.422838 73.628913 
L 356.421275 73.629019 
L 356.32592 73.524172 
L 356.215246 73.394757 
L 356.214933 73.394778 
L 356.138336 73.288863 
L 356.027349 73.155503 
L 355.928868 73.05078 
L 355.818193 72.937148 
L 355.81788 72.937169 
L 355.736907 72.831497 
L 355.626545 72.705674 
L 355.62592 72.705715 
L 355.53713 72.600754 
L 355.53713 72.600296 
L 355.426768 72.487444 
L 355.426143 72.487484 
L 355.343606 72.381873 
L 355.233244 72.253598 
L 355.232619 72.253638 
L 355.136951 72.148602 
L 355.026276 72.026919 
L 355.025964 72.026938 
L 354.93311 71.921461 
L 354.822123 71.799491 
L 354.756781 71.692508 
L 354.647044 71.545249 
L 354.645794 71.545326 
L 354.542935 71.441307 
L 354.542935 71.440384 
L 354.431948 71.307149 
L 354.349099 71.201177 
L 353.879201 70.726745 
L 353.769777 70.622593 
L 353.769777 70.622129 
L 353.65879 70.482109 
L 353.545302 70.377897 
L 353.545302 70.377431 
L 353.436503 70.271882 
L 353.434315 70.272008 
L 353.315824 70.169211 
L 353.315824 70.167811 
L 353.20515 70.072371 
L 353.204837 70.072389 
L 353.102291 69.967023 
L 352.991304 69.878375 
L 352.868749 69.77482 
L 352.868749 69.774352 
L 352.758075 69.670931 
L 352.757762 69.670949 
L 352.443872 69.412923 
L 352.326007 69.30848 
L 352.215019 69.216229 
L 352.079959 69.112449 
L 351.968972 69.015712 
L 351.835787 68.912019 
L 351.7248 68.801334 
L 351.594117 68.697685 
L 351.594117 68.697212 
L 351.48313 68.612727 
L 351.343067 68.508823 
L 351.232393 68.420305 
L 351.23208 68.420322 
L 351.087328 68.31685 
L 350.978216 68.22849 
L 350.976341 68.228586 
L 350.816582 68.125591 
L 350.705907 68.063227 
L 350.705594 68.063243 
L 350.503942 67.963987 
L 350.503942 67.962559 
L 350.393267 67.901919 
L 350.392955 67.901934 
L 350.167854 67.802113 
L 350.05843 67.733112 
L 350.056867 67.73319 
L 349.867095 67.631765 
L 349.756733 67.564049 
L 349.756107 67.564079 
L 349.558832 67.463194 
L 349.558832 67.462715 
L 349.450346 67.410524 
L 349.447845 67.410646 
L 349.264012 67.308817 
L 349.154276 67.250292 
L 349.153025 67.250352 
L 348.949497 67.149175 
L 348.838822 67.088116 
L 348.83851 67.088131 
L 348.631229 66.987783 
L 348.631229 66.98682 
L 348.520242 66.932822 
L 348.30796 66.831921 
L 348.200412 66.773253 
L 348.196973 66.773413 
L 348.004699 66.671267 
L 347.893712 66.612587 
L 347.682993 66.51147 
L 347.57482 66.460237 
L 347.572006 66.460366 
L 347.331586 66.360291 
L 347.220599 66.312424 
L 347.004877 66.211397 
L 346.895453 66.164281 
L 346.89389 66.164352 
L 346.653157 66.064132 
L 346.54217 66.018884 
L 346.299562 65.91891 
L 346.189825 65.876877 
L 346.188575 65.876932 
L 345.884376 65.779325 
L 345.774014 65.737661 
L 345.773389 65.737688 
L 345.521714 65.637933 
L 345.521714 65.637443 
L 345.413228 65.595068 
L 345.410727 65.595175 
L 345.140919 65.495866 
L 345.030557 65.46571 
L 345.029932 65.465736 
L 344.728547 65.367438 
L 344.618498 65.332722 
L 344.61756 65.332762 
L 344.304607 65.235085 
L 344.194245 65.20864 
L 344.19362 65.208667 
L 343.869725 65.111587 
L 343.869725 65.111093 
L 343.759051 65.074168 
L 343.758738 65.074181 
L 343.419211 64.977864 
L 343.419211 64.977368 
L 343.312601 64.942616 
L 343.308224 64.942796 
L 342.956817 64.846082 
L 342.851457 64.806178 
L 342.84583 64.806407 
L 342.490046 64.709963 
L 342.381872 64.683967 
L 342.379059 64.684081 
L 342.002015 64.589102 
L 342.002015 64.588104 
L 341.892279 64.56256 
L 341.891028 64.56261 
L 341.54306 64.465579 
L 341.435512 64.432835 
L 341.432073 64.432971 
L 341.043774 64.337635 
L 340.935288 64.313321 
L 340.932787 64.31342 
L 340.512287 64.218934 
L 340.402237 64.188035 
L 340.401299 64.188072 
L 339.97267 64.093963 
L 339.865747 64.068861 
L 339.861683 64.069017 
L 339.433367 63.974967 
L 339.433367 63.974462 
L 339.325818 63.949776 
L 339.322379 63.949908 
L 338.817154 63.858339 
L 338.706479 63.838722 
L 338.706166 63.838734 
L 338.234393 63.745435 
L 338.123406 63.726237 
L 337.625371 63.634481 
L 337.625371 63.633971 
L 337.471552 63.597919 
L 336.975392 63.505569 
L 336.870971 63.478759 
L 336.864405 63.479001 
L 336.381377 63.385682 
L 336.274767 63.369593 
L 336.27039 63.369753 
L 335.675436 63.280548 
L 335.565387 63.262433 
L 335.564449 63.262467 
L 335.038276 63.170774 
L 334.927914 63.153602 
L 334.927289 63.153624 
L 334.302635 63.064955 
L 334.192586 63.048187 
L 334.191648 63.048221 
L 333.584189 62.958914 
L 333.474765 62.946178 
L 333.473201 62.946233 
L 332.853237 62.857358 
L 332.742562 62.839372 
L 332.74225 62.839383 
L 332.08258 62.751861 
L 331.972218 62.740029 
L 331.971593 62.740051 
L 331.36257 62.650747 
L 331.36257 62.650223 
L 331.251583 62.636757 
L 330.49562 62.551953 
L 330.386821 62.534634 
L 330.384633 62.534709 
L 329.65712 62.448835 
L 329.547071 62.436733 
L 329.546133 62.436765 
L 328.767972 62.352532 
L 328.657923 62.330264 
L 328.656985 62.330295 
L 327.886328 62.245149 
L 327.776592 62.233918 
L 327.775341 62.233959 
L 327.04564 62.147359 
L 326.909954 62.13637 
L 326.135233 62.051173 
L 325.997046 62.034802 
L 325.253276 61.948469 
L 325.143539 61.936436 
L 325.142289 61.936477 
L 324.415089 61.850062 
L 324.415089 61.849522 
L 324.304727 61.832011 
L 324.304101 61.832032 
L 323.637553 61.74249 
L 323.527817 61.720507 
L 323.526879 61.720537 
L 322.76435 61.633969 
L 322.625538 61.616588 
L 321.826118 61.531055 
L 321.71732 61.517523 
L 321.715131 61.517592 
L 320.95104 61.43083 
L 320.812853 61.413721 
L 320.025626 61.327545 
L 319.919641 61.311518 
L 319.914639 61.311673 
L 319.157738 61.224437 
L 319.048001 61.206753 
L 319.046751 61.206792 
L 318.284847 61.119031 
L 318.176674 61.110081 
L 318.17386 61.110167 
L 317.31879 61.025672 
L 317.31879 61.025114 
L 317.208429 61.013914 
L 317.207803 61.013933 
L 316.240808 60.932069 
L 316.106061 60.919254 
L 315.279441 60.833007 
L 315.174707 60.821448 
L 315.168454 60.821633 
L 314.233036 60.738434 
L 314.123299 60.728625 
L 314.122049 60.728662 
L 313.197573 60.64495 
L 313.060324 60.626743 
L 312.198063 60.541003 
L 312.088327 60.530439 
L 312.087076 60.530475 
L 311.184798 60.445713 
L 310.994087 60.424717 
L 310.012086 60.341947 
L 309.902662 60.328863 
L 309.901099 60.328907 
L 308.933166 60.245502 
L 308.801544 60.235831 
L 307.949914 60.148973 
L 307.843303 60.139678 
L 307.838926 60.139799 
L 307.706367 60.128293 
L 306.645893 60.046901 
L 306.515522 60.039328 
L 305.67671 59.951644 
L 305.571975 59.939749 
L 305.566035 59.93991 
L 304.595289 59.855599 
L 304.462104 59.841992 
L 303.542005 59.756074 
L 303.431643 59.745309 
L 303.431018 59.745326 
L 302.487784 59.6598 
L 302.377422 59.651927 
L 302.376797 59.651943 
L 301.29475 59.569209 
L 300.297117 59.48408 
L 300.166433 59.473538 
L 299.199126 59.387357 
L 299.066879 59.373701 
L 298.045797 59.288593 
L 297.938875 59.276612 
L 297.93481 59.276715 
L 296.997204 59.189844 
L 296.997204 59.18923 
L 296.886529 59.17416 
L 295.826993 59.0894 
L 295.717256 59.08097 
L 295.716318 59.080993 
L 294.646152 58.996181 
L 294.543606 58.984373 
L 294.535165 58.984578 
L 293.397156 58.901055 
L 293.268974 58.893498 
L 292.181613 58.809037 
L 292.098138 58.80221 
L 292.070938 58.802854 
L 291.077994 58.715859 
L 290.972947 58.706932 
L 290.967007 58.70707 
L 290.032527 58.617802 
L 289.901218 58.602388 
L 288.796974 58.51732 
L 288.670043 58.509971 
L 287.402601 58.428215 
L 287.292864 58.416509 
L 287.291614 58.416537 
L 286.244896 58.329404 
L 286.117339 58.321214 
L 285.949138 58.308722 
L 284.79581 58.223437 
L 284.698267 58.211856 
L 284.684823 58.212149 
L 283.477096 58.127609 
L 283.348601 58.115912 
L 282.102418 58.031712 
L 281.973923 58.019874 
L 280.822158 57.933193 
L 280.717737 57.920713 
L 280.711171 57.92085 
L 279.430911 57.837025 
L 279.324926 57.832494 
L 279.319924 57.832597 
L 278.122201 57.746616 
L 277.995895 57.737011 
L 276.589328 57.654715 
L 276.46396 57.648364 
L 274.976107 57.567076 
L 274.876375 57.554617 
L 274.86512 57.554838 
L 273.584547 57.469533 
L 273.42385 57.458803 
L 272.118579 57.373387 
L 272.012907 57.367727 
L 272.007905 57.367822 
L 270.85739 57.278963 
L 270.752968 57.265466 
L 270.746716 57.265582 
L 269.437067 57.179126 
L 269.311074 57.168696 
L 267.791957 57.085387 
L 267.686285 57.07658 
L 267.681908 57.076659 
L 266.394144 56.989238 
L 266.300352 56.980821 
L 266.283157 56.981123 
L 264.764978 56.897088 
L 264.655242 56.885922 
L 264.654304 56.885939 
L 263.205844 56.79993 
L 263.080162 56.788881 
L 261.288424 56.708542 
L 261.187441 56.705043 
L 261.178375 56.705194 
L 259.500437 56.622079 
L 259.377882 56.617356 
L 257.845009 56.531778 
L 257.719953 56.5202 
L 256.245544 56.432838 
L 256.156129 56.426621 
L 256.134557 56.426957 
L 254.48757 56.342199 
L 254.336253 56.332201 
L 252.732723 56.245811 
L 252.490115 56.228431 
L 250.945987 56.14087 
L 250.845629 56.134469 
L 250.834999 56.134622 
L 249.301814 56.046011 
L 249.179572 56.039007 
L 247.700786 55.948729 
L 247.605118 55.945229 
L 247.590111 55.945434 
L 246.064429 55.855716 
L 245.838703 55.84414 
L 244.377424 55.752547 
L 244.255495 55.744299 
L 242.606007 55.654905 
L 242.482515 55.642386 
L 240.878672 55.551289 
L 240.702344 55.54419 
L 239.155089 55.451319 
L 239.035036 55.445931 
L 237.52311 55.352463 
L 237.37992 55.345492 
L 235.458436 55.255199 
L 235.347449 55.250307 
L 233.622303 55.157479 
L 233.557274 55.14851 
L 233.511628 55.148961 
L 231.775852 55.055772 
L 231.656424 55.049815 
L 229.749008 54.956791 
L 229.606132 54.946401 
L 227.843781 54.851421 
L 227.739047 54.83776 
L 227.733107 54.837809 
L 225.93449 54.741553 
L 225.814436 54.733275 
L 223.865127 54.637425 
L 223.836052 54.633901 
L 223.75414 54.634482 
L 221.336809 54.540914 
L 221.232388 54.536853 
L 221.226135 54.536894 
L 219.351859 54.438702 
L 219.253065 54.434477 
L 219.240872 54.434549 
L 217.019879 54.337423 
L 216.92171 54.329138 
L 216.908892 54.329206 
L 215.179056 54.227462 
L 215.042432 54.219165 
L 213.197232 54.117107 
L 213.10219 54.107411 
L 213.086245 54.107473 
L 211.092541 54.004924 
L 210.974676 53.99916 
L 208.233137 53.897257 
L 208.11621 53.893362 
L 204.770652 53.791216 
L 204.660602 53.78711 
L 204.659665 53.787111 
L 197.232593 53.688731 
L 197.161624 53.686522 
L 197.121606 53.68656 
L 167.342978 53.60408 
L 73.832727 53.568 
L 73.832727 53.568 
" clip-path="url(#p5d7db7a867)" style="fill: none; stroke: #1f77b4; stroke-width: 1.5; stroke-linecap: square"/>
   </g>
   <g id="patch_3">
    <path d="M 57.6 307.584 
L 57.6 41.472 
" style="fill: none; stroke: #000000; stroke-width: 0.8; stroke-linejoin: miter; stroke-linecap: square"/>
   </g>
   <g id="patch_4">
    <path d="M 414.72 307.584 
L 414.72 41.472 
" style="fill: none; stroke: #000000; stroke-width: 0.8; stroke-linejoin: miter; stroke-linecap: square"/>
   </g>
   <g id="patch_5">
    <path d="M 57.6 307.584 
L 414.72 307.584 
" style="fill: none; stroke: #000000; stroke-width: 0.8; stroke-linejoin: miter; stroke-linecap: square"/>
   </g>
   <g id="patch_6">
    <path d="M 57.6 41.472 
L 414.72 41.472 
" style="fill: none; stroke: #000000; stroke-width: 0.8; stroke-linejoin: miter; stroke-linecap: square"/>
   </g>
   <g id="text_13">
    <!-- Precision Recall -->
    <g transform="translate(189.584063 35.472) scale(0.12 -0.12)">
     <defs>
      <path id="DejaVuSans-50" d="M 1259 4147 
L 1259 2394 
L 2053 2394 
Q 2494 2394 2734 2622 
Q 2975 2850 2975 3272 
Q 2975 3691 2734 3919 
Q 2494 4147 2053 4147 
L 1259 4147 
z
M 628 4666 
L 2053 4666 
Q 2838 4666 3239 4311 
Q 3641 3956 3641 3272 
Q 3641 2581 3239 2228 
Q 2838 1875 2053 1875 
L 1259 1875 
L 1259 0 
L 628 0 
L 628 4666 
z
" transform="scale(0.015625)"/>
      <path id="DejaVuSans-72" d="M 2631 2963 
Q 2534 3019 2420 3045 
Q 2306 3072 2169 3072 
Q 1681 3072 1420 2755 
Q 1159 2438 1159 1844 
L 1159 0 
L 581 0 
L 581 3500 
L 1159 3500 
L 1159 2956 
Q 1341 3275 1631 3429 
Q 1922 3584 2338 3584 
Q 2397 3584 2469 3576 
Q 2541 3569 2628 3553 
L 2631 2963 
z
" transform="scale(0.015625)"/>
      <path id="DejaVuSans-65" d="M 3597 1894 
L 3597 1613 
L 953 1613 
Q 991 1019 1311 708 
Q 1631 397 2203 397 
Q 2534 397 2845 478 
Q 3156 559 3463 722 
L 3463 178 
Q 3153 47 2828 -22 
Q 2503 -91 2169 -91 
Q 1331 -91 842 396 
Q 353 884 353 1716 
Q 353 2575 817 3079 
Q 1281 3584 2069 3584 
Q 2775 3584 3186 3129 
Q 3597 2675 3597 1894 
z
M 3022 2063 
Q 3016 2534 2758 2815 
Q 2500 3097 2075 3097 
Q 1594 3097 1305 2825 
Q 1016 2553 972 2059 
L 3022 2063 
z
" transform="scale(0.015625)"/>
      <path id="DejaVuSans-63" d="M 3122 3366 
L 3122 2828 
Q 2878 2963 2633 3030 
Q 2388 3097 2138 3097 
Q 1578 3097 1268 2742 
Q 959 2388 959 1747 
Q 959 1106 1268 751 
Q 1578 397 2138 397 
Q 2388 397 2633 464 
Q 2878 531 3122 666 
L 3122 134 
Q 2881 22 2623 -34 
Q 2366 -91 2075 -91 
Q 1284 -91 818 406 
Q 353 903 353 1747 
Q 353 2603 823 3093 
Q 1294 3584 2113 3584 
Q 2378 3584 2631 3529 
Q 2884 3475 3122 3366 
z
" transform="scale(0.015625)"/>
      <path id="DejaVuSans-69" d="M 603 3500 
L 1178 3500 
L 1178 0 
L 603 0 
L 603 3500 
z
M 603 4863 
L 1178 4863 
L 1178 4134 
L 603 4134 
L 603 4863 
z
" transform="scale(0.015625)"/>
      <path id="DejaVuSans-73" d="M 2834 3397 
L 2834 2853 
Q 2591 2978 2328 3040 
Q 2066 3103 1784 3103 
Q 1356 3103 1142 2972 
Q 928 2841 928 2578 
Q 928 2378 1081 2264 
Q 1234 2150 1697 2047 
L 1894 2003 
Q 2506 1872 2764 1633 
Q 3022 1394 3022 966 
Q 3022 478 2636 193 
Q 2250 -91 1575 -91 
Q 1294 -91 989 -36 
Q 684 19 347 128 
L 347 722 
Q 666 556 975 473 
Q 1284 391 1588 391 
Q 1994 391 2212 530 
Q 2431 669 2431 922 
Q 2431 1156 2273 1281 
Q 2116 1406 1581 1522 
L 1381 1569 
Q 847 1681 609 1914 
Q 372 2147 372 2553 
Q 372 3047 722 3315 
Q 1072 3584 1716 3584 
Q 2034 3584 2315 3537 
Q 2597 3491 2834 3397 
z
" transform="scale(0.015625)"/>
      <path id="DejaVuSans-6f" d="M 1959 3097 
Q 1497 3097 1228 2736 
Q 959 2375 959 1747 
Q 959 1119 1226 758 
Q 1494 397 1959 397 
Q 2419 397 2687 759 
Q 2956 1122 2956 1747 
Q 2956 2369 2687 2733 
Q 2419 3097 1959 3097 
z
M 1959 3584 
Q 2709 3584 3137 3096 
Q 3566 2609 3566 1747 
Q 3566 888 3137 398 
Q 2709 -91 1959 -91 
Q 1206 -91 779 398 
Q 353 888 353 1747 
Q 353 2609 779 3096 
Q 1206 3584 1959 3584 
z
" transform="scale(0.015625)"/>
      <path id="DejaVuSans-6e" d="M 3513 2113 
L 3513 0 
L 2938 0 
L 2938 2094 
Q 2938 2591 2744 2837 
Q 2550 3084 2163 3084 
Q 1697 3084 1428 2787 
Q 1159 2491 1159 1978 
L 1159 0 
L 581 0 
L 581 3500 
L 1159 3500 
L 1159 2956 
Q 1366 3272 1645 3428 
Q 1925 3584 2291 3584 
Q 2894 3584 3203 3211 
Q 3513 2838 3513 2113 
z
" transform="scale(0.015625)"/>
      <path id="DejaVuSans-20" transform="scale(0.015625)"/>
      <path id="DejaVuSans-52" d="M 2841 2188 
Q 3044 2119 3236 1894 
Q 3428 1669 3622 1275 
L 4263 0 
L 3584 0 
L 2988 1197 
Q 2756 1666 2539 1819 
Q 2322 1972 1947 1972 
L 1259 1972 
L 1259 0 
L 628 0 
L 628 4666 
L 2053 4666 
Q 2853 4666 3247 4331 
Q 3641 3997 3641 3322 
Q 3641 2881 3436 2590 
Q 3231 2300 2841 2188 
z
M 1259 4147 
L 1259 2491 
L 2053 2491 
Q 2509 2491 2742 2702 
Q 2975 2913 2975 3322 
Q 2975 3731 2742 3939 
Q 2509 4147 2053 4147 
L 1259 4147 
z
" transform="scale(0.015625)"/>
      <path id="DejaVuSans-61" d="M 2194 1759 
Q 1497 1759 1228 1600 
Q 959 1441 959 1056 
Q 959 750 1161 570 
Q 1363 391 1709 391 
Q 2188 391 2477 730 
Q 2766 1069 2766 1631 
L 2766 1759 
L 2194 1759 
z
M 3341 1997 
L 3341 0 
L 2766 0 
L 2766 531 
Q 2569 213 2275 61 
Q 1981 -91 1556 -91 
Q 1019 -91 701 211 
Q 384 513 384 1019 
Q 384 1609 779 1909 
Q 1175 2209 1959 2209 
L 2766 2209 
L 2766 2266 
Q 2766 2663 2505 2880 
Q 2244 3097 1772 3097 
Q 1472 3097 1187 3025 
Q 903 2953 641 2809 
L 641 3341 
Q 956 3463 1253 3523 
Q 1550 3584 1831 3584 
Q 2591 3584 2966 3190 
Q 3341 2797 3341 1997 
z
" transform="scale(0.015625)"/>
      <path id="DejaVuSans-6c" d="M 603 4863 
L 1178 4863 
L 1178 0 
L 603 0 
L 603 4863 
z
" transform="scale(0.015625)"/>
     </defs>
     <use xlink:href="#DejaVuSans-50"/>
     <use xlink:href="#DejaVuSans-72" transform="translate(58.552734 0)"/>
     <use xlink:href="#DejaVuSans-65" transform="translate(97.416016 0)"/>
     <use xlink:href="#DejaVuSans-63" transform="translate(158.939453 0)"/>
     <use xlink:href="#DejaVuSans-69" transform="translate(213.919922 0)"/>
     <use xlink:href="#DejaVuSans-73" transform="translate(241.703125 0)"/>
     <use xlink:href="#DejaVuSans-69" transform="translate(293.802734 0)"/>
     <use xlink:href="#DejaVuSans-6f" transform="translate(321.585938 0)"/>
     <use xlink:href="#DejaVuSans-6e" transform="translate(382.767578 0)"/>
     <use xlink:href="#DejaVuSans-20" transform="translate(446.146484 0)"/>
     <use xlink:href="#DejaVuSans-52" transform="translate(477.933594 0)"/>
     <use xlink:href="#DejaVuSans-65" transform="translate(542.916016 0)"/>
     <use xlink:href="#DejaVuSans-63" transform="translate(604.439453 0)"/>
     <use xlink:href="#DejaVuSans-61" transform="translate(659.419922 0)"/>
     <use xlink:href="#DejaVuSans-6c" transform="translate(720.699219 0)"/>
     <use xlink:href="#DejaVuSans-6c" transform="translate(748.482422 0)"/>
    </g>
   </g>
  </g>
 </g>
 <defs>
  <clipPath id="p5d7db7a867">
   <rect x="57.6" y="41.472" width="357.12" height="266.112"/>
  </clipPath>
 </defs>
</svg>
