<?xml version="1.0" encoding="utf-8" standalone="no"?>
<!DOCTYPE svg PUBLIC "-//W3C//DTD SVG 1.1//EN"
  "http://www.w3.org/Graphics/SVG/1.1/DTD/svg11.dtd">
<svg xmlns:xlink="http://www.w3.org/1999/xlink" width="460.8pt" height="345.6pt" viewBox="0 0 460.8 345.6" xmlns="http://www.w3.org/2000/svg" version="1.1">
 <metadata>
  <rdf:RDF xmlns:dc="http://purl.org/dc/elements/1.1/" xmlns:cc="http://creativecommons.org/ns#" xmlns:rdf="http://www.w3.org/1999/02/22-rdf-syntax-ns#">
   <cc:Work>
    <dc:type rdf:resource="http://purl.org/dc/dcmitype/StillImage"/>
    <dc:date>2026-03-17T11:22:16.028468</dc:date>
    <dc:format>image/svg+xml</dc:format>
    <dc:creator>
     <cc:Agent>
      <dc:title>Matplotlib v3.10.8, https://matplotlib.org/</dc:title>
     </cc:Agent>
    </dc:creator>
   </cc:Work>
  </rdf:RDF>
 </metadata>
 <defs>
  <style type="text/css">*{stroke-linejoin: round; stroke-linecap: butt}</style>
 </defs>
 <g id="figure_1">
  <g id="patch_1">
   <path d="M 0 345.6 
L 460.8 345.6 
L 460.8 0 
L 0 0 
z
" style="fill: #ffffff"/>
  </g>
  <g id="axes_1">
   <g id="patch_2">
    <path d="M 57.6 307.584 
L 414.72 307.584 
L 414.72 41.472 
L 57.6 41.472 
z
" style="fill: #ffffff"/>
   </g>
   <g id="matplotlib.axis_1">
    <g id="xtick_1">
     <g id="line2d_1">
      <defs>
       <path id="m219e44aa35" d="M 0 0 
L 0 3.5 
" style="stroke: #000000; stroke-width: 0.8"/>
      </defs>
      <g>
       <use xlink:href="#m219e44aa35" x="73.832727" y="307.584" style="stroke: #000000; stroke-width: 0.8"/>
      </g>
     </g>
     <g id="text_1">
      <!-- 0.0 -->
      <g transform="translate(65.881165 322.182437) scale(0.1 -0.1)">
       <defs>
        <path id="DejaVuSans-30" d="M 2034 4250 
Q 1547 4250 1301 3770 
Q 1056 3291 1056 2328 
Q 1056 1369 1301 889 
Q 1547 409 2034 409 
Q 2525 409 2770 889 
Q 3016 1369 3016 2328 
Q 3016 3291 2770 3770 
Q 2525 4250 2034 4250 
z
M 2034 4750 
Q 2819 4750 3233 4129 
Q 3647 3509 3647 2328 
Q 3647 1150 3233 529 
Q 2819 -91 2034 -91 
Q 1250 -91 836 529 
Q 422 1150 422 2328 
Q 422 3509 836 4129 
Q 1250 4750 2034 4750 
z
" transform="scale(0.015625)"/>
        <path id="DejaVuSans-2e" d="M 684 794 
L 1344 794 
L 1344 0 
L 684 0 
L 684 794 
z
" transform="scale(0.015625)"/>
       </defs>
       <use xlink:href="#DejaVuSans-30"/>
       <use xlink:href="#DejaVuSans-2e" transform="translate(63.623047 0)"/>
       <use xlink:href="#DejaVuSans-30" transform="translate(95.410156 0)"/>
      </g>
     </g>
    </g>
    <g id="xtick_2">
     <g id="line2d_2">
      <g>
       <use xlink:href="#m219e44aa35" x="138.763636" y="307.584" style="stroke: #000000; stroke-width: 0.8"/>
      </g>
     </g>
     <g id="text_2">
      <!-- 0.2 -->
      <g transform="translate(130.812074 322.182437) scale(0.1 -0.1)">
       <defs>
        <path id="DejaVuSans-32" d="M 1228 531 
L 3431 531 
L 3431 0 
L 469 0 
L 469 531 
Q 828 903 1448 1529 
Q 2069 2156 2228 2338 
Q 2531 2678 2651 2914 
Q 2772 3150 2772 3378 
Q 2772 3750 2511 3984 
Q 2250 4219 1831 4219 
Q 1534 4219 1204 4116 
Q 875 4013 500 3803 
L 500 4441 
Q 881 4594 1212 4672 
Q 1544 4750 1819 4750 
Q 2544 4750 2975 4387 
Q 3406 4025 3406 3419 
Q 3406 3131 3298 2873 
Q 3191 2616 2906 2266 
Q 2828 2175 2409 1742 
Q 1991 1309 1228 531 
z
" transform="scale(0.015625)"/>
       </defs>
       <use xlink:href="#DejaVuSans-30"/>
       <use xlink:href="#DejaVuSans-2e" transform="translate(63.623047 0)"/>
       <use xlink:href="#DejaVuSans-32" transform="translate(95.410156 0)"/>
      </g>
     </g>
    </g>
    <g id="xtick_3">
     <g id="line2d_3">
      <g>
       <use xlink:href="#m219e44aa35" x="203.694545" y="307.584" style="stroke: #000000; stroke-width: 0.8"/>
      </g>
     </g>
     <g id="text_3">
      <!-- 0.4 -->
      <g transform="translate(195.742983 322.182437) scale(0.1 -0.1)">
       <defs>
        <path id="DejaVuSans-34" d="M 2419 4116 
L 825 1625 
L 2419 1625 
L 2419 4116 
z
M 2253 4666 
L 3047 4666 
L 3047 1625 
L 3713 1625 
L 3713 1100 
L 3047 1100 
L 3047 0 
L 2419 0 
L 2419 1100 
L 313 1100 
L 313 1709 
L 2253 4666 
z
" transform="scale(0.015625)"/>
       </defs>
       <use xlink:href="#DejaVuSans-30"/>
       <use xlink:href="#DejaVuSans-2e" transform="translate(63.623047 0)"/>
       <use xlink:href="#DejaVuSans-34" transform="translate(95.410156 0)"/>
      </g>
     </g>
    </g>
    <g id="xtick_4">
     <g id="line2d_4">
      <g>
       <use xlink:href="#m219e44aa35" x="268.625455" y="307.584" style="stroke: #000000; stroke-width: 0.8"/>
      </g>
     </g>
     <g id="text_4">
      <!-- 0.6 -->
      <g transform="translate(260.673892 322.182437) scale(0.1 -0.1)">
       <defs>
        <path id="DejaVuSans-36" d="M 2113 2584 
Q 1688 2584 1439 2293 
Q 1191 2003 1191 1497 
Q 1191 994 1439 701 
Q 1688 409 2113 409 
Q 2538 409 2786 701 
Q 3034 994 3034 1497 
Q 3034 2003 2786 2293 
Q 2538 2584 2113 2584 
z
M 3366 4563 
L 3366 3988 
Q 3128 4100 2886 4159 
Q 2644 4219 2406 4219 
Q 1781 4219 1451 3797 
Q 1122 3375 1075 2522 
Q 1259 2794 1537 2939 
Q 1816 3084 2150 3084 
Q 2853 3084 3261 2657 
Q 3669 2231 3669 1497 
Q 3669 778 3244 343 
Q 2819 -91 2113 -91 
Q 1303 -91 875 529 
Q 447 1150 447 2328 
Q 447 3434 972 4092 
Q 1497 4750 2381 4750 
Q 2619 4750 2861 4703 
Q 3103 4656 3366 4563 
z
" transform="scale(0.015625)"/>
       </defs>
       <use xlink:href="#DejaVuSans-30"/>
       <use xlink:href="#DejaVuSans-2e" transform="translate(63.623047 0)"/>
       <use xlink:href="#DejaVuSans-36" transform="translate(95.410156 0)"/>
      </g>
     </g>
    </g>
    <g id="xtick_5">
     <g id="line2d_5">
      <g>
       <use xlink:href="#m219e44aa35" x="333.556364" y="307.584" style="stroke: #000000; stroke-width: 0.8"/>
      </g>
     </g>
     <g id="text_5">
      <!-- 0.8 -->
      <g transform="translate(325.604801 322.182437) scale(0.1 -0.1)">
       <defs>
        <path id="DejaVuSans-38" d="M 2034 2216 
Q 1584 2216 1326 1975 
Q 1069 1734 1069 1313 
Q 1069 891 1326 650 
Q 1584 409 2034 409 
Q 2484 409 2743 651 
Q 3003 894 3003 1313 
Q 3003 1734 2745 1975 
Q 2488 2216 2034 2216 
z
M 1403 2484 
Q 997 2584 770 2862 
Q 544 3141 544 3541 
Q 544 4100 942 4425 
Q 1341 4750 2034 4750 
Q 2731 4750 3128 4425 
Q 3525 4100 3525 3541 
Q 3525 3141 3298 2862 
Q 3072 2584 2669 2484 
Q 3125 2378 3379 2068 
Q 3634 1759 3634 1313 
Q 3634 634 3220 271 
Q 2806 -91 2034 -91 
Q 1263 -91 848 271 
Q 434 634 434 1313 
Q 434 1759 690 2068 
Q 947 2378 1403 2484 
z
M 1172 3481 
Q 1172 3119 1398 2916 
Q 1625 2713 2034 2713 
Q 2441 2713 2670 2916 
Q 2900 3119 2900 3481 
Q 2900 3844 2670 4047 
Q 2441 4250 2034 4250 
Q 1625 4250 1398 4047 
Q 1172 3844 1172 3481 
z
" transform="scale(0.015625)"/>
       </defs>
       <use xlink:href="#DejaVuSans-30"/>
       <use xlink:href="#DejaVuSans-2e" transform="translate(63.623047 0)"/>
       <use xlink:href="#DejaVuSans-38" transform="translate(95.410156 0)"/>
      </g>
     </g>
    </g>
    <g id="xtick_6">
     <g id="line2d_6">
      <g>
       <use xlink:href="#m219e44aa35" x="398.487273" y="307.584" style="stroke: #000000; stroke-width: 0.8"/>
      </g>
     </g>
     <g id="text_6">
      <!-- 1.0 -->
      <g transform="translate(390.53571 322.182437) scale(0.1 -0.1)">
       <defs>
        <path id="DejaVuSans-31" d="M 794 531 
L 1825 531 
L 1825 4091 
L 703 3866 
L 703 4441 
L 1819 4666 
L 2450 4666 
L 2450 531 
L 3481 531 
L 3481 0 
L 794 0 
L 794 531 
z
" transform="scale(0.015625)"/>
       </defs>
       <use xlink:href="#DejaVuSans-31"/>
       <use xlink:href="#DejaVuSans-2e" transform="translate(63.623047 0)"/>
       <use xlink:href="#DejaVuSans-30" transform="translate(95.410156 0)"/>
      </g>
     </g>
    </g>
   </g>
   <g id="matplotlib.axis_2">
    <g id="ytick_1">
     <g id="line2d_7">
      <defs>
       <path id="m1e1fdbddaa" d="M 0 0 
L -3.5 0 
" style="stroke: #000000; stroke-width: 0.8"/>
      </defs>
      <g>
       <use xlink:href="#m1e1fdbddaa" x="57.6" y="295.488" style="stroke: #000000; stroke-width: 0.8"/>
      </g>
     </g>
     <g id="text_7">
      <!-- 0.0 -->
      <g transform="translate(34.696875 299.287219) scale(0.1 -0.1)">
       <use xlink:href="#DejaVuSans-30"/>
       <use xlink:href="#DejaVuSans-2e" transform="translate(63.623047 0)"/>
       <use xlink:href="#DejaVuSans-30" transform="translate(95.410156 0)"/>
      </g>
     </g>
    </g>
    <g id="ytick_2">
     <g id="line2d_8">
      <g>
       <use xlink:href="#m1e1fdbddaa" x="57.6" y="247.104" style="stroke: #000000; stroke-width: 0.8"/>
      </g>
     </g>
     <g id="text_8">
      <!-- 0.2 -->
      <g transform="translate(34.696875 250.903219) scale(0.1 -0.1)">
       <use xlink:href="#DejaVuSans-30"/>
       <use xlink:href="#DejaVuSans-2e" transform="translate(63.623047 0)"/>
       <use xlink:href="#DejaVuSans-32" transform="translate(95.410156 0)"/>
      </g>
     </g>
    </g>
    <g id="ytick_3">
     <g id="line2d_9">
      <g>
       <use xlink:href="#m1e1fdbddaa" x="57.6" y="198.72" style="stroke: #000000; stroke-width: 0.8"/>
      </g>
     </g>
     <g id="text_9">
      <!-- 0.4 -->
      <g transform="translate(34.696875 202.519219) scale(0.1 -0.1)">
       <use xlink:href="#DejaVuSans-30"/>
       <use xlink:href="#DejaVuSans-2e" transform="translate(63.623047 0)"/>
       <use xlink:href="#DejaVuSans-34" transform="translate(95.410156 0)"/>
      </g>
     </g>
    </g>
    <g id="ytick_4">
     <g id="line2d_10">
      <g>
       <use xlink:href="#m1e1fdbddaa" x="57.6" y="150.336" style="stroke: #000000; stroke-width: 0.8"/>
      </g>
     </g>
     <g id="text_10">
      <!-- 0.6 -->
      <g transform="translate(34.696875 154.135219) scale(0.1 -0.1)">
       <use xlink:href="#DejaVuSans-30"/>
       <use xlink:href="#DejaVuSans-2e" transform="translate(63.623047 0)"/>
       <use xlink:href="#DejaVuSans-36" transform="translate(95.410156 0)"/>
      </g>
     </g>
    </g>
    <g id="ytick_5">
     <g id="line2d_11">
      <g>
       <use xlink:href="#m1e1fdbddaa" x="57.6" y="101.952" style="stroke: #000000; stroke-width: 0.8"/>
      </g>
     </g>
     <g id="text_11">
      <!-- 0.8 -->
      <g transform="translate(34.696875 105.751219) scale(0.1 -0.1)">
       <use xlink:href="#DejaVuSans-30"/>
       <use xlink:href="#DejaVuSans-2e" transform="translate(63.623047 0)"/>
       <use xlink:href="#DejaVuSans-38" transform="translate(95.410156 0)"/>
      </g>
     </g>
    </g>
    <g id="ytick_6">
     <g id="line2d_12">
      <g>
       <use xlink:href="#m1e1fdbddaa" x="57.6" y="53.568" style="stroke: #000000; stroke-width: 0.8"/>
      </g>
     </g>
     <g id="text_12">
      <!-- 1.0 -->
      <g transform="translate(34.696875 57.367219) scale(0.1 -0.1)">
       <use xlink:href="#DejaVuSans-31"/>
       <use xlink:href="#DejaVuSans-2e" transform="translate(63.623047 0)"/>
       <use xlink:href="#DejaVuSans-30" transform="translate(95.410156 0)"/>
      </g>
     </g>
    </g>
   </g>
   <g id="line2d_13">
    <path d="M 73.832727 295.488 
L 73.946566 193.228267 
L 73.951667 193.077537 
L 74.062553 187.74329 
L 74.064432 187.594657 
L 74.175318 182.112942 
L 74.17666 181.965008 
L 74.287546 177.578704 
L 74.289962 177.429838 
L 74.400848 173.230606 
L 74.404338 173.128567 
L 74.404338 173.119714 
L 74.515224 169.400162 
L 74.518714 169.289735 
L 74.518714 169.289269 
L 74.629599 165.828311 
L 74.634164 165.721146 
L 74.634164 165.717418 
L 74.745049 162.382727 
L 74.751761 162.231066 
L 74.862647 158.739588 
L 74.870165 158.586995 
L 74.98105 155.211535 
L 74.985078 155.120911 
L 74.985078 155.101574 
L 75.095963 152.14033 
L 75.100527 151.989367 
L 75.211413 149.225213 
L 75.216514 149.128066 
L 75.216514 149.114787 
L 75.3274 146.76974 
L 75.33626 146.61505 
L 75.447145 143.934065 
L 75.454663 143.780772 
L 75.565548 141.370728 
L 75.575751 141.214873 
L 75.686637 139.152416 
L 75.692275 139.052939 
L 75.692275 139.041989 
L 75.80316 136.909176 
L 75.810946 136.756349 
L 75.921832 134.724643 
L 75.928276 134.61445 
L 75.928276 134.613751 
L 76.039161 132.883272 
L 76.047753 132.72928 
L 76.158638 130.778181 
L 76.166424 130.680568 
L 76.166424 130.668454 
L 76.27731 128.935877 
L 76.296641 128.679847 
L 76.407527 126.988273 
L 76.415581 126.87738 
L 76.526467 125.161345 
L 76.535595 125.007354 
L 76.646481 123.496795 
L 76.656146 123.341872 
L 76.767032 121.843428 
L 76.782873 121.593454 
L 76.893758 120.073111 
L 76.90235 119.918654 
L 77.013235 118.417414 
L 77.021827 118.309084 
L 77.021827 118.306988 
L 77.132713 116.934579 
L 77.141573 116.826016 
L 77.252458 115.41144 
L 77.260513 115.311963 
L 77.260513 115.302178 
L 77.371398 113.912297 
L 77.379453 113.803035 
L 77.379453 113.801404 
L 77.490339 112.598828 
L 77.501883 112.490499 
L 77.501883 112.489567 
L 77.612769 111.30027 
L 77.622435 111.189378 
L 77.73332 110.035958 
L 77.747281 109.878705 
L 77.858167 108.869724 
L 77.889849 108.592959 
L 78.000734 107.460739 
L 78.011474 107.351711 
L 78.011474 107.349847 
L 78.122359 106.222054 
L 78.133099 106.111627 
L 78.133099 106.111161 
L 78.243984 105.004335 
L 78.256066 104.900431 
L 78.256066 104.894374 
L 78.366683 103.80502 
L 78.380913 103.696224 
L 78.491799 102.727547 
L 78.50576 102.618519 
L 78.616645 101.69993 
L 78.633023 101.590668 
L 78.743909 100.730321 
L 78.758139 100.62502 
L 78.869024 99.816158 
L 78.884865 99.708294 
L 78.99575 99.05389 
L 79.014276 98.94323 
L 79.125162 98.262733 
L 79.143687 98.153705 
L 79.254573 97.46156 
L 79.280885 97.351832 
L 79.39177 96.754738 
L 79.414055 96.646408 
L 79.414055 96.643845 
L 79.524672 96.063058 
L 79.551252 95.952632 
L 79.662137 95.434513 
L 79.688181 95.324786 
L 79.799066 94.847669 
L 79.826184 94.738175 
L 79.826184 94.737243 
L 79.937069 94.289247 
L 79.965797 94.178588 
L 80.076683 93.721506 
L 80.105411 93.611779 
L 80.216297 93.202921 
L 80.249589 93.092961 
L 80.360475 92.746539 
L 80.388129 92.636113 
L 80.499014 92.283866 
L 80.535529 92.17344 
L 80.646414 91.86173 
L 80.685882 91.750838 
L 80.796499 91.436798 
L 80.841337 91.326139 
L 80.951954 91.062886 
L 80.999744 90.952227 
L 81.110361 90.676161 
L 81.153588 90.565501 
L 81.264474 90.304345 
L 81.311459 90.193453 
L 81.422344 89.947673 
L 81.467182 89.83678 
L 81.578067 89.604512 
L 81.617535 89.494319 
L 81.728421 89.225708 
L 81.780239 89.115514 
L 81.891124 88.908406 
L 81.958783 88.797514 
L 82.069669 88.625817 
L 82.134911 88.515158 
L 82.245797 88.356274 
L 82.3199 88.245382 
L 82.430785 88.087197 
L 82.504082 87.977004 
L 82.614968 87.812995 
L 82.687191 87.703268 
L 82.798077 87.551839 
L 82.87379 87.441413 
L 82.984676 87.298604 
L 83.063611 87.188178 
L 83.174497 87.041408 
L 83.271958 86.930982 
L 83.382843 86.785144 
L 83.477083 86.675883 
L 83.587968 86.546819 
L 83.687846 86.435927 
L 83.798194 86.322705 
L 83.895387 86.211813 
L 84.006272 86.126547 
L 84.111251 86.015654 
L 84.2216 85.898938 
L 84.323357 85.788045 
L 84.433974 85.677619 
L 84.531166 85.567193 
L 84.641246 85.455834 
L 84.748373 85.345641 
L 84.85899 85.217742 
L 84.973366 85.10685 
L 85.084251 84.998986 
L 85.181713 84.888327 
L 85.292598 84.777434 
L 85.395429 84.666775 
L 85.506315 84.571957 
L 85.646734 84.461531 
L 85.757619 84.375566 
L 85.916296 84.264674 
L 86.027181 84.176146 
L 86.204115 84.065254 
L 86.315 83.986278 
L 86.531133 83.875386 
L 86.64175 83.793847 
L 86.810092 83.682955 
L 86.920709 83.61586 
L 87.112409 83.505201 
L 87.223295 83.445329 
L 87.4354 83.334436 
L 87.546017 83.273399 
L 87.764298 83.162506 
L 88.188778 82.940023 
L 88.416187 82.829131 
L 88.527072 82.769491 
L 88.73166 82.658832 
L 88.842277 82.598726 
L 89.056531 82.487834 
L 89.166611 82.436814 
L 89.385428 82.326155 
L 89.496314 82.268146 
L 89.702244 82.157254 
L 89.81313 82.098313 
L 90.028725 81.987654 
L 90.139342 81.928247 
L 90.356012 81.817588 
L 90.465287 81.76913 
L 90.672559 81.658238 
L 90.783445 81.597667 
L 90.993671 81.487007 
L 91.104288 81.430163 
L 91.326328 81.319271 
L 91.436945 81.263825 
L 91.648513 81.152932 
L 91.758325 81.098651 
L 91.952978 80.988458 
L 92.063596 80.935807 
L 92.280802 80.824915 
L 92.391419 80.782981 
L 92.635743 80.672088 
L 92.746629 80.616642 
L 92.954975 80.505983 
L 93.065324 80.452633 
L 93.296761 80.341741 
L 93.407378 80.293983 
L 93.63962 80.183324 
L 93.750505 80.121587 
L 93.990265 80.010928 
L 94.100882 79.956414 
L 94.335272 79.845521 
L 94.445621 79.805451 
L 94.705785 79.694559 
L 94.816671 79.645636 
L 95.100463 79.534976 
L 95.211348 79.488616 
L 95.496214 79.377723 
L 95.605488 79.333926 
L 95.902705 79.223033 
L 96.012248 79.183196 
L 96.01359 79.183196 
L 96.296039 79.072304 
L 96.406925 79.027341 
L 96.707094 78.916449 
L 96.817711 78.871952 
L 97.101503 78.76106 
L 97.21212 78.712136 
L 97.511753 78.601477 
L 97.62237 78.565367 
L 97.886025 78.454475 
L 97.996642 78.407648 
L 98.283119 78.296756 
L 98.393736 78.255987 
L 98.663566 78.145095 
L 98.969374 78.026514 
L 99.267395 77.915622 
L 99.378281 77.87229 
L 99.681672 77.761631 
L 99.792558 77.725055 
L 100.064268 77.614163 
L 100.368465 77.49698 
L 100.666218 77.386088 
L 100.776835 77.347415 
L 101.075662 77.236523 
L 101.186279 77.192725 
L 101.459331 77.082066 
L 101.568337 77.042461 
L 101.838973 76.931569 
L 101.94959 76.890334 
L 102.235261 76.779442 
L 102.345878 76.736809 
L 102.346147 76.736809 
L 102.662426 76.608444 
L 102.971724 76.497551 
L 103.082609 76.453521 
L 103.372845 76.342628 
L 103.48373 76.299995 
L 103.767522 76.199587 
L 104.066886 76.088694 
L 104.177503 76.04443 
L 104.47284 75.933538 
L 104.582383 75.890206 
L 104.855435 75.779314 
L 104.966052 75.738312 
L 105.273471 75.627419 
L 105.383282 75.587815 
L 105.655529 75.476923 
L 105.765341 75.433591 
L 106.085915 75.322698 
L 106.196801 75.282395 
L 106.472001 75.171503 
L 106.581812 75.127239 
L 106.919839 75.01658 
L 107.028845 74.974413 
L 107.348614 74.86352 
L 107.4595 74.824382 
L 107.774167 74.713723 
L 107.885053 74.674817 
L 108.237578 74.563925 
L 108.348463 74.520127 
L 108.719245 74.409235 
L 108.830131 74.382443 
L 109.128958 74.27225 
L 109.128958 74.271784 
L 109.239843 74.23614 
L 109.614115 74.125248 
L 109.724732 74.093564 
L 110.079405 73.982672 
L 110.19029 73.943766 
L 110.599735 73.833107 
L 110.710352 73.805384 
L 111.088114 73.694492 
L 111.198731 73.664905 
L 111.628849 73.554245 
L 111.739197 73.528852 
L 112.149178 73.41796 
L 112.259527 73.389072 
L 112.669777 73.278412 
L 112.77932 73.2437 
L 113.163257 73.133041 
L 113.273606 73.102522 
L 113.74346 72.99163 
L 113.852734 72.959247 
L 114.224322 72.848355 
L 114.334133 72.814109 
L 114.707332 72.703217 
L 114.816606 72.672232 
L 115.284849 72.56134 
L 115.395466 72.534083 
L 115.844378 72.42319 
L 115.954995 72.398962 
L 116.485796 72.288069 
L 116.596413 72.256852 
L 117.087477 72.145959 
L 117.198363 72.11777 
L 117.670364 72.006878 
L 117.780445 71.978223 
L 118.25352 71.867331 
L 118.364406 71.841704 
L 118.887689 71.730812 
L 119.106506 71.685849 
L 119.639992 71.574957 
L 119.750072 71.549098 
L 120.302083 71.438205 
L 120.4127 71.414676 
L 120.879869 71.304249 
L 120.990218 71.277691 
L 120.990755 71.277691 
L 121.48531 71.166799 
L 121.595927 71.144201 
L 122.194923 71.033309 
L 122.302587 71.011177 
L 122.793383 70.900284 
L 122.903463 70.87955 
L 123.382445 70.768658 
L 123.493062 70.743731 
L 123.964259 70.632838 
L 124.072459 70.604183 
L 124.56245 70.493291 
L 124.672798 70.470926 
L 125.210848 70.360034 
L 125.320928 70.338834 
L 125.914824 70.227941 
L 126.023024 70.210935 
L 126.648064 70.100043 
L 126.75895 70.082803 
L 127.342643 69.971911 
L 127.452186 69.94908 
L 128.062459 69.838188 
L 128.172002 69.819084 
L 128.829529 69.708425 
L 128.829529 69.708192 
L 129.038412 69.672781 
L 129.642779 69.561889 
L 129.752322 69.540456 
L 130.401794 69.429563 
L 130.511069 69.406267 
L 131.198666 69.295374 
L 131.307404 69.276271 
L 131.942647 69.165379 
L 132.053532 69.148139 
L 132.736834 69.037247 
L 132.846377 69.015581 
L 132.846914 69.015581 
L 133.535854 68.904921 
L 133.646739 68.882557 
L 134.308831 68.771664 
L 134.418911 68.75326 
L 135.113221 68.642368 
L 135.222227 68.621634 
L 135.852636 68.510741 
L 135.963522 68.490473 
L 136.65273 68.379814 
L 136.760931 68.358614 
L 137.433493 68.247954 
L 137.54411 68.228385 
L 138.187408 68.117493 
L 138.297756 68.095361 
L 138.298293 68.095361 
L 138.906418 67.984469 
L 139.01623 67.9642 
L 139.681274 67.853308 
L 139.787596 67.838165 
L 139.791891 67.838165 
L 140.411562 67.727273 
L 140.522179 67.703743 
L 141.138359 67.593084 
L 141.138359 67.592851 
L 141.347511 67.556275 
L 141.980337 67.445383 
L 142.090685 67.42791 
L 142.79305 67.317018 
L 142.903935 67.30071 
L 143.607642 67.189818 
L 143.718528 67.16955 
L 144.337124 67.058657 
L 144.44613 67.033031 
L 144.447741 67.033031 
L 145.11547 66.922372 
L 145.222329 66.905598 
L 145.226087 66.905598 
L 145.898113 66.794706 
L 146.008193 66.77304 
L 146.008998 66.77304 
L 146.640482 66.662147 
L 146.749488 66.64584 
L 146.751099 66.64584 
L 147.472795 66.534947 
L 147.582875 66.512816 
L 148.261881 66.401923 
L 148.371424 66.38282 
L 148.372498 66.38282 
L 149.017674 66.271928 
L 149.126412 66.251426 
L 149.128291 66.251426 
L 149.757627 66.140534 
L 149.866902 66.119101 
L 150.571951 66.008209 
L 150.780566 65.973497 
L 151.444805 65.862837 
L 151.550858 65.84653 
L 152.288126 65.735637 
L 152.399011 65.71933 
L 153.067815 65.608437 
L 153.177895 65.586538 
L 153.178163 65.586538 
L 153.829784 65.475646 
L 153.93879 65.45631 
L 154.614574 65.345883 
L 154.614574 65.345418 
L 154.725459 65.325615 
L 155.45521 65.214956 
L 155.45521 65.214723 
L 155.665704 65.178846 
L 156.295577 65.067954 
L 156.404851 65.045123 
L 157.075803 64.934231 
L 157.184809 64.917224 
L 157.847169 64.806332 
L 157.957786 64.789325 
L 158.646457 64.678433 
L 158.859637 64.63976 
L 159.504276 64.528868 
L 159.614893 64.51256 
L 160.256042 64.401668 
L 160.365049 64.384894 
L 160.366928 64.384894 
L 160.988209 64.274002 
L 161.097484 64.253501 
L 161.099095 64.253501 
L 161.803607 64.142609 
L 161.91315 64.123738 
L 161.913955 64.123738 
L 162.647196 64.012846 
L 162.757813 63.993277 
L 162.758082 63.993277 
L 163.465279 63.882384 
L 163.676847 63.845575 
L 164.327394 63.734683 
L 164.4364 63.716046 
L 164.438279 63.716046 
L 165.114869 63.605153 
L 165.223069 63.58838 
L 165.225754 63.58838 
L 165.924628 63.477488 
L 166.069075 63.447202 
L 166.72338 63.336309 
L 166.832386 63.32303 
L 166.83346 63.32303 
L 167.510318 63.212138 
L 167.990375 63.124775 
L 168.685221 63.013883 
L 168.795838 62.993848 
L 169.498203 62.882956 
L 169.606135 62.866881 
L 169.609088 62.866881 
L 169.824684 62.82681 
L 170.780501 62.665597 
L 171.440713 62.554705 
L 171.546766 62.536766 
L 172.246177 62.425874 
L 172.35223 62.406305 
L 172.356525 62.406305 
L 173.004655 62.295413 
L 173.114467 62.278406 
L 173.115272 62.278406 
L 173.734674 62.167514 
L 173.842875 62.143285 
L 173.844754 62.143285 
L 174.58417 62.032393 
L 174.69425 62.012824 
L 175.342111 61.901931 
L 175.549116 61.86885 
L 176.170665 61.757958 
L 176.389751 61.714393 
L 177.00432 61.6035 
L 177.113058 61.587426 
L 177.841466 61.476533 
L 177.950472 61.456731 
L 177.952083 61.456731 
L 178.67163 61.345839 
L 178.780636 61.3279 
L 179.404334 61.217008 
L 179.511192 61.199535 
L 179.515219 61.199535 
L 180.227786 61.088643 
L 180.677504 61.014327 
L 181.265761 60.903434 
L 181.374767 60.879206 
L 182.082501 60.768313 
L 182.193118 60.748977 
L 182.858431 60.638085 
L 182.967706 60.61968 
L 183.60268 60.508788 
L 183.712491 60.493179 
L 184.454592 60.382287 
L 184.564672 60.366678 
L 185.386514 60.255786 
L 185.496325 60.242041 
L 186.292392 60.131148 
L 186.402204 60.113676 
L 187.358289 60.002784 
L 187.465684 59.98834 
L 188.315449 59.877447 
L 188.426334 59.863935 
L 189.369801 59.753043 
L 189.480686 59.738832 
L 190.413682 59.62794 
L 190.523762 59.610933 
L 191.46347 59.500041 
L 191.572744 59.485597 
L 192.481039 59.374704 
L 192.862561 59.330208 
L 193.818109 59.219548 
L 193.924699 59.205337 
L 193.927921 59.205337 
L 194.779833 59.094678 
L 194.779833 59.094445 
L 194.97207 59.071148 
L 195.922786 58.960256 
L 196.03045 58.945812 
L 197.05849 58.83492 
L 197.168033 58.822572 
L 197.169376 58.822572 
L 198.209229 58.71168 
L 198.401735 58.687684 
L 199.399436 58.576792 
L 199.490185 58.563513 
L 199.507369 58.563513 
L 200.443318 58.452854 
L 200.552324 58.440273 
L 201.841603 58.329381 
L 201.951146 58.322159 
L 203.15612 58.211267 
L 203.2662 58.201249 
L 204.436002 58.090357 
L 204.54635 58.079174 
L 205.780052 57.968282 
L 205.890401 57.959429 
L 207.305601 57.848537 
L 207.475285 57.836423 
L 209.084602 57.72553 
L 209.189849 57.716212 
L 209.191192 57.716212 
L 210.951936 57.605552 
L 210.951936 57.605319 
L 211.457767 57.574568 
L 213.067621 57.463675 
L 213.176358 57.457618 
L 214.957507 57.346726 
L 215.059533 57.338339 
L 215.063828 57.338339 
L 216.637973 57.227447 
L 216.748322 57.218361 
L 218.342603 57.107469 
L 218.450535 57.100014 
L 218.451341 57.100014 
L 219.966687 56.989122 
L 220.076498 56.977706 
L 220.077572 56.977706 
L 221.393163 56.866814 
L 221.575198 56.854467 
L 223.458104 56.743574 
L 223.56711 56.733557 
L 225.160049 56.622664 
L 225.258853 56.615908 
L 225.270935 56.615908 
L 225.458071 56.600066 
L 227.123233 56.489174 
L 227.233044 56.479623 
L 227.23385 56.479623 
L 228.855249 56.36873 
L 228.964792 56.357548 
L 228.966134 56.357548 
L 229.157566 56.337746 
L 230.942474 56.226853 
L 231.049064 56.219631 
L 232.677174 56.108739 
L 232.859209 56.097789 
L 234.624249 55.986897 
L 234.807626 55.974317 
L 236.338008 55.863658 
L 236.448625 55.855038 
L 238.132581 55.744145 
L 238.242661 55.735759 
L 239.94031 55.624866 
L 240.046631 55.616014 
L 241.726292 55.505121 
L 242.315355 55.450141 
L 244.394257 55.339249 
L 244.57307 55.330862 
L 246.255684 55.21997 
L 246.35583 55.212049 
L 246.360662 55.212049 
L 247.92729 55.101156 
L 248.038175 55.092071 
L 249.661185 54.981178 
L 249.765089 54.973024 
L 249.771265 54.973024 
L 251.794321 54.862132 
L 251.898226 54.856075 
L 251.90467 54.856075 
L 254.285621 54.745183 
L 254.385767 54.739125 
L 254.390063 54.739125 
L 256.690199 54.628233 
L 256.7984 54.622176 
L 258.892606 54.511284 
L 259.003223 54.506158 
L 261.064941 54.395266 
L 261.175022 54.38618 
L 263.658267 54.275288 
L 263.840033 54.26364 
L 266.388789 54.152747 
L 266.497795 54.145059 
L 268.676575 54.034167 
L 268.783701 54.026712 
L 270.519207 53.91582 
L 270.630093 53.908831 
L 272.633818 53.797939 
L 272.736112 53.791648 
L 276.536022 53.680756 
L 276.643417 53.679591 
L 329.702004 53.568699 
L 329.702004 53.568466 
L 329.793827 53.568466 
L 398.487273 53.568 
L 398.487273 53.568 
" clip-path="url(#p778f6315e3)" style="fill: none; stroke: #1f77b4; stroke-width: 1.5; stroke-linecap: square"/>
   </g>
   <g id="line2d_14">
    <path d="M 73.832727 295.488 
L 398.487273 53.568 
" clip-path="url(#p778f6315e3)" style="fill: none; stroke-dasharray: 5.55,2.4; stroke-dashoffset: 0; stroke: #ff7f0e; stroke-width: 1.5"/>
   </g>
   <g id="patch_3">
    <path d="M 57.6 307.584 
L 57.6 41.472 
" style="fill: none; stroke: #000000; stroke-width: 0.8; stroke-linejoin: miter; stroke-linecap: square"/>
   </g>
   <g id="patch_4">
    <path d="M 414.72 307.584 
L 414.72 41.472 
" style="fill: none; stroke: #000000; stroke-width: 0.8; stroke-linejoin: miter; stroke-linecap: square"/>
   </g>
   <g id="patch_5">
    <path d="M 57.6 307.584 
L 414.72 307.584 
" style="fill: none; stroke: #000000; stroke-width: 0.8; stroke-linejoin: miter; stroke-linecap: square"/>
   </g>
   <g id="patch_6">
    <path d="M 57.6 41.472 
L 414.72 41.472 
" style="fill: none; stroke: #000000; stroke-width: 0.8; stroke-linejoin: miter; stroke-linecap: square"/>
   </g>
   <g id="text_13">
    <!-- ROC Curve -->
    <g transform="translate(203.469375 35.472) scale(0.12 -0.12)">
     <defs>
      <path id="DejaVuSans-52" d="M 2841 2188 
Q 3044 2119 3236 1894 
Q 3428 1669 3622 1275 
L 4263 0 
L 3584 0 
L 2988 1197 
Q 2756 1666 2539 1819 
Q 2322 1972 1947 1972 
L 1259 1972 
L 1259 0 
L 628 0 
L 628 4666 
L 2053 4666 
Q 2853 4666 3247 4331 
Q 3641 3997 3641 3322 
Q 3641 2881 3436 2590 
Q 3231 2300 2841 2188 
z
M 1259 4147 
L 1259 2491 
L 2053 2491 
Q 2509 2491 2742 2702 
Q 2975 2913 2975 3322 
Q 2975 3731 2742 3939 
Q 2509 4147 2053 4147 
L 1259 4147 
z
" transform="scale(0.015625)"/>
      <path id="DejaVuSans-4f" d="M 2522 4238 
Q 1834 4238 1429 3725 
Q 1025 3213 1025 2328 
Q 1025 1447 1429 934 
Q 1834 422 2522 422 
Q 3209 422 3611 934 
Q 4013 1447 4013 2328 
Q 4013 3213 3611 3725 
Q 3209 4238 2522 4238 
z
M 2522 4750 
Q 3503 4750 4090 4092 
Q 4678 3434 4678 2328 
Q 4678 1225 4090 567 
Q 3503 -91 2522 -91 
Q 1538 -91 948 565 
Q 359 1222 359 2328 
Q 359 3434 948 4092 
Q 1538 4750 2522 4750 
z
" transform="scale(0.015625)"/>
      <path id="DejaVuSans-43" d="M 4122 4306 
L 4122 3641 
Q 3803 3938 3442 4084 
Q 3081 4231 2675 4231 
Q 1875 4231 1450 3742 
Q 1025 3253 1025 2328 
Q 1025 1406 1450 917 
Q 1875 428 2675 428 
Q 3081 428 3442 575 
Q 3803 722 4122 1019 
L 4122 359 
Q 3791 134 3420 21 
Q 3050 -91 2638 -91 
Q 1578 -91 968 557 
Q 359 1206 359 2328 
Q 359 3453 968 4101 
Q 1578 4750 2638 4750 
Q 3056 4750 3426 4639 
Q 3797 4528 4122 4306 
z
" transform="scale(0.015625)"/>
      <path id="DejaVuSans-20" transform="scale(0.015625)"/>
      <path id="DejaVuSans-75" d="M 544 1381 
L 544 3500 
L 1119 3500 
L 1119 1403 
Q 1119 906 1312 657 
Q 1506 409 1894 409 
Q 2359 409 2629 706 
Q 2900 1003 2900 1516 
L 2900 3500 
L 3475 3500 
L 3475 0 
L 2900 0 
L 2900 538 
Q 2691 219 2414 64 
Q 2138 -91 1772 -91 
Q 1169 -91 856 284 
Q 544 659 544 1381 
z
M 1991 3584 
L 1991 3584 
z
" transform="scale(0.015625)"/>
      <path id="DejaVuSans-72" d="M 2631 2963 
Q 2534 3019 2420 3045 
Q 2306 3072 2169 3072 
Q 1681 3072 1420 2755 
Q 1159 2438 1159 1844 
L 1159 0 
L 581 0 
L 581 3500 
L 1159 3500 
L 1159 2956 
Q 1341 3275 1631 3429 
Q 1922 3584 2338 3584 
Q 2397 3584 2469 3576 
Q 2541 3569 2628 3553 
L 2631 2963 
z
" transform="scale(0.015625)"/>
      <path id="DejaVuSans-76" d="M 191 3500 
L 800 3500 
L 1894 563 
L 2988 3500 
L 3597 3500 
L 2284 0 
L 1503 0 
L 191 3500 
z
" transform="scale(0.015625)"/>
      <path id="DejaVuSans-65" d="M 3597 1894 
L 3597 1613 
L 953 1613 
Q 991 1019 1311 708 
Q 1631 397 2203 397 
Q 2534 397 2845 478 
Q 3156 559 3463 722 
L 3463 178 
Q 3153 47 2828 -22 
Q 2503 -91 2169 -91 
Q 1331 -91 842 396 
Q 353 884 353 1716 
Q 353 2575 817 3079 
Q 1281 3584 2069 3584 
Q 2775 3584 3186 3129 
Q 3597 2675 3597 1894 
z
M 3022 2063 
Q 3016 2534 2758 2815 
Q 2500 3097 2075 3097 
Q 1594 3097 1305 2825 
Q 1016 2553 972 2059 
L 3022 2063 
z
" transform="scale(0.015625)"/>
     </defs>
     <use xlink:href="#DejaVuSans-52"/>
     <use xlink:href="#DejaVuSans-4f" transform="translate(69.482422 0)"/>
     <use xlink:href="#DejaVuSans-43" transform="translate(148.193359 0)"/>
     <use xlink:href="#DejaVuSans-20" transform="translate(218.017578 0)"/>
     <use xlink:href="#DejaVuSans-43" transform="translate(249.804688 0)"/>
     <use xlink:href="#DejaVuSans-75" transform="translate(319.628906 0)"/>
     <use xlink:href="#DejaVuSans-72" transform="translate(383.007812 0)"/>
     <use xlink:href="#DejaVuSans-76" transform="translate(424.121094 0)"/>
     <use xlink:href="#DejaVuSans-65" transform="translate(483.300781 0)"/>
    </g>
   </g>
   <g id="legend_1">
    <g id="patch_7">
     <path d="M 64.6 64.150125 
L 154.75 64.150125 
Q 156.75 64.150125 156.75 62.150125 
L 156.75 48.472 
Q 156.75 46.472 154.75 46.472 
L 64.6 46.472 
Q 62.6 46.472 62.6 48.472 
L 62.6 62.150125 
Q 62.6 64.150125 64.6 64.150125 
z
" style="fill: #ffffff; opacity: 0.8; stroke: #cccccc; stroke-linejoin: miter"/>
    </g>
    <g id="line2d_15">
     <path d="M 66.6 54.570438 
L 76.6 54.570438 
L 86.6 54.570438 
" style="fill: none; stroke: #1f77b4; stroke-width: 1.5; stroke-linecap: square"/>
    </g>
    <g id="text_14">
     <!-- AUC=0.968 -->
     <g transform="translate(94.6 58.070438) scale(0.1 -0.1)">
      <defs>
       <path id="DejaVuSans-41" d="M 2188 4044 
L 1331 1722 
L 3047 1722 
L 2188 4044 
z
M 1831 4666 
L 2547 4666 
L 4325 0 
L 3669 0 
L 3244 1197 
L 1141 1197 
L 716 0 
L 50 0 
L 1831 4666 
z
" transform="scale(0.015625)"/>
       <path id="DejaVuSans-55" d="M 556 4666 
L 1191 4666 
L 1191 1831 
Q 1191 1081 1462 751 
Q 1734 422 2344 422 
Q 2950 422 3222 751 
Q 3494 1081 3494 1831 
L 3494 4666 
L 4128 4666 
L 4128 1753 
Q 4128 841 3676 375 
Q 3225 -91 2344 -91 
Q 1459 -91 1007 375 
Q 556 841 556 1753 
L 556 4666 
z
" transform="scale(0.015625)"/>
       <path id="DejaVuSans-3d" d="M 678 2906 
L 4684 2906 
L 4684 2381 
L 678 2381 
L 678 2906 
z
M 678 1631 
L 4684 1631 
L 4684 1100 
L 678 1100 
L 678 1631 
z
" transform="scale(0.015625)"/>
       <path id="DejaVuSans-39" d="M 703 97 
L 703 672 
Q 941 559 1184 500 
Q 1428 441 1663 441 
Q 2288 441 2617 861 
Q 2947 1281 2994 2138 
Q 2813 1869 2534 1725 
Q 2256 1581 1919 1581 
Q 1219 1581 811 2004 
Q 403 2428 403 3163 
Q 403 3881 828 4315 
Q 1253 4750 1959 4750 
Q 2769 4750 3195 4129 
Q 3622 3509 3622 2328 
Q 3622 1225 3098 567 
Q 2575 -91 1691 -91 
Q 1453 -91 1209 -44 
Q 966 3 703 97 
z
M 1959 2075 
Q 2384 2075 2632 2365 
Q 2881 2656 2881 3163 
Q 2881 3666 2632 3958 
Q 2384 4250 1959 4250 
Q 1534 4250 1286 3958 
Q 1038 3666 1038 3163 
Q 1038 2656 1286 2365 
Q 1534 2075 1959 2075 
z
" transform="scale(0.015625)"/>
      </defs>
      <use xlink:href="#DejaVuSans-41"/>
      <use xlink:href="#DejaVuSans-55" transform="translate(68.408203 0)"/>
      <use xlink:href="#DejaVuSans-43" transform="translate(141.601562 0)"/>
      <use xlink:href="#DejaVuSans-3d" transform="translate(211.425781 0)"/>
      <use xlink:href="#DejaVuSans-30" transform="translate(295.214844 0)"/>
      <use xlink:href="#DejaVuSans-2e" transform="translate(358.837891 0)"/>
      <use xlink:href="#DejaVuSans-39" transform="translate(390.625 0)"/>
      <use xlink:href="#DejaVuSans-36" transform="translate(454.248047 0)"/>
      <use xlink:href="#DejaVuSans-38" transform="translate(517.871094 0)"/>
     </g>
    </g>
   </g>
  </g>
 </g>
 <defs>
  <clipPath id="p778f6315e3">
   <rect x="57.6" y="41.472" width="357.12" height="266.112"/>
  </clipPath>
 </defs>
</svg>
