<?xml version="1.0" encoding="utf-8" standalone="no"?>
<!DOCTYPE svg PUBLIC "-//W3C//DTD SVG 1.1//EN"
  "http://www.w3.org/Graphics/SVG/1.1/DTD/svg11.dtd">
<svg xmlns:xlink="http://www.w3.org/1999/xlink" width="460.8pt" height="345.6pt" viewBox="0 0 460.8 345.6" xmlns="http://www.w3.org/2000/svg" version="1.1">
 <metadata>
  <rdf:RDF xmlns:dc="http://purl.org/dc/elements/1.1/" xmlns:cc="http://creativecommons.org/ns#" xmlns:rdf="http://www.w3.org/1999/02/22-rdf-syntax-ns#">
   <cc:Work>
    <dc:type rdf:resource="http://purl.org/dc/dcmitype/StillImage"/>
    <dc:date>2026-03-17T12:06:09.975460</dc:date>
    <dc:format>image/svg+xml</dc:format>
    <dc:creator>
     <cc:Agent>
      <dc:title>Matplotlib v3.10.8, https://matplotlib.org/</dc:title>
     </cc:Agent>
    </dc:creator>
   </cc:Work>
  </rdf:RDF>
 </metadata>
 <defs>
  <style type="text/css">*{stroke-linejoin: round; stroke-linecap: butt}</style>
 </defs>
 <g id="figure_1">
  <g id="patch_1">
   <path d="M 0 345.6 
L 460.8 345.6 
L 460.8 0 
L 0 0 
z
" style="fill: #ffffff"/>
  </g>
  <g id="axes_1">
   <g id="patch_2">
    <path d="M 57.6 307.584 
L 414.72 307.584 
L 414.72 41.472 
L 57.6 41.472 
z
" style="fill: #ffffff"/>
   </g>
   <g id="matplotlib.axis_1">
    <g id="xtick_1">
     <g id="line2d_1">
      <defs>
       <path id="m9b3ecb263f" d="M 0 0 
L 0 3.5 
" style="stroke: #000000; stroke-width: 0.8"/>
      </defs>
      <g>
       <use xlink:href="#m9b3ecb263f" x="73.832727" y="307.584" style="stroke: #000000; stroke-width: 0.8"/>
      </g>
     </g>
     <g id="text_1">
      <!-- 0.0 -->
      <g transform="translate(65.881165 322.182437) scale(0.1 -0.1)">
       <defs>
        <path id="DejaVuSans-30" d="M 2034 4250 
Q 1547 4250 1301 3770 
Q 1056 3291 1056 2328 
Q 1056 1369 1301 889 
Q 1547 409 2034 409 
Q 2525 409 2770 889 
Q 3016 1369 3016 2328 
Q 3016 3291 2770 3770 
Q 2525 4250 2034 4250 
z
M 2034 4750 
Q 2819 4750 3233 4129 
Q 3647 3509 3647 2328 
Q 3647 1150 3233 529 
Q 2819 -91 2034 -91 
Q 1250 -91 836 529 
Q 422 1150 422 2328 
Q 422 3509 836 4129 
Q 1250 4750 2034 4750 
z
" transform="scale(0.015625)"/>
        <path id="DejaVuSans-2e" d="M 684 794 
L 1344 794 
L 1344 0 
L 684 0 
L 684 794 
z
" transform="scale(0.015625)"/>
       </defs>
       <use xlink:href="#DejaVuSans-30"/>
       <use xlink:href="#DejaVuSans-2e" transform="translate(63.623047 0)"/>
       <use xlink:href="#DejaVuSans-30" transform="translate(95.410156 0)"/>
      </g>
     </g>
    </g>
    <g id="xtick_2">
     <g id="line2d_2">
      <g>
       <use xlink:href="#m9b3ecb263f" x="138.763636" y="307.584" style="stroke: #000000; stroke-width: 0.8"/>
      </g>
     </g>
     <g id="text_2">
      <!-- 0.2 -->
      <g transform="translate(130.812074 322.182437) scale(0.1 -0.1)">
       <defs>
        <path id="DejaVuSans-32" d="M 1228 531 
L 3431 531 
L 3431 0 
L 469 0 
L 469 531 
Q 828 903 1448 1529 
Q 2069 2156 2228 2338 
Q 2531 2678 2651 2914 
Q 2772 3150 2772 3378 
Q 2772 3750 2511 3984 
Q 2250 4219 1831 4219 
Q 1534 4219 1204 4116 
Q 875 4013 500 3803 
L 500 4441 
Q 881 4594 1212 4672 
Q 1544 4750 1819 4750 
Q 2544 4750 2975 4387 
Q 3406 4025 3406 3419 
Q 3406 3131 3298 2873 
Q 3191 2616 2906 2266 
Q 2828 2175 2409 1742 
Q 1991 1309 1228 531 
z
" transform="scale(0.015625)"/>
       </defs>
       <use xlink:href="#DejaVuSans-30"/>
       <use xlink:href="#DejaVuSans-2e" transform="translate(63.623047 0)"/>
       <use xlink:href="#DejaVuSans-32" transform="translate(95.410156 0)"/>
      </g>
     </g>
    </g>
    <g id="xtick_3">
     <g id="line2d_3">
      <g>
       <use xlink:href="#m9b3ecb263f" x="203.694545" y="307.584" style="stroke: #000000; stroke-width: 0.8"/>
      </g>
     </g>
     <g id="text_3">
      <!-- 0.4 -->
      <g transform="translate(195.742983 322.182437) scale(0.1 -0.1)">
       <defs>
        <path id="DejaVuSans-34" d="M 2419 4116 
L 825 1625 
L 2419 1625 
L 2419 4116 
z
M 2253 4666 
L 3047 4666 
L 3047 1625 
L 3713 1625 
L 3713 1100 
L 3047 1100 
L 3047 0 
L 2419 0 
L 2419 1100 
L 313 1100 
L 313 1709 
L 2253 4666 
z
" transform="scale(0.015625)"/>
       </defs>
       <use xlink:href="#DejaVuSans-30"/>
       <use xlink:href="#DejaVuSans-2e" transform="translate(63.623047 0)"/>
       <use xlink:href="#DejaVuSans-34" transform="translate(95.410156 0)"/>
      </g>
     </g>
    </g>
    <g id="xtick_4">
     <g id="line2d_4">
      <g>
       <use xlink:href="#m9b3ecb263f" x="268.625455" y="307.584" style="stroke: #000000; stroke-width: 0.8"/>
      </g>
     </g>
     <g id="text_4">
      <!-- 0.6 -->
      <g transform="translate(260.673892 322.182437) scale(0.1 -0.1)">
       <defs>
        <path id="DejaVuSans-36" d="M 2113 2584 
Q 1688 2584 1439 2293 
Q 1191 2003 1191 1497 
Q 1191 994 1439 701 
Q 1688 409 2113 409 
Q 2538 409 2786 701 
Q 3034 994 3034 1497 
Q 3034 2003 2786 2293 
Q 2538 2584 2113 2584 
z
M 3366 4563 
L 3366 3988 
Q 3128 4100 2886 4159 
Q 2644 4219 2406 4219 
Q 1781 4219 1451 3797 
Q 1122 3375 1075 2522 
Q 1259 2794 1537 2939 
Q 1816 3084 2150 3084 
Q 2853 3084 3261 2657 
Q 3669 2231 3669 1497 
Q 3669 778 3244 343 
Q 2819 -91 2113 -91 
Q 1303 -91 875 529 
Q 447 1150 447 2328 
Q 447 3434 972 4092 
Q 1497 4750 2381 4750 
Q 2619 4750 2861 4703 
Q 3103 4656 3366 4563 
z
" transform="scale(0.015625)"/>
       </defs>
       <use xlink:href="#DejaVuSans-30"/>
       <use xlink:href="#DejaVuSans-2e" transform="translate(63.623047 0)"/>
       <use xlink:href="#DejaVuSans-36" transform="translate(95.410156 0)"/>
      </g>
     </g>
    </g>
    <g id="xtick_5">
     <g id="line2d_5">
      <g>
       <use xlink:href="#m9b3ecb263f" x="333.556364" y="307.584" style="stroke: #000000; stroke-width: 0.8"/>
      </g>
     </g>
     <g id="text_5">
      <!-- 0.8 -->
      <g transform="translate(325.604801 322.182437) scale(0.1 -0.1)">
       <defs>
        <path id="DejaVuSans-38" d="M 2034 2216 
Q 1584 2216 1326 1975 
Q 1069 1734 1069 1313 
Q 1069 891 1326 650 
Q 1584 409 2034 409 
Q 2484 409 2743 651 
Q 3003 894 3003 1313 
Q 3003 1734 2745 1975 
Q 2488 2216 2034 2216 
z
M 1403 2484 
Q 997 2584 770 2862 
Q 544 3141 544 3541 
Q 544 4100 942 4425 
Q 1341 4750 2034 4750 
Q 2731 4750 3128 4425 
Q 3525 4100 3525 3541 
Q 3525 3141 3298 2862 
Q 3072 2584 2669 2484 
Q 3125 2378 3379 2068 
Q 3634 1759 3634 1313 
Q 3634 634 3220 271 
Q 2806 -91 2034 -91 
Q 1263 -91 848 271 
Q 434 634 434 1313 
Q 434 1759 690 2068 
Q 947 2378 1403 2484 
z
M 1172 3481 
Q 1172 3119 1398 2916 
Q 1625 2713 2034 2713 
Q 2441 2713 2670 2916 
Q 2900 3119 2900 3481 
Q 2900 3844 2670 4047 
Q 2441 4250 2034 4250 
Q 1625 4250 1398 4047 
Q 1172 3844 1172 3481 
z
" transform="scale(0.015625)"/>
       </defs>
       <use xlink:href="#DejaVuSans-30"/>
       <use xlink:href="#DejaVuSans-2e" transform="translate(63.623047 0)"/>
       <use xlink:href="#DejaVuSans-38" transform="translate(95.410156 0)"/>
      </g>
     </g>
    </g>
    <g id="xtick_6">
     <g id="line2d_6">
      <g>
       <use xlink:href="#m9b3ecb263f" x="398.487273" y="307.584" style="stroke: #000000; stroke-width: 0.8"/>
      </g>
     </g>
     <g id="text_6">
      <!-- 1.0 -->
      <g transform="translate(390.53571 322.182437) scale(0.1 -0.1)">
       <defs>
        <path id="DejaVuSans-31" d="M 794 531 
L 1825 531 
L 1825 4091 
L 703 3866 
L 703 4441 
L 1819 4666 
L 2450 4666 
L 2450 531 
L 3481 531 
L 3481 0 
L 794 0 
L 794 531 
z
" transform="scale(0.015625)"/>
       </defs>
       <use xlink:href="#DejaVuSans-31"/>
       <use xlink:href="#DejaVuSans-2e" transform="translate(63.623047 0)"/>
       <use xlink:href="#DejaVuSans-30" transform="translate(95.410156 0)"/>
      </g>
     </g>
    </g>
   </g>
   <g id="matplotlib.axis_2">
    <g id="ytick_1">
     <g id="line2d_7">
      <defs>
       <path id="ma08d98b153" d="M 0 0 
L -3.5 0 
" style="stroke: #000000; stroke-width: 0.8"/>
      </defs>
      <g>
       <use xlink:href="#ma08d98b153" x="57.6" y="278.405695" style="stroke: #000000; stroke-width: 0.8"/>
      </g>
     </g>
     <g id="text_7">
      <!-- 0.5 -->
      <g transform="translate(34.696875 282.204913) scale(0.1 -0.1)">
       <defs>
        <path id="DejaVuSans-35" d="M 691 4666 
L 3169 4666 
L 3169 4134 
L 1269 4134 
L 1269 2991 
Q 1406 3038 1543 3061 
Q 1681 3084 1819 3084 
Q 2600 3084 3056 2656 
Q 3513 2228 3513 1497 
Q 3513 744 3044 326 
Q 2575 -91 1722 -91 
Q 1428 -91 1123 -41 
Q 819 9 494 109 
L 494 744 
Q 775 591 1075 516 
Q 1375 441 1709 441 
Q 2250 441 2565 725 
Q 2881 1009 2881 1497 
Q 2881 1984 2565 2268 
Q 2250 2553 1709 2553 
Q 1456 2553 1204 2497 
Q 953 2441 691 2322 
L 691 4666 
z
" transform="scale(0.015625)"/>
       </defs>
       <use xlink:href="#DejaVuSans-30"/>
       <use xlink:href="#DejaVuSans-2e" transform="translate(63.623047 0)"/>
       <use xlink:href="#DejaVuSans-35" transform="translate(95.410156 0)"/>
      </g>
     </g>
    </g>
    <g id="ytick_2">
     <g id="line2d_8">
      <g>
       <use xlink:href="#ma08d98b153" x="57.6" y="233.438156" style="stroke: #000000; stroke-width: 0.8"/>
      </g>
     </g>
     <g id="text_8">
      <!-- 0.6 -->
      <g transform="translate(34.696875 237.237374) scale(0.1 -0.1)">
       <use xlink:href="#DejaVuSans-30"/>
       <use xlink:href="#DejaVuSans-2e" transform="translate(63.623047 0)"/>
       <use xlink:href="#DejaVuSans-36" transform="translate(95.410156 0)"/>
      </g>
     </g>
    </g>
    <g id="ytick_3">
     <g id="line2d_9">
      <g>
       <use xlink:href="#ma08d98b153" x="57.6" y="188.470617" style="stroke: #000000; stroke-width: 0.8"/>
      </g>
     </g>
     <g id="text_9">
      <!-- 0.7 -->
      <g transform="translate(34.696875 192.269836) scale(0.1 -0.1)">
       <defs>
        <path id="DejaVuSans-37" d="M 525 4666 
L 3525 4666 
L 3525 4397 
L 1831 0 
L 1172 0 
L 2766 4134 
L 525 4134 
L 525 4666 
z
" transform="scale(0.015625)"/>
       </defs>
       <use xlink:href="#DejaVuSans-30"/>
       <use xlink:href="#DejaVuSans-2e" transform="translate(63.623047 0)"/>
       <use xlink:href="#DejaVuSans-37" transform="translate(95.410156 0)"/>
      </g>
     </g>
    </g>
    <g id="ytick_4">
     <g id="line2d_10">
      <g>
       <use xlink:href="#ma08d98b153" x="57.6" y="143.503078" style="stroke: #000000; stroke-width: 0.8"/>
      </g>
     </g>
     <g id="text_10">
      <!-- 0.8 -->
      <g transform="translate(34.696875 147.302297) scale(0.1 -0.1)">
       <use xlink:href="#DejaVuSans-30"/>
       <use xlink:href="#DejaVuSans-2e" transform="translate(63.623047 0)"/>
       <use xlink:href="#DejaVuSans-38" transform="translate(95.410156 0)"/>
      </g>
     </g>
    </g>
    <g id="ytick_5">
     <g id="line2d_11">
      <g>
       <use xlink:href="#ma08d98b153" x="57.6" y="98.535539" style="stroke: #000000; stroke-width: 0.8"/>
      </g>
     </g>
     <g id="text_11">
      <!-- 0.9 -->
      <g transform="translate(34.696875 102.334758) scale(0.1 -0.1)">
       <defs>
        <path id="DejaVuSans-39" d="M 703 97 
L 703 672 
Q 941 559 1184 500 
Q 1428 441 1663 441 
Q 2288 441 2617 861 
Q 2947 1281 2994 2138 
Q 2813 1869 2534 1725 
Q 2256 1581 1919 1581 
Q 1219 1581 811 2004 
Q 403 2428 403 3163 
Q 403 3881 828 4315 
Q 1253 4750 1959 4750 
Q 2769 4750 3195 4129 
Q 3622 3509 3622 2328 
Q 3622 1225 3098 567 
Q 2575 -91 1691 -91 
Q 1453 -91 1209 -44 
Q 966 3 703 97 
z
M 1959 2075 
Q 2384 2075 2632 2365 
Q 2881 2656 2881 3163 
Q 2881 3666 2632 3958 
Q 2384 4250 1959 4250 
Q 1534 4250 1286 3958 
Q 1038 3666 1038 3163 
Q 1038 2656 1286 2365 
Q 1534 2075 1959 2075 
z
" transform="scale(0.015625)"/>
       </defs>
       <use xlink:href="#DejaVuSans-30"/>
       <use xlink:href="#DejaVuSans-2e" transform="translate(63.623047 0)"/>
       <use xlink:href="#DejaVuSans-39" transform="translate(95.410156 0)"/>
      </g>
     </g>
    </g>
    <g id="ytick_6">
     <g id="line2d_12">
      <g>
       <use xlink:href="#ma08d98b153" x="57.6" y="53.568" style="stroke: #000000; stroke-width: 0.8"/>
      </g>
     </g>
     <g id="text_12">
      <!-- 1.0 -->
      <g transform="translate(34.696875 57.367219) scale(0.1 -0.1)">
       <use xlink:href="#DejaVuSans-31"/>
       <use xlink:href="#DejaVuSans-2e" transform="translate(63.623047 0)"/>
       <use xlink:href="#DejaVuSans-30" transform="translate(95.410156 0)"/>
      </g>
     </g>
    </g>
   </g>
   <g id="line2d_13">
    <path d="M 398.487273 295.488 
L 398.376286 250.26292 
L 398.375973 250.263026 
L 398.375348 250.145962 
L 398.264673 246.579928 
L 398.264361 246.580034 
L 398.264048 246.58014 
L 398.259046 246.464612 
L 398.148059 244.756228 
L 398.147746 244.756334 
L 398.133052 244.645095 
L 398.132739 244.644197 
L 398.021752 243.276591 
L 398.021439 243.276697 
L 398.01206 243.164883 
L 398.011122 243.163024 
L 397.900135 242.370995 
L 397.89951 242.370476 
L 397.886692 242.25839 
L 397.775705 241.185617 
L 397.760698 241.071536 
L 397.649711 240.36331 
L 397.634079 240.249085 
L 397.523092 239.555554 
L 397.497455 239.439875 
L 397.386468 238.823696 
L 397.382716 238.814442 
L 397.362707 238.714606 
L 397.25172 238.009859 
L 397.231086 237.8947 
L 397.120099 237.279045 
L 397.106343 237.164652 
L 396.995668 236.580807 
L 396.99348 236.579248 
L 396.975972 236.471255 
L 396.975347 236.470546 
L 396.86436 235.909119 
L 396.863734 235.908867 
L 396.846852 235.797886 
L 396.735865 235.090491 
L 396.713667 234.97448 
L 396.60268 234.224885 
L 396.595489 234.210767 
L 396.581421 234.114878 
L 396.470746 233.485573 
L 396.470121 233.485783 
L 396.45824 233.372881 
L 396.347566 232.633555 
L 396.321617 232.516506 
L 396.21063 231.772919 
L 396.195936 231.657613 
L 396.084949 230.76942 
L 396.051809 230.555866 
L 395.940822 229.857903 
L 395.940509 229.858007 
L 395.924877 229.746683 
L 395.924564 229.746302 
L 395.813577 229.075441 
L 395.812952 229.075324 
L 395.797945 228.96632 
L 395.796382 228.964078 
L 395.685395 228.247014 
L 395.68477 228.246731 
L 395.672264 228.134356 
L 395.561277 227.180519 
L 395.545332 227.064204 
L 395.434345 226.344545 
L 395.432157 226.341456 
L 395.413398 226.234566 
L 395.302411 225.320008 
L 395.302098 225.320111 
L 395.284591 225.208904 
L 395.173604 224.475599 
L 395.158284 224.359033 
L 395.047297 223.44402 
L 395.046984 223.444123 
L 395.035104 223.33174 
L 395.034791 223.331164 
L 394.923804 222.412766 
L 394.923492 222.412869 
L 394.910048 222.300771 
L 394.909736 222.300532 
L 394.798748 221.361717 
L 394.797498 221.359718 
L 394.78593 221.249174 
L 394.785618 221.249105 
L 394.67463 220.525075 
L 394.674318 220.525177 
L 394.657435 220.41391 
L 394.546448 219.641239 
L 394.527064 219.522845 
L 394.416077 218.823106 
L 394.413264 218.820514 
L 394.398882 218.716737 
L 394.397319 218.712506 
L 394.286332 217.965996 
L 394.285706 217.96514 
L 394.268511 217.855034 
L 394.157524 217.214436 
L 394.157212 217.214537 
L 394.143143 217.102395 
L 394.032156 216.404309 
L 394.030592 216.401779 
L 394.015898 216.295915 
L 394.01496 216.29318 
L 393.903973 215.424218 
L 393.890842 215.306413 
L 393.779855 214.524813 
L 393.77923 214.52429 
L 393.759846 214.417835 
L 393.758283 214.415077 
L 393.647296 213.660255 
L 393.646045 213.657559 
L 393.634478 213.548577 
L 393.634165 213.547766 
L 393.523178 212.605862 
L 393.522865 212.605963 
L 393.508797 212.493786 
L 393.397809 211.702455 
L 393.397497 211.702555 
L 393.378426 211.592125 
L 393.267439 210.8626 
L 393.247742 210.741954 
L 393.136755 209.924411 
L 393.136443 209.924511 
L 393.125188 209.811536 
L 393.0142 208.921918 
L 393.002007 208.802912 
L 392.89102 208.033368 
L 392.890082 208.031957 
L 392.878202 207.920983 
L 392.767528 206.978206 
L 392.767215 206.978305 
L 392.766902 206.978404 
L 392.75596 206.86549 
L 392.644973 206.200369 
L 392.644348 206.199605 
L 392.629653 206.088753 
L 392.518666 205.177516 
L 392.518041 205.176744 
L 392.503347 205.067363 
L 392.503034 205.066492 
L 392.392047 204.190796 
L 392.391735 204.190894 
L 392.379229 204.078449 
L 392.268242 203.233386 
L 392.258863 203.114044 
L 392.147876 202.635562 
L 392.147563 202.63566 
L 392.137558 202.572656 
L 392.118487 202.528461 
L 392.007813 202.32348 
L 392.0075 202.323577 
L 391.98374 202.28391 
L 391.970921 202.218625 
L 391.859934 201.919852 
L 391.855557 201.919632 
L 391.840551 201.809547 
L 391.729876 201.309751 
L 391.729563 201.309848 
L 391.726124 201.303145 
L 391.706741 201.200684 
L 391.706428 201.200782 
L 391.595441 200.536729 
L 391.595128 200.536826 
L 391.57168 200.429603 
L 391.571055 200.427991 
L 391.461006 199.821362 
L 391.457567 199.817594 
L 391.43662 199.717857 
L 391.435057 199.713099 
L 391.32407 199.169602 
L 391.323132 199.169286 
L 391.306562 199.064438 
L 391.304686 199.059346 
L 391.193699 198.589724 
L 391.190572 198.584796 
L 391.173377 198.479867 
L 391.06239 198.011933 
L 391.060202 198.010159 
L 391.037066 197.90353 
L 390.926079 197.445311 
L 390.920764 197.433008 
L 390.901693 197.336739 
L 390.901381 197.336835 
L 390.790394 196.883516 
L 390.790081 196.883612 
L 390.763194 196.776763 
L 390.762569 196.775925 
L 390.652519 196.40313 
L 390.651581 196.403211 
L 390.646267 196.389143 
L 390.625632 196.295858 
L 390.62532 196.295127 
L 390.514333 195.874456 
L 390.484319 195.745885 
L 390.373332 195.281876 
L 390.371144 195.276923 
L 390.346758 195.178119 
L 390.345194 195.174428 
L 390.234207 194.720209 
L 390.232957 194.717454 
L 390.211385 194.611063 
L 390.101023 194.151236 
L 390.100398 194.151427 
L 390.097584 194.147246 
L 390.083515 194.073813 
L 390.073823 194.043568 
L 389.962836 193.546193 
L 389.954082 193.522704 
L 389.940951 193.45327 
L 389.935949 193.43833 
L 389.824962 192.94853 
L 389.791822 192.817671 
L 389.681148 192.327281 
L 389.680835 192.327376 
L 389.64832 192.196742 
L 389.537333 191.654015 
L 389.53577 191.650854 
L 389.522952 191.583949 
L 389.510759 191.546137 
L 389.399772 191.059727 
L 389.394144 191.05284 
L 389.375698 190.969922 
L 389.369758 190.952809 
L 389.258771 190.479209 
L 389.250643 190.460747 
L 389.234385 190.370523 
L 389.123711 189.857404 
L 389.123398 189.857499 
L 389.121835 189.85602 
L 389.09995 189.74952 
L 389.099638 189.748747 
L 388.98865 189.21018 
L 388.988338 189.210274 
L 388.967078 189.111111 
L 388.963952 189.1016 
L 388.852965 188.613004 
L 388.842335 188.590191 
L 388.831705 188.503542 
L 388.721031 188.020469 
L 388.720718 188.020563 
L 388.69133 187.889319 
L 388.580655 187.376157 
L 388.551893 187.214949 
L 388.440905 186.5971 
L 388.437154 186.588025 
L 388.42246 186.487328 
L 388.422147 186.486756 
L 388.31116 186.043149 
L 388.303657 186.020462 
L 388.290838 185.964189 
L 388.280834 185.936443 
L 388.169847 185.554976 
L 388.145148 185.487724 
L 388.135456 185.449498 
L 388.024469 185.037159 
L 388.011338 185.005641 
L 387.996957 184.939959 
L 387.992893 184.930847 
L 387.881905 184.53298 
L 387.879717 184.527555 
L 387.857832 184.431441 
L 387.855331 184.424979 
L 387.744344 183.978314 
L 387.744031 183.978407 
L 387.737153 183.939794 
L 387.715581 183.871165 
L 387.604594 183.469912 
L 387.572079 183.335084 
L 387.461092 182.962581 
L 387.432329 182.878451 
L 387.456715 182.946129 
L 387.428578 182.856342 
L 387.317591 182.422357 
L 387.30571 182.388856 
L 387.292892 182.326156 
L 387.288515 182.315103 
L 387.177841 181.875504 
L 387.177528 181.875596 
L 387.130319 181.733502 
L 387.019332 181.319119 
L 386.989944 181.221602 
L 386.997448 181.233455 
L 386.988381 181.212619 
L 386.877394 180.840616 
L 386.80705 180.584991 
L 386.696063 180.146153 
L 386.661047 180.04099 
L 386.684495 180.099398 
L 386.661047 180.040758 
L 386.55006 179.650796 
L 386.540055 179.62576 
L 386.534741 179.587945 
L 386.520984 179.543716 
L 386.409997 179.113882 
L 386.386237 179.044093 
L 386.404057 179.090595 
L 386.376858 179.007991 
L 386.26587 178.597451 
L 386.264932 178.597488 
L 386.243986 178.499839 
L 386.239921 178.489512 
L 386.128934 178.089767 
L 386.126433 178.084839 
L 386.105799 177.981531 
L 386.105486 177.98115 
L 385.994499 177.57649 
L 385.984182 177.553235 
L 385.966674 177.46894 
L 385.966361 177.469029 
L 385.855374 177.062729 
L 385.848496 177.048582 
L 385.829425 176.960375 
L 385.827549 176.95522 
L 385.716562 176.527759 
L 385.709684 176.507836 
L 385.689988 176.421348 
L 385.688737 176.420277 
L 385.57775 176.022555 
L 385.561806 175.971463 
L 385.574624 175.997179 
L 385.549613 175.915214 
L 385.438625 175.539625 
L 385.438 175.539325 
L 385.417366 175.448377 
L 385.410175 175.432205 
L 385.299188 175.027032 
L 385.268862 174.930301 
L 385.291997 174.992523 
L 385.267299 174.920639 
L 385.156312 174.507797 
L 385.155686 174.507975 
L 385.133176 174.407416 
L 385.13005 174.399851 
L 385.019063 174.01875 
L 384.980296 173.876124 
L 384.869308 173.431688 
L 384.868683 173.431865 
L 384.847736 173.33636 
L 384.842734 173.323904 
L 384.731747 172.922483 
L 384.656713 172.646148 
L 384.545726 172.207528 
L 384.544476 172.207389 
L 384.52009 172.102632 
L 384.518839 172.099794 
L 384.408477 171.632571 
L 384.407852 171.632747 
L 384.402537 171.616757 
L 384.390657 171.560496 
L 384.378151 171.52582 
L 384.267164 171.125176 
L 384.249969 171.079334 
L 384.238401 171.021024 
L 384.237463 171.01832 
L 384.126476 170.604183 
L 384.088959 170.500064 
L 384.113033 170.555365 
L 384.088959 170.49932 
L 383.977972 170.108133 
L 383.97766 170.10822 
L 383.95515 170.007721 
L 383.952336 170.000039 
L 383.841349 169.577365 
L 383.811961 169.488115 
L 383.840098 169.56273 
L 383.808834 169.471243 
L 383.697847 169.040573 
L 383.688155 169.011176 
L 383.678463 168.958204 
L 383.669084 168.933467 
L 383.558097 168.540253 
L 383.478374 168.249122 
L 383.367387 167.809585 
L 383.328932 167.6634 
L 383.217945 167.239405 
L 383.216694 167.237719 
L 383.195435 167.133659 
L 383.194184 167.130955 
L 383.083197 166.702944 
L 383.060375 166.627179 
L 383.075694 166.667818 
L 383.054434 166.595682 
L 382.943447 166.07108 
L 382.92719 166.029483 
L 382.940946 166.060511 
L 382.910933 165.964842 
L 382.799946 165.486836 
L 382.725537 165.196915 
L 382.61455 164.752283 
L 382.588601 164.671061 
L 382.60392 164.705108 
L 382.584849 164.645488 
L 382.473862 164.218679 
L 382.472299 164.215994 
L 382.457918 164.141409 
L 382.448851 164.110439 
L 382.337864 163.646294 
L 382.302848 163.499187 
L 382.191861 162.981768 
L 382.180606 162.951372 
L 382.184358 162.953237 
L 382.161222 162.875091 
L 382.050548 162.460561 
L 382.050235 162.460644 
L 382.049923 162.460728 
L 382.028038 162.352067 
L 382.027413 162.351972 
L 381.916426 161.904594 
L 381.907046 161.881064 
L 381.890476 161.797364 
L 381.889851 161.796741 
L 381.778864 161.407927 
L 381.777926 161.407649 
L 381.765108 161.328992 
L 381.755729 161.299282 
L 381.644742 160.86742 
L 381.640677 160.854995 
L 381.625358 160.77139 
L 381.620668 160.759122 
L 381.509681 160.275012 
L 381.506867 160.2723 
L 381.484045 160.172509 
L 381.482169 160.167419 
L 381.371182 159.682268 
L 381.355862 159.63106 
L 381.34492 159.578411 
L 381.343357 159.574818 
L 381.23237 159.135765 
L 381.197041 158.985619 
L 381.086054 158.527965 
L 381.044473 158.373936 
L 380.933486 157.873431 
L 380.89847 157.722887 
L 380.787483 157.243063 
L 380.75872 157.146648 
L 380.784044 157.224704 
L 380.75747 157.136662 
L 380.646483 156.692061 
L 380.614281 156.542204 
L 380.503294 156.028426 
L 380.478595 155.911208 
L 380.367608 155.432967 
L 380.354477 155.390788 
L 380.344785 155.339476 
L 380.340721 155.325694 
L 380.229734 154.900761 
L 380.229421 154.900841 
L 380.210037 154.791223 
L 380.09905 154.310165 
L 380.063097 154.156459 
L 379.952422 153.646735 
L 379.95211 153.646814 
L 379.946482 153.63492 
L 379.931475 153.539043 
L 379.93085 153.537813 
L 379.819863 153.046255 
L 379.807357 153.004272 
L 379.798604 152.954356 
L 379.794227 152.938176 
L 379.683239 152.440014 
L 379.682927 152.440093 
L 379.66792 152.352375 
L 379.661042 152.331155 
L 379.550368 151.84563 
L 379.550055 151.845708 
L 379.548179 151.841686 
L 379.532234 151.743439 
L 379.530046 151.736401 
L 379.498157 151.583586 
L 379.387482 151.163446 
L 379.38717 151.163524 
L 379.343713 151.002804 
L 379.232725 150.488034 
L 379.23085 150.482835 
L 379.221783 150.418221 
L 379.209903 150.379227 
L 379.098916 149.90654 
L 379.073904 149.820018 
L 379.097665 149.899742 
L 379.070778 149.799169 
L 378.959791 149.285392 
L 378.936343 149.204658 
L 378.931028 149.178261 
L 378.820041 148.727548 
L 378.814726 148.709945 
L 378.803784 148.645572 
L 378.795968 148.619112 
L 378.684981 148.123143 
L 378.679666 148.109489 
L 378.663721 148.019884 
L 378.661533 148.014664 
L 378.550545 147.498371 
L 378.5321 147.427775 
L 378.528348 147.390553 
L 378.528035 147.389762 
L 378.492707 147.231558 
L 378.38172 146.708057 
L 378.366401 146.648786 
L 378.362336 146.615801 
L 378.356083 146.600184 
L 378.245096 146.094458 
L 378.224149 146.023168 
L 378.240094 146.065365 
L 378.219773 145.98633 
L 378.108785 145.455009 
L 378.092528 145.374067 
L 378.079397 145.347952 
L 377.96841 144.805438 
L 377.966847 144.804637 
L 377.959656 144.749074 
L 377.945587 144.696898 
L 377.8346 144.20294 
L 377.812716 144.132362 
L 377.834288 144.200361 
L 377.806775 144.095426 
L 377.695788 143.599064 
L 377.681094 143.553115 
L 377.695476 143.595883 
L 377.669839 143.491232 
L 377.559165 142.987924 
L 377.558852 142.987998 
L 377.542282 142.94169 
L 377.557289 142.978562 
L 377.53134 142.880363 
L 377.420353 142.367208 
L 377.40941 142.345318 
L 377.391902 142.259914 
L 377.280915 141.748715 
L 377.264345 141.684306 
L 377.277789 141.726389 
L 377.255591 141.640814 
L 377.144604 141.15415 
L 377.133975 141.127468 
L 377.122407 141.045371 
L 377.01142 140.609449 
L 376.99485 140.544212 
L 377.005167 140.572895 
L 376.986721 140.501134 
L 376.875734 139.98602 
L 376.836654 139.819336 
L 376.72598 139.328152 
L 376.725667 139.328224 
L 376.725042 139.327759 
L 376.708472 139.232425 
L 376.704095 139.219435 
L 376.593108 138.706428 
L 376.583728 138.674384 
L 376.574037 138.614926 
L 376.569347 138.597979 
L 376.45836 138.029447 
L 376.426158 137.925164 
L 376.455234 138.01514 
L 376.425845 137.923089 
L 376.394269 137.76027 
L 376.283594 137.271558 
L 376.283282 137.271629 
L 376.269838 137.226003 
L 376.281093 137.256727 
L 376.257333 137.163823 
L 376.146345 136.714548 
L 376.127274 136.633836 
L 376.132902 136.64463 
L 376.122897 136.606066 
L 376.01191 136.043364 
L 376.008471 136.033892 
L 375.994715 135.952858 
L 375.987212 135.935283 
L 375.876225 135.39369 
L 375.874036 135.377978 
L 375.849025 135.28599 
L 375.738038 134.810462 
L 375.710213 134.706522 
L 375.7099 134.70315 
L 375.599226 134.255726 
L 375.598913 134.255795 
L 375.578592 134.18244 
L 375.598288 134.251854 
L 375.572651 134.147961 
L 375.461664 133.70766 
L 375.459163 133.699393 
L 375.453848 133.658052 
L 375.438216 133.59911 
L 375.327229 133.079384 
L 375.305657 132.997782 
L 375.324103 133.064263 
L 375.300655 132.971677 
L 375.189668 132.465255 
L 375.18279 132.439144 
L 375.168721 132.357778 
L 375.168095 132.356325 
L 375.057108 131.831529 
L 375.054295 131.825765 
L 375.037412 131.732882 
L 375.034598 131.722971 
L 374.923611 131.268453 
L 374.902039 131.186448 
L 374.899851 131.160061 
L 374.788863 130.626145 
L 374.745406 130.447615 
L 374.635045 129.957041 
L 374.634419 129.957173 
L 374.616912 129.892892 
L 374.60847 129.849234 
L 374.497483 129.321854 
L 374.47466 129.226701 
L 374.473097 129.21344 
L 374.36211 128.748689 
L 374.348041 128.695155 
L 374.358671 128.719553 
L 374.338662 128.6403 
L 374.227675 128.182817 
L 374.220484 128.162492 
L 374.21173 128.103077 
L 374.205478 128.074075 
L 374.09449 127.619367 
L 374.079171 127.55913 
L 374.075732 127.523557 
L 374.07198 127.510599 
L 373.960993 127.079025 
L 373.935044 126.975806 
L 373.957242 127.057502 
L 373.934731 126.971278 
L 373.823744 126.52162 
L 373.797483 126.429253 
L 373.821556 126.505948 
L 373.794981 126.414294 
L 373.683994 125.950343 
L 373.658983 125.853386 
L 373.677429 125.909089 
L 373.65742 125.842473 
L 373.546433 125.334285 
L 373.543932 125.325181 
L 373.536428 125.26837 
L 373.526111 125.225365 
L 373.415124 124.68912 
L 373.389488 124.581462 
L 373.411685 124.666526 
L 373.389488 124.581129 
L 373.278501 124.132356 
L 373.251614 124.025867 
L 373.277563 124.123865 
L 373.251614 124.024532 
L 373.140939 123.604094 
L 373.140626 123.604155 
L 373.111238 123.500782 
L 373.139063 123.595425 
L 373.110613 123.496885 
L 372.999626 123.036312 
L 372.986182 122.991912 
L 372.974302 122.928366 
L 372.863315 122.465652 
L 372.834552 122.383252 
L 372.831426 122.358901 
L 372.720438 121.876773 
L 372.708871 121.848225 
L 372.696053 121.768463 
L 372.585065 121.304769 
L 372.557553 121.213623 
L 372.583502 121.29183 
L 372.556303 121.197219 
L 372.445315 120.712626 
L 372.415927 120.619072 
L 372.414051 120.605794 
L 372.303064 120.127109 
L 372.266798 120.021813 
L 372.266798 120.021128 
L 372.155811 119.575175 
L 372.12611 119.468218 
L 372.155498 119.571804 
L 372.12611 119.467875 
L 372.015123 119.047405 
L 371.991675 118.939568 
L 372.007307 119.004124 
L 371.991675 118.938879 
L 371.880688 118.523421 
L 371.846298 118.417236 
L 371.846298 118.416891 
L 371.735936 118.014335 
L 371.73531 118.014451 
L 371.734998 118.008275 
L 371.700607 117.907933 
L 371.589933 117.532469 
L 371.58962 117.532527 
L 371.562421 117.439198 
L 371.55992 117.42506 
L 371.448932 116.993295 
L 371.418919 116.894547 
L 371.447995 116.986148 
L 371.417981 116.886349 
L 371.307307 116.459205 
L 371.306994 116.459262 
L 371.272916 116.355629 
L 371.272604 116.352887 
L 371.162242 116.047185 
L 371.161616 116.047298 
L 371.128789 115.941016 
L 371.128789 115.940665 
L 371.017802 115.603188 
L 370.984662 115.52124 
L 371.01749 115.600432 
L 370.980598 115.496996 
L 370.869611 115.177445 
L 370.828968 115.071881 
L 370.718293 114.718377 
L 370.717981 114.718433 
L 370.681089 114.618201 
L 370.680464 114.612299 
L 370.569477 114.298783 
L 370.530084 114.198675 
L 370.568851 114.294995 
L 370.529459 114.193111 
L 370.418784 113.879256 
L 370.418472 113.879312 
L 370.378766 113.773957 
L 370.378766 113.773601 
L 370.267779 113.474841 
L 370.227449 113.369269 
L 370.116774 113.02487 
L 370.116462 113.024924 
L 370.078007 112.922599 
L 370.078007 112.919024 
L 369.96702 112.628713 
L 369.925126 112.530615 
L 369.966395 112.622015 
L 369.924501 112.523554 
L 369.814139 112.226861 
L 369.813514 112.226968 
L 369.769431 112.125702 
L 369.769119 112.122162 
L 369.658132 111.852023 
L 369.6153 111.746637 
L 369.504313 111.487967 
L 369.466796 111.382454 
L 369.466796 111.381732 
L 369.355809 111.100244 
L 369.312039 110.996928 
L 369.355184 111.094924 
L 369.312039 110.995118 
L 369.201052 110.720397 
L 369.164786 110.614779 
L 369.20074 110.718274 
L 369.164786 110.614053 
L 369.053799 110.325065 
L 369.010029 110.222938 
L 369.010029 110.220027 
L 368.899042 109.913026 
L 368.855898 109.807912 
L 368.744911 109.514568 
L 368.701454 109.409911 
L 368.701454 109.409179 
L 368.590779 109.124777 
L 368.548573 109.019594 
L 368.548573 109.019227 
L 368.437899 108.719641 
L 368.437586 108.719693 
L 368.391003 108.615265 
L 368.391003 108.614898 
L 368.280328 108.349367 
L 368.280015 108.349418 
L 368.239372 108.249237 
L 368.239372 108.243711 
L 368.128698 107.911693 
L 368.128385 107.911743 
L 368.086491 107.806628 
L 368.086491 107.806259 
L 367.976442 107.491206 
L 367.975504 107.491357 
L 367.935174 107.388615 
L 367.934861 107.385702 
L 367.823874 107.070551 
L 367.777603 106.972145 
L 367.776978 106.965559 
L 367.665991 106.651642 
L 367.620971 106.546378 
L 367.509984 106.202736 
L 367.473405 106.097642 
L 367.509671 106.1998 
L 367.473405 106.096149 
L 367.36273 105.798107 
L 367.362418 105.798156 
L 367.320524 105.693579 
L 367.320524 105.692456 
L 367.209537 105.415303 
L 367.170769 105.315182 
L 367.170144 105.309274 
L 367.05947 105.014707 
L 367.059157 105.014755 
L 367.058844 105.011796 
L 367.013824 104.909702 
L 366.911591 104.641577 
L 366.800604 104.3414 
L 366.749331 104.237461 
L 366.638344 103.942033 
L 366.59645 103.838222 
L 366.59645 103.836328 
L 366.485463 103.508493 
L 366.44482 103.40377 
L 366.44482 103.402631 
L 366.333833 103.100009 
L 366.292252 103.002719 
L 366.291001 102.994148 
L 366.180014 102.681435 
L 366.137495 102.575952 
L 366.137495 102.57557 
L 366.026508 102.263027 
L 365.993993 102.156871 
L 365.993993 102.155722 
L 365.883006 101.872125 
L 365.838924 101.778116 
L 365.837673 101.766788 
L 365.726686 101.426584 
L 365.678852 101.32741 
L 365.67854 101.321684 
L 365.568178 100.977193 
L 365.567553 100.977284 
L 365.532537 100.870497 
L 365.56724 100.973859 
L 365.532537 100.870111 
L 365.42155 100.576404 
L 365.382782 100.473324 
L 365.382782 100.469843 
L 365.272108 100.192253 
L 365.271795 100.192298 
L 365.230214 100.086218 
L 365.119852 99.779014 
L 365.119227 99.779103 
L 365.079209 99.674412 
L 365.079209 99.672857 
L 364.968222 99.348432 
L 364.934457 99.24915 
L 364.966972 99.338869 
L 364.933519 99.241486 
L 364.822532 98.928147 
L 364.744997 98.676322 
L 364.63401 98.422817 
L 364.59368 98.317101 
L 364.59368 98.316317 
L 364.482692 98.019673 
L 364.448615 97.917099 
L 364.448302 97.912425 
L 364.337315 97.63851 
L 364.225703 97.346351 
L 364.114715 97.070452 
L 364.078762 96.964245 
L 364.078762 96.963454 
L 363.967775 96.680014 
L 363.92463 96.574464 
L 363.92463 96.574068 
L 363.813643 96.310033 
L 363.776439 96.204183 
L 363.776439 96.202991 
L 363.665765 95.926614 
L 363.665452 95.926656 
L 363.619807 95.820821 
L 363.508819 95.527312 
L 363.4663 95.421938 
L 363.4663 95.42114 
L 363.355313 95.07074 
L 363.312794 94.967809 
L 363.312794 94.964606 
L 363.201807 94.691278 
L 363.169293 94.586354 
L 363.169293 94.583545 
L 363.058306 94.282086 
L 363.024853 94.17456 
L 362.914491 93.897097 
L 362.913866 93.897177 
L 362.877287 93.795391 
L 362.877287 93.790149 
L 362.7663 93.452158 
L 362.726907 93.345544 
L 362.765987 93.449369 
L 362.726907 93.345139 
L 362.61592 93.024297 
L 362.5709 92.918045 
L 362.459913 92.621784 
L 362.422084 92.518382 
L 362.4596 92.616137 
L 362.421771 92.514763 
L 362.310784 92.23756 
L 362.269828 92.130982 
L 362.165406 91.835845 
L 362.054419 91.56212 
L 362.008774 91.455975 
L 361.898412 91.159653 
L 361.897787 91.159728 
L 361.854955 91.053328 
L 361.743968 90.754543 
L 361.7052 90.649803 
L 361.7052 90.647336 
L 361.594213 90.367832 
L 361.542003 90.262302 
L 361.431015 90.012104 
L 361.390372 89.906163 
L 361.390372 89.905337 
L 361.279385 89.611403 
L 361.243119 89.507125 
L 361.242806 89.503848 
L 361.131819 89.262544 
L 361.131506 89.257603 
L 361.089925 89.155729 
L 360.978938 88.877589 
L 360.925477 88.772601 
L 360.925477 88.772185 
L 360.81449 88.468633 
L 360.775097 88.362144 
L 360.775097 88.36131 
L 360.66411 88.06185 
L 360.611899 87.95646 
L 360.611899 87.956041 
L 360.501537 87.67361 
L 360.500912 87.673679 
L 360.462145 87.566905 
L 360.462145 87.566486 
L 360.351783 87.306317 
L 360.351158 87.306385 
L 360.307388 87.19986 
L 360.307388 87.19944 
L 360.196401 86.90451 
L 360.150755 86.799125 
L 360.150755 86.797862 
L 360.040081 86.504542 
L 360.039768 86.504575 
L 360.002252 86.397157 
L 359.891264 86.153741 
L 359.836865 86.048242 
L 359.836865 86.047819 
L 359.725878 85.781257 
L 359.678982 85.674654 
L 359.567995 85.421765 
L 359.531729 85.315888 
L 359.531729 85.314188 
L 359.420741 85.066551 
L 359.381662 84.959404 
L 359.381662 84.958978 
L 359.270987 84.734937 
L 359.270674 84.734969 
L 359.231282 84.627582 
L 359.120295 84.406391 
L 359.073086 84.299945 
L 359.073086 84.299517 
L 358.962099 84.06059 
L 358.901134 83.955219 
L 358.790147 83.706603 
L 358.731371 83.601129 
L 358.620696 83.393521 
L 358.620384 83.393552 
L 358.56786 83.288906 
L 358.56786 83.287183 
L 358.457498 82.996612 
L 358.456873 82.996672 
L 358.398722 82.892236 
L 358.398722 82.890941 
L 358.287735 82.629392 
L 358.229584 82.523338 
L 358.118909 82.272704 
L 358.118597 82.272733 
L 358.066386 82.167104 
L 358.066386 82.166237 
L 357.955399 81.933166 
L 357.90225 81.8282 
L 357.90225 81.826896 
L 357.791263 81.588393 
L 357.737801 81.485337 
L 357.737801 81.481852 
L 357.626814 81.226542 
L 357.580231 81.119497 
L 357.469244 80.896696 
L 357.424849 80.78961 
L 357.424849 80.789173 
L 357.314175 80.527619 
L 357.313862 80.527647 
L 357.266966 80.420919 
L 357.266966 80.42048 
L 357.156604 80.155077 
L 357.155979 80.155132 
L 357.123152 80.046857 
L 357.012164 79.774593 
L 356.966832 79.66755 
L 356.966832 79.66711 
L 356.855845 79.364929 
L 356.817703 79.257821 
L 356.817703 79.256938 
L 356.706715 78.965354 
L 356.656068 78.858546 
L 356.545081 78.581169 
L 356.510065 78.474956 
L 356.510065 78.472737 
L 356.39939 78.213204 
L 356.399078 78.213229 
L 356.345616 78.106467 
L 356.234942 77.890292 
L 356.234629 77.890317 
L 356.173352 77.783903 
L 356.06299 77.617104 
L 356.062365 77.617155 
L 356.008591 77.510769 
L 356.008591 77.510323 
L 355.897604 77.337342 
L 355.840703 77.231397 
L 355.840703 77.230502 
L 355.730341 77.034183 
L 355.729716 77.034232 
L 355.659372 76.929517 
L 355.659372 76.92862 
L 355.549323 76.714693 
L 355.548385 76.714766 
L 355.480855 76.608629 
L 355.369868 76.449527 
L 355.293584 76.34515 
L 355.293584 76.344249 
L 355.182909 76.156771 
L 355.182596 76.156795 
L 355.106938 76.05298 
L 355.106938 76.051176 
L 354.99595 75.877225 
L 354.93311 75.770811 
L 354.824624 75.585819 
L 354.822123 75.586005 
L 354.744901 75.481288 
L 354.744901 75.480382 
L 354.634226 75.334509 
L 354.633914 75.334532 
L 354.52449 75.231464 
L 354.413502 75.123384 
L 354.310644 75.020027 
L 354.310644 75.019573 
L 353.545927 74.152499 
L 353.450259 74.047948 
L 353.339585 73.927814 
L 353.339272 73.927836 
L 353.257048 73.822549 
L 353.146061 73.702597 
L 353.0382 73.600196 
L 353.0382 73.598817 
L 352.927213 73.484998 
L 352.815288 73.382144 
L 352.815288 73.381684 
L 352.705864 73.27392 
L 352.704301 73.274025 
L 352.572054 73.17227 
L 352.572054 73.171809 
L 352.461692 73.061517 
L 352.461067 73.061558 
L 352.379781 72.956118 
L 352.379781 72.955656 
L 352.268793 72.841432 
L 352.16531 72.738135 
L 352.16531 72.73721 
L 352.054948 72.624043 
L 352.054323 72.624084 
L 351.952089 72.519514 
L 351.841728 72.412094 
L 351.841102 72.412134 
L 351.726989 72.308535 
L 351.616002 72.195764 
L 351.500325 72.091987 
L 351.390276 72.013802 
L 351.389338 72.013862 
L 351.259592 71.912128 
L 351.259592 71.911195 
L 351.148918 71.813247 
L 351.148605 71.813266 
L 351.030427 71.709594 
L 350.91944 71.585699 
L 350.808766 71.481737 
L 350.699029 71.365874 
L 350.697778 71.365951 
L 350.597108 71.261097 
L 350.486121 71.151584 
L 350.354813 71.048799 
L 350.354813 71.048329 
L 350.244763 70.962443 
L 350.243825 70.9625 
L 350.106577 70.860742 
L 350.106577 70.859801 
L 349.996527 70.784988 
L 349.995589 70.785044 
L 349.868345 70.681484 
L 349.757671 70.584342 
L 349.757358 70.584361 
L 349.616045 70.481825 
L 349.505058 70.392948 
L 349.364682 70.290074 
L 349.254633 70.193805 
L 349.253695 70.19386 
L 349.10144 70.091856 
L 348.991078 70.01811 
L 348.990453 70.018146 
L 348.843512 69.91556 
L 348.733463 69.852522 
L 348.732525 69.852575 
L 348.590274 69.74946 
L 348.481162 69.670968 
L 348.479286 69.671074 
L 348.35892 69.566929 
L 348.247933 69.474513 
L 348.103493 69.371437 
L 347.993132 69.291154 
L 347.992506 69.291189 
L 347.814302 69.190169 
L 347.703627 69.124032 
L 347.703314 69.12405 
L 347.522609 69.022873 
L 347.413497 68.96413 
L 347.411622 68.964232 
L 347.181206 68.865934 
L 347.070219 68.793186 
L 346.885449 68.692099 
L 346.776963 68.638257 
L 346.774462 68.63839 
L 346.571246 68.537995 
L 346.461822 68.483076 
L 346.460259 68.483159 
L 346.214211 68.385196 
L 346.10635 68.322295 
L 346.103224 68.322459 
L 345.865618 68.223709 
L 345.755569 68.16073 
L 345.754631 68.160779 
L 345.545162 68.060719 
L 345.434487 68.013102 
L 345.434175 68.013118 
L 345.169682 67.915575 
L 345.059632 67.846389 
L 345.058694 67.846436 
L 344.83547 67.746915 
L 344.725108 67.696526 
L 344.724483 67.696558 
L 344.433415 67.600129 
L 344.324616 67.557787 
L 344.322428 67.557897 
L 344.090136 67.458673 
L 343.980087 67.4143 
L 343.979149 67.414347 
L 343.646188 67.31978 
L 343.535201 67.291953 
L 343.186607 67.198284 
L 343.07562 67.177219 
L 342.714834 67.084278 
L 342.714834 67.083786 
L 342.604159 67.048337 
L 342.603847 67.048352 
L 342.265258 66.954439 
L 342.265258 66.953946 
L 342.157084 66.922188 
L 342.154271 66.922324 
L 341.996388 66.883553 
L 341.626535 66.790645 
L 341.626535 66.79015 
L 341.517423 66.76223 
L 341.515548 66.76232 
L 341.122559 66.670126 
L 341.01251 66.646597 
L 341.011572 66.646642 
L 340.623899 66.5543 
L 340.514162 66.533636 
L 340.512912 66.533695 
L 339.928275 66.450223 
L 339.819789 66.419418 
L 339.817288 66.419536 
L 339.312375 66.332324 
L 339.202638 66.303442 
L 339.201388 66.303501 
L 338.769007 66.212453 
L 338.65927 66.183948 
L 338.65802 66.184006 
L 338.189373 66.094699 
L 338.079949 66.069572 
L 338.078386 66.069644 
L 337.631311 65.979911 
L 337.631311 65.979407 
L 337.524701 65.952525 
L 337.520324 65.952725 
L 337.11014 65.86088 
L 337.11014 65.860375 
L 337.000091 65.832521 
L 336.999153 65.832564 
L 336.543637 65.742342 
L 336.43265 65.719474 
L 335.923047 65.631236 
L 335.775794 65.606319 
L 335.255561 65.518575 
L 335.145824 65.506127 
L 335.144574 65.506183 
L 334.68937 65.41562 
L 334.578696 65.39547 
L 334.578383 65.395484 
L 334.105984 65.30524 
L 333.996873 65.286457 
L 333.994997 65.286539 
L 333.431308 65.201374 
L 333.431308 65.200346 
L 333.321259 65.18253 
L 333.320321 65.182571 
L 332.55873 65.104994 
L 332.454934 65.092475 
L 332.447743 65.092787 
L 331.592673 65.019213 
L 331.455112 65.008069 
L 330.695709 64.929774 
L 330.589099 64.913562 
L 330.584722 64.913751 
L 329.771859 64.837692 
L 329.662435 64.826721 
L 329.660872 64.826788 
L 328.958057 64.745967 
L 328.847383 64.732874 
L 328.84707 64.732887 
L 327.990125 64.658594 
L 327.880388 64.645368 
L 327.879138 64.645421 
L 327.053768 64.569708 
L 326.945595 64.551565 
L 326.942781 64.551684 
L 326.165246 64.473864 
L 326.057385 64.461432 
L 326.054259 64.461564 
L 325.276099 64.383184 
L 325.165424 64.372914 
L 325.165111 64.372927 
L 324.40696 64.29366 
L 324.296598 64.285437 
L 324.295973 64.285463 
L 323.411202 64.211429 
L 323.31147 64.195708 
L 323.300215 64.196176 
L 322.342912 64.125044 
L 322.240054 64.114201 
L 322.231925 64.114538 
L 321.396239 64.038273 
L 321.259615 64.02549 
L 320.436122 63.948633 
L 320.325135 63.941224 
L 319.502892 63.864258 
L 319.393468 63.855622 
L 319.488823 63.864288 
L 319.391905 63.855686 
L 319.254031 63.840003 
L 318.322677 63.767319 
L 318.187929 63.75633 
L 317.178728 63.686694 
L 317.046794 63.680461 
L 316.197039 63.604253 
L 316.064792 63.59685 
L 315.073099 63.526291 
L 314.989624 63.517398 
L 314.962112 63.51795 
L 314.174885 63.439056 
L 314.067649 63.43105 
L 314.063898 63.4312 
L 313.084084 63.359397 
L 312.973097 63.347528 
L 311.820082 63.282501 
L 311.710345 63.273307 
L 311.709095 63.273357 
L 310.743038 63.200724 
L 310.635489 63.187949 
L 310.63205 63.188086 
L 309.486538 63.12243 
L 309.354604 63.113944 
L 308.339775 63.043524 
L 308.26099 63.038595 
L 308.228788 63.039294 
L 307.190199 62.969699 
L 307.085465 62.964588 
L 307.079212 62.964835 
L 306.069385 62.893988 
L 305.938389 62.886363 
L 304.983587 62.813809 
L 304.983587 62.813226 
L 304.873538 62.804113 
L 304.8726 62.80415 
L 303.734904 62.738031 
L 303.600469 62.723323 
L 302.477154 62.656441 
L 302.304264 62.649593 
L 301.255983 62.579621 
L 301.149373 62.566538 
L 301.145308 62.566696 
L 300.23709 62.491138 
L 300.128291 62.484003 
L 300.126103 62.484087 
L 299.043744 62.415127 
L 298.873355 62.409085 
L 297.806003 62.33938 
L 297.675319 62.32991 
L 296.416006 62.267383 
L 296.287511 62.260763 
L 295.122303 62.194442 
L 294.992245 62.185352 
L 294.81998 62.175416 
L 293.595683 62.111042 
L 293.49001 62.105218 
L 293.484695 62.105421 
L 292.252895 62.041765 
L 292.144096 62.03041 
L 292.141908 62.030493 
L 290.899164 61.967035 
L 290.772545 61.963109 
L 289.7202 61.892256 
L 289.612026 61.88631 
L 289.609213 61.886417 
L 288.413053 61.820836 
L 288.242351 61.809594 
L 286.966156 61.746789 
L 286.85892 61.740653 
L 286.855169 61.740794 
L 285.610862 61.676584 
L 285.481742 61.665429 
L 284.43096 61.59437 
L 284.325287 61.583509 
L 284.319972 61.583708 
L 283.459275 61.504742 
L 283.33078 61.49463 
L 282.234665 61.42425 
L 282.106795 61.415305 
L 281.115102 61.34087 
L 280.987857 61.333109 
L 280.038058 61.25697 
L 279.945516 61.247183 
L 279.927383 61.247848 
L 278.921621 61.173592 
L 278.84565 61.167747 
L 278.810634 61.16836 
L 277.814251 61.093605 
L 277.649802 61.08357 
L 276.631534 61.010072 
L 276.631534 61.009401 
L 276.527738 60.999732 
L 276.52086 60.99998 
L 275.585442 60.922648 
L 275.459448 60.9157 
L 274.526531 60.838125 
L 274.397723 60.825078 
L 273.447923 60.747914 
L 273.355382 60.740957 
L 273.336936 60.741609 
L 272.200491 60.670862 
L 272.072308 60.656834 
L 271.221615 60.575806 
L 271.111254 60.559638 
L 271.110628 60.559659 
L 270.008573 60.48719 
L 269.898211 60.475036 
L 269.983562 60.487364 
L 269.897899 60.475047 
L 268.954352 60.396852 
L 268.825544 60.381016 
L 267.942962 60.300518 
L 267.833225 60.288096 
L 267.832287 60.288128 
L 266.843408 60.211066 
L 266.718352 60.201867 
L 265.58597 60.12943 
L 265.500307 60.120923 
L 265.474983 60.121064 
L 264.270695 60.050775 
L 264.146264 60.042754 
L 263.020136 59.969561 
L 262.860689 59.957538 
L 261.704547 59.885027 
L 261.431613 59.862034 
L 260.267342 59.790077 
L 260.141661 59.778805 
L 259.102446 59.702448 
L 258.95363 59.700662 
L 257.921606 59.623854 
L 257.82031 59.615244 
L 257.810619 59.615558 
L 256.765464 59.538931 
L 256.657916 59.532664 
L 256.654477 59.532774 
L 255.535539 59.458267 
L 255.410483 59.444926 
L 254.392528 59.366886 
L 254.239647 59.358069 
L 252.954072 59.288185 
L 252.844023 59.275582 
L 252.843085 59.275611 
L 251.832946 59.196712 
L 251.70914 59.186708 
L 250.437947 59.115627 
L 250.285066 59.10483 
L 249.115168 59.030212 
L 248.9626 59.019245 
L 247.795203 58.944168 
L 247.64326 58.933019 
L 246.655005 58.852132 
L 246.534014 58.84784 
L 245.627671 58.764259 
L 245.503866 58.752761 
L 244.579077 58.669484 
L 244.427134 58.656254 
L 243.665856 58.567931 
L 243.572377 58.559315 
L 243.554869 58.559824 
L 242.6454 58.475643 
L 242.535351 58.460874 
L 242.534725 58.460892 
L 241.533653 58.379043 
L 241.411411 58.370199 
L 240.582603 58.283221 
L 240.476305 58.27711 
L 240.471615 58.277242 
L 239.563397 58.192291 
L 239.44178 58.184842 
L 238.649238 58.095667 
L 238.541377 58.08271 
L 238.538251 58.082794 
L 237.583449 57.997776 
L 237.478402 57.983746 
L 237.472775 57.983896 
L 236.437624 57.900669 
L 236.324136 57.893483 
L 235.314622 57.809236 
L 235.167369 57.79768 
L 234.18693 57.712302 
L 234.065626 57.704213 
L 232.979203 57.621172 
L 232.873843 57.609075 
L 232.868216 57.609217 
L 232.721588 57.596402 
L 231.687688 57.511445 
L 231.565758 57.498703 
L 230.409929 57.416287 
L 230.264864 57.404807 
L 229.412921 57.314585 
L 229.292554 57.305901 
L 228.326497 57.218093 
L 228.177055 57.199194 
L 227.362629 57.107463 
L 227.240074 57.093129 
L 226.407202 57.001544 
L 226.213052 56.970449 
L 225.009389 56.886491 
L 224.887772 56.874471 
L 223.620018 56.791256 
L 223.532166 56.783877 
L 223.509031 56.78437 
L 222.130289 56.70284 
L 222.011799 56.69878 
L 220.704026 56.616009 
L 220.61805 56.607389 
L 220.593352 56.607897 
L 219.560077 56.518888 
L 219.439398 56.507023 
L 218.217289 56.421205 
L 218.095985 56.406269 
L 217.024256 56.316843 
L 216.918584 56.308184 
L 216.913269 56.308286 
L 216.041004 56.214618 
L 215.919074 56.197318 
L 214.736358 56.108797 
L 214.630373 56.097864 
L 214.625996 56.097942 
L 213.38294 56.010761 
L 213.38294 56.009764 
L 213.279144 55.99761 
L 213.272266 55.997729 
L 212.251184 55.905018 
L 212.143323 55.896772 
L 212.140197 55.896824 
L 211.075346 55.804278 
L 210.955917 55.79302 
L 209.857301 55.700362 
L 209.719114 55.687148 
L 208.475746 55.595934 
L 208.36851 55.587187 
L 208.364759 55.587243 
L 207.06449 55.495994 
L 206.928492 55.484341 
L 205.787982 55.389897 
L 205.690125 55.381725 
L 205.676994 55.381905 
L 204.411741 55.28939 
L 204.304506 55.281176 
L 204.301067 55.281221 
L 202.400529 55.195747 
L 202.326746 55.190161 
L 202.289542 55.190629 
L 200.614731 55.100778 
L 200.54126 55.097256 
L 200.504369 55.0977 
L 199.049343 55.004999 
L 198.930228 54.991846 
L 197.713746 54.89525 
L 197.583688 54.889865 
L 196.532906 54.790643 
L 196.452245 54.786883 
L 196.421918 54.787184 
L 194.690207 54.69352 
L 194.572654 54.684186 
L 193.378057 54.584123 
L 193.28239 54.573218 
L 193.26707 54.573347 
L 192.133126 54.472913 
L 192.015573 54.461963 
L 190.415795 54.363683 
L 190.328569 54.35586 
L 190.304808 54.356021 
L 188.696276 54.256026 
L 188.616241 54.243073 
L 188.585289 54.243254 
L 186.515301 54.144913 
L 186.404939 54.140495 
L 186.404314 54.140498 
L 183.719363 54.043425 
L 183.603687 54.037535 
L 179.655671 53.943653 
L 179.605962 53.941176 
L 179.544684 53.941392 
L 171.643651 53.859588 
L 171.508591 53.855679 
L 164.588934 53.766192 
L 164.474821 53.761792 
L 153.29107 53.675902 
L 153.062843 53.674439 
L 122.129949 53.605838 
L 121.946429 53.603061 
L 74.613389 53.748014 
L 74.191638 53.959362 
L 74.027815 54.287481 
L 73.967162 54.61133 
L 73.852736 53.568 
L 73.832727 53.568 
L 73.832727 53.568 
" clip-path="url(#pf1df12121d)" style="fill: none; stroke: #1f77b4; stroke-width: 1.5; stroke-linecap: square"/>
   </g>
   <g id="patch_3">
    <path d="M 57.6 307.584 
L 57.6 41.472 
" style="fill: none; stroke: #000000; stroke-width: 0.8; stroke-linejoin: miter; stroke-linecap: square"/>
   </g>
   <g id="patch_4">
    <path d="M 414.72 307.584 
L 414.72 41.472 
" style="fill: none; stroke: #000000; stroke-width: 0.8; stroke-linejoin: miter; stroke-linecap: square"/>
   </g>
   <g id="patch_5">
    <path d="M 57.6 307.584 
L 414.72 307.584 
" style="fill: none; stroke: #000000; stroke-width: 0.8; stroke-linejoin: miter; stroke-linecap: square"/>
   </g>
   <g id="patch_6">
    <path d="M 57.6 41.472 
L 414.72 41.472 
" style="fill: none; stroke: #000000; stroke-width: 0.8; stroke-linejoin: miter; stroke-linecap: square"/>
   </g>
   <g id="text_13">
    <!-- Precision Recall -->
    <g transform="translate(189.584063 35.472) scale(0.12 -0.12)">
     <defs>
      <path id="DejaVuSans-50" d="M 1259 4147 
L 1259 2394 
L 2053 2394 
Q 2494 2394 2734 2622 
Q 2975 2850 2975 3272 
Q 2975 3691 2734 3919 
Q 2494 4147 2053 4147 
L 1259 4147 
z
M 628 4666 
L 2053 4666 
Q 2838 4666 3239 4311 
Q 3641 3956 3641 3272 
Q 3641 2581 3239 2228 
Q 2838 1875 2053 1875 
L 1259 1875 
L 1259 0 
L 628 0 
L 628 4666 
z
" transform="scale(0.015625)"/>
      <path id="DejaVuSans-72" d="M 2631 2963 
Q 2534 3019 2420 3045 
Q 2306 3072 2169 3072 
Q 1681 3072 1420 2755 
Q 1159 2438 1159 1844 
L 1159 0 
L 581 0 
L 581 3500 
L 1159 3500 
L 1159 2956 
Q 1341 3275 1631 3429 
Q 1922 3584 2338 3584 
Q 2397 3584 2469 3576 
Q 2541 3569 2628 3553 
L 2631 2963 
z
" transform="scale(0.015625)"/>
      <path id="DejaVuSans-65" d="M 3597 1894 
L 3597 1613 
L 953 1613 
Q 991 1019 1311 708 
Q 1631 397 2203 397 
Q 2534 397 2845 478 
Q 3156 559 3463 722 
L 3463 178 
Q 3153 47 2828 -22 
Q 2503 -91 2169 -91 
Q 1331 -91 842 396 
Q 353 884 353 1716 
Q 353 2575 817 3079 
Q 1281 3584 2069 3584 
Q 2775 3584 3186 3129 
Q 3597 2675 3597 1894 
z
M 3022 2063 
Q 3016 2534 2758 2815 
Q 2500 3097 2075 3097 
Q 1594 3097 1305 2825 
Q 1016 2553 972 2059 
L 3022 2063 
z
" transform="scale(0.015625)"/>
      <path id="DejaVuSans-63" d="M 3122 3366 
L 3122 2828 
Q 2878 2963 2633 3030 
Q 2388 3097 2138 3097 
Q 1578 3097 1268 2742 
Q 959 2388 959 1747 
Q 959 1106 1268 751 
Q 1578 397 2138 397 
Q 2388 397 2633 464 
Q 2878 531 3122 666 
L 3122 134 
Q 2881 22 2623 -34 
Q 2366 -91 2075 -91 
Q 1284 -91 818 406 
Q 353 903 353 1747 
Q 353 2603 823 3093 
Q 1294 3584 2113 3584 
Q 2378 3584 2631 3529 
Q 2884 3475 3122 3366 
z
" transform="scale(0.015625)"/>
      <path id="DejaVuSans-69" d="M 603 3500 
L 1178 3500 
L 1178 0 
L 603 0 
L 603 3500 
z
M 603 4863 
L 1178 4863 
L 1178 4134 
L 603 4134 
L 603 4863 
z
" transform="scale(0.015625)"/>
      <path id="DejaVuSans-73" d="M 2834 3397 
L 2834 2853 
Q 2591 2978 2328 3040 
Q 2066 3103 1784 3103 
Q 1356 3103 1142 2972 
Q 928 2841 928 2578 
Q 928 2378 1081 2264 
Q 1234 2150 1697 2047 
L 1894 2003 
Q 2506 1872 2764 1633 
Q 3022 1394 3022 966 
Q 3022 478 2636 193 
Q 2250 -91 1575 -91 
Q 1294 -91 989 -36 
Q 684 19 347 128 
L 347 722 
Q 666 556 975 473 
Q 1284 391 1588 391 
Q 1994 391 2212 530 
Q 2431 669 2431 922 
Q 2431 1156 2273 1281 
Q 2116 1406 1581 1522 
L 1381 1569 
Q 847 1681 609 1914 
Q 372 2147 372 2553 
Q 372 3047 722 3315 
Q 1072 3584 1716 3584 
Q 2034 3584 2315 3537 
Q 2597 3491 2834 3397 
z
" transform="scale(0.015625)"/>
      <path id="DejaVuSans-6f" d="M 1959 3097 
Q 1497 3097 1228 2736 
Q 959 2375 959 1747 
Q 959 1119 1226 758 
Q 1494 397 1959 397 
Q 2419 397 2687 759 
Q 2956 1122 2956 1747 
Q 2956 2369 2687 2733 
Q 2419 3097 1959 3097 
z
M 1959 3584 
Q 2709 3584 3137 3096 
Q 3566 2609 3566 1747 
Q 3566 888 3137 398 
Q 2709 -91 1959 -91 
Q 1206 -91 779 398 
Q 353 888 353 1747 
Q 353 2609 779 3096 
Q 1206 3584 1959 3584 
z
" transform="scale(0.015625)"/>
      <path id="DejaVuSans-6e" d="M 3513 2113 
L 3513 0 
L 2938 0 
L 2938 2094 
Q 2938 2591 2744 2837 
Q 2550 3084 2163 3084 
Q 1697 3084 1428 2787 
Q 1159 2491 1159 1978 
L 1159 0 
L 581 0 
L 581 3500 
L 1159 3500 
L 1159 2956 
Q 1366 3272 1645 3428 
Q 1925 3584 2291 3584 
Q 2894 3584 3203 3211 
Q 3513 2838 3513 2113 
z
" transform="scale(0.015625)"/>
      <path id="DejaVuSans-20" transform="scale(0.015625)"/>
      <path id="DejaVuSans-52" d="M 2841 2188 
Q 3044 2119 3236 1894 
Q 3428 1669 3622 1275 
L 4263 0 
L 3584 0 
L 2988 1197 
Q 2756 1666 2539 1819 
Q 2322 1972 1947 1972 
L 1259 1972 
L 1259 0 
L 628 0 
L 628 4666 
L 2053 4666 
Q 2853 4666 3247 4331 
Q 3641 3997 3641 3322 
Q 3641 2881 3436 2590 
Q 3231 2300 2841 2188 
z
M 1259 4147 
L 1259 2491 
L 2053 2491 
Q 2509 2491 2742 2702 
Q 2975 2913 2975 3322 
Q 2975 3731 2742 3939 
Q 2509 4147 2053 4147 
L 1259 4147 
z
" transform="scale(0.015625)"/>
      <path id="DejaVuSans-61" d="M 2194 1759 
Q 1497 1759 1228 1600 
Q 959 1441 959 1056 
Q 959 750 1161 570 
Q 1363 391 1709 391 
Q 2188 391 2477 730 
Q 2766 1069 2766 1631 
L 2766 1759 
L 2194 1759 
z
M 3341 1997 
L 3341 0 
L 2766 0 
L 2766 531 
Q 2569 213 2275 61 
Q 1981 -91 1556 -91 
Q 1019 -91 701 211 
Q 384 513 384 1019 
Q 384 1609 779 1909 
Q 1175 2209 1959 2209 
L 2766 2209 
L 2766 2266 
Q 2766 2663 2505 2880 
Q 2244 3097 1772 3097 
Q 1472 3097 1187 3025 
Q 903 2953 641 2809 
L 641 3341 
Q 956 3463 1253 3523 
Q 1550 3584 1831 3584 
Q 2591 3584 2966 3190 
Q 3341 2797 3341 1997 
z
" transform="scale(0.015625)"/>
      <path id="DejaVuSans-6c" d="M 603 4863 
L 1178 4863 
L 1178 0 
L 603 0 
L 603 4863 
z
" transform="scale(0.015625)"/>
     </defs>
     <use xlink:href="#DejaVuSans-50"/>
     <use xlink:href="#DejaVuSans-72" transform="translate(58.552734 0)"/>
     <use xlink:href="#DejaVuSans-65" transform="translate(97.416016 0)"/>
     <use xlink:href="#DejaVuSans-63" transform="translate(158.939453 0)"/>
     <use xlink:href="#DejaVuSans-69" transform="translate(213.919922 0)"/>
     <use xlink:href="#DejaVuSans-73" transform="translate(241.703125 0)"/>
     <use xlink:href="#DejaVuSans-69" transform="translate(293.802734 0)"/>
     <use xlink:href="#DejaVuSans-6f" transform="translate(321.585938 0)"/>
     <use xlink:href="#DejaVuSans-6e" transform="translate(382.767578 0)"/>
     <use xlink:href="#DejaVuSans-20" transform="translate(446.146484 0)"/>
     <use xlink:href="#DejaVuSans-52" transform="translate(477.933594 0)"/>
     <use xlink:href="#DejaVuSans-65" transform="translate(542.916016 0)"/>
     <use xlink:href="#DejaVuSans-63" transform="translate(604.439453 0)"/>
     <use xlink:href="#DejaVuSans-61" transform="translate(659.419922 0)"/>
     <use xlink:href="#DejaVuSans-6c" transform="translate(720.699219 0)"/>
     <use xlink:href="#DejaVuSans-6c" transform="translate(748.482422 0)"/>
    </g>
   </g>
  </g>
 </g>
 <defs>
  <clipPath id="pf1df12121d">
   <rect x="57.6" y="41.472" width="357.12" height="266.112"/>
  </clipPath>
 </defs>
</svg>
