<?xml version="1.0" encoding="utf-8" standalone="no"?>
<!DOCTYPE svg PUBLIC "-//W3C//DTD SVG 1.1//EN"
  "http://www.w3.org/Graphics/SVG/1.1/DTD/svg11.dtd">
<svg xmlns:xlink="http://www.w3.org/1999/xlink" width="460.8pt" height="345.6pt" viewBox="0 0 460.8 345.6" xmlns="http://www.w3.org/2000/svg" version="1.1">
 <metadata>
  <rdf:RDF xmlns:dc="http://purl.org/dc/elements/1.1/" xmlns:cc="http://creativecommons.org/ns#" xmlns:rdf="http://www.w3.org/1999/02/22-rdf-syntax-ns#">
   <cc:Work>
    <dc:type rdf:resource="http://purl.org/dc/dcmitype/StillImage"/>
    <dc:date>2026-03-17T12:06:09.177978</dc:date>
    <dc:format>image/svg+xml</dc:format>
    <dc:creator>
     <cc:Agent>
      <dc:title>Matplotlib v3.10.8, https://matplotlib.org/</dc:title>
     </cc:Agent>
    </dc:creator>
   </cc:Work>
  </rdf:RDF>
 </metadata>
 <defs>
  <style type="text/css">*{stroke-linejoin: round; stroke-linecap: butt}</style>
 </defs>
 <g id="figure_1">
  <g id="patch_1">
   <path d="M 0 345.6 
L 460.8 345.6 
L 460.8 0 
L 0 0 
z
" style="fill: #ffffff"/>
  </g>
  <g id="axes_1">
   <g id="patch_2">
    <path d="M 57.6 307.584 
L 414.72 307.584 
L 414.72 41.472 
L 57.6 41.472 
z
" style="fill: #ffffff"/>
   </g>
   <g id="matplotlib.axis_1">
    <g id="xtick_1">
     <g id="line2d_1">
      <defs>
       <path id="m370bd0b957" d="M 0 0 
L 0 3.5 
" style="stroke: #000000; stroke-width: 0.8"/>
      </defs>
      <g>
       <use xlink:href="#m370bd0b957" x="73.832727" y="307.584" style="stroke: #000000; stroke-width: 0.8"/>
      </g>
     </g>
     <g id="text_1">
      <!-- 0.0 -->
      <g transform="translate(65.881165 322.182437) scale(0.1 -0.1)">
       <defs>
        <path id="DejaVuSans-30" d="M 2034 4250 
Q 1547 4250 1301 3770 
Q 1056 3291 1056 2328 
Q 1056 1369 1301 889 
Q 1547 409 2034 409 
Q 2525 409 2770 889 
Q 3016 1369 3016 2328 
Q 3016 3291 2770 3770 
Q 2525 4250 2034 4250 
z
M 2034 4750 
Q 2819 4750 3233 4129 
Q 3647 3509 3647 2328 
Q 3647 1150 3233 529 
Q 2819 -91 2034 -91 
Q 1250 -91 836 529 
Q 422 1150 422 2328 
Q 422 3509 836 4129 
Q 1250 4750 2034 4750 
z
" transform="scale(0.015625)"/>
        <path id="DejaVuSans-2e" d="M 684 794 
L 1344 794 
L 1344 0 
L 684 0 
L 684 794 
z
" transform="scale(0.015625)"/>
       </defs>
       <use xlink:href="#DejaVuSans-30"/>
       <use xlink:href="#DejaVuSans-2e" transform="translate(63.623047 0)"/>
       <use xlink:href="#DejaVuSans-30" transform="translate(95.410156 0)"/>
      </g>
     </g>
    </g>
    <g id="xtick_2">
     <g id="line2d_2">
      <g>
       <use xlink:href="#m370bd0b957" x="138.763636" y="307.584" style="stroke: #000000; stroke-width: 0.8"/>
      </g>
     </g>
     <g id="text_2">
      <!-- 0.2 -->
      <g transform="translate(130.812074 322.182437) scale(0.1 -0.1)">
       <defs>
        <path id="DejaVuSans-32" d="M 1228 531 
L 3431 531 
L 3431 0 
L 469 0 
L 469 531 
Q 828 903 1448 1529 
Q 2069 2156 2228 2338 
Q 2531 2678 2651 2914 
Q 2772 3150 2772 3378 
Q 2772 3750 2511 3984 
Q 2250 4219 1831 4219 
Q 1534 4219 1204 4116 
Q 875 4013 500 3803 
L 500 4441 
Q 881 4594 1212 4672 
Q 1544 4750 1819 4750 
Q 2544 4750 2975 4387 
Q 3406 4025 3406 3419 
Q 3406 3131 3298 2873 
Q 3191 2616 2906 2266 
Q 2828 2175 2409 1742 
Q 1991 1309 1228 531 
z
" transform="scale(0.015625)"/>
       </defs>
       <use xlink:href="#DejaVuSans-30"/>
       <use xlink:href="#DejaVuSans-2e" transform="translate(63.623047 0)"/>
       <use xlink:href="#DejaVuSans-32" transform="translate(95.410156 0)"/>
      </g>
     </g>
    </g>
    <g id="xtick_3">
     <g id="line2d_3">
      <g>
       <use xlink:href="#m370bd0b957" x="203.694545" y="307.584" style="stroke: #000000; stroke-width: 0.8"/>
      </g>
     </g>
     <g id="text_3">
      <!-- 0.4 -->
      <g transform="translate(195.742983 322.182437) scale(0.1 -0.1)">
       <defs>
        <path id="DejaVuSans-34" d="M 2419 4116 
L 825 1625 
L 2419 1625 
L 2419 4116 
z
M 2253 4666 
L 3047 4666 
L 3047 1625 
L 3713 1625 
L 3713 1100 
L 3047 1100 
L 3047 0 
L 2419 0 
L 2419 1100 
L 313 1100 
L 313 1709 
L 2253 4666 
z
" transform="scale(0.015625)"/>
       </defs>
       <use xlink:href="#DejaVuSans-30"/>
       <use xlink:href="#DejaVuSans-2e" transform="translate(63.623047 0)"/>
       <use xlink:href="#DejaVuSans-34" transform="translate(95.410156 0)"/>
      </g>
     </g>
    </g>
    <g id="xtick_4">
     <g id="line2d_4">
      <g>
       <use xlink:href="#m370bd0b957" x="268.625455" y="307.584" style="stroke: #000000; stroke-width: 0.8"/>
      </g>
     </g>
     <g id="text_4">
      <!-- 0.6 -->
      <g transform="translate(260.673892 322.182437) scale(0.1 -0.1)">
       <defs>
        <path id="DejaVuSans-36" d="M 2113 2584 
Q 1688 2584 1439 2293 
Q 1191 2003 1191 1497 
Q 1191 994 1439 701 
Q 1688 409 2113 409 
Q 2538 409 2786 701 
Q 3034 994 3034 1497 
Q 3034 2003 2786 2293 
Q 2538 2584 2113 2584 
z
M 3366 4563 
L 3366 3988 
Q 3128 4100 2886 4159 
Q 2644 4219 2406 4219 
Q 1781 4219 1451 3797 
Q 1122 3375 1075 2522 
Q 1259 2794 1537 2939 
Q 1816 3084 2150 3084 
Q 2853 3084 3261 2657 
Q 3669 2231 3669 1497 
Q 3669 778 3244 343 
Q 2819 -91 2113 -91 
Q 1303 -91 875 529 
Q 447 1150 447 2328 
Q 447 3434 972 4092 
Q 1497 4750 2381 4750 
Q 2619 4750 2861 4703 
Q 3103 4656 3366 4563 
z
" transform="scale(0.015625)"/>
       </defs>
       <use xlink:href="#DejaVuSans-30"/>
       <use xlink:href="#DejaVuSans-2e" transform="translate(63.623047 0)"/>
       <use xlink:href="#DejaVuSans-36" transform="translate(95.410156 0)"/>
      </g>
     </g>
    </g>
    <g id="xtick_5">
     <g id="line2d_5">
      <g>
       <use xlink:href="#m370bd0b957" x="333.556364" y="307.584" style="stroke: #000000; stroke-width: 0.8"/>
      </g>
     </g>
     <g id="text_5">
      <!-- 0.8 -->
      <g transform="translate(325.604801 322.182437) scale(0.1 -0.1)">
       <defs>
        <path id="DejaVuSans-38" d="M 2034 2216 
Q 1584 2216 1326 1975 
Q 1069 1734 1069 1313 
Q 1069 891 1326 650 
Q 1584 409 2034 409 
Q 2484 409 2743 651 
Q 3003 894 3003 1313 
Q 3003 1734 2745 1975 
Q 2488 2216 2034 2216 
z
M 1403 2484 
Q 997 2584 770 2862 
Q 544 3141 544 3541 
Q 544 4100 942 4425 
Q 1341 4750 2034 4750 
Q 2731 4750 3128 4425 
Q 3525 4100 3525 3541 
Q 3525 3141 3298 2862 
Q 3072 2584 2669 2484 
Q 3125 2378 3379 2068 
Q 3634 1759 3634 1313 
Q 3634 634 3220 271 
Q 2806 -91 2034 -91 
Q 1263 -91 848 271 
Q 434 634 434 1313 
Q 434 1759 690 2068 
Q 947 2378 1403 2484 
z
M 1172 3481 
Q 1172 3119 1398 2916 
Q 1625 2713 2034 2713 
Q 2441 2713 2670 2916 
Q 2900 3119 2900 3481 
Q 2900 3844 2670 4047 
Q 2441 4250 2034 4250 
Q 1625 4250 1398 4047 
Q 1172 3844 1172 3481 
z
" transform="scale(0.015625)"/>
       </defs>
       <use xlink:href="#DejaVuSans-30"/>
       <use xlink:href="#DejaVuSans-2e" transform="translate(63.623047 0)"/>
       <use xlink:href="#DejaVuSans-38" transform="translate(95.410156 0)"/>
      </g>
     </g>
    </g>
    <g id="xtick_6">
     <g id="line2d_6">
      <g>
       <use xlink:href="#m370bd0b957" x="398.487273" y="307.584" style="stroke: #000000; stroke-width: 0.8"/>
      </g>
     </g>
     <g id="text_6">
      <!-- 1.0 -->
      <g transform="translate(390.53571 322.182437) scale(0.1 -0.1)">
       <defs>
        <path id="DejaVuSans-31" d="M 794 531 
L 1825 531 
L 1825 4091 
L 703 3866 
L 703 4441 
L 1819 4666 
L 2450 4666 
L 2450 531 
L 3481 531 
L 3481 0 
L 794 0 
L 794 531 
z
" transform="scale(0.015625)"/>
       </defs>
       <use xlink:href="#DejaVuSans-31"/>
       <use xlink:href="#DejaVuSans-2e" transform="translate(63.623047 0)"/>
       <use xlink:href="#DejaVuSans-30" transform="translate(95.410156 0)"/>
      </g>
     </g>
    </g>
   </g>
   <g id="matplotlib.axis_2">
    <g id="ytick_1">
     <g id="line2d_7">
      <defs>
       <path id="m123b3a1f08" d="M 0 0 
L -3.5 0 
" style="stroke: #000000; stroke-width: 0.8"/>
      </defs>
      <g>
       <use xlink:href="#m123b3a1f08" x="57.6" y="295.488" style="stroke: #000000; stroke-width: 0.8"/>
      </g>
     </g>
     <g id="text_7">
      <!-- 0.0 -->
      <g transform="translate(34.696875 299.287219) scale(0.1 -0.1)">
       <use xlink:href="#DejaVuSans-30"/>
       <use xlink:href="#DejaVuSans-2e" transform="translate(63.623047 0)"/>
       <use xlink:href="#DejaVuSans-30" transform="translate(95.410156 0)"/>
      </g>
     </g>
    </g>
    <g id="ytick_2">
     <g id="line2d_8">
      <g>
       <use xlink:href="#m123b3a1f08" x="57.6" y="247.104" style="stroke: #000000; stroke-width: 0.8"/>
      </g>
     </g>
     <g id="text_8">
      <!-- 0.2 -->
      <g transform="translate(34.696875 250.903219) scale(0.1 -0.1)">
       <use xlink:href="#DejaVuSans-30"/>
       <use xlink:href="#DejaVuSans-2e" transform="translate(63.623047 0)"/>
       <use xlink:href="#DejaVuSans-32" transform="translate(95.410156 0)"/>
      </g>
     </g>
    </g>
    <g id="ytick_3">
     <g id="line2d_9">
      <g>
       <use xlink:href="#m123b3a1f08" x="57.6" y="198.72" style="stroke: #000000; stroke-width: 0.8"/>
      </g>
     </g>
     <g id="text_9">
      <!-- 0.4 -->
      <g transform="translate(34.696875 202.519219) scale(0.1 -0.1)">
       <use xlink:href="#DejaVuSans-30"/>
       <use xlink:href="#DejaVuSans-2e" transform="translate(63.623047 0)"/>
       <use xlink:href="#DejaVuSans-34" transform="translate(95.410156 0)"/>
      </g>
     </g>
    </g>
    <g id="ytick_4">
     <g id="line2d_10">
      <g>
       <use xlink:href="#m123b3a1f08" x="57.6" y="150.336" style="stroke: #000000; stroke-width: 0.8"/>
      </g>
     </g>
     <g id="text_10">
      <!-- 0.6 -->
      <g transform="translate(34.696875 154.135219) scale(0.1 -0.1)">
       <use xlink:href="#DejaVuSans-30"/>
       <use xlink:href="#DejaVuSans-2e" transform="translate(63.623047 0)"/>
       <use xlink:href="#DejaVuSans-36" transform="translate(95.410156 0)"/>
      </g>
     </g>
    </g>
    <g id="ytick_5">
     <g id="line2d_11">
      <g>
       <use xlink:href="#m123b3a1f08" x="57.6" y="101.952" style="stroke: #000000; stroke-width: 0.8"/>
      </g>
     </g>
     <g id="text_11">
      <!-- 0.8 -->
      <g transform="translate(34.696875 105.751219) scale(0.1 -0.1)">
       <use xlink:href="#DejaVuSans-30"/>
       <use xlink:href="#DejaVuSans-2e" transform="translate(63.623047 0)"/>
       <use xlink:href="#DejaVuSans-38" transform="translate(95.410156 0)"/>
      </g>
     </g>
    </g>
    <g id="ytick_6">
     <g id="line2d_12">
      <g>
       <use xlink:href="#m123b3a1f08" x="57.6" y="53.568" style="stroke: #000000; stroke-width: 0.8"/>
      </g>
     </g>
     <g id="text_12">
      <!-- 1.0 -->
      <g transform="translate(34.696875 57.367219) scale(0.1 -0.1)">
       <use xlink:href="#DejaVuSans-31"/>
       <use xlink:href="#DejaVuSans-2e" transform="translate(63.623047 0)"/>
       <use xlink:href="#DejaVuSans-30" transform="translate(95.410156 0)"/>
      </g>
     </g>
    </g>
   </g>
   <g id="line2d_13">
    <path d="M 73.832727 295.488 
L 73.943613 212.441062 
L 73.945492 212.343216 
L 73.945492 212.330868 
L 74.056378 206.667439 
L 74.060405 206.571689 
L 74.060405 206.558177 
L 74.171291 202.358014 
L 74.175586 202.235939 
L 74.286472 197.423771 
L 74.291036 197.272809 
L 74.401922 193.726817 
L 74.408902 193.492452 
L 74.519788 190.494864 
L 74.525158 190.386768 
L 74.525158 190.384205 
L 74.636043 187.557849 
L 74.642487 187.405255 
L 74.753372 184.111567 
L 74.758205 183.960604 
L 74.869091 181.257254 
L 74.877951 181.10303 
L 74.913123 180.45608 
L 75.024008 178.009227 
L 75.03797 177.762515 
L 75.148855 175.259284 
L 75.153151 175.157943 
L 75.153151 175.148624 
L 75.264036 172.85087 
L 75.268332 172.744637 
L 75.268332 172.74091 
L 75.379218 170.749274 
L 75.38593 170.64141 
L 75.38593 170.638382 
L 75.496816 168.5489 
L 75.518026 168.184307 
L 75.628643 166.113229 
L 75.628912 166.113229 
L 75.635892 165.96017 
L 75.746778 163.409646 
L 75.756175 163.171088 
L 75.86706 160.772226 
L 75.875921 160.617769 
L 75.986806 158.382916 
L 76.00023 158.137135 
L 76.111116 155.916726 
L 76.120245 155.678401 
L 76.23113 153.477328 
L 76.236768 153.376919 
L 76.236768 153.367601 
L 76.347654 151.123429 
L 76.35893 150.966875 
L 76.469816 149.218224 
L 76.482435 148.973842 
L 76.59332 147.114065 
L 76.606745 146.868518 
L 76.71763 145.108219 
L 76.723 145.008276 
L 76.723 144.997559 
L 76.833885 143.172495 
L 76.84194 143.01897 
L 76.952826 141.186917 
L 76.961417 141.077655 
L 76.961417 141.07719 
L 77.072303 139.231158 
L 77.092976 138.973963 
L 77.203862 137.050121 
L 77.221582 136.69438 
L 77.332468 134.566925 
L 77.338643 134.459527 
L 77.338643 134.456265 
L 77.449528 132.442731 
L 77.456509 132.332071 
L 77.456509 132.331838 
L 77.567395 130.302229 
L 77.57706 130.147306 
L 77.687946 128.106748 
L 77.696537 128.00331 
L 77.696537 127.996088 
L 77.807423 126.245341 
L 77.816283 126.135147 
L 77.816283 126.134448 
L 77.927168 124.431226 
L 77.93227 124.329186 
L 77.93227 124.320334 
L 78.043155 122.608259 
L 78.055237 122.451006 
L 78.166123 120.759199 
L 78.174983 120.661586 
L 78.174983 120.64854 
L 78.285868 118.954869 
L 78.29258 118.846772 
L 78.403466 117.225321 
L 78.413132 117.117458 
L 78.413132 117.114429 
L 78.524017 115.726644 
L 78.530729 115.622974 
L 78.530729 115.615985 
L 78.641615 114.165532 
L 78.650475 114.067919 
L 78.650475 114.055105 
L 78.76136 112.588112 
L 78.773174 112.485606 
L 78.773174 112.479083 
L 78.884059 111.198929 
L 78.895336 111.088736 
L 79.006221 109.742186 
L 79.016424 109.633157 
L 79.016424 109.631527 
L 79.127309 108.40845 
L 79.137512 108.298489 
L 79.137512 108.29779 
L 79.248398 107.161843 
L 79.259943 107.051882 
L 79.259943 107.051183 
L 79.370828 105.883552 
L 79.385595 105.724669 
L 79.49648 104.622502 
L 79.50722 104.512774 
L 79.617837 103.40222 
L 79.630187 103.292027 
L 79.741073 102.127191 
L 79.758793 102.016299 
L 79.869679 101.272435 
L 79.886056 101.163173 
L 79.996942 100.478949 
L 80.012514 100.370852 
L 80.1234 99.647723 
L 80.14112 99.538461 
L 80.252005 98.962566 
L 80.275632 98.853072 
L 80.386518 98.199366 
L 80.411756 98.090338 
L 80.522641 97.485322 
L 80.54063 97.374663 
L 80.651516 96.658988 
L 80.675142 96.548329 
L 80.786028 95.996197 
L 80.813145 95.885537 
L 80.923762 95.394676 
L 80.95088 95.283783 
L 81.061765 94.781273 
L 81.086734 94.670847 
L 81.19762 94.211436 
L 81.231449 94.100777 
L 81.342067 93.775322 
L 81.3716 93.664429 
L 81.482217 93.353418 
L 81.531887 93.243691 
L 81.642773 92.917537 
L 81.690027 92.808508 
L 81.800912 92.522891 
L 81.841991 92.412697 
L 81.952877 92.126148 
L 81.996372 92.015255 
L 82.107257 91.783686 
L 82.143772 91.67489 
L 82.254657 91.417462 
L 82.308623 91.306569 
L 82.418972 91.103422 
L 82.483946 90.993928 
L 82.594563 90.826657 
L 82.657389 90.715765 
L 82.768274 90.516578 
L 82.828416 90.405919 
L 82.938764 90.21838 
L 83.01233 90.107488 
L 83.123216 89.928336 
L 83.196244 89.817444 
L 83.30713 89.64831 
L 83.373983 89.539048 
L 83.484869 89.356635 
L 83.574007 89.247141 
L 83.684892 89.112486 
L 83.775373 89.001593 
L 83.88599 88.863211 
L 83.971637 88.752318 
L 84.082523 88.575729 
L 84.165754 88.464837 
L 84.27664 88.324358 
L 84.363898 88.215329 
L 84.474784 88.08743 
L 84.56607 87.976771 
L 84.676955 87.863782 
L 84.760455 87.75289 
L 84.871341 87.604723 
L 84.960747 87.49383 
L 85.071633 87.357778 
L 85.175537 87.247584 
L 85.286423 87.130402 
L 85.395697 87.019742 
L 85.506583 86.903026 
L 85.62069 86.792366 
L 85.73077 86.659808 
L 85.840582 86.549382 
L 85.951468 86.424977 
L 86.04329 86.314085 
L 86.152833 86.199698 
L 86.276606 86.088806 
L 86.387492 86.008665 
L 86.541604 85.897773 
L 86.65249 85.798296 
L 86.808213 85.687404 
L 86.919098 85.597012 
L 87.091199 85.48612 
L 87.201816 85.402019 
L 87.369084 85.291127 
L 87.479432 85.211918 
L 87.62898 85.101026 
L 87.737718 85.027408 
L 87.927807 84.917447 
L 88.038424 84.859206 
L 88.283554 84.748313 
L 88.394439 84.693333 
L 88.639837 84.582441 
L 88.750723 84.537478 
L 88.977058 84.426819 
L 89.087944 84.377663 
L 89.325555 84.26677 
L 89.436441 84.21179 
L 89.653916 84.100898 
L 89.763996 84.039162 
L 89.980935 83.928269 
L 90.09182 83.866533 
L 90.288622 83.755641 
L 90.399239 83.692973 
L 90.607048 83.58208 
L 90.717397 83.519645 
L 90.926549 83.408753 
L 91.037166 83.358199 
L 91.252493 83.247306 
L 91.363379 83.180212 
L 91.566893 83.06932 
L 91.677778 83.008515 
L 91.881829 82.897856 
L 91.992178 82.834489 
L 92.214217 82.723829 
L 92.325103 82.666986 
L 92.56701 82.556093 
L 92.67709 82.501812 
L 92.90799 82.39092 
L 93.018607 82.332445 
L 93.249775 82.221552 
L 93.360124 82.172396 
L 93.624316 82.061737 
L 93.734933 82.007223 
L 93.735201 82.007223 
L 93.979257 81.89633 
L 94.090142 81.843913 
L 94.339568 81.733253 
L 94.449916 81.687126 
L 94.726727 81.576467 
L 94.837613 81.523117 
L 95.085159 81.413623 
L 95.195239 81.353051 
L 95.465606 81.242159 
L 95.575955 81.198827 
L 95.808734 81.087935 
L 95.919619 81.027596 
L 96.199384 80.916704 
L 96.310269 80.874071 
L 96.575535 80.763179 
L 96.686421 80.712625 
L 96.950882 80.601732 
L 97.06123 80.559565 
L 97.320589 80.448906 
L 97.431475 80.406273 
L 97.692445 80.295381 
L 97.803062 80.252748 
L 98.10887 80.142088 
L 98.215728 80.103183 
L 98.217339 80.103183 
L 98.487706 79.992291 
L 98.597787 79.956181 
L 98.889633 79.845288 
L 99.209134 79.714594 
L 99.512525 79.603934 
L 99.623142 79.559671 
L 99.877132 79.448778 
L 99.988017 79.406611 
L 100.238785 79.295719 
L 100.348865 79.252154 
L 100.625139 79.141728 
L 100.734145 79.096299 
L 101.014178 78.985407 
L 101.123721 78.938813 
L 101.414225 78.828154 
L 101.524574 78.784356 
L 101.812124 78.673464 
L 101.92301 78.632695 
L 102.239289 78.521802 
L 102.346415 78.482897 
L 102.3491 78.482897 
L 102.646853 78.372005 
L 102.757739 78.32844 
L 103.030791 78.217547 
L 103.141676 78.181437 
L 103.441578 78.070545 
L 103.552195 78.034668 
L 103.864178 77.923776 
L 103.975063 77.883007 
L 104.256438 77.772114 
L 104.366518 77.735771 
L 104.670447 77.624879 
L 104.972227 77.50956 
L 105.276961 77.398668 
L 105.385162 77.365121 
L 105.387041 77.365121 
L 105.671638 77.254228 
L 105.980131 77.133552 
L 106.277079 77.022659 
L 106.387696 76.977231 
L 106.691624 76.866338 
L 106.801436 76.821143 
L 107.098383 76.71025 
L 107.208732 76.670879 
L 107.209269 76.670879 
L 107.544342 76.559987 
L 107.654959 76.518751 
L 107.959156 76.407859 
L 108.070041 76.365692 
L 108.397059 76.2548 
L 108.507945 76.21636 
L 108.83738 76.105701 
L 108.947997 76.064466 
L 109.218096 75.953806 
L 109.327907 75.913736 
L 109.328713 75.913736 
L 109.629956 75.803077 
L 109.629956 75.802844 
L 109.924219 75.694281 
L 110.223046 75.583389 
L 110.332589 75.546347 
L 110.645914 75.435455 
L 110.7568 75.394685 
L 111.061802 75.276804 
L 111.372174 75.166145 
L 111.48306 75.119784 
L 111.775712 75.009125 
L 111.886597 74.964628 
L 112.196701 74.853969 
L 112.307586 74.812501 
L 112.621717 74.701608 
L 112.730723 74.668061 
L 113.071435 74.557402 
L 113.18232 74.518729 
L 113.516051 74.40807 
L 113.626399 74.370562 
L 113.96711 74.25967 
L 114.075311 74.226588 
L 114.07719 74.226588 
L 114.442871 74.115696 
L 114.552683 74.077256 
L 114.91004 73.966597 
L 115.019315 73.935147 
L 115.359757 73.824487 
L 115.469569 73.794434 
L 115.954458 73.683542 
L 116.065344 73.656285 
L 116.47801 73.545393 
L 116.585405 73.517903 
L 117.001293 73.40701 
L 117.111641 73.380918 
L 117.552767 73.270026 
L 117.663652 73.244399 
L 118.158476 73.133973 
L 118.268287 73.107648 
L 118.756398 72.996755 
L 118.864867 72.969032 
L 119.381438 72.858373 
L 119.490713 72.835076 
L 120.019902 72.724184 
L 120.130788 72.702285 
L 120.631518 72.591625 
L 120.741867 72.569028 
L 121.239375 72.458135 
L 121.349723 72.426452 
L 121.867905 72.315559 
L 121.978522 72.290399 
L 122.560067 72.179507 
L 122.670952 72.158307 
L 123.250349 72.047414 
L 123.472926 71.999423 
L 123.982248 71.888531 
L 124.093133 71.866865 
L 124.615342 71.755973 
L 124.725959 71.730812 
L 125.272601 71.61992 
L 125.383486 71.596856 
L 125.92261 71.485964 
L 126.032153 71.465696 
L 126.640815 71.354803 
L 126.750895 71.331972 
L 127.304786 71.22108 
L 127.415403 71.20221 
L 127.415671 71.20221 
L 128.013325 71.091317 
L 128.123943 71.066623 
L 128.727503 70.955731 
L 128.838389 70.939656 
L 129.434164 70.828764 
L 129.543707 70.809194 
L 129.545049 70.809194 
L 130.019467 70.723928 
L 130.545435 70.613036 
L 130.656321 70.583216 
L 131.229006 70.472324 
L 131.339623 70.455084 
L 131.957682 70.344192 
L 132.067762 70.323691 
L 132.068567 70.323691 
L 132.749184 70.213032 
L 132.857653 70.191599 
L 132.859801 70.191599 
L 133.411813 70.080706 
L 133.521087 70.062069 
L 133.52243 70.062069 
L 134.145053 69.951177 
L 134.253791 69.93184 
L 134.926621 69.820948 
L 135.139264 69.782508 
L 135.745778 69.671849 
L 135.856664 69.650882 
L 136.472844 69.53999 
L 136.581313 69.519722 
L 136.583729 69.519722 
L 137.163126 69.409295 
L 137.272132 69.392522 
L 137.908717 69.281629 
L 138.019066 69.257634 
L 138.665585 69.146741 
L 138.775665 69.125774 
L 139.418425 69.015115 
L 139.418425 69.014882 
L 139.629456 68.978539 
L 140.248589 68.867647 
L 140.357327 68.85064 
L 141.044925 68.739748 
L 141.15581 68.719247 
L 141.808236 68.608354 
L 141.919121 68.589717 
L 142.586582 68.478825 
L 142.696663 68.461818 
L 143.363318 68.350926 
L 143.47313 68.333919 
L 143.473667 68.333919 
L 144.139248 68.223027 
L 144.250134 68.19973 
L 144.862286 68.088838 
L 145.063921 68.060183 
L 145.68198 67.949291 
L 145.792328 67.931119 
L 146.464891 67.820227 
L 146.574165 67.799959 
L 146.574971 67.799959 
L 147.182022 67.689066 
L 147.390637 67.653422 
L 148.095955 67.542763 
L 148.206035 67.524359 
L 148.856313 67.413466 
L 148.967198 67.396926 
L 149.68782 67.286033 
L 149.795752 67.265998 
L 149.798169 67.265998 
L 150.483081 67.155106 
L 150.589671 67.134605 
L 151.209341 67.023712 
L 151.31969 67.004842 
L 151.320227 67.004842 
L 152.021786 66.894183 
L 152.131597 66.877875 
L 152.132671 66.877875 
L 152.337528 66.846657 
L 152.944847 66.735765 
L 153.151851 66.702917 
L 153.84106 66.592723 
L 154.050481 66.558011 
L 154.692972 66.447119 
L 154.803052 66.428248 
L 154.803589 66.428248 
L 155.430509 66.317589 
L 155.541394 66.30035 
L 156.21691 66.189457 
L 156.327527 66.172917 
L 156.994719 66.062257 
L 157.103189 66.043853 
L 157.710508 65.93296 
L 157.820857 65.913391 
L 158.492345 65.802499 
L 158.60162 65.781765 
L 158.603231 65.781765 
L 159.273914 65.670873 
L 159.480649 65.638257 
L 160.18194 65.527365 
L 160.394314 65.49009 
L 161.029288 65.379431 
L 161.139636 65.362191 
L 161.140173 65.362191 
L 161.810319 65.251299 
L 162.01786 65.217752 
L 162.7264 65.106859 
L 162.834601 65.089387 
L 162.83648 65.089387 
L 163.508774 64.978494 
L 163.713362 64.947044 
L 164.359344 64.836151 
L 164.470229 64.814253 
L 165.138227 64.70336 
L 165.239716 64.684024 
L 165.248576 64.684024 
L 165.851331 64.573132 
L 166.061557 64.537721 
L 166.737073 64.426828 
L 166.847153 64.405628 
L 167.474072 64.294736 
L 167.584958 64.270042 
L 168.235773 64.159149 
L 168.342094 64.141444 
L 168.979484 64.030551 
L 169.088222 64.009584 
L 169.09037 64.009584 
L 169.815287 63.898692 
L 169.924025 63.882384 
L 169.926173 63.882384 
L 170.566785 63.771725 
L 170.676865 63.752156 
L 170.677402 63.752156 
L 171.362046 63.641263 
L 171.566902 63.610279 
L 172.198386 63.499386 
L 172.306587 63.483079 
L 172.950421 63.372186 
L 173.060232 63.356112 
L 173.060769 63.356112 
L 173.697086 63.245219 
L 173.806897 63.221457 
L 173.807166 63.221457 
L 174.471405 63.110564 
L 174.580143 63.091927 
L 174.581217 63.091927 
L 175.28385 62.981035 
L 175.392856 62.961698 
L 176.060317 62.851039 
L 176.169591 62.83543 
L 176.827924 62.724538 
L 176.938541 62.706599 
L 177.650839 62.595707 
L 177.761456 62.575206 
L 178.468922 62.464547 
L 178.579539 62.44358 
L 179.245389 62.332687 
L 179.350636 62.317544 
L 179.354664 62.317544 
L 180.044678 62.206652 
L 180.155026 62.184054 
L 180.816581 62.073162 
L 180.926392 62.05103 
L 180.927466 62.05103 
L 181.645671 61.940138 
L 181.754946 61.924762 
L 182.475299 61.81387 
L 182.582963 61.796863 
L 182.584842 61.796863 
L 183.245054 61.685971 
L 183.352986 61.665936 
L 184.054814 61.555509 
L 184.163014 61.538503 
L 184.911827 61.42761 
L 185.016 61.412933 
L 185.717559 61.302041 
L 185.827102 61.284335 
L 186.484898 61.173443 
L 186.595783 61.154806 
L 187.403127 61.043913 
L 187.596438 61.023179 
L 188.614276 60.912287 
L 188.81242 60.885962 
L 189.713734 60.775069 
L 189.823814 60.762722 
L 189.824351 60.762722 
L 190.677874 60.65183 
L 190.78688 60.641113 
L 191.709136 60.530221 
L 191.912113 60.500867 
L 192.8537 60.390208 
L 192.963512 60.372968 
L 193.794751 60.262076 
L 193.905368 60.246467 
L 194.847492 60.135575 
L 194.958377 60.118102 
L 195.840629 60.00721 
L 195.950709 59.992067 
L 196.88988 59.881641 
L 197.000228 59.863935 
L 197.856705 59.753043 
L 197.965979 59.738133 
L 198.832121 59.627241 
L 198.941933 59.612797 
L 198.943007 59.612797 
L 199.779347 59.501904 
L 199.88889 59.484199 
L 200.702677 59.37354 
L 200.808193 59.356999 
L 201.627886 59.246107 
L 201.828178 59.21815 
L 202.703718 59.107258 
L 202.812455 59.091882 
L 203.751089 58.98099 
L 203.860364 58.968643 
L 204.849473 58.85775 
L 204.958479 58.844937 
L 206.011221 58.734045 
L 206.118079 58.726124 
L 207.30936 58.615232 
L 207.418097 58.60335 
L 208.400495 58.492458 
L 208.51138 58.457979 
L 209.039764 58.347087 
L 209.144743 58.322392 
L 209.15065 58.322392 
L 210.065925 58.2115 
L 210.173052 58.204744 
L 211.834992 58.093851 
L 211.967357 58.086163 
L 213.677894 57.975271 
L 213.782067 57.968049 
L 213.788779 57.968049 
L 215.242104 57.857157 
L 215.344398 57.84877 
L 215.351111 57.84877 
L 217.203677 57.737878 
L 217.524252 57.719007 
L 219.110747 57.608115 
L 219.293051 57.596933 
L 221.046008 57.48604 
L 221.154746 57.478352 
L 221.156894 57.478352 
L 222.604044 57.36746 
L 222.714124 57.357442 
L 224.456879 57.24655 
L 224.559441 57.237464 
L 224.567496 57.237464 
L 226.396973 57.126572 
L 226.591627 57.10444 
L 228.217858 56.993548 
L 228.319615 56.987957 
L 228.327938 56.987957 
L 230.103181 56.877064 
L 230.285215 56.864018 
L 231.757066 56.753126 
L 231.866341 56.743574 
L 233.336044 56.632682 
L 233.444244 56.624994 
L 234.979727 56.514102 
L 235.090344 56.506647 
L 236.737518 56.395754 
L 236.845987 56.389464 
L 236.847329 56.389464 
L 238.569948 56.278572 
L 238.671705 56.272748 
L 238.67788 56.272748 
L 240.760809 56.162088 
L 240.760809 56.161855 
L 240.943381 56.149974 
L 242.990602 56.039082 
L 243.101219 56.030462 
L 244.845048 55.91957 
L 244.954591 55.915143 
L 246.669692 55.804251 
L 247.000738 55.781653 
L 249.065947 55.670761 
L 249.550568 55.646066 
L 251.186196 55.535174 
L 251.368231 55.524225 
L 252.95231 55.413332 
L 253.280402 55.391899 
L 255.239827 55.28124 
L 255.321716 55.275882 
L 255.350176 55.275882 
L 257.094273 55.164989 
L 257.203816 55.155438 
L 258.968856 55.044545 
L 259.501536 55.005873 
L 261.248856 54.89498 
L 261.428743 54.885895 
L 263.074842 54.775002 
L 263.619336 54.733068 
L 265.009835 54.622176 
L 265.188648 54.612857 
L 266.781855 54.501965 
L 266.888713 54.495442 
L 268.571596 54.38455 
L 268.67389 54.375464 
L 268.68087 54.375464 
L 270.202392 54.264572 
L 270.31274 54.258048 
L 270.313277 54.258048 
L 272.051737 54.147156 
L 272.228939 54.139468 
L 274.653116 54.028576 
L 274.764002 54.025081 
L 277.014199 53.914189 
L 277.107096 53.909996 
L 280.491924 53.799103 
L 280.585089 53.793512 
L 286.46766 53.68262 
L 286.497999 53.681921 
L 358.653865 53.571029 
L 358.653865 53.570796 
L 358.758575 53.570796 
L 398.487273 53.568 
L 398.487273 53.568 
" clip-path="url(#pb717a42536)" style="fill: none; stroke: #1f77b4; stroke-width: 1.5; stroke-linecap: square"/>
   </g>
   <g id="line2d_14">
    <path d="M 73.832727 295.488 
L 398.487273 53.568 
" clip-path="url(#pb717a42536)" style="fill: none; stroke-dasharray: 5.55,2.4; stroke-dashoffset: 0; stroke: #ff7f0e; stroke-width: 1.5"/>
   </g>
   <g id="patch_3">
    <path d="M 57.6 307.584 
L 57.6 41.472 
" style="fill: none; stroke: #000000; stroke-width: 0.8; stroke-linejoin: miter; stroke-linecap: square"/>
   </g>
   <g id="patch_4">
    <path d="M 414.72 307.584 
L 414.72 41.472 
" style="fill: none; stroke: #000000; stroke-width: 0.8; stroke-linejoin: miter; stroke-linecap: square"/>
   </g>
   <g id="patch_5">
    <path d="M 57.6 307.584 
L 414.72 307.584 
" style="fill: none; stroke: #000000; stroke-width: 0.8; stroke-linejoin: miter; stroke-linecap: square"/>
   </g>
   <g id="patch_6">
    <path d="M 57.6 41.472 
L 414.72 41.472 
" style="fill: none; stroke: #000000; stroke-width: 0.8; stroke-linejoin: miter; stroke-linecap: square"/>
   </g>
   <g id="text_13">
    <!-- ROC Curve -->
    <g transform="translate(203.469375 35.472) scale(0.12 -0.12)">
     <defs>
      <path id="DejaVuSans-52" d="M 2841 2188 
Q 3044 2119 3236 1894 
Q 3428 1669 3622 1275 
L 4263 0 
L 3584 0 
L 2988 1197 
Q 2756 1666 2539 1819 
Q 2322 1972 1947 1972 
L 1259 1972 
L 1259 0 
L 628 0 
L 628 4666 
L 2053 4666 
Q 2853 4666 3247 4331 
Q 3641 3997 3641 3322 
Q 3641 2881 3436 2590 
Q 3231 2300 2841 2188 
z
M 1259 4147 
L 1259 2491 
L 2053 2491 
Q 2509 2491 2742 2702 
Q 2975 2913 2975 3322 
Q 2975 3731 2742 3939 
Q 2509 4147 2053 4147 
L 1259 4147 
z
" transform="scale(0.015625)"/>
      <path id="DejaVuSans-4f" d="M 2522 4238 
Q 1834 4238 1429 3725 
Q 1025 3213 1025 2328 
Q 1025 1447 1429 934 
Q 1834 422 2522 422 
Q 3209 422 3611 934 
Q 4013 1447 4013 2328 
Q 4013 3213 3611 3725 
Q 3209 4238 2522 4238 
z
M 2522 4750 
Q 3503 4750 4090 4092 
Q 4678 3434 4678 2328 
Q 4678 1225 4090 567 
Q 3503 -91 2522 -91 
Q 1538 -91 948 565 
Q 359 1222 359 2328 
Q 359 3434 948 4092 
Q 1538 4750 2522 4750 
z
" transform="scale(0.015625)"/>
      <path id="DejaVuSans-43" d="M 4122 4306 
L 4122 3641 
Q 3803 3938 3442 4084 
Q 3081 4231 2675 4231 
Q 1875 4231 1450 3742 
Q 1025 3253 1025 2328 
Q 1025 1406 1450 917 
Q 1875 428 2675 428 
Q 3081 428 3442 575 
Q 3803 722 4122 1019 
L 4122 359 
Q 3791 134 3420 21 
Q 3050 -91 2638 -91 
Q 1578 -91 968 557 
Q 359 1206 359 2328 
Q 359 3453 968 4101 
Q 1578 4750 2638 4750 
Q 3056 4750 3426 4639 
Q 3797 4528 4122 4306 
z
" transform="scale(0.015625)"/>
      <path id="DejaVuSans-20" transform="scale(0.015625)"/>
      <path id="DejaVuSans-75" d="M 544 1381 
L 544 3500 
L 1119 3500 
L 1119 1403 
Q 1119 906 1312 657 
Q 1506 409 1894 409 
Q 2359 409 2629 706 
Q 2900 1003 2900 1516 
L 2900 3500 
L 3475 3500 
L 3475 0 
L 2900 0 
L 2900 538 
Q 2691 219 2414 64 
Q 2138 -91 1772 -91 
Q 1169 -91 856 284 
Q 544 659 544 1381 
z
M 1991 3584 
L 1991 3584 
z
" transform="scale(0.015625)"/>
      <path id="DejaVuSans-72" d="M 2631 2963 
Q 2534 3019 2420 3045 
Q 2306 3072 2169 3072 
Q 1681 3072 1420 2755 
Q 1159 2438 1159 1844 
L 1159 0 
L 581 0 
L 581 3500 
L 1159 3500 
L 1159 2956 
Q 1341 3275 1631 3429 
Q 1922 3584 2338 3584 
Q 2397 3584 2469 3576 
Q 2541 3569 2628 3553 
L 2631 2963 
z
" transform="scale(0.015625)"/>
      <path id="DejaVuSans-76" d="M 191 3500 
L 800 3500 
L 1894 563 
L 2988 3500 
L 3597 3500 
L 2284 0 
L 1503 0 
L 191 3500 
z
" transform="scale(0.015625)"/>
      <path id="DejaVuSans-65" d="M 3597 1894 
L 3597 1613 
L 953 1613 
Q 991 1019 1311 708 
Q 1631 397 2203 397 
Q 2534 397 2845 478 
Q 3156 559 3463 722 
L 3463 178 
Q 3153 47 2828 -22 
Q 2503 -91 2169 -91 
Q 1331 -91 842 396 
Q 353 884 353 1716 
Q 353 2575 817 3079 
Q 1281 3584 2069 3584 
Q 2775 3584 3186 3129 
Q 3597 2675 3597 1894 
z
M 3022 2063 
Q 3016 2534 2758 2815 
Q 2500 3097 2075 3097 
Q 1594 3097 1305 2825 
Q 1016 2553 972 2059 
L 3022 2063 
z
" transform="scale(0.015625)"/>
     </defs>
     <use xlink:href="#DejaVuSans-52"/>
     <use xlink:href="#DejaVuSans-4f" transform="translate(69.482422 0)"/>
     <use xlink:href="#DejaVuSans-43" transform="translate(148.193359 0)"/>
     <use xlink:href="#DejaVuSans-20" transform="translate(218.017578 0)"/>
     <use xlink:href="#DejaVuSans-43" transform="translate(249.804688 0)"/>
     <use xlink:href="#DejaVuSans-75" transform="translate(319.628906 0)"/>
     <use xlink:href="#DejaVuSans-72" transform="translate(383.007812 0)"/>
     <use xlink:href="#DejaVuSans-76" transform="translate(424.121094 0)"/>
     <use xlink:href="#DejaVuSans-65" transform="translate(483.300781 0)"/>
    </g>
   </g>
   <g id="legend_1">
    <g id="patch_7">
     <path d="M 64.6 64.150125 
L 154.75 64.150125 
Q 156.75 64.150125 156.75 62.150125 
L 156.75 48.472 
Q 156.75 46.472 154.75 46.472 
L 64.6 46.472 
Q 62.6 46.472 62.6 48.472 
L 62.6 62.150125 
Q 62.6 64.150125 64.6 64.150125 
z
" style="fill: #ffffff; opacity: 0.8; stroke: #cccccc; stroke-linejoin: miter"/>
    </g>
    <g id="line2d_15">
     <path d="M 66.6 54.570438 
L 76.6 54.570438 
L 86.6 54.570438 
" style="fill: none; stroke: #1f77b4; stroke-width: 1.5; stroke-linecap: square"/>
    </g>
    <g id="text_14">
     <!-- AUC=0.964 -->
     <g transform="translate(94.6 58.070438) scale(0.1 -0.1)">
      <defs>
       <path id="DejaVuSans-41" d="M 2188 4044 
L 1331 1722 
L 3047 1722 
L 2188 4044 
z
M 1831 4666 
L 2547 4666 
L 4325 0 
L 3669 0 
L 3244 1197 
L 1141 1197 
L 716 0 
L 50 0 
L 1831 4666 
z
" transform="scale(0.015625)"/>
       <path id="DejaVuSans-55" d="M 556 4666 
L 1191 4666 
L 1191 1831 
Q 1191 1081 1462 751 
Q 1734 422 2344 422 
Q 2950 422 3222 751 
Q 3494 1081 3494 1831 
L 3494 4666 
L 4128 4666 
L 4128 1753 
Q 4128 841 3676 375 
Q 3225 -91 2344 -91 
Q 1459 -91 1007 375 
Q 556 841 556 1753 
L 556 4666 
z
" transform="scale(0.015625)"/>
       <path id="DejaVuSans-3d" d="M 678 2906 
L 4684 2906 
L 4684 2381 
L 678 2381 
L 678 2906 
z
M 678 1631 
L 4684 1631 
L 4684 1100 
L 678 1100 
L 678 1631 
z
" transform="scale(0.015625)"/>
       <path id="DejaVuSans-39" d="M 703 97 
L 703 672 
Q 941 559 1184 500 
Q 1428 441 1663 441 
Q 2288 441 2617 861 
Q 2947 1281 2994 2138 
Q 2813 1869 2534 1725 
Q 2256 1581 1919 1581 
Q 1219 1581 811 2004 
Q 403 2428 403 3163 
Q 403 3881 828 4315 
Q 1253 4750 1959 4750 
Q 2769 4750 3195 4129 
Q 3622 3509 3622 2328 
Q 3622 1225 3098 567 
Q 2575 -91 1691 -91 
Q 1453 -91 1209 -44 
Q 966 3 703 97 
z
M 1959 2075 
Q 2384 2075 2632 2365 
Q 2881 2656 2881 3163 
Q 2881 3666 2632 3958 
Q 2384 4250 1959 4250 
Q 1534 4250 1286 3958 
Q 1038 3666 1038 3163 
Q 1038 2656 1286 2365 
Q 1534 2075 1959 2075 
z
" transform="scale(0.015625)"/>
      </defs>
      <use xlink:href="#DejaVuSans-41"/>
      <use xlink:href="#DejaVuSans-55" transform="translate(68.408203 0)"/>
      <use xlink:href="#DejaVuSans-43" transform="translate(141.601562 0)"/>
      <use xlink:href="#DejaVuSans-3d" transform="translate(211.425781 0)"/>
      <use xlink:href="#DejaVuSans-30" transform="translate(295.214844 0)"/>
      <use xlink:href="#DejaVuSans-2e" transform="translate(358.837891 0)"/>
      <use xlink:href="#DejaVuSans-39" transform="translate(390.625 0)"/>
      <use xlink:href="#DejaVuSans-36" transform="translate(454.248047 0)"/>
      <use xlink:href="#DejaVuSans-34" transform="translate(517.871094 0)"/>
     </g>
    </g>
   </g>
  </g>
 </g>
 <defs>
  <clipPath id="pb717a42536">
   <rect x="57.6" y="41.472" width="357.12" height="266.112"/>
  </clipPath>
 </defs>
</svg>
