<?xml version="1.0" encoding="utf-8" standalone="no"?>
<!DOCTYPE svg PUBLIC "-//W3C//DTD SVG 1.1//EN"
  "http://www.w3.org/Graphics/SVG/1.1/DTD/svg11.dtd">
<svg xmlns:xlink="http://www.w3.org/1999/xlink" width="460.8pt" height="345.6pt" viewBox="0 0 460.8 345.6" xmlns="http://www.w3.org/2000/svg" version="1.1">
 <metadata>
  <rdf:RDF xmlns:dc="http://purl.org/dc/elements/1.1/" xmlns:cc="http://creativecommons.org/ns#" xmlns:rdf="http://www.w3.org/1999/02/22-rdf-syntax-ns#">
   <cc:Work>
    <dc:type rdf:resource="http://purl.org/dc/dcmitype/StillImage"/>
    <dc:date>2026-03-16T13:32:23.984434</dc:date>
    <dc:format>image/svg+xml</dc:format>
    <dc:creator>
     <cc:Agent>
      <dc:title>Matplotlib v3.10.8, https://matplotlib.org/</dc:title>
     </cc:Agent>
    </dc:creator>
   </cc:Work>
  </rdf:RDF>
 </metadata>
 <defs>
  <style type="text/css">*{stroke-linejoin: round; stroke-linecap: butt}</style>
 </defs>
 <g id="figure_1">
  <g id="patch_1">
   <path d="M 0 345.6 
L 460.8 345.6 
L 460.8 0 
L 0 0 
z
" style="fill: #ffffff"/>
  </g>
  <g id="axes_1">
   <g id="patch_2">
    <path d="M 57.6 307.584 
L 414.72 307.584 
L 414.72 41.472 
L 57.6 41.472 
z
" style="fill: #ffffff"/>
   </g>
   <g id="matplotlib.axis_1">
    <g id="xtick_1">
     <g id="line2d_1">
      <defs>
       <path id="ma8d971571f" d="M 0 0 
L 0 3.5 
" style="stroke: #000000; stroke-width: 0.8"/>
      </defs>
      <g>
       <use xlink:href="#ma8d971571f" x="73.832727" y="307.584" style="stroke: #000000; stroke-width: 0.8"/>
      </g>
     </g>
     <g id="text_1">
      <!-- 0.0 -->
      <g transform="translate(65.881165 322.182437) scale(0.1 -0.1)">
       <defs>
        <path id="DejaVuSans-30" d="M 2034 4250 
Q 1547 4250 1301 3770 
Q 1056 3291 1056 2328 
Q 1056 1369 1301 889 
Q 1547 409 2034 409 
Q 2525 409 2770 889 
Q 3016 1369 3016 2328 
Q 3016 3291 2770 3770 
Q 2525 4250 2034 4250 
z
M 2034 4750 
Q 2819 4750 3233 4129 
Q 3647 3509 3647 2328 
Q 3647 1150 3233 529 
Q 2819 -91 2034 -91 
Q 1250 -91 836 529 
Q 422 1150 422 2328 
Q 422 3509 836 4129 
Q 1250 4750 2034 4750 
z
" transform="scale(0.015625)"/>
        <path id="DejaVuSans-2e" d="M 684 794 
L 1344 794 
L 1344 0 
L 684 0 
L 684 794 
z
" transform="scale(0.015625)"/>
       </defs>
       <use xlink:href="#DejaVuSans-30"/>
       <use xlink:href="#DejaVuSans-2e" transform="translate(63.623047 0)"/>
       <use xlink:href="#DejaVuSans-30" transform="translate(95.410156 0)"/>
      </g>
     </g>
    </g>
    <g id="xtick_2">
     <g id="line2d_2">
      <g>
       <use xlink:href="#ma8d971571f" x="138.763636" y="307.584" style="stroke: #000000; stroke-width: 0.8"/>
      </g>
     </g>
     <g id="text_2">
      <!-- 0.2 -->
      <g transform="translate(130.812074 322.182437) scale(0.1 -0.1)">
       <defs>
        <path id="DejaVuSans-32" d="M 1228 531 
L 3431 531 
L 3431 0 
L 469 0 
L 469 531 
Q 828 903 1448 1529 
Q 2069 2156 2228 2338 
Q 2531 2678 2651 2914 
Q 2772 3150 2772 3378 
Q 2772 3750 2511 3984 
Q 2250 4219 1831 4219 
Q 1534 4219 1204 4116 
Q 875 4013 500 3803 
L 500 4441 
Q 881 4594 1212 4672 
Q 1544 4750 1819 4750 
Q 2544 4750 2975 4387 
Q 3406 4025 3406 3419 
Q 3406 3131 3298 2873 
Q 3191 2616 2906 2266 
Q 2828 2175 2409 1742 
Q 1991 1309 1228 531 
z
" transform="scale(0.015625)"/>
       </defs>
       <use xlink:href="#DejaVuSans-30"/>
       <use xlink:href="#DejaVuSans-2e" transform="translate(63.623047 0)"/>
       <use xlink:href="#DejaVuSans-32" transform="translate(95.410156 0)"/>
      </g>
     </g>
    </g>
    <g id="xtick_3">
     <g id="line2d_3">
      <g>
       <use xlink:href="#ma8d971571f" x="203.694545" y="307.584" style="stroke: #000000; stroke-width: 0.8"/>
      </g>
     </g>
     <g id="text_3">
      <!-- 0.4 -->
      <g transform="translate(195.742983 322.182437) scale(0.1 -0.1)">
       <defs>
        <path id="DejaVuSans-34" d="M 2419 4116 
L 825 1625 
L 2419 1625 
L 2419 4116 
z
M 2253 4666 
L 3047 4666 
L 3047 1625 
L 3713 1625 
L 3713 1100 
L 3047 1100 
L 3047 0 
L 2419 0 
L 2419 1100 
L 313 1100 
L 313 1709 
L 2253 4666 
z
" transform="scale(0.015625)"/>
       </defs>
       <use xlink:href="#DejaVuSans-30"/>
       <use xlink:href="#DejaVuSans-2e" transform="translate(63.623047 0)"/>
       <use xlink:href="#DejaVuSans-34" transform="translate(95.410156 0)"/>
      </g>
     </g>
    </g>
    <g id="xtick_4">
     <g id="line2d_4">
      <g>
       <use xlink:href="#ma8d971571f" x="268.625455" y="307.584" style="stroke: #000000; stroke-width: 0.8"/>
      </g>
     </g>
     <g id="text_4">
      <!-- 0.6 -->
      <g transform="translate(260.673892 322.182437) scale(0.1 -0.1)">
       <defs>
        <path id="DejaVuSans-36" d="M 2113 2584 
Q 1688 2584 1439 2293 
Q 1191 2003 1191 1497 
Q 1191 994 1439 701 
Q 1688 409 2113 409 
Q 2538 409 2786 701 
Q 3034 994 3034 1497 
Q 3034 2003 2786 2293 
Q 2538 2584 2113 2584 
z
M 3366 4563 
L 3366 3988 
Q 3128 4100 2886 4159 
Q 2644 4219 2406 4219 
Q 1781 4219 1451 3797 
Q 1122 3375 1075 2522 
Q 1259 2794 1537 2939 
Q 1816 3084 2150 3084 
Q 2853 3084 3261 2657 
Q 3669 2231 3669 1497 
Q 3669 778 3244 343 
Q 2819 -91 2113 -91 
Q 1303 -91 875 529 
Q 447 1150 447 2328 
Q 447 3434 972 4092 
Q 1497 4750 2381 4750 
Q 2619 4750 2861 4703 
Q 3103 4656 3366 4563 
z
" transform="scale(0.015625)"/>
       </defs>
       <use xlink:href="#DejaVuSans-30"/>
       <use xlink:href="#DejaVuSans-2e" transform="translate(63.623047 0)"/>
       <use xlink:href="#DejaVuSans-36" transform="translate(95.410156 0)"/>
      </g>
     </g>
    </g>
    <g id="xtick_5">
     <g id="line2d_5">
      <g>
       <use xlink:href="#ma8d971571f" x="333.556364" y="307.584" style="stroke: #000000; stroke-width: 0.8"/>
      </g>
     </g>
     <g id="text_5">
      <!-- 0.8 -->
      <g transform="translate(325.604801 322.182437) scale(0.1 -0.1)">
       <defs>
        <path id="DejaVuSans-38" d="M 2034 2216 
Q 1584 2216 1326 1975 
Q 1069 1734 1069 1313 
Q 1069 891 1326 650 
Q 1584 409 2034 409 
Q 2484 409 2743 651 
Q 3003 894 3003 1313 
Q 3003 1734 2745 1975 
Q 2488 2216 2034 2216 
z
M 1403 2484 
Q 997 2584 770 2862 
Q 544 3141 544 3541 
Q 544 4100 942 4425 
Q 1341 4750 2034 4750 
Q 2731 4750 3128 4425 
Q 3525 4100 3525 3541 
Q 3525 3141 3298 2862 
Q 3072 2584 2669 2484 
Q 3125 2378 3379 2068 
Q 3634 1759 3634 1313 
Q 3634 634 3220 271 
Q 2806 -91 2034 -91 
Q 1263 -91 848 271 
Q 434 634 434 1313 
Q 434 1759 690 2068 
Q 947 2378 1403 2484 
z
M 1172 3481 
Q 1172 3119 1398 2916 
Q 1625 2713 2034 2713 
Q 2441 2713 2670 2916 
Q 2900 3119 2900 3481 
Q 2900 3844 2670 4047 
Q 2441 4250 2034 4250 
Q 1625 4250 1398 4047 
Q 1172 3844 1172 3481 
z
" transform="scale(0.015625)"/>
       </defs>
       <use xlink:href="#DejaVuSans-30"/>
       <use xlink:href="#DejaVuSans-2e" transform="translate(63.623047 0)"/>
       <use xlink:href="#DejaVuSans-38" transform="translate(95.410156 0)"/>
      </g>
     </g>
    </g>
    <g id="xtick_6">
     <g id="line2d_6">
      <g>
       <use xlink:href="#ma8d971571f" x="398.487273" y="307.584" style="stroke: #000000; stroke-width: 0.8"/>
      </g>
     </g>
     <g id="text_6">
      <!-- 1.0 -->
      <g transform="translate(390.53571 322.182437) scale(0.1 -0.1)">
       <defs>
        <path id="DejaVuSans-31" d="M 794 531 
L 1825 531 
L 1825 4091 
L 703 3866 
L 703 4441 
L 1819 4666 
L 2450 4666 
L 2450 531 
L 3481 531 
L 3481 0 
L 794 0 
L 794 531 
z
" transform="scale(0.015625)"/>
       </defs>
       <use xlink:href="#DejaVuSans-31"/>
       <use xlink:href="#DejaVuSans-2e" transform="translate(63.623047 0)"/>
       <use xlink:href="#DejaVuSans-30" transform="translate(95.410156 0)"/>
      </g>
     </g>
    </g>
   </g>
   <g id="matplotlib.axis_2">
    <g id="ytick_1">
     <g id="line2d_7">
      <defs>
       <path id="m2fb8d931de" d="M 0 0 
L -3.5 0 
" style="stroke: #000000; stroke-width: 0.8"/>
      </defs>
      <g>
       <use xlink:href="#m2fb8d931de" x="57.6" y="287.210039" style="stroke: #000000; stroke-width: 0.8"/>
      </g>
     </g>
     <g id="text_7">
      <!-- 0.6 -->
      <g transform="translate(34.696875 291.009258) scale(0.1 -0.1)">
       <use xlink:href="#DejaVuSans-30"/>
       <use xlink:href="#DejaVuSans-2e" transform="translate(63.623047 0)"/>
       <use xlink:href="#DejaVuSans-36" transform="translate(95.410156 0)"/>
      </g>
     </g>
    </g>
    <g id="ytick_2">
     <g id="line2d_8">
      <g>
       <use xlink:href="#m2fb8d931de" x="57.6" y="228.79953" style="stroke: #000000; stroke-width: 0.8"/>
      </g>
     </g>
     <g id="text_8">
      <!-- 0.7 -->
      <g transform="translate(34.696875 232.598748) scale(0.1 -0.1)">
       <defs>
        <path id="DejaVuSans-37" d="M 525 4666 
L 3525 4666 
L 3525 4397 
L 1831 0 
L 1172 0 
L 2766 4134 
L 525 4134 
L 525 4666 
z
" transform="scale(0.015625)"/>
       </defs>
       <use xlink:href="#DejaVuSans-30"/>
       <use xlink:href="#DejaVuSans-2e" transform="translate(63.623047 0)"/>
       <use xlink:href="#DejaVuSans-37" transform="translate(95.410156 0)"/>
      </g>
     </g>
    </g>
    <g id="ytick_3">
     <g id="line2d_9">
      <g>
       <use xlink:href="#m2fb8d931de" x="57.6" y="170.38902" style="stroke: #000000; stroke-width: 0.8"/>
      </g>
     </g>
     <g id="text_9">
      <!-- 0.8 -->
      <g transform="translate(34.696875 174.188238) scale(0.1 -0.1)">
       <use xlink:href="#DejaVuSans-30"/>
       <use xlink:href="#DejaVuSans-2e" transform="translate(63.623047 0)"/>
       <use xlink:href="#DejaVuSans-38" transform="translate(95.410156 0)"/>
      </g>
     </g>
    </g>
    <g id="ytick_4">
     <g id="line2d_10">
      <g>
       <use xlink:href="#m2fb8d931de" x="57.6" y="111.97851" style="stroke: #000000; stroke-width: 0.8"/>
      </g>
     </g>
     <g id="text_10">
      <!-- 0.9 -->
      <g transform="translate(34.696875 115.777729) scale(0.1 -0.1)">
       <defs>
        <path id="DejaVuSans-39" d="M 703 97 
L 703 672 
Q 941 559 1184 500 
Q 1428 441 1663 441 
Q 2288 441 2617 861 
Q 2947 1281 2994 2138 
Q 2813 1869 2534 1725 
Q 2256 1581 1919 1581 
Q 1219 1581 811 2004 
Q 403 2428 403 3163 
Q 403 3881 828 4315 
Q 1253 4750 1959 4750 
Q 2769 4750 3195 4129 
Q 3622 3509 3622 2328 
Q 3622 1225 3098 567 
Q 2575 -91 1691 -91 
Q 1453 -91 1209 -44 
Q 966 3 703 97 
z
M 1959 2075 
Q 2384 2075 2632 2365 
Q 2881 2656 2881 3163 
Q 2881 3666 2632 3958 
Q 2384 4250 1959 4250 
Q 1534 4250 1286 3958 
Q 1038 3666 1038 3163 
Q 1038 2656 1286 2365 
Q 1534 2075 1959 2075 
z
" transform="scale(0.015625)"/>
       </defs>
       <use xlink:href="#DejaVuSans-30"/>
       <use xlink:href="#DejaVuSans-2e" transform="translate(63.623047 0)"/>
       <use xlink:href="#DejaVuSans-39" transform="translate(95.410156 0)"/>
      </g>
     </g>
    </g>
    <g id="ytick_5">
     <g id="line2d_11">
      <g>
       <use xlink:href="#m2fb8d931de" x="57.6" y="53.568" style="stroke: #000000; stroke-width: 0.8"/>
      </g>
     </g>
     <g id="text_11">
      <!-- 1.0 -->
      <g transform="translate(34.696875 57.367219) scale(0.1 -0.1)">
       <use xlink:href="#DejaVuSans-31"/>
       <use xlink:href="#DejaVuSans-2e" transform="translate(63.623047 0)"/>
       <use xlink:href="#DejaVuSans-30" transform="translate(95.410156 0)"/>
      </g>
     </g>
    </g>
   </g>
   <g id="line2d_12">
    <path d="M 398.487273 295.488 
L 398.377543 112.037379 
L 398.374114 112.037935 
L 398.374114 111.92796 
L 398.264385 100.968501 
L 398.260956 100.968962 
L 398.260956 100.85948 
L 398.151227 97.546778 
L 398.147798 97.547208 
L 398.147798 97.436287 
L 398.038069 93.53775 
L 398.03464 93.538144 
L 398.03464 93.484525 
L 398.027782 93.431681 
L 397.918052 91.057051 
L 397.914623 91.057423 
L 397.914623 90.954567 
L 397.911194 90.949523 
L 397.801465 89.108187 
L 397.787749 89.071426 
L 397.78432 89.000867 
L 397.674591 87.523806 
L 397.671161 87.524144 
L 397.671161 87.452807 
L 397.660874 87.415401 
L 397.551145 86.24868 
L 397.527142 86.168237 
L 397.547716 86.210404 
L 397.527142 86.140654 
L 397.417413 85.36081 
L 397.410555 85.333774 
L 397.407125 85.251055 
L 397.297396 84.279188 
L 397.273393 84.170157 
L 397.163664 83.260685 
L 397.143089 83.162 
L 397.143089 83.156416 
L 397.036789 82.472255 
L 397.03336 82.472546 
L 397.005928 82.379672 
L 397.005928 82.368469 
L 396.896199 81.906695 
L 396.858479 81.82563 
L 396.858479 81.803169 
L 396.755608 81.322607 
L 396.74875 81.323168 
L 396.735034 81.256755 
L 396.745321 81.278428 
L 396.735034 81.217351 
L 396.625305 80.79236 
L 396.587585 80.693844 
L 396.587585 80.688201 
L 396.477856 80.205487 
L 396.460711 80.11069 
L 396.460711 80.099376 
L 396.350981 79.683265 
L 396.316691 79.578207 
L 396.21382 79.103623 
L 396.206962 79.104143 
L 396.176101 79.009867 
L 396.176101 78.998499 
L 396.0698 78.368957 
L 396.018365 78.26443 
L 395.908635 77.97002 
L 395.8572 77.865227 
L 395.747471 77.552949 
L 395.709751 77.446904 
L 395.600022 76.898738 
L 395.555444 76.810016 
L 395.555444 76.792795 
L 395.445715 76.403914 
L 395.39428 76.303884 
L 395.39428 76.298131 
L 395.28455 76.029202 
L 395.229686 75.934922 
L 395.229686 75.923394 
L 395.133673 75.681788 
L 395.119957 75.682697 
L 395.07195 75.576192 
L 394.962221 75.149909 
L 394.931359 75.047754 
L 394.931359 75.041966 
L 394.828488 74.782165 
L 394.82163 74.782602 
L 394.746191 74.677261 
L 394.636462 74.295339 
L 394.595314 74.187514 
L 394.485584 73.880243 
L 394.454723 73.783172 
L 394.454723 73.771528 
L 394.348423 73.509961 
L 394.344994 73.510167 
L 394.32099 73.406648 
L 394.341565 73.452069 
L 394.32099 73.400816 
L 394.211261 73.191428 
L 394.170113 73.082893 
L 394.060384 72.9023 
L 394.026093 72.799017 
L 394.026093 72.793167 
L 393.916364 72.553641 
L 393.847783 72.463826 
L 393.847783 72.452105 
L 393.491163 71.649945 
L 393.381434 71.473444 
L 393.333427 71.399466 
L 393.333427 71.370004 
L 393.223698 71.104657 
L 393.185979 71.041749 
L 393.185979 71.000431 
L 393.076249 70.734487 
L 393.017956 70.684321 
L 393.017956 70.631101 
L 392.915085 70.458917 
L 392.908226 70.45927 
L 392.870507 70.354627 
L 392.760778 70.117238 
L 392.603042 70.018397 
L 392.493313 69.804175 
L 392.459022 69.704851 
L 392.459022 69.698907 
L 392.349293 69.454484 
L 392.294428 69.355947 
L 392.294428 69.349993 
L 392.184699 69.182509 
L 392.105831 69.078956 
L 392.00296 68.946607 
L 391.996102 68.946929 
L 391.948096 68.853669 
L 391.948096 68.841727 
L 391.855511 68.660838 
L 391.838366 68.661631 
L 391.735495 68.57071 
L 391.735495 68.558748 
L 391.639482 68.329732 
L 391.625766 68.330353 
L 391.560614 68.23746 
L 391.560614 68.225478 
L 391.450885 68.092532 
L 391.341156 67.989437 
L 391.231426 67.748088 
L 391.1457 67.643638 
L 391.0394 67.443709 
L 391.035971 67.443856 
L 390.939958 67.345605 
L 390.939958 67.339584 
L 390.837087 67.187287 
L 390.830229 67.187574 
L 390.734216 67.083063 
L 390.627916 66.918515 
L 390.624487 66.918656 
L 390.528473 66.813897 
L 390.422173 66.642949 
L 390.418744 66.643087 
L 390.339876 66.537388 
L 389.71922 65.688089 
L 389.667785 65.604873 
L 389.667785 65.58054 
L 389.571772 65.419768 
L 389.558055 65.420273 
L 389.482617 65.313399 
L 389.383174 65.182913 
L 389.372887 65.183285 
L 389.287161 65.076571 
L 389.177432 64.897329 
L 389.088277 64.796596 
L 389.088277 64.790485 
L 388.988835 64.530962 
L 388.978548 64.531313 
L 388.89968 64.423812 
L 388.789951 64.243713 
L 388.697367 64.13642 
L 388.587637 63.81469 
L 388.488195 63.707258 
L 388.378466 63.433921 
L 388.299598 63.325527 
L 388.193298 63.063758 
L 388.189869 63.06386 
L 388.104143 62.96154 
L 388.104143 62.95537 
L 388.004701 62.637175 
L 387.994414 62.637468 
L 387.949836 62.533658 
L 387.840107 62.320215 
L 387.733807 62.21787 
L 387.624077 62.084522 
L 387.562355 61.980765 
L 387.4732 61.871439 
L 387.452626 61.871976 
L 387.298319 61.789065 
L 387.298319 61.770431 
L 387.195448 61.692301 
L 387.18859 61.692476 
L 387.04457 61.590434 
L 386.934841 61.474956 
L 386.790821 61.372654 
L 386.68795 61.28169 
L 386.681092 61.281857 
L 386.574792 61.178408 
L 386.468491 61.074851 
L 386.465062 61.074932 
L 386.355333 60.996336 
L 386.355333 60.971347 
L 386.252462 60.905002 
L 386.245604 60.905161 
L 386.108442 60.80201 
L 386.002142 60.704295 
L 385.998713 60.704372 
L 385.864981 60.600903 
L 385.765538 60.552976 
L 385.755251 60.553203 
L 385.683241 60.448188 
L 385.573512 60.356449 
L 385.467212 60.251983 
L 385.357483 60.134907 
L 385.271757 60.02979 
L 385.162028 59.97541 
L 384.990576 59.871842 
L 384.887704 59.810889 
L 384.880846 59.811025 
L 384.743685 59.706544 
L 384.633956 59.557219 
L 384.507081 59.452258 
L 384.400781 59.346793 
L 384.397352 59.346856 
L 384.160748 59.243639 
L 384.051019 59.118968 
L 383.924144 59.013471 
L 383.817844 58.907497 
L 383.814415 58.907555 
L 383.529805 58.804455 
L 383.420076 58.742746 
L 383.197188 58.638301 
L 383.101175 58.563479 
L 383.087459 58.563699 
L 382.864571 58.465321 
L 382.758271 58.390479 
L 382.754842 58.390532 
L 382.600535 58.284441 
L 382.501093 58.21571 
L 382.490806 58.215863 
L 382.199338 58.111534 
L 382.106754 58.061711 
L 382.089609 58.061959 
L 381.842718 57.963067 
L 381.842718 57.956662 
L 381.739847 57.849169 
L 381.732989 57.849263 
L 381.547821 57.742764 
L 381.47924 57.705179 
L 381.438091 57.705729 
L 381.201488 57.599658 
L 381.098616 57.510981 
L 381.091758 57.511069 
L 380.916877 57.403891 
L 380.810577 57.366573 
L 380.807148 57.366615 
L 380.597977 57.259612 
L 380.529396 57.234638 
L 380.488248 57.235126 
L 380.23107 57.128428 
L 380.135057 57.071396 
L 380.12134 57.071552 
L 379.737288 56.965928 
L 379.641275 56.92167 
L 379.627559 56.921819 
L 379.212645 56.816108 
L 379.144064 56.784395 
L 379.102916 56.784826 
L 378.684573 56.678731 
L 378.585131 56.621213 
L 378.574844 56.621315 
L 377.834171 56.51786 
L 377.7313 56.479705 
L 377.724442 56.479771 
L 376.918618 56.389319 
L 376.918618 56.382774 
L 376.83975 56.337674 
L 376.808889 56.337954 
L 376.201949 56.238489 
L 376.136797 56.2128 
L 376.09222 56.213188 
L 375.409841 56.113826 
L 375.34126 56.061716 
L 375.300112 56.062055 
L 374.586872 55.962281 
L 374.586872 55.955676 
L 374.477142 55.956544 
L 373.551302 55.857825 
L 373.499866 55.825057 
L 373.441573 55.825495 
L 372.608316 55.725316 
L 372.543164 55.699161 
L 372.498587 55.699478 
L 371.514453 55.606293 
L 371.408152 55.566913 
L 371.404723 55.566936 
L 370.293715 55.467025 
L 370.190844 55.440823 
L 370.183986 55.440866 
L 369.367874 55.338261 
L 369.319868 55.311597 
L 369.258145 55.311961 
L 368.033978 55.2109 
L 367.985972 55.190854 
L 367.924249 55.191193 
L 366.233733 55.091544 
L 366.185726 55.057715 
L 366.124004 55.058029 
L 364.824398 54.955081 
L 364.759246 54.927981 
L 364.714669 54.928189 
L 363.243611 54.824853 
L 363.243611 54.817962 
L 363.133882 54.818435 
L 360.472947 54.725638 
L 360.438657 54.711854 
L 360.363218 54.712155 
L 359.228206 54.61182 
L 359.128764 54.598192 
L 359.118477 54.59823 
L 357.712571 54.497846 
L 357.698855 54.483823 
L 357.602842 54.484133 
L 356.642711 54.38132 
L 356.550127 54.367456 
L 356.536411 54.367495 
L 354.225239 54.267202 
L 354.208093 54.252992 
L 354.115509 54.253218 
L 352.527864 54.149549 
L 352.517577 54.135225 
L 352.418135 54.135427 
L 349.088538 54.03333 
L 349.088538 54.026065 
L 348.978809 54.026247 
L 341.565227 53.934341 
L 341.565227 53.92687 
L 341.455498 53.927017 
L 302.151854 53.874875 
L 302.035266 53.866263 
L 214.320451 53.881483 
L 214.155857 53.867592 
L 107.996242 54.036643 
L 107.138982 53.868527 
L 105.424463 53.884829 
L 105.115849 53.760014 
L 89.133099 53.829696 
L 87.23684 53.568 
L 73.832727 53.568 
L 73.832727 53.568 
" clip-path="url(#pb8cf49bc96)" style="fill: none; stroke: #1f77b4; stroke-width: 1.5; stroke-linecap: square"/>
   </g>
   <g id="patch_3">
    <path d="M 57.6 307.584 
L 57.6 41.472 
" style="fill: none; stroke: #000000; stroke-width: 0.8; stroke-linejoin: miter; stroke-linecap: square"/>
   </g>
   <g id="patch_4">
    <path d="M 414.72 307.584 
L 414.72 41.472 
" style="fill: none; stroke: #000000; stroke-width: 0.8; stroke-linejoin: miter; stroke-linecap: square"/>
   </g>
   <g id="patch_5">
    <path d="M 57.6 307.584 
L 414.72 307.584 
" style="fill: none; stroke: #000000; stroke-width: 0.8; stroke-linejoin: miter; stroke-linecap: square"/>
   </g>
   <g id="patch_6">
    <path d="M 57.6 41.472 
L 414.72 41.472 
" style="fill: none; stroke: #000000; stroke-width: 0.8; stroke-linejoin: miter; stroke-linecap: square"/>
   </g>
   <g id="text_12">
    <!-- Precision Recall -->
    <g transform="translate(189.584063 35.472) scale(0.12 -0.12)">
     <defs>
      <path id="DejaVuSans-50" d="M 1259 4147 
L 1259 2394 
L 2053 2394 
Q 2494 2394 2734 2622 
Q 2975 2850 2975 3272 
Q 2975 3691 2734 3919 
Q 2494 4147 2053 4147 
L 1259 4147 
z
M 628 4666 
L 2053 4666 
Q 2838 4666 3239 4311 
Q 3641 3956 3641 3272 
Q 3641 2581 3239 2228 
Q 2838 1875 2053 1875 
L 1259 1875 
L 1259 0 
L 628 0 
L 628 4666 
z
" transform="scale(0.015625)"/>
      <path id="DejaVuSans-72" d="M 2631 2963 
Q 2534 3019 2420 3045 
Q 2306 3072 2169 3072 
Q 1681 3072 1420 2755 
Q 1159 2438 1159 1844 
L 1159 0 
L 581 0 
L 581 3500 
L 1159 3500 
L 1159 2956 
Q 1341 3275 1631 3429 
Q 1922 3584 2338 3584 
Q 2397 3584 2469 3576 
Q 2541 3569 2628 3553 
L 2631 2963 
z
" transform="scale(0.015625)"/>
      <path id="DejaVuSans-65" d="M 3597 1894 
L 3597 1613 
L 953 1613 
Q 991 1019 1311 708 
Q 1631 397 2203 397 
Q 2534 397 2845 478 
Q 3156 559 3463 722 
L 3463 178 
Q 3153 47 2828 -22 
Q 2503 -91 2169 -91 
Q 1331 -91 842 396 
Q 353 884 353 1716 
Q 353 2575 817 3079 
Q 1281 3584 2069 3584 
Q 2775 3584 3186 3129 
Q 3597 2675 3597 1894 
z
M 3022 2063 
Q 3016 2534 2758 2815 
Q 2500 3097 2075 3097 
Q 1594 3097 1305 2825 
Q 1016 2553 972 2059 
L 3022 2063 
z
" transform="scale(0.015625)"/>
      <path id="DejaVuSans-63" d="M 3122 3366 
L 3122 2828 
Q 2878 2963 2633 3030 
Q 2388 3097 2138 3097 
Q 1578 3097 1268 2742 
Q 959 2388 959 1747 
Q 959 1106 1268 751 
Q 1578 397 2138 397 
Q 2388 397 2633 464 
Q 2878 531 3122 666 
L 3122 134 
Q 2881 22 2623 -34 
Q 2366 -91 2075 -91 
Q 1284 -91 818 406 
Q 353 903 353 1747 
Q 353 2603 823 3093 
Q 1294 3584 2113 3584 
Q 2378 3584 2631 3529 
Q 2884 3475 3122 3366 
z
" transform="scale(0.015625)"/>
      <path id="DejaVuSans-69" d="M 603 3500 
L 1178 3500 
L 1178 0 
L 603 0 
L 603 3500 
z
M 603 4863 
L 1178 4863 
L 1178 4134 
L 603 4134 
L 603 4863 
z
" transform="scale(0.015625)"/>
      <path id="DejaVuSans-73" d="M 2834 3397 
L 2834 2853 
Q 2591 2978 2328 3040 
Q 2066 3103 1784 3103 
Q 1356 3103 1142 2972 
Q 928 2841 928 2578 
Q 928 2378 1081 2264 
Q 1234 2150 1697 2047 
L 1894 2003 
Q 2506 1872 2764 1633 
Q 3022 1394 3022 966 
Q 3022 478 2636 193 
Q 2250 -91 1575 -91 
Q 1294 -91 989 -36 
Q 684 19 347 128 
L 347 722 
Q 666 556 975 473 
Q 1284 391 1588 391 
Q 1994 391 2212 530 
Q 2431 669 2431 922 
Q 2431 1156 2273 1281 
Q 2116 1406 1581 1522 
L 1381 1569 
Q 847 1681 609 1914 
Q 372 2147 372 2553 
Q 372 3047 722 3315 
Q 1072 3584 1716 3584 
Q 2034 3584 2315 3537 
Q 2597 3491 2834 3397 
z
" transform="scale(0.015625)"/>
      <path id="DejaVuSans-6f" d="M 1959 3097 
Q 1497 3097 1228 2736 
Q 959 2375 959 1747 
Q 959 1119 1226 758 
Q 1494 397 1959 397 
Q 2419 397 2687 759 
Q 2956 1122 2956 1747 
Q 2956 2369 2687 2733 
Q 2419 3097 1959 3097 
z
M 1959 3584 
Q 2709 3584 3137 3096 
Q 3566 2609 3566 1747 
Q 3566 888 3137 398 
Q 2709 -91 1959 -91 
Q 1206 -91 779 398 
Q 353 888 353 1747 
Q 353 2609 779 3096 
Q 1206 3584 1959 3584 
z
" transform="scale(0.015625)"/>
      <path id="DejaVuSans-6e" d="M 3513 2113 
L 3513 0 
L 2938 0 
L 2938 2094 
Q 2938 2591 2744 2837 
Q 2550 3084 2163 3084 
Q 1697 3084 1428 2787 
Q 1159 2491 1159 1978 
L 1159 0 
L 581 0 
L 581 3500 
L 1159 3500 
L 1159 2956 
Q 1366 3272 1645 3428 
Q 1925 3584 2291 3584 
Q 2894 3584 3203 3211 
Q 3513 2838 3513 2113 
z
" transform="scale(0.015625)"/>
      <path id="DejaVuSans-20" transform="scale(0.015625)"/>
      <path id="DejaVuSans-52" d="M 2841 2188 
Q 3044 2119 3236 1894 
Q 3428 1669 3622 1275 
L 4263 0 
L 3584 0 
L 2988 1197 
Q 2756 1666 2539 1819 
Q 2322 1972 1947 1972 
L 1259 1972 
L 1259 0 
L 628 0 
L 628 4666 
L 2053 4666 
Q 2853 4666 3247 4331 
Q 3641 3997 3641 3322 
Q 3641 2881 3436 2590 
Q 3231 2300 2841 2188 
z
M 1259 4147 
L 1259 2491 
L 2053 2491 
Q 2509 2491 2742 2702 
Q 2975 2913 2975 3322 
Q 2975 3731 2742 3939 
Q 2509 4147 2053 4147 
L 1259 4147 
z
" transform="scale(0.015625)"/>
      <path id="DejaVuSans-61" d="M 2194 1759 
Q 1497 1759 1228 1600 
Q 959 1441 959 1056 
Q 959 750 1161 570 
Q 1363 391 1709 391 
Q 2188 391 2477 730 
Q 2766 1069 2766 1631 
L 2766 1759 
L 2194 1759 
z
M 3341 1997 
L 3341 0 
L 2766 0 
L 2766 531 
Q 2569 213 2275 61 
Q 1981 -91 1556 -91 
Q 1019 -91 701 211 
Q 384 513 384 1019 
Q 384 1609 779 1909 
Q 1175 2209 1959 2209 
L 2766 2209 
L 2766 2266 
Q 2766 2663 2505 2880 
Q 2244 3097 1772 3097 
Q 1472 3097 1187 3025 
Q 903 2953 641 2809 
L 641 3341 
Q 956 3463 1253 3523 
Q 1550 3584 1831 3584 
Q 2591 3584 2966 3190 
Q 3341 2797 3341 1997 
z
" transform="scale(0.015625)"/>
      <path id="DejaVuSans-6c" d="M 603 4863 
L 1178 4863 
L 1178 0 
L 603 0 
L 603 4863 
z
" transform="scale(0.015625)"/>
     </defs>
     <use xlink:href="#DejaVuSans-50"/>
     <use xlink:href="#DejaVuSans-72" transform="translate(58.552734 0)"/>
     <use xlink:href="#DejaVuSans-65" transform="translate(97.416016 0)"/>
     <use xlink:href="#DejaVuSans-63" transform="translate(158.939453 0)"/>
     <use xlink:href="#DejaVuSans-69" transform="translate(213.919922 0)"/>
     <use xlink:href="#DejaVuSans-73" transform="translate(241.703125 0)"/>
     <use xlink:href="#DejaVuSans-69" transform="translate(293.802734 0)"/>
     <use xlink:href="#DejaVuSans-6f" transform="translate(321.585938 0)"/>
     <use xlink:href="#DejaVuSans-6e" transform="translate(382.767578 0)"/>
     <use xlink:href="#DejaVuSans-20" transform="translate(446.146484 0)"/>
     <use xlink:href="#DejaVuSans-52" transform="translate(477.933594 0)"/>
     <use xlink:href="#DejaVuSans-65" transform="translate(542.916016 0)"/>
     <use xlink:href="#DejaVuSans-63" transform="translate(604.439453 0)"/>
     <use xlink:href="#DejaVuSans-61" transform="translate(659.419922 0)"/>
     <use xlink:href="#DejaVuSans-6c" transform="translate(720.699219 0)"/>
     <use xlink:href="#DejaVuSans-6c" transform="translate(748.482422 0)"/>
    </g>
   </g>
  </g>
 </g>
 <defs>
  <clipPath id="pb8cf49bc96">
   <rect x="57.6" y="41.472" width="357.12" height="266.112"/>
  </clipPath>
 </defs>
</svg>
