<?xml version="1.0" encoding="utf-8" standalone="no"?>
<!DOCTYPE svg PUBLIC "-//W3C//DTD SVG 1.1//EN"
  "http://www.w3.org/Graphics/SVG/1.1/DTD/svg11.dtd">
<svg xmlns:xlink="http://www.w3.org/1999/xlink" width="460.8pt" height="345.6pt" viewBox="0 0 460.8 345.6" xmlns="http://www.w3.org/2000/svg" version="1.1">
 <metadata>
  <rdf:RDF xmlns:dc="http://purl.org/dc/elements/1.1/" xmlns:cc="http://creativecommons.org/ns#" xmlns:rdf="http://www.w3.org/1999/02/22-rdf-syntax-ns#">
   <cc:Work>
    <dc:type rdf:resource="http://purl.org/dc/dcmitype/StillImage"/>
    <dc:date>2026-03-16T23:28:57.194724</dc:date>
    <dc:format>image/svg+xml</dc:format>
    <dc:creator>
     <cc:Agent>
      <dc:title>Matplotlib v3.10.8, https://matplotlib.org/</dc:title>
     </cc:Agent>
    </dc:creator>
   </cc:Work>
  </rdf:RDF>
 </metadata>
 <defs>
  <style type="text/css">*{stroke-linejoin: round; stroke-linecap: butt}</style>
 </defs>
 <g id="figure_1">
  <g id="patch_1">
   <path d="M 0 345.6 
L 460.8 345.6 
L 460.8 0 
L 0 0 
z
" style="fill: #ffffff"/>
  </g>
  <g id="axes_1">
   <g id="patch_2">
    <path d="M 57.6 307.584 
L 414.72 307.584 
L 414.72 41.472 
L 57.6 41.472 
z
" style="fill: #ffffff"/>
   </g>
   <g id="matplotlib.axis_1">
    <g id="xtick_1">
     <g id="line2d_1">
      <defs>
       <path id="mff2f29173a" d="M 0 0 
L 0 3.5 
" style="stroke: #000000; stroke-width: 0.8"/>
      </defs>
      <g>
       <use xlink:href="#mff2f29173a" x="73.832727" y="307.584" style="stroke: #000000; stroke-width: 0.8"/>
      </g>
     </g>
     <g id="text_1">
      <!-- 0.0 -->
      <g transform="translate(65.881165 322.182437) scale(0.1 -0.1)">
       <defs>
        <path id="DejaVuSans-30" d="M 2034 4250 
Q 1547 4250 1301 3770 
Q 1056 3291 1056 2328 
Q 1056 1369 1301 889 
Q 1547 409 2034 409 
Q 2525 409 2770 889 
Q 3016 1369 3016 2328 
Q 3016 3291 2770 3770 
Q 2525 4250 2034 4250 
z
M 2034 4750 
Q 2819 4750 3233 4129 
Q 3647 3509 3647 2328 
Q 3647 1150 3233 529 
Q 2819 -91 2034 -91 
Q 1250 -91 836 529 
Q 422 1150 422 2328 
Q 422 3509 836 4129 
Q 1250 4750 2034 4750 
z
" transform="scale(0.015625)"/>
        <path id="DejaVuSans-2e" d="M 684 794 
L 1344 794 
L 1344 0 
L 684 0 
L 684 794 
z
" transform="scale(0.015625)"/>
       </defs>
       <use xlink:href="#DejaVuSans-30"/>
       <use xlink:href="#DejaVuSans-2e" transform="translate(63.623047 0)"/>
       <use xlink:href="#DejaVuSans-30" transform="translate(95.410156 0)"/>
      </g>
     </g>
    </g>
    <g id="xtick_2">
     <g id="line2d_2">
      <g>
       <use xlink:href="#mff2f29173a" x="138.763636" y="307.584" style="stroke: #000000; stroke-width: 0.8"/>
      </g>
     </g>
     <g id="text_2">
      <!-- 0.2 -->
      <g transform="translate(130.812074 322.182437) scale(0.1 -0.1)">
       <defs>
        <path id="DejaVuSans-32" d="M 1228 531 
L 3431 531 
L 3431 0 
L 469 0 
L 469 531 
Q 828 903 1448 1529 
Q 2069 2156 2228 2338 
Q 2531 2678 2651 2914 
Q 2772 3150 2772 3378 
Q 2772 3750 2511 3984 
Q 2250 4219 1831 4219 
Q 1534 4219 1204 4116 
Q 875 4013 500 3803 
L 500 4441 
Q 881 4594 1212 4672 
Q 1544 4750 1819 4750 
Q 2544 4750 2975 4387 
Q 3406 4025 3406 3419 
Q 3406 3131 3298 2873 
Q 3191 2616 2906 2266 
Q 2828 2175 2409 1742 
Q 1991 1309 1228 531 
z
" transform="scale(0.015625)"/>
       </defs>
       <use xlink:href="#DejaVuSans-30"/>
       <use xlink:href="#DejaVuSans-2e" transform="translate(63.623047 0)"/>
       <use xlink:href="#DejaVuSans-32" transform="translate(95.410156 0)"/>
      </g>
     </g>
    </g>
    <g id="xtick_3">
     <g id="line2d_3">
      <g>
       <use xlink:href="#mff2f29173a" x="203.694545" y="307.584" style="stroke: #000000; stroke-width: 0.8"/>
      </g>
     </g>
     <g id="text_3">
      <!-- 0.4 -->
      <g transform="translate(195.742983 322.182437) scale(0.1 -0.1)">
       <defs>
        <path id="DejaVuSans-34" d="M 2419 4116 
L 825 1625 
L 2419 1625 
L 2419 4116 
z
M 2253 4666 
L 3047 4666 
L 3047 1625 
L 3713 1625 
L 3713 1100 
L 3047 1100 
L 3047 0 
L 2419 0 
L 2419 1100 
L 313 1100 
L 313 1709 
L 2253 4666 
z
" transform="scale(0.015625)"/>
       </defs>
       <use xlink:href="#DejaVuSans-30"/>
       <use xlink:href="#DejaVuSans-2e" transform="translate(63.623047 0)"/>
       <use xlink:href="#DejaVuSans-34" transform="translate(95.410156 0)"/>
      </g>
     </g>
    </g>
    <g id="xtick_4">
     <g id="line2d_4">
      <g>
       <use xlink:href="#mff2f29173a" x="268.625455" y="307.584" style="stroke: #000000; stroke-width: 0.8"/>
      </g>
     </g>
     <g id="text_4">
      <!-- 0.6 -->
      <g transform="translate(260.673892 322.182437) scale(0.1 -0.1)">
       <defs>
        <path id="DejaVuSans-36" d="M 2113 2584 
Q 1688 2584 1439 2293 
Q 1191 2003 1191 1497 
Q 1191 994 1439 701 
Q 1688 409 2113 409 
Q 2538 409 2786 701 
Q 3034 994 3034 1497 
Q 3034 2003 2786 2293 
Q 2538 2584 2113 2584 
z
M 3366 4563 
L 3366 3988 
Q 3128 4100 2886 4159 
Q 2644 4219 2406 4219 
Q 1781 4219 1451 3797 
Q 1122 3375 1075 2522 
Q 1259 2794 1537 2939 
Q 1816 3084 2150 3084 
Q 2853 3084 3261 2657 
Q 3669 2231 3669 1497 
Q 3669 778 3244 343 
Q 2819 -91 2113 -91 
Q 1303 -91 875 529 
Q 447 1150 447 2328 
Q 447 3434 972 4092 
Q 1497 4750 2381 4750 
Q 2619 4750 2861 4703 
Q 3103 4656 3366 4563 
z
" transform="scale(0.015625)"/>
       </defs>
       <use xlink:href="#DejaVuSans-30"/>
       <use xlink:href="#DejaVuSans-2e" transform="translate(63.623047 0)"/>
       <use xlink:href="#DejaVuSans-36" transform="translate(95.410156 0)"/>
      </g>
     </g>
    </g>
    <g id="xtick_5">
     <g id="line2d_5">
      <g>
       <use xlink:href="#mff2f29173a" x="333.556364" y="307.584" style="stroke: #000000; stroke-width: 0.8"/>
      </g>
     </g>
     <g id="text_5">
      <!-- 0.8 -->
      <g transform="translate(325.604801 322.182437) scale(0.1 -0.1)">
       <defs>
        <path id="DejaVuSans-38" d="M 2034 2216 
Q 1584 2216 1326 1975 
Q 1069 1734 1069 1313 
Q 1069 891 1326 650 
Q 1584 409 2034 409 
Q 2484 409 2743 651 
Q 3003 894 3003 1313 
Q 3003 1734 2745 1975 
Q 2488 2216 2034 2216 
z
M 1403 2484 
Q 997 2584 770 2862 
Q 544 3141 544 3541 
Q 544 4100 942 4425 
Q 1341 4750 2034 4750 
Q 2731 4750 3128 4425 
Q 3525 4100 3525 3541 
Q 3525 3141 3298 2862 
Q 3072 2584 2669 2484 
Q 3125 2378 3379 2068 
Q 3634 1759 3634 1313 
Q 3634 634 3220 271 
Q 2806 -91 2034 -91 
Q 1263 -91 848 271 
Q 434 634 434 1313 
Q 434 1759 690 2068 
Q 947 2378 1403 2484 
z
M 1172 3481 
Q 1172 3119 1398 2916 
Q 1625 2713 2034 2713 
Q 2441 2713 2670 2916 
Q 2900 3119 2900 3481 
Q 2900 3844 2670 4047 
Q 2441 4250 2034 4250 
Q 1625 4250 1398 4047 
Q 1172 3844 1172 3481 
z
" transform="scale(0.015625)"/>
       </defs>
       <use xlink:href="#DejaVuSans-30"/>
       <use xlink:href="#DejaVuSans-2e" transform="translate(63.623047 0)"/>
       <use xlink:href="#DejaVuSans-38" transform="translate(95.410156 0)"/>
      </g>
     </g>
    </g>
    <g id="xtick_6">
     <g id="line2d_6">
      <g>
       <use xlink:href="#mff2f29173a" x="398.487273" y="307.584" style="stroke: #000000; stroke-width: 0.8"/>
      </g>
     </g>
     <g id="text_6">
      <!-- 1.0 -->
      <g transform="translate(390.53571 322.182437) scale(0.1 -0.1)">
       <defs>
        <path id="DejaVuSans-31" d="M 794 531 
L 1825 531 
L 1825 4091 
L 703 3866 
L 703 4441 
L 1819 4666 
L 2450 4666 
L 2450 531 
L 3481 531 
L 3481 0 
L 794 0 
L 794 531 
z
" transform="scale(0.015625)"/>
       </defs>
       <use xlink:href="#DejaVuSans-31"/>
       <use xlink:href="#DejaVuSans-2e" transform="translate(63.623047 0)"/>
       <use xlink:href="#DejaVuSans-30" transform="translate(95.410156 0)"/>
      </g>
     </g>
    </g>
   </g>
   <g id="matplotlib.axis_2">
    <g id="ytick_1">
     <g id="line2d_7">
      <defs>
       <path id="mc49b67920a" d="M 0 0 
L -3.5 0 
" style="stroke: #000000; stroke-width: 0.8"/>
      </defs>
      <g>
       <use xlink:href="#mc49b67920a" x="57.6" y="278.405695" style="stroke: #000000; stroke-width: 0.8"/>
      </g>
     </g>
     <g id="text_7">
      <!-- 0.5 -->
      <g transform="translate(34.696875 282.204913) scale(0.1 -0.1)">
       <defs>
        <path id="DejaVuSans-35" d="M 691 4666 
L 3169 4666 
L 3169 4134 
L 1269 4134 
L 1269 2991 
Q 1406 3038 1543 3061 
Q 1681 3084 1819 3084 
Q 2600 3084 3056 2656 
Q 3513 2228 3513 1497 
Q 3513 744 3044 326 
Q 2575 -91 1722 -91 
Q 1428 -91 1123 -41 
Q 819 9 494 109 
L 494 744 
Q 775 591 1075 516 
Q 1375 441 1709 441 
Q 2250 441 2565 725 
Q 2881 1009 2881 1497 
Q 2881 1984 2565 2268 
Q 2250 2553 1709 2553 
Q 1456 2553 1204 2497 
Q 953 2441 691 2322 
L 691 4666 
z
" transform="scale(0.015625)"/>
       </defs>
       <use xlink:href="#DejaVuSans-30"/>
       <use xlink:href="#DejaVuSans-2e" transform="translate(63.623047 0)"/>
       <use xlink:href="#DejaVuSans-35" transform="translate(95.410156 0)"/>
      </g>
     </g>
    </g>
    <g id="ytick_2">
     <g id="line2d_8">
      <g>
       <use xlink:href="#mc49b67920a" x="57.6" y="233.438156" style="stroke: #000000; stroke-width: 0.8"/>
      </g>
     </g>
     <g id="text_8">
      <!-- 0.6 -->
      <g transform="translate(34.696875 237.237374) scale(0.1 -0.1)">
       <use xlink:href="#DejaVuSans-30"/>
       <use xlink:href="#DejaVuSans-2e" transform="translate(63.623047 0)"/>
       <use xlink:href="#DejaVuSans-36" transform="translate(95.410156 0)"/>
      </g>
     </g>
    </g>
    <g id="ytick_3">
     <g id="line2d_9">
      <g>
       <use xlink:href="#mc49b67920a" x="57.6" y="188.470617" style="stroke: #000000; stroke-width: 0.8"/>
      </g>
     </g>
     <g id="text_9">
      <!-- 0.7 -->
      <g transform="translate(34.696875 192.269836) scale(0.1 -0.1)">
       <defs>
        <path id="DejaVuSans-37" d="M 525 4666 
L 3525 4666 
L 3525 4397 
L 1831 0 
L 1172 0 
L 2766 4134 
L 525 4134 
L 525 4666 
z
" transform="scale(0.015625)"/>
       </defs>
       <use xlink:href="#DejaVuSans-30"/>
       <use xlink:href="#DejaVuSans-2e" transform="translate(63.623047 0)"/>
       <use xlink:href="#DejaVuSans-37" transform="translate(95.410156 0)"/>
      </g>
     </g>
    </g>
    <g id="ytick_4">
     <g id="line2d_10">
      <g>
       <use xlink:href="#mc49b67920a" x="57.6" y="143.503078" style="stroke: #000000; stroke-width: 0.8"/>
      </g>
     </g>
     <g id="text_10">
      <!-- 0.8 -->
      <g transform="translate(34.696875 147.302297) scale(0.1 -0.1)">
       <use xlink:href="#DejaVuSans-30"/>
       <use xlink:href="#DejaVuSans-2e" transform="translate(63.623047 0)"/>
       <use xlink:href="#DejaVuSans-38" transform="translate(95.410156 0)"/>
      </g>
     </g>
    </g>
    <g id="ytick_5">
     <g id="line2d_11">
      <g>
       <use xlink:href="#mc49b67920a" x="57.6" y="98.535539" style="stroke: #000000; stroke-width: 0.8"/>
      </g>
     </g>
     <g id="text_11">
      <!-- 0.9 -->
      <g transform="translate(34.696875 102.334758) scale(0.1 -0.1)">
       <defs>
        <path id="DejaVuSans-39" d="M 703 97 
L 703 672 
Q 941 559 1184 500 
Q 1428 441 1663 441 
Q 2288 441 2617 861 
Q 2947 1281 2994 2138 
Q 2813 1869 2534 1725 
Q 2256 1581 1919 1581 
Q 1219 1581 811 2004 
Q 403 2428 403 3163 
Q 403 3881 828 4315 
Q 1253 4750 1959 4750 
Q 2769 4750 3195 4129 
Q 3622 3509 3622 2328 
Q 3622 1225 3098 567 
Q 2575 -91 1691 -91 
Q 1453 -91 1209 -44 
Q 966 3 703 97 
z
M 1959 2075 
Q 2384 2075 2632 2365 
Q 2881 2656 2881 3163 
Q 2881 3666 2632 3958 
Q 2384 4250 1959 4250 
Q 1534 4250 1286 3958 
Q 1038 3666 1038 3163 
Q 1038 2656 1286 2365 
Q 1534 2075 1959 2075 
z
" transform="scale(0.015625)"/>
       </defs>
       <use xlink:href="#DejaVuSans-30"/>
       <use xlink:href="#DejaVuSans-2e" transform="translate(63.623047 0)"/>
       <use xlink:href="#DejaVuSans-39" transform="translate(95.410156 0)"/>
      </g>
     </g>
    </g>
    <g id="ytick_6">
     <g id="line2d_12">
      <g>
       <use xlink:href="#mc49b67920a" x="57.6" y="53.568" style="stroke: #000000; stroke-width: 0.8"/>
      </g>
     </g>
     <g id="text_12">
      <!-- 1.0 -->
      <g transform="translate(34.696875 57.367219) scale(0.1 -0.1)">
       <use xlink:href="#DejaVuSans-31"/>
       <use xlink:href="#DejaVuSans-2e" transform="translate(63.623047 0)"/>
       <use xlink:href="#DejaVuSans-30" transform="translate(95.410156 0)"/>
      </g>
     </g>
    </g>
   </g>
   <g id="line2d_13">
    <path d="M 398.487273 295.488 
L 398.376286 243.939648 
L 398.375973 243.939754 
L 398.375348 243.822806 
L 398.264361 240.941677 
L 398.264048 240.941782 
L 398.254043 240.82803 
L 398.143056 239.666606 
L 398.142431 239.666519 
L 398.126174 239.555466 
L 398.125861 239.555273 
L 398.014874 238.666121 
L 398.014561 238.666226 
L 397.994552 238.555795 
L 397.883565 237.695937 
L 397.871685 237.581862 
L 397.760698 236.453093 
L 397.75976 236.452796 
L 397.748192 236.340361 
L 397.637205 234.977489 
L 397.63658 234.977698 
L 397.626888 234.863911 
L 397.515901 234.097734 
L 397.515588 234.097838 
L 397.502457 233.991079 
L 397.499956 233.985996 
L 397.388969 233.006421 
L 397.373337 232.891216 
L 397.26235 232.09156 
L 397.262037 232.091664 
L 397.251408 231.978511 
L 397.250782 231.978403 
L 397.139795 231.269137 
L 397.139483 231.26924 
L 397.121975 231.158094 
L 397.010988 230.40841 
L 397.010675 230.408513 
L 396.999107 230.296041 
L 396.998169 230.295711 
L 396.887182 229.502457 
L 396.870612 229.38646 
L 396.759625 228.471911 
L 396.759313 228.472015 
L 396.746494 228.363401 
L 396.745244 228.35991 
L 396.634257 227.476098 
L 396.501072 226.519062 
L 396.390085 225.688135 
L 396.388834 225.68672 
L 396.368513 225.57829 
L 396.257526 224.725635 
L 396.256588 224.724103 
L 396.236579 224.615716 
L 396.125592 224.029829 
L 396.076195 223.70928 
L 395.965207 222.990359 
L 395.939884 222.871463 
L 395.828897 221.96683 
L 395.797633 221.803042 
L 395.686645 221.056632 
L 395.686333 221.056734 
L 395.672577 220.944552 
L 395.561589 220.204064 
L 395.536578 220.044361 
L 395.425904 219.280625 
L 395.407145 219.162205 
L 395.376507 218.934324 
L 395.26552 218.152838 
L 395.249888 218.035149 
L 395.1389 217.211971 
L 395.12577 217.09455 
L 395.014782 216.347972 
L 395.01447 216.348073 
L 394.998213 216.236934 
L 394.97539 216.015341 
L 394.864715 215.137042 
L 394.864403 215.137143 
L 394.86409 215.137244 
L 394.851585 215.024561 
L 394.74091 214.010871 
L 394.740597 214.010971 
L 394.740285 214.011072 
L 394.721214 213.901525 
L 394.720901 213.900899 
L 394.609914 213.0736 
L 394.609601 213.0737 
L 394.600847 212.960214 
L 394.600535 212.959949 
L 394.489548 212.418854 
L 394.487359 212.417171 
L 394.474228 212.307264 
L 394.363241 211.632018 
L 394.361053 211.626631 
L 394.346359 211.521349 
L 394.346046 211.520895 
L 394.235059 210.759602 
L 394.225367 210.641798 
L 394.11438 209.839993 
L 394.113755 209.839818 
L 394.091245 209.732759 
L 394.090619 209.731088 
L 393.979632 209.037762 
L 393.979319 209.037862 
L 393.964938 208.949541 
L 393.956809 208.92861 
L 393.845822 208.086 
L 393.84551 208.086099 
L 393.83488 207.977187 
L 393.833317 207.973515 
L 393.72233 207.141146 
L 393.721392 207.140109 
L 393.70576 207.031813 
L 393.705134 207.030103 
L 393.594147 206.236045 
L 393.57195 206.11352 
L 393.460963 205.085489 
L 393.46065 205.085587 
L 393.448144 204.973642 
L 393.447832 204.973159 
L 393.336845 204.204208 
L 393.335907 204.204307 
L 393.320587 204.100292 
L 393.318086 204.093676 
L 393.207099 203.384553 
L 393.206787 203.384651 
L 393.196782 203.271465 
L 393.196469 203.271563 
L 393.085795 202.577563 
L 393.085482 202.577661 
L 393.062347 202.453903 
L 392.95136 201.550329 
L 392.929788 201.426698 
L 392.818801 200.814318 
L 392.804106 200.692635 
L 392.693119 199.973726 
L 392.692807 199.973823 
L 392.681552 199.861149 
L 392.570565 198.857052 
L 392.570252 198.857148 
L 392.556808 198.745246 
L 392.445821 197.951534 
L 392.445509 197.95163 
L 392.431127 197.84171 
L 392.430502 197.84007 
L 392.319515 197.165589 
L 392.319202 197.165685 
L 392.306697 197.053315 
L 392.195709 196.399074 
L 392.195084 196.398649 
L 392.178827 196.288229 
L 392.06909 195.62256 
L 392.06784 195.622735 
L 392.067214 195.622099 
L 392.040015 195.515203 
L 391.929028 194.915824 
L 391.926214 194.913357 
L 391.905892 194.807507 
L 391.90558 194.806979 
L 391.794593 194.217279 
L 391.79428 194.217374 
L 391.77302 194.107898 
L 391.772708 194.107993 
L 391.661721 193.536105 
L 391.660157 193.535949 
L 391.642337 193.436615 
L 391.639211 193.426854 
L 391.528223 192.927843 
L 391.527911 192.927937 
L 391.50884 192.817759 
L 391.397853 192.271273 
L 391.39754 192.271368 
L 391.373779 192.164173 
L 391.373154 192.162666 
L 391.262167 191.601705 
L 391.258103 191.593145 
L 391.236843 191.496551 
L 391.235905 191.493641 
L 391.124918 190.944315 
L 391.098656 190.815373 
L 390.987669 190.257806 
L 390.961095 190.128492 
L 390.850108 189.531296 
L 390.84917 189.529418 
L 390.825722 189.424154 
L 390.823533 189.423297 
L 390.712546 188.915053 
L 390.711921 188.91524 
L 390.688786 188.807426 
L 390.688473 188.806435 
L 390.577486 188.311866 
L 390.54122 188.177824 
L 390.430232 187.584354 
L 390.401157 187.452886 
L 390.290483 186.881136 
L 390.29017 186.881228 
L 390.289232 186.880847 
L 390.267035 186.77392 
L 390.266409 186.772565 
L 390.155422 186.305952 
L 390.153546 186.302533 
L 390.131974 186.197373 
L 390.131661 186.197245 
L 390.020674 185.738062 
L 390.020362 185.738154 
L 390.000353 185.629857 
L 389.999727 185.628489 
L 389.889053 185.062089 
L 389.88874 185.062181 
L 389.888428 185.062273 
L 389.878736 185.006098 
L 389.862479 184.954283 
L 389.751491 184.380157 
L 389.749928 184.37726 
L 389.727418 184.271721 
L 389.727106 184.271589 
L 389.616118 183.783061 
L 389.607365 183.766525 
L 389.587668 183.681479 
L 389.585167 183.676365 
L 389.47418 183.263855 
L 389.455422 183.203923 
L 389.447918 183.163016 
L 389.444792 183.156707 
L 389.334117 182.827937 
L 389.333805 182.828028 
L 389.256583 182.569082 
L 389.145596 182.160838 
L 389.131214 182.120009 
L 389.121522 182.068703 
L 389.114019 182.054509 
L 389.003344 181.642897 
L 389.003032 181.642988 
L 388.979271 181.593984 
L 388.968329 181.53758 
L 388.857342 181.152523 
L 388.853277 181.145001 
L 388.837958 181.075011 
L 388.827954 181.045378 
L 388.789811 180.906968 
L 388.678824 180.544103 
L 388.640057 180.405316 
L 388.52907 180.004501 
L 388.523442 179.991353 
L 388.504997 179.910083 
L 388.499682 179.897757 
L 388.388695 179.514549 
L 388.32304 179.2636 
L 388.212053 178.867043 
L 388.206738 178.852747 
L 388.186417 178.758951 
L 388.07543 178.345158 
L 386.902092 173.901342 
L 386.744522 173.330666 
L 386.633535 172.91182 
L 386.56788 172.6491 
L 386.456893 172.221217 
L 386.390926 171.956701 
L 386.279939 171.535101 
L 386.213034 171.26798 
L 386.102047 170.83897 
L 385.900707 170.163646 
L 385.790658 169.727961 
L 385.762208 169.588245 
L 385.651221 169.091422 
L 385.615892 168.948458 
L 385.504905 168.521757 
L 385.475517 168.406561 
L 385.365155 167.961862 
L 385.36453 167.962033 
L 385.287933 167.675364 
L 385.176946 167.238192 
L 385.1016 166.951864 
L 384.779268 165.651065 
L 384.668594 165.196071 
L 384.610755 164.987097 
L 384.500081 164.550876 
L 384.473506 164.439889 
L 384.362519 163.976696 
L 384.326878 163.830265 
L 384.215891 163.380488 
L 384.214641 163.378753 
L 384.194319 163.271336 
L 384.083957 162.85561 
L 384.083332 162.855776 
L 384.081143 162.854542 
L 384.076141 162.823157 
L 384.053944 162.748806 
L 383.942957 162.29172 
L 383.909192 162.145284 
L 383.798204 161.699227 
L 383.646887 161.086671 
L 383.5359 160.662372 
L 383.514015 160.600674 
L 383.503385 160.556549 
L 383.430853 160.26025 
L 383.320178 159.786055 
L 383.319866 159.786137 
L 383.277034 159.632444 
L 383.166047 159.16225 
L 383.132282 159.013459 
L 383.021295 158.564902 
L 383.015042 158.555576 
L 383.002224 158.483286 
L 382.995033 158.457089 
L 382.884358 157.956986 
L 382.884046 157.957067 
L 382.879043 157.944417 
L 382.869352 157.875296 
L 382.856846 157.849553 
L 382.745859 157.369132 
L 382.727726 157.308648 
L 382.739606 157.339513 
L 382.718347 157.262041 
L 382.560776 156.614142 
L 382.450727 156.19914 
L 382.449789 156.19938 
L 382.418838 156.094681 
L 382.418525 156.09286 
L 382.307538 155.584145 
L 382.294407 155.542002 
L 382.28534 155.493082 
L 382.2794 155.476881 
L 382.168413 155.033995 
L 382.159347 155.007048 
L 382.167475 155.025211 
L 382.140276 154.926566 
L 382.029288 154.461295 
L 382.019284 154.431998 
L 382.007404 154.356219 
L 382.006153 154.352692 
L 381.895166 153.897043 
L 381.892665 153.89134 
L 381.881722 153.832672 
L 381.868279 153.790324 
L 381.416202 151.930151 
L 381.305215 151.435315 
L 381.228305 151.112654 
L 381.117318 150.574954 
L 381.11044 150.549358 
L 381.104813 150.514158 
L 381.09262 150.467057 
L 380.981633 149.933408 
L 380.910976 149.617334 
L 380.799989 149.108322 
L 380.771539 148.956149 
L 380.660864 148.409878 
L 380.627099 148.253696 
L 380.516112 147.761835 
L 380.507671 147.743257 
L 380.498291 147.684781 
L 380.490163 147.654363 
L 380.379176 147.172765 
L 380.32165 146.871778 
L 380.210663 146.34184 
L 380.21035 146.341915 
L 380.192842 146.231905 
L 380.081855 145.747774 
L 380.075915 145.717567 
L 380.051842 145.640888 
L 379.940855 145.192569 
L 379.787348 144.495428 
L 379.676361 143.940737 
L 379.674798 143.937878 
L 379.654164 143.838237 
L 379.652288 143.832512 
L 379.541614 143.321761 
L 379.541301 143.321834 
L 379.476897 143.001936 
L 379.36591 142.508728 
L 379.342149 142.413565 
L 379.360595 142.478578 
L 379.339961 142.400742 
L 379.228974 141.904255 
L 379.225222 141.89502 
L 379.215218 141.828069 
L 379.206151 141.795675 
L 379.095477 141.254037 
L 379.095164 141.25411 
L 379.094851 141.254182 
L 379.087661 141.203609 
L 379.070778 141.146 
L 378.959791 140.595114 
L 378.951037 140.568357 
L 378.93603 140.488465 
L 378.93478 140.487253 
L 378.824105 139.978928 
L 378.823793 139.979 
L 378.78909 139.815986 
L 378.678102 139.335564 
L 378.647776 139.213148 
L 378.536789 138.648506 
L 378.511153 138.540831 
L 378.526472 138.588955 
L 378.511153 138.540528 
L 378.400166 137.980301 
L 378.390161 137.949961 
L 378.383908 137.903536 
L 378.373904 137.872571 
L 378.262917 137.407625 
L 378.259165 137.398378 
L 378.243846 137.303354 
L 378.241345 137.298715 
L 378.130358 136.766543 
L 378.119103 136.721787 
L 378.111287 136.667041 
L 378.10691 136.658189 
L 377.995922 136.103039 
L 377.994672 136.100851 
L 377.981854 136.011848 
L 377.977164 135.993463 
L 377.866177 135.503551 
L 377.835851 135.399794 
L 377.865552 135.496267 
L 377.835851 135.3967 
L 377.724864 134.8855 
L 377.704855 134.799835 
L 377.718924 134.848614 
L 377.701103 134.77705 
L 377.590116 134.215362 
L 377.586677 134.20489 
L 377.573546 134.120134 
L 377.568856 134.106496 
L 377.457869 133.56574 
L 377.449428 133.539089 
L 377.444738 133.50035 
L 377.432546 133.457589 
L 377.321558 132.943349 
L 377.321246 132.943416 
L 377.315306 132.894741 
L 377.299048 132.834756 
L 377.188061 132.313594 
L 377.180558 132.292495 
L 377.169303 132.217303 
L 377.165551 132.204853 
L 377.054564 131.651695 
L 377.054251 131.651762 
L 377.045497 131.594409 
L 377.033617 131.542769 
L 376.922943 130.917455 
L 376.92263 130.917521 
L 376.922005 130.916381 
L 376.903246 130.814417 
L 376.900745 130.808581 
L 376.789758 130.304835 
L 376.789133 130.304328 
L 376.774126 130.207226 
L 376.770062 130.195624 
L 376.659075 129.740385 
L 376.649695 129.693333 
L 376.633126 129.632384 
L 376.522451 129.14154 
L 376.522138 129.141605 
L 376.495877 129.039012 
L 376.520575 129.13325 
L 376.495251 129.033995 
L 376.384264 128.577328 
L 376.360191 128.488402 
L 376.357377 128.470262 
L 376.246703 128.014649 
L 376.24639 128.014714 
L 376.222942 127.920449 
L 376.241701 127.981686 
L 376.221379 127.906518 
L 376.110392 127.453081 
L 376.093509 127.382131 
L 376.101013 127.403669 
L 376.086006 127.344664 
L 375.975019 126.870878 
L 375.949382 126.76326 
L 375.973768 126.864286 
L 375.949382 126.762934 
L 375.83902 126.271093 
L 375.838395 126.271219 
L 375.83777 126.270691 
L 375.822138 126.16225 
L 375.8212 126.161457 
L 375.710213 125.631617 
L 375.665193 125.447753 
L 375.554206 124.970766 
L 375.547015 124.950104 
L 375.53576 124.862295 
L 375.535135 124.861429 
L 375.424147 124.458295 
L 375.400387 124.363079 
L 375.416644 124.416777 
L 375.398511 124.350212 
L 375.287524 123.882562 
L 375.283147 123.850892 
L 375.260949 123.774567 
L 375.150275 123.366282 
L 375.124951 123.258987 
L 375.124951 123.258321 
L 375.013964 122.848943 
L 374.98739 122.745517 
L 375.013339 122.845724 
L 374.98739 122.741172 
L 374.876403 122.336666 
L 374.846702 122.230791 
L 374.872964 122.318231 
L 374.846702 122.229449 
L 374.735715 121.719242 
L 374.712267 121.619452 
L 374.730087 121.687696 
L 374.712267 121.610702 
L 374.60128 121.149681 
L 374.572517 121.042075 
L 374.461842 120.534825 
L 374.46153 120.534884 
L 374.441521 120.468545 
L 374.459966 120.526035 
L 374.434017 120.427264 
L 374.32303 120.015184 
L 374.30646 119.947952 
L 374.302083 119.906278 
L 374.191096 119.456905 
L 374.161708 119.358043 
L 374.160457 119.350089 
L 374.04947 118.921226 
L 374.023834 118.817526 
L 374.023209 118.813193 
L 373.912534 118.336684 
L 373.912221 118.336742 
L 373.892525 118.274461 
L 373.884396 118.228911 
L 373.773409 117.727146 
L 373.744334 117.621508 
L 373.744334 117.620129 
L 373.633659 117.175027 
L 373.633347 117.175084 
L 373.6124 117.099379 
L 373.607085 117.067145 
L 373.49641 116.687623 
L 373.496098 116.68768 
L 373.495785 116.682882 
L 373.461082 116.581305 
L 373.350095 116.157743 
L 373.309139 116.053422 
L 373.309139 116.052378 
L 373.198152 115.573149 
L 373.171578 115.466863 
L 373.171578 115.465117 
L 373.060591 115.070487 
L 373.034329 114.975686 
L 373.033078 114.962596 
L 372.922716 114.478297 
L 372.922091 114.478407 
L 372.909273 114.425495 
L 372.901457 114.369224 
L 372.79047 113.911674 
L 372.7467 113.716502 
L 372.635713 113.227557 
L 372.609139 113.127005 
L 372.608513 113.119676 
L 372.497839 112.695492 
L 372.497526 112.695545 
L 372.466575 112.590402 
L 372.466575 112.588271 
L 372.355588 112.250545 
L 372.320885 112.144281 
L 372.320885 112.143925 
L 372.209898 111.785462 
L 372.177071 111.682808 
L 372.176758 111.678573 
L 372.065771 111.307449 
L 372.035757 111.200385 
L 372.065145 111.301825 
L 372.035757 111.200026 
L 371.925083 110.84698 
L 371.92477 110.847033 
L 371.882251 110.752135 
L 371.922894 110.834059 
L 371.881626 110.741818 
L 371.770639 110.399889 
L 371.725306 110.295039 
L 371.614319 109.97004 
L 371.613694 109.964727 
L 371.584305 109.862667 
L 371.473318 109.516721 
L 371.444243 109.412473 
L 371.470505 109.497629 
L 371.44393 109.409263 
L 371.332943 109.048023 
L 371.299491 108.941966 
L 371.299491 108.941239 
L 371.188816 108.616973 
L 371.188503 108.617024 
L 371.149111 108.510869 
L 371.038124 108.232712 
L 370.998731 108.128072 
L 370.998731 108.126611 
L 370.887744 107.846529 
L 370.843974 107.742282 
L 370.843974 107.741183 
L 370.733613 107.413206 
L 370.732987 107.413306 
L 370.68828 107.309228 
L 370.68828 107.308127 
L 370.577293 107.05313 
L 370.534148 106.94777 
L 370.423161 106.652962 
L 370.389084 106.546585 
L 370.389084 106.546216 
L 370.278096 106.2823 
L 370.239954 106.176636 
L 370.239954 106.175896 
L 370.128967 105.903807 
L 370.089575 105.799516 
L 370.089575 105.797663 
L 369.978587 105.522917 
L 369.935443 105.41816 
L 369.935443 105.417417 
L 369.824456 105.118032 
L 369.78225 105.015412 
L 369.781937 105.01248 
L 369.67095 104.68754 
L 369.624992 104.58441 
L 369.624992 104.582542 
L 369.514005 104.271537 
L 369.375818 103.966555 
L 369.264831 103.690539 
L 369.160096 103.419768 
L 369.049109 103.1358 
L 369.010967 103.02986 
L 369.010967 103.029482 
L 368.900918 102.755867 
L 368.89998 102.756006 
L 368.856523 102.659626 
L 368.855273 102.650357 
L 368.744286 102.320757 
L 368.619542 102.025794 
L 368.50918 101.738317 
L 368.508555 101.738408 
L 368.472914 101.635552 
L 368.472914 101.632127 
L 368.361927 101.329396 
L 368.325348 101.222931 
L 368.325348 101.222549 
L 368.214361 100.926921 
L 367.64098 99.328741 
L 367.529993 99.007243 
L 367.491851 98.904971 
L 367.491538 98.900756 
L 367.380863 98.601088 
L 367.380551 98.601131 
L 367.286759 98.332659 
L 367.175772 98.044997 
L 367.138568 97.940692 
L 367.174834 98.037342 
L 367.138255 97.938009 
L 367.027268 97.627252 
L 366.991002 97.520547 
L 366.991002 97.520157 
L 366.880014 97.16424 
L 366.844686 97.057446 
L 366.879702 97.158414 
L 366.844686 97.057054 
L 366.733699 96.711347 
L 366.696182 96.607637 
L 366.696182 96.604496 
L 366.585195 96.274584 
L 366.542051 96.170103 
L 366.542051 96.168922 
L 366.431376 95.88682 
L 366.431064 95.886861 
L 366.396048 95.784952 
L 366.395423 95.77951 
L 366.284436 95.467763 
L 366.251296 95.361343 
L 366.251296 95.360157 
L 366.140309 95.047851 
L 366.030259 94.754561 
L 365.919272 94.431311 
L 365.823605 94.153192 
L 365.71293 93.861228 
L 365.712617 93.861267 
L 365.66916 93.755307 
L 365.66916 93.754907 
L 365.558173 93.412077 
L 365.525346 93.306843 
L 365.525346 93.30444 
L 365.414359 93.002653 
L 365.381532 92.895906 
L 365.381532 92.895103 
L 365.27117 92.570203 
L 365.270545 92.57028 
L 365.23803 92.462363 
L 365.127356 92.1377 
L 365.127043 92.137738 
L 365.0864 92.031281 
L 365.0864 92.030878 
L 364.975413 91.733141 
L 364.939147 91.627052 
L 364.939147 91.625838 
L 364.828159 91.297207 
L 364.789079 91.191524 
L 364.789079 91.190307 
L 364.678092 90.894788 
L 364.641201 90.788533 
L 364.67778 90.89198 
L 364.641201 90.787313 
L 364.530526 90.505542 
L 364.530214 90.505578 
L 364.494885 90.398022 
L 364.384211 90.102358 
L 364.383898 90.102394 
L 364.359512 90.000211 
L 364.3592 89.993708 
L 364.248213 89.725047 
L 364.206632 89.619235 
L 364.206632 89.618007 
L 364.095644 89.366624 
L 364.044059 89.261245 
L 364.044059 89.260834 
L 363.933072 88.944165 
L 363.895555 88.838094 
L 363.895555 88.836859 
L 363.785193 88.518734 
L 363.784568 88.518804 
L 363.742674 88.418668 
L 363.742361 88.4121 
L 363.631374 88.123242 
L 363.589168 88.017461 
L 363.589168 88.01622 
L 363.478181 87.78949 
L 363.426283 87.685733 
L 363.426283 87.68366 
L 363.315295 87.408141 
L 363.269025 87.30346 
L 363.269025 87.301798 
L 363.158976 87.069913 
L 363.158038 87.070014 
L 363.111454 86.963418 
L 363.000467 86.655072 
L 362.962012 86.553543 
L 362.962012 86.547698 
L 362.851025 86.205784 
L 362.800065 86.100624 
L 362.800065 86.099787 
L 362.689078 85.816755 
L 362.530257 85.443478 
L 362.419582 85.141737 
L 362.41927 85.141769 
L 362.374562 85.035091 
L 362.374562 85.034669 
L 362.263575 84.745981 
L 362.222932 84.639419 
L 362.222932 84.638574 
L 362.111945 84.390079 
L 362.061297 84.283799 
L 361.950935 84.044722 
L 361.95031 84.044784 
L 361.900288 83.938146 
L 361.678939 83.481254 
L 361.567952 83.240266 
L 361.518242 83.133759 
L 361.407255 82.900219 
L 361.356294 82.793968 
L 361.356294 82.79354 
L 361.245933 82.571285 
L 361.245307 82.571344 
L 361.187469 82.465455 
L 361.025522 82.078727 
L 360.915472 81.799242 
L 360.914534 81.799328 
L 360.858885 81.693432 
L 360.858885 81.693001 
L 360.748835 81.430803 
L 360.747897 81.430888 
L 360.6985 81.324105 
L 360.495597 80.881397 
L 360.384923 80.621063 
L 360.314579 80.449083 
L 360.203592 80.204421 
L 360.152006 80.097661 
L 360.041019 79.819219 
L 359.989746 79.712978 
L 359.989746 79.712542 
L 359.879384 79.439344 
L 359.878759 79.439397 
L 359.828424 79.332757 
L 359.828424 79.33232 
L 359.717437 79.086386 
L 359.679295 78.979736 
L 359.679295 78.978423 
L 359.568307 78.761626 
L 359.530165 78.653837 
L 359.530165 78.653398 
L 359.419178 78.408349 
L 359.369156 78.301249 
L 359.260045 78.100719 
L 359.258169 78.100871 
L 359.200956 77.994083 
L 359.090906 77.745891 
L 359.089969 77.745967 
L 359.025252 77.640349 
L 359.025252 77.639907 
L 358.914265 77.417178 
L 358.85799 77.313688 
L 358.85799 77.311033 
L 358.747003 77.093019 
L 358.683849 76.987565 
L 358.683849 76.986678 
L 358.573175 76.780925 
L 358.572862 76.780949 
L 358.509709 76.674763 
L 358.398722 76.456025 
L 358.33213 76.351582 
L 358.33213 76.3498 
L 358.221143 76.119761 
L 358.172996 76.013626 
L 358.172996 76.012287 
L 358.062634 75.790515 
L 358.062009 75.790561 
L 358.005734 75.684301 
L 358.005734 75.683407 
L 357.895059 75.481211 
L 357.894747 75.481234 
L 357.828467 75.377668 
L 357.828467 75.374979 
L 357.71748 75.195154 
L 357.676837 75.086773 
L 357.56585 74.905597 
L 357.504885 74.799319 
L 357.504885 74.798869 
L 357.39421 74.646032 
L 357.393898 74.646054 
L 357.319802 74.540452 
L 357.319802 74.540001 
L 357.208815 74.361981 
L 357.129092 74.256487 
L 357.018105 74.106938 
L 356.93588 74.001348 
L 355.687197 72.469324 
L 355.60466 72.363338 
L 355.494924 72.240169 
L 355.493673 72.240248 
L 355.391127 72.135734 
L 355.28014 72.001764 
L 354.607027 71.246621 
L 354.525428 71.140593 
L 354.415066 71.018118 
L 354.41444 71.018156 
L 353.877951 70.44891 
L 353.74289 70.345529 
L 353.633154 70.263838 
L 353.631903 70.26391 
L 353.497468 70.160691 
L 353.386481 70.070458 
L 353.2608 69.966468 
L 353.150125 69.862425 
L 353.149812 69.862443 
L 353.021943 69.759228 
L 353.021943 69.758761 
L 352.914707 69.674862 
L 352.910956 69.67507 
L 352.801844 69.570086 
L 352.692108 69.472509 
L 352.690857 69.472578 
L 352.567677 69.368572 
L 352.567677 69.368103 
L 352.457315 69.269837 
L 352.45669 69.269871 
L 352.336011 69.165456 
L 352.225024 69.084388 
L 352.092152 68.980839 
L 352.092152 68.980368 
L 351.981165 68.895313 
L 351.839852 68.792883 
L 351.839852 68.791939 
L 351.730428 68.708465 
L 351.728865 68.708548 
L 351.595993 68.604927 
L 351.595993 68.604454 
L 351.485631 68.498567 
L 351.485005 68.498599 
L 351.306801 68.397029 
L 351.197377 68.320199 
L 351.195814 68.32028 
L 351.022924 68.218133 
L 350.912562 68.152539 
L 350.911937 68.152571 
L 350.759994 68.049076 
L 350.649945 67.964727 
L 350.649007 67.964774 
L 350.503629 67.861136 
L 350.393267 67.790878 
L 350.392642 67.790909 
L 350.227881 67.688437 
L 350.227881 67.68796 
L 350.116894 67.62661 
L 349.946505 67.524136 
L 349.835518 67.465003 
L 349.64981 67.362991 
L 349.540386 67.287795 
L 349.538823 67.28787 
L 349.338733 67.187194 
L 349.338733 67.186715 
L 349.228059 67.134411 
L 349.227746 67.134426 
L 349.031721 67.03278 
L 348.921984 66.986528 
L 348.920734 66.986587 
L 348.703762 66.885638 
L 348.5934 66.83156 
L 348.592775 66.831589 
L 348.337035 66.733094 
L 348.337035 66.732612 
L 348.226986 66.693316 
L 348.226048 66.69336 
L 347.968433 66.594628 
L 347.968433 66.594145 
L 347.858384 66.556168 
L 347.857446 66.556211 
L 347.606396 66.456855 
L 347.423189 66.381836 
L 347.230603 66.27944 
L 347.119929 66.23392 
L 347.119616 66.233934 
L 346.837928 66.136209 
L 346.837928 66.135723 
L 346.728191 66.09244 
L 346.72694 66.092496 
L 346.478392 65.992465 
L 346.367405 65.948119 
L 346.104787 65.849352 
L 346.104787 65.848864 
L 345.995051 65.802848 
L 345.9938 65.802903 
L 345.722741 65.703671 
L 345.613317 65.674142 
L 345.611754 65.674209 
L 345.324751 65.575828 
L 345.214389 65.532975 
L 345.213764 65.533001 
L 344.938015 65.433782 
L 344.829529 65.386768 
L 344.827028 65.386874 
L 344.519391 65.289135 
L 344.409342 65.248925 
L 344.408404 65.248965 
L 344.114522 65.150281 
L 344.006974 65.106861 
L 344.003535 65.107004 
L 343.624928 65.012445 
L 343.624928 65.01195 
L 343.514879 64.980356 
L 343.513941 64.980395 
L 343.088126 64.886869 
L 342.978702 64.861075 
L 342.977139 64.861138 
L 342.641676 64.764012 
L 342.537254 64.730445 
L 342.531002 64.730698 
L 342.056727 64.639772 
L 342.056727 64.638775 
L 341.946053 64.616293 
L 341.94574 64.616305 
L 341.565257 64.520685 
L 341.457397 64.488988 
L 341.45427 64.489112 
L 341.067847 64.393314 
L 340.958736 64.358027 
L 340.95686 64.358101 
L 340.524167 64.264191 
L 340.41318 64.233356 
L 339.956413 64.140435 
L 339.846364 64.111444 
L 339.845426 64.11148 
L 339.402103 64.017583 
L 339.291428 63.994552 
L 339.291115 63.994564 
L 338.793393 63.902803 
L 338.682718 63.878139 
L 338.682406 63.878151 
L 338.202504 63.785238 
L 338.095581 63.765905 
L 338.091517 63.766058 
L 337.623807 63.672737 
L 337.518135 63.640521 
L 337.51282 63.64072 
L 337.030417 63.548484 
L 337.030417 63.547973 
L 336.921618 63.515731 
L 336.91943 63.515812 
L 336.24913 63.429475 
L 336.142833 63.418002 
L 336.138143 63.418174 
L 335.468469 63.331782 
L 335.32653 63.313297 
L 334.679366 63.226025 
L 334.535239 63.203882 
L 333.951853 63.114255 
L 333.842742 63.094348 
L 333.840866 63.094415 
L 333.301562 63.002688 
L 333.195577 62.979965 
L 333.190575 62.980142 
L 332.747877 62.885534 
L 332.747877 62.885014 
L 332.638141 62.862313 
L 332.63689 62.862357 
L 332.141043 62.768626 
L 332.035058 62.74568 
L 332.030056 62.745854 
L 331.502008 62.653264 
L 331.399149 62.633762 
L 331.391333 62.634032 
L 331.175612 62.603188 
L 330.560024 62.51345 
L 330.455602 62.502809 
L 330.449037 62.503033 
L 330.310537 62.488805 
L 329.626169 62.401297 
L 329.517995 62.384879 
L 329.515182 62.384974 
L 328.865516 62.296769 
L 328.865516 62.296239 
L 328.727017 62.281266 
L 328.153948 62.189401 
L 328.0464 62.178614 
L 328.042961 62.178728 
L 327.394233 62.089368 
L 327.283871 62.072186 
L 327.283246 62.072207 
L 326.712053 61.980265 
L 326.601066 61.963002 
L 325.986104 61.871932 
L 325.878555 61.858214 
L 325.875116 61.858325 
L 325.302986 61.765861 
L 325.198564 61.755188 
L 325.191998 61.755398 
L 324.452293 61.668259 
L 324.247514 61.641739 
L 323.353989 61.559268 
L 323.246754 61.551222 
L 323.243002 61.55134 
L 322.430139 61.466204 
L 322.291952 61.449766 
L 321.451263 61.365339 
L 321.319329 61.359002 
L 320.525224 61.272467 
L 320.417051 61.258715 
L 320.414237 61.258801 
L 319.576675 61.173459 
L 319.465688 61.164115 
L 318.560908 61.080665 
L 318.425223 61.066979 
L 317.426651 60.986142 
L 317.293467 60.976727 
L 316.493109 60.88978 
L 316.387436 60.880017 
L 316.382122 60.880175 
L 315.50079 60.795487 
L 315.391053 60.778433 
L 315.389803 60.77847 
L 314.669793 60.688889 
L 314.536922 60.67918 
L 313.650588 60.594304 
L 313.547104 60.579104 
L 313.539913 60.579311 
L 312.596054 60.495885 
L 312.486004 60.481898 
L 312.485692 60.481907 
L 311.50838 60.398633 
L 311.399894 60.385061 
L 311.397393 60.385131 
L 310.41758 60.301685 
L 310.321286 60.292849 
L 310.306905 60.293252 
L 309.59221 60.202223 
L 309.487164 60.193554 
L 309.481223 60.193719 
L 308.38292 60.113138 
L 308.275372 60.101538 
L 308.272245 60.101624 
L 308.084036 60.081152 
L 307.08734 59.99734 
L 306.951029 59.978779 
L 306.765947 59.960341 
L 305.941828 59.872042 
L 305.753306 59.849985 
L 304.728161 59.766771 
L 304.594038 59.751362 
L 303.731152 59.663598 
L 303.59828 59.650404 
L 302.51936 59.568023 
L 302.337091 59.549985 
L 301.437939 59.462636 
L 301.327577 59.455828 
L 301.326952 59.455844 
L 300.436554 59.367474 
L 300.361208 59.359702 
L 300.325567 59.359997 
L 299.479564 59.270317 
L 299.369202 59.262135 
L 299.368576 59.26215 
L 298.390014 59.175557 
L 298.279027 59.166078 
L 297.226056 59.081031 
L 297.119133 59.073196 
L 297.115069 59.073295 
L 296.102428 58.986973 
L 295.985814 58.979283 
L 294.948162 58.893268 
L 294.849056 58.886311 
L 294.837175 58.886593 
L 293.872056 58.798575 
L 293.761694 58.786182 
L 293.761069 58.786197 
L 292.765311 58.698601 
L 292.667455 58.683916 
L 292.654637 58.684213 
L 291.692331 58.595532 
L 291.562586 58.584605 
L 290.545256 58.496867 
L 290.415198 58.484555 
L 289.31752 58.398257 
L 289.186836 58.384546 
L 288.090096 58.297823 
L 287.96035 58.285231 
L 286.994606 58.195289 
L 286.863297 58.179365 
L 285.730603 58.092608 
L 285.601483 58.081026 
L 284.472853 57.993752 
L 284.364367 57.987499 
L 284.362179 57.987544 
L 283.249806 57.899537 
L 283.122875 57.890938 
L 282.101793 57.801339 
L 282.02207 57.79168 
L 281.990806 57.792308 
L 280.754003 57.706629 
L 280.646767 57.698078 
L 280.643016 57.698152 
L 279.334618 57.613376 
L 279.060433 57.596531 
L 277.822067 57.50974 
L 277.541316 57.488001 
L 276.302012 57.400553 
L 276.176956 57.394022 
L 274.744753 57.310299 
L 274.584994 57.300167 
L 273.223761 57.21447 
L 273.124654 57.20794 
L 273.113399 57.208144 
L 271.74091 57.122041 
L 271.631174 57.118401 
L 271.630236 57.118418 
L 270.260873 57.033062 
L 270.260873 57.032357 
L 270.162704 57.025615 
L 270.149886 57.025839 
L 269.025633 56.934947 
L 268.818041 56.919327 
L 267.521836 56.830736 
L 267.398343 56.825645 
L 266.077128 56.73686 
L 265.968329 56.729264 
L 265.96614 56.729299 
L 264.360422 56.644425 
L 264.236304 56.636949 
L 262.885388 56.547949 
L 262.774401 56.539409 
L 261.455686 56.449222 
L 261.332193 56.442225 
L 259.823706 56.354179 
L 259.698338 56.3426 
L 258.28333 56.253072 
L 258.18266 56.247748 
L 258.172343 56.247897 
L 256.363722 56.163163 
L 256.253047 56.155587 
L 254.517271 56.069528 
L 254.416914 56.063212 
L 254.406597 56.063353 
L 252.706774 55.975771 
L 252.521691 55.968132 
L 250.722449 55.881529 
L 250.573945 55.874015 
L 248.808156 55.785816 
L 247.328744 55.693892 
L 247.220571 55.679951 
L 247.217757 55.679986 
L 245.526688 55.589544 
L 245.300024 55.576766 
L 243.532359 55.486736 
L 243.411993 55.480694 
L 241.473001 55.392116 
L 241.367954 55.384931 
L 241.362014 55.384995 
L 239.601226 55.293154 
L 239.381128 55.280269 
L 237.461207 55.189421 
L 237.341778 55.185479 
L 235.570987 55.092643 
L 235.428736 55.08534 
L 233.648877 54.991195 
L 233.529449 54.987008 
L 231.785544 54.892049 
L 231.674557 54.883238 
L 230.213904 54.78464 
L 230.072278 54.775895 
L 228.090767 54.680759 
L 227.992598 54.674206 
L 227.97978 54.674298 
L 226.187416 54.576154 
L 226.083619 54.567647 
L 226.076741 54.567692 
L 224.195275 54.469383 
L 224.087414 54.464437 
L 224.084288 54.464456 
L 222.28442 54.364921 
L 222.167181 54.361772 
L 220.464544 54.260125 
L 220.345741 54.253989 
L 218.08004 54.153957 
L 217.975931 54.14757 
L 217.969366 54.147597 
L 215.130284 54.048056 
L 215.017108 54.041485 
L 211.896963 53.941394 
L 211.780036 53.937641 
L 207.638184 53.837862 
L 207.580033 53.83168 
L 207.527509 53.831784 
L 202.924201 53.730209 
L 202.807274 53.723821 
L 191.263362 53.626655 
L 82.720139 53.583818 
L 73.832727 53.568 
L 73.832727 53.568 
" clip-path="url(#p361f7da133)" style="fill: none; stroke: #1f77b4; stroke-width: 1.5; stroke-linecap: square"/>
   </g>
   <g id="patch_3">
    <path d="M 57.6 307.584 
L 57.6 41.472 
" style="fill: none; stroke: #000000; stroke-width: 0.8; stroke-linejoin: miter; stroke-linecap: square"/>
   </g>
   <g id="patch_4">
    <path d="M 414.72 307.584 
L 414.72 41.472 
" style="fill: none; stroke: #000000; stroke-width: 0.8; stroke-linejoin: miter; stroke-linecap: square"/>
   </g>
   <g id="patch_5">
    <path d="M 57.6 307.584 
L 414.72 307.584 
" style="fill: none; stroke: #000000; stroke-width: 0.8; stroke-linejoin: miter; stroke-linecap: square"/>
   </g>
   <g id="patch_6">
    <path d="M 57.6 41.472 
L 414.72 41.472 
" style="fill: none; stroke: #000000; stroke-width: 0.8; stroke-linejoin: miter; stroke-linecap: square"/>
   </g>
   <g id="text_13">
    <!-- Precision Recall -->
    <g transform="translate(189.584063 35.472) scale(0.12 -0.12)">
     <defs>
      <path id="DejaVuSans-50" d="M 1259 4147 
L 1259 2394 
L 2053 2394 
Q 2494 2394 2734 2622 
Q 2975 2850 2975 3272 
Q 2975 3691 2734 3919 
Q 2494 4147 2053 4147 
L 1259 4147 
z
M 628 4666 
L 2053 4666 
Q 2838 4666 3239 4311 
Q 3641 3956 3641 3272 
Q 3641 2581 3239 2228 
Q 2838 1875 2053 1875 
L 1259 1875 
L 1259 0 
L 628 0 
L 628 4666 
z
" transform="scale(0.015625)"/>
      <path id="DejaVuSans-72" d="M 2631 2963 
Q 2534 3019 2420 3045 
Q 2306 3072 2169 3072 
Q 1681 3072 1420 2755 
Q 1159 2438 1159 1844 
L 1159 0 
L 581 0 
L 581 3500 
L 1159 3500 
L 1159 2956 
Q 1341 3275 1631 3429 
Q 1922 3584 2338 3584 
Q 2397 3584 2469 3576 
Q 2541 3569 2628 3553 
L 2631 2963 
z
" transform="scale(0.015625)"/>
      <path id="DejaVuSans-65" d="M 3597 1894 
L 3597 1613 
L 953 1613 
Q 991 1019 1311 708 
Q 1631 397 2203 397 
Q 2534 397 2845 478 
Q 3156 559 3463 722 
L 3463 178 
Q 3153 47 2828 -22 
Q 2503 -91 2169 -91 
Q 1331 -91 842 396 
Q 353 884 353 1716 
Q 353 2575 817 3079 
Q 1281 3584 2069 3584 
Q 2775 3584 3186 3129 
Q 3597 2675 3597 1894 
z
M 3022 2063 
Q 3016 2534 2758 2815 
Q 2500 3097 2075 3097 
Q 1594 3097 1305 2825 
Q 1016 2553 972 2059 
L 3022 2063 
z
" transform="scale(0.015625)"/>
      <path id="DejaVuSans-63" d="M 3122 3366 
L 3122 2828 
Q 2878 2963 2633 3030 
Q 2388 3097 2138 3097 
Q 1578 3097 1268 2742 
Q 959 2388 959 1747 
Q 959 1106 1268 751 
Q 1578 397 2138 397 
Q 2388 397 2633 464 
Q 2878 531 3122 666 
L 3122 134 
Q 2881 22 2623 -34 
Q 2366 -91 2075 -91 
Q 1284 -91 818 406 
Q 353 903 353 1747 
Q 353 2603 823 3093 
Q 1294 3584 2113 3584 
Q 2378 3584 2631 3529 
Q 2884 3475 3122 3366 
z
" transform="scale(0.015625)"/>
      <path id="DejaVuSans-69" d="M 603 3500 
L 1178 3500 
L 1178 0 
L 603 0 
L 603 3500 
z
M 603 4863 
L 1178 4863 
L 1178 4134 
L 603 4134 
L 603 4863 
z
" transform="scale(0.015625)"/>
      <path id="DejaVuSans-73" d="M 2834 3397 
L 2834 2853 
Q 2591 2978 2328 3040 
Q 2066 3103 1784 3103 
Q 1356 3103 1142 2972 
Q 928 2841 928 2578 
Q 928 2378 1081 2264 
Q 1234 2150 1697 2047 
L 1894 2003 
Q 2506 1872 2764 1633 
Q 3022 1394 3022 966 
Q 3022 478 2636 193 
Q 2250 -91 1575 -91 
Q 1294 -91 989 -36 
Q 684 19 347 128 
L 347 722 
Q 666 556 975 473 
Q 1284 391 1588 391 
Q 1994 391 2212 530 
Q 2431 669 2431 922 
Q 2431 1156 2273 1281 
Q 2116 1406 1581 1522 
L 1381 1569 
Q 847 1681 609 1914 
Q 372 2147 372 2553 
Q 372 3047 722 3315 
Q 1072 3584 1716 3584 
Q 2034 3584 2315 3537 
Q 2597 3491 2834 3397 
z
" transform="scale(0.015625)"/>
      <path id="DejaVuSans-6f" d="M 1959 3097 
Q 1497 3097 1228 2736 
Q 959 2375 959 1747 
Q 959 1119 1226 758 
Q 1494 397 1959 397 
Q 2419 397 2687 759 
Q 2956 1122 2956 1747 
Q 2956 2369 2687 2733 
Q 2419 3097 1959 3097 
z
M 1959 3584 
Q 2709 3584 3137 3096 
Q 3566 2609 3566 1747 
Q 3566 888 3137 398 
Q 2709 -91 1959 -91 
Q 1206 -91 779 398 
Q 353 888 353 1747 
Q 353 2609 779 3096 
Q 1206 3584 1959 3584 
z
" transform="scale(0.015625)"/>
      <path id="DejaVuSans-6e" d="M 3513 2113 
L 3513 0 
L 2938 0 
L 2938 2094 
Q 2938 2591 2744 2837 
Q 2550 3084 2163 3084 
Q 1697 3084 1428 2787 
Q 1159 2491 1159 1978 
L 1159 0 
L 581 0 
L 581 3500 
L 1159 3500 
L 1159 2956 
Q 1366 3272 1645 3428 
Q 1925 3584 2291 3584 
Q 2894 3584 3203 3211 
Q 3513 2838 3513 2113 
z
" transform="scale(0.015625)"/>
      <path id="DejaVuSans-20" transform="scale(0.015625)"/>
      <path id="DejaVuSans-52" d="M 2841 2188 
Q 3044 2119 3236 1894 
Q 3428 1669 3622 1275 
L 4263 0 
L 3584 0 
L 2988 1197 
Q 2756 1666 2539 1819 
Q 2322 1972 1947 1972 
L 1259 1972 
L 1259 0 
L 628 0 
L 628 4666 
L 2053 4666 
Q 2853 4666 3247 4331 
Q 3641 3997 3641 3322 
Q 3641 2881 3436 2590 
Q 3231 2300 2841 2188 
z
M 1259 4147 
L 1259 2491 
L 2053 2491 
Q 2509 2491 2742 2702 
Q 2975 2913 2975 3322 
Q 2975 3731 2742 3939 
Q 2509 4147 2053 4147 
L 1259 4147 
z
" transform="scale(0.015625)"/>
      <path id="DejaVuSans-61" d="M 2194 1759 
Q 1497 1759 1228 1600 
Q 959 1441 959 1056 
Q 959 750 1161 570 
Q 1363 391 1709 391 
Q 2188 391 2477 730 
Q 2766 1069 2766 1631 
L 2766 1759 
L 2194 1759 
z
M 3341 1997 
L 3341 0 
L 2766 0 
L 2766 531 
Q 2569 213 2275 61 
Q 1981 -91 1556 -91 
Q 1019 -91 701 211 
Q 384 513 384 1019 
Q 384 1609 779 1909 
Q 1175 2209 1959 2209 
L 2766 2209 
L 2766 2266 
Q 2766 2663 2505 2880 
Q 2244 3097 1772 3097 
Q 1472 3097 1187 3025 
Q 903 2953 641 2809 
L 641 3341 
Q 956 3463 1253 3523 
Q 1550 3584 1831 3584 
Q 2591 3584 2966 3190 
Q 3341 2797 3341 1997 
z
" transform="scale(0.015625)"/>
      <path id="DejaVuSans-6c" d="M 603 4863 
L 1178 4863 
L 1178 0 
L 603 0 
L 603 4863 
z
" transform="scale(0.015625)"/>
     </defs>
     <use xlink:href="#DejaVuSans-50"/>
     <use xlink:href="#DejaVuSans-72" transform="translate(58.552734 0)"/>
     <use xlink:href="#DejaVuSans-65" transform="translate(97.416016 0)"/>
     <use xlink:href="#DejaVuSans-63" transform="translate(158.939453 0)"/>
     <use xlink:href="#DejaVuSans-69" transform="translate(213.919922 0)"/>
     <use xlink:href="#DejaVuSans-73" transform="translate(241.703125 0)"/>
     <use xlink:href="#DejaVuSans-69" transform="translate(293.802734 0)"/>
     <use xlink:href="#DejaVuSans-6f" transform="translate(321.585938 0)"/>
     <use xlink:href="#DejaVuSans-6e" transform="translate(382.767578 0)"/>
     <use xlink:href="#DejaVuSans-20" transform="translate(446.146484 0)"/>
     <use xlink:href="#DejaVuSans-52" transform="translate(477.933594 0)"/>
     <use xlink:href="#DejaVuSans-65" transform="translate(542.916016 0)"/>
     <use xlink:href="#DejaVuSans-63" transform="translate(604.439453 0)"/>
     <use xlink:href="#DejaVuSans-61" transform="translate(659.419922 0)"/>
     <use xlink:href="#DejaVuSans-6c" transform="translate(720.699219 0)"/>
     <use xlink:href="#DejaVuSans-6c" transform="translate(748.482422 0)"/>
    </g>
   </g>
  </g>
 </g>
 <defs>
  <clipPath id="p361f7da133">
   <rect x="57.6" y="41.472" width="357.12" height="266.112"/>
  </clipPath>
 </defs>
</svg>
