<?xml version="1.0" encoding="utf-8" standalone="no"?>
<!DOCTYPE svg PUBLIC "-//W3C//DTD SVG 1.1//EN"
  "http://www.w3.org/Graphics/SVG/1.1/DTD/svg11.dtd">
<svg xmlns:xlink="http://www.w3.org/1999/xlink" width="460.8pt" height="345.6pt" viewBox="0 0 460.8 345.6" xmlns="http://www.w3.org/2000/svg" version="1.1">
 <metadata>
  <rdf:RDF xmlns:dc="http://purl.org/dc/elements/1.1/" xmlns:cc="http://creativecommons.org/ns#" xmlns:rdf="http://www.w3.org/1999/02/22-rdf-syntax-ns#">
   <cc:Work>
    <dc:type rdf:resource="http://purl.org/dc/dcmitype/StillImage"/>
    <dc:date>2026-03-16T23:28:56.379447</dc:date>
    <dc:format>image/svg+xml</dc:format>
    <dc:creator>
     <cc:Agent>
      <dc:title>Matplotlib v3.10.8, https://matplotlib.org/</dc:title>
     </cc:Agent>
    </dc:creator>
   </cc:Work>
  </rdf:RDF>
 </metadata>
 <defs>
  <style type="text/css">*{stroke-linejoin: round; stroke-linecap: butt}</style>
 </defs>
 <g id="figure_1">
  <g id="patch_1">
   <path d="M 0 345.6 
L 460.8 345.6 
L 460.8 0 
L 0 0 
z
" style="fill: #ffffff"/>
  </g>
  <g id="axes_1">
   <g id="patch_2">
    <path d="M 57.6 307.584 
L 414.72 307.584 
L 414.72 41.472 
L 57.6 41.472 
z
" style="fill: #ffffff"/>
   </g>
   <g id="matplotlib.axis_1">
    <g id="xtick_1">
     <g id="line2d_1">
      <defs>
       <path id="md0cce10d30" d="M 0 0 
L 0 3.5 
" style="stroke: #000000; stroke-width: 0.8"/>
      </defs>
      <g>
       <use xlink:href="#md0cce10d30" x="73.832727" y="307.584" style="stroke: #000000; stroke-width: 0.8"/>
      </g>
     </g>
     <g id="text_1">
      <!-- 0.0 -->
      <g transform="translate(65.881165 322.182437) scale(0.1 -0.1)">
       <defs>
        <path id="DejaVuSans-30" d="M 2034 4250 
Q 1547 4250 1301 3770 
Q 1056 3291 1056 2328 
Q 1056 1369 1301 889 
Q 1547 409 2034 409 
Q 2525 409 2770 889 
Q 3016 1369 3016 2328 
Q 3016 3291 2770 3770 
Q 2525 4250 2034 4250 
z
M 2034 4750 
Q 2819 4750 3233 4129 
Q 3647 3509 3647 2328 
Q 3647 1150 3233 529 
Q 2819 -91 2034 -91 
Q 1250 -91 836 529 
Q 422 1150 422 2328 
Q 422 3509 836 4129 
Q 1250 4750 2034 4750 
z
" transform="scale(0.015625)"/>
        <path id="DejaVuSans-2e" d="M 684 794 
L 1344 794 
L 1344 0 
L 684 0 
L 684 794 
z
" transform="scale(0.015625)"/>
       </defs>
       <use xlink:href="#DejaVuSans-30"/>
       <use xlink:href="#DejaVuSans-2e" transform="translate(63.623047 0)"/>
       <use xlink:href="#DejaVuSans-30" transform="translate(95.410156 0)"/>
      </g>
     </g>
    </g>
    <g id="xtick_2">
     <g id="line2d_2">
      <g>
       <use xlink:href="#md0cce10d30" x="138.763636" y="307.584" style="stroke: #000000; stroke-width: 0.8"/>
      </g>
     </g>
     <g id="text_2">
      <!-- 0.2 -->
      <g transform="translate(130.812074 322.182437) scale(0.1 -0.1)">
       <defs>
        <path id="DejaVuSans-32" d="M 1228 531 
L 3431 531 
L 3431 0 
L 469 0 
L 469 531 
Q 828 903 1448 1529 
Q 2069 2156 2228 2338 
Q 2531 2678 2651 2914 
Q 2772 3150 2772 3378 
Q 2772 3750 2511 3984 
Q 2250 4219 1831 4219 
Q 1534 4219 1204 4116 
Q 875 4013 500 3803 
L 500 4441 
Q 881 4594 1212 4672 
Q 1544 4750 1819 4750 
Q 2544 4750 2975 4387 
Q 3406 4025 3406 3419 
Q 3406 3131 3298 2873 
Q 3191 2616 2906 2266 
Q 2828 2175 2409 1742 
Q 1991 1309 1228 531 
z
" transform="scale(0.015625)"/>
       </defs>
       <use xlink:href="#DejaVuSans-30"/>
       <use xlink:href="#DejaVuSans-2e" transform="translate(63.623047 0)"/>
       <use xlink:href="#DejaVuSans-32" transform="translate(95.410156 0)"/>
      </g>
     </g>
    </g>
    <g id="xtick_3">
     <g id="line2d_3">
      <g>
       <use xlink:href="#md0cce10d30" x="203.694545" y="307.584" style="stroke: #000000; stroke-width: 0.8"/>
      </g>
     </g>
     <g id="text_3">
      <!-- 0.4 -->
      <g transform="translate(195.742983 322.182437) scale(0.1 -0.1)">
       <defs>
        <path id="DejaVuSans-34" d="M 2419 4116 
L 825 1625 
L 2419 1625 
L 2419 4116 
z
M 2253 4666 
L 3047 4666 
L 3047 1625 
L 3713 1625 
L 3713 1100 
L 3047 1100 
L 3047 0 
L 2419 0 
L 2419 1100 
L 313 1100 
L 313 1709 
L 2253 4666 
z
" transform="scale(0.015625)"/>
       </defs>
       <use xlink:href="#DejaVuSans-30"/>
       <use xlink:href="#DejaVuSans-2e" transform="translate(63.623047 0)"/>
       <use xlink:href="#DejaVuSans-34" transform="translate(95.410156 0)"/>
      </g>
     </g>
    </g>
    <g id="xtick_4">
     <g id="line2d_4">
      <g>
       <use xlink:href="#md0cce10d30" x="268.625455" y="307.584" style="stroke: #000000; stroke-width: 0.8"/>
      </g>
     </g>
     <g id="text_4">
      <!-- 0.6 -->
      <g transform="translate(260.673892 322.182437) scale(0.1 -0.1)">
       <defs>
        <path id="DejaVuSans-36" d="M 2113 2584 
Q 1688 2584 1439 2293 
Q 1191 2003 1191 1497 
Q 1191 994 1439 701 
Q 1688 409 2113 409 
Q 2538 409 2786 701 
Q 3034 994 3034 1497 
Q 3034 2003 2786 2293 
Q 2538 2584 2113 2584 
z
M 3366 4563 
L 3366 3988 
Q 3128 4100 2886 4159 
Q 2644 4219 2406 4219 
Q 1781 4219 1451 3797 
Q 1122 3375 1075 2522 
Q 1259 2794 1537 2939 
Q 1816 3084 2150 3084 
Q 2853 3084 3261 2657 
Q 3669 2231 3669 1497 
Q 3669 778 3244 343 
Q 2819 -91 2113 -91 
Q 1303 -91 875 529 
Q 447 1150 447 2328 
Q 447 3434 972 4092 
Q 1497 4750 2381 4750 
Q 2619 4750 2861 4703 
Q 3103 4656 3366 4563 
z
" transform="scale(0.015625)"/>
       </defs>
       <use xlink:href="#DejaVuSans-30"/>
       <use xlink:href="#DejaVuSans-2e" transform="translate(63.623047 0)"/>
       <use xlink:href="#DejaVuSans-36" transform="translate(95.410156 0)"/>
      </g>
     </g>
    </g>
    <g id="xtick_5">
     <g id="line2d_5">
      <g>
       <use xlink:href="#md0cce10d30" x="333.556364" y="307.584" style="stroke: #000000; stroke-width: 0.8"/>
      </g>
     </g>
     <g id="text_5">
      <!-- 0.8 -->
      <g transform="translate(325.604801 322.182437) scale(0.1 -0.1)">
       <defs>
        <path id="DejaVuSans-38" d="M 2034 2216 
Q 1584 2216 1326 1975 
Q 1069 1734 1069 1313 
Q 1069 891 1326 650 
Q 1584 409 2034 409 
Q 2484 409 2743 651 
Q 3003 894 3003 1313 
Q 3003 1734 2745 1975 
Q 2488 2216 2034 2216 
z
M 1403 2484 
Q 997 2584 770 2862 
Q 544 3141 544 3541 
Q 544 4100 942 4425 
Q 1341 4750 2034 4750 
Q 2731 4750 3128 4425 
Q 3525 4100 3525 3541 
Q 3525 3141 3298 2862 
Q 3072 2584 2669 2484 
Q 3125 2378 3379 2068 
Q 3634 1759 3634 1313 
Q 3634 634 3220 271 
Q 2806 -91 2034 -91 
Q 1263 -91 848 271 
Q 434 634 434 1313 
Q 434 1759 690 2068 
Q 947 2378 1403 2484 
z
M 1172 3481 
Q 1172 3119 1398 2916 
Q 1625 2713 2034 2713 
Q 2441 2713 2670 2916 
Q 2900 3119 2900 3481 
Q 2900 3844 2670 4047 
Q 2441 4250 2034 4250 
Q 1625 4250 1398 4047 
Q 1172 3844 1172 3481 
z
" transform="scale(0.015625)"/>
       </defs>
       <use xlink:href="#DejaVuSans-30"/>
       <use xlink:href="#DejaVuSans-2e" transform="translate(63.623047 0)"/>
       <use xlink:href="#DejaVuSans-38" transform="translate(95.410156 0)"/>
      </g>
     </g>
    </g>
    <g id="xtick_6">
     <g id="line2d_6">
      <g>
       <use xlink:href="#md0cce10d30" x="398.487273" y="307.584" style="stroke: #000000; stroke-width: 0.8"/>
      </g>
     </g>
     <g id="text_6">
      <!-- 1.0 -->
      <g transform="translate(390.53571 322.182437) scale(0.1 -0.1)">
       <defs>
        <path id="DejaVuSans-31" d="M 794 531 
L 1825 531 
L 1825 4091 
L 703 3866 
L 703 4441 
L 1819 4666 
L 2450 4666 
L 2450 531 
L 3481 531 
L 3481 0 
L 794 0 
L 794 531 
z
" transform="scale(0.015625)"/>
       </defs>
       <use xlink:href="#DejaVuSans-31"/>
       <use xlink:href="#DejaVuSans-2e" transform="translate(63.623047 0)"/>
       <use xlink:href="#DejaVuSans-30" transform="translate(95.410156 0)"/>
      </g>
     </g>
    </g>
   </g>
   <g id="matplotlib.axis_2">
    <g id="ytick_1">
     <g id="line2d_7">
      <defs>
       <path id="mdff796de6a" d="M 0 0 
L -3.5 0 
" style="stroke: #000000; stroke-width: 0.8"/>
      </defs>
      <g>
       <use xlink:href="#mdff796de6a" x="57.6" y="295.488" style="stroke: #000000; stroke-width: 0.8"/>
      </g>
     </g>
     <g id="text_7">
      <!-- 0.0 -->
      <g transform="translate(34.696875 299.287219) scale(0.1 -0.1)">
       <use xlink:href="#DejaVuSans-30"/>
       <use xlink:href="#DejaVuSans-2e" transform="translate(63.623047 0)"/>
       <use xlink:href="#DejaVuSans-30" transform="translate(95.410156 0)"/>
      </g>
     </g>
    </g>
    <g id="ytick_2">
     <g id="line2d_8">
      <g>
       <use xlink:href="#mdff796de6a" x="57.6" y="247.104" style="stroke: #000000; stroke-width: 0.8"/>
      </g>
     </g>
     <g id="text_8">
      <!-- 0.2 -->
      <g transform="translate(34.696875 250.903219) scale(0.1 -0.1)">
       <use xlink:href="#DejaVuSans-30"/>
       <use xlink:href="#DejaVuSans-2e" transform="translate(63.623047 0)"/>
       <use xlink:href="#DejaVuSans-32" transform="translate(95.410156 0)"/>
      </g>
     </g>
    </g>
    <g id="ytick_3">
     <g id="line2d_9">
      <g>
       <use xlink:href="#mdff796de6a" x="57.6" y="198.72" style="stroke: #000000; stroke-width: 0.8"/>
      </g>
     </g>
     <g id="text_9">
      <!-- 0.4 -->
      <g transform="translate(34.696875 202.519219) scale(0.1 -0.1)">
       <use xlink:href="#DejaVuSans-30"/>
       <use xlink:href="#DejaVuSans-2e" transform="translate(63.623047 0)"/>
       <use xlink:href="#DejaVuSans-34" transform="translate(95.410156 0)"/>
      </g>
     </g>
    </g>
    <g id="ytick_4">
     <g id="line2d_10">
      <g>
       <use xlink:href="#mdff796de6a" x="57.6" y="150.336" style="stroke: #000000; stroke-width: 0.8"/>
      </g>
     </g>
     <g id="text_10">
      <!-- 0.6 -->
      <g transform="translate(34.696875 154.135219) scale(0.1 -0.1)">
       <use xlink:href="#DejaVuSans-30"/>
       <use xlink:href="#DejaVuSans-2e" transform="translate(63.623047 0)"/>
       <use xlink:href="#DejaVuSans-36" transform="translate(95.410156 0)"/>
      </g>
     </g>
    </g>
    <g id="ytick_5">
     <g id="line2d_11">
      <g>
       <use xlink:href="#mdff796de6a" x="57.6" y="101.952" style="stroke: #000000; stroke-width: 0.8"/>
      </g>
     </g>
     <g id="text_11">
      <!-- 0.8 -->
      <g transform="translate(34.696875 105.751219) scale(0.1 -0.1)">
       <use xlink:href="#DejaVuSans-30"/>
       <use xlink:href="#DejaVuSans-2e" transform="translate(63.623047 0)"/>
       <use xlink:href="#DejaVuSans-38" transform="translate(95.410156 0)"/>
      </g>
     </g>
    </g>
    <g id="ytick_6">
     <g id="line2d_12">
      <g>
       <use xlink:href="#mdff796de6a" x="57.6" y="53.568" style="stroke: #000000; stroke-width: 0.8"/>
      </g>
     </g>
     <g id="text_12">
      <!-- 1.0 -->
      <g transform="translate(34.696875 57.367219) scale(0.1 -0.1)">
       <use xlink:href="#DejaVuSans-31"/>
       <use xlink:href="#DejaVuSans-2e" transform="translate(63.623047 0)"/>
       <use xlink:href="#DejaVuSans-30" transform="translate(95.410156 0)"/>
      </g>
     </g>
    </g>
   </g>
   <g id="line2d_13">
    <path d="M 73.832727 295.488 
L 73.943613 191.388759 
L 73.946029 191.28672 
L 73.946029 191.277867 
L 74.056915 184.980301 
L 74.064164 184.651817 
L 74.175049 179.948212 
L 74.17854 179.720603 
L 74.289425 175.594756 
L 74.293184 175.444725 
L 74.40407 171.162558 
L 74.414004 170.727375 
L 74.524889 166.654645 
L 74.532407 166.419348 
L 74.643292 162.835848 
L 74.648662 162.604279 
L 74.759548 158.826252 
L 74.792572 157.817971 
L 74.903457 154.870704 
L 74.914734 154.628884 
L 75.025619 151.722154 
L 75.031257 151.619416 
L 75.031257 151.611495 
L 75.142143 149.117349 
L 75.146976 149.009485 
L 75.146976 149.006457 
L 75.257861 146.334558 
L 75.268064 146.094368 
L 75.378949 143.523111 
L 75.38942 143.367023 
L 75.500306 140.970258 
L 75.505944 140.818829 
L 75.61683 138.788521 
L 75.625958 138.633598 
L 75.736575 136.628916 
L 75.736844 136.628916 
L 75.746509 136.473527 
L 75.857395 134.655918 
L 75.865986 134.501461 
L 75.976872 132.701557 
L 75.987611 132.545702 
L 76.098497 130.898625 
L 76.104941 130.792625 
L 76.104941 130.788432 
L 76.215826 128.99575 
L 76.223612 128.841992 
L 76.334498 127.193284 
L 76.343358 127.082391 
L 76.453975 125.551565 
L 76.491563 125.019934 
L 76.602449 123.447872 
L 76.611577 123.338843 
L 76.611577 123.337213 
L 76.722463 121.852979 
L 76.736156 121.694329 
L 76.847041 120.158843 
L 76.852143 120.05028 
L 76.852143 120.047951 
L 76.963028 118.607981 
L 76.972425 118.498952 
L 76.972425 118.497322 
L 77.083311 117.020077 
L 77.103447 116.762882 
L 77.214333 115.48366 
L 77.225878 115.377893 
L 77.225878 115.372767 
L 77.336763 114.054174 
L 77.348577 113.897853 
L 77.459194 112.419211 
L 77.46698 112.312978 
L 77.46698 112.308551 
L 77.577866 111.101782 
L 77.618676 110.561997 
L 77.729561 109.299782 
L 77.743523 109.140665 
L 77.854408 107.9947 
L 77.870517 107.887302 
L 77.870517 107.883808 
L 77.981134 107.010647 
L 77.996707 106.901851 
L 78.107592 105.936203 
L 78.128534 105.771262 
L 78.23942 104.833803 
L 78.252039 104.723842 
L 78.362924 103.733732 
L 78.377691 103.6268 
L 78.377691 103.623306 
L 78.488577 102.860805 
L 78.502001 102.75131 
L 78.502001 102.750145 
L 78.612618 102.106457 
L 78.626311 101.997196 
L 78.626311 101.995798 
L 78.737197 101.206039 
L 78.751963 101.096545 
L 78.862849 100.115288 
L 78.879764 100.006259 
L 78.879764 100.005094 
L 78.990649 99.178527 
L 79.01186 99.069032 
L 79.122477 98.406707 
L 79.142882 98.297213 
L 79.253499 97.626733 
L 79.253767 97.626733 
L 79.280348 97.457133 
L 79.391233 96.864465 
L 79.414055 96.754272 
L 79.52494 96.197946 
L 79.550446 96.087054 
L 79.661332 95.527467 
L 79.679052 95.417739 
L 79.789669 94.92152 
L 79.81088 94.810627 
L 79.921765 94.23217 
L 79.957206 94.12384 
L 80.068091 93.722671 
L 80.099504 93.612245 
L 80.21039 93.241594 
L 80.243682 93.130702 
L 80.354568 92.734192 
L 80.38974 92.625396 
L 80.500357 92.277343 
L 80.538482 92.168781 
L 80.649368 91.803954 
L 80.690446 91.693295 
L 80.801332 91.395563 
L 80.835698 91.286301 
L 80.946315 90.921941 
L 80.985515 90.812912 
L 81.0964 90.51122 
L 81.136942 90.400561 
L 81.247827 90.136609 
L 81.296961 90.02758 
L 81.296961 90.025717 
L 81.407309 89.78413 
L 81.517926 89.55093 
L 81.567596 89.44027 
L 81.678213 89.236191 
L 81.750437 89.125299 
L 81.861054 88.905611 
L 81.918779 88.79565 
L 82.029664 88.577593 
L 82.112895 88.467167 
L 82.223512 88.284055 
L 82.294125 88.175725 
L 82.404473 87.999835 
L 82.478576 87.889641 
L 82.589461 87.722837 
L 82.672424 87.612178 
L 82.783041 87.450265 
L 82.859023 87.339373 
L 82.969372 87.185615 
L 83.046159 87.075189 
L 83.046159 87.074723 
L 83.267931 86.735523 
L 83.378816 86.610652 
L 83.480573 86.499993 
L 83.590922 86.371628 
L 83.702344 86.260969 
L 83.81323 86.129575 
L 83.916329 86.018683 
L 84.027214 85.899637 
L 84.140248 85.788744 
L 84.250865 85.673892 
L 84.351011 85.562999 
L 84.461628 85.450942 
L 84.461896 85.450942 
L 87.002061 83.393144 
L 87.188928 83.282485 
L 87.299814 83.209799 
L 87.472989 83.099139 
L 87.583337 83.032744 
L 87.758928 82.922084 
L 87.869814 82.862678 
L 88.038424 82.752251 
L 88.14931 82.692612 
L 88.367322 82.58172 
L 88.477402 82.522779 
L 88.702663 82.412585 
L 88.813549 82.344093 
L 89.039079 82.233201 
L 89.149159 82.181249 
L 89.357237 82.07059 
L 89.46678 82.014911 
L 89.467854 82.014911 
L 89.702244 81.904018 
L 89.812861 81.849737 
L 90.017717 81.738845 
L 90.127529 81.678739 
L 90.128603 81.678739 
L 90.517105 81.487939 
L 90.750689 81.37728 
L 90.861575 81.311117 
L 91.065626 81.200458 
L 91.176511 81.142682 
L 91.381099 81.03179 
L 91.491985 80.971684 
L 91.697109 80.860792 
L 91.80719 80.797891 
L 92.026276 80.686998 
L 92.136624 80.630853 
L 92.372088 80.520194 
L 92.482974 80.475231 
L 92.739111 80.364339 
L 92.848654 80.316814 
L 93.095395 80.205921 
L 93.204132 80.149543 
L 93.20628 80.149543 
L 98.208479 78.100132 
L 98.504353 77.989473 
L 98.614701 77.945675 
L 98.909501 77.835015 
L 99.019313 77.793547 
L 99.01985 77.793547 
L 99.308206 77.682655 
L 99.419091 77.641653 
L 99.725973 77.530993 
L 99.835784 77.491156 
L 100.123872 77.380497 
L 100.234489 77.334369 
L 100.542445 77.223477 
L 100.651451 77.187367 
L 100.988672 77.076475 
L 101.099289 77.0392 
L 101.406976 76.928541 
L 101.517861 76.88847 
L 101.806754 76.777578 
L 101.91764 76.737508 
L 102.22479 76.626615 
L 102.33487 76.584681 
L 102.657861 76.473789 
L 102.766599 76.430923 
L 102.768478 76.430923 
L 103.068648 76.320031 
L 103.178459 76.279727 
L 103.179533 76.279727 
L 103.468695 76.169068 
L 103.57958 76.130162 
L 103.880555 76.01927 
L 104.16918 75.915833 
L 104.455656 75.80494 
L 104.763881 75.684496 
L 105.053311 75.573604 
L 105.163928 75.53167 
L 105.458996 75.420778 
L 105.569881 75.377446 
L 105.860922 75.267252 
L 105.970734 75.215534 
L 105.971808 75.215534 
L 106.272514 75.101147 
L 106.577785 74.990254 
L 106.688134 74.949485 
L 106.688402 74.949485 
L 106.991257 74.838593 
L 107.102142 74.784545 
L 107.409829 74.673652 
L 107.519372 74.631951 
L 107.801553 74.521059 
L 107.911633 74.484483 
L 108.216367 74.373591 
L 108.326984 74.32956 
L 108.625274 74.219133 
L 108.625274 74.218667 
L 108.734012 74.177898 
L 109.026664 74.067006 
L 109.136207 74.029964 
L 109.423757 73.919771 
L 109.533569 73.886922 
L 109.880992 73.776263 
L 109.990535 73.741784 
L 110.370446 73.630892 
L 110.480526 73.598276 
L 110.811035 73.488083 
L 110.91843 73.456399 
L 111.242763 73.34574 
L 111.352843 73.313823 
L 111.733022 73.202931 
L 111.843908 73.178469 
L 112.215495 73.068043 
L 112.325844 73.033564 
L 112.71005 72.922672 
L 112.819593 72.894483 
L 113.310657 72.78359 
L 113.534845 72.734667 
L 114.051952 72.623775 
L 114.16257 72.599546 
L 114.637793 72.489353 
L 114.748679 72.456737 
L 115.264981 72.345845 
L 115.375061 72.316258 
L 115.375598 72.316258 
L 115.806521 72.205366 
L 115.917138 72.169955 
L 116.391825 72.059063 
L 116.502173 72.033203 
L 117.013643 71.922544 
L 117.124528 71.897384 
L 117.638951 71.786491 
L 117.749568 71.759467 
L 118.236069 71.648808 
L 118.344806 71.621318 
L 118.840703 71.510425 
L 118.951052 71.485964 
L 119.485611 71.375071 
L 119.595155 71.35061 
L 119.596497 71.35061 
L 120.130251 71.239717 
L 120.240868 71.216887 
L 120.730053 71.105994 
L 120.839865 71.0813 
L 121.319921 70.970408 
L 121.430807 70.943616 
L 121.907641 70.832724 
L 122.018527 70.810825 
L 122.532681 70.700166 
L 122.642761 70.67221 
L 122.643567 70.67221 
L 123.200679 70.56155 
L 123.311028 70.538953 
L 123.931235 70.42806 
L 124.041046 70.408491 
L 124.593326 70.297599 
L 124.703138 70.276399 
L 125.228569 70.165506 
L 125.33489 70.144073 
L 125.868912 70.033414 
L 125.978455 70.013612 
L 125.979798 70.013612 
L 126.523217 69.902719 
L 126.633566 69.87919 
L 127.179133 69.76853 
L 127.179133 69.768297 
L 127.652209 69.683963 
L 128.341955 69.573071 
L 128.450961 69.5549 
L 129.121107 69.44424 
L 129.23065 69.425137 
L 129.231724 69.425137 
L 129.843339 69.314944 
L 129.953419 69.291647 
L 130.589736 69.180754 
L 130.700084 69.161651 
L 131.380701 69.050759 
L 131.490244 69.03119 
L 132.085214 68.920297 
L 132.193414 68.900029 
L 132.845571 68.789137 
L 132.955383 68.770266 
L 133.615058 68.659374 
L 133.725943 68.641669 
L 134.305609 68.530776 
L 134.415689 68.513537 
L 135.087714 68.402877 
L 135.197526 68.386803 
L 135.824177 68.27591 
L 135.932914 68.255642 
L 135.935062 68.255642 
L 136.571916 68.144983 
L 136.787243 68.104913 
L 137.475109 67.99402 
L 137.582773 67.977945 
L 137.584921 67.977945 
L 138.2207 67.867519 
L 138.2207 67.867286 
L 138.425019 67.835137 
L 139.054624 67.724244 
L 139.497629 67.652258 
L 140.165627 67.541365 
L 140.276244 67.524126 
L 140.276512 67.524126 
L 140.479221 67.495238 
L 141.117953 67.384578 
L 141.117953 67.384345 
L 142.18036 67.192613 
L 142.90125 67.081954 
L 142.90125 67.081721 
L 143.104764 67.051435 
L 143.711815 66.940543 
L 143.82109 66.921207 
L 143.821359 66.921207 
L 144.537147 66.810314 
L 144.74442 66.777233 
L 145.437387 66.666341 
L 145.868311 66.599945 
L 146.565574 66.489286 
L 146.993544 66.424521 
L 147.643821 66.313862 
L 147.643821 66.313629 
L 147.78612 66.288934 
L 148.453581 66.178042 
L 148.940081 66.087884 
L 149.563242 65.976991 
L 149.673859 65.957189 
L 149.674127 65.957189 
L 149.887844 65.917818 
L 150.555305 65.806925 
L 150.771437 65.765923 
L 151.394329 65.655031 
L 151.501993 65.636626 
L 151.505215 65.636626 
L 151.951442 65.563708 
L 152.560104 65.452815 
L 152.670184 65.431848 
L 152.67099 65.431848 
L 153.320999 65.320956 
L 153.52854 65.287409 
L 154.18902 65.176516 
L 154.299369 65.160209 
L 154.299637 65.160209 
L 154.935954 65.049316 
L 155.046839 65.033009 
L 155.741686 64.922349 
L 155.741686 64.922116 
L 156.201069 64.843839 
L 156.862086 64.73318 
L 157.005996 64.70569 
L 157.611168 64.595031 
L 157.752392 64.572433 
L 157.963155 64.53609 
L 158.632496 64.425198 
L 158.735058 64.407725 
L 158.742576 64.407725 
L 159.399297 64.296833 
L 159.617578 64.2542 
L 160.278058 64.143307 
L 160.388138 64.126767 
L 160.388944 64.126767 
L 161.106075 64.015874 
L 161.311737 63.983259 
L 161.945637 63.872367 
L 162.055986 63.851866 
L 162.056254 63.851866 
L 162.755665 63.740973 
L 163.20404 63.667356 
L 163.883583 63.556696 
L 163.883583 63.556463 
L 164.349678 63.475158 
L 165.014454 63.364731 
L 165.014454 63.364266 
L 165.122655 63.345162 
L 165.12534 63.345162 
L 165.801392 63.23427 
L 166.259701 63.156459 
L 167.018717 63.045567 
L 167.22411 63.014349 
L 167.87573 62.903457 
L 167.983931 62.88412 
L 167.986616 62.88412 
L 168.489494 62.78674 
L 169.173332 62.675848 
L 169.283144 62.660705 
L 169.284218 62.660705 
L 169.9745 62.549813 
L 170.18419 62.514635 
L 170.868565 62.403742 
L 173.144269 62.023773 
L 173.846097 61.912881 
L 173.956714 61.894243 
L 174.375286 61.833672 
L 175.02986 61.723012 
L 175.17189 61.699017 
L 175.792903 61.588125 
L 176.608837 61.467681 
L 177.258041 61.356788 
L 177.549082 61.316485 
L 178.222987 61.205593 
L 178.331188 61.187654 
L 178.333604 61.187654 
L 179.014489 61.076762 
L 179.225252 61.040186 
L 179.899694 60.929294 
L 180.101329 60.900173 
L 180.709185 60.78928 
L 180.818997 60.772274 
L 181.483236 60.661382 
L 181.594122 60.64321 
L 182.262388 60.532318 
L 182.373274 60.515544 
L 183.044225 60.404652 
L 183.154037 60.38485 
L 183.769679 60.27419 
L 183.878686 60.253456 
L 184.615685 60.142564 
L 184.72657 60.131381 
L 185.606942 60.020489 
L 185.713801 60.007909 
L 185.717291 60.007909 
L 186.696198 59.897017 
L 186.801714 59.882806 
L 186.806547 59.882806 
L 187.633489 59.771913 
L 187.740616 59.751412 
L 188.685962 59.64052 
L 188.796579 59.628405 
L 189.797234 59.517513 
L 189.903018 59.5047 
L 189.905703 59.5047 
L 190.764864 59.393808 
L 190.873333 59.378898 
L 190.874944 59.378898 
L 191.759881 59.268005 
L 191.869155 59.25263 
L 191.870498 59.25263 
L 192.921896 59.141737 
L 193.303686 59.097008 
L 194.285278 58.986115 
L 194.394016 58.9747 
L 194.395895 58.9747 
L 195.365137 58.863808 
L 195.475485 58.850528 
L 196.472649 58.739636 
L 196.583266 58.725425 
L 197.532371 58.614766 
L 197.64084 58.604049 
L 197.643257 58.604049 
L 198.716135 58.493157 
L 198.826483 58.48081 
L 199.91198 58.369917 
L 200.021255 58.352911 
L 201.202601 58.242018 
L 201.311876 58.230137 
L 202.666935 58.119245 
L 202.772719 58.105034 
L 204.242422 57.994141 
L 204.424994 57.981328 
L 206.163185 57.870436 
L 206.270311 57.862049 
L 206.273802 57.862049 
L 207.686854 57.751157 
L 207.797739 57.737179 
L 209.334296 57.626286 
L 209.519821 57.612308 
L 210.891257 57.501416 
L 210.999458 57.494427 
L 211.001069 57.494427 
L 212.368478 57.383768 
L 212.368478 57.383535 
L 212.554272 57.369091 
L 214.258096 57.258198 
L 214.347234 57.251675 
L 214.368713 57.251675 
L 216.054549 57.140783 
L 216.164629 57.1303 
L 217.81046 57.019407 
L 217.91517 57.012185 
L 217.919735 57.012185 
L 219.37843 56.901293 
L 219.488241 56.885917 
L 221.119037 56.775025 
L 221.225895 56.767803 
L 221.229923 56.767803 
L 222.832527 56.65691 
L 223.176192 56.628721 
L 224.519168 56.517829 
L 224.626563 56.506647 
L 224.628174 56.506647 
L 226.166879 56.395754 
L 226.349719 56.384106 
L 228.317467 56.273214 
L 228.428084 56.268554 
L 230.301056 56.157662 
L 230.409257 56.148343 
L 230.411673 56.148343 
L 232.044348 56.037451 
L 232.554475 56.005535 
L 234.325153 55.894642 
L 234.57082 55.880664 
L 236.170471 55.769772 
L 236.351969 55.759288 
L 238.016594 55.648396 
L 239.557446 55.537737 
L 241.316579 55.426844 
L 241.651384 55.402616 
L 243.205929 55.291723 
L 243.311713 55.282871 
L 243.316815 55.282871 
L 245.035943 55.171978 
L 245.804355 55.118862 
L 247.5455 55.008202 
L 247.5455 55.007969 
L 248.154699 54.971161 
L 257.50157 54.43324 
L 257.68441 54.421125 
L 259.974343 54.310466 
L 260.083618 54.303244 
L 262.109628 54.192352 
L 262.282534 54.18909 
L 265.28235 54.078198 
L 265.392967 54.071675 
L 265.393236 54.071675 
L 267.876212 53.960782 
L 267.98495 53.95589 
L 267.987098 53.95589 
L 270.061167 53.844998 
L 270.157554 53.840571 
L 273.06501 53.729679 
L 273.175359 53.725952 
L 286.128828 53.615059 
L 286.195413 53.61436 
L 286.234075 53.61436 
L 398.487273 53.568 
L 398.487273 53.568 
" clip-path="url(#pb18a1040d9)" style="fill: none; stroke: #1f77b4; stroke-width: 1.5; stroke-linecap: square"/>
   </g>
   <g id="line2d_14">
    <path d="M 73.832727 295.488 
L 398.487273 53.568 
" clip-path="url(#pb18a1040d9)" style="fill: none; stroke-dasharray: 5.55,2.4; stroke-dashoffset: 0; stroke: #ff7f0e; stroke-width: 1.5"/>
   </g>
   <g id="patch_3">
    <path d="M 57.6 307.584 
L 57.6 41.472 
" style="fill: none; stroke: #000000; stroke-width: 0.8; stroke-linejoin: miter; stroke-linecap: square"/>
   </g>
   <g id="patch_4">
    <path d="M 414.72 307.584 
L 414.72 41.472 
" style="fill: none; stroke: #000000; stroke-width: 0.8; stroke-linejoin: miter; stroke-linecap: square"/>
   </g>
   <g id="patch_5">
    <path d="M 57.6 307.584 
L 414.72 307.584 
" style="fill: none; stroke: #000000; stroke-width: 0.8; stroke-linejoin: miter; stroke-linecap: square"/>
   </g>
   <g id="patch_6">
    <path d="M 57.6 41.472 
L 414.72 41.472 
" style="fill: none; stroke: #000000; stroke-width: 0.8; stroke-linejoin: miter; stroke-linecap: square"/>
   </g>
   <g id="text_13">
    <!-- ROC Curve -->
    <g transform="translate(203.469375 35.472) scale(0.12 -0.12)">
     <defs>
      <path id="DejaVuSans-52" d="M 2841 2188 
Q 3044 2119 3236 1894 
Q 3428 1669 3622 1275 
L 4263 0 
L 3584 0 
L 2988 1197 
Q 2756 1666 2539 1819 
Q 2322 1972 1947 1972 
L 1259 1972 
L 1259 0 
L 628 0 
L 628 4666 
L 2053 4666 
Q 2853 4666 3247 4331 
Q 3641 3997 3641 3322 
Q 3641 2881 3436 2590 
Q 3231 2300 2841 2188 
z
M 1259 4147 
L 1259 2491 
L 2053 2491 
Q 2509 2491 2742 2702 
Q 2975 2913 2975 3322 
Q 2975 3731 2742 3939 
Q 2509 4147 2053 4147 
L 1259 4147 
z
" transform="scale(0.015625)"/>
      <path id="DejaVuSans-4f" d="M 2522 4238 
Q 1834 4238 1429 3725 
Q 1025 3213 1025 2328 
Q 1025 1447 1429 934 
Q 1834 422 2522 422 
Q 3209 422 3611 934 
Q 4013 1447 4013 2328 
Q 4013 3213 3611 3725 
Q 3209 4238 2522 4238 
z
M 2522 4750 
Q 3503 4750 4090 4092 
Q 4678 3434 4678 2328 
Q 4678 1225 4090 567 
Q 3503 -91 2522 -91 
Q 1538 -91 948 565 
Q 359 1222 359 2328 
Q 359 3434 948 4092 
Q 1538 4750 2522 4750 
z
" transform="scale(0.015625)"/>
      <path id="DejaVuSans-43" d="M 4122 4306 
L 4122 3641 
Q 3803 3938 3442 4084 
Q 3081 4231 2675 4231 
Q 1875 4231 1450 3742 
Q 1025 3253 1025 2328 
Q 1025 1406 1450 917 
Q 1875 428 2675 428 
Q 3081 428 3442 575 
Q 3803 722 4122 1019 
L 4122 359 
Q 3791 134 3420 21 
Q 3050 -91 2638 -91 
Q 1578 -91 968 557 
Q 359 1206 359 2328 
Q 359 3453 968 4101 
Q 1578 4750 2638 4750 
Q 3056 4750 3426 4639 
Q 3797 4528 4122 4306 
z
" transform="scale(0.015625)"/>
      <path id="DejaVuSans-20" transform="scale(0.015625)"/>
      <path id="DejaVuSans-75" d="M 544 1381 
L 544 3500 
L 1119 3500 
L 1119 1403 
Q 1119 906 1312 657 
Q 1506 409 1894 409 
Q 2359 409 2629 706 
Q 2900 1003 2900 1516 
L 2900 3500 
L 3475 3500 
L 3475 0 
L 2900 0 
L 2900 538 
Q 2691 219 2414 64 
Q 2138 -91 1772 -91 
Q 1169 -91 856 284 
Q 544 659 544 1381 
z
M 1991 3584 
L 1991 3584 
z
" transform="scale(0.015625)"/>
      <path id="DejaVuSans-72" d="M 2631 2963 
Q 2534 3019 2420 3045 
Q 2306 3072 2169 3072 
Q 1681 3072 1420 2755 
Q 1159 2438 1159 1844 
L 1159 0 
L 581 0 
L 581 3500 
L 1159 3500 
L 1159 2956 
Q 1341 3275 1631 3429 
Q 1922 3584 2338 3584 
Q 2397 3584 2469 3576 
Q 2541 3569 2628 3553 
L 2631 2963 
z
" transform="scale(0.015625)"/>
      <path id="DejaVuSans-76" d="M 191 3500 
L 800 3500 
L 1894 563 
L 2988 3500 
L 3597 3500 
L 2284 0 
L 1503 0 
L 191 3500 
z
" transform="scale(0.015625)"/>
      <path id="DejaVuSans-65" d="M 3597 1894 
L 3597 1613 
L 953 1613 
Q 991 1019 1311 708 
Q 1631 397 2203 397 
Q 2534 397 2845 478 
Q 3156 559 3463 722 
L 3463 178 
Q 3153 47 2828 -22 
Q 2503 -91 2169 -91 
Q 1331 -91 842 396 
Q 353 884 353 1716 
Q 353 2575 817 3079 
Q 1281 3584 2069 3584 
Q 2775 3584 3186 3129 
Q 3597 2675 3597 1894 
z
M 3022 2063 
Q 3016 2534 2758 2815 
Q 2500 3097 2075 3097 
Q 1594 3097 1305 2825 
Q 1016 2553 972 2059 
L 3022 2063 
z
" transform="scale(0.015625)"/>
     </defs>
     <use xlink:href="#DejaVuSans-52"/>
     <use xlink:href="#DejaVuSans-4f" transform="translate(69.482422 0)"/>
     <use xlink:href="#DejaVuSans-43" transform="translate(148.193359 0)"/>
     <use xlink:href="#DejaVuSans-20" transform="translate(218.017578 0)"/>
     <use xlink:href="#DejaVuSans-43" transform="translate(249.804688 0)"/>
     <use xlink:href="#DejaVuSans-75" transform="translate(319.628906 0)"/>
     <use xlink:href="#DejaVuSans-72" transform="translate(383.007812 0)"/>
     <use xlink:href="#DejaVuSans-76" transform="translate(424.121094 0)"/>
     <use xlink:href="#DejaVuSans-65" transform="translate(483.300781 0)"/>
    </g>
   </g>
   <g id="legend_1">
    <g id="patch_7">
     <path d="M 64.6 64.150125 
L 154.75 64.150125 
Q 156.75 64.150125 156.75 62.150125 
L 156.75 48.472 
Q 156.75 46.472 154.75 46.472 
L 64.6 46.472 
Q 62.6 46.472 62.6 48.472 
L 62.6 62.150125 
Q 62.6 64.150125 64.6 64.150125 
z
" style="fill: #ffffff; opacity: 0.8; stroke: #cccccc; stroke-linejoin: miter"/>
    </g>
    <g id="line2d_15">
     <path d="M 66.6 54.570438 
L 76.6 54.570438 
L 86.6 54.570438 
" style="fill: none; stroke: #1f77b4; stroke-width: 1.5; stroke-linecap: square"/>
    </g>
    <g id="text_14">
     <!-- AUC=0.969 -->
     <g transform="translate(94.6 58.070438) scale(0.1 -0.1)">
      <defs>
       <path id="DejaVuSans-41" d="M 2188 4044 
L 1331 1722 
L 3047 1722 
L 2188 4044 
z
M 1831 4666 
L 2547 4666 
L 4325 0 
L 3669 0 
L 3244 1197 
L 1141 1197 
L 716 0 
L 50 0 
L 1831 4666 
z
" transform="scale(0.015625)"/>
       <path id="DejaVuSans-55" d="M 556 4666 
L 1191 4666 
L 1191 1831 
Q 1191 1081 1462 751 
Q 1734 422 2344 422 
Q 2950 422 3222 751 
Q 3494 1081 3494 1831 
L 3494 4666 
L 4128 4666 
L 4128 1753 
Q 4128 841 3676 375 
Q 3225 -91 2344 -91 
Q 1459 -91 1007 375 
Q 556 841 556 1753 
L 556 4666 
z
" transform="scale(0.015625)"/>
       <path id="DejaVuSans-3d" d="M 678 2906 
L 4684 2906 
L 4684 2381 
L 678 2381 
L 678 2906 
z
M 678 1631 
L 4684 1631 
L 4684 1100 
L 678 1100 
L 678 1631 
z
" transform="scale(0.015625)"/>
       <path id="DejaVuSans-39" d="M 703 97 
L 703 672 
Q 941 559 1184 500 
Q 1428 441 1663 441 
Q 2288 441 2617 861 
Q 2947 1281 2994 2138 
Q 2813 1869 2534 1725 
Q 2256 1581 1919 1581 
Q 1219 1581 811 2004 
Q 403 2428 403 3163 
Q 403 3881 828 4315 
Q 1253 4750 1959 4750 
Q 2769 4750 3195 4129 
Q 3622 3509 3622 2328 
Q 3622 1225 3098 567 
Q 2575 -91 1691 -91 
Q 1453 -91 1209 -44 
Q 966 3 703 97 
z
M 1959 2075 
Q 2384 2075 2632 2365 
Q 2881 2656 2881 3163 
Q 2881 3666 2632 3958 
Q 2384 4250 1959 4250 
Q 1534 4250 1286 3958 
Q 1038 3666 1038 3163 
Q 1038 2656 1286 2365 
Q 1534 2075 1959 2075 
z
" transform="scale(0.015625)"/>
      </defs>
      <use xlink:href="#DejaVuSans-41"/>
      <use xlink:href="#DejaVuSans-55" transform="translate(68.408203 0)"/>
      <use xlink:href="#DejaVuSans-43" transform="translate(141.601562 0)"/>
      <use xlink:href="#DejaVuSans-3d" transform="translate(211.425781 0)"/>
      <use xlink:href="#DejaVuSans-30" transform="translate(295.214844 0)"/>
      <use xlink:href="#DejaVuSans-2e" transform="translate(358.837891 0)"/>
      <use xlink:href="#DejaVuSans-39" transform="translate(390.625 0)"/>
      <use xlink:href="#DejaVuSans-36" transform="translate(454.248047 0)"/>
      <use xlink:href="#DejaVuSans-39" transform="translate(517.871094 0)"/>
     </g>
    </g>
   </g>
  </g>
 </g>
 <defs>
  <clipPath id="pb18a1040d9">
   <rect x="57.6" y="41.472" width="357.12" height="266.112"/>
  </clipPath>
 </defs>
</svg>
