<?xml version="1.0" encoding="utf-8" standalone="no"?>
<!DOCTYPE svg PUBLIC "-//W3C//DTD SVG 1.1//EN"
  "http://www.w3.org/Graphics/SVG/1.1/DTD/svg11.dtd">
<svg xmlns:xlink="http://www.w3.org/1999/xlink" width="460.8pt" height="345.6pt" viewBox="0 0 460.8 345.6" xmlns="http://www.w3.org/2000/svg" version="1.1">
 <metadata>
  <rdf:RDF xmlns:dc="http://purl.org/dc/elements/1.1/" xmlns:cc="http://creativecommons.org/ns#" xmlns:rdf="http://www.w3.org/1999/02/22-rdf-syntax-ns#">
   <cc:Work>
    <dc:type rdf:resource="http://purl.org/dc/dcmitype/StillImage"/>
    <dc:date>2026-03-17T10:21:42.769288</dc:date>
    <dc:format>image/svg+xml</dc:format>
    <dc:creator>
     <cc:Agent>
      <dc:title>Matplotlib v3.10.8, https://matplotlib.org/</dc:title>
     </cc:Agent>
    </dc:creator>
   </cc:Work>
  </rdf:RDF>
 </metadata>
 <defs>
  <style type="text/css">*{stroke-linejoin: round; stroke-linecap: butt}</style>
 </defs>
 <g id="figure_1">
  <g id="patch_1">
   <path d="M 0 345.6 
L 460.8 345.6 
L 460.8 0 
L 0 0 
z
" style="fill: #ffffff"/>
  </g>
  <g id="axes_1">
   <g id="patch_2">
    <path d="M 57.6 307.584 
L 414.72 307.584 
L 414.72 41.472 
L 57.6 41.472 
z
" style="fill: #ffffff"/>
   </g>
   <g id="matplotlib.axis_1">
    <g id="xtick_1">
     <g id="line2d_1">
      <defs>
       <path id="md390802571" d="M 0 0 
L 0 3.5 
" style="stroke: #000000; stroke-width: 0.8"/>
      </defs>
      <g>
       <use xlink:href="#md390802571" x="73.832727" y="307.584" style="stroke: #000000; stroke-width: 0.8"/>
      </g>
     </g>
     <g id="text_1">
      <!-- 0.0 -->
      <g transform="translate(65.881165 322.182437) scale(0.1 -0.1)">
       <defs>
        <path id="DejaVuSans-30" d="M 2034 4250 
Q 1547 4250 1301 3770 
Q 1056 3291 1056 2328 
Q 1056 1369 1301 889 
Q 1547 409 2034 409 
Q 2525 409 2770 889 
Q 3016 1369 3016 2328 
Q 3016 3291 2770 3770 
Q 2525 4250 2034 4250 
z
M 2034 4750 
Q 2819 4750 3233 4129 
Q 3647 3509 3647 2328 
Q 3647 1150 3233 529 
Q 2819 -91 2034 -91 
Q 1250 -91 836 529 
Q 422 1150 422 2328 
Q 422 3509 836 4129 
Q 1250 4750 2034 4750 
z
" transform="scale(0.015625)"/>
        <path id="DejaVuSans-2e" d="M 684 794 
L 1344 794 
L 1344 0 
L 684 0 
L 684 794 
z
" transform="scale(0.015625)"/>
       </defs>
       <use xlink:href="#DejaVuSans-30"/>
       <use xlink:href="#DejaVuSans-2e" transform="translate(63.623047 0)"/>
       <use xlink:href="#DejaVuSans-30" transform="translate(95.410156 0)"/>
      </g>
     </g>
    </g>
    <g id="xtick_2">
     <g id="line2d_2">
      <g>
       <use xlink:href="#md390802571" x="138.763636" y="307.584" style="stroke: #000000; stroke-width: 0.8"/>
      </g>
     </g>
     <g id="text_2">
      <!-- 0.2 -->
      <g transform="translate(130.812074 322.182437) scale(0.1 -0.1)">
       <defs>
        <path id="DejaVuSans-32" d="M 1228 531 
L 3431 531 
L 3431 0 
L 469 0 
L 469 531 
Q 828 903 1448 1529 
Q 2069 2156 2228 2338 
Q 2531 2678 2651 2914 
Q 2772 3150 2772 3378 
Q 2772 3750 2511 3984 
Q 2250 4219 1831 4219 
Q 1534 4219 1204 4116 
Q 875 4013 500 3803 
L 500 4441 
Q 881 4594 1212 4672 
Q 1544 4750 1819 4750 
Q 2544 4750 2975 4387 
Q 3406 4025 3406 3419 
Q 3406 3131 3298 2873 
Q 3191 2616 2906 2266 
Q 2828 2175 2409 1742 
Q 1991 1309 1228 531 
z
" transform="scale(0.015625)"/>
       </defs>
       <use xlink:href="#DejaVuSans-30"/>
       <use xlink:href="#DejaVuSans-2e" transform="translate(63.623047 0)"/>
       <use xlink:href="#DejaVuSans-32" transform="translate(95.410156 0)"/>
      </g>
     </g>
    </g>
    <g id="xtick_3">
     <g id="line2d_3">
      <g>
       <use xlink:href="#md390802571" x="203.694545" y="307.584" style="stroke: #000000; stroke-width: 0.8"/>
      </g>
     </g>
     <g id="text_3">
      <!-- 0.4 -->
      <g transform="translate(195.742983 322.182437) scale(0.1 -0.1)">
       <defs>
        <path id="DejaVuSans-34" d="M 2419 4116 
L 825 1625 
L 2419 1625 
L 2419 4116 
z
M 2253 4666 
L 3047 4666 
L 3047 1625 
L 3713 1625 
L 3713 1100 
L 3047 1100 
L 3047 0 
L 2419 0 
L 2419 1100 
L 313 1100 
L 313 1709 
L 2253 4666 
z
" transform="scale(0.015625)"/>
       </defs>
       <use xlink:href="#DejaVuSans-30"/>
       <use xlink:href="#DejaVuSans-2e" transform="translate(63.623047 0)"/>
       <use xlink:href="#DejaVuSans-34" transform="translate(95.410156 0)"/>
      </g>
     </g>
    </g>
    <g id="xtick_4">
     <g id="line2d_4">
      <g>
       <use xlink:href="#md390802571" x="268.625455" y="307.584" style="stroke: #000000; stroke-width: 0.8"/>
      </g>
     </g>
     <g id="text_4">
      <!-- 0.6 -->
      <g transform="translate(260.673892 322.182437) scale(0.1 -0.1)">
       <defs>
        <path id="DejaVuSans-36" d="M 2113 2584 
Q 1688 2584 1439 2293 
Q 1191 2003 1191 1497 
Q 1191 994 1439 701 
Q 1688 409 2113 409 
Q 2538 409 2786 701 
Q 3034 994 3034 1497 
Q 3034 2003 2786 2293 
Q 2538 2584 2113 2584 
z
M 3366 4563 
L 3366 3988 
Q 3128 4100 2886 4159 
Q 2644 4219 2406 4219 
Q 1781 4219 1451 3797 
Q 1122 3375 1075 2522 
Q 1259 2794 1537 2939 
Q 1816 3084 2150 3084 
Q 2853 3084 3261 2657 
Q 3669 2231 3669 1497 
Q 3669 778 3244 343 
Q 2819 -91 2113 -91 
Q 1303 -91 875 529 
Q 447 1150 447 2328 
Q 447 3434 972 4092 
Q 1497 4750 2381 4750 
Q 2619 4750 2861 4703 
Q 3103 4656 3366 4563 
z
" transform="scale(0.015625)"/>
       </defs>
       <use xlink:href="#DejaVuSans-30"/>
       <use xlink:href="#DejaVuSans-2e" transform="translate(63.623047 0)"/>
       <use xlink:href="#DejaVuSans-36" transform="translate(95.410156 0)"/>
      </g>
     </g>
    </g>
    <g id="xtick_5">
     <g id="line2d_5">
      <g>
       <use xlink:href="#md390802571" x="333.556364" y="307.584" style="stroke: #000000; stroke-width: 0.8"/>
      </g>
     </g>
     <g id="text_5">
      <!-- 0.8 -->
      <g transform="translate(325.604801 322.182437) scale(0.1 -0.1)">
       <defs>
        <path id="DejaVuSans-38" d="M 2034 2216 
Q 1584 2216 1326 1975 
Q 1069 1734 1069 1313 
Q 1069 891 1326 650 
Q 1584 409 2034 409 
Q 2484 409 2743 651 
Q 3003 894 3003 1313 
Q 3003 1734 2745 1975 
Q 2488 2216 2034 2216 
z
M 1403 2484 
Q 997 2584 770 2862 
Q 544 3141 544 3541 
Q 544 4100 942 4425 
Q 1341 4750 2034 4750 
Q 2731 4750 3128 4425 
Q 3525 4100 3525 3541 
Q 3525 3141 3298 2862 
Q 3072 2584 2669 2484 
Q 3125 2378 3379 2068 
Q 3634 1759 3634 1313 
Q 3634 634 3220 271 
Q 2806 -91 2034 -91 
Q 1263 -91 848 271 
Q 434 634 434 1313 
Q 434 1759 690 2068 
Q 947 2378 1403 2484 
z
M 1172 3481 
Q 1172 3119 1398 2916 
Q 1625 2713 2034 2713 
Q 2441 2713 2670 2916 
Q 2900 3119 2900 3481 
Q 2900 3844 2670 4047 
Q 2441 4250 2034 4250 
Q 1625 4250 1398 4047 
Q 1172 3844 1172 3481 
z
" transform="scale(0.015625)"/>
       </defs>
       <use xlink:href="#DejaVuSans-30"/>
       <use xlink:href="#DejaVuSans-2e" transform="translate(63.623047 0)"/>
       <use xlink:href="#DejaVuSans-38" transform="translate(95.410156 0)"/>
      </g>
     </g>
    </g>
    <g id="xtick_6">
     <g id="line2d_6">
      <g>
       <use xlink:href="#md390802571" x="398.487273" y="307.584" style="stroke: #000000; stroke-width: 0.8"/>
      </g>
     </g>
     <g id="text_6">
      <!-- 1.0 -->
      <g transform="translate(390.53571 322.182437) scale(0.1 -0.1)">
       <defs>
        <path id="DejaVuSans-31" d="M 794 531 
L 1825 531 
L 1825 4091 
L 703 3866 
L 703 4441 
L 1819 4666 
L 2450 4666 
L 2450 531 
L 3481 531 
L 3481 0 
L 794 0 
L 794 531 
z
" transform="scale(0.015625)"/>
       </defs>
       <use xlink:href="#DejaVuSans-31"/>
       <use xlink:href="#DejaVuSans-2e" transform="translate(63.623047 0)"/>
       <use xlink:href="#DejaVuSans-30" transform="translate(95.410156 0)"/>
      </g>
     </g>
    </g>
   </g>
   <g id="matplotlib.axis_2">
    <g id="ytick_1">
     <g id="line2d_7">
      <defs>
       <path id="ma3cea3b9f1" d="M 0 0 
L -3.5 0 
" style="stroke: #000000; stroke-width: 0.8"/>
      </defs>
      <g>
       <use xlink:href="#ma3cea3b9f1" x="57.6" y="278.405695" style="stroke: #000000; stroke-width: 0.8"/>
      </g>
     </g>
     <g id="text_7">
      <!-- 0.5 -->
      <g transform="translate(34.696875 282.204913) scale(0.1 -0.1)">
       <defs>
        <path id="DejaVuSans-35" d="M 691 4666 
L 3169 4666 
L 3169 4134 
L 1269 4134 
L 1269 2991 
Q 1406 3038 1543 3061 
Q 1681 3084 1819 3084 
Q 2600 3084 3056 2656 
Q 3513 2228 3513 1497 
Q 3513 744 3044 326 
Q 2575 -91 1722 -91 
Q 1428 -91 1123 -41 
Q 819 9 494 109 
L 494 744 
Q 775 591 1075 516 
Q 1375 441 1709 441 
Q 2250 441 2565 725 
Q 2881 1009 2881 1497 
Q 2881 1984 2565 2268 
Q 2250 2553 1709 2553 
Q 1456 2553 1204 2497 
Q 953 2441 691 2322 
L 691 4666 
z
" transform="scale(0.015625)"/>
       </defs>
       <use xlink:href="#DejaVuSans-30"/>
       <use xlink:href="#DejaVuSans-2e" transform="translate(63.623047 0)"/>
       <use xlink:href="#DejaVuSans-35" transform="translate(95.410156 0)"/>
      </g>
     </g>
    </g>
    <g id="ytick_2">
     <g id="line2d_8">
      <g>
       <use xlink:href="#ma3cea3b9f1" x="57.6" y="233.438156" style="stroke: #000000; stroke-width: 0.8"/>
      </g>
     </g>
     <g id="text_8">
      <!-- 0.6 -->
      <g transform="translate(34.696875 237.237374) scale(0.1 -0.1)">
       <use xlink:href="#DejaVuSans-30"/>
       <use xlink:href="#DejaVuSans-2e" transform="translate(63.623047 0)"/>
       <use xlink:href="#DejaVuSans-36" transform="translate(95.410156 0)"/>
      </g>
     </g>
    </g>
    <g id="ytick_3">
     <g id="line2d_9">
      <g>
       <use xlink:href="#ma3cea3b9f1" x="57.6" y="188.470617" style="stroke: #000000; stroke-width: 0.8"/>
      </g>
     </g>
     <g id="text_9">
      <!-- 0.7 -->
      <g transform="translate(34.696875 192.269836) scale(0.1 -0.1)">
       <defs>
        <path id="DejaVuSans-37" d="M 525 4666 
L 3525 4666 
L 3525 4397 
L 1831 0 
L 1172 0 
L 2766 4134 
L 525 4134 
L 525 4666 
z
" transform="scale(0.015625)"/>
       </defs>
       <use xlink:href="#DejaVuSans-30"/>
       <use xlink:href="#DejaVuSans-2e" transform="translate(63.623047 0)"/>
       <use xlink:href="#DejaVuSans-37" transform="translate(95.410156 0)"/>
      </g>
     </g>
    </g>
    <g id="ytick_4">
     <g id="line2d_10">
      <g>
       <use xlink:href="#ma3cea3b9f1" x="57.6" y="143.503078" style="stroke: #000000; stroke-width: 0.8"/>
      </g>
     </g>
     <g id="text_10">
      <!-- 0.8 -->
      <g transform="translate(34.696875 147.302297) scale(0.1 -0.1)">
       <use xlink:href="#DejaVuSans-30"/>
       <use xlink:href="#DejaVuSans-2e" transform="translate(63.623047 0)"/>
       <use xlink:href="#DejaVuSans-38" transform="translate(95.410156 0)"/>
      </g>
     </g>
    </g>
    <g id="ytick_5">
     <g id="line2d_11">
      <g>
       <use xlink:href="#ma3cea3b9f1" x="57.6" y="98.535539" style="stroke: #000000; stroke-width: 0.8"/>
      </g>
     </g>
     <g id="text_11">
      <!-- 0.9 -->
      <g transform="translate(34.696875 102.334758) scale(0.1 -0.1)">
       <defs>
        <path id="DejaVuSans-39" d="M 703 97 
L 703 672 
Q 941 559 1184 500 
Q 1428 441 1663 441 
Q 2288 441 2617 861 
Q 2947 1281 2994 2138 
Q 2813 1869 2534 1725 
Q 2256 1581 1919 1581 
Q 1219 1581 811 2004 
Q 403 2428 403 3163 
Q 403 3881 828 4315 
Q 1253 4750 1959 4750 
Q 2769 4750 3195 4129 
Q 3622 3509 3622 2328 
Q 3622 1225 3098 567 
Q 2575 -91 1691 -91 
Q 1453 -91 1209 -44 
Q 966 3 703 97 
z
M 1959 2075 
Q 2384 2075 2632 2365 
Q 2881 2656 2881 3163 
Q 2881 3666 2632 3958 
Q 2384 4250 1959 4250 
Q 1534 4250 1286 3958 
Q 1038 3666 1038 3163 
Q 1038 2656 1286 2365 
Q 1534 2075 1959 2075 
z
" transform="scale(0.015625)"/>
       </defs>
       <use xlink:href="#DejaVuSans-30"/>
       <use xlink:href="#DejaVuSans-2e" transform="translate(63.623047 0)"/>
       <use xlink:href="#DejaVuSans-39" transform="translate(95.410156 0)"/>
      </g>
     </g>
    </g>
    <g id="ytick_6">
     <g id="line2d_12">
      <g>
       <use xlink:href="#ma3cea3b9f1" x="57.6" y="53.568" style="stroke: #000000; stroke-width: 0.8"/>
      </g>
     </g>
     <g id="text_12">
      <!-- 1.0 -->
      <g transform="translate(34.696875 57.367219) scale(0.1 -0.1)">
       <use xlink:href="#DejaVuSans-31"/>
       <use xlink:href="#DejaVuSans-2e" transform="translate(63.623047 0)"/>
       <use xlink:href="#DejaVuSans-30" transform="translate(95.410156 0)"/>
      </g>
     </g>
    </g>
   </g>
   <g id="line2d_13">
    <path d="M 398.487273 295.488 
L 398.376286 245.232716 
L 398.375973 245.232822 
L 398.374097 245.11618 
L 398.26311 242.083041 
L 398.262797 242.083147 
L 398.255294 241.968549 
L 398.144307 240.548051 
L 398.143994 240.548156 
L 398.137116 240.433251 
L 398.026129 238.752536 
L 398.025504 238.751845 
L 398.017062 238.63851 
L 397.906075 237.193805 
L 397.905763 237.19391 
L 397.893882 237.080761 
L 397.782895 236.135025 
L 397.769452 236.020648 
L 397.658465 234.750939 
L 397.658152 234.751043 
L 397.652212 234.635967 
L 397.541225 233.643388 
L 397.540912 233.643493 
L 397.526218 233.537821 
L 397.52403 233.532145 
L 397.413042 232.508076 
L 397.412417 232.508285 
L 397.402725 232.394445 
L 397.402413 232.394549 
L 397.291425 231.715672 
L 397.289862 231.714607 
L 397.277044 231.60345 
L 397.166057 230.771035 
L 397.161993 230.761369 
L 397.147611 230.660094 
L 397.036624 229.876686 
L 397.019116 229.760585 
L 396.908129 228.983667 
L 396.907816 228.98377 
L 396.888745 228.873489 
L 396.88812 228.873372 
L 396.777133 228.212472 
L 396.77682 228.212576 
L 396.759313 228.101391 
L 396.759 228.101495 
L 396.648013 227.334063 
L 396.6477 227.334167 
L 396.629254 227.223472 
L 396.51858 226.421353 
L 396.518267 226.421456 
L 396.516391 226.419928 
L 396.502635 226.310986 
L 396.50201 226.309871 
L 396.391336 225.374866 
L 396.391023 225.374969 
L 396.39071 225.375072 
L 396.379455 225.261897 
L 396.366324 225.145904 
L 396.25565 224.394323 
L 396.255337 224.394426 
L 396.232827 224.276513 
L 396.12184 223.647088 
L 396.121527 223.647191 
L 396.106833 223.536445 
L 396.105895 223.535402 
L 395.994908 222.592072 
L 395.980839 222.475428 
L 395.869852 221.651606 
L 395.86954 221.651708 
L 395.853908 221.540016 
L 395.742921 220.79018 
L 395.722912 220.672246 
L 395.611925 219.958788 
L 395.610987 219.957533 
L 395.592541 219.848706 
L 395.591916 219.848562 
L 395.480928 219.131226 
L 395.480616 219.131328 
L 395.463421 219.020144 
L 395.352433 218.27555 
L 395.351808 218.275402 
L 395.341178 218.162731 
L 395.230191 217.40916 
L 395.229879 217.409261 
L 395.217998 217.297122 
L 395.217686 217.296516 
L 395.106699 216.555189 
L 395.105135 216.554094 
L 395.090441 216.44372 
L 394.979454 215.765907 
L 394.978829 215.765214 
L 394.966949 215.654138 
L 394.966323 215.653445 
L 394.855649 214.86142 
L 394.832201 214.740856 
L 394.721214 214.0703 
L 394.720901 214.070401 
L 394.701517 213.962446 
L 394.700579 213.960391 
L 394.589592 213.226045 
L 394.570521 213.106679 
L 394.459534 212.37803 
L 394.442339 212.25855 
L 394.331352 211.342904 
L 394.313531 211.223038 
L 394.202544 210.425215 
L 394.201606 210.423653 
L 394.189101 210.31297 
L 394.078114 209.475995 
L 394.059043 209.311276 
L 393.948055 208.546918 
L 393.919605 208.30486 
L 393.808618 207.608645 
L 393.807055 207.606861 
L 393.790172 207.502775 
L 393.787984 207.498716 
L 393.676997 206.840517 
L 393.676684 206.840616 
L 393.662303 206.731103 
L 393.661365 206.729105 
L 393.550378 206.132415 
L 393.52693 206.009598 
L 393.415943 205.211179 
L 393.394996 205.08882 
L 393.284009 204.447121 
L 393.260873 204.323942 
L 393.149886 203.571682 
L 393.149573 203.571779 
L 393.134254 203.460188 
L 393.02358 202.533769 
L 393.023267 202.533867 
L 393.022329 202.533372 
L 392.999194 202.425123 
L 392.888207 201.697243 
L 392.887269 201.697337 
L 392.869448 201.586724 
L 392.855379 201.465523 
L 392.744705 200.574728 
L 392.744392 200.574825 
L 392.74408 200.574922 
L 392.726572 200.464274 
L 392.726259 200.464171 
L 392.615272 199.708356 
L 392.613709 199.705826 
L 392.59495 199.598454 
L 392.483963 198.719165 
L 392.467706 198.59645 
L 392.356719 197.82999 
L 392.356406 197.830086 
L 392.334522 197.720922 
L 392.334209 197.720815 
L 392.223222 197.218053 
L 392.211341 197.194908 
L 392.19227 197.115854 
L 392.190395 197.111927 
L 392.079407 196.595828 
L 392.078157 196.594979 
L 392.057835 196.487148 
L 392.05721 196.486517 
L 391.946536 195.974789 
L 391.946223 195.974885 
L 391.942784 195.966238 
L 391.92215 195.868713 
L 391.921212 195.866522 
L 391.810225 195.358391 
L 391.763954 195.262209 
L 391.763641 195.256496 
L 391.652654 194.868662 
L 391.629206 194.797779 
L 391.641086 194.819965 
L 391.620452 194.762353 
L 391.509465 194.322597 
L 391.475075 194.192016 
L 391.364088 193.767635 
L 391.361586 193.765459 
L 391.342515 193.665941 
L 391.340327 193.658841 
L 391.22934 193.234731 
L 391.228402 193.233752 
L 391.218397 193.186043 
L 391.196825 193.128552 
L 391.085838 192.776135 
L 391.07896 192.761107 
L 391.06239 192.679061 
L 391.058951 192.668265 
L 390.947964 192.191288 
L 390.942962 192.179224 
L 390.92264 192.084352 
L 390.922015 192.083055 
L 390.811028 191.574679 
L 390.807901 191.567739 
L 390.789456 191.465238 
L 390.678468 190.911388 
L 390.678156 190.911482 
L 390.65971 190.806541 
L 390.658147 190.801656 
L 390.54716 190.242828 
L 390.546534 190.243016 
L 390.5259 190.135616 
L 390.524962 190.13353 
L 390.413975 189.561896 
L 390.408973 189.549348 
L 390.389589 189.470848 
L 390.383962 189.455018 
L 390.356762 189.325128 
L 390.245775 188.740598 
L 390.220451 188.611177 
L 390.109777 188.045444 
L 390.104149 188.032488 
L 390.089455 187.935924 
L 390.089142 187.935799 
L 389.978468 187.363428 
L 389.978155 187.363521 
L 389.973466 187.351968 
L 389.956271 187.262465 
L 389.951581 187.255514 
L 389.840906 186.722505 
L 389.812769 186.591037 
L 389.701782 186.054297 
L 389.672706 185.922212 
L 389.562032 185.353039 
L 389.534832 185.221474 
L 389.423845 184.712422 
L 389.423532 184.712514 
L 389.402585 184.604416 
L 389.40196 184.603481 
L 389.290973 184.136905 
L 389.286596 184.132356 
L 389.271589 184.031466 
L 389.269401 184.027841 
L 389.158414 183.463155 
L 389.129964 183.330278 
L 389.018976 182.816532 
L 389.018664 182.816623 
L 388.993965 182.708289 
L 388.882978 182.241678 
L 388.857967 182.171408 
L 388.877351 182.219668 
L 388.849838 182.135778 
L 388.738851 181.692421 
L 388.736975 181.689543 
L 388.72447 181.63176 
L 388.707275 181.586053 
L 388.596287 181.152696 
L 388.575966 181.091669 
L 388.595662 181.145086 
L 388.565336 181.046146 
L 388.454662 180.642363 
L 388.454349 180.642454 
L 388.438092 180.613813 
L 388.453098 180.636147 
L 388.420897 180.536652 
L 388.310222 180.144841 
L 388.309909 180.144932 
L 388.27677 180.042768 
L 388.30647 180.128616 
L 388.275832 180.039344 
L 388.165782 179.667094 
L 388.164845 179.667364 
L 388.125452 179.527665 
L 388.014465 179.152751 
L 388.007274 179.135297 
L 387.987578 179.044933 
L 387.876591 178.666231 
L 387.858145 178.621847 
L 387.8422 178.560622 
L 387.731213 178.154225 
L 387.689632 178.08233 
L 387.7309 178.152676 
L 387.683067 178.052592 
L 387.572392 177.705514 
L 387.572079 177.705604 
L 387.552383 177.648529 
L 387.545192 177.607118 
L 387.54019 177.599384 
L 387.429203 177.232494 
L 387.426389 177.228586 
L 387.410132 177.137769 
L 387.40513 177.123871 
L 387.294143 176.716329 
L 387.278511 176.673721 
L 387.264129 176.609916 
L 387.263817 176.609532 
L 387.152829 176.233084 
L 387.123129 176.144456 
L 387.151892 176.228368 
L 387.119064 176.127328 
L 387.008077 175.764421 
L 387.007139 175.76445 
L 387.002137 175.730393 
L 386.979627 175.65723 
L 386.86864 175.269059 
L 386.831123 175.16928 
L 386.830185 175.164525 
L 386.719198 174.753485 
L 386.696688 174.682147 
L 386.718573 174.748387 
L 386.688247 174.646866 
L 386.57726 174.243781 
L 386.544745 174.138136 
L 386.571945 174.219773 
L 386.544745 174.137654 
L 386.433758 173.739229 
L 386.39249 173.595261 
L 386.281502 173.151738 
L 386.28119 173.151826 
L 386.263369 173.064913 
L 386.255553 173.04406 
L 386.144566 172.608151 
L 386.132998 172.579022 
L 386.117679 172.502236 
L 386.116741 172.500794 
L 386.006067 172.106448 
L 385.988872 172.05923 
L 385.976991 172.000243 
L 385.976366 171.999441 
L 385.865379 171.571031 
L 385.833177 171.466974 
L 385.847871 171.496723 
L 385.833177 171.464766 
L 385.72219 171.073941 
L 385.718751 171.064322 
L 385.697804 170.965821 
L 385.586817 170.563351 
L 385.584941 170.562884 
L 385.570247 170.482033 
L 385.561493 170.455318 
L 385.450506 170.049269 
L 385.43675 170.013938 
L 385.43206 169.96989 
L 385.420805 169.94252 
L 385.309818 169.545041 
L 385.266986 169.397714 
L 385.155999 168.992803 
L 385.077527 168.705223 
L 384.966539 168.312673 
L 384.965914 168.312845 
L 384.954659 168.23871 
L 384.940903 168.204613 
L 384.829916 167.7265 
L 384.827727 167.722821 
L 384.80678 167.622568 
L 384.80553 167.618126 
L 384.694543 167.172779 
L 384.662653 167.069291 
L 384.692667 167.156114 
L 384.662028 167.066934 
L 384.551354 166.642198 
L 384.551041 166.642283 
L 384.510085 166.494145 
L 384.399098 166.022577 
L 384.395346 166.017485 
L 384.373774 165.914596 
L 384.305931 165.63541 
L 384.194944 165.200237 
L 384.054256 164.626 
L 383.943269 164.165592 
L 383.79883 163.578319 
L 383.687843 163.071719 
L 383.668459 163.020547 
L 383.68753 163.069985 
L 383.656579 162.96527 
L 383.545904 162.479501 
L 383.518704 162.368098 
L 383.407717 161.8999 
L 383.341438 161.614973 
L 383.230763 161.159593 
L 383.230138 161.159759 
L 383.209191 161.050606 
L 383.098204 160.626922 
L 383.074756 160.51114 
L 382.963769 160.004147 
L 382.926565 159.853799 
L 382.815578 159.400518 
L 382.787753 159.283519 
L 382.676766 158.790396 
L 382.65363 158.674323 
L 382.542643 158.223525 
L 382.50794 158.073759 
L 382.396953 157.592962 
L 382.393201 157.585319 
L 382.376944 157.494471 
L 382.373818 157.484236 
L 382.26283 156.945962 
L 382.260017 156.940741 
L 382.243447 156.858757 
L 382.235631 156.838592 
L 382.125269 156.376102 
L 382.124956 156.376182 
L 382.095568 156.258333 
L 381.984581 155.766519 
L 381.978641 155.748154 
L 381.969262 155.688154 
L 381.958945 155.658632 
L 381.847957 155.149638 
L 381.812316 154.997011 
L 381.701642 154.53632 
L 381.701329 154.5364 
L 381.625983 154.223213 
L 381.514996 153.751159 
L 381.47998 153.59792 
L 381.368993 153.159743 
L 381.368681 153.159822 
L 381.352736 153.06656 
L 381.347734 153.05063 
L 381.237059 152.556939 
L 381.236747 152.557018 
L 381.235183 152.553238 
L 381.213611 152.452921 
L 381.211423 152.449017 
L 381.100436 151.95606 
L 381.058542 151.797236 
L 380.947867 151.311697 
L 380.947555 151.311775 
L 380.942865 151.301166 
L 380.924419 151.203097 
L 380.813432 150.696704 
L 380.780605 150.542905 
L 380.669618 150.040915 
L 380.643982 149.949409 
L 380.664616 150.014446 
L 380.64148 149.933621 
L 380.530493 149.410145 
L 380.516424 149.368188 
L 380.527992 149.391744 
L 380.504857 149.302031 
L 380.39387 148.851144 
L 380.392619 148.848317 
L 380.386366 148.79572 
L 380.372298 148.742167 
L 380.26131 148.250571 
L 380.241614 148.185879 
L 380.238488 148.15174 
L 380.235049 148.14285 
L 380.124062 147.647141 
L 380.112494 147.608613 
L 380.119997 147.624016 
L 380.096862 147.539468 
L 379.985875 147.086858 
L 379.961176 147.000625 
L 379.985249 147.0824 
L 379.958675 146.979324 
L 379.847688 146.525455 
L 379.811422 146.366136 
L 379.700435 145.867008 
L 379.614771 145.517257 
L 379.503784 145.061813 
L 379.49503 145.02742 
L 379.483463 144.957777 
L 379.481274 144.953042 
L 379.370287 144.466758 
L 379.350591 144.399362 
L 379.346526 144.364572 
L 379.344025 144.35901 
L 379.233038 143.831567 
L 379.227723 143.818118 
L 379.212717 143.723403 
L 379.212404 143.722299 
L 379.101729 143.203371 
L 379.101417 143.203445 
L 379.06984 143.044862 
L 378.958853 142.461877 
L 378.944472 142.40769 
L 378.939469 142.364646 
L 378.93603 142.353281 
L 378.825043 141.849438 
L 378.754699 141.515588 
L 378.643712 141.042609 
L 378.643087 141.041856 
L 378.627142 140.951255 
L 378.62214 140.934146 
L 378.511153 140.445109 
L 378.489581 140.367452 
L 378.504587 140.414178 
L 378.483015 140.337706 
L 378.372028 139.771529 
L 378.36515 139.743844 
L 378.35327 139.666904 
L 378.351707 139.662433 
L 378.240719 139.095772 
L 378.227901 139.054162 
L 378.217584 138.98712 
L 378.106597 138.464073 
L 378.081898 138.357734 
L 378.096905 138.40575 
L 378.081898 138.355909 
L 377.970911 137.844316 
L 377.947463 137.723492 
L 377.836476 137.196794 
L 377.799272 137.02944 
L 377.688285 136.508227 
L 377.680469 136.488424 
L 377.673591 136.435161 
L 377.663274 136.400198 
L 377.552287 135.929238 
L 377.513519 135.759828 
L 377.402532 135.238062 
L 377.39753 135.223034 
L 377.3869 135.152462 
L 377.38096 135.129251 
L 377.269973 134.620488 
L 377.269348 134.620313 
L 377.255591 134.538929 
L 377.2459 134.512389 
L 377.135225 134.048894 
L 377.134912 134.048962 
L 377.1346 134.04903 
L 377.130223 134.010923 
L 377.11209 133.940475 
L 377.001103 133.416548 
L 376.988597 133.371887 
L 376.993599 133.378647 
L 376.977967 133.307975 
L 376.86698 132.824288 
L 376.866355 132.823478 
L 376.855412 132.752469 
L 376.845721 132.715499 
L 376.734734 132.180851 
L 376.730669 132.164339 
L 376.726292 132.12355 
L 376.712849 132.072041 
L 376.602487 131.573948 
L 376.601862 131.574081 
L 376.577476 131.473608 
L 376.589669 131.51132 
L 376.57685 131.465806 
L 376.465863 130.935519 
L 376.451482 130.885374 
L 376.444604 130.833624 
L 376.443041 130.826944 
L 376.332053 130.243205 
L 376.314858 130.174536 
L 376.329552 130.22934 
L 376.309543 130.134699 
L 376.198556 129.626926 
L 376.178235 129.545451 
L 376.194492 129.599849 
L 376.175108 129.518484 
L 376.064121 128.978612 
L 376.045363 128.909989 
L 376.063496 128.970686 
L 376.038485 128.870471 
L 375.927498 128.324681 
L 375.921557 128.30876 
L 375.909052 128.227523 
L 375.905613 128.215931 
L 375.794938 127.754378 
L 375.794626 127.754442 
L 375.786184 127.707148 
L 375.768051 127.646558 
L 375.657064 127.208978 
L 375.632366 127.104211 
L 375.646122 127.149963 
L 375.632053 127.10069 
L 375.521066 126.714047 
L 375.478547 126.533065 
L 375.36756 126.100577 
L 375.342548 126.000642 
L 375.365371 126.080684 
L 375.341611 125.992626 
L 375.230623 125.52592 
L 375.204362 125.41958 
L 375.230311 125.523679 
L 375.204049 125.417996 
L 375.093062 124.957035 
L 375.048042 124.772365 
L 374.966755 124.377054 
L 374.856706 123.916932 
L 374.855768 123.917117 
L 374.83232 123.824004 
L 374.830444 123.809409 
L 374.725085 123.364577 
L 374.61441 122.876622 
L 374.614098 122.876683 
L 374.59784 122.814291 
L 374.612222 122.867016 
L 374.59065 122.768178 
L 374.479975 122.333956 
L 374.479663 122.334017 
L 374.457778 122.238574 
L 374.478099 122.324925 
L 374.455589 122.225904 
L 374.344602 121.702896 
L 374.313964 121.59626 
L 374.313964 121.595923 
L 374.202976 121.152836 
L 374.179528 121.0647 
L 374.17734 121.04483 
L 374.066353 120.539692 
L 374.046969 120.480614 
L 374.064164 120.526201 
L 374.040091 120.431696 
L 373.929104 119.995268 
L 373.883146 119.804747 
L 373.772159 119.381796 
L 373.742771 119.283091 
L 373.742145 119.274664 
L 373.631158 118.831983 
L 373.590202 118.644494 
L 373.479215 118.164463 
L 373.451078 118.057454 
L 373.451078 118.056766 
L 373.340091 117.619704 
L 373.339153 117.617114 
L 373.336964 117.591969 
L 373.320394 117.510399 
L 373.209407 117.052998 
L 373.183771 116.949566 
L 373.183145 116.945174 
L 373.072471 116.455715 
L 373.072158 116.455772 
L 373.04871 116.34909 
L 373.069657 116.438495 
L 373.04871 116.347351 
L 372.937723 115.85529 
L 372.909586 115.747626 
L 372.798911 115.241976 
L 372.798598 115.242031 
L 372.777964 115.157455 
L 372.798286 115.239987 
L 372.776088 115.133268 
L 372.665727 114.665202 
L 372.665101 114.665312 
L 372.643216 114.560241 
L 372.658848 114.622851 
L 372.643216 114.556374 
L 372.532229 114.043239 
L 372.513471 113.951655 
L 372.527227 114.000743 
L 372.511282 113.934399 
L 372.400295 113.410312 
L 372.376847 113.303583 
L 372.393105 113.361302 
L 372.376847 113.301813 
L 372.26586 112.774126 
L 372.242725 112.674005 
L 372.265235 112.769971 
L 372.241474 112.66569 
L 372.130487 112.140435 
L 372.110791 112.050365 
L 372.108602 112.031476 
L 371.997928 111.578761 
L 371.997615 111.578814 
L 371.967602 111.473332 
L 371.967602 111.471542 
L 371.856615 111.009263 
L 371.819411 110.903137 
L 371.708423 110.516124 
L 371.675909 110.409916 
L 371.706235 110.500649 
L 371.675909 110.409195 
L 371.564922 110.06091 
L 371.525529 109.955132 
L 371.414542 109.614021 
L 371.371398 109.512491 
L 371.371398 109.508869 
L 371.261661 109.217612 
L 371.260411 109.217817 
L 371.219142 109.11385 
L 371.219142 109.112034 
L 371.108155 108.84229 
L 371.062822 108.737225 
L 370.951835 108.459026 
L 370.911192 108.355073 
L 370.951523 108.456889 
L 370.911192 108.353248 
L 370.80083 108.028781 
L 370.800205 108.028882 
L 370.752684 107.924599 
L 370.752684 107.924233 
L 370.641696 107.635857 
L 370.60543 107.529447 
L 370.495381 107.251446 
L 370.494443 107.251596 
L 370.451299 107.145973 
L 370.340312 106.826029 
L 370.299669 106.720035 
L 370.188681 106.412747 
L 370.148664 106.307062 
L 370.148664 106.306693 
L 370.037676 106.009193 
L 370.035488 105.991015 
L 369.987341 105.904795 
L 369.876667 105.602617 
L 369.876354 105.602666 
L 369.832272 105.497701 
L 369.832272 105.497329 
L 369.721285 105.15964 
L 369.678766 105.054079 
L 369.567779 104.760469 
L 369.522446 104.655015 
L 369.411459 104.380344 
L 369.373629 104.274181 
L 369.373629 104.273807 
L 369.262642 103.96569 
L 369.226376 103.860089 
L 369.226376 103.858963 
L 369.115389 103.581112 
L 369.115076 103.578527 
L 369.073495 103.4753 
L 368.962508 103.160053 
L 368.924366 103.059381 
L 368.924053 103.053768 
L 368.813066 102.767401 
L 368.774299 102.661226 
L 368.774299 102.660848 
L 368.663312 102.369077 
L 368.624545 102.26486 
L 368.624545 102.262584 
L 368.513557 101.92852 
L 368.46885 101.822929 
L 368.358488 101.516653 
L 368.357863 101.516744 
L 368.320033 101.4102 
L 368.209046 101.114531 
L 368.164339 101.009425 
L 368.164339 101.009043 
L 368.053352 100.699073 
L 368.012708 100.593431 
L 368.012708 100.592665 
L 367.902034 100.32238 
L 367.853887 100.217501 
L 367.853887 100.217117 
L 367.7429 99.889517 
L 367.704758 99.783258 
L 367.704758 99.782873 
L 367.593771 99.473142 
L 367.549689 99.368546 
L 367.549689 99.367387 
L 367.438702 99.055924 
L 367.403061 98.949045 
L 367.292074 98.632742 
L 366.732136 97.038076 
L 366.621774 96.740383 
L 366.621149 96.740466 
L 366.581131 96.634319 
L 366.470144 96.319287 
L 366.430126 96.213595 
L 366.430126 96.212807 
L 366.319139 95.923223 
L 366.284123 95.817745 
L 366.318826 95.920109 
L 366.284123 95.815772 
L 366.173136 95.512279 
L 366.134369 95.407368 
L 366.134369 95.40539 
L 366.023381 95.074811 
L 365.922711 94.791767 
L 365.811724 94.458922 
L 365.765141 94.352996 
L 365.654466 94.035804 
L 365.654154 94.035843 
L 365.615699 93.929747 
L 365.615699 93.928949 
L 365.504712 93.56041 
L 365.470634 93.453004 
L 365.359647 93.148227 
L 365.31494 93.041816 
L 365.203952 92.714794 
L 365.17644 92.61277 
L 365.175815 92.606409 
L 365.064828 92.273127 
L 365.021371 92.170305 
L 365.021371 92.166674 
L 364.910696 91.815718 
L 364.910384 91.815756 
L 364.881308 91.70762 
L 364.770634 91.384318 
L 364.770321 91.384355 
L 364.739995 91.279697 
L 364.739995 91.276452 
L 364.629008 90.911541 
L 364.596493 90.803951 
L 364.628695 90.908732 
L 364.596493 90.803545 
L 364.485506 90.502644 
L 364.439861 90.396269 
L 364.328874 90.107527 
L 364.286355 90.001695 
L 364.286355 90.000877 
L 364.17568 89.747683 
L 364.175368 89.747719 
L 364.119405 89.64313 
L 364.119405 89.642311 
L 364.008731 89.371158 
L 364.008418 89.371193 
L 363.965586 89.265204 
L 363.965586 89.264383 
L 363.854599 89.013871 
L 363.821459 88.906913 
L 363.821459 88.906089 
L 363.710472 88.646224 
L 363.65576 88.540968 
L 363.65576 88.540556 
L 363.544773 88.312998 
L 363.48756 88.20938 
L 363.48756 88.207726 
L 363.376573 87.969604 
L 363.327488 87.865211 
L 363.327488 87.863553 
L 363.216814 87.615608 
L 363.216501 87.615642 
L 363.163665 87.51219 
L 363.216189 87.611525 
L 363.163665 87.509698 
L 363.052678 87.231135 
L 363.004844 87.125576 
L 363.004844 87.124744 
L 362.893857 86.894567 
L 362.845085 86.788823 
L 362.845085 86.788406 
L 362.734098 86.484046 
L 362.692204 86.378497 
L 362.692204 86.376824 
L 362.581217 86.115536 
L 362.527443 86.009671 
L 362.416456 85.709415 
L 362.367372 85.604825 
L 362.367372 85.603144 
L 362.256384 85.303663 
L 362.218242 85.197205 
L 362.218242 85.195941 
L 362.107881 84.925467 
L 362.107255 84.92553 
L 362.059421 84.818907 
L 361.948434 84.558711 
L 361.904665 84.451799 
L 361.793678 84.19044 
L 361.735214 84.085527 
L 361.735214 84.084678 
L 361.624227 83.80684 
L 361.581082 83.700948 
L 361.581082 83.699672 
L 361.470095 83.438491 
L 361.266567 83.002083 
L 361.15558 82.766429 
L 361.100242 82.660407 
L 360.989255 82.455399 
L 360.943923 82.34816 
L 360.833248 82.125831 
L 360.832935 82.12586 
L 360.778536 82.021334 
L 360.778536 82.019614 
L 360.667549 81.775183 
L 360.620028 81.670155 
L 360.620028 81.668001 
L 360.509353 81.421136 
L 360.509041 81.421164 
L 360.459956 81.315121 
L 360.459956 81.314257 
L 360.349594 81.081378 
L 360.348969 81.081435 
L 360.300197 80.974642 
L 360.190148 80.703389 
L 360.18921 80.703472 
L 360.132935 80.59703 
L 360.021948 80.382418 
L 359.967236 80.276855 
L 359.967236 80.275986 
L 359.857187 80.062892 
L 359.856249 80.062974 
L 359.804351 79.957756 
L 359.804351 79.956014 
L 359.693363 79.744615 
L 359.639277 79.637999 
L 359.52829 79.416856 
L 359.479205 79.311713 
L 359.479205 79.309964 
L 359.368531 79.004076 
L 359.368218 79.004102 
L 359.321322 78.896687 
L 359.211273 78.67679 
L 359.210335 78.676868 
L 359.161563 78.571086 
L 359.161563 78.569768 
L 359.050576 78.392483 
L 359.004305 78.285366 
L 359.004305 78.284926 
L 358.893318 78.068397 
L 358.834542 77.962018 
L 358.723555 77.691877 
L 358.686663 77.58519 
L 358.686663 77.583421 
L 358.575676 77.37186 
L 358.520964 77.26765 
L 358.520964 77.264991 
L 358.409977 77.089251 
L 358.359642 76.981782 
L 358.248968 76.793571 
L 358.248655 76.793595 
L 358.186752 76.6872 
L 358.075765 76.498523 
L 358.022304 76.3921 
L 358.022304 76.391209 
L 357.91288 76.196124 
L 357.911317 76.196242 
L 357.85723 76.089596 
L 357.85723 76.08915 
L 357.746243 75.886072 
L 357.695908 75.778423 
L 357.584921 75.581983 
L 357.527082 75.475066 
L 357.416408 75.301885 
L 357.416095 75.301908 
L 357.316363 75.199119 
L 357.316363 75.198221 
L 357.206314 75.033981 
L 357.205376 75.034049 
L 357.126903 74.929434 
L 357.126903 74.928533 
L 357.016229 74.751295 
L 357.015916 74.751317 
L 356.921186 74.647118 
L 356.810199 74.526788 
L 356.71078 74.422658 
L 356.599793 74.295238 
L 354.980944 72.254971 
L 354.907473 72.148435 
L 354.796486 71.999062 
L 354.696441 71.895307 
L 354.696441 71.894386 
L 354.585454 71.774592 
L 354.481971 71.670323 
L 354.481971 71.669861 
L 354.370983 71.566388 
L 354.272815 71.461536 
L 354.161827 71.358728 
L 354.03427 71.255405 
L 353.924221 71.134199 
L 353.923283 71.134255 
L 353.796352 71.031061 
L 353.796352 71.030597 
L 353.686302 70.908143 
L 353.685364 70.908199 
L 353.582819 70.803727 
L 353.582819 70.803262 
L 353.217343 70.475205 
L 353.097914 70.372566 
L 353.097914 70.371166 
L 352.988178 70.282304 
L 352.986927 70.282376 
L 352.858119 70.178613 
L 352.748383 70.071279 
L 352.747132 70.07135 
L 352.627079 69.967271 
L 352.516092 69.878473 
L 352.368838 69.775657 
L 352.259414 69.663532 
L 352.257851 69.66362 
L 352.132483 69.55975 
L 352.023997 69.471735 
L 352.021495 69.471873 
L 351.895189 69.368259 
L 351.895189 69.367788 
L 351.784202 69.279682 
L 351.626006 69.177057 
L 351.515019 69.100982 
L 351.376519 68.997959 
L 351.376519 68.997486 
L 351.265845 68.933009 
L 351.265532 68.933026 
L 351.112026 68.830071 
L 351.001039 68.750752 
L 350.842843 68.648232 
L 350.733107 68.567682 
L 350.731856 68.567748 
L 350.561468 68.466521 
L 350.561468 68.465571 
L 350.451731 68.401909 
L 350.45048 68.401974 
L 350.289784 68.299489 
L 350.178796 68.229049 
L 350.011847 68.127077 
L 350.011847 68.1266 
L 349.901485 68.058316 
L 349.90086 68.058348 
L 349.751105 67.954744 
L 349.640431 67.89871 
L 349.640118 67.898726 
L 349.489113 67.795402 
L 349.378439 67.727246 
L 349.378126 67.727261 
L 349.217742 67.624127 
L 349.107692 67.562462 
L 349.106755 67.562508 
L 348.908541 67.461429 
L 348.798804 67.395726 
L 348.797554 67.395787 
L 348.614034 67.293685 
L 348.411444 67.190871 
L 348.183217 67.091011 
L 347.99063 67.002759 
L 347.778035 66.901763 
L 347.6708 66.849299 
L 347.667048 66.849476 
L 347.437571 66.749444 
L 347.326896 66.710059 
L 347.326584 66.710074 
L 347.084913 66.610301 
L 346.974238 66.561076 
L 346.973926 66.56109 
L 346.730067 66.463034 
L 346.730067 66.461575 
L 346.61908 66.412206 
L 346.371782 66.312517 
L 346.262045 66.250748 
L 346.260794 66.250805 
L 345.998177 66.15194 
L 345.890629 66.120644 
L 345.88719 66.120798 
L 345.602688 66.022587 
L 345.492951 65.980019 
L 345.491701 65.980074 
L 345.191566 65.8822 
L 345.08183 65.842915 
L 345.080579 65.84297 
L 344.781696 65.74517 
L 344.671959 65.706728 
L 344.670708 65.706783 
L 344.307108 65.611427 
L 344.196121 65.570431 
L 343.917872 65.471987 
L 343.917872 65.471494 
L 343.80751 65.435758 
L 343.806885 65.435785 
L 343.553334 65.335456 
L 343.442972 65.283272 
L 343.442347 65.283298 
L 343.156594 65.184468 
L 343.047795 65.146418 
L 343.045607 65.14651 
L 342.732342 65.048471 
L 342.622605 65.008831 
L 342.621355 65.008883 
L 342.249313 64.913385 
L 342.138639 64.876621 
L 342.138326 64.876634 
L 341.846008 64.77747 
L 341.737522 64.745472 
L 341.735021 64.745574 
L 341.401434 64.648224 
L 341.291698 64.616653 
L 341.290447 64.616703 
L 340.937164 64.519761 
L 340.826802 64.484077 
L 340.826177 64.484102 
L 340.466016 64.387531 
L 340.356905 64.357689 
L 340.355029 64.357763 
L 340.005497 64.260377 
L 339.846989 64.218242 
L 339.404604 64.124532 
L 339.296118 64.098442 
L 339.293617 64.098539 
L 338.857797 64.004636 
L 338.747747 63.978489 
L 338.74681 63.978525 
L 338.26597 63.885895 
L 338.155295 63.863204 
L 338.154982 63.863216 
L 337.705719 63.769434 
L 337.596608 63.749121 
L 337.594732 63.749192 
L 337.109515 63.656824 
L 337.109515 63.656314 
L 336.999153 63.635944 
L 336.998528 63.635967 
L 336.428898 63.546268 
L 336.319474 63.525754 
L 336.317911 63.525812 
L 335.776419 63.435072 
L 335.669496 63.418467 
L 335.665432 63.418617 
L 335.084547 63.328823 
L 334.974185 63.308126 
L 334.97356 63.308149 
L 334.446449 63.216393 
L 334.339214 63.203226 
L 334.335462 63.203362 
L 333.829611 63.111396 
L 333.829611 63.110878 
L 333.7205 63.091997 
L 333.718624 63.092064 
L 333.138677 63.001735 
L 333.02769 62.984374 
L 332.425233 62.894833 
L 332.315184 62.871078 
L 332.314246 62.871111 
L 331.718354 62.781305 
L 331.574853 62.759115 
L 330.933003 62.670864 
L 330.823892 62.649969 
L 330.822016 62.650034 
L 330.127018 62.563034 
L 330.022283 62.546084 
L 330.016031 62.546298 
L 329.407946 62.456266 
L 329.298522 62.443076 
L 329.296959 62.44313 
L 328.693564 62.352926 
L 328.587579 62.333167 
L 328.582577 62.333335 
L 327.943229 62.243776 
L 327.833805 62.22242 
L 327.832242 62.222473 
L 327.056895 62.137369 
L 326.94622 62.121803 
L 326.945908 62.121814 
L 326.118038 62.038329 
L 326.010177 62.025246 
L 326.00705 62.025349 
L 325.868238 62.008975 
L 325.105085 61.923143 
L 324.997537 61.908863 
L 324.994097 61.908975 
L 324.285968 61.82126 
L 324.149032 61.807291 
L 323.361805 61.72203 
L 323.250818 61.711464 
L 322.639295 61.619966 
L 322.537687 61.609566 
L 322.528307 61.609864 
L 321.709816 61.524874 
L 321.600392 61.508615 
L 321.598829 61.508665 
L 320.854121 61.421225 
L 320.747824 61.410805 
L 320.743134 61.410951 
L 320.006555 61.323172 
L 319.895568 61.313918 
L 319.143356 61.226539 
L 319.006733 61.211342 
L 318.168233 61.125912 
L 318.061623 61.116914 
L 318.057246 61.117047 
L 317.29628 61.029143 
L 317.196548 61.018741 
L 317.185606 61.019071 
L 316.35586 60.933119 
L 316.248937 60.916675 
L 316.244873 60.916797 
L 315.35635 60.832421 
L 315.258494 60.822917 
L 315.245363 60.823305 
L 314.391544 60.737746 
L 314.280557 60.721751 
L 313.348265 60.638293 
L 313.162557 60.622636 
L 312.300609 60.536908 
L 312.191185 60.527481 
L 312.189622 60.527526 
L 311.320171 60.441852 
L 311.220751 60.432053 
L 311.209184 60.432383 
L 310.327539 60.346888 
L 310.194042 60.334502 
L 309.420571 60.245212 
L 309.310209 60.229174 
L 309.124814 60.211727 
L 308.140311 60.127973 
L 308.029949 60.11703 
L 308.029637 60.117038 
L 307.845179 60.099956 
L 306.95228 60.013902 
L 306.841606 59.999334 
L 306.841293 59.999343 
L 305.920569 59.91324 
L 305.788322 59.90149 
L 304.776932 59.818169 
L 304.776932 59.817577 
L 304.695333 59.804951 
L 304.665945 59.805734 
L 303.683631 59.72078 
L 303.575458 59.711731 
L 303.572956 59.711797 
L 302.617842 59.625885 
L 302.438074 59.610235 
L 301.323513 59.528149 
L 301.132178 59.50118 
L 300.186442 59.414946 
L 300.082958 59.404268 
L 300.075455 59.404459 
L 299.117214 59.318299 
L 299.017169 59.306827 
L 299.00654 59.307094 
L 298.048299 59.220069 
L 297.866342 59.200127 
L 296.792737 59.116219 
L 296.662054 59.104046 
L 295.58626 59.019852 
L 295.469333 59.010313 
L 294.496398 58.923946 
L 294.496398 58.923324 
L 294.365089 58.909048 
L 293.368706 58.822313 
L 293.261783 58.812327 
L 293.257719 58.812423 
L 292.125025 58.728582 
L 291.995592 58.717755 
L 291.021094 58.629881 
L 290.910732 58.618496 
L 290.910107 58.618511 
L 290.793179 58.607898 
L 289.715197 58.521979 
L 289.605773 58.512356 
L 289.60421 58.512391 
L 289.475403 58.50192 
L 288.367095 58.416219 
L 288.237974 58.403707 
L 287.117161 58.317881 
L 287.008675 58.306068 
L 287.006174 58.306123 
L 285.917874 58.219188 
L 285.789067 58.208343 
L 284.652934 58.122037 
L 284.488485 58.112478 
L 283.289512 58.027061 
L 283.115997 58.007673 
L 282.083347 57.918267 
L 281.959229 57.914874 
L 280.610189 57.832254 
L 280.482006 57.820189 
L 279.107016 57.73751 
L 278.99728 57.725595 
L 278.996029 57.72562 
L 277.537877 57.64399 
L 277.434081 57.63181 
L 277.42689 57.631952 
L 276.319207 57.54283 
L 276.210096 57.539495 
L 276.277314 57.542963 
L 276.20822 57.539531 
L 274.602815 57.460239 
L 274.476196 57.448901 
L 273.107771 57.364367 
L 273.000849 57.349732 
L 272.996784 57.349808 
L 271.761857 57.262843 
L 271.761857 57.262144 
L 271.598034 57.246998 
L 270.367484 57.158648 
L 270.27588 57.151857 
L 270.256496 57.152208 
L 268.988429 57.064699 
L 268.862748 57.05487 
L 267.227329 56.973178 
L 267.12197 56.962842 
L 267.116655 56.962934 
L 265.785747 56.875185 
L 265.681013 56.869757 
L 265.675073 56.869858 
L 264.293205 56.783066 
L 264.206291 56.77506 
L 264.182218 56.775462 
L 262.72813 56.689175 
L 262.674981 56.684174 
L 262.617143 56.685122 
L 261.205574 56.597434 
L 261.082081 56.59053 
L 259.383509 56.507365 
L 259.259391 56.498843 
L 257.643356 56.413455 
L 257.537997 56.409032 
L 257.532995 56.409109 
L 255.901953 56.323068 
L 255.705302 56.307703 
L 254.128972 56.220573 
L 253.977655 56.211219 
L 252.509811 56.121591 
L 252.31316 56.10414 
L 250.641788 56.01711 
L 250.547371 56.011329 
L 250.531739 56.011544 
L 248.989174 55.921778 
L 248.83942 55.911857 
L 247.481625 55.819506 
L 247.336247 55.814164 
L 245.450092 55.7276 
L 245.327224 55.717773 
L 243.55737 55.629309 
L 243.331332 55.615608 
L 241.485506 55.526686 
L 239.81601 55.435451 
L 239.592785 55.421133 
L 237.956741 55.329071 
L 237.835749 55.321859 
L 236.291934 55.227678 
L 236.200331 55.221735 
L 236.180947 55.221932 
L 234.365135 55.129279 
L 234.298543 55.124704 
L 234.254148 55.125134 
L 232.378309 55.032519 
L 232.240435 55.030263 
L 230.264864 54.937934 
L 230.163256 54.931672 
L 230.153877 54.931753 
L 228.146104 54.83895 
L 228.026988 54.833582 
L 226.432838 54.735897 
L 226.311221 54.72215 
L 224.597955 54.624814 
L 224.488531 54.619078 
L 224.487593 54.619085 
L 222.407288 54.522613 
L 222.287234 54.51301 
L 220.079372 54.416183 
L 219.961819 54.413031 
L 217.635467 54.315622 
L 217.516038 54.306491 
L 215.182807 54.20761 
L 215.063379 54.198223 
L 212.660117 54.098014 
L 212.551006 54.092364 
L 212.549442 54.09237 
L 210.029253 53.990817 
L 209.896381 53.986073 
L 206.498299 53.885687 
L 206.392627 53.879586 
L 206.387312 53.879598 
L 201.500439 53.780429 
L 201.350998 53.776272 
L 195.171672 53.675726 
L 194.778371 53.670267 
L 157.318808 53.591574 
L 138.300929 53.581084 
L 73.832727 53.568 
L 73.832727 53.568 
" clip-path="url(#pd1f1502a0e)" style="fill: none; stroke: #1f77b4; stroke-width: 1.5; stroke-linecap: square"/>
   </g>
   <g id="patch_3">
    <path d="M 57.6 307.584 
L 57.6 41.472 
" style="fill: none; stroke: #000000; stroke-width: 0.8; stroke-linejoin: miter; stroke-linecap: square"/>
   </g>
   <g id="patch_4">
    <path d="M 414.72 307.584 
L 414.72 41.472 
" style="fill: none; stroke: #000000; stroke-width: 0.8; stroke-linejoin: miter; stroke-linecap: square"/>
   </g>
   <g id="patch_5">
    <path d="M 57.6 307.584 
L 414.72 307.584 
" style="fill: none; stroke: #000000; stroke-width: 0.8; stroke-linejoin: miter; stroke-linecap: square"/>
   </g>
   <g id="patch_6">
    <path d="M 57.6 41.472 
L 414.72 41.472 
" style="fill: none; stroke: #000000; stroke-width: 0.8; stroke-linejoin: miter; stroke-linecap: square"/>
   </g>
   <g id="text_13">
    <!-- Precision Recall -->
    <g transform="translate(189.584063 35.472) scale(0.12 -0.12)">
     <defs>
      <path id="DejaVuSans-50" d="M 1259 4147 
L 1259 2394 
L 2053 2394 
Q 2494 2394 2734 2622 
Q 2975 2850 2975 3272 
Q 2975 3691 2734 3919 
Q 2494 4147 2053 4147 
L 1259 4147 
z
M 628 4666 
L 2053 4666 
Q 2838 4666 3239 4311 
Q 3641 3956 3641 3272 
Q 3641 2581 3239 2228 
Q 2838 1875 2053 1875 
L 1259 1875 
L 1259 0 
L 628 0 
L 628 4666 
z
" transform="scale(0.015625)"/>
      <path id="DejaVuSans-72" d="M 2631 2963 
Q 2534 3019 2420 3045 
Q 2306 3072 2169 3072 
Q 1681 3072 1420 2755 
Q 1159 2438 1159 1844 
L 1159 0 
L 581 0 
L 581 3500 
L 1159 3500 
L 1159 2956 
Q 1341 3275 1631 3429 
Q 1922 3584 2338 3584 
Q 2397 3584 2469 3576 
Q 2541 3569 2628 3553 
L 2631 2963 
z
" transform="scale(0.015625)"/>
      <path id="DejaVuSans-65" d="M 3597 1894 
L 3597 1613 
L 953 1613 
Q 991 1019 1311 708 
Q 1631 397 2203 397 
Q 2534 397 2845 478 
Q 3156 559 3463 722 
L 3463 178 
Q 3153 47 2828 -22 
Q 2503 -91 2169 -91 
Q 1331 -91 842 396 
Q 353 884 353 1716 
Q 353 2575 817 3079 
Q 1281 3584 2069 3584 
Q 2775 3584 3186 3129 
Q 3597 2675 3597 1894 
z
M 3022 2063 
Q 3016 2534 2758 2815 
Q 2500 3097 2075 3097 
Q 1594 3097 1305 2825 
Q 1016 2553 972 2059 
L 3022 2063 
z
" transform="scale(0.015625)"/>
      <path id="DejaVuSans-63" d="M 3122 3366 
L 3122 2828 
Q 2878 2963 2633 3030 
Q 2388 3097 2138 3097 
Q 1578 3097 1268 2742 
Q 959 2388 959 1747 
Q 959 1106 1268 751 
Q 1578 397 2138 397 
Q 2388 397 2633 464 
Q 2878 531 3122 666 
L 3122 134 
Q 2881 22 2623 -34 
Q 2366 -91 2075 -91 
Q 1284 -91 818 406 
Q 353 903 353 1747 
Q 353 2603 823 3093 
Q 1294 3584 2113 3584 
Q 2378 3584 2631 3529 
Q 2884 3475 3122 3366 
z
" transform="scale(0.015625)"/>
      <path id="DejaVuSans-69" d="M 603 3500 
L 1178 3500 
L 1178 0 
L 603 0 
L 603 3500 
z
M 603 4863 
L 1178 4863 
L 1178 4134 
L 603 4134 
L 603 4863 
z
" transform="scale(0.015625)"/>
      <path id="DejaVuSans-73" d="M 2834 3397 
L 2834 2853 
Q 2591 2978 2328 3040 
Q 2066 3103 1784 3103 
Q 1356 3103 1142 2972 
Q 928 2841 928 2578 
Q 928 2378 1081 2264 
Q 1234 2150 1697 2047 
L 1894 2003 
Q 2506 1872 2764 1633 
Q 3022 1394 3022 966 
Q 3022 478 2636 193 
Q 2250 -91 1575 -91 
Q 1294 -91 989 -36 
Q 684 19 347 128 
L 347 722 
Q 666 556 975 473 
Q 1284 391 1588 391 
Q 1994 391 2212 530 
Q 2431 669 2431 922 
Q 2431 1156 2273 1281 
Q 2116 1406 1581 1522 
L 1381 1569 
Q 847 1681 609 1914 
Q 372 2147 372 2553 
Q 372 3047 722 3315 
Q 1072 3584 1716 3584 
Q 2034 3584 2315 3537 
Q 2597 3491 2834 3397 
z
" transform="scale(0.015625)"/>
      <path id="DejaVuSans-6f" d="M 1959 3097 
Q 1497 3097 1228 2736 
Q 959 2375 959 1747 
Q 959 1119 1226 758 
Q 1494 397 1959 397 
Q 2419 397 2687 759 
Q 2956 1122 2956 1747 
Q 2956 2369 2687 2733 
Q 2419 3097 1959 3097 
z
M 1959 3584 
Q 2709 3584 3137 3096 
Q 3566 2609 3566 1747 
Q 3566 888 3137 398 
Q 2709 -91 1959 -91 
Q 1206 -91 779 398 
Q 353 888 353 1747 
Q 353 2609 779 3096 
Q 1206 3584 1959 3584 
z
" transform="scale(0.015625)"/>
      <path id="DejaVuSans-6e" d="M 3513 2113 
L 3513 0 
L 2938 0 
L 2938 2094 
Q 2938 2591 2744 2837 
Q 2550 3084 2163 3084 
Q 1697 3084 1428 2787 
Q 1159 2491 1159 1978 
L 1159 0 
L 581 0 
L 581 3500 
L 1159 3500 
L 1159 2956 
Q 1366 3272 1645 3428 
Q 1925 3584 2291 3584 
Q 2894 3584 3203 3211 
Q 3513 2838 3513 2113 
z
" transform="scale(0.015625)"/>
      <path id="DejaVuSans-20" transform="scale(0.015625)"/>
      <path id="DejaVuSans-52" d="M 2841 2188 
Q 3044 2119 3236 1894 
Q 3428 1669 3622 1275 
L 4263 0 
L 3584 0 
L 2988 1197 
Q 2756 1666 2539 1819 
Q 2322 1972 1947 1972 
L 1259 1972 
L 1259 0 
L 628 0 
L 628 4666 
L 2053 4666 
Q 2853 4666 3247 4331 
Q 3641 3997 3641 3322 
Q 3641 2881 3436 2590 
Q 3231 2300 2841 2188 
z
M 1259 4147 
L 1259 2491 
L 2053 2491 
Q 2509 2491 2742 2702 
Q 2975 2913 2975 3322 
Q 2975 3731 2742 3939 
Q 2509 4147 2053 4147 
L 1259 4147 
z
" transform="scale(0.015625)"/>
      <path id="DejaVuSans-61" d="M 2194 1759 
Q 1497 1759 1228 1600 
Q 959 1441 959 1056 
Q 959 750 1161 570 
Q 1363 391 1709 391 
Q 2188 391 2477 730 
Q 2766 1069 2766 1631 
L 2766 1759 
L 2194 1759 
z
M 3341 1997 
L 3341 0 
L 2766 0 
L 2766 531 
Q 2569 213 2275 61 
Q 1981 -91 1556 -91 
Q 1019 -91 701 211 
Q 384 513 384 1019 
Q 384 1609 779 1909 
Q 1175 2209 1959 2209 
L 2766 2209 
L 2766 2266 
Q 2766 2663 2505 2880 
Q 2244 3097 1772 3097 
Q 1472 3097 1187 3025 
Q 903 2953 641 2809 
L 641 3341 
Q 956 3463 1253 3523 
Q 1550 3584 1831 3584 
Q 2591 3584 2966 3190 
Q 3341 2797 3341 1997 
z
" transform="scale(0.015625)"/>
      <path id="DejaVuSans-6c" d="M 603 4863 
L 1178 4863 
L 1178 0 
L 603 0 
L 603 4863 
z
" transform="scale(0.015625)"/>
     </defs>
     <use xlink:href="#DejaVuSans-50"/>
     <use xlink:href="#DejaVuSans-72" transform="translate(58.552734 0)"/>
     <use xlink:href="#DejaVuSans-65" transform="translate(97.416016 0)"/>
     <use xlink:href="#DejaVuSans-63" transform="translate(158.939453 0)"/>
     <use xlink:href="#DejaVuSans-69" transform="translate(213.919922 0)"/>
     <use xlink:href="#DejaVuSans-73" transform="translate(241.703125 0)"/>
     <use xlink:href="#DejaVuSans-69" transform="translate(293.802734 0)"/>
     <use xlink:href="#DejaVuSans-6f" transform="translate(321.585938 0)"/>
     <use xlink:href="#DejaVuSans-6e" transform="translate(382.767578 0)"/>
     <use xlink:href="#DejaVuSans-20" transform="translate(446.146484 0)"/>
     <use xlink:href="#DejaVuSans-52" transform="translate(477.933594 0)"/>
     <use xlink:href="#DejaVuSans-65" transform="translate(542.916016 0)"/>
     <use xlink:href="#DejaVuSans-63" transform="translate(604.439453 0)"/>
     <use xlink:href="#DejaVuSans-61" transform="translate(659.419922 0)"/>
     <use xlink:href="#DejaVuSans-6c" transform="translate(720.699219 0)"/>
     <use xlink:href="#DejaVuSans-6c" transform="translate(748.482422 0)"/>
    </g>
   </g>
  </g>
 </g>
 <defs>
  <clipPath id="pd1f1502a0e">
   <rect x="57.6" y="41.472" width="357.12" height="266.112"/>
  </clipPath>
 </defs>
</svg>
