<?xml version="1.0" encoding="utf-8" standalone="no"?>
<!DOCTYPE svg PUBLIC "-//W3C//DTD SVG 1.1//EN"
  "http://www.w3.org/Graphics/SVG/1.1/DTD/svg11.dtd">
<svg xmlns:xlink="http://www.w3.org/1999/xlink" width="460.8pt" height="345.6pt" viewBox="0 0 460.8 345.6" xmlns="http://www.w3.org/2000/svg" version="1.1">
 <metadata>
  <rdf:RDF xmlns:dc="http://purl.org/dc/elements/1.1/" xmlns:cc="http://creativecommons.org/ns#" xmlns:rdf="http://www.w3.org/1999/02/22-rdf-syntax-ns#">
   <cc:Work>
    <dc:type rdf:resource="http://purl.org/dc/dcmitype/StillImage"/>
    <dc:date>2026-03-17T10:21:42.008495</dc:date>
    <dc:format>image/svg+xml</dc:format>
    <dc:creator>
     <cc:Agent>
      <dc:title>Matplotlib v3.10.8, https://matplotlib.org/</dc:title>
     </cc:Agent>
    </dc:creator>
   </cc:Work>
  </rdf:RDF>
 </metadata>
 <defs>
  <style type="text/css">*{stroke-linejoin: round; stroke-linecap: butt}</style>
 </defs>
 <g id="figure_1">
  <g id="patch_1">
   <path d="M 0 345.6 
L 460.8 345.6 
L 460.8 0 
L 0 0 
z
" style="fill: #ffffff"/>
  </g>
  <g id="axes_1">
   <g id="patch_2">
    <path d="M 57.6 307.584 
L 414.72 307.584 
L 414.72 41.472 
L 57.6 41.472 
z
" style="fill: #ffffff"/>
   </g>
   <g id="matplotlib.axis_1">
    <g id="xtick_1">
     <g id="line2d_1">
      <defs>
       <path id="m8f7c96e855" d="M 0 0 
L 0 3.5 
" style="stroke: #000000; stroke-width: 0.8"/>
      </defs>
      <g>
       <use xlink:href="#m8f7c96e855" x="73.832727" y="307.584" style="stroke: #000000; stroke-width: 0.8"/>
      </g>
     </g>
     <g id="text_1">
      <!-- 0.0 -->
      <g transform="translate(65.881165 322.182437) scale(0.1 -0.1)">
       <defs>
        <path id="DejaVuSans-30" d="M 2034 4250 
Q 1547 4250 1301 3770 
Q 1056 3291 1056 2328 
Q 1056 1369 1301 889 
Q 1547 409 2034 409 
Q 2525 409 2770 889 
Q 3016 1369 3016 2328 
Q 3016 3291 2770 3770 
Q 2525 4250 2034 4250 
z
M 2034 4750 
Q 2819 4750 3233 4129 
Q 3647 3509 3647 2328 
Q 3647 1150 3233 529 
Q 2819 -91 2034 -91 
Q 1250 -91 836 529 
Q 422 1150 422 2328 
Q 422 3509 836 4129 
Q 1250 4750 2034 4750 
z
" transform="scale(0.015625)"/>
        <path id="DejaVuSans-2e" d="M 684 794 
L 1344 794 
L 1344 0 
L 684 0 
L 684 794 
z
" transform="scale(0.015625)"/>
       </defs>
       <use xlink:href="#DejaVuSans-30"/>
       <use xlink:href="#DejaVuSans-2e" transform="translate(63.623047 0)"/>
       <use xlink:href="#DejaVuSans-30" transform="translate(95.410156 0)"/>
      </g>
     </g>
    </g>
    <g id="xtick_2">
     <g id="line2d_2">
      <g>
       <use xlink:href="#m8f7c96e855" x="138.763636" y="307.584" style="stroke: #000000; stroke-width: 0.8"/>
      </g>
     </g>
     <g id="text_2">
      <!-- 0.2 -->
      <g transform="translate(130.812074 322.182437) scale(0.1 -0.1)">
       <defs>
        <path id="DejaVuSans-32" d="M 1228 531 
L 3431 531 
L 3431 0 
L 469 0 
L 469 531 
Q 828 903 1448 1529 
Q 2069 2156 2228 2338 
Q 2531 2678 2651 2914 
Q 2772 3150 2772 3378 
Q 2772 3750 2511 3984 
Q 2250 4219 1831 4219 
Q 1534 4219 1204 4116 
Q 875 4013 500 3803 
L 500 4441 
Q 881 4594 1212 4672 
Q 1544 4750 1819 4750 
Q 2544 4750 2975 4387 
Q 3406 4025 3406 3419 
Q 3406 3131 3298 2873 
Q 3191 2616 2906 2266 
Q 2828 2175 2409 1742 
Q 1991 1309 1228 531 
z
" transform="scale(0.015625)"/>
       </defs>
       <use xlink:href="#DejaVuSans-30"/>
       <use xlink:href="#DejaVuSans-2e" transform="translate(63.623047 0)"/>
       <use xlink:href="#DejaVuSans-32" transform="translate(95.410156 0)"/>
      </g>
     </g>
    </g>
    <g id="xtick_3">
     <g id="line2d_3">
      <g>
       <use xlink:href="#m8f7c96e855" x="203.694545" y="307.584" style="stroke: #000000; stroke-width: 0.8"/>
      </g>
     </g>
     <g id="text_3">
      <!-- 0.4 -->
      <g transform="translate(195.742983 322.182437) scale(0.1 -0.1)">
       <defs>
        <path id="DejaVuSans-34" d="M 2419 4116 
L 825 1625 
L 2419 1625 
L 2419 4116 
z
M 2253 4666 
L 3047 4666 
L 3047 1625 
L 3713 1625 
L 3713 1100 
L 3047 1100 
L 3047 0 
L 2419 0 
L 2419 1100 
L 313 1100 
L 313 1709 
L 2253 4666 
z
" transform="scale(0.015625)"/>
       </defs>
       <use xlink:href="#DejaVuSans-30"/>
       <use xlink:href="#DejaVuSans-2e" transform="translate(63.623047 0)"/>
       <use xlink:href="#DejaVuSans-34" transform="translate(95.410156 0)"/>
      </g>
     </g>
    </g>
    <g id="xtick_4">
     <g id="line2d_4">
      <g>
       <use xlink:href="#m8f7c96e855" x="268.625455" y="307.584" style="stroke: #000000; stroke-width: 0.8"/>
      </g>
     </g>
     <g id="text_4">
      <!-- 0.6 -->
      <g transform="translate(260.673892 322.182437) scale(0.1 -0.1)">
       <defs>
        <path id="DejaVuSans-36" d="M 2113 2584 
Q 1688 2584 1439 2293 
Q 1191 2003 1191 1497 
Q 1191 994 1439 701 
Q 1688 409 2113 409 
Q 2538 409 2786 701 
Q 3034 994 3034 1497 
Q 3034 2003 2786 2293 
Q 2538 2584 2113 2584 
z
M 3366 4563 
L 3366 3988 
Q 3128 4100 2886 4159 
Q 2644 4219 2406 4219 
Q 1781 4219 1451 3797 
Q 1122 3375 1075 2522 
Q 1259 2794 1537 2939 
Q 1816 3084 2150 3084 
Q 2853 3084 3261 2657 
Q 3669 2231 3669 1497 
Q 3669 778 3244 343 
Q 2819 -91 2113 -91 
Q 1303 -91 875 529 
Q 447 1150 447 2328 
Q 447 3434 972 4092 
Q 1497 4750 2381 4750 
Q 2619 4750 2861 4703 
Q 3103 4656 3366 4563 
z
" transform="scale(0.015625)"/>
       </defs>
       <use xlink:href="#DejaVuSans-30"/>
       <use xlink:href="#DejaVuSans-2e" transform="translate(63.623047 0)"/>
       <use xlink:href="#DejaVuSans-36" transform="translate(95.410156 0)"/>
      </g>
     </g>
    </g>
    <g id="xtick_5">
     <g id="line2d_5">
      <g>
       <use xlink:href="#m8f7c96e855" x="333.556364" y="307.584" style="stroke: #000000; stroke-width: 0.8"/>
      </g>
     </g>
     <g id="text_5">
      <!-- 0.8 -->
      <g transform="translate(325.604801 322.182437) scale(0.1 -0.1)">
       <defs>
        <path id="DejaVuSans-38" d="M 2034 2216 
Q 1584 2216 1326 1975 
Q 1069 1734 1069 1313 
Q 1069 891 1326 650 
Q 1584 409 2034 409 
Q 2484 409 2743 651 
Q 3003 894 3003 1313 
Q 3003 1734 2745 1975 
Q 2488 2216 2034 2216 
z
M 1403 2484 
Q 997 2584 770 2862 
Q 544 3141 544 3541 
Q 544 4100 942 4425 
Q 1341 4750 2034 4750 
Q 2731 4750 3128 4425 
Q 3525 4100 3525 3541 
Q 3525 3141 3298 2862 
Q 3072 2584 2669 2484 
Q 3125 2378 3379 2068 
Q 3634 1759 3634 1313 
Q 3634 634 3220 271 
Q 2806 -91 2034 -91 
Q 1263 -91 848 271 
Q 434 634 434 1313 
Q 434 1759 690 2068 
Q 947 2378 1403 2484 
z
M 1172 3481 
Q 1172 3119 1398 2916 
Q 1625 2713 2034 2713 
Q 2441 2713 2670 2916 
Q 2900 3119 2900 3481 
Q 2900 3844 2670 4047 
Q 2441 4250 2034 4250 
Q 1625 4250 1398 4047 
Q 1172 3844 1172 3481 
z
" transform="scale(0.015625)"/>
       </defs>
       <use xlink:href="#DejaVuSans-30"/>
       <use xlink:href="#DejaVuSans-2e" transform="translate(63.623047 0)"/>
       <use xlink:href="#DejaVuSans-38" transform="translate(95.410156 0)"/>
      </g>
     </g>
    </g>
    <g id="xtick_6">
     <g id="line2d_6">
      <g>
       <use xlink:href="#m8f7c96e855" x="398.487273" y="307.584" style="stroke: #000000; stroke-width: 0.8"/>
      </g>
     </g>
     <g id="text_6">
      <!-- 1.0 -->
      <g transform="translate(390.53571 322.182437) scale(0.1 -0.1)">
       <defs>
        <path id="DejaVuSans-31" d="M 794 531 
L 1825 531 
L 1825 4091 
L 703 3866 
L 703 4441 
L 1819 4666 
L 2450 4666 
L 2450 531 
L 3481 531 
L 3481 0 
L 794 0 
L 794 531 
z
" transform="scale(0.015625)"/>
       </defs>
       <use xlink:href="#DejaVuSans-31"/>
       <use xlink:href="#DejaVuSans-2e" transform="translate(63.623047 0)"/>
       <use xlink:href="#DejaVuSans-30" transform="translate(95.410156 0)"/>
      </g>
     </g>
    </g>
   </g>
   <g id="matplotlib.axis_2">
    <g id="ytick_1">
     <g id="line2d_7">
      <defs>
       <path id="mc94c2aa7d0" d="M 0 0 
L -3.5 0 
" style="stroke: #000000; stroke-width: 0.8"/>
      </defs>
      <g>
       <use xlink:href="#mc94c2aa7d0" x="57.6" y="295.488" style="stroke: #000000; stroke-width: 0.8"/>
      </g>
     </g>
     <g id="text_7">
      <!-- 0.0 -->
      <g transform="translate(34.696875 299.287219) scale(0.1 -0.1)">
       <use xlink:href="#DejaVuSans-30"/>
       <use xlink:href="#DejaVuSans-2e" transform="translate(63.623047 0)"/>
       <use xlink:href="#DejaVuSans-30" transform="translate(95.410156 0)"/>
      </g>
     </g>
    </g>
    <g id="ytick_2">
     <g id="line2d_8">
      <g>
       <use xlink:href="#mc94c2aa7d0" x="57.6" y="247.104" style="stroke: #000000; stroke-width: 0.8"/>
      </g>
     </g>
     <g id="text_8">
      <!-- 0.2 -->
      <g transform="translate(34.696875 250.903219) scale(0.1 -0.1)">
       <use xlink:href="#DejaVuSans-30"/>
       <use xlink:href="#DejaVuSans-2e" transform="translate(63.623047 0)"/>
       <use xlink:href="#DejaVuSans-32" transform="translate(95.410156 0)"/>
      </g>
     </g>
    </g>
    <g id="ytick_3">
     <g id="line2d_9">
      <g>
       <use xlink:href="#mc94c2aa7d0" x="57.6" y="198.72" style="stroke: #000000; stroke-width: 0.8"/>
      </g>
     </g>
     <g id="text_9">
      <!-- 0.4 -->
      <g transform="translate(34.696875 202.519219) scale(0.1 -0.1)">
       <use xlink:href="#DejaVuSans-30"/>
       <use xlink:href="#DejaVuSans-2e" transform="translate(63.623047 0)"/>
       <use xlink:href="#DejaVuSans-34" transform="translate(95.410156 0)"/>
      </g>
     </g>
    </g>
    <g id="ytick_4">
     <g id="line2d_10">
      <g>
       <use xlink:href="#mc94c2aa7d0" x="57.6" y="150.336" style="stroke: #000000; stroke-width: 0.8"/>
      </g>
     </g>
     <g id="text_10">
      <!-- 0.6 -->
      <g transform="translate(34.696875 154.135219) scale(0.1 -0.1)">
       <use xlink:href="#DejaVuSans-30"/>
       <use xlink:href="#DejaVuSans-2e" transform="translate(63.623047 0)"/>
       <use xlink:href="#DejaVuSans-36" transform="translate(95.410156 0)"/>
      </g>
     </g>
    </g>
    <g id="ytick_5">
     <g id="line2d_11">
      <g>
       <use xlink:href="#mc94c2aa7d0" x="57.6" y="101.952" style="stroke: #000000; stroke-width: 0.8"/>
      </g>
     </g>
     <g id="text_11">
      <!-- 0.8 -->
      <g transform="translate(34.696875 105.751219) scale(0.1 -0.1)">
       <use xlink:href="#DejaVuSans-30"/>
       <use xlink:href="#DejaVuSans-2e" transform="translate(63.623047 0)"/>
       <use xlink:href="#DejaVuSans-38" transform="translate(95.410156 0)"/>
      </g>
     </g>
    </g>
    <g id="ytick_6">
     <g id="line2d_12">
      <g>
       <use xlink:href="#mc94c2aa7d0" x="57.6" y="53.568" style="stroke: #000000; stroke-width: 0.8"/>
      </g>
     </g>
     <g id="text_12">
      <!-- 1.0 -->
      <g transform="translate(34.696875 57.367219) scale(0.1 -0.1)">
       <use xlink:href="#DejaVuSans-31"/>
       <use xlink:href="#DejaVuSans-2e" transform="translate(63.623047 0)"/>
       <use xlink:href="#DejaVuSans-30" transform="translate(95.410156 0)"/>
      </g>
     </g>
    </g>
   </g>
   <g id="line2d_13">
    <path d="M 73.832727 295.488 
L 73.943613 193.926469 
L 73.946298 193.777138 
L 74.057183 187.258719 
L 74.062821 186.935128 
L 74.173707 181.776538 
L 74.179614 181.624876 
L 74.290499 176.876774 
L 74.29399 176.727209 
L 74.404875 172.559428 
L 74.409708 172.409397 
L 74.520593 168.411449 
L 74.523815 168.261885 
L 74.634701 164.624104 
L 74.638997 164.473374 
L 74.749882 161.173395 
L 74.753104 161.069492 
L 74.753104 161.062736 
L 74.863989 157.675861 
L 74.867748 157.571491 
L 74.867748 157.5659 
L 74.978634 154.395684 
L 74.982124 154.293179 
L 74.982124 154.285025 
L 75.09301 151.489886 
L 75.102138 151.252725 
L 75.213024 148.538426 
L 75.218125 148.428699 
L 75.329011 146.033564 
L 75.340824 145.790579 
L 75.45171 143.27104 
L 75.458959 143.164342 
L 75.458959 143.162012 
L 75.569844 140.563963 
L 75.575214 140.459361 
L 75.575214 140.453071 
L 75.6861 138.36918 
L 75.692275 138.267141 
L 75.692275 138.258521 
L 75.80316 136.258033 
L 75.810946 136.156226 
L 75.810946 136.14714 
L 75.81739 135.99478 
L 75.928276 134.075131 
L 75.934719 133.972626 
L 75.934719 133.964239 
L 76.045605 132.144533 
L 76.055539 131.989144 
L 76.166156 130.290814 
L 76.174479 130.167574 
L 76.285096 128.39586 
L 76.291003 128.28753 
L 76.291003 128.2852 
L 76.309529 128.031499 
L 76.420414 126.475745 
L 76.430617 126.320589 
L 76.541502 124.662329 
L 76.551973 124.506241 
L 76.662859 122.859397 
L 76.670913 122.754096 
L 76.670913 122.748505 
L 76.781799 121.259612 
L 76.791464 121.150817 
L 76.791464 121.148953 
L 76.90235 119.75115 
L 76.912284 119.641423 
L 76.912284 119.640724 
L 77.023169 118.213801 
L 77.032835 118.11013 
L 77.032835 118.103141 
L 77.143721 116.678082 
L 77.152312 116.571616 
L 77.152312 116.567189 
L 77.263198 115.247198 
L 77.273132 115.091809 
L 77.384017 113.848231 
L 77.397979 113.689347 
L 77.508864 112.452991 
L 77.51853 112.346059 
L 77.51853 112.343263 
L 77.629415 111.151637 
L 77.640423 111.040745 
L 77.751309 109.904098 
L 77.765002 109.793206 
L 77.875887 108.639553 
L 77.894681 108.477408 
L 78.005567 107.331676 
L 78.016843 107.221948 
L 78.016843 107.221249 
L 78.127729 106.116752 
L 78.142227 106.011684 
L 78.142227 106.008656 
L 78.253113 105.100317 
L 78.26251 104.993385 
L 78.26251 104.991987 
L 78.373395 104.071534 
L 78.38682 103.962273 
L 78.497705 103.104488 
L 78.508713 102.996857 
L 78.508713 102.994761 
L 78.619599 102.160273 
L 78.634097 102.051244 
L 78.634097 102.050545 
L 78.744983 101.229336 
L 78.761629 101.11891 
L 78.872246 100.346857 
L 78.88755 100.24109 
L 78.998435 99.45832 
L 79.012397 99.347894 
L 79.123282 98.660408 
L 79.147715 98.554874 
L 79.2586 97.894645 
L 79.280616 97.78585 
L 79.391502 97.188755 
L 79.415666 97.077863 
L 79.526551 96.596087 
L 79.549104 96.487058 
L 79.65999 96.012271 
L 79.687107 95.901379 
L 79.797992 95.478078 
L 79.822156 95.367652 
L 79.932773 94.923383 
L 79.960696 94.815054 
L 80.071313 94.461177 
L 80.106754 94.350517 
L 80.106754 94.350284 
L 80.166089 94.152262 
L 80.276975 93.71242 
L 80.306509 93.60479 
L 80.306509 93.601761 
L 80.416857 93.19966 
L 80.445854 93.089467 
L 80.556739 92.699014 
L 80.596744 92.588587 
L 80.70763 92.251018 
L 80.748977 92.140126 
L 80.859862 91.817932 
L 80.89745 91.708671 
L 81.008336 91.392301 
L 81.265547 90.723919 
L 81.376433 90.478139 
L 81.424492 90.367712 
L 81.535378 90.144996 
L 81.589075 90.034103 
L 81.699692 89.8242 
L 81.760102 89.714938 
L 81.870988 89.488029 
L 81.930055 89.377136 
L 82.040672 89.147198 
L 82.102156 89.036305 
L 82.212504 88.842244 
L 82.276405 88.731351 
L 82.38729 88.532631 
L 82.448505 88.421971 
L 82.559391 88.245382 
L 82.627587 88.135189 
L 82.737935 87.977703 
L 82.819287 87.866811 
L 82.930173 87.694415 
L 83.014209 87.583756 
L 83.124826 87.40903 
L 83.207252 87.298371 
L 83.317869 87.148573 
L 83.402174 87.037681 
L 83.51306 86.898366 
L 83.607836 86.78794 
L 83.718722 86.644199 
L 83.795241 86.534472 
L 83.905321 86.399118 
L 83.905858 86.399118 
L 84.001977 86.288226 
L 84.112862 86.157065 
L 84.230191 86.046173 
L 84.34054 85.926428 
L 84.442834 85.816001 
L 84.553451 85.718155 
L 84.678835 85.607496 
L 84.78972 85.517571 
L 84.900606 85.406678 
L 85.010686 85.307434 
L 85.12184 85.198406 
L 85.232725 85.105918 
L 85.33851 84.995491 
L 85.33851 84.995025 
L 87.291759 83.44626 
L 87.463055 83.335368 
L 87.573403 83.258256 
L 87.79598 83.147364 
L 87.906865 83.092616 
L 88.095881 82.982423 
L 88.206766 82.910902 
L 88.394976 82.80001 
L 88.505862 82.732682 
L 88.759583 82.62179 
L 88.870468 82.56052 
L 89.044449 82.449627 
L 89.155334 82.387192 
L 89.341665 82.2763 
L 89.45255 82.206876 
L 89.648278 82.096915 
L 89.75809 82.043566 
L 89.96751 81.933372 
L 90.078396 81.872801 
L 90.291038 81.762607 
L 90.401387 81.708559 
L 90.597114 81.597667 
L 90.708 81.537095 
L 90.897552 81.426669 
L 91.007364 81.362137 
L 91.21759 81.251245 
L 91.328207 81.196497 
L 91.5336 81.085605 
L 91.643143 81.041341 
L 91.872432 80.930682 
L 91.983318 80.874304 
L 92.204552 80.763645 
L 92.313021 80.714023 
L 92.313826 80.714023 
L 92.551438 80.60313 
L 92.661787 80.557236 
L 92.910675 80.446576 
L 93.02156 80.401614 
L 93.244405 80.290721 
L 93.354754 80.241565 
L 93.618141 80.130906 
L 93.728221 80.078721 
L 93.938178 79.968295 
L 94.049064 79.921469 
L 94.271909 79.810809 
L 94.382794 79.755363 
L 94.601344 79.644704 
L 94.711424 79.577143 
L 94.932926 79.466251 
L 95.043812 79.414299 
L 95.294579 79.303873 
L 95.404659 79.252154 
L 95.640929 79.141495 
L 95.751814 79.088145 
L 96.003925 78.977253 
L 96.113199 78.931358 
L 96.382224 78.820932 
L 96.492036 78.779697 
L 96.839191 78.669038 
L 96.949539 78.63153 
L 97.274409 78.520638 
L 97.384758 78.475442 
L 97.709091 78.36455 
L 97.819172 78.325877 
L 98.094909 78.214985 
L 98.203915 78.172585 
L 98.20472 78.172585 
L 98.543283 78.061692 
L 98.653901 78.019059 
L 98.933396 77.908167 
L 99.041866 77.872057 
L 99.347136 77.761398 
L 99.347136 77.761165 
L 99.63764 77.655165 
L 99.937541 77.544272 
L 100.046816 77.504435 
L 100.047353 77.504435 
L 100.331413 77.393543 
L 100.440956 77.350211 
L 100.442299 77.350211 
L 100.729849 77.239319 
L 100.839661 77.198782 
L 100.840466 77.198782 
L 101.14171 77.08789 
L 101.252595 77.04316 
L 101.565115 76.932268 
L 101.675732 76.89476 
L 101.983688 76.783868 
L 102.094574 76.744031 
L 102.410315 76.633604 
L 102.410315 76.633371 
L 102.520664 76.586778 
L 102.821907 76.476817 
L 102.931987 76.437679 
L 102.932524 76.437679 
L 103.210141 76.326787 
L 103.319952 76.282523 
L 103.619048 76.17163 
L 103.729665 76.128532 
L 104.024465 76.017639 
L 104.134545 75.978268 
L 104.427465 75.867608 
L 104.537545 75.831499 
L 104.843085 75.720606 
L 104.95397 75.68007 
L 105.249038 75.569178 
L 105.359924 75.529107 
L 105.657945 75.418215 
L 105.768294 75.37465 
L 106.085915 75.263758 
L 106.196801 75.223454 
L 106.47388 75.112562 
L 106.584497 75.071327 
L 106.898091 74.960435 
L 107.006829 74.922927 
L 107.313442 74.812268 
L 107.423522 74.762879 
L 107.736579 74.651986 
L 107.845854 74.613081 
L 107.846928 74.613081 
L 108.15542 74.502188 
L 108.266037 74.46538 
L 108.55493 74.354487 
L 108.663131 74.319309 
L 108.663936 74.319309 
L 108.955514 74.208417 
L 109.065863 74.172074 
L 109.377577 74.061182 
L 109.488194 74.016918 
L 109.776014 73.906026 
L 109.886899 73.865023 
L 110.183847 73.754364 
L 110.294464 73.718953 
L 110.644035 73.608061 
L 110.754921 73.571951 
L 111.162485 73.461292 
L 111.272297 73.42425 
L 111.732217 73.313357 
L 111.842834 73.289362 
L 112.339536 73.178469 
L 112.449079 73.156571 
L 113.01183 73.045911 
L 113.122447 73.020984 
L 113.680902 72.910091 
L 113.788834 72.888193 
L 114.35776 72.777533 
L 114.468646 72.750043 
L 114.992466 72.639151 
L 115.102546 72.614689 
L 115.636031 72.503797 
L 115.745306 72.475608 
L 116.26832 72.364716 
L 116.377595 72.341419 
L 116.878862 72.230526 
L 116.988137 72.20723 
L 116.989479 72.20723 
L 117.504707 72.096337 
L 117.730237 72.047414 
L 118.191768 71.936522 
L 118.298089 71.912992 
L 118.787006 71.8021 
L 119.012267 71.753177 
L 119.558909 71.642518 
L 119.668989 71.616192 
L 120.208918 71.5053 
L 120.319803 71.483401 
L 120.822681 71.372509 
L 120.931956 71.35061 
L 120.932493 71.35061 
L 121.475913 71.239717 
L 121.586261 71.214557 
L 121.58653 71.214557 
L 122.116256 71.103665 
L 122.226336 71.08363 
L 122.809224 70.972737 
L 122.920109 70.943616 
L 123.449836 70.832724 
L 123.560453 70.811757 
L 124.080783 70.701331 
L 124.191668 70.675238 
L 124.66904 70.564346 
L 124.895375 70.514258 
L 125.432619 70.403366 
L 125.542968 70.383563 
L 126.148677 70.272904 
L 126.259294 70.251005 
L 126.886482 70.140113 
L 126.997367 70.121709 
L 127.641738 70.010816 
L 127.752355 69.993111 
L 128.377127 69.882218 
L 128.488012 69.860319 
L 129.125134 69.749427 
L 129.23602 69.730091 
L 129.455106 69.686759 
L 130.060815 69.575867 
L 130.278021 69.534166 
L 130.88722 69.423273 
L 130.998106 69.403471 
L 131.609184 69.292812 
L 131.719265 69.275572 
L 131.719802 69.275572 
L 132.336787 69.16468 
L 132.445524 69.145576 
L 132.446867 69.145576 
L 133.024653 69.034684 
L 133.135538 69.019308 
L 133.770244 68.908416 
L 133.983423 68.870209 
L 134.616786 68.759317 
L 134.727403 68.738117 
L 135.423861 68.627225 
L 135.531793 68.605093 
L 135.534478 68.605093 
L 136.253757 68.494201 
L 136.364374 68.477194 
L 136.973842 68.366535 
L 136.973842 68.366302 
L 137.452019 68.279871 
L 138.132099 68.168978 
L 138.239763 68.146148 
L 138.242716 68.146148 
L 138.957431 68.035255 
L 139.164972 68.002174 
L 139.841025 67.891282 
L 139.949762 67.871945 
L 139.95191 67.871945 
L 140.617223 67.761053 
L 140.727572 67.738222 
L 141.36013 67.62733 
L 141.469941 67.604965 
L 141.471015 67.604965 
L 142.099008 67.494073 
L 142.307087 67.459827 
L 142.896149 67.349167 
L 143.007035 67.326104 
L 143.63637 67.215211 
L 144.100317 67.134372 
L 144.779592 67.023479 
L 144.889404 67.001813 
L 144.890209 67.001813 
L 145.514175 66.891154 
L 145.623718 66.876477 
L 145.624792 66.876477 
L 146.290642 66.765818 
L 146.401528 66.747879 
L 147.093153 66.636987 
L 147.203501 66.614855 
L 147.204038 66.614855 
L 147.843845 66.503963 
L 147.954193 66.486956 
L 148.611183 66.376064 
L 148.812818 66.347409 
L 149.448597 66.236517 
L 149.559214 66.217646 
L 150.214593 66.106754 
L 150.324673 66.085554 
L 150.978979 65.974895 
L 151.089864 65.954626 
L 151.816392 65.843734 
L 151.926741 65.823932 
L 151.927278 65.823932 
L 152.583731 65.71304 
L 152.691395 65.693703 
L 152.69408 65.693703 
L 153.392954 65.582811 
L 153.500617 65.569998 
L 153.503571 65.569998 
L 154.195733 65.459105 
L 154.652968 65.381294 
L 155.360702 65.270402 
L 157.490348 64.922116 
L 158.180899 64.811457 
L 158.290442 64.790956 
L 158.291516 64.790956 
L 158.97804 64.680297 
L 159.087583 64.662358 
L 159.088925 64.662358 
L 159.290828 64.634169 
L 159.998026 64.523277 
L 160.460093 64.443602 
L 161.156014 64.33271 
L 161.266363 64.314072 
L 161.266631 64.314072 
L 162.193988 64.161479 
L 162.884539 64.050587 
L 162.993008 64.034046 
L 162.995156 64.034046 
L 163.654563 63.923154 
L 163.761689 63.905215 
L 163.764643 63.905215 
L 164.39559 63.794556 
L 164.506475 63.774521 
L 165.239179 63.663628 
L 165.45021 63.627518 
L 166.072834 63.516859 
L 166.182645 63.497523 
L 166.183182 63.497523 
L 166.807148 63.38663 
L 166.917765 63.368226 
L 166.918034 63.368226 
L 167.539315 63.257334 
L 167.648858 63.237065 
L 167.649395 63.237065 
L 168.303432 63.126173 
L 168.411901 63.10474 
L 169.053855 62.993848 
L 169.161519 62.974512 
L 169.164741 62.974512 
L 169.840256 62.863619 
L 169.9498 62.842652 
L 169.950337 62.842652 
L 170.607327 62.73176 
L 170.718212 62.711492 
L 171.438565 62.600599 
L 171.54784 62.581496 
L 172.190331 62.470837 
L 172.190331 62.470604 
L 172.405659 62.430533 
L 173.055131 62.319641 
L 173.162795 62.302635 
L 173.782465 62.191742 
L 173.891203 62.173338 
L 174.501476 62.062678 
L 174.611556 62.044041 
L 175.218338 61.933149 
L 175.328687 61.914511 
L 176.030514 61.803619 
L 176.141132 61.782419 
L 176.771273 61.671527 
L 176.882158 61.647298 
L 177.437928 61.536406 
L 177.546934 61.514973 
L 177.548277 61.514973 
L 178.161503 61.404314 
L 178.298969 61.385909 
L 178.944683 61.27525 
L 179.054494 61.253351 
L 179.684904 61.142459 
L 179.795521 61.12685 
L 180.424588 61.015957 
L 180.532252 60.999883 
L 181.208304 60.88899 
L 181.406717 60.8615 
L 182.140226 60.750608 
L 182.248964 60.731505 
L 183.035365 60.620612 
L 183.143566 60.606867 
L 184.057767 60.495975 
L 184.168116 60.482696 
L 185.050367 60.371803 
L 185.15991 60.354564 
L 185.160984 60.354564 
L 186.024978 60.243672 
L 186.404352 60.199874 
L 187.32795 60.088981 
L 187.520456 60.068247 
L 188.445934 59.957355 
L 188.552524 59.944775 
L 188.556819 59.944775 
L 189.493037 59.833882 
L 189.601774 59.823865 
L 189.603922 59.823865 
L 190.605651 59.712973 
L 190.716536 59.698995 
L 191.677992 59.588102 
L 191.78834 59.572959 
L 192.786041 59.462067 
L 192.896927 59.451351 
L 193.933022 59.340458 
L 194.042565 59.329276 
L 194.043639 59.329276 
L 194.94898 59.218383 
L 195.059866 59.204172 
L 195.931378 59.093746 
L 196.042263 59.076506 
L 196.702744 58.965614 
L 196.810407 58.948841 
L 197.611575 58.838414 
L 197.709036 58.826067 
L 198.553431 58.715175 
L 198.664316 58.697935 
L 199.410444 58.587043 
L 199.635437 58.537421 
L 200.589643 58.426528 
L 200.698918 58.41092 
L 201.671381 58.30026 
L 201.780119 58.286748 
L 201.782267 58.286748 
L 202.700227 58.176089 
L 202.811113 58.161878 
L 204.123213 58.050985 
L 204.23034 58.044928 
L 204.23383 58.044928 
L 204.571588 58.019302 
L 206.07351 57.90841 
L 206.180368 57.900489 
L 206.184127 57.900489 
L 207.795054 57.789596 
L 207.90057 57.780977 
L 207.905671 57.780977 
L 209.298318 57.670084 
L 209.400344 57.660067 
L 209.408667 57.660067 
L 211.050739 57.549174 
L 211.161356 57.540788 
L 211.161625 57.540788 
L 212.516683 57.429895 
L 212.626763 57.421508 
L 212.627569 57.421508 
L 213.974036 57.310616 
L 214.084921 57.303394 
L 215.392726 57.192502 
L 215.741761 57.16175 
L 217.044732 57.050858 
L 217.154544 57.042005 
L 218.655123 56.931113 
L 218.997714 56.90339 
L 220.73134 56.792497 
L 220.827459 56.781781 
L 220.842226 56.781781 
L 222.528062 56.671121 
L 222.528062 56.670888 
L 222.71305 56.657143 
L 224.485876 56.546251 
L 224.670327 56.533205 
L 225.018824 56.502919 
L 226.582498 56.392027 
L 226.935291 56.359877 
L 228.336261 56.248985 
L 228.444194 56.242462 
L 228.44661 56.242462 
L 228.972846 56.205886 
L 230.575988 56.094994 
L 230.685799 56.088005 
L 230.686605 56.088005 
L 232.288135 55.977113 
L 232.396873 55.967328 
L 232.398752 55.967328 
L 234.131305 55.856436 
L 234.237089 55.849214 
L 234.241654 55.849214 
L 235.783043 55.738554 
L 235.892586 55.732031 
L 235.893391 55.732031 
L 237.383768 55.621139 
L 237.493311 55.613451 
L 237.494654 55.613451 
L 239.181295 55.502559 
L 239.362793 55.491376 
L 241.274695 55.380484 
L 241.452434 55.373029 
L 243.030606 55.262137 
L 243.139881 55.255846 
L 243.140418 55.255846 
L 244.808265 55.144954 
L 244.917808 55.138664 
L 246.992951 55.027772 
L 247.101689 55.021482 
L 247.103032 55.021482 
L 248.804171 54.910589 
L 248.901095 54.905231 
L 248.904854 54.905231 
L 250.742117 54.794339 
L 250.851392 54.781293 
L 250.852197 54.781293 
L 252.502861 54.6704 
L 252.609988 54.663644 
L 254.416912 54.552752 
L 254.525918 54.545064 
L 256.42198 54.434172 
L 256.527495 54.424154 
L 258.77635 54.313262 
L 258.882672 54.308602 
L 261.1079 54.19771 
L 261.206435 54.194448 
L 264.217258 54.083556 
L 264.326802 54.076101 
L 267.138139 53.965209 
L 267.226203 53.963112 
L 267.246876 53.963112 
L 271.031214 53.85222 
L 271.140757 53.850123 
L 271.141831 53.850123 
L 274.818505 53.739231 
L 274.919188 53.73527 
L 286.596802 53.624378 
L 286.707688 53.623446 
L 398.487273 53.568 
L 398.487273 53.568 
" clip-path="url(#p4db4b8c3c4)" style="fill: none; stroke: #1f77b4; stroke-width: 1.5; stroke-linecap: square"/>
   </g>
   <g id="line2d_14">
    <path d="M 73.832727 295.488 
L 398.487273 53.568 
" clip-path="url(#p4db4b8c3c4)" style="fill: none; stroke-dasharray: 5.55,2.4; stroke-dashoffset: 0; stroke: #ff7f0e; stroke-width: 1.5"/>
   </g>
   <g id="patch_3">
    <path d="M 57.6 307.584 
L 57.6 41.472 
" style="fill: none; stroke: #000000; stroke-width: 0.8; stroke-linejoin: miter; stroke-linecap: square"/>
   </g>
   <g id="patch_4">
    <path d="M 414.72 307.584 
L 414.72 41.472 
" style="fill: none; stroke: #000000; stroke-width: 0.8; stroke-linejoin: miter; stroke-linecap: square"/>
   </g>
   <g id="patch_5">
    <path d="M 57.6 307.584 
L 414.72 307.584 
" style="fill: none; stroke: #000000; stroke-width: 0.8; stroke-linejoin: miter; stroke-linecap: square"/>
   </g>
   <g id="patch_6">
    <path d="M 57.6 41.472 
L 414.72 41.472 
" style="fill: none; stroke: #000000; stroke-width: 0.8; stroke-linejoin: miter; stroke-linecap: square"/>
   </g>
   <g id="text_13">
    <!-- ROC Curve -->
    <g transform="translate(203.469375 35.472) scale(0.12 -0.12)">
     <defs>
      <path id="DejaVuSans-52" d="M 2841 2188 
Q 3044 2119 3236 1894 
Q 3428 1669 3622 1275 
L 4263 0 
L 3584 0 
L 2988 1197 
Q 2756 1666 2539 1819 
Q 2322 1972 1947 1972 
L 1259 1972 
L 1259 0 
L 628 0 
L 628 4666 
L 2053 4666 
Q 2853 4666 3247 4331 
Q 3641 3997 3641 3322 
Q 3641 2881 3436 2590 
Q 3231 2300 2841 2188 
z
M 1259 4147 
L 1259 2491 
L 2053 2491 
Q 2509 2491 2742 2702 
Q 2975 2913 2975 3322 
Q 2975 3731 2742 3939 
Q 2509 4147 2053 4147 
L 1259 4147 
z
" transform="scale(0.015625)"/>
      <path id="DejaVuSans-4f" d="M 2522 4238 
Q 1834 4238 1429 3725 
Q 1025 3213 1025 2328 
Q 1025 1447 1429 934 
Q 1834 422 2522 422 
Q 3209 422 3611 934 
Q 4013 1447 4013 2328 
Q 4013 3213 3611 3725 
Q 3209 4238 2522 4238 
z
M 2522 4750 
Q 3503 4750 4090 4092 
Q 4678 3434 4678 2328 
Q 4678 1225 4090 567 
Q 3503 -91 2522 -91 
Q 1538 -91 948 565 
Q 359 1222 359 2328 
Q 359 3434 948 4092 
Q 1538 4750 2522 4750 
z
" transform="scale(0.015625)"/>
      <path id="DejaVuSans-43" d="M 4122 4306 
L 4122 3641 
Q 3803 3938 3442 4084 
Q 3081 4231 2675 4231 
Q 1875 4231 1450 3742 
Q 1025 3253 1025 2328 
Q 1025 1406 1450 917 
Q 1875 428 2675 428 
Q 3081 428 3442 575 
Q 3803 722 4122 1019 
L 4122 359 
Q 3791 134 3420 21 
Q 3050 -91 2638 -91 
Q 1578 -91 968 557 
Q 359 1206 359 2328 
Q 359 3453 968 4101 
Q 1578 4750 2638 4750 
Q 3056 4750 3426 4639 
Q 3797 4528 4122 4306 
z
" transform="scale(0.015625)"/>
      <path id="DejaVuSans-20" transform="scale(0.015625)"/>
      <path id="DejaVuSans-75" d="M 544 1381 
L 544 3500 
L 1119 3500 
L 1119 1403 
Q 1119 906 1312 657 
Q 1506 409 1894 409 
Q 2359 409 2629 706 
Q 2900 1003 2900 1516 
L 2900 3500 
L 3475 3500 
L 3475 0 
L 2900 0 
L 2900 538 
Q 2691 219 2414 64 
Q 2138 -91 1772 -91 
Q 1169 -91 856 284 
Q 544 659 544 1381 
z
M 1991 3584 
L 1991 3584 
z
" transform="scale(0.015625)"/>
      <path id="DejaVuSans-72" d="M 2631 2963 
Q 2534 3019 2420 3045 
Q 2306 3072 2169 3072 
Q 1681 3072 1420 2755 
Q 1159 2438 1159 1844 
L 1159 0 
L 581 0 
L 581 3500 
L 1159 3500 
L 1159 2956 
Q 1341 3275 1631 3429 
Q 1922 3584 2338 3584 
Q 2397 3584 2469 3576 
Q 2541 3569 2628 3553 
L 2631 2963 
z
" transform="scale(0.015625)"/>
      <path id="DejaVuSans-76" d="M 191 3500 
L 800 3500 
L 1894 563 
L 2988 3500 
L 3597 3500 
L 2284 0 
L 1503 0 
L 191 3500 
z
" transform="scale(0.015625)"/>
      <path id="DejaVuSans-65" d="M 3597 1894 
L 3597 1613 
L 953 1613 
Q 991 1019 1311 708 
Q 1631 397 2203 397 
Q 2534 397 2845 478 
Q 3156 559 3463 722 
L 3463 178 
Q 3153 47 2828 -22 
Q 2503 -91 2169 -91 
Q 1331 -91 842 396 
Q 353 884 353 1716 
Q 353 2575 817 3079 
Q 1281 3584 2069 3584 
Q 2775 3584 3186 3129 
Q 3597 2675 3597 1894 
z
M 3022 2063 
Q 3016 2534 2758 2815 
Q 2500 3097 2075 3097 
Q 1594 3097 1305 2825 
Q 1016 2553 972 2059 
L 3022 2063 
z
" transform="scale(0.015625)"/>
     </defs>
     <use xlink:href="#DejaVuSans-52"/>
     <use xlink:href="#DejaVuSans-4f" transform="translate(69.482422 0)"/>
     <use xlink:href="#DejaVuSans-43" transform="translate(148.193359 0)"/>
     <use xlink:href="#DejaVuSans-20" transform="translate(218.017578 0)"/>
     <use xlink:href="#DejaVuSans-43" transform="translate(249.804688 0)"/>
     <use xlink:href="#DejaVuSans-75" transform="translate(319.628906 0)"/>
     <use xlink:href="#DejaVuSans-72" transform="translate(383.007812 0)"/>
     <use xlink:href="#DejaVuSans-76" transform="translate(424.121094 0)"/>
     <use xlink:href="#DejaVuSans-65" transform="translate(483.300781 0)"/>
    </g>
   </g>
   <g id="legend_1">
    <g id="patch_7">
     <path d="M 64.6 64.150125 
L 154.75 64.150125 
Q 156.75 64.150125 156.75 62.150125 
L 156.75 48.472 
Q 156.75 46.472 154.75 46.472 
L 64.6 46.472 
Q 62.6 46.472 62.6 48.472 
L 62.6 62.150125 
Q 62.6 64.150125 64.6 64.150125 
z
" style="fill: #ffffff; opacity: 0.8; stroke: #cccccc; stroke-linejoin: miter"/>
    </g>
    <g id="line2d_15">
     <path d="M 66.6 54.570438 
L 76.6 54.570438 
L 86.6 54.570438 
" style="fill: none; stroke: #1f77b4; stroke-width: 1.5; stroke-linecap: square"/>
    </g>
    <g id="text_14">
     <!-- AUC=0.968 -->
     <g transform="translate(94.6 58.070438) scale(0.1 -0.1)">
      <defs>
       <path id="DejaVuSans-41" d="M 2188 4044 
L 1331 1722 
L 3047 1722 
L 2188 4044 
z
M 1831 4666 
L 2547 4666 
L 4325 0 
L 3669 0 
L 3244 1197 
L 1141 1197 
L 716 0 
L 50 0 
L 1831 4666 
z
" transform="scale(0.015625)"/>
       <path id="DejaVuSans-55" d="M 556 4666 
L 1191 4666 
L 1191 1831 
Q 1191 1081 1462 751 
Q 1734 422 2344 422 
Q 2950 422 3222 751 
Q 3494 1081 3494 1831 
L 3494 4666 
L 4128 4666 
L 4128 1753 
Q 4128 841 3676 375 
Q 3225 -91 2344 -91 
Q 1459 -91 1007 375 
Q 556 841 556 1753 
L 556 4666 
z
" transform="scale(0.015625)"/>
       <path id="DejaVuSans-3d" d="M 678 2906 
L 4684 2906 
L 4684 2381 
L 678 2381 
L 678 2906 
z
M 678 1631 
L 4684 1631 
L 4684 1100 
L 678 1100 
L 678 1631 
z
" transform="scale(0.015625)"/>
       <path id="DejaVuSans-39" d="M 703 97 
L 703 672 
Q 941 559 1184 500 
Q 1428 441 1663 441 
Q 2288 441 2617 861 
Q 2947 1281 2994 2138 
Q 2813 1869 2534 1725 
Q 2256 1581 1919 1581 
Q 1219 1581 811 2004 
Q 403 2428 403 3163 
Q 403 3881 828 4315 
Q 1253 4750 1959 4750 
Q 2769 4750 3195 4129 
Q 3622 3509 3622 2328 
Q 3622 1225 3098 567 
Q 2575 -91 1691 -91 
Q 1453 -91 1209 -44 
Q 966 3 703 97 
z
M 1959 2075 
Q 2384 2075 2632 2365 
Q 2881 2656 2881 3163 
Q 2881 3666 2632 3958 
Q 2384 4250 1959 4250 
Q 1534 4250 1286 3958 
Q 1038 3666 1038 3163 
Q 1038 2656 1286 2365 
Q 1534 2075 1959 2075 
z
" transform="scale(0.015625)"/>
      </defs>
      <use xlink:href="#DejaVuSans-41"/>
      <use xlink:href="#DejaVuSans-55" transform="translate(68.408203 0)"/>
      <use xlink:href="#DejaVuSans-43" transform="translate(141.601562 0)"/>
      <use xlink:href="#DejaVuSans-3d" transform="translate(211.425781 0)"/>
      <use xlink:href="#DejaVuSans-30" transform="translate(295.214844 0)"/>
      <use xlink:href="#DejaVuSans-2e" transform="translate(358.837891 0)"/>
      <use xlink:href="#DejaVuSans-39" transform="translate(390.625 0)"/>
      <use xlink:href="#DejaVuSans-36" transform="translate(454.248047 0)"/>
      <use xlink:href="#DejaVuSans-38" transform="translate(517.871094 0)"/>
     </g>
    </g>
   </g>
  </g>
 </g>
 <defs>
  <clipPath id="p4db4b8c3c4">
   <rect x="57.6" y="41.472" width="357.12" height="266.112"/>
  </clipPath>
 </defs>
</svg>
