<?xml version="1.0" encoding="utf-8" standalone="no"?>
<!DOCTYPE svg PUBLIC "-//W3C//DTD SVG 1.1//EN"
  "http://www.w3.org/Graphics/SVG/1.1/DTD/svg11.dtd">
<svg xmlns:xlink="http://www.w3.org/1999/xlink" width="460.8pt" height="345.6pt" viewBox="0 0 460.8 345.6" xmlns="http://www.w3.org/2000/svg" version="1.1">
 <metadata>
  <rdf:RDF xmlns:dc="http://purl.org/dc/elements/1.1/" xmlns:cc="http://creativecommons.org/ns#" xmlns:rdf="http://www.w3.org/1999/02/22-rdf-syntax-ns#">
   <cc:Work>
    <dc:type rdf:resource="http://purl.org/dc/dcmitype/StillImage"/>
    <dc:date>2026-03-16T13:30:40.175877</dc:date>
    <dc:format>image/svg+xml</dc:format>
    <dc:creator>
     <cc:Agent>
      <dc:title>Matplotlib v3.10.8, https://matplotlib.org/</dc:title>
     </cc:Agent>
    </dc:creator>
   </cc:Work>
  </rdf:RDF>
 </metadata>
 <defs>
  <style type="text/css">*{stroke-linejoin: round; stroke-linecap: butt}</style>
 </defs>
 <g id="figure_1">
  <g id="patch_1">
   <path d="M 0 345.6 
L 460.8 345.6 
L 460.8 0 
L 0 0 
z
" style="fill: #ffffff"/>
  </g>
  <g id="axes_1">
   <g id="patch_2">
    <path d="M 57.6 307.584 
L 414.72 307.584 
L 414.72 41.472 
L 57.6 41.472 
z
" style="fill: #ffffff"/>
   </g>
   <g id="matplotlib.axis_1">
    <g id="xtick_1">
     <g id="line2d_1">
      <defs>
       <path id="m7edfbd8762" d="M 0 0 
L 0 3.5 
" style="stroke: #000000; stroke-width: 0.8"/>
      </defs>
      <g>
       <use xlink:href="#m7edfbd8762" x="73.832727" y="307.584" style="stroke: #000000; stroke-width: 0.8"/>
      </g>
     </g>
     <g id="text_1">
      <!-- 0.0 -->
      <g transform="translate(65.881165 322.182437) scale(0.1 -0.1)">
       <defs>
        <path id="DejaVuSans-30" d="M 2034 4250 
Q 1547 4250 1301 3770 
Q 1056 3291 1056 2328 
Q 1056 1369 1301 889 
Q 1547 409 2034 409 
Q 2525 409 2770 889 
Q 3016 1369 3016 2328 
Q 3016 3291 2770 3770 
Q 2525 4250 2034 4250 
z
M 2034 4750 
Q 2819 4750 3233 4129 
Q 3647 3509 3647 2328 
Q 3647 1150 3233 529 
Q 2819 -91 2034 -91 
Q 1250 -91 836 529 
Q 422 1150 422 2328 
Q 422 3509 836 4129 
Q 1250 4750 2034 4750 
z
" transform="scale(0.015625)"/>
        <path id="DejaVuSans-2e" d="M 684 794 
L 1344 794 
L 1344 0 
L 684 0 
L 684 794 
z
" transform="scale(0.015625)"/>
       </defs>
       <use xlink:href="#DejaVuSans-30"/>
       <use xlink:href="#DejaVuSans-2e" transform="translate(63.623047 0)"/>
       <use xlink:href="#DejaVuSans-30" transform="translate(95.410156 0)"/>
      </g>
     </g>
    </g>
    <g id="xtick_2">
     <g id="line2d_2">
      <g>
       <use xlink:href="#m7edfbd8762" x="138.763636" y="307.584" style="stroke: #000000; stroke-width: 0.8"/>
      </g>
     </g>
     <g id="text_2">
      <!-- 0.2 -->
      <g transform="translate(130.812074 322.182437) scale(0.1 -0.1)">
       <defs>
        <path id="DejaVuSans-32" d="M 1228 531 
L 3431 531 
L 3431 0 
L 469 0 
L 469 531 
Q 828 903 1448 1529 
Q 2069 2156 2228 2338 
Q 2531 2678 2651 2914 
Q 2772 3150 2772 3378 
Q 2772 3750 2511 3984 
Q 2250 4219 1831 4219 
Q 1534 4219 1204 4116 
Q 875 4013 500 3803 
L 500 4441 
Q 881 4594 1212 4672 
Q 1544 4750 1819 4750 
Q 2544 4750 2975 4387 
Q 3406 4025 3406 3419 
Q 3406 3131 3298 2873 
Q 3191 2616 2906 2266 
Q 2828 2175 2409 1742 
Q 1991 1309 1228 531 
z
" transform="scale(0.015625)"/>
       </defs>
       <use xlink:href="#DejaVuSans-30"/>
       <use xlink:href="#DejaVuSans-2e" transform="translate(63.623047 0)"/>
       <use xlink:href="#DejaVuSans-32" transform="translate(95.410156 0)"/>
      </g>
     </g>
    </g>
    <g id="xtick_3">
     <g id="line2d_3">
      <g>
       <use xlink:href="#m7edfbd8762" x="203.694545" y="307.584" style="stroke: #000000; stroke-width: 0.8"/>
      </g>
     </g>
     <g id="text_3">
      <!-- 0.4 -->
      <g transform="translate(195.742983 322.182437) scale(0.1 -0.1)">
       <defs>
        <path id="DejaVuSans-34" d="M 2419 4116 
L 825 1625 
L 2419 1625 
L 2419 4116 
z
M 2253 4666 
L 3047 4666 
L 3047 1625 
L 3713 1625 
L 3713 1100 
L 3047 1100 
L 3047 0 
L 2419 0 
L 2419 1100 
L 313 1100 
L 313 1709 
L 2253 4666 
z
" transform="scale(0.015625)"/>
       </defs>
       <use xlink:href="#DejaVuSans-30"/>
       <use xlink:href="#DejaVuSans-2e" transform="translate(63.623047 0)"/>
       <use xlink:href="#DejaVuSans-34" transform="translate(95.410156 0)"/>
      </g>
     </g>
    </g>
    <g id="xtick_4">
     <g id="line2d_4">
      <g>
       <use xlink:href="#m7edfbd8762" x="268.625455" y="307.584" style="stroke: #000000; stroke-width: 0.8"/>
      </g>
     </g>
     <g id="text_4">
      <!-- 0.6 -->
      <g transform="translate(260.673892 322.182437) scale(0.1 -0.1)">
       <defs>
        <path id="DejaVuSans-36" d="M 2113 2584 
Q 1688 2584 1439 2293 
Q 1191 2003 1191 1497 
Q 1191 994 1439 701 
Q 1688 409 2113 409 
Q 2538 409 2786 701 
Q 3034 994 3034 1497 
Q 3034 2003 2786 2293 
Q 2538 2584 2113 2584 
z
M 3366 4563 
L 3366 3988 
Q 3128 4100 2886 4159 
Q 2644 4219 2406 4219 
Q 1781 4219 1451 3797 
Q 1122 3375 1075 2522 
Q 1259 2794 1537 2939 
Q 1816 3084 2150 3084 
Q 2853 3084 3261 2657 
Q 3669 2231 3669 1497 
Q 3669 778 3244 343 
Q 2819 -91 2113 -91 
Q 1303 -91 875 529 
Q 447 1150 447 2328 
Q 447 3434 972 4092 
Q 1497 4750 2381 4750 
Q 2619 4750 2861 4703 
Q 3103 4656 3366 4563 
z
" transform="scale(0.015625)"/>
       </defs>
       <use xlink:href="#DejaVuSans-30"/>
       <use xlink:href="#DejaVuSans-2e" transform="translate(63.623047 0)"/>
       <use xlink:href="#DejaVuSans-36" transform="translate(95.410156 0)"/>
      </g>
     </g>
    </g>
    <g id="xtick_5">
     <g id="line2d_5">
      <g>
       <use xlink:href="#m7edfbd8762" x="333.556364" y="307.584" style="stroke: #000000; stroke-width: 0.8"/>
      </g>
     </g>
     <g id="text_5">
      <!-- 0.8 -->
      <g transform="translate(325.604801 322.182437) scale(0.1 -0.1)">
       <defs>
        <path id="DejaVuSans-38" d="M 2034 2216 
Q 1584 2216 1326 1975 
Q 1069 1734 1069 1313 
Q 1069 891 1326 650 
Q 1584 409 2034 409 
Q 2484 409 2743 651 
Q 3003 894 3003 1313 
Q 3003 1734 2745 1975 
Q 2488 2216 2034 2216 
z
M 1403 2484 
Q 997 2584 770 2862 
Q 544 3141 544 3541 
Q 544 4100 942 4425 
Q 1341 4750 2034 4750 
Q 2731 4750 3128 4425 
Q 3525 4100 3525 3541 
Q 3525 3141 3298 2862 
Q 3072 2584 2669 2484 
Q 3125 2378 3379 2068 
Q 3634 1759 3634 1313 
Q 3634 634 3220 271 
Q 2806 -91 2034 -91 
Q 1263 -91 848 271 
Q 434 634 434 1313 
Q 434 1759 690 2068 
Q 947 2378 1403 2484 
z
M 1172 3481 
Q 1172 3119 1398 2916 
Q 1625 2713 2034 2713 
Q 2441 2713 2670 2916 
Q 2900 3119 2900 3481 
Q 2900 3844 2670 4047 
Q 2441 4250 2034 4250 
Q 1625 4250 1398 4047 
Q 1172 3844 1172 3481 
z
" transform="scale(0.015625)"/>
       </defs>
       <use xlink:href="#DejaVuSans-30"/>
       <use xlink:href="#DejaVuSans-2e" transform="translate(63.623047 0)"/>
       <use xlink:href="#DejaVuSans-38" transform="translate(95.410156 0)"/>
      </g>
     </g>
    </g>
    <g id="xtick_6">
     <g id="line2d_6">
      <g>
       <use xlink:href="#m7edfbd8762" x="398.487273" y="307.584" style="stroke: #000000; stroke-width: 0.8"/>
      </g>
     </g>
     <g id="text_6">
      <!-- 1.0 -->
      <g transform="translate(390.53571 322.182437) scale(0.1 -0.1)">
       <defs>
        <path id="DejaVuSans-31" d="M 794 531 
L 1825 531 
L 1825 4091 
L 703 3866 
L 703 4441 
L 1819 4666 
L 2450 4666 
L 2450 531 
L 3481 531 
L 3481 0 
L 794 0 
L 794 531 
z
" transform="scale(0.015625)"/>
       </defs>
       <use xlink:href="#DejaVuSans-31"/>
       <use xlink:href="#DejaVuSans-2e" transform="translate(63.623047 0)"/>
       <use xlink:href="#DejaVuSans-30" transform="translate(95.410156 0)"/>
      </g>
     </g>
    </g>
   </g>
   <g id="matplotlib.axis_2">
    <g id="ytick_1">
     <g id="line2d_7">
      <defs>
       <path id="mcdbf8f6f55" d="M 0 0 
L -3.5 0 
" style="stroke: #000000; stroke-width: 0.8"/>
      </defs>
      <g>
       <use xlink:href="#mcdbf8f6f55" x="57.6" y="287.210039" style="stroke: #000000; stroke-width: 0.8"/>
      </g>
     </g>
     <g id="text_7">
      <!-- 0.6 -->
      <g transform="translate(34.696875 291.009258) scale(0.1 -0.1)">
       <use xlink:href="#DejaVuSans-30"/>
       <use xlink:href="#DejaVuSans-2e" transform="translate(63.623047 0)"/>
       <use xlink:href="#DejaVuSans-36" transform="translate(95.410156 0)"/>
      </g>
     </g>
    </g>
    <g id="ytick_2">
     <g id="line2d_8">
      <g>
       <use xlink:href="#mcdbf8f6f55" x="57.6" y="228.79953" style="stroke: #000000; stroke-width: 0.8"/>
      </g>
     </g>
     <g id="text_8">
      <!-- 0.7 -->
      <g transform="translate(34.696875 232.598748) scale(0.1 -0.1)">
       <defs>
        <path id="DejaVuSans-37" d="M 525 4666 
L 3525 4666 
L 3525 4397 
L 1831 0 
L 1172 0 
L 2766 4134 
L 525 4134 
L 525 4666 
z
" transform="scale(0.015625)"/>
       </defs>
       <use xlink:href="#DejaVuSans-30"/>
       <use xlink:href="#DejaVuSans-2e" transform="translate(63.623047 0)"/>
       <use xlink:href="#DejaVuSans-37" transform="translate(95.410156 0)"/>
      </g>
     </g>
    </g>
    <g id="ytick_3">
     <g id="line2d_9">
      <g>
       <use xlink:href="#mcdbf8f6f55" x="57.6" y="170.38902" style="stroke: #000000; stroke-width: 0.8"/>
      </g>
     </g>
     <g id="text_9">
      <!-- 0.8 -->
      <g transform="translate(34.696875 174.188238) scale(0.1 -0.1)">
       <use xlink:href="#DejaVuSans-30"/>
       <use xlink:href="#DejaVuSans-2e" transform="translate(63.623047 0)"/>
       <use xlink:href="#DejaVuSans-38" transform="translate(95.410156 0)"/>
      </g>
     </g>
    </g>
    <g id="ytick_4">
     <g id="line2d_10">
      <g>
       <use xlink:href="#mcdbf8f6f55" x="57.6" y="111.97851" style="stroke: #000000; stroke-width: 0.8"/>
      </g>
     </g>
     <g id="text_10">
      <!-- 0.9 -->
      <g transform="translate(34.696875 115.777729) scale(0.1 -0.1)">
       <defs>
        <path id="DejaVuSans-39" d="M 703 97 
L 703 672 
Q 941 559 1184 500 
Q 1428 441 1663 441 
Q 2288 441 2617 861 
Q 2947 1281 2994 2138 
Q 2813 1869 2534 1725 
Q 2256 1581 1919 1581 
Q 1219 1581 811 2004 
Q 403 2428 403 3163 
Q 403 3881 828 4315 
Q 1253 4750 1959 4750 
Q 2769 4750 3195 4129 
Q 3622 3509 3622 2328 
Q 3622 1225 3098 567 
Q 2575 -91 1691 -91 
Q 1453 -91 1209 -44 
Q 966 3 703 97 
z
M 1959 2075 
Q 2384 2075 2632 2365 
Q 2881 2656 2881 3163 
Q 2881 3666 2632 3958 
Q 2384 4250 1959 4250 
Q 1534 4250 1286 3958 
Q 1038 3666 1038 3163 
Q 1038 2656 1286 2365 
Q 1534 2075 1959 2075 
z
" transform="scale(0.015625)"/>
       </defs>
       <use xlink:href="#DejaVuSans-30"/>
       <use xlink:href="#DejaVuSans-2e" transform="translate(63.623047 0)"/>
       <use xlink:href="#DejaVuSans-39" transform="translate(95.410156 0)"/>
      </g>
     </g>
    </g>
    <g id="ytick_5">
     <g id="line2d_11">
      <g>
       <use xlink:href="#mcdbf8f6f55" x="57.6" y="53.568" style="stroke: #000000; stroke-width: 0.8"/>
      </g>
     </g>
     <g id="text_11">
      <!-- 1.0 -->
      <g transform="translate(34.696875 57.367219) scale(0.1 -0.1)">
       <use xlink:href="#DejaVuSans-31"/>
       <use xlink:href="#DejaVuSans-2e" transform="translate(63.623047 0)"/>
       <use xlink:href="#DejaVuSans-30" transform="translate(95.410156 0)"/>
      </g>
     </g>
    </g>
   </g>
   <g id="line2d_12">
    <path d="M 398.487273 295.488 
L 398.377543 155.187402 
L 398.374114 155.188288 
L 398.374114 155.074566 
L 398.264385 125.628627 
L 398.260956 125.629295 
L 398.257527 125.520818 
L 398.147798 124.013627 
L 398.144369 124.014282 
L 398.14094 123.905064 
L 398.031211 116.665348 
L 398.027782 116.665943 
L 398.027782 116.557781 
L 397.918052 113.095801 
L 397.911194 113.086962 
L 397.907765 112.987808 
L 397.801465 111.479484 
L 397.798036 111.480036 
L 397.78432 111.41701 
L 397.794607 111.435428 
L 397.78432 111.371837 
L 397.674591 110.443845 
L 397.671161 110.444388 
L 397.671161 110.333505 
L 397.561432 109.69958 
L 397.558003 109.700117 
L 397.558003 109.60911 
L 397.547716 109.590492 
L 397.437987 109.111444 
L 397.424271 109.088231 
L 397.420842 109.002578 
L 397.311112 108.583046 
L 397.307683 108.583574 
L 397.300825 108.472836 
L 397.191096 106.422633 
L 397.143089 106.383646 
L 397.136231 106.323153 
L 397.029931 106.056746 
L 397.026502 106.057253 
L 396.968208 105.958029 
L 396.858479 104.650532 
L 396.827618 104.556855 
L 396.827618 104.546524 
L 396.717889 102.731997 
L 396.687027 102.627009 
L 396.580727 102.120616 
L 396.577298 102.121089 
L 396.522433 101.857195 
L 396.412704 101.35453 
L 396.402417 101.334989 
L 396.402417 101.245976 
L 396.292688 100.815237 
L 396.265256 100.803188 
L 396.254968 100.710093 
L 396.145239 100.146579 
L 396.134952 100.126895 
L 396.134952 100.04267 
L 396.131523 100.037861 
L 396.021794 99.351069 
L 396.014936 99.346686 
L 396.014936 99.241057 
L 395.905206 98.673527 
L 395.846913 98.569817 
L 395.737184 98.355978 
L 395.665174 98.253793 
L 395.555444 98.050102 
L 395.521154 97.948182 
L 395.552015 98.018657 
L 395.521154 97.942866 
L 395.414854 97.722341 
L 395.411425 97.722776 
L 395.380563 97.694755 
L 395.380563 97.614892 
L 395.270834 97.282349 
L 395.253689 97.22583 
L 395.253689 97.177813 
L 395.14396 96.700121 
L 395.082237 96.600818 
L 394.975937 95.981803 
L 394.972508 95.982223 
L 394.969079 95.945092 
L 394.951934 95.877435 
L 394.842204 94.734264 
L 394.777053 94.634173 
L 394.667323 93.934073 
L 394.633033 93.856923 
L 394.633033 93.829862 
L 394.523304 93.24649 
L 394.468439 93.171405 
L 394.468439 93.144262 
L 394.35871 92.776492 
L 394.327849 92.671221 
L 394.218119 92.307937 
L 394.183829 92.246397 
L 394.1804 92.203167 
L 394.094674 91.939996 
L 394.080958 91.941531 
L 393.991803 91.84774 
L 393.991803 91.842277 
L 393.882073 91.657741 
L 393.789489 91.558623 
L 393.683189 91.329477 
L 393.67976 91.329856 
L 393.604321 91.245017 
L 393.604321 91.228572 
L 393.494592 91.015747 
L 393.432869 90.912713 
L 393.32314 90.666432 
L 393.257988 90.563516 
L 393.151688 90.305279 
L 393.148259 90.305648 
L 393.035101 90.213142 
L 393.035101 90.20763 
L 392.925372 90.020866 
L 392.877365 89.926656 
L 392.877365 89.915614 
L 392.767636 89.739511 
L 392.733345 89.632601 
L 392.647619 89.508938 
L 392.623616 89.511478 
L 392.592755 89.404044 
L 392.483026 89.171856 
L 392.411016 89.07406 
L 392.411016 89.068514 
L 392.301287 88.863555 
L 392.21899 88.766593 
L 392.21899 88.761037 
L 392.116118 88.638321 
L 392.112689 88.638676 
L 392.030392 88.563771 
L 392.030392 88.535955 
L 391.924092 88.346524 
L 391.920663 88.346876 
L 391.793789 88.248481 
L 391.68406 88.075701 
L 391.57433 87.980862 
L 391.57433 87.97528 
L 391.464601 87.77976 
L 391.382304 87.681876 
L 391.272575 87.407543 
L 391.227997 87.316797 
L 391.227997 87.305592 
L 391.118268 87.081105 
L 391.059974 86.991524 
L 391.059974 86.9803 
L 390.950245 86.760934 
L 390.840516 86.664964 
L 390.734216 86.495406 
L 390.730787 86.495742 
L 390.662206 86.401128 
L 390.662206 86.395497 
L 390.569622 86.246795 
L 390.552477 86.248465 
L 390.456464 86.150685 
L 390.346734 85.963825 
L 390.274725 85.874777 
L 390.274725 85.86348 
L 390.164995 85.698836 
L 390.092985 85.598276 
L 389.983256 85.320005 
L 389.931821 85.239887 
L 389.931821 85.217214 
L 389.828949 84.903583 
L 389.822091 84.904226 
L 389.79123 84.810594 
L 389.79123 84.799235 
L 389.688359 84.587212 
L 389.681501 84.58785 
L 389.64721 84.488667 
L 389.64721 84.482979 
L 389.547768 84.224636 
L 389.537481 84.225583 
L 389.448326 84.148317 
L 389.448326 84.12552 
L 389.342026 83.867192 
L 389.338597 83.867504 
L 389.318023 83.778049 
L 389.318023 83.760922 
L 389.246013 83.658938 
L 389.211722 83.662041 
L 389.160287 83.558108 
L 389.050558 83.459345 
L 388.975119 83.36885 
L 388.975119 83.357402 
L 388.879106 83.073867 
L 388.86539 83.075087 
L 388.759089 82.992793 
L 388.759089 82.975587 
L 388.652789 82.755425 
L 388.64936 82.755727 
L 388.539631 82.656237 
L 388.433331 82.251408 
L 388.429902 82.251705 
L 388.426473 82.211703 
L 388.368179 82.14764 
L 388.261879 81.966627 
L 388.25845 81.966922 
L 388.189869 81.863224 
L 388.08014 81.659018 
L 387.987556 81.562895 
L 387.987556 81.557115 
L 387.877826 81.300371 
L 387.850394 81.192704 
L 387.75781 80.991916 
L 387.740665 80.993344 
L 387.661797 80.89555 
L 387.661797 80.889751 
L 387.562355 80.752949 
L 387.552068 80.753799 
L 387.466342 80.656367 
L 387.466342 80.65056 
L 387.356612 80.473631 
L 387.25717 80.377083 
L 387.25717 80.371265 
L 387.147441 80.217235 
L 387.109722 80.121283 
L 387.109722 80.109632 
L 386.999992 79.82115 
L 386.934841 79.727158 
L 386.934841 79.715484 
L 386.831969 79.565999 
L 386.825111 79.566544 
L 386.790821 79.469919 
L 386.790821 79.458229 
L 386.684521 79.086323 
L 386.681092 79.08659 
L 386.598795 78.981717 
L 386.492495 78.937231 
L 386.489066 78.937497 
L 386.351904 78.836708 
L 386.266178 78.714217 
L 386.242175 78.716066 
L 386.15302 78.61721 
L 386.070723 78.54125 
L 386.043291 78.54335 
L 385.912987 78.453344 
L 385.912987 78.447461 
L 385.810116 78.33171 
L 385.803258 78.332231 
L 385.662667 78.236887 
L 385.563225 78.17369 
L 385.552938 78.174467 
L 385.360912 78.082798 
L 385.309476 78.004038 
L 385.29576 78.005069 
L 385.138024 77.916502 
L 385.138024 77.910594 
L 385.031724 77.741185 
L 385.028295 77.74144 
L 384.959714 77.645963 
L 384.959714 77.640046 
L 384.849985 77.500153 
L 384.777975 77.404737 
L 384.777975 77.398811 
L 384.681962 77.281352 
L 384.668246 77.282355 
L 384.585949 77.181575 
L 384.47622 77.041122 
L 384.315055 76.945828 
L 384.212184 76.858102 
L 384.205326 76.858596 
L 384.075022 76.772753 
L 384.075022 76.760846 
L 383.972151 76.672932 
L 383.965293 76.673423 
L 383.893283 76.577261 
L 383.893283 76.5713 
L 383.783554 76.525451 
L 383.660109 76.432794 
L 383.660109 76.426825 
L 383.564095 76.284338 
L 383.550379 76.285305 
L 383.426934 76.19838 
L 383.426934 76.186424 
L 383.348066 76.042435 
L 383.324063 76.044111 
L 383.183472 75.94617 
L 383.077172 75.845729 
L 383.073743 75.845966 
L 382.902291 75.749917 
L 382.792562 75.57745 
L 382.696549 75.47592 
L 382.586819 75.333138 
L 382.466803 75.232998 
L 382.357074 74.993525 
L 382.329641 74.892919 
L 382.329641 74.886892 
L 382.223341 74.719072 
L 382.219912 74.719299 
L 382.182193 74.619202 
L 382.182193 74.613166 
L 382.072463 74.487521 
L 381.993596 74.383901 
L 381.890724 74.305942 
L 381.883866 74.306387 
L 381.832431 74.200818 
L 381.736418 74.061704 
L 381.722702 74.062585 
L 381.61983 73.960117 
L 381.510101 73.682028 
L 381.396943 73.57987 
L 381.287214 73.39228 
L 381.222062 73.286859 
L 381.119191 73.128887 
L 381.112333 73.129309 
L 381.023178 73.025144 
L 380.923735 72.939798 
L 380.913448 72.940425 
L 380.776287 72.838982 
L 380.673416 72.753657 
L 380.666558 72.754072 
L 380.419667 72.659004 
L 380.309937 72.549408 
L 380.169347 72.453776 
L 380.169347 72.447654 
L 380.063047 72.337607 
L 380.059618 72.33781 
L 379.864162 72.239039 
L 379.795582 72.175604 
L 379.754433 72.178027 
L 379.456107 72.085031 
L 379.363523 72.041289 
L 379.346378 72.042293 
L 378.722292 71.968017 
L 378.646854 71.916951 
L 378.612563 71.918951 
L 378.183933 71.832839 
L 378.081062 71.783216 
L 378.074204 71.783614 
L 377.806739 71.693991 
L 377.69701 71.601298 
L 377.546132 71.504668 
L 377.436403 71.256717 
L 377.405542 71.159176 
L 377.405542 71.152969 
L 377.312957 70.947011 
L 377.30267 70.947582 
L 377.223802 70.864947 
L 377.223802 70.846297 
L 377.117502 70.49124 
L 377.114073 70.491426 
L 376.973483 70.393122 
L 376.867182 70.230483 
L 376.863753 70.230666 
L 376.740308 70.131158 
L 376.630579 70.055796 
L 376.280817 69.967998 
L 376.177946 69.948389 
L 376.171088 69.94875 
L 375.955058 69.85365 
L 375.886477 69.832178 
L 375.845329 69.834332 
L 375.59158 69.740974 
L 375.481851 69.583441 
L 375.221244 69.490029 
L 375.221244 69.483741 
L 375.111515 69.489379 
L 374.888627 69.393811 
L 374.713746 69.308232 
L 374.446281 69.214599 
L 374.339981 69.093703 
L 374.336552 69.093875 
L 374.113664 68.997632 
L 374.010793 68.926877 
L 374.003935 68.927218 
L 373.726183 68.833408 
L 373.643886 68.774122 
L 373.626741 68.774969 
L 373.345559 68.681018 
L 373.276979 68.659 
L 373.242688 68.660684 
L 372.84492 68.578522 
L 372.84492 68.572163 
L 372.73862 68.437388 
L 372.536306 68.358035 
L 372.536306 68.338925 
L 372.447151 68.29224 
L 372.426577 68.293229 
L 372.196831 68.195825 
L 372.104247 68.161952 
L 372.087102 68.16277 
L 371.795634 68.068039 
L 371.716766 68.007835 
L 371.685905 68.009294 
L 371.480162 67.910203 
L 371.373862 67.863957 
L 371.370433 67.864118 
L 371.305281 67.758224 
L 371.209268 67.666499 
L 371.195552 67.667134 
L 370.931516 67.570204 
L 370.825216 67.472286 
L 370.821787 67.472443 
L 370.640048 67.377846 
L 370.640048 67.371413 
L 370.530319 67.241224 
L 370.413731 67.136959 
L 370.31086 67.038413 
L 370.207989 66.933313 
L 370.101689 66.815336 
L 370.09826 66.815486 
L 370.012534 66.709406 
L 369.91995 66.564722 
L 369.902804 66.565458 
L 369.738211 66.462503 
L 369.652485 66.414352 
L 369.628481 66.415372 
L 369.433026 66.332934 
L 369.433026 66.313485 
L 369.326726 66.149297 
L 369.323297 66.149439 
L 369.182706 66.044908 
L 369.079835 65.860685 
L 369.072977 65.860965 
L 368.922099 65.756517 
L 368.826086 65.643211 
L 368.81237 65.643761 
L 368.627202 65.559949 
L 368.627202 65.540394 
L 368.520902 65.472886 
L 368.517473 65.473022 
L 368.143707 65.383324 
L 368.143707 65.376791 
L 368.068269 65.353618 
L 368.033978 65.354964 
L 367.783658 65.260118 
L 367.677358 65.205343 
L 367.673929 65.205476 
L 367.351599 65.113112 
L 367.24187 65.038625 
L 367.084134 64.939626 
L 366.974405 64.641464 
L 366.816669 64.542023 
L 366.734372 64.452863 
L 366.70694 64.453863 
L 366.628072 64.357904 
L 366.628072 64.351313 
L 366.518343 64.256372 
L 366.1 64.165704 
L 365.9937 64.123224 
L 365.335325 64.040622 
L 365.229024 63.978075 
L 365.225595 63.978195 
L 364.683807 63.890938 
L 364.580936 63.84799 
L 364.574078 63.848228 
L 363.908844 63.77142 
L 363.908844 63.764754 
L 363.802544 63.721746 
L 363.799115 63.721864 
L 363.157885 63.637018 
L 363.065301 63.600054 
L 363.048156 63.600638 
L 362.273193 63.519799 
L 362.190896 63.489033 
L 362.166893 63.489845 
L 361.823989 63.393914 
L 361.669682 63.331822 
L 361.494801 63.22993 
L 361.405646 63.185718 
L 361.385072 63.186395 
L 361.138181 63.086608 
L 361.086745 63.034301 
L 361.028452 63.036192 
L 360.339215 62.95033 
L 360.232915 62.865727 
L 360.229486 62.865837 
L 360.03403 62.763631 
L 359.924301 62.638212 
L 359.766565 62.534495 
L 359.684268 62.360357 
L 359.656836 62.361188 
L 359.533391 62.262897 
L 359.533391 62.256094 
L 359.451094 62.122419 
L 359.423662 62.123228 
L 359.207632 62.027377 
L 359.207632 62.02056 
L 359.104761 61.921257 
L 359.097903 61.921455 
L 358.926451 61.824 
L 358.926451 61.817172 
L 358.816722 61.73832 
L 358.682989 61.632704 
L 358.593834 61.566779 
L 358.576689 61.567254 
L 358.374376 61.463283 
L 358.271504 61.370148 
L 358.264646 61.370334 
L 358.127485 61.264296 
L 358.017756 61.226046 
L 357.836017 61.120963 
L 357.746861 60.992681 
L 357.736574 60.992947 
L 357.589126 60.900417 
L 357.589126 60.886652 
L 357.479396 60.758595 
L 357.352522 60.651488 
L 357.25308 60.591867 
L 357.242793 60.592119 
L 356.985615 60.487931 
L 356.89646 60.393341 
L 356.875886 60.393831 
L 356.474688 60.292641 
L 356.210652 60.187947 
L 355.686009 60.088975 
L 355.603712 60.070006 
L 355.57628 60.070632 
L 355.140792 59.976136 
L 355.099643 59.949199 
L 355.04135 59.950507 
L 354.815033 59.864926 
L 354.815033 59.850975 
L 354.71902 59.720485 
L 354.705304 59.720783 
L 354.626436 59.61772 
L 354.516707 59.543175 
L 354.249242 59.443839 
L 354.160087 59.403675 
L 354.139513 59.404099 
L 353.752031 59.306885 
L 353.752031 59.299869 
L 353.642302 59.302095 
L 353.103943 59.207547 
L 353.103943 59.200513 
L 352.994214 59.202706 
L 352.301548 59.110754 
L 352.205535 59.08441 
L 352.191818 59.084679 
L 351.430572 58.993457 
L 351.344846 58.973865 
L 351.320843 58.974328 
L 350.710474 58.886713 
L 350.710474 58.87961 
L 350.607602 58.817609 
L 350.600744 58.817738 
L 350.021237 58.721805 
L 349.884075 58.688701 
L 349.376578 58.590902 
L 349.280564 58.556901 
L 349.266848 58.557147 
L 348.824502 58.457692 
L 348.714773 58.387969 
L 348.413018 58.285585 
L 348.303288 58.172554 
L 347.90552 58.071268 
L 347.836939 58.007602 
L 347.802649 58.008154 
L 347.010541 57.912601 
L 346.935102 57.855985 
L 346.900811 57.85652 
L 346.719072 57.758085 
L 346.551049 57.709969 
L 345.961255 57.610022 
L 345.851526 57.560806 
L 345.446899 57.45759 
L 345.344028 57.378974 
L 345.33717 57.37907 
L 344.98055 57.27467 
L 344.98055 57.260083 
L 344.87082 57.261568 
L 344.106145 57.162176 
L 343.989557 57.119776 
L 341.836121 57.037387 
L 341.750395 57.00894 
L 341.726392 57.009246 
L 340.917139 56.915841 
L 340.821125 56.894789 
L 340.807409 56.894959 
L 335.615844 56.854661 
L 335.615844 56.847096 
L 335.506115 56.848463 
L 334.758585 56.751529 
L 334.666001 56.729866 
L 334.652284 56.730031 
L 333.013204 56.642885 
L 333.013204 56.635238 
L 332.903475 56.63653 
L 330.990071 56.55133 
L 330.911203 56.536817 
L 330.880342 56.537172 
L 327.375864 56.468521 
L 327.345003 56.445404 
L 327.266135 56.446295 
L 325.03383 56.361205 
L 324.958391 56.34624 
L 324.924101 56.346618 
L 323.727367 56.248699 
L 323.727367 56.240757 
L 323.617637 56.241926 
L 320.528073 56.170669 
L 320.528073 56.162622 
L 320.418344 56.163771 
L 317.668255 56.087069 
L 317.668255 56.078926 
L 317.558526 56.080051 
L 315.542251 56.010539 
L 315.542251 55.994104 
L 315.542251 55.985886 
L 315.432521 55.986979 
L 311.811456 55.915117 
L 311.770308 55.89882 
L 311.701727 55.899489 
L 306.489588 55.840482 
L 306.383288 55.815878 
L 306.379859 55.815911 
L 299.388048 55.779581 
L 299.388048 55.770768 
L 299.278319 55.771836 
L 296.517943 55.691921 
L 296.408214 55.657228 
L 294.090183 55.570781 
L 294.090183 55.561749 
L 293.983883 55.562709 
L 270.728141 55.666144 
L 270.669848 55.636454 
L 270.618412 55.636993 
L 267.731161 55.565116 
L 267.731161 55.554857 
L 267.621432 55.555978 
L 237.541903 55.761959 
L 237.541903 55.749816 
L 237.432173 55.751274 
L 231.040445 55.725899 
L 231.040445 55.713252 
L 230.930716 55.714745 
L 228.900725 55.640162 
L 228.900725 55.627337 
L 228.790995 55.62879 
L 224.827026 55.577324 
L 224.827026 55.56415 
L 224.717297 55.565596 
L 223.695444 55.472966 
L 223.668011 55.433469 
L 223.585714 55.434491 
L 221.185387 55.356741 
L 221.185387 55.343231 
L 221.075658 55.34455 
L 213.178581 55.330633 
L 213.178581 55.316346 
L 213.068852 55.317719 
L 203.54984 55.338295 
L 203.54984 55.322948 
L 203.440111 55.324429 
L 197.84049 55.291119 
L 197.84049 55.275062 
L 197.730761 55.276569 
L 196.942082 55.190424 
L 196.863214 55.15908 
L 196.832353 55.159479 
L 196.225413 55.069681 
L 196.225413 55.0534 
L 196.115684 55.05473 
L 193.873092 54.982822 
L 193.756505 54.967573 
L 192.477473 54.881807 
L 192.477473 54.865001 
L 192.367744 54.866199 
L 189.638229 54.793407 
L 189.638229 54.776184 
L 189.5285 54.777327 
L 185.972587 54.708865 
L 185.972587 54.691073 
L 185.862857 54.692171 
L 176.237545 54.68073 
L 176.237545 54.661245 
L 176.131245 54.662379 
L 170.967112 54.617734 
L 170.83338 54.598604 
L 167.791822 54.525689 
L 167.791822 54.504441 
L 167.682093 54.505534 
L 164.373071 54.451535 
L 164.373071 54.407422 
L 164.263341 54.408439 
L 159.4524 54.362288 
L 159.332383 54.340038 
L 158.427117 54.253819 
L 158.31053 54.207453 
L 150.121985 54.171225 
L 150.108269 54.092708 
L 150.019114 54.093322 
L 147.917113 54.00025 
L 147.797096 53.97391 
L 141.323071 53.923908 
L 141.213342 53.894797 
L 139.416525 53.812217 
L 139.306796 53.782059 
L 85.416021 53.913624 
L 85.302862 53.742568 
L 79.099731 53.948029 
L 78.808263 53.970276 
L 78.691675 53.568 
L 73.832727 53.568 
L 73.832727 53.568 
" clip-path="url(#pda2ad3db61)" style="fill: none; stroke: #1f77b4; stroke-width: 1.5; stroke-linecap: square"/>
   </g>
   <g id="patch_3">
    <path d="M 57.6 307.584 
L 57.6 41.472 
" style="fill: none; stroke: #000000; stroke-width: 0.8; stroke-linejoin: miter; stroke-linecap: square"/>
   </g>
   <g id="patch_4">
    <path d="M 414.72 307.584 
L 414.72 41.472 
" style="fill: none; stroke: #000000; stroke-width: 0.8; stroke-linejoin: miter; stroke-linecap: square"/>
   </g>
   <g id="patch_5">
    <path d="M 57.6 307.584 
L 414.72 307.584 
" style="fill: none; stroke: #000000; stroke-width: 0.8; stroke-linejoin: miter; stroke-linecap: square"/>
   </g>
   <g id="patch_6">
    <path d="M 57.6 41.472 
L 414.72 41.472 
" style="fill: none; stroke: #000000; stroke-width: 0.8; stroke-linejoin: miter; stroke-linecap: square"/>
   </g>
   <g id="text_12">
    <!-- Precision Recall -->
    <g transform="translate(189.584063 35.472) scale(0.12 -0.12)">
     <defs>
      <path id="DejaVuSans-50" d="M 1259 4147 
L 1259 2394 
L 2053 2394 
Q 2494 2394 2734 2622 
Q 2975 2850 2975 3272 
Q 2975 3691 2734 3919 
Q 2494 4147 2053 4147 
L 1259 4147 
z
M 628 4666 
L 2053 4666 
Q 2838 4666 3239 4311 
Q 3641 3956 3641 3272 
Q 3641 2581 3239 2228 
Q 2838 1875 2053 1875 
L 1259 1875 
L 1259 0 
L 628 0 
L 628 4666 
z
" transform="scale(0.015625)"/>
      <path id="DejaVuSans-72" d="M 2631 2963 
Q 2534 3019 2420 3045 
Q 2306 3072 2169 3072 
Q 1681 3072 1420 2755 
Q 1159 2438 1159 1844 
L 1159 0 
L 581 0 
L 581 3500 
L 1159 3500 
L 1159 2956 
Q 1341 3275 1631 3429 
Q 1922 3584 2338 3584 
Q 2397 3584 2469 3576 
Q 2541 3569 2628 3553 
L 2631 2963 
z
" transform="scale(0.015625)"/>
      <path id="DejaVuSans-65" d="M 3597 1894 
L 3597 1613 
L 953 1613 
Q 991 1019 1311 708 
Q 1631 397 2203 397 
Q 2534 397 2845 478 
Q 3156 559 3463 722 
L 3463 178 
Q 3153 47 2828 -22 
Q 2503 -91 2169 -91 
Q 1331 -91 842 396 
Q 353 884 353 1716 
Q 353 2575 817 3079 
Q 1281 3584 2069 3584 
Q 2775 3584 3186 3129 
Q 3597 2675 3597 1894 
z
M 3022 2063 
Q 3016 2534 2758 2815 
Q 2500 3097 2075 3097 
Q 1594 3097 1305 2825 
Q 1016 2553 972 2059 
L 3022 2063 
z
" transform="scale(0.015625)"/>
      <path id="DejaVuSans-63" d="M 3122 3366 
L 3122 2828 
Q 2878 2963 2633 3030 
Q 2388 3097 2138 3097 
Q 1578 3097 1268 2742 
Q 959 2388 959 1747 
Q 959 1106 1268 751 
Q 1578 397 2138 397 
Q 2388 397 2633 464 
Q 2878 531 3122 666 
L 3122 134 
Q 2881 22 2623 -34 
Q 2366 -91 2075 -91 
Q 1284 -91 818 406 
Q 353 903 353 1747 
Q 353 2603 823 3093 
Q 1294 3584 2113 3584 
Q 2378 3584 2631 3529 
Q 2884 3475 3122 3366 
z
" transform="scale(0.015625)"/>
      <path id="DejaVuSans-69" d="M 603 3500 
L 1178 3500 
L 1178 0 
L 603 0 
L 603 3500 
z
M 603 4863 
L 1178 4863 
L 1178 4134 
L 603 4134 
L 603 4863 
z
" transform="scale(0.015625)"/>
      <path id="DejaVuSans-73" d="M 2834 3397 
L 2834 2853 
Q 2591 2978 2328 3040 
Q 2066 3103 1784 3103 
Q 1356 3103 1142 2972 
Q 928 2841 928 2578 
Q 928 2378 1081 2264 
Q 1234 2150 1697 2047 
L 1894 2003 
Q 2506 1872 2764 1633 
Q 3022 1394 3022 966 
Q 3022 478 2636 193 
Q 2250 -91 1575 -91 
Q 1294 -91 989 -36 
Q 684 19 347 128 
L 347 722 
Q 666 556 975 473 
Q 1284 391 1588 391 
Q 1994 391 2212 530 
Q 2431 669 2431 922 
Q 2431 1156 2273 1281 
Q 2116 1406 1581 1522 
L 1381 1569 
Q 847 1681 609 1914 
Q 372 2147 372 2553 
Q 372 3047 722 3315 
Q 1072 3584 1716 3584 
Q 2034 3584 2315 3537 
Q 2597 3491 2834 3397 
z
" transform="scale(0.015625)"/>
      <path id="DejaVuSans-6f" d="M 1959 3097 
Q 1497 3097 1228 2736 
Q 959 2375 959 1747 
Q 959 1119 1226 758 
Q 1494 397 1959 397 
Q 2419 397 2687 759 
Q 2956 1122 2956 1747 
Q 2956 2369 2687 2733 
Q 2419 3097 1959 3097 
z
M 1959 3584 
Q 2709 3584 3137 3096 
Q 3566 2609 3566 1747 
Q 3566 888 3137 398 
Q 2709 -91 1959 -91 
Q 1206 -91 779 398 
Q 353 888 353 1747 
Q 353 2609 779 3096 
Q 1206 3584 1959 3584 
z
" transform="scale(0.015625)"/>
      <path id="DejaVuSans-6e" d="M 3513 2113 
L 3513 0 
L 2938 0 
L 2938 2094 
Q 2938 2591 2744 2837 
Q 2550 3084 2163 3084 
Q 1697 3084 1428 2787 
Q 1159 2491 1159 1978 
L 1159 0 
L 581 0 
L 581 3500 
L 1159 3500 
L 1159 2956 
Q 1366 3272 1645 3428 
Q 1925 3584 2291 3584 
Q 2894 3584 3203 3211 
Q 3513 2838 3513 2113 
z
" transform="scale(0.015625)"/>
      <path id="DejaVuSans-20" transform="scale(0.015625)"/>
      <path id="DejaVuSans-52" d="M 2841 2188 
Q 3044 2119 3236 1894 
Q 3428 1669 3622 1275 
L 4263 0 
L 3584 0 
L 2988 1197 
Q 2756 1666 2539 1819 
Q 2322 1972 1947 1972 
L 1259 1972 
L 1259 0 
L 628 0 
L 628 4666 
L 2053 4666 
Q 2853 4666 3247 4331 
Q 3641 3997 3641 3322 
Q 3641 2881 3436 2590 
Q 3231 2300 2841 2188 
z
M 1259 4147 
L 1259 2491 
L 2053 2491 
Q 2509 2491 2742 2702 
Q 2975 2913 2975 3322 
Q 2975 3731 2742 3939 
Q 2509 4147 2053 4147 
L 1259 4147 
z
" transform="scale(0.015625)"/>
      <path id="DejaVuSans-61" d="M 2194 1759 
Q 1497 1759 1228 1600 
Q 959 1441 959 1056 
Q 959 750 1161 570 
Q 1363 391 1709 391 
Q 2188 391 2477 730 
Q 2766 1069 2766 1631 
L 2766 1759 
L 2194 1759 
z
M 3341 1997 
L 3341 0 
L 2766 0 
L 2766 531 
Q 2569 213 2275 61 
Q 1981 -91 1556 -91 
Q 1019 -91 701 211 
Q 384 513 384 1019 
Q 384 1609 779 1909 
Q 1175 2209 1959 2209 
L 2766 2209 
L 2766 2266 
Q 2766 2663 2505 2880 
Q 2244 3097 1772 3097 
Q 1472 3097 1187 3025 
Q 903 2953 641 2809 
L 641 3341 
Q 956 3463 1253 3523 
Q 1550 3584 1831 3584 
Q 2591 3584 2966 3190 
Q 3341 2797 3341 1997 
z
" transform="scale(0.015625)"/>
      <path id="DejaVuSans-6c" d="M 603 4863 
L 1178 4863 
L 1178 0 
L 603 0 
L 603 4863 
z
" transform="scale(0.015625)"/>
     </defs>
     <use xlink:href="#DejaVuSans-50"/>
     <use xlink:href="#DejaVuSans-72" transform="translate(58.552734 0)"/>
     <use xlink:href="#DejaVuSans-65" transform="translate(97.416016 0)"/>
     <use xlink:href="#DejaVuSans-63" transform="translate(158.939453 0)"/>
     <use xlink:href="#DejaVuSans-69" transform="translate(213.919922 0)"/>
     <use xlink:href="#DejaVuSans-73" transform="translate(241.703125 0)"/>
     <use xlink:href="#DejaVuSans-69" transform="translate(293.802734 0)"/>
     <use xlink:href="#DejaVuSans-6f" transform="translate(321.585938 0)"/>
     <use xlink:href="#DejaVuSans-6e" transform="translate(382.767578 0)"/>
     <use xlink:href="#DejaVuSans-20" transform="translate(446.146484 0)"/>
     <use xlink:href="#DejaVuSans-52" transform="translate(477.933594 0)"/>
     <use xlink:href="#DejaVuSans-65" transform="translate(542.916016 0)"/>
     <use xlink:href="#DejaVuSans-63" transform="translate(604.439453 0)"/>
     <use xlink:href="#DejaVuSans-61" transform="translate(659.419922 0)"/>
     <use xlink:href="#DejaVuSans-6c" transform="translate(720.699219 0)"/>
     <use xlink:href="#DejaVuSans-6c" transform="translate(748.482422 0)"/>
    </g>
   </g>
  </g>
 </g>
 <defs>
  <clipPath id="pda2ad3db61">
   <rect x="57.6" y="41.472" width="357.12" height="266.112"/>
  </clipPath>
 </defs>
</svg>
