<?xml version="1.0" encoding="utf-8" standalone="no"?>
<!DOCTYPE svg PUBLIC "-//W3C//DTD SVG 1.1//EN"
  "http://www.w3.org/Graphics/SVG/1.1/DTD/svg11.dtd">
<svg xmlns:xlink="http://www.w3.org/1999/xlink" width="460.8pt" height="345.6pt" viewBox="0 0 460.8 345.6" xmlns="http://www.w3.org/2000/svg" version="1.1">
 <metadata>
  <rdf:RDF xmlns:dc="http://purl.org/dc/elements/1.1/" xmlns:cc="http://creativecommons.org/ns#" xmlns:rdf="http://www.w3.org/1999/02/22-rdf-syntax-ns#">
   <cc:Work>
    <dc:type rdf:resource="http://purl.org/dc/dcmitype/StillImage"/>
    <dc:date>2026-03-16T13:30:40.088482</dc:date>
    <dc:format>image/svg+xml</dc:format>
    <dc:creator>
     <cc:Agent>
      <dc:title>Matplotlib v3.10.8, https://matplotlib.org/</dc:title>
     </cc:Agent>
    </dc:creator>
   </cc:Work>
  </rdf:RDF>
 </metadata>
 <defs>
  <style type="text/css">*{stroke-linejoin: round; stroke-linecap: butt}</style>
 </defs>
 <g id="figure_1">
  <g id="patch_1">
   <path d="M 0 345.6 
L 460.8 345.6 
L 460.8 0 
L 0 0 
z
" style="fill: #ffffff"/>
  </g>
  <g id="axes_1">
   <g id="patch_2">
    <path d="M 57.6 307.584 
L 414.72 307.584 
L 414.72 41.472 
L 57.6 41.472 
z
" style="fill: #ffffff"/>
   </g>
   <g id="matplotlib.axis_1">
    <g id="xtick_1">
     <g id="line2d_1">
      <defs>
       <path id="m05f17ab231" d="M 0 0 
L 0 3.5 
" style="stroke: #000000; stroke-width: 0.8"/>
      </defs>
      <g>
       <use xlink:href="#m05f17ab231" x="73.832727" y="307.584" style="stroke: #000000; stroke-width: 0.8"/>
      </g>
     </g>
     <g id="text_1">
      <!-- 0.0 -->
      <g transform="translate(65.881165 322.182437) scale(0.1 -0.1)">
       <defs>
        <path id="DejaVuSans-30" d="M 2034 4250 
Q 1547 4250 1301 3770 
Q 1056 3291 1056 2328 
Q 1056 1369 1301 889 
Q 1547 409 2034 409 
Q 2525 409 2770 889 
Q 3016 1369 3016 2328 
Q 3016 3291 2770 3770 
Q 2525 4250 2034 4250 
z
M 2034 4750 
Q 2819 4750 3233 4129 
Q 3647 3509 3647 2328 
Q 3647 1150 3233 529 
Q 2819 -91 2034 -91 
Q 1250 -91 836 529 
Q 422 1150 422 2328 
Q 422 3509 836 4129 
Q 1250 4750 2034 4750 
z
" transform="scale(0.015625)"/>
        <path id="DejaVuSans-2e" d="M 684 794 
L 1344 794 
L 1344 0 
L 684 0 
L 684 794 
z
" transform="scale(0.015625)"/>
       </defs>
       <use xlink:href="#DejaVuSans-30"/>
       <use xlink:href="#DejaVuSans-2e" transform="translate(63.623047 0)"/>
       <use xlink:href="#DejaVuSans-30" transform="translate(95.410156 0)"/>
      </g>
     </g>
    </g>
    <g id="xtick_2">
     <g id="line2d_2">
      <g>
       <use xlink:href="#m05f17ab231" x="138.763636" y="307.584" style="stroke: #000000; stroke-width: 0.8"/>
      </g>
     </g>
     <g id="text_2">
      <!-- 0.2 -->
      <g transform="translate(130.812074 322.182437) scale(0.1 -0.1)">
       <defs>
        <path id="DejaVuSans-32" d="M 1228 531 
L 3431 531 
L 3431 0 
L 469 0 
L 469 531 
Q 828 903 1448 1529 
Q 2069 2156 2228 2338 
Q 2531 2678 2651 2914 
Q 2772 3150 2772 3378 
Q 2772 3750 2511 3984 
Q 2250 4219 1831 4219 
Q 1534 4219 1204 4116 
Q 875 4013 500 3803 
L 500 4441 
Q 881 4594 1212 4672 
Q 1544 4750 1819 4750 
Q 2544 4750 2975 4387 
Q 3406 4025 3406 3419 
Q 3406 3131 3298 2873 
Q 3191 2616 2906 2266 
Q 2828 2175 2409 1742 
Q 1991 1309 1228 531 
z
" transform="scale(0.015625)"/>
       </defs>
       <use xlink:href="#DejaVuSans-30"/>
       <use xlink:href="#DejaVuSans-2e" transform="translate(63.623047 0)"/>
       <use xlink:href="#DejaVuSans-32" transform="translate(95.410156 0)"/>
      </g>
     </g>
    </g>
    <g id="xtick_3">
     <g id="line2d_3">
      <g>
       <use xlink:href="#m05f17ab231" x="203.694545" y="307.584" style="stroke: #000000; stroke-width: 0.8"/>
      </g>
     </g>
     <g id="text_3">
      <!-- 0.4 -->
      <g transform="translate(195.742983 322.182437) scale(0.1 -0.1)">
       <defs>
        <path id="DejaVuSans-34" d="M 2419 4116 
L 825 1625 
L 2419 1625 
L 2419 4116 
z
M 2253 4666 
L 3047 4666 
L 3047 1625 
L 3713 1625 
L 3713 1100 
L 3047 1100 
L 3047 0 
L 2419 0 
L 2419 1100 
L 313 1100 
L 313 1709 
L 2253 4666 
z
" transform="scale(0.015625)"/>
       </defs>
       <use xlink:href="#DejaVuSans-30"/>
       <use xlink:href="#DejaVuSans-2e" transform="translate(63.623047 0)"/>
       <use xlink:href="#DejaVuSans-34" transform="translate(95.410156 0)"/>
      </g>
     </g>
    </g>
    <g id="xtick_4">
     <g id="line2d_4">
      <g>
       <use xlink:href="#m05f17ab231" x="268.625455" y="307.584" style="stroke: #000000; stroke-width: 0.8"/>
      </g>
     </g>
     <g id="text_4">
      <!-- 0.6 -->
      <g transform="translate(260.673892 322.182437) scale(0.1 -0.1)">
       <defs>
        <path id="DejaVuSans-36" d="M 2113 2584 
Q 1688 2584 1439 2293 
Q 1191 2003 1191 1497 
Q 1191 994 1439 701 
Q 1688 409 2113 409 
Q 2538 409 2786 701 
Q 3034 994 3034 1497 
Q 3034 2003 2786 2293 
Q 2538 2584 2113 2584 
z
M 3366 4563 
L 3366 3988 
Q 3128 4100 2886 4159 
Q 2644 4219 2406 4219 
Q 1781 4219 1451 3797 
Q 1122 3375 1075 2522 
Q 1259 2794 1537 2939 
Q 1816 3084 2150 3084 
Q 2853 3084 3261 2657 
Q 3669 2231 3669 1497 
Q 3669 778 3244 343 
Q 2819 -91 2113 -91 
Q 1303 -91 875 529 
Q 447 1150 447 2328 
Q 447 3434 972 4092 
Q 1497 4750 2381 4750 
Q 2619 4750 2861 4703 
Q 3103 4656 3366 4563 
z
" transform="scale(0.015625)"/>
       </defs>
       <use xlink:href="#DejaVuSans-30"/>
       <use xlink:href="#DejaVuSans-2e" transform="translate(63.623047 0)"/>
       <use xlink:href="#DejaVuSans-36" transform="translate(95.410156 0)"/>
      </g>
     </g>
    </g>
    <g id="xtick_5">
     <g id="line2d_5">
      <g>
       <use xlink:href="#m05f17ab231" x="333.556364" y="307.584" style="stroke: #000000; stroke-width: 0.8"/>
      </g>
     </g>
     <g id="text_5">
      <!-- 0.8 -->
      <g transform="translate(325.604801 322.182437) scale(0.1 -0.1)">
       <defs>
        <path id="DejaVuSans-38" d="M 2034 2216 
Q 1584 2216 1326 1975 
Q 1069 1734 1069 1313 
Q 1069 891 1326 650 
Q 1584 409 2034 409 
Q 2484 409 2743 651 
Q 3003 894 3003 1313 
Q 3003 1734 2745 1975 
Q 2488 2216 2034 2216 
z
M 1403 2484 
Q 997 2584 770 2862 
Q 544 3141 544 3541 
Q 544 4100 942 4425 
Q 1341 4750 2034 4750 
Q 2731 4750 3128 4425 
Q 3525 4100 3525 3541 
Q 3525 3141 3298 2862 
Q 3072 2584 2669 2484 
Q 3125 2378 3379 2068 
Q 3634 1759 3634 1313 
Q 3634 634 3220 271 
Q 2806 -91 2034 -91 
Q 1263 -91 848 271 
Q 434 634 434 1313 
Q 434 1759 690 2068 
Q 947 2378 1403 2484 
z
M 1172 3481 
Q 1172 3119 1398 2916 
Q 1625 2713 2034 2713 
Q 2441 2713 2670 2916 
Q 2900 3119 2900 3481 
Q 2900 3844 2670 4047 
Q 2441 4250 2034 4250 
Q 1625 4250 1398 4047 
Q 1172 3844 1172 3481 
z
" transform="scale(0.015625)"/>
       </defs>
       <use xlink:href="#DejaVuSans-30"/>
       <use xlink:href="#DejaVuSans-2e" transform="translate(63.623047 0)"/>
       <use xlink:href="#DejaVuSans-38" transform="translate(95.410156 0)"/>
      </g>
     </g>
    </g>
    <g id="xtick_6">
     <g id="line2d_6">
      <g>
       <use xlink:href="#m05f17ab231" x="398.487273" y="307.584" style="stroke: #000000; stroke-width: 0.8"/>
      </g>
     </g>
     <g id="text_6">
      <!-- 1.0 -->
      <g transform="translate(390.53571 322.182437) scale(0.1 -0.1)">
       <defs>
        <path id="DejaVuSans-31" d="M 794 531 
L 1825 531 
L 1825 4091 
L 703 3866 
L 703 4441 
L 1819 4666 
L 2450 4666 
L 2450 531 
L 3481 531 
L 3481 0 
L 794 0 
L 794 531 
z
" transform="scale(0.015625)"/>
       </defs>
       <use xlink:href="#DejaVuSans-31"/>
       <use xlink:href="#DejaVuSans-2e" transform="translate(63.623047 0)"/>
       <use xlink:href="#DejaVuSans-30" transform="translate(95.410156 0)"/>
      </g>
     </g>
    </g>
   </g>
   <g id="matplotlib.axis_2">
    <g id="ytick_1">
     <g id="line2d_7">
      <defs>
       <path id="mbe9a2b8903" d="M 0 0 
L -3.5 0 
" style="stroke: #000000; stroke-width: 0.8"/>
      </defs>
      <g>
       <use xlink:href="#mbe9a2b8903" x="57.6" y="295.488" style="stroke: #000000; stroke-width: 0.8"/>
      </g>
     </g>
     <g id="text_7">
      <!-- 0.0 -->
      <g transform="translate(34.696875 299.287219) scale(0.1 -0.1)">
       <use xlink:href="#DejaVuSans-30"/>
       <use xlink:href="#DejaVuSans-2e" transform="translate(63.623047 0)"/>
       <use xlink:href="#DejaVuSans-30" transform="translate(95.410156 0)"/>
      </g>
     </g>
    </g>
    <g id="ytick_2">
     <g id="line2d_8">
      <g>
       <use xlink:href="#mbe9a2b8903" x="57.6" y="247.104" style="stroke: #000000; stroke-width: 0.8"/>
      </g>
     </g>
     <g id="text_8">
      <!-- 0.2 -->
      <g transform="translate(34.696875 250.903219) scale(0.1 -0.1)">
       <use xlink:href="#DejaVuSans-30"/>
       <use xlink:href="#DejaVuSans-2e" transform="translate(63.623047 0)"/>
       <use xlink:href="#DejaVuSans-32" transform="translate(95.410156 0)"/>
      </g>
     </g>
    </g>
    <g id="ytick_3">
     <g id="line2d_9">
      <g>
       <use xlink:href="#mbe9a2b8903" x="57.6" y="198.72" style="stroke: #000000; stroke-width: 0.8"/>
      </g>
     </g>
     <g id="text_9">
      <!-- 0.4 -->
      <g transform="translate(34.696875 202.519219) scale(0.1 -0.1)">
       <use xlink:href="#DejaVuSans-30"/>
       <use xlink:href="#DejaVuSans-2e" transform="translate(63.623047 0)"/>
       <use xlink:href="#DejaVuSans-34" transform="translate(95.410156 0)"/>
      </g>
     </g>
    </g>
    <g id="ytick_4">
     <g id="line2d_10">
      <g>
       <use xlink:href="#mbe9a2b8903" x="57.6" y="150.336" style="stroke: #000000; stroke-width: 0.8"/>
      </g>
     </g>
     <g id="text_10">
      <!-- 0.6 -->
      <g transform="translate(34.696875 154.135219) scale(0.1 -0.1)">
       <use xlink:href="#DejaVuSans-30"/>
       <use xlink:href="#DejaVuSans-2e" transform="translate(63.623047 0)"/>
       <use xlink:href="#DejaVuSans-36" transform="translate(95.410156 0)"/>
      </g>
     </g>
    </g>
    <g id="ytick_5">
     <g id="line2d_11">
      <g>
       <use xlink:href="#mbe9a2b8903" x="57.6" y="101.952" style="stroke: #000000; stroke-width: 0.8"/>
      </g>
     </g>
     <g id="text_11">
      <!-- 0.8 -->
      <g transform="translate(34.696875 105.751219) scale(0.1 -0.1)">
       <use xlink:href="#DejaVuSans-30"/>
       <use xlink:href="#DejaVuSans-2e" transform="translate(63.623047 0)"/>
       <use xlink:href="#DejaVuSans-38" transform="translate(95.410156 0)"/>
      </g>
     </g>
    </g>
    <g id="ytick_6">
     <g id="line2d_12">
      <g>
       <use xlink:href="#mbe9a2b8903" x="57.6" y="53.568" style="stroke: #000000; stroke-width: 0.8"/>
      </g>
     </g>
     <g id="text_12">
      <!-- 1.0 -->
      <g transform="translate(34.696875 57.367219) scale(0.1 -0.1)">
       <use xlink:href="#DejaVuSans-31"/>
       <use xlink:href="#DejaVuSans-2e" transform="translate(63.623047 0)"/>
       <use xlink:href="#DejaVuSans-30" transform="translate(95.410156 0)"/>
      </g>
     </g>
    </g>
   </g>
   <g id="line2d_13">
    <path d="M 73.832727 295.488 
L 73.939432 238.640198 
L 73.944282 238.640198 
L 73.944282 238.532881 
L 74.050987 224.757867 
L 74.060688 224.635218 
L 74.167393 209.718036 
L 74.172243 209.718036 
L 74.172243 209.608163 
L 74.278948 204.140063 
L 74.293498 204.050631 
L 74.293498 204.042966 
L 74.400203 196.157658 
L 74.405054 196.157658 
L 74.405054 196.047785 
L 74.511759 183.836546 
L 74.53601 183.757336 
L 74.53601 183.734339 
L 74.642715 178.48343 
L 74.652415 178.445102 
L 74.652415 178.373557 
L 74.75912 156.677463 
L 74.76397 156.677463 
L 74.76397 156.577811 
L 74.870675 133.798318 
L 74.885226 133.742104 
L 74.885226 133.688445 
L 74.991931 128.992011 
L 74.996781 128.992011 
L 74.996781 128.884694 
L 75.103486 122.200324 
L 75.127737 122.113448 
L 75.127737 122.100672 
L 75.234442 116.124089 
L 75.248992 116.049989 
L 75.355697 112.122667 
L 75.365398 111.964245 
L 75.472103 108.949124 
L 75.486653 108.877579 
L 75.486653 108.854582 
L 75.593358 106.728667 
L 75.607909 106.644346 
L 75.607909 106.626459 
L 75.714614 103.437586 
L 75.724314 103.345599 
L 75.724314 103.330268 
L 75.831019 101.204352 
L 75.85042 101.112366 
L 75.957125 98.945567 
L 75.961975 98.945567 
L 75.961975 98.840804 
L 76.06868 95.90745 
L 76.088081 95.825684 
L 76.088081 95.802687 
L 76.194786 94.093267 
L 76.209337 93.965507 
L 76.311191 93.242389 
L 76.364544 93.142737 
L 76.471249 92.836115 
L 76.5052 92.764569 
L 76.5052 92.751793 
L 76.611905 92.151325 
L 76.728311 91.926468 
L 76.835015 91.262119 
L 76.868967 91.236568 
L 76.868967 91.157357 
L 76.975672 90.901838 
L 77.033875 90.797075 
L 77.14058 90.464901 
L 77.15998 90.357583 
L 77.266685 89.864432 
L 77.290936 89.775001 
L 77.392791 89.202639 
L 77.446144 89.115762 
L 77.446144 89.095321 
L 77.552849 88.264885 
L 77.5771 88.155012 
L 77.683805 87.37057 
L 77.722606 87.260697 
L 77.829311 86.619345 
L 77.877813 86.509472 
L 77.984518 86.251398 
L 78.105774 86.141525 
L 78.212479 85.980548 
L 78.23673 85.883451 
L 78.338585 85.431183 
L 78.362836 85.349417 
L 78.469541 84.91248 
L 78.503492 84.815382 
L 78.600497 84.529202 
L 78.66355 84.419329 
L 78.770255 84.16892 
L 78.901211 84.059047 
L 79.007916 83.918512 
L 79.187374 83.703876 
L 79.294079 83.509682 
L 79.371682 83.407474 
L 79.478387 83.218391 
L 79.580242 83.108518 
L 79.686947 82.914323 
L 79.817903 82.722684 
L 79.919757 82.600035 
L 80.011912 82.505493 
L 80.011912 82.495273 
L 80.113766 82.428838 
L 80.20107 82.318965 
L 80.307775 82.219312 
L 80.365978 82.129881 
L 80.472683 81.861586 
L 80.487234 81.818148 
L 80.487234 81.7696 
L 80.593939 81.363325 
L 80.637591 81.253452 
L 80.744295 81.018375 
L 80.778247 80.944274 
L 80.884952 80.601879 
L 80.914053 80.497116 
L 81.020758 79.715229 
L 81.05956 79.607911 
L 81.161415 79.096874 
L 81.175965 79.063656 
L 81.26812 78.491295 
L 81.311772 78.376311 
L 81.418476 77.875494 
L 81.452428 77.775842 
L 81.559133 77.387454 
L 81.656137 77.285246 
L 81.656137 77.282691 
L 81.762842 77.167708 
L 81.845296 77.057835 
L 81.93745 77.00162 
L 82.126609 76.894303 
L 82.233314 76.595346 
L 82.301217 76.503359 
L 82.407922 76.219733 
L 82.437023 76.148188 
L 82.437023 76.10986 
L 82.543728 75.82879 
L 82.611631 75.724027 
L 82.718336 75.601378 
L 82.810491 75.491505 
L 82.917195 75.409739 
L 83.033601 75.320307 
L 83.033601 75.299866 
L 83.135456 75.225765 
L 83.23246 75.115892 
L 83.339165 74.896146 
L 83.474971 74.786273 
L 83.581676 74.696842 
L 83.698081 74.592079 
L 83.795086 74.487316 
L 83.804786 74.487316 
L 83.940593 74.377443 
L 84.047297 74.247129 
L 84.09095 74.150032 
L 84.197654 74.019717 
L 84.236456 73.932841 
L 84.343161 73.805081 
L 84.425615 73.700319 
L 84.53232 73.488238 
L 84.609923 73.388586 
L 84.716628 73.061522 
L 84.779681 72.954204 
L 84.886386 72.724237 
L 85.012492 72.616919 
L 85.119197 72.2132 
L 85.167699 72.116103 
L 85.167699 72.105882 
L 85.274404 71.863139 
L 85.347157 71.760932 
L 85.347157 71.755821 
L 85.439312 71.561627 
L 85.555717 71.467085 
L 85.662422 71.175794 
L 85.749726 71.065921 
L 85.856431 70.759299 
L 85.958285 70.649425 
L 86.05529 70.442455 
L 86.098942 70.340248 
L 86.205647 70.020849 
L 86.249299 69.918642 
L 86.356004 69.744889 
L 86.506361 69.652903 
L 86.506361 69.640127 
L 86.613066 69.527698 
L 86.870127 69.42038 
L 86.971982 69.369277 
L 87.238744 69.261959 
L 87.345449 69.218521 
L 87.490956 69.108648 
L 87.592811 68.978333 
L 87.655864 68.93745 
L 87.655864 68.924674 
L 87.762569 68.543951 
L 87.80137 68.444299 
L 87.908075 68.017583 
L 87.932326 67.90771 
L 88.039031 67.580646 
L 88.087533 67.491214 
L 88.194238 67.312351 
L 88.315494 67.205033 
L 88.422199 67.067053 
L 88.519203 66.95718 
L 88.625908 66.768096 
L 88.732613 66.665889 
L 88.829618 66.566237 
L 88.984825 66.456364 
L 89.081829 66.392484 
L 89.285539 66.287721 
L 89.387393 66.20851 
L 89.610504 66.103748 
L 89.673557 66.047534 
L 89.872416 65.950436 
L 89.979121 65.825232 
L 90.163429 65.715359 
L 90.270134 65.638704 
L 90.61935 65.531386 
L 90.726055 65.421513 
L 90.895813 65.314195 
L 90.997667 65.240094 
L 91.172275 65.137887 
L 91.27413 64.956469 
L 91.361434 64.846596 
L 91.453588 64.790382 
L 91.574844 64.680509 
L 91.676699 64.616629 
L 91.773703 64.524642 
L 91.875558 64.396883 
L 91.996813 64.289565 
L 92.103518 64.151585 
L 92.195673 64.041712 
L 92.302378 63.944615 
L 92.457585 63.839852 
L 92.554589 63.760641 
L 92.743748 63.650768 
L 92.840752 63.589444 
L 93.020211 63.484681 
L 93.117215 63.359477 
L 93.209369 63.249604 
L 93.311224 63.083517 
L 93.417929 62.978754 
L 93.524634 62.866326 
L 93.626488 62.759008 
L 93.733193 62.659356 
L 93.859299 62.562258 
L 93.966004 62.406392 
L 94.339471 62.301629 
L 94.436476 62.260746 
L 94.441326 62.260746 
L 94.635335 62.150873 
L 94.732339 62.10999 
L 95.047604 62.005228 
L 95.134908 61.936238 
L 95.328917 61.831475 
L 95.430772 61.757375 
L 95.595679 61.647501 
L 95.702384 61.581067 
L 96.007948 61.471194 
L 96.109803 61.435421 
L 96.289261 61.328103 
L 96.395966 61.274444 
L 96.589975 61.174792 
L 96.682129 61.113467 
L 97.074997 61.003594 
L 97.172002 60.957601 
L 97.380561 60.847728 
L 97.487266 60.794069 
L 97.613372 60.686751 
L 97.710376 60.66631 
L 97.933487 60.561547 
L 97.933487 60.556437 
L 98.030491 60.484891 
L 98.040192 60.484891 
L 98.263302 60.375018 
L 98.365157 60.33158 
L 98.583417 60.229373 
L 98.583417 60.224262 
L 98.685271 60.191045 
L 98.990835 60.086282 
L 98.990835 60.083727 
L 99.09754 60.042844 
L 99.475858 59.935526 
L 99.582563 59.884422 
L 99.878426 59.774549 
L 99.980281 59.713225 
L 100.208241 59.605907 
L 100.314946 59.51392 
L 100.504105 59.414268 
L 100.61081 59.345278 
L 100.795118 59.235405 
L 100.896973 59.148529 
L 101.212238 59.038655 
L 101.294691 59.010548 
L 101.585705 58.905786 
L 101.69241 58.852127 
L 101.891269 58.757585 
L 101.997974 58.693705 
L 102.172582 58.591498 
L 102.279287 58.473959 
L 102.531498 58.364086 
L 102.628503 58.284875 
L 102.822512 58.177557 
L 102.924367 58.123899 
L 103.132926 58.014025 
L 103.21538 57.996139 
L 103.482142 57.888821 
L 103.583997 57.835162 
L 103.836208 57.725289 
L 103.942913 57.692072 
L 104.122372 57.587309 
L 104.214526 57.525985 
L 104.490989 57.416112 
L 104.597694 57.362453 
L 104.903258 57.25258 
L 104.995412 57.206586 
L 105.237923 57.096713 
L 105.344628 57.037944 
L 105.543487 56.928071 
L 105.640492 56.899964 
L 105.839351 56.790091 
L 105.936355 56.77476 
L 106.377725 56.664887 
L 106.460179 56.639335 
L 106.886999 56.529462 
L 106.925801 56.511575 
L 107.590281 56.401702 
L 107.682436 56.391482 
L 108.288713 56.281609 
L 108.337216 56.273943 
L 108.371167 56.273943 
L 109.578873 56.16407 
L 109.680728 56.156404 
L 110.136649 56.046531 
L 110.219102 56.0312 
L 110.81568 55.921327 
L 110.907834 55.882999 
L 111.25705 55.773126 
L 111.358905 55.75013 
L 111.611116 55.640257 
L 111.703271 55.607039 
L 111.955482 55.499721 
L 112.037936 55.476725 
L 112.925527 55.366852 
L 113.027382 55.3413 
L 113.87132 55.231427 
L 113.973175 55.20332 
L 114.540651 55.096002 
L 114.613405 55.078116 
L 115.37974 54.968243 
L 115.486445 54.935025 
L 117.441085 54.825152 
L 117.538089 54.797045 
L 118.886451 54.689727 
L 118.978606 54.651399 
L 119.318121 54.549192 
L 119.424826 54.526195 
L 121.568625 54.416322 
L 121.646228 54.395881 
L 122.291308 54.286008 
L 122.373762 54.268121 
L 123.41656 54.158248 
L 123.499014 54.137807 
L 125.434253 54.027934 
L 125.521557 54.010047 
L 129.50844 53.900174 
L 129.581194 53.895064 
L 137.254247 53.785191 
L 137.278498 53.780081 
L 165.298238 53.670207 
L 165.298238 53.667652 
L 398.487273 53.568 
L 398.487273 53.568 
" clip-path="url(#p056fe6d922)" style="fill: none; stroke: #1f77b4; stroke-width: 1.5; stroke-linecap: square"/>
   </g>
   <g id="line2d_14">
    <path d="M 73.832727 295.488 
L 398.487273 53.568 
" clip-path="url(#p056fe6d922)" style="fill: none; stroke-dasharray: 5.55,2.4; stroke-dashoffset: 0; stroke: #ff7f0e; stroke-width: 1.5"/>
   </g>
   <g id="patch_3">
    <path d="M 57.6 307.584 
L 57.6 41.472 
" style="fill: none; stroke: #000000; stroke-width: 0.8; stroke-linejoin: miter; stroke-linecap: square"/>
   </g>
   <g id="patch_4">
    <path d="M 414.72 307.584 
L 414.72 41.472 
" style="fill: none; stroke: #000000; stroke-width: 0.8; stroke-linejoin: miter; stroke-linecap: square"/>
   </g>
   <g id="patch_5">
    <path d="M 57.6 307.584 
L 414.72 307.584 
" style="fill: none; stroke: #000000; stroke-width: 0.8; stroke-linejoin: miter; stroke-linecap: square"/>
   </g>
   <g id="patch_6">
    <path d="M 57.6 41.472 
L 414.72 41.472 
" style="fill: none; stroke: #000000; stroke-width: 0.8; stroke-linejoin: miter; stroke-linecap: square"/>
   </g>
   <g id="text_13">
    <!-- ROC Curve -->
    <g transform="translate(203.469375 35.472) scale(0.12 -0.12)">
     <defs>
      <path id="DejaVuSans-52" d="M 2841 2188 
Q 3044 2119 3236 1894 
Q 3428 1669 3622 1275 
L 4263 0 
L 3584 0 
L 2988 1197 
Q 2756 1666 2539 1819 
Q 2322 1972 1947 1972 
L 1259 1972 
L 1259 0 
L 628 0 
L 628 4666 
L 2053 4666 
Q 2853 4666 3247 4331 
Q 3641 3997 3641 3322 
Q 3641 2881 3436 2590 
Q 3231 2300 2841 2188 
z
M 1259 4147 
L 1259 2491 
L 2053 2491 
Q 2509 2491 2742 2702 
Q 2975 2913 2975 3322 
Q 2975 3731 2742 3939 
Q 2509 4147 2053 4147 
L 1259 4147 
z
" transform="scale(0.015625)"/>
      <path id="DejaVuSans-4f" d="M 2522 4238 
Q 1834 4238 1429 3725 
Q 1025 3213 1025 2328 
Q 1025 1447 1429 934 
Q 1834 422 2522 422 
Q 3209 422 3611 934 
Q 4013 1447 4013 2328 
Q 4013 3213 3611 3725 
Q 3209 4238 2522 4238 
z
M 2522 4750 
Q 3503 4750 4090 4092 
Q 4678 3434 4678 2328 
Q 4678 1225 4090 567 
Q 3503 -91 2522 -91 
Q 1538 -91 948 565 
Q 359 1222 359 2328 
Q 359 3434 948 4092 
Q 1538 4750 2522 4750 
z
" transform="scale(0.015625)"/>
      <path id="DejaVuSans-43" d="M 4122 4306 
L 4122 3641 
Q 3803 3938 3442 4084 
Q 3081 4231 2675 4231 
Q 1875 4231 1450 3742 
Q 1025 3253 1025 2328 
Q 1025 1406 1450 917 
Q 1875 428 2675 428 
Q 3081 428 3442 575 
Q 3803 722 4122 1019 
L 4122 359 
Q 3791 134 3420 21 
Q 3050 -91 2638 -91 
Q 1578 -91 968 557 
Q 359 1206 359 2328 
Q 359 3453 968 4101 
Q 1578 4750 2638 4750 
Q 3056 4750 3426 4639 
Q 3797 4528 4122 4306 
z
" transform="scale(0.015625)"/>
      <path id="DejaVuSans-20" transform="scale(0.015625)"/>
      <path id="DejaVuSans-75" d="M 544 1381 
L 544 3500 
L 1119 3500 
L 1119 1403 
Q 1119 906 1312 657 
Q 1506 409 1894 409 
Q 2359 409 2629 706 
Q 2900 1003 2900 1516 
L 2900 3500 
L 3475 3500 
L 3475 0 
L 2900 0 
L 2900 538 
Q 2691 219 2414 64 
Q 2138 -91 1772 -91 
Q 1169 -91 856 284 
Q 544 659 544 1381 
z
M 1991 3584 
L 1991 3584 
z
" transform="scale(0.015625)"/>
      <path id="DejaVuSans-72" d="M 2631 2963 
Q 2534 3019 2420 3045 
Q 2306 3072 2169 3072 
Q 1681 3072 1420 2755 
Q 1159 2438 1159 1844 
L 1159 0 
L 581 0 
L 581 3500 
L 1159 3500 
L 1159 2956 
Q 1341 3275 1631 3429 
Q 1922 3584 2338 3584 
Q 2397 3584 2469 3576 
Q 2541 3569 2628 3553 
L 2631 2963 
z
" transform="scale(0.015625)"/>
      <path id="DejaVuSans-76" d="M 191 3500 
L 800 3500 
L 1894 563 
L 2988 3500 
L 3597 3500 
L 2284 0 
L 1503 0 
L 191 3500 
z
" transform="scale(0.015625)"/>
      <path id="DejaVuSans-65" d="M 3597 1894 
L 3597 1613 
L 953 1613 
Q 991 1019 1311 708 
Q 1631 397 2203 397 
Q 2534 397 2845 478 
Q 3156 559 3463 722 
L 3463 178 
Q 3153 47 2828 -22 
Q 2503 -91 2169 -91 
Q 1331 -91 842 396 
Q 353 884 353 1716 
Q 353 2575 817 3079 
Q 1281 3584 2069 3584 
Q 2775 3584 3186 3129 
Q 3597 2675 3597 1894 
z
M 3022 2063 
Q 3016 2534 2758 2815 
Q 2500 3097 2075 3097 
Q 1594 3097 1305 2825 
Q 1016 2553 972 2059 
L 3022 2063 
z
" transform="scale(0.015625)"/>
     </defs>
     <use xlink:href="#DejaVuSans-52"/>
     <use xlink:href="#DejaVuSans-4f" transform="translate(69.482422 0)"/>
     <use xlink:href="#DejaVuSans-43" transform="translate(148.193359 0)"/>
     <use xlink:href="#DejaVuSans-20" transform="translate(218.017578 0)"/>
     <use xlink:href="#DejaVuSans-43" transform="translate(249.804688 0)"/>
     <use xlink:href="#DejaVuSans-75" transform="translate(319.628906 0)"/>
     <use xlink:href="#DejaVuSans-72" transform="translate(383.007812 0)"/>
     <use xlink:href="#DejaVuSans-76" transform="translate(424.121094 0)"/>
     <use xlink:href="#DejaVuSans-65" transform="translate(483.300781 0)"/>
    </g>
   </g>
   <g id="legend_1">
    <g id="patch_7">
     <path d="M 317.57 302.584 
L 407.72 302.584 
Q 409.72 302.584 409.72 300.584 
L 409.72 286.905875 
Q 409.72 284.905875 407.72 284.905875 
L 317.57 284.905875 
Q 315.57 284.905875 315.57 286.905875 
L 315.57 300.584 
Q 315.57 302.584 317.57 302.584 
z
" style="fill: #ffffff; opacity: 0.8; stroke: #cccccc; stroke-linejoin: miter"/>
    </g>
    <g id="line2d_15">
     <path d="M 319.57 293.004312 
L 329.57 293.004312 
L 339.57 293.004312 
" style="fill: none; stroke: #1f77b4; stroke-width: 1.5; stroke-linecap: square"/>
    </g>
    <g id="text_14">
     <!-- AUC=0.991 -->
     <g transform="translate(347.57 296.504312) scale(0.1 -0.1)">
      <defs>
       <path id="DejaVuSans-41" d="M 2188 4044 
L 1331 1722 
L 3047 1722 
L 2188 4044 
z
M 1831 4666 
L 2547 4666 
L 4325 0 
L 3669 0 
L 3244 1197 
L 1141 1197 
L 716 0 
L 50 0 
L 1831 4666 
z
" transform="scale(0.015625)"/>
       <path id="DejaVuSans-55" d="M 556 4666 
L 1191 4666 
L 1191 1831 
Q 1191 1081 1462 751 
Q 1734 422 2344 422 
Q 2950 422 3222 751 
Q 3494 1081 3494 1831 
L 3494 4666 
L 4128 4666 
L 4128 1753 
Q 4128 841 3676 375 
Q 3225 -91 2344 -91 
Q 1459 -91 1007 375 
Q 556 841 556 1753 
L 556 4666 
z
" transform="scale(0.015625)"/>
       <path id="DejaVuSans-3d" d="M 678 2906 
L 4684 2906 
L 4684 2381 
L 678 2381 
L 678 2906 
z
M 678 1631 
L 4684 1631 
L 4684 1100 
L 678 1100 
L 678 1631 
z
" transform="scale(0.015625)"/>
       <path id="DejaVuSans-39" d="M 703 97 
L 703 672 
Q 941 559 1184 500 
Q 1428 441 1663 441 
Q 2288 441 2617 861 
Q 2947 1281 2994 2138 
Q 2813 1869 2534 1725 
Q 2256 1581 1919 1581 
Q 1219 1581 811 2004 
Q 403 2428 403 3163 
Q 403 3881 828 4315 
Q 1253 4750 1959 4750 
Q 2769 4750 3195 4129 
Q 3622 3509 3622 2328 
Q 3622 1225 3098 567 
Q 2575 -91 1691 -91 
Q 1453 -91 1209 -44 
Q 966 3 703 97 
z
M 1959 2075 
Q 2384 2075 2632 2365 
Q 2881 2656 2881 3163 
Q 2881 3666 2632 3958 
Q 2384 4250 1959 4250 
Q 1534 4250 1286 3958 
Q 1038 3666 1038 3163 
Q 1038 2656 1286 2365 
Q 1534 2075 1959 2075 
z
" transform="scale(0.015625)"/>
      </defs>
      <use xlink:href="#DejaVuSans-41"/>
      <use xlink:href="#DejaVuSans-55" transform="translate(68.408203 0)"/>
      <use xlink:href="#DejaVuSans-43" transform="translate(141.601562 0)"/>
      <use xlink:href="#DejaVuSans-3d" transform="translate(211.425781 0)"/>
      <use xlink:href="#DejaVuSans-30" transform="translate(295.214844 0)"/>
      <use xlink:href="#DejaVuSans-2e" transform="translate(358.837891 0)"/>
      <use xlink:href="#DejaVuSans-39" transform="translate(390.625 0)"/>
      <use xlink:href="#DejaVuSans-39" transform="translate(454.248047 0)"/>
      <use xlink:href="#DejaVuSans-31" transform="translate(517.871094 0)"/>
     </g>
    </g>
   </g>
  </g>
 </g>
 <defs>
  <clipPath id="p056fe6d922">
   <rect x="57.6" y="41.472" width="357.12" height="266.112"/>
  </clipPath>
 </defs>
</svg>
