<?xml version="1.0" encoding="utf-8" standalone="no"?>
<!DOCTYPE svg PUBLIC "-//W3C//DTD SVG 1.1//EN"
  "http://www.w3.org/Graphics/SVG/1.1/DTD/svg11.dtd">
<svg xmlns:xlink="http://www.w3.org/1999/xlink" width="460.8pt" height="345.6pt" viewBox="0 0 460.8 345.6" xmlns="http://www.w3.org/2000/svg" version="1.1">
 <metadata>
  <rdf:RDF xmlns:dc="http://purl.org/dc/elements/1.1/" xmlns:cc="http://creativecommons.org/ns#" xmlns:rdf="http://www.w3.org/1999/02/22-rdf-syntax-ns#">
   <cc:Work>
    <dc:type rdf:resource="http://purl.org/dc/dcmitype/StillImage"/>
    <dc:date>2026-03-16T13:32:09.592296</dc:date>
    <dc:format>image/svg+xml</dc:format>
    <dc:creator>
     <cc:Agent>
      <dc:title>Matplotlib v3.10.8, https://matplotlib.org/</dc:title>
     </cc:Agent>
    </dc:creator>
   </cc:Work>
  </rdf:RDF>
 </metadata>
 <defs>
  <style type="text/css">*{stroke-linejoin: round; stroke-linecap: butt}</style>
 </defs>
 <g id="figure_1">
  <g id="patch_1">
   <path d="M 0 345.6 
L 460.8 345.6 
L 460.8 0 
L 0 0 
z
" style="fill: #ffffff"/>
  </g>
  <g id="axes_1">
   <g id="patch_2">
    <path d="M 57.6 307.584 
L 414.72 307.584 
L 414.72 41.472 
L 57.6 41.472 
z
" style="fill: #ffffff"/>
   </g>
   <g id="matplotlib.axis_1">
    <g id="xtick_1">
     <g id="line2d_1">
      <defs>
       <path id="m17156e14d1" d="M 0 0 
L 0 3.5 
" style="stroke: #000000; stroke-width: 0.8"/>
      </defs>
      <g>
       <use xlink:href="#m17156e14d1" x="73.832727" y="307.584" style="stroke: #000000; stroke-width: 0.8"/>
      </g>
     </g>
     <g id="text_1">
      <!-- 0.0 -->
      <g transform="translate(65.881165 322.182437) scale(0.1 -0.1)">
       <defs>
        <path id="DejaVuSans-30" d="M 2034 4250 
Q 1547 4250 1301 3770 
Q 1056 3291 1056 2328 
Q 1056 1369 1301 889 
Q 1547 409 2034 409 
Q 2525 409 2770 889 
Q 3016 1369 3016 2328 
Q 3016 3291 2770 3770 
Q 2525 4250 2034 4250 
z
M 2034 4750 
Q 2819 4750 3233 4129 
Q 3647 3509 3647 2328 
Q 3647 1150 3233 529 
Q 2819 -91 2034 -91 
Q 1250 -91 836 529 
Q 422 1150 422 2328 
Q 422 3509 836 4129 
Q 1250 4750 2034 4750 
z
" transform="scale(0.015625)"/>
        <path id="DejaVuSans-2e" d="M 684 794 
L 1344 794 
L 1344 0 
L 684 0 
L 684 794 
z
" transform="scale(0.015625)"/>
       </defs>
       <use xlink:href="#DejaVuSans-30"/>
       <use xlink:href="#DejaVuSans-2e" transform="translate(63.623047 0)"/>
       <use xlink:href="#DejaVuSans-30" transform="translate(95.410156 0)"/>
      </g>
     </g>
    </g>
    <g id="xtick_2">
     <g id="line2d_2">
      <g>
       <use xlink:href="#m17156e14d1" x="138.763636" y="307.584" style="stroke: #000000; stroke-width: 0.8"/>
      </g>
     </g>
     <g id="text_2">
      <!-- 0.2 -->
      <g transform="translate(130.812074 322.182437) scale(0.1 -0.1)">
       <defs>
        <path id="DejaVuSans-32" d="M 1228 531 
L 3431 531 
L 3431 0 
L 469 0 
L 469 531 
Q 828 903 1448 1529 
Q 2069 2156 2228 2338 
Q 2531 2678 2651 2914 
Q 2772 3150 2772 3378 
Q 2772 3750 2511 3984 
Q 2250 4219 1831 4219 
Q 1534 4219 1204 4116 
Q 875 4013 500 3803 
L 500 4441 
Q 881 4594 1212 4672 
Q 1544 4750 1819 4750 
Q 2544 4750 2975 4387 
Q 3406 4025 3406 3419 
Q 3406 3131 3298 2873 
Q 3191 2616 2906 2266 
Q 2828 2175 2409 1742 
Q 1991 1309 1228 531 
z
" transform="scale(0.015625)"/>
       </defs>
       <use xlink:href="#DejaVuSans-30"/>
       <use xlink:href="#DejaVuSans-2e" transform="translate(63.623047 0)"/>
       <use xlink:href="#DejaVuSans-32" transform="translate(95.410156 0)"/>
      </g>
     </g>
    </g>
    <g id="xtick_3">
     <g id="line2d_3">
      <g>
       <use xlink:href="#m17156e14d1" x="203.694545" y="307.584" style="stroke: #000000; stroke-width: 0.8"/>
      </g>
     </g>
     <g id="text_3">
      <!-- 0.4 -->
      <g transform="translate(195.742983 322.182437) scale(0.1 -0.1)">
       <defs>
        <path id="DejaVuSans-34" d="M 2419 4116 
L 825 1625 
L 2419 1625 
L 2419 4116 
z
M 2253 4666 
L 3047 4666 
L 3047 1625 
L 3713 1625 
L 3713 1100 
L 3047 1100 
L 3047 0 
L 2419 0 
L 2419 1100 
L 313 1100 
L 313 1709 
L 2253 4666 
z
" transform="scale(0.015625)"/>
       </defs>
       <use xlink:href="#DejaVuSans-30"/>
       <use xlink:href="#DejaVuSans-2e" transform="translate(63.623047 0)"/>
       <use xlink:href="#DejaVuSans-34" transform="translate(95.410156 0)"/>
      </g>
     </g>
    </g>
    <g id="xtick_4">
     <g id="line2d_4">
      <g>
       <use xlink:href="#m17156e14d1" x="268.625455" y="307.584" style="stroke: #000000; stroke-width: 0.8"/>
      </g>
     </g>
     <g id="text_4">
      <!-- 0.6 -->
      <g transform="translate(260.673892 322.182437) scale(0.1 -0.1)">
       <defs>
        <path id="DejaVuSans-36" d="M 2113 2584 
Q 1688 2584 1439 2293 
Q 1191 2003 1191 1497 
Q 1191 994 1439 701 
Q 1688 409 2113 409 
Q 2538 409 2786 701 
Q 3034 994 3034 1497 
Q 3034 2003 2786 2293 
Q 2538 2584 2113 2584 
z
M 3366 4563 
L 3366 3988 
Q 3128 4100 2886 4159 
Q 2644 4219 2406 4219 
Q 1781 4219 1451 3797 
Q 1122 3375 1075 2522 
Q 1259 2794 1537 2939 
Q 1816 3084 2150 3084 
Q 2853 3084 3261 2657 
Q 3669 2231 3669 1497 
Q 3669 778 3244 343 
Q 2819 -91 2113 -91 
Q 1303 -91 875 529 
Q 447 1150 447 2328 
Q 447 3434 972 4092 
Q 1497 4750 2381 4750 
Q 2619 4750 2861 4703 
Q 3103 4656 3366 4563 
z
" transform="scale(0.015625)"/>
       </defs>
       <use xlink:href="#DejaVuSans-30"/>
       <use xlink:href="#DejaVuSans-2e" transform="translate(63.623047 0)"/>
       <use xlink:href="#DejaVuSans-36" transform="translate(95.410156 0)"/>
      </g>
     </g>
    </g>
    <g id="xtick_5">
     <g id="line2d_5">
      <g>
       <use xlink:href="#m17156e14d1" x="333.556364" y="307.584" style="stroke: #000000; stroke-width: 0.8"/>
      </g>
     </g>
     <g id="text_5">
      <!-- 0.8 -->
      <g transform="translate(325.604801 322.182437) scale(0.1 -0.1)">
       <defs>
        <path id="DejaVuSans-38" d="M 2034 2216 
Q 1584 2216 1326 1975 
Q 1069 1734 1069 1313 
Q 1069 891 1326 650 
Q 1584 409 2034 409 
Q 2484 409 2743 651 
Q 3003 894 3003 1313 
Q 3003 1734 2745 1975 
Q 2488 2216 2034 2216 
z
M 1403 2484 
Q 997 2584 770 2862 
Q 544 3141 544 3541 
Q 544 4100 942 4425 
Q 1341 4750 2034 4750 
Q 2731 4750 3128 4425 
Q 3525 4100 3525 3541 
Q 3525 3141 3298 2862 
Q 3072 2584 2669 2484 
Q 3125 2378 3379 2068 
Q 3634 1759 3634 1313 
Q 3634 634 3220 271 
Q 2806 -91 2034 -91 
Q 1263 -91 848 271 
Q 434 634 434 1313 
Q 434 1759 690 2068 
Q 947 2378 1403 2484 
z
M 1172 3481 
Q 1172 3119 1398 2916 
Q 1625 2713 2034 2713 
Q 2441 2713 2670 2916 
Q 2900 3119 2900 3481 
Q 2900 3844 2670 4047 
Q 2441 4250 2034 4250 
Q 1625 4250 1398 4047 
Q 1172 3844 1172 3481 
z
" transform="scale(0.015625)"/>
       </defs>
       <use xlink:href="#DejaVuSans-30"/>
       <use xlink:href="#DejaVuSans-2e" transform="translate(63.623047 0)"/>
       <use xlink:href="#DejaVuSans-38" transform="translate(95.410156 0)"/>
      </g>
     </g>
    </g>
    <g id="xtick_6">
     <g id="line2d_6">
      <g>
       <use xlink:href="#m17156e14d1" x="398.487273" y="307.584" style="stroke: #000000; stroke-width: 0.8"/>
      </g>
     </g>
     <g id="text_6">
      <!-- 1.0 -->
      <g transform="translate(390.53571 322.182437) scale(0.1 -0.1)">
       <defs>
        <path id="DejaVuSans-31" d="M 794 531 
L 1825 531 
L 1825 4091 
L 703 3866 
L 703 4441 
L 1819 4666 
L 2450 4666 
L 2450 531 
L 3481 531 
L 3481 0 
L 794 0 
L 794 531 
z
" transform="scale(0.015625)"/>
       </defs>
       <use xlink:href="#DejaVuSans-31"/>
       <use xlink:href="#DejaVuSans-2e" transform="translate(63.623047 0)"/>
       <use xlink:href="#DejaVuSans-30" transform="translate(95.410156 0)"/>
      </g>
     </g>
    </g>
   </g>
   <g id="matplotlib.axis_2">
    <g id="ytick_1">
     <g id="line2d_7">
      <defs>
       <path id="maad20f8f02" d="M 0 0 
L -3.5 0 
" style="stroke: #000000; stroke-width: 0.8"/>
      </defs>
      <g>
       <use xlink:href="#maad20f8f02" x="57.6" y="287.210039" style="stroke: #000000; stroke-width: 0.8"/>
      </g>
     </g>
     <g id="text_7">
      <!-- 0.6 -->
      <g transform="translate(34.696875 291.009258) scale(0.1 -0.1)">
       <use xlink:href="#DejaVuSans-30"/>
       <use xlink:href="#DejaVuSans-2e" transform="translate(63.623047 0)"/>
       <use xlink:href="#DejaVuSans-36" transform="translate(95.410156 0)"/>
      </g>
     </g>
    </g>
    <g id="ytick_2">
     <g id="line2d_8">
      <g>
       <use xlink:href="#maad20f8f02" x="57.6" y="228.79953" style="stroke: #000000; stroke-width: 0.8"/>
      </g>
     </g>
     <g id="text_8">
      <!-- 0.7 -->
      <g transform="translate(34.696875 232.598748) scale(0.1 -0.1)">
       <defs>
        <path id="DejaVuSans-37" d="M 525 4666 
L 3525 4666 
L 3525 4397 
L 1831 0 
L 1172 0 
L 2766 4134 
L 525 4134 
L 525 4666 
z
" transform="scale(0.015625)"/>
       </defs>
       <use xlink:href="#DejaVuSans-30"/>
       <use xlink:href="#DejaVuSans-2e" transform="translate(63.623047 0)"/>
       <use xlink:href="#DejaVuSans-37" transform="translate(95.410156 0)"/>
      </g>
     </g>
    </g>
    <g id="ytick_3">
     <g id="line2d_9">
      <g>
       <use xlink:href="#maad20f8f02" x="57.6" y="170.38902" style="stroke: #000000; stroke-width: 0.8"/>
      </g>
     </g>
     <g id="text_9">
      <!-- 0.8 -->
      <g transform="translate(34.696875 174.188238) scale(0.1 -0.1)">
       <use xlink:href="#DejaVuSans-30"/>
       <use xlink:href="#DejaVuSans-2e" transform="translate(63.623047 0)"/>
       <use xlink:href="#DejaVuSans-38" transform="translate(95.410156 0)"/>
      </g>
     </g>
    </g>
    <g id="ytick_4">
     <g id="line2d_10">
      <g>
       <use xlink:href="#maad20f8f02" x="57.6" y="111.97851" style="stroke: #000000; stroke-width: 0.8"/>
      </g>
     </g>
     <g id="text_10">
      <!-- 0.9 -->
      <g transform="translate(34.696875 115.777729) scale(0.1 -0.1)">
       <defs>
        <path id="DejaVuSans-39" d="M 703 97 
L 703 672 
Q 941 559 1184 500 
Q 1428 441 1663 441 
Q 2288 441 2617 861 
Q 2947 1281 2994 2138 
Q 2813 1869 2534 1725 
Q 2256 1581 1919 1581 
Q 1219 1581 811 2004 
Q 403 2428 403 3163 
Q 403 3881 828 4315 
Q 1253 4750 1959 4750 
Q 2769 4750 3195 4129 
Q 3622 3509 3622 2328 
Q 3622 1225 3098 567 
Q 2575 -91 1691 -91 
Q 1453 -91 1209 -44 
Q 966 3 703 97 
z
M 1959 2075 
Q 2384 2075 2632 2365 
Q 2881 2656 2881 3163 
Q 2881 3666 2632 3958 
Q 2384 4250 1959 4250 
Q 1534 4250 1286 3958 
Q 1038 3666 1038 3163 
Q 1038 2656 1286 2365 
Q 1534 2075 1959 2075 
z
" transform="scale(0.015625)"/>
       </defs>
       <use xlink:href="#DejaVuSans-30"/>
       <use xlink:href="#DejaVuSans-2e" transform="translate(63.623047 0)"/>
       <use xlink:href="#DejaVuSans-39" transform="translate(95.410156 0)"/>
      </g>
     </g>
    </g>
    <g id="ytick_5">
     <g id="line2d_11">
      <g>
       <use xlink:href="#maad20f8f02" x="57.6" y="53.568" style="stroke: #000000; stroke-width: 0.8"/>
      </g>
     </g>
     <g id="text_11">
      <!-- 1.0 -->
      <g transform="translate(34.696875 57.367219) scale(0.1 -0.1)">
       <use xlink:href="#DejaVuSans-31"/>
       <use xlink:href="#DejaVuSans-2e" transform="translate(63.623047 0)"/>
       <use xlink:href="#DejaVuSans-30" transform="translate(95.410156 0)"/>
      </g>
     </g>
    </g>
   </g>
   <g id="line2d_12">
    <path d="M 398.487273 295.488 
L 398.377543 117.247866 
L 398.363827 117.240465 
L 398.363827 117.137555 
L 398.254098 112.676582 
L 398.240382 112.6489 
L 398.250669 112.647216 
L 398.236953 112.569636 
L 398.134082 111.044695 
L 398.10322 110.984348 
L 398.10322 110.939145 
L 397.993491 105.807145 
L 397.990062 105.807649 
L 397.986633 105.71592 
L 397.979775 105.701549 
L 397.870046 104.515271 
L 397.859759 104.480694 
L 397.859759 104.408575 
L 397.750029 103.360547 
L 397.736313 103.310728 
L 397.7466 103.324808 
L 397.732884 103.254274 
L 397.623155 101.253063 
L 397.619726 101.253527 
L 397.619726 101.143945 
L 397.509997 99.167516 
L 397.503139 99.163147 
L 397.49971 99.058376 
L 397.38998 97.091578 
L 397.369406 97.009287 
L 397.386551 97.054887 
L 397.369406 96.982766 
L 397.266535 96.570729 
L 397.259677 96.571573 
L 397.21167 96.534962 
L 397.208241 96.466267 
L 397.10537 93.128696 
L 397.098512 93.129478 
L 397.057364 93.02644 
L 396.947634 92.310403 
L 396.944205 92.310787 
L 396.944205 92.229718 
L 396.940776 92.203072 
L 396.834476 90.848834 
L 396.831047 90.849204 
L 396.807044 90.81375 
L 396.807044 90.743075 
L 396.700743 90.449794 
L 396.697314 90.450161 
L 396.635592 90.34783 
L 396.529292 89.562391 
L 396.525862 89.56275 
L 396.519004 89.563468 
L 396.515575 89.454493 
L 396.405846 88.320449 
L 396.344123 88.222313 
L 396.241252 88.089758 
L 396.004649 88.003523 
L 395.901777 87.90371 
L 395.894919 87.904398 
L 395.757758 87.807917 
L 395.651458 87.642018 
L 395.648029 87.64236 
L 395.545157 87.580845 
L 395.541728 87.542531 
L 395.442286 87.370066 
L 395.431999 87.371085 
L 395.329128 87.270661 
L 395.222828 87.109576 
L 395.219399 87.109913 
L 395.133673 87.018642 
L 395.133673 87.007561 
L 395.030802 86.723774 
L 395.023943 86.724442 
L 394.924501 86.623113 
L 394.818201 86.49457 
L 394.814772 86.494902 
L 394.735904 86.396925 
L 394.735904 86.391365 
L 394.626175 86.290711 
L 394.530162 86.188633 
L 394.423862 86.065155 
L 394.420433 86.065484 
L 394.362139 85.976313 
L 394.362139 85.959589 
L 394.255839 85.819129 
L 394.25241 85.819455 
L 394.166684 85.72155 
L 394.060384 85.59198 
L 394.056954 85.592304 
L 393.933509 85.503345 
L 393.82378 85.351443 
L 393.707192 85.272806 
L 393.707192 85.261606 
L 393.604321 85.13116 
L 393.597463 85.1318 
L 393.480876 85.036139 
L 393.378005 84.905422 
L 393.371147 84.906058 
L 393.261417 84.809533 
L 393.155117 84.706971 
L 393.151688 84.707287 
L 392.963091 84.617822 
L 392.863649 84.508768 
L 392.853362 84.509713 
L 392.747062 84.412442 
L 392.640761 84.292517 
L 392.637332 84.292831 
L 392.520745 84.196282 
L 392.445306 84.084599 
L 392.411016 84.087712 
L 392.301287 83.990327 
L 392.191557 83.91546 
L 392.026963 83.834152 
L 392.026963 83.822833 
L 391.951525 83.7617 
L 391.917234 83.764787 
L 391.79036 83.674231 
L 391.79036 83.668564 
L 391.68406 83.513677 
L 391.680631 83.513983 
L 391.57433 83.432695 
L 391.57433 83.415668 
L 391.464601 83.317556 
L 391.413165 83.214176 
L 391.303436 83.110187 
L 391.245143 83.007247 
L 391.1457 82.833813 
L 391.135413 82.834714 
L 391.018826 82.742359 
L 391.018826 82.736659 
L 390.912526 82.540621 
L 390.909097 82.540919 
L 390.878235 82.446577 
L 390.878235 82.43516 
L 390.771935 82.152992 
L 390.768506 82.153286 
L 390.693067 82.051106 
L 390.586767 81.877052 
L 390.583338 81.877344 
L 390.514757 81.774355 
L 390.418744 81.656404 
L 390.405028 81.657562 
L 390.353592 81.558679 
L 390.353592 81.552943 
L 390.250721 81.228614 
L 390.243863 81.229185 
L 390.206144 81.123143 
L 390.096415 80.90218 
L 390.024405 80.798739 
L 389.918105 80.674972 
L 389.914675 80.675253 
L 389.859811 80.587515 
L 389.859811 80.57022 
L 389.760369 80.341777 
L 389.750082 80.342609 
L 389.691788 80.237614 
L 389.592346 79.962413 
L 389.582059 79.963234 
L 389.513478 79.876147 
L 389.513478 79.858789 
L 389.403749 79.734356 
L 389.314594 79.63134 
L 389.204864 79.344217 
L 389.088277 79.243016 
L 388.978548 78.995854 
L 388.875677 78.89327 
L 388.772806 78.732353 
L 388.765947 78.732877 
L 388.68708 78.628213 
L 388.580779 78.455554 
L 388.57735 78.455813 
L 388.519057 78.372705 
L 388.519057 78.349361 
L 388.416185 78.117663 
L 388.409327 78.118176 
L 388.368179 78.045273 
L 388.368179 78.010199 
L 388.265308 77.707754 
L 388.25845 77.708259 
L 388.152149 77.610653 
L 388.152149 77.604794 
L 388.049278 77.360232 
L 388.04242 77.36073 
L 388.018417 77.262731 
L 388.018417 77.256863 
L 387.912117 77.094268 
L 387.908688 77.094515 
L 387.874397 77.020603 
L 387.874397 76.991221 
L 387.764668 76.710885 
L 387.702945 76.615183 
L 387.702945 76.609295 
L 387.596645 76.422366 
L 387.593216 76.422606 
L 387.558926 76.336577 
L 387.558926 76.318887 
L 387.449196 76.167231 
L 387.408048 76.087433 
L 387.408048 76.063815 
L 387.305177 75.917299 
L 387.298319 75.917769 
L 387.198877 75.818159 
L 387.092576 75.624212 
L 387.089147 75.624444 
L 386.986276 75.524802 
L 386.876547 75.384018 
L 386.725669 75.287351 
L 386.61594 75.158126 
L 386.526785 75.080875 
L 386.526785 75.057105 
L 386.417056 74.874078 
L 386.36562 74.770343 
L 386.25932 74.586711 
L 386.255891 74.586933 
L 386.18731 74.496021 
L 386.18731 74.484099 
L 386.077581 74.36593 
L 385.960994 74.265978 
L 385.864981 74.176553 
L 385.851264 74.177427 
L 385.738106 74.10096 
L 385.738106 74.077047 
L 385.635235 73.981891 
L 385.628377 73.982325 
L 385.504931 73.888367 
L 385.504931 73.88238 
L 385.395202 73.757494 
L 385.319763 73.654316 
L 385.210034 73.553175 
L 385.144882 73.449176 
L 385.052298 73.382821 
L 385.035153 73.383875 
L 384.911708 73.283289 
L 384.801978 73.127605 
L 384.733398 73.029451 
L 384.733398 73.023431 
L 384.627097 72.698447 
L 384.623668 72.698651 
L 384.517368 72.608465 
L 384.517368 72.596398 
L 384.407639 72.403658 
L 384.339058 72.304966 
L 384.339058 72.298923 
L 384.249903 72.219487 
L 384.229329 72.220684 
L 384.102455 72.119154 
L 384.003012 71.943244 
L 383.992725 71.943834 
L 383.944719 71.837513 
L 383.834989 71.698228 
L 383.728689 71.595007 
L 383.622389 71.345848 
L 383.61896 71.346038 
L 383.509231 71.242686 
L 383.402931 71.029454 
L 383.399502 71.029642 
L 383.258911 70.933762 
L 383.258911 70.927668 
L 383.149182 70.775103 
L 383.087459 70.668605 
L 382.97773 70.595121 
L 382.902291 70.495299 
L 382.902291 70.489189 
L 382.806278 70.384253 
L 382.792562 70.384978 
L 382.669116 70.281376 
L 382.579961 70.181985 
L 382.559387 70.18306 
L 382.429084 70.091839 
L 382.429084 70.079582 
L 382.339929 70.016777 
L 382.319354 70.017843 
L 382.182193 69.914507 
L 382.072463 69.852625 
L 382.007312 69.782259 
L 382.007312 69.745396 
L 381.897583 69.65264 
L 381.804998 69.546617 
L 381.712414 69.452803 
L 381.695269 69.453664 
L 381.623259 69.34641 
L 381.51353 69.271759 
L 381.414088 69.18419 
L 381.414088 69.165685 
L 381.304359 69.060007 
L 381.187771 68.960726 
L 381.187771 68.954548 
L 381.102045 68.878384 
L 381.078042 68.879548 
L 380.954597 68.78658 
L 380.954597 68.780394 
L 380.848297 68.655539 
L 380.844868 68.655703 
L 380.735138 68.555652 
L 380.625409 68.430693 
L 380.498535 68.331215 
L 380.388805 68.274285 
L 380.261931 68.174611 
L 380.165918 68.129347 
L 380.152202 68.129983 
L 380.066476 68.046887 
L 380.066476 68.028226 
L 379.967034 67.970574 
L 379.956746 67.971046 
L 379.843588 67.870373 
L 379.751004 67.687621 
L 379.733859 67.688394 
L 379.589839 67.595064 
L 379.589839 67.588824 
L 379.48011 67.481357 
L 379.308658 67.382745 
L 379.209216 67.255812 
L 379.198929 67.256262 
L 379.041193 67.163019 
L 379.041193 67.156759 
L 378.931464 67.086368 
L 378.777157 66.986483 
L 378.667428 66.922202 
L 378.447969 66.82486 
L 378.341669 66.741418 
L 378.33824 66.741563 
L 378.163359 66.642051 
L 378.057059 66.558413 
L 378.05363 66.558556 
L 377.889036 66.458355 
L 377.806739 66.411352 
L 377.779307 66.412486 
L 377.546132 66.314879 
L 377.484409 66.266919 
L 377.436403 66.268883 
L 377.210086 66.170728 
L 377.120931 66.136418 
L 377.100357 66.137252 
L 376.764311 66.043265 
L 376.675156 66.008852 
L 376.654582 66.009679 
L 376.469414 65.909344 
L 376.397404 65.829748 
L 376.359685 65.831245 
L 375.968774 65.738749 
L 375.862474 65.685716 
L 375.859045 65.685851 
L 375.636157 65.586409 
L 375.533286 65.482142 
L 375.526428 65.482407 
L 375.375551 65.37987 
L 375.265821 65.282008 
L 375.111515 65.179339 
L 375.032647 65.099263 
L 375.001785 65.100422 
L 374.737749 65.001591 
L 374.648594 64.940905 
L 374.62802 64.941668 
L 374.487429 64.83798 
L 374.391416 64.771 
L 374.3777 64.771502 
L 374.168529 64.670073 
L 374.0588 64.577736 
L 373.883919 64.474771 
L 373.794764 64.400781 
L 373.774189 64.40151 
L 373.602737 64.298161 
L 373.496437 64.224601 
L 373.493008 64.224721 
L 373.37985 64.12554 
L 373.37985 64.119093 
L 373.276979 63.94847 
L 373.270121 63.948703 
L 373.115814 63.844179 
L 373.009514 63.763758 
L 373.006085 63.763873 
L 372.834633 63.659661 
L 372.728332 63.5661 
L 372.724903 63.566213 
L 372.587742 63.467081 
L 372.587742 63.460602 
L 372.4883 63.37309 
L 372.478013 63.373422 
L 372.303132 63.268769 
L 372.196831 63.187762 
L 372.193402 63.187871 
L 372.111105 63.080037 
L 372.004805 62.992354 
L 371.905363 62.884852 
L 371.799063 62.816513 
L 371.795634 62.816617 
L 371.651614 62.710261 
L 371.552172 62.667634 
L 371.541885 62.667943 
L 371.353288 62.562696 
L 371.264133 62.480472 
L 371.243559 62.481079 
L 371.085823 62.374638 
L 371.013813 62.317892 
L 370.982952 62.318787 
L 370.787496 62.219735 
L 370.729203 62.188668 
L 370.677767 62.19014 
L 370.499457 62.103483 
L 370.499457 62.090371 
L 370.389728 62.001649 
L 370.156553 61.903126 
L 370.050253 61.85351 
L 370.046824 61.853604 
L 369.878801 61.753023 
L 369.769072 61.644139 
L 369.625052 61.542633 
L 369.515323 61.459867 
L 369.285577 61.360349 
L 369.189564 61.2506 
L 369.175848 61.250952 
L 368.942674 61.151171 
L 368.839802 61.114093 
L 368.832944 61.114266 
L 368.712928 61.011392 
L 368.610057 60.941099 
L 368.603199 60.941269 
L 368.414602 60.81996 
L 368.236292 60.724751 
L 368.236292 60.718113 
L 368.160853 60.666803 
L 368.126562 60.66762 
L 367.793945 60.569156 
L 367.780229 60.542872 
L 367.691074 60.544962 
L 366.998408 60.454519 
L 366.998408 60.447847 
L 366.99155 60.448006 
L 366.106858 60.361495 
L 366.048565 60.309264 
L 365.997129 60.310437 
L 365.736522 60.209104 
L 365.640509 60.17101 
L 365.626793 60.171317 
L 365.427909 60.068321 
L 365.335325 60.009886 
L 365.318179 60.010261 
L 364.769533 59.914526 
L 364.769533 59.90779 
L 364.659804 59.910156 
L 364.227745 59.811501 
L 364.131732 59.779778 
L 364.118016 59.780068 
L 363.380772 59.687366 
L 363.288188 59.6622 
L 363.271043 59.662557 
L 362.410354 59.571785 
L 362.372635 59.552162 
L 362.300625 59.553641 
L 361.460511 59.468609 
L 361.460511 59.461785 
L 361.395359 59.44263 
L 361.350781 59.443532 
L 360.318641 59.354851 
L 360.318641 59.347998 
L 360.21234 59.350122 
L 359.21449 59.260043 
L 359.21449 59.253161 
L 359.104761 59.255326 
L 357.321661 59.179887 
L 357.259938 59.146437 
L 357.211931 59.147373 
L 356.412965 59.058686 
L 356.330668 59.03244 
L 356.303236 59.032966 
L 355.288241 58.947721 
L 355.271095 58.927086 
L 355.178511 58.928833 
L 354.029783 58.852352 
L 354.029783 58.845333 
L 354.022925 58.831421 
L 353.920054 58.833336 
L 353.199956 58.741159 
L 353.110801 58.721659 
L 353.090227 58.722036 
L 352.623877 58.624694 
L 352.545009 58.604924 
L 352.514148 58.605477 
L 351.217971 58.522351 
L 351.173394 58.49474 
L 351.108242 58.495888 
L 350.178973 58.405413 
L 350.141253 58.38468 
L 350.069243 58.385925 
L 349.431442 58.289745 
L 349.431442 58.282595 
L 349.321713 58.284457 
L 348.039252 58.198521 
L 347.943239 58.171363 
L 347.929523 58.171591 
L 346.900811 58.087709 
L 346.900811 58.080487 
L 346.828802 58.052772 
L 346.791082 58.053387 
L 346.081271 57.956309 
L 346.043552 57.942416 
L 345.971542 57.943565 
L 345.018269 57.849683 
L 345.011411 57.835234 
L 344.90854 57.836841 
L 344.037564 57.740915 
L 343.941551 57.705838 
L 343.927835 57.706046 
L 343.252314 57.606392 
L 343.146014 57.5713 
L 343.142585 57.571351 
L 342.484209 57.470773 
L 342.40877 57.457145 
L 342.37448 57.457638 
L 341.565227 57.365958 
L 341.565227 57.358574 
L 341.558369 57.343901 
L 341.455498 57.345343 
L 340.354776 57.256975 
L 340.303341 57.235416 
L 340.245047 57.236213 
L 339.384358 57.143741 
L 339.312348 57.122346 
L 339.278058 57.122803 
L 338.571676 57.027581 
L 338.461947 56.984127 
L 337.721274 56.888623 
L 337.697271 56.873913 
L 337.611545 56.874982 
L 336.812579 56.779533 
L 336.716566 56.765628 
L 335.838732 56.670412 
L 335.790725 56.625584 
L 335.73929 56.626182 
L 335.019192 56.528314 
L 334.950611 56.49112 
L 334.909462 56.491579 
L 334.299093 56.391797 
L 334.199651 56.339536 
L 334.189364 56.339645 
L 333.572137 56.239247 
L 333.520702 56.209203 
L 333.462408 56.209793 
L 332.437125 56.112751 
L 332.378832 56.082602 
L 332.327396 56.083101 
L 331.363836 55.984506 
L 331.274681 55.962191 
L 331.254107 55.962381 
L 330.503147 55.860986 
L 330.372844 55.838906 
L 329.06638 55.749247 
L 329.06638 55.741458 
L 328.96008 55.726775 
L 328.956651 55.726804 
L 327.513025 55.629307 
L 327.417012 55.590868 
L 327.403296 55.590977 
L 325.215569 55.497731 
L 325.092124 55.482838 
L 321.563643 55.405594 
L 321.563643 55.39756 
L 321.453914 55.398368 
L 318.642102 55.313618 
L 318.642102 55.305485 
L 318.532373 55.306262 
L 314.067764 55.23072 
L 314.060906 55.214186 
L 313.958035 55.214889 
L 307.295412 55.150848 
L 307.261122 55.134011 
L 307.185683 55.134516 
L 297.680387 55.094057 
L 297.680387 55.085156 
L 297.570658 55.085898 
L 288.497421 55.0385 
L 288.497421 55.029217 
L 288.39455 55.029916 
L 281.522756 54.972608 
L 281.522756 54.96301 
L 281.416455 54.963723 
L 273.282775 54.910563 
L 273.282775 54.900567 
L 273.176475 54.901276 
L 270.614983 54.81726 
L 270.494967 54.807879 
L 267.782597 54.722338 
L 267.782597 54.712051 
L 267.676297 54.712677 
L 241.708185 54.758666 
L 241.598456 54.747553 
L 220.743041 54.792453 
L 220.60588 54.766416 
L 209.046589 54.750638 
L 209.046589 54.735885 
L 208.93686 54.736832 
L 202.329102 54.688138 
L 202.219373 54.673552 
L 189.346761 54.675604 
L 189.233603 54.659397 
L 184.618116 54.596704 
L 184.484384 54.579907 
L 179.892901 54.510713 
L 172.585619 54.479272 
L 172.441599 54.460352 
L 147.803955 54.595117 
L 147.629074 54.54345 
L 140.39723 54.529292 
L 140.266927 54.441012 
L 111.414994 54.738125 
L 111.301835 54.688406 
L 111.157816 54.585791 
L 111.010367 54.482429 
L 110.862918 54.216345 
L 110.729186 54.110345 
L 110.60917 54.057747 
L 107.807645 54.039243 
L 107.701345 53.922612 
L 101.083299 53.935269 
L 100.966712 53.863114 
L 99.79741 53.799329 
L 99.677394 53.722956 
L 99.523087 53.645953 
L 82.124143 53.809466 
L 79.055154 53.951271 
L 78.928279 53.568 
L 73.832727 53.568 
L 73.832727 53.568 
" clip-path="url(#pc62ad615a3)" style="fill: none; stroke: #1f77b4; stroke-width: 1.5; stroke-linecap: square"/>
   </g>
   <g id="patch_3">
    <path d="M 57.6 307.584 
L 57.6 41.472 
" style="fill: none; stroke: #000000; stroke-width: 0.8; stroke-linejoin: miter; stroke-linecap: square"/>
   </g>
   <g id="patch_4">
    <path d="M 414.72 307.584 
L 414.72 41.472 
" style="fill: none; stroke: #000000; stroke-width: 0.8; stroke-linejoin: miter; stroke-linecap: square"/>
   </g>
   <g id="patch_5">
    <path d="M 57.6 307.584 
L 414.72 307.584 
" style="fill: none; stroke: #000000; stroke-width: 0.8; stroke-linejoin: miter; stroke-linecap: square"/>
   </g>
   <g id="patch_6">
    <path d="M 57.6 41.472 
L 414.72 41.472 
" style="fill: none; stroke: #000000; stroke-width: 0.8; stroke-linejoin: miter; stroke-linecap: square"/>
   </g>
   <g id="text_12">
    <!-- Precision Recall -->
    <g transform="translate(189.584063 35.472) scale(0.12 -0.12)">
     <defs>
      <path id="DejaVuSans-50" d="M 1259 4147 
L 1259 2394 
L 2053 2394 
Q 2494 2394 2734 2622 
Q 2975 2850 2975 3272 
Q 2975 3691 2734 3919 
Q 2494 4147 2053 4147 
L 1259 4147 
z
M 628 4666 
L 2053 4666 
Q 2838 4666 3239 4311 
Q 3641 3956 3641 3272 
Q 3641 2581 3239 2228 
Q 2838 1875 2053 1875 
L 1259 1875 
L 1259 0 
L 628 0 
L 628 4666 
z
" transform="scale(0.015625)"/>
      <path id="DejaVuSans-72" d="M 2631 2963 
Q 2534 3019 2420 3045 
Q 2306 3072 2169 3072 
Q 1681 3072 1420 2755 
Q 1159 2438 1159 1844 
L 1159 0 
L 581 0 
L 581 3500 
L 1159 3500 
L 1159 2956 
Q 1341 3275 1631 3429 
Q 1922 3584 2338 3584 
Q 2397 3584 2469 3576 
Q 2541 3569 2628 3553 
L 2631 2963 
z
" transform="scale(0.015625)"/>
      <path id="DejaVuSans-65" d="M 3597 1894 
L 3597 1613 
L 953 1613 
Q 991 1019 1311 708 
Q 1631 397 2203 397 
Q 2534 397 2845 478 
Q 3156 559 3463 722 
L 3463 178 
Q 3153 47 2828 -22 
Q 2503 -91 2169 -91 
Q 1331 -91 842 396 
Q 353 884 353 1716 
Q 353 2575 817 3079 
Q 1281 3584 2069 3584 
Q 2775 3584 3186 3129 
Q 3597 2675 3597 1894 
z
M 3022 2063 
Q 3016 2534 2758 2815 
Q 2500 3097 2075 3097 
Q 1594 3097 1305 2825 
Q 1016 2553 972 2059 
L 3022 2063 
z
" transform="scale(0.015625)"/>
      <path id="DejaVuSans-63" d="M 3122 3366 
L 3122 2828 
Q 2878 2963 2633 3030 
Q 2388 3097 2138 3097 
Q 1578 3097 1268 2742 
Q 959 2388 959 1747 
Q 959 1106 1268 751 
Q 1578 397 2138 397 
Q 2388 397 2633 464 
Q 2878 531 3122 666 
L 3122 134 
Q 2881 22 2623 -34 
Q 2366 -91 2075 -91 
Q 1284 -91 818 406 
Q 353 903 353 1747 
Q 353 2603 823 3093 
Q 1294 3584 2113 3584 
Q 2378 3584 2631 3529 
Q 2884 3475 3122 3366 
z
" transform="scale(0.015625)"/>
      <path id="DejaVuSans-69" d="M 603 3500 
L 1178 3500 
L 1178 0 
L 603 0 
L 603 3500 
z
M 603 4863 
L 1178 4863 
L 1178 4134 
L 603 4134 
L 603 4863 
z
" transform="scale(0.015625)"/>
      <path id="DejaVuSans-73" d="M 2834 3397 
L 2834 2853 
Q 2591 2978 2328 3040 
Q 2066 3103 1784 3103 
Q 1356 3103 1142 2972 
Q 928 2841 928 2578 
Q 928 2378 1081 2264 
Q 1234 2150 1697 2047 
L 1894 2003 
Q 2506 1872 2764 1633 
Q 3022 1394 3022 966 
Q 3022 478 2636 193 
Q 2250 -91 1575 -91 
Q 1294 -91 989 -36 
Q 684 19 347 128 
L 347 722 
Q 666 556 975 473 
Q 1284 391 1588 391 
Q 1994 391 2212 530 
Q 2431 669 2431 922 
Q 2431 1156 2273 1281 
Q 2116 1406 1581 1522 
L 1381 1569 
Q 847 1681 609 1914 
Q 372 2147 372 2553 
Q 372 3047 722 3315 
Q 1072 3584 1716 3584 
Q 2034 3584 2315 3537 
Q 2597 3491 2834 3397 
z
" transform="scale(0.015625)"/>
      <path id="DejaVuSans-6f" d="M 1959 3097 
Q 1497 3097 1228 2736 
Q 959 2375 959 1747 
Q 959 1119 1226 758 
Q 1494 397 1959 397 
Q 2419 397 2687 759 
Q 2956 1122 2956 1747 
Q 2956 2369 2687 2733 
Q 2419 3097 1959 3097 
z
M 1959 3584 
Q 2709 3584 3137 3096 
Q 3566 2609 3566 1747 
Q 3566 888 3137 398 
Q 2709 -91 1959 -91 
Q 1206 -91 779 398 
Q 353 888 353 1747 
Q 353 2609 779 3096 
Q 1206 3584 1959 3584 
z
" transform="scale(0.015625)"/>
      <path id="DejaVuSans-6e" d="M 3513 2113 
L 3513 0 
L 2938 0 
L 2938 2094 
Q 2938 2591 2744 2837 
Q 2550 3084 2163 3084 
Q 1697 3084 1428 2787 
Q 1159 2491 1159 1978 
L 1159 0 
L 581 0 
L 581 3500 
L 1159 3500 
L 1159 2956 
Q 1366 3272 1645 3428 
Q 1925 3584 2291 3584 
Q 2894 3584 3203 3211 
Q 3513 2838 3513 2113 
z
" transform="scale(0.015625)"/>
      <path id="DejaVuSans-20" transform="scale(0.015625)"/>
      <path id="DejaVuSans-52" d="M 2841 2188 
Q 3044 2119 3236 1894 
Q 3428 1669 3622 1275 
L 4263 0 
L 3584 0 
L 2988 1197 
Q 2756 1666 2539 1819 
Q 2322 1972 1947 1972 
L 1259 1972 
L 1259 0 
L 628 0 
L 628 4666 
L 2053 4666 
Q 2853 4666 3247 4331 
Q 3641 3997 3641 3322 
Q 3641 2881 3436 2590 
Q 3231 2300 2841 2188 
z
M 1259 4147 
L 1259 2491 
L 2053 2491 
Q 2509 2491 2742 2702 
Q 2975 2913 2975 3322 
Q 2975 3731 2742 3939 
Q 2509 4147 2053 4147 
L 1259 4147 
z
" transform="scale(0.015625)"/>
      <path id="DejaVuSans-61" d="M 2194 1759 
Q 1497 1759 1228 1600 
Q 959 1441 959 1056 
Q 959 750 1161 570 
Q 1363 391 1709 391 
Q 2188 391 2477 730 
Q 2766 1069 2766 1631 
L 2766 1759 
L 2194 1759 
z
M 3341 1997 
L 3341 0 
L 2766 0 
L 2766 531 
Q 2569 213 2275 61 
Q 1981 -91 1556 -91 
Q 1019 -91 701 211 
Q 384 513 384 1019 
Q 384 1609 779 1909 
Q 1175 2209 1959 2209 
L 2766 2209 
L 2766 2266 
Q 2766 2663 2505 2880 
Q 2244 3097 1772 3097 
Q 1472 3097 1187 3025 
Q 903 2953 641 2809 
L 641 3341 
Q 956 3463 1253 3523 
Q 1550 3584 1831 3584 
Q 2591 3584 2966 3190 
Q 3341 2797 3341 1997 
z
" transform="scale(0.015625)"/>
      <path id="DejaVuSans-6c" d="M 603 4863 
L 1178 4863 
L 1178 0 
L 603 0 
L 603 4863 
z
" transform="scale(0.015625)"/>
     </defs>
     <use xlink:href="#DejaVuSans-50"/>
     <use xlink:href="#DejaVuSans-72" transform="translate(58.552734 0)"/>
     <use xlink:href="#DejaVuSans-65" transform="translate(97.416016 0)"/>
     <use xlink:href="#DejaVuSans-63" transform="translate(158.939453 0)"/>
     <use xlink:href="#DejaVuSans-69" transform="translate(213.919922 0)"/>
     <use xlink:href="#DejaVuSans-73" transform="translate(241.703125 0)"/>
     <use xlink:href="#DejaVuSans-69" transform="translate(293.802734 0)"/>
     <use xlink:href="#DejaVuSans-6f" transform="translate(321.585938 0)"/>
     <use xlink:href="#DejaVuSans-6e" transform="translate(382.767578 0)"/>
     <use xlink:href="#DejaVuSans-20" transform="translate(446.146484 0)"/>
     <use xlink:href="#DejaVuSans-52" transform="translate(477.933594 0)"/>
     <use xlink:href="#DejaVuSans-65" transform="translate(542.916016 0)"/>
     <use xlink:href="#DejaVuSans-63" transform="translate(604.439453 0)"/>
     <use xlink:href="#DejaVuSans-61" transform="translate(659.419922 0)"/>
     <use xlink:href="#DejaVuSans-6c" transform="translate(720.699219 0)"/>
     <use xlink:href="#DejaVuSans-6c" transform="translate(748.482422 0)"/>
    </g>
   </g>
  </g>
 </g>
 <defs>
  <clipPath id="pc62ad615a3">
   <rect x="57.6" y="41.472" width="357.12" height="266.112"/>
  </clipPath>
 </defs>
</svg>
