<?xml version="1.0" encoding="utf-8" standalone="no"?>
<!DOCTYPE svg PUBLIC "-//W3C//DTD SVG 1.1//EN"
  "http://www.w3.org/Graphics/SVG/1.1/DTD/svg11.dtd">
<svg xmlns:xlink="http://www.w3.org/1999/xlink" width="460.8pt" height="345.6pt" viewBox="0 0 460.8 345.6" xmlns="http://www.w3.org/2000/svg" version="1.1">
 <metadata>
  <rdf:RDF xmlns:dc="http://purl.org/dc/elements/1.1/" xmlns:cc="http://creativecommons.org/ns#" xmlns:rdf="http://www.w3.org/1999/02/22-rdf-syntax-ns#">
   <cc:Work>
    <dc:type rdf:resource="http://purl.org/dc/dcmitype/StillImage"/>
    <dc:date>2026-03-16T13:32:33.516247</dc:date>
    <dc:format>image/svg+xml</dc:format>
    <dc:creator>
     <cc:Agent>
      <dc:title>Matplotlib v3.10.8, https://matplotlib.org/</dc:title>
     </cc:Agent>
    </dc:creator>
   </cc:Work>
  </rdf:RDF>
 </metadata>
 <defs>
  <style type="text/css">*{stroke-linejoin: round; stroke-linecap: butt}</style>
 </defs>
 <g id="figure_1">
  <g id="patch_1">
   <path d="M 0 345.6 
L 460.8 345.6 
L 460.8 0 
L 0 0 
z
" style="fill: #ffffff"/>
  </g>
  <g id="axes_1">
   <g id="patch_2">
    <path d="M 57.6 307.584 
L 414.72 307.584 
L 414.72 41.472 
L 57.6 41.472 
z
" style="fill: #ffffff"/>
   </g>
   <g id="matplotlib.axis_1">
    <g id="xtick_1">
     <g id="line2d_1">
      <defs>
       <path id="mcc5107091a" d="M 0 0 
L 0 3.5 
" style="stroke: #000000; stroke-width: 0.8"/>
      </defs>
      <g>
       <use xlink:href="#mcc5107091a" x="73.832727" y="307.584" style="stroke: #000000; stroke-width: 0.8"/>
      </g>
     </g>
     <g id="text_1">
      <!-- 0.0 -->
      <g transform="translate(65.881165 322.182437) scale(0.1 -0.1)">
       <defs>
        <path id="DejaVuSans-30" d="M 2034 4250 
Q 1547 4250 1301 3770 
Q 1056 3291 1056 2328 
Q 1056 1369 1301 889 
Q 1547 409 2034 409 
Q 2525 409 2770 889 
Q 3016 1369 3016 2328 
Q 3016 3291 2770 3770 
Q 2525 4250 2034 4250 
z
M 2034 4750 
Q 2819 4750 3233 4129 
Q 3647 3509 3647 2328 
Q 3647 1150 3233 529 
Q 2819 -91 2034 -91 
Q 1250 -91 836 529 
Q 422 1150 422 2328 
Q 422 3509 836 4129 
Q 1250 4750 2034 4750 
z
" transform="scale(0.015625)"/>
        <path id="DejaVuSans-2e" d="M 684 794 
L 1344 794 
L 1344 0 
L 684 0 
L 684 794 
z
" transform="scale(0.015625)"/>
       </defs>
       <use xlink:href="#DejaVuSans-30"/>
       <use xlink:href="#DejaVuSans-2e" transform="translate(63.623047 0)"/>
       <use xlink:href="#DejaVuSans-30" transform="translate(95.410156 0)"/>
      </g>
     </g>
    </g>
    <g id="xtick_2">
     <g id="line2d_2">
      <g>
       <use xlink:href="#mcc5107091a" x="138.763636" y="307.584" style="stroke: #000000; stroke-width: 0.8"/>
      </g>
     </g>
     <g id="text_2">
      <!-- 0.2 -->
      <g transform="translate(130.812074 322.182437) scale(0.1 -0.1)">
       <defs>
        <path id="DejaVuSans-32" d="M 1228 531 
L 3431 531 
L 3431 0 
L 469 0 
L 469 531 
Q 828 903 1448 1529 
Q 2069 2156 2228 2338 
Q 2531 2678 2651 2914 
Q 2772 3150 2772 3378 
Q 2772 3750 2511 3984 
Q 2250 4219 1831 4219 
Q 1534 4219 1204 4116 
Q 875 4013 500 3803 
L 500 4441 
Q 881 4594 1212 4672 
Q 1544 4750 1819 4750 
Q 2544 4750 2975 4387 
Q 3406 4025 3406 3419 
Q 3406 3131 3298 2873 
Q 3191 2616 2906 2266 
Q 2828 2175 2409 1742 
Q 1991 1309 1228 531 
z
" transform="scale(0.015625)"/>
       </defs>
       <use xlink:href="#DejaVuSans-30"/>
       <use xlink:href="#DejaVuSans-2e" transform="translate(63.623047 0)"/>
       <use xlink:href="#DejaVuSans-32" transform="translate(95.410156 0)"/>
      </g>
     </g>
    </g>
    <g id="xtick_3">
     <g id="line2d_3">
      <g>
       <use xlink:href="#mcc5107091a" x="203.694545" y="307.584" style="stroke: #000000; stroke-width: 0.8"/>
      </g>
     </g>
     <g id="text_3">
      <!-- 0.4 -->
      <g transform="translate(195.742983 322.182437) scale(0.1 -0.1)">
       <defs>
        <path id="DejaVuSans-34" d="M 2419 4116 
L 825 1625 
L 2419 1625 
L 2419 4116 
z
M 2253 4666 
L 3047 4666 
L 3047 1625 
L 3713 1625 
L 3713 1100 
L 3047 1100 
L 3047 0 
L 2419 0 
L 2419 1100 
L 313 1100 
L 313 1709 
L 2253 4666 
z
" transform="scale(0.015625)"/>
       </defs>
       <use xlink:href="#DejaVuSans-30"/>
       <use xlink:href="#DejaVuSans-2e" transform="translate(63.623047 0)"/>
       <use xlink:href="#DejaVuSans-34" transform="translate(95.410156 0)"/>
      </g>
     </g>
    </g>
    <g id="xtick_4">
     <g id="line2d_4">
      <g>
       <use xlink:href="#mcc5107091a" x="268.625455" y="307.584" style="stroke: #000000; stroke-width: 0.8"/>
      </g>
     </g>
     <g id="text_4">
      <!-- 0.6 -->
      <g transform="translate(260.673892 322.182437) scale(0.1 -0.1)">
       <defs>
        <path id="DejaVuSans-36" d="M 2113 2584 
Q 1688 2584 1439 2293 
Q 1191 2003 1191 1497 
Q 1191 994 1439 701 
Q 1688 409 2113 409 
Q 2538 409 2786 701 
Q 3034 994 3034 1497 
Q 3034 2003 2786 2293 
Q 2538 2584 2113 2584 
z
M 3366 4563 
L 3366 3988 
Q 3128 4100 2886 4159 
Q 2644 4219 2406 4219 
Q 1781 4219 1451 3797 
Q 1122 3375 1075 2522 
Q 1259 2794 1537 2939 
Q 1816 3084 2150 3084 
Q 2853 3084 3261 2657 
Q 3669 2231 3669 1497 
Q 3669 778 3244 343 
Q 2819 -91 2113 -91 
Q 1303 -91 875 529 
Q 447 1150 447 2328 
Q 447 3434 972 4092 
Q 1497 4750 2381 4750 
Q 2619 4750 2861 4703 
Q 3103 4656 3366 4563 
z
" transform="scale(0.015625)"/>
       </defs>
       <use xlink:href="#DejaVuSans-30"/>
       <use xlink:href="#DejaVuSans-2e" transform="translate(63.623047 0)"/>
       <use xlink:href="#DejaVuSans-36" transform="translate(95.410156 0)"/>
      </g>
     </g>
    </g>
    <g id="xtick_5">
     <g id="line2d_5">
      <g>
       <use xlink:href="#mcc5107091a" x="333.556364" y="307.584" style="stroke: #000000; stroke-width: 0.8"/>
      </g>
     </g>
     <g id="text_5">
      <!-- 0.8 -->
      <g transform="translate(325.604801 322.182437) scale(0.1 -0.1)">
       <defs>
        <path id="DejaVuSans-38" d="M 2034 2216 
Q 1584 2216 1326 1975 
Q 1069 1734 1069 1313 
Q 1069 891 1326 650 
Q 1584 409 2034 409 
Q 2484 409 2743 651 
Q 3003 894 3003 1313 
Q 3003 1734 2745 1975 
Q 2488 2216 2034 2216 
z
M 1403 2484 
Q 997 2584 770 2862 
Q 544 3141 544 3541 
Q 544 4100 942 4425 
Q 1341 4750 2034 4750 
Q 2731 4750 3128 4425 
Q 3525 4100 3525 3541 
Q 3525 3141 3298 2862 
Q 3072 2584 2669 2484 
Q 3125 2378 3379 2068 
Q 3634 1759 3634 1313 
Q 3634 634 3220 271 
Q 2806 -91 2034 -91 
Q 1263 -91 848 271 
Q 434 634 434 1313 
Q 434 1759 690 2068 
Q 947 2378 1403 2484 
z
M 1172 3481 
Q 1172 3119 1398 2916 
Q 1625 2713 2034 2713 
Q 2441 2713 2670 2916 
Q 2900 3119 2900 3481 
Q 2900 3844 2670 4047 
Q 2441 4250 2034 4250 
Q 1625 4250 1398 4047 
Q 1172 3844 1172 3481 
z
" transform="scale(0.015625)"/>
       </defs>
       <use xlink:href="#DejaVuSans-30"/>
       <use xlink:href="#DejaVuSans-2e" transform="translate(63.623047 0)"/>
       <use xlink:href="#DejaVuSans-38" transform="translate(95.410156 0)"/>
      </g>
     </g>
    </g>
    <g id="xtick_6">
     <g id="line2d_6">
      <g>
       <use xlink:href="#mcc5107091a" x="398.487273" y="307.584" style="stroke: #000000; stroke-width: 0.8"/>
      </g>
     </g>
     <g id="text_6">
      <!-- 1.0 -->
      <g transform="translate(390.53571 322.182437) scale(0.1 -0.1)">
       <defs>
        <path id="DejaVuSans-31" d="M 794 531 
L 1825 531 
L 1825 4091 
L 703 3866 
L 703 4441 
L 1819 4666 
L 2450 4666 
L 2450 531 
L 3481 531 
L 3481 0 
L 794 0 
L 794 531 
z
" transform="scale(0.015625)"/>
       </defs>
       <use xlink:href="#DejaVuSans-31"/>
       <use xlink:href="#DejaVuSans-2e" transform="translate(63.623047 0)"/>
       <use xlink:href="#DejaVuSans-30" transform="translate(95.410156 0)"/>
      </g>
     </g>
    </g>
   </g>
   <g id="matplotlib.axis_2">
    <g id="ytick_1">
     <g id="line2d_7">
      <defs>
       <path id="m9853e7db57" d="M 0 0 
L -3.5 0 
" style="stroke: #000000; stroke-width: 0.8"/>
      </defs>
      <g>
       <use xlink:href="#m9853e7db57" x="57.6" y="278.386759" style="stroke: #000000; stroke-width: 0.8"/>
      </g>
     </g>
     <g id="text_7">
      <!-- 0.3 -->
      <g transform="translate(34.696875 282.185977) scale(0.1 -0.1)">
       <defs>
        <path id="DejaVuSans-33" d="M 2597 2516 
Q 3050 2419 3304 2112 
Q 3559 1806 3559 1356 
Q 3559 666 3084 287 
Q 2609 -91 1734 -91 
Q 1441 -91 1130 -33 
Q 819 25 488 141 
L 488 750 
Q 750 597 1062 519 
Q 1375 441 1716 441 
Q 2309 441 2620 675 
Q 2931 909 2931 1356 
Q 2931 1769 2642 2001 
Q 2353 2234 1838 2234 
L 1294 2234 
L 1294 2753 
L 1863 2753 
Q 2328 2753 2575 2939 
Q 2822 3125 2822 3475 
Q 2822 3834 2567 4026 
Q 2313 4219 1838 4219 
Q 1578 4219 1281 4162 
Q 984 4106 628 3988 
L 628 4550 
Q 988 4650 1302 4700 
Q 1616 4750 1894 4750 
Q 2613 4750 3031 4423 
Q 3450 4097 3450 3541 
Q 3450 3153 3228 2886 
Q 3006 2619 2597 2516 
z
" transform="scale(0.015625)"/>
       </defs>
       <use xlink:href="#DejaVuSans-30"/>
       <use xlink:href="#DejaVuSans-2e" transform="translate(63.623047 0)"/>
       <use xlink:href="#DejaVuSans-33" transform="translate(95.410156 0)"/>
      </g>
     </g>
    </g>
    <g id="ytick_2">
     <g id="line2d_8">
      <g>
       <use xlink:href="#m9853e7db57" x="57.6" y="246.269793" style="stroke: #000000; stroke-width: 0.8"/>
      </g>
     </g>
     <g id="text_8">
      <!-- 0.4 -->
      <g transform="translate(34.696875 250.069012) scale(0.1 -0.1)">
       <use xlink:href="#DejaVuSans-30"/>
       <use xlink:href="#DejaVuSans-2e" transform="translate(63.623047 0)"/>
       <use xlink:href="#DejaVuSans-34" transform="translate(95.410156 0)"/>
      </g>
     </g>
    </g>
    <g id="ytick_3">
     <g id="line2d_9">
      <g>
       <use xlink:href="#m9853e7db57" x="57.6" y="214.152828" style="stroke: #000000; stroke-width: 0.8"/>
      </g>
     </g>
     <g id="text_9">
      <!-- 0.5 -->
      <g transform="translate(34.696875 217.952046) scale(0.1 -0.1)">
       <defs>
        <path id="DejaVuSans-35" d="M 691 4666 
L 3169 4666 
L 3169 4134 
L 1269 4134 
L 1269 2991 
Q 1406 3038 1543 3061 
Q 1681 3084 1819 3084 
Q 2600 3084 3056 2656 
Q 3513 2228 3513 1497 
Q 3513 744 3044 326 
Q 2575 -91 1722 -91 
Q 1428 -91 1123 -41 
Q 819 9 494 109 
L 494 744 
Q 775 591 1075 516 
Q 1375 441 1709 441 
Q 2250 441 2565 725 
Q 2881 1009 2881 1497 
Q 2881 1984 2565 2268 
Q 2250 2553 1709 2553 
Q 1456 2553 1204 2497 
Q 953 2441 691 2322 
L 691 4666 
z
" transform="scale(0.015625)"/>
       </defs>
       <use xlink:href="#DejaVuSans-30"/>
       <use xlink:href="#DejaVuSans-2e" transform="translate(63.623047 0)"/>
       <use xlink:href="#DejaVuSans-35" transform="translate(95.410156 0)"/>
      </g>
     </g>
    </g>
    <g id="ytick_4">
     <g id="line2d_10">
      <g>
       <use xlink:href="#m9853e7db57" x="57.6" y="182.035862" style="stroke: #000000; stroke-width: 0.8"/>
      </g>
     </g>
     <g id="text_10">
      <!-- 0.6 -->
      <g transform="translate(34.696875 185.835081) scale(0.1 -0.1)">
       <use xlink:href="#DejaVuSans-30"/>
       <use xlink:href="#DejaVuSans-2e" transform="translate(63.623047 0)"/>
       <use xlink:href="#DejaVuSans-36" transform="translate(95.410156 0)"/>
      </g>
     </g>
    </g>
    <g id="ytick_5">
     <g id="line2d_11">
      <g>
       <use xlink:href="#m9853e7db57" x="57.6" y="149.918897" style="stroke: #000000; stroke-width: 0.8"/>
      </g>
     </g>
     <g id="text_11">
      <!-- 0.7 -->
      <g transform="translate(34.696875 153.718115) scale(0.1 -0.1)">
       <defs>
        <path id="DejaVuSans-37" d="M 525 4666 
L 3525 4666 
L 3525 4397 
L 1831 0 
L 1172 0 
L 2766 4134 
L 525 4134 
L 525 4666 
z
" transform="scale(0.015625)"/>
       </defs>
       <use xlink:href="#DejaVuSans-30"/>
       <use xlink:href="#DejaVuSans-2e" transform="translate(63.623047 0)"/>
       <use xlink:href="#DejaVuSans-37" transform="translate(95.410156 0)"/>
      </g>
     </g>
    </g>
    <g id="ytick_6">
     <g id="line2d_12">
      <g>
       <use xlink:href="#m9853e7db57" x="57.6" y="117.801931" style="stroke: #000000; stroke-width: 0.8"/>
      </g>
     </g>
     <g id="text_12">
      <!-- 0.8 -->
      <g transform="translate(34.696875 121.60115) scale(0.1 -0.1)">
       <use xlink:href="#DejaVuSans-30"/>
       <use xlink:href="#DejaVuSans-2e" transform="translate(63.623047 0)"/>
       <use xlink:href="#DejaVuSans-38" transform="translate(95.410156 0)"/>
      </g>
     </g>
    </g>
    <g id="ytick_7">
     <g id="line2d_13">
      <g>
       <use xlink:href="#m9853e7db57" x="57.6" y="85.684966" style="stroke: #000000; stroke-width: 0.8"/>
      </g>
     </g>
     <g id="text_13">
      <!-- 0.9 -->
      <g transform="translate(34.696875 89.484184) scale(0.1 -0.1)">
       <defs>
        <path id="DejaVuSans-39" d="M 703 97 
L 703 672 
Q 941 559 1184 500 
Q 1428 441 1663 441 
Q 2288 441 2617 861 
Q 2947 1281 2994 2138 
Q 2813 1869 2534 1725 
Q 2256 1581 1919 1581 
Q 1219 1581 811 2004 
Q 403 2428 403 3163 
Q 403 3881 828 4315 
Q 1253 4750 1959 4750 
Q 2769 4750 3195 4129 
Q 3622 3509 3622 2328 
Q 3622 1225 3098 567 
Q 2575 -91 1691 -91 
Q 1453 -91 1209 -44 
Q 966 3 703 97 
z
M 1959 2075 
Q 2384 2075 2632 2365 
Q 2881 2656 2881 3163 
Q 2881 3666 2632 3958 
Q 2384 4250 1959 4250 
Q 1534 4250 1286 3958 
Q 1038 3666 1038 3163 
Q 1038 2656 1286 2365 
Q 1534 2075 1959 2075 
z
" transform="scale(0.015625)"/>
       </defs>
       <use xlink:href="#DejaVuSans-30"/>
       <use xlink:href="#DejaVuSans-2e" transform="translate(63.623047 0)"/>
       <use xlink:href="#DejaVuSans-39" transform="translate(95.410156 0)"/>
      </g>
     </g>
    </g>
    <g id="ytick_8">
     <g id="line2d_14">
      <g>
       <use xlink:href="#m9853e7db57" x="57.6" y="53.568" style="stroke: #000000; stroke-width: 0.8"/>
      </g>
     </g>
     <g id="text_14">
      <!-- 1.0 -->
      <g transform="translate(34.696875 57.367219) scale(0.1 -0.1)">
       <use xlink:href="#DejaVuSans-31"/>
       <use xlink:href="#DejaVuSans-2e" transform="translate(63.623047 0)"/>
       <use xlink:href="#DejaVuSans-30" transform="translate(95.410156 0)"/>
      </g>
     </g>
    </g>
   </g>
   <g id="line2d_15">
    <path d="M 398.487273 186.587491 
L 398.435837 186.531124 
L 398.432408 186.486498 
L 398.322679 185.779091 
L 398.305534 185.75265 
L 398.302105 185.68411 
L 398.295247 185.671639 
L 398.185517 185.367999 
L 398.134082 185.28584 
L 398.134082 185.266931 
L 398.024352 184.151714 
L 398.020923 184.152534 
L 398.014065 184.040462 
L 397.904336 183.09639 
L 397.880333 183.040386 
L 397.880333 182.988309 
L 397.770604 181.881118 
L 397.743171 181.817742 
L 397.743171 181.773568 
L 397.633442 181.380205 
L 397.592294 181.278968 
L 397.592294 181.2765 
L 397.482564 180.898106 
L 397.441416 180.796255 
L 397.468848 180.831925 
L 397.441416 180.793773 
L 397.331687 180.601152 
L 397.266535 180.545689 
L 397.263106 180.504169 
L 397.153377 179.973142 
L 397.122515 179.895241 
L 397.122515 179.8664 
L 397.012786 179.253183 
L 396.99907 179.212233 
L 396.99907 179.142741 
L 396.889341 178.139457 
L 396.882483 178.132133 
L 396.879053 178.042198 
L 396.868766 178.030559 
L 396.759037 176.766526 
L 396.755608 176.767333 
L 396.752179 176.698141 
L 396.741892 176.656461 
L 396.632163 176.216697 
L 396.628734 176.217502 
L 396.621876 176.112166 
L 396.618447 176.106446 
L 396.508717 175.430192 
L 396.505288 175.430996 
L 396.501859 175.345013 
L 396.491572 175.321109 
L 396.381843 174.61509 
L 396.368127 174.597084 
L 396.361269 174.505827 
L 396.251539 173.880318 
L 396.24811 173.881119 
L 396.244681 173.774985 
L 396.241252 173.769098 
L 396.131523 173.135789 
L 396.128094 173.136587 
L 396.114378 173.02662 
L 396.004649 172.187085 
L 395.99779 172.188677 
L 395.994361 172.099698 
L 395.980645 172.079745 
L 395.870916 171.618076 
L 395.833197 171.518701 
L 395.833197 171.513224 
L 395.723467 170.894314 
L 395.696035 170.798618 
L 395.720038 170.860645 
L 395.696035 170.78758 
L 395.586306 170.502007 
L 395.552015 170.436545 
L 395.552015 170.396367 
L 395.442286 169.957803 
L 395.435428 169.952424 
L 395.425141 169.858687 
L 395.421712 169.849723 
L 395.311983 169.41404 
L 395.239973 169.317153 
L 395.130244 169.011056 
L 395.07195 168.917526 
L 395.07195 168.910486 
L 394.96565 168.442323 
L 394.962221 168.443111 
L 394.924501 168.358348 
L 394.948505 168.371244 
L 394.924501 168.338519 
L 394.818201 168.073538 
L 394.814772 168.074325 
L 394.705043 167.987217 
L 394.705043 167.985794 
L 394.595314 167.693287 
L 394.591885 167.694073 
L 394.588455 167.62492 
L 394.574739 167.585221 
L 394.46501 166.882114 
L 394.451294 166.843521 
L 394.447865 166.78384 
L 394.444436 166.773102 
L 394.334707 165.89113 
L 394.300416 165.788456 
L 394.324419 165.838246 
L 394.300416 165.785547 
L 394.190687 164.947234 
L 394.187258 164.948012 
L 394.1804 164.836564 
L 394.176971 164.837342 
L 394.067242 164.472364 
L 394.00209 164.37357 
L 393.892361 164.039201 
L 393.878644 164.039345 
L 393.868357 163.932024 
L 393.758628 163.339749 
L 393.755199 163.340523 
L 393.741483 163.230213 
L 393.631754 162.728083 
L 393.604321 162.656201 
L 393.604321 162.621655 
L 393.494592 161.968122 
L 393.46716 161.866873 
L 393.487734 161.903112 
L 393.46716 161.860818 
L 393.36086 161.432603 
L 393.357431 161.433372 
L 393.312853 161.342975 
L 393.312853 161.3308 
L 393.203124 160.533323 
L 393.196266 160.527185 
L 393.192837 160.432799 
L 393.185979 160.423581 
L 393.079678 159.738546 
L 393.076249 159.73931 
L 393.07282 159.740073 
L 393.069391 159.627925 
L 392.959662 159.095272 
L 392.956233 159.096033 
L 392.952804 159.014307 
L 392.945946 158.984685 
L 392.836217 158.155222 
L 392.832788 158.15598 
L 392.832788 158.082166 
L 392.8225 158.045156 
L 392.712771 157.073035 
L 392.705913 157.071371 
L 392.699055 156.964952 
L 392.695626 156.964118 
L 392.585897 155.496334 
L 392.582468 155.497083 
L 392.579039 155.385072 
L 392.469309 154.468498 
L 392.462451 154.469987 
L 392.462451 154.430962 
L 392.445306 154.361475 
L 392.335577 153.702836 
L 392.321861 153.673044 
L 392.318432 153.5984 
L 392.311574 153.594965 
L 392.201844 152.985617 
L 392.188128 152.948988 
L 392.188128 152.876378 
L 392.088686 152.134091 
L 392.078399 152.1363 
L 392.061254 152.036863 
L 392.047538 152.029821 
L 391.937808 151.527861 
L 391.910376 151.478533 
L 391.910376 151.421633 
L 391.800647 151.133278 
L 391.780073 151.070497 
L 391.797218 151.107145 
L 391.773215 151.026594 
L 391.666914 150.618174 
L 391.663485 150.618905 
L 391.618908 150.542313 
L 391.615479 150.516021 
L 391.50575 150.268774 
L 391.50232 150.269503 
L 391.50232 150.205134 
L 391.492033 150.158172 
L 391.382304 149.806195 
L 391.330869 149.708184 
L 391.330869 149.704779 
L 391.224568 149.247738 
L 391.221139 149.248463 
L 391.207423 149.217153 
L 391.200565 149.139872 
L 391.090836 148.491547 
L 391.063403 148.443913 
L 391.056545 148.386744 
L 390.946816 148.033268 
L 390.89881 147.96027 
L 390.89881 147.930826 
L 390.792509 147.595726 
L 390.78908 147.596445 
L 390.751361 147.500031 
L 390.751361 147.491333 
L 390.641632 147.319302 
L 390.597054 147.215287 
L 390.487325 146.815182 
L 390.483896 146.815899 
L 390.480467 146.704459 
L 390.370738 146.067893 
L 390.367309 146.068606 
L 390.360451 145.990637 
L 390.350163 145.959237 
L 390.250721 145.642163 
L 390.240434 145.642527 
L 390.158137 145.547972 
L 390.158137 145.546199 
L 390.048408 144.894943 
L 390.024405 144.816038 
L 390.044979 144.874245 
L 390.020976 144.788182 
L 389.911246 144.340238 
L 389.876956 144.241458 
L 389.876956 144.234279 
L 389.767227 143.758534 
L 389.726078 143.678599 
L 389.726078 143.655139 
L 389.616349 143.218256 
L 389.547768 143.119868 
L 389.444897 142.948422 
L 389.438039 142.949824 
L 389.304307 142.869864 
L 389.304307 142.864405 
L 389.194577 142.598934 
L 389.156858 142.528151 
L 389.156858 142.493457 
L 389.047129 142.083966 
L 389.009409 141.987084 
L 389.0437 142.06266 
L 389.009409 141.979743 
L 388.89968 141.400287 
L 388.892822 141.386915 
L 388.885964 141.290462 
L 388.779664 140.916024 
L 388.776235 140.916717 
L 388.714512 140.918059 
L 388.707654 140.817442 
L 388.597925 139.821981 
L 388.587637 139.818427 
L 388.570492 139.715109 
L 388.460763 138.22444 
L 388.453905 138.214409 
L 388.453905 138.113749 
L 388.344176 132.46109 
L 388.340747 132.461739 
L 388.330459 132.352045 
L 388.22073 131.401413 
L 388.196727 131.383793 
L 388.183011 131.295821 
L 388.073282 130.763515 
L 388.069853 130.764155 
L 388.069853 130.652872 
L 387.960123 129.626189 
L 387.956694 129.626822 
L 387.953265 129.545747 
L 387.946407 129.516358 
L 387.840107 128.762856 
L 387.836678 128.763485 
L 387.809246 128.723247 
L 387.802387 128.658627 
L 387.692658 128.137943 
L 387.665226 128.041537 
L 387.6858 128.087466 
L 387.665226 128.031184 
L 387.558926 127.515086 
L 387.555497 127.515708 
L 387.534922 127.47159 
L 387.524635 127.40893 
L 387.414906 126.934309 
L 387.387474 126.861876 
L 387.408048 126.870716 
L 387.384045 126.829016 
L 387.274316 126.418976 
L 387.246883 126.337756 
L 387.243454 126.313146 
L 387.137154 125.801202 
L 387.133725 125.801815 
L 387.089147 125.714708 
L 387.089147 125.697798 
L 386.982847 125.331393 
L 386.979418 125.332003 
L 386.969131 125.295653 
L 386.965702 125.228356 
L 386.958844 125.223207 
L 386.849115 124.520867 
L 386.831969 124.472631 
L 386.831969 124.412796 
L 386.72224 123.905128 
L 386.684521 123.808649 
L 386.684521 123.800054 
L 386.574792 123.360647 
L 386.550788 123.278516 
L 386.571363 123.337514 
L 386.550788 123.252608 
L 386.441059 122.893241 
L 386.410198 122.794581 
L 386.410198 122.785908 
L 386.300468 122.433579 
L 386.29361 122.415188 
L 386.290181 122.328732 
L 386.283323 122.325564 
L 386.173594 121.958535 
L 386.159878 121.930315 
L 386.156449 121.893759 
L 386.04672 120.889924 
L 386.039862 120.884482 
L 386.039862 120.816147 
L 385.930132 120.204747 
L 385.906129 120.153386 
L 385.906129 120.097939 
L 385.7964 119.718701 
L 385.779255 119.683743 
L 385.779255 119.610247 
L 385.669525 119.213579 
L 385.600945 119.119942 
L 385.600945 119.113229 
L 385.491215 118.698889 
L 385.460354 118.629894 
L 385.460354 118.591686 
L 385.350625 118.342115 
L 385.282044 118.249804 
L 385.282044 118.243038 
L 385.172315 118.003823 
L 385.144882 117.908864 
L 385.168886 117.981785 
L 385.144882 117.897553 
L 385.035153 117.575811 
L 384.980288 117.507675 
L 384.980288 117.473614 
L 384.870559 117.159597 
L 384.825982 117.059815 
L 384.825982 117.055256 
L 384.716252 116.806188 
L 384.699107 116.776997 
L 384.68882 116.69866 
L 384.579091 116.43262 
L 384.483078 116.335846 
L 384.373349 116.06415 
L 384.321913 115.980426 
L 384.321913 115.962005 
L 384.212184 115.79539 
L 384.171035 115.693583 
L 384.208755 115.745191 
L 384.171035 115.691274 
L 384.061306 115.482501 
L 384.006441 115.382564 
L 384.006441 115.380249 
L 383.896712 115.156832 
L 383.838419 115.05476 
L 383.732118 114.869555 
L 383.728689 114.870104 
L 383.673825 114.804405 
L 383.670396 114.767697 
L 383.560666 114.570763 
L 383.47494 114.474716 
L 383.47494 114.47238 
L 383.372069 114.299416 
L 383.365211 114.300507 
L 383.255482 114.212624 
L 383.255482 114.205598 
L 383.145753 113.99796 
L 383.097746 113.897572 
L 383.097746 113.895223 
L 382.988017 113.773923 
L 382.946868 113.705146 
L 382.946868 113.669839 
L 382.837139 113.241402 
L 382.819994 113.185016 
L 382.816565 113.13354 
L 382.720552 112.812323 
L 382.706836 112.814469 
L 382.446229 112.743701 
L 382.446229 112.741326 
L 382.336499 112.753744 
L 381.746705 112.734363 
L 381.705556 112.738434 
L 381.636976 112.722996 
L 381.33522 112.658307 
L 381.225491 112.649277 
L 380.889445 112.59216 
L 380.889445 112.589771 
L 380.783145 112.501249 
L 380.779716 112.501787 
L 380.62198 112.416412 
L 380.512251 112.380901 
L 380.392234 112.291804 
L 380.392234 112.289405 
L 380.282505 112.186559 
L 380.141915 112.102807 
L 380.141915 112.097998 
L 380.035614 112.052071 
L 380.032185 112.052607 
L 379.881308 111.967836 
L 379.881308 111.965427 
L 379.775007 111.93142 
L 379.771578 111.931956 
L 379.665278 111.840021 
L 379.665278 111.837609 
L 379.555549 111.772645 
L 379.356665 111.694901 
L 379.356665 111.692483 
L 379.250364 111.621956 
L 379.246935 111.62249 
L 379.024048 111.545794 
L 378.917748 111.487186 
L 378.914319 111.48772 
L 378.591989 111.426237 
L 378.492547 111.371246 
L 378.48226 111.372846 
L 378.249085 111.297229 
L 378.156501 111.272676 
L 378.142785 111.274809 
L 377.913039 111.200881 
L 377.913039 111.198443 
L 377.813597 111.140718 
L 377.80331 111.142317 
L 377.607855 111.06036 
L 377.542703 111.03382 
L 377.498126 111.035857 
L 377.347248 110.949207 
L 377.237519 110.907478 
L 377.107215 110.819865 
L 377.107215 110.817413 
L 376.997486 110.751021 
L 376.867182 110.665624 
L 376.867182 110.66071 
L 376.757453 110.599048 
L 376.630579 110.510428 
L 376.630579 110.507966 
L 376.52085 110.46091 
L 376.380259 110.379122 
L 376.380259 110.371724 
L 376.27053 110.304784 
L 376.133368 110.227172 
L 376.133368 110.214816 
L 376.027068 110.129842 
L 376.023639 110.130371 
L 375.811038 110.051757 
L 375.701309 109.996808 
L 375.536715 109.910544 
L 375.430415 109.840003 
L 375.426986 109.840531 
L 375.265821 109.758447 
L 375.265821 109.753473 
L 375.173237 109.715466 
L 375.156092 109.718102 
L 375.001785 109.629766 
L 374.902343 109.527869 
L 374.892056 109.529448 
L 374.672598 109.458299 
L 374.672598 109.450806 
L 374.580013 109.407545 
L 374.562868 109.410175 
L 374.322836 109.33945 
L 374.322836 109.336947 
L 374.213106 109.276156 
L 374.079374 109.188883 
L 374.079374 109.186375 
L 373.973074 109.124885 
L 373.969645 109.12541 
L 373.835912 109.035387 
L 373.726183 108.939039 
L 373.534157 108.860153 
L 373.534157 108.857635 
L 373.517011 108.857735 
L 373.424427 108.808888 
L 373.204969 108.731425 
L 373.09524 108.667379 
L 372.84492 108.594349 
L 372.735191 108.540235 
L 372.529448 108.460148 
L 372.419719 108.388116 
L 372.217406 108.309766 
L 372.217406 108.307226 
L 372.117964 108.228331 
L 372.107676 108.229895 
L 371.919079 108.146632 
L 371.80935 108.125115 
L 371.59675 108.045283 
L 371.48702 107.99817 
L 371.325856 107.910277 
L 371.219555 107.831816 
L 371.216126 107.832336 
L 371.030958 107.752923 
L 371.030958 107.750362 
L 370.921229 107.715759 
L 370.756635 107.633008 
L 370.756635 107.630443 
L 370.646906 107.575194 
L 370.420589 107.498969 
L 370.314289 107.43789 
L 370.31086 107.438408 
L 370.105118 107.36138 
L 370.105118 107.358803 
L 369.998818 107.310436 
L 369.995388 107.310955 
L 369.769072 107.234207 
L 369.659343 107.19913 
L 369.477604 107.115417 
L 369.371303 107.040886 
L 369.367874 107.041403 
L 369.131271 106.968274 
L 369.131271 106.965681 
L 369.02497 106.906492 
L 369.021541 106.907009 
L 368.788367 106.830498 
L 368.730073 106.774304 
L 368.678638 106.779448 
L 368.438605 106.70631 
L 368.438605 106.703706 
L 368.339163 106.653558 
L 368.328876 106.655106 
L 368.13342 106.572398 
L 368.023691 106.539314 
L 367.773371 106.464617 
L 367.663642 106.376483 
L 367.433896 106.300996 
L 367.337883 106.27085 
L 367.324167 106.272909 
L 366.88525 106.228601 
L 366.799524 106.215208 
L 366.775521 106.218815 
L 366.470336 106.15422 
L 366.394898 106.144499 
L 366.446333 106.155195 
L 366.360607 106.14702 
L 366.069139 106.080162 
L 366.017703 106.07207 
L 365.95941 106.080834 
L 365.575357 106.027711 
L 365.475915 106.003024 
L 365.465628 106.004571 
L 364.913553 105.97653 
L 364.841543 105.963531 
L 364.803824 105.969215 
L 364.255177 105.940517 
L 364.159164 105.917812 
L 364.145448 105.919883 
L 363.833406 105.855277 
L 363.723676 105.727999 
L 363.56937 105.639237 
L 363.45964 105.498195 
L 363.360198 105.400839 
L 363.250469 105.229883 
L 363.171601 105.134456 
L 363.171601 105.131774 
L 363.06873 105.023701 
L 363.061872 105.024726 
L 362.972717 104.930571 
L 362.972717 104.927883 
L 362.862988 104.782838 
L 362.773833 104.693763 
L 362.773833 104.685679 
L 362.667532 104.604426 
L 362.664103 104.604935 
L 362.564661 104.514454 
L 362.564661 104.509054 
L 362.458361 104.414054 
L 362.454932 104.414563 
L 362.293767 104.327553 
L 362.184038 104.262577 
L 362.091454 104.170583 
L 362.091454 104.16516 
L 361.992012 104.071336 
L 361.985154 104.072349 
L 361.834276 103.985985 
L 361.834276 103.983267 
L 361.727976 103.920104 
L 361.724547 103.92061 
L 361.556524 103.833794 
L 361.446794 103.751869 
L 361.347352 103.657405 
L 361.347352 103.654676 
L 361.244481 103.579702 
L 361.237623 103.580709 
L 361.162184 103.482475 
L 361.162184 103.479741 
L 361.055884 103.396851 
L 361.052455 103.397354 
L 360.881003 103.310193 
L 360.774703 103.20511 
L 360.771274 103.205611 
L 360.627254 103.119611 
L 360.627254 103.116865 
L 360.517525 102.998218 
L 360.383792 102.907653 
L 360.277492 102.837753 
L 360.352931 102.909398 
L 360.274063 102.838252 
L 360.17805 102.741943 
L 360.092324 102.668856 
L 360.07175 102.671845 
L 359.890011 102.587739 
L 359.780282 102.55113 
L 359.673981 102.458614 
L 359.673981 102.455845 
L 359.564252 102.352602 
L 359.444236 102.259016 
L 359.334507 102.161022 
L 359.248781 102.064982 
L 359.248781 102.0622 
L 359.149338 101.97636 
L 359.139051 101.977843 
L 358.984745 101.888637 
L 358.875015 101.770539 
L 358.748141 101.677064 
L 358.638412 101.597764 
L 358.490963 101.506963 
L 358.381234 101.396592 
L 358.264646 101.303867 
L 358.264646 101.30106 
L 358.168633 101.255818 
L 358.154917 101.257777 
L 357.993752 101.171187 
L 357.890881 101.107094 
L 357.973178 101.171311 
L 357.884023 101.108072 
L 357.746861 101.020617 
L 357.746861 101.0178 
L 357.647419 100.938936 
L 357.637132 100.9404 
L 357.53769 100.844496 
L 357.427961 100.716 
L 357.342235 100.617846 
L 357.232506 100.542786 
L 357.133064 100.446326 
L 357.023334 100.348344 
L 356.937608 100.249675 
L 356.831308 100.071255 
L 356.827879 100.071737 
L 356.742153 99.972716 
L 356.635853 99.867889 
L 356.632424 99.86837 
L 356.536411 99.770511 
L 356.426682 99.648704 
L 356.337527 99.549586 
L 356.227797 99.447469 
L 356.083778 99.358571 
L 356.083778 99.355703 
L 355.984335 99.289174 
L 355.974048 99.290604 
L 355.874606 99.201005 
L 355.874606 99.192382 
L 355.764877 99.055159 
L 355.651719 98.961392 
L 355.541989 98.852589 
L 355.493983 98.75532 
L 355.493983 98.749545 
L 355.384254 98.513182 
L 355.336247 98.41556 
L 355.336247 98.409768 
L 355.226518 98.158045 
L 355.175082 98.054713 
L 355.068782 97.842349 
L 355.065353 97.842815 
L 355.007059 97.745887 
L 355.007059 97.74006 
L 354.900759 97.576581 
L 354.89733 97.577045 
L 354.869898 97.513615 
L 354.869898 97.469813 
L 354.760169 97.353089 
L 354.667585 97.254364 
L 354.561284 97.11045 
L 354.557855 97.11091 
L 354.389832 97.021962 
L 354.280103 96.948558 
L 354.146371 96.85768 
L 354.146371 96.854739 
L 354.036641 96.775229 
L 353.906338 96.680671 
L 353.800038 96.621118 
L 353.796609 96.621575 
L 353.553147 96.550675 
L 353.553147 96.544767 
L 353.446847 96.452505 
L 353.443418 96.452961 
L 353.241104 96.373312 
L 353.241104 96.370351 
L 353.131375 96.352341 
L 352.359841 96.351092 
L 352.359841 96.345151 
L 352.267257 96.321816 
L 352.250112 96.324098 
L 351.848915 96.267432 
L 351.742614 96.245841 
L 351.824911 96.26765 
L 351.739185 96.246298 
L 351.279694 96.197149 
L 351.173394 95.870446 
L 351.169965 95.8709 
L 351.132245 95.807015 
L 351.132245 95.76507 
L 351.032803 95.291813 
L 351.022516 95.29316 
L 350.799629 95.220009 
L 350.799629 95.210973 
L 350.696758 95.197321 
L 350.689899 95.198218 
L 349.925224 95.186765 
L 349.870359 95.178852 
L 349.870359 95.18792 
L 349.818924 95.182579 
L 349.283993 95.174164 
L 349.280564 95.141287 
L 349.191409 95.131787 
L 349.170835 95.134491 
L 348.437021 95.124806 
L 348.437021 95.121766 
L 348.365011 95.097806 
L 348.327292 95.102775 
L 348.124978 95.019849 
L 348.028965 94.992882 
L 348.015249 94.994687 
L 347.600335 94.939494 
L 347.569474 94.940503 
L 347.490606 94.923401 
L 347.065405 94.86932 
L 346.959105 94.843521 
L 346.955676 94.843972 
L 346.767079 94.758479 
L 346.667637 94.728618 
L 346.65735 94.729971 
L 346.256152 94.675262 
L 346.256152 94.672188 
L 346.149852 94.643123 
L 346.146423 94.643574 
L 345.868671 94.569283 
L 345.786374 94.564699 
L 345.813806 94.573417 
L 345.758941 94.568306 
L 345.532625 94.487032 
L 345.422896 94.448964 
L 345.01484 94.391286 
L 344.90854 94.365016 
L 344.905111 94.365466 
L 344.702798 94.283597 
L 344.702798 94.280497 
L 344.617072 94.260737 
L 344.593068 94.263887 
L 344.171296 94.207478 
L 344.061567 94.169028 
L 343.883257 94.086607 
L 343.883257 94.080379 
L 343.790673 93.98657 
L 343.773528 93.988815 
L 343.667228 93.896667 
L 343.667228 93.893547 
L 343.557499 92.170865 
L 343.540353 92.131929 
L 343.554069 92.139687 
L 343.536924 92.062787 
L 343.427195 91.680502 
L 342.943701 91.629586 
L 342.833971 91.589186 
L 342.65909 91.512262 
L 342.65909 91.499518 
L 342.556219 91.46132 
L 342.549361 91.462173 
L 342.40877 91.367988 
L 342.305899 91.304113 
L 342.299041 91.304964 
L 342.151593 91.217751 
L 342.151593 91.211353 
L 342.041863 91.148135 
L 341.777827 91.071857 
L 341.671527 91.043302 
L 341.668098 91.043725 
L 341.260042 90.984976 
L 341.153742 90.95953 
L 341.150313 90.959954 
L 340.23476 90.963766 
L 340.12846 90.941439 
L 340.207327 90.963941 
L 340.125031 90.941864 
L 339.576384 90.903258 
L 339.576384 90.900021 
L 339.470084 90.851692 
L 339.535236 90.901894 
L 339.466655 90.852118 
L 339.384358 90.778066 
L 339.384358 90.752128 
L 339.274629 90.629425 
L 339.106606 90.539706 
L 338.996877 90.491446 
L 338.835712 90.462489 
L 338.835712 90.400615 
L 338.725983 86.342395 
L 338.708837 86.24369 
L 338.719125 86.252614 
L 338.708837 86.233626 
L 338.599108 85.775158 
L 338.571676 85.677103 
L 338.571676 85.666993 
L 338.461947 85.351605 
L 338.427656 85.260671 
L 338.427656 85.243763 
L 338.317927 84.98134 
L 338.098469 84.903093 
L 338.098469 84.896305 
L 337.988739 84.850319 
L 337.87901 84.753286 
L 337.769281 84.666318 
L 337.618403 84.576782 
L 337.618403 84.573374 
L 337.532677 84.51429 
L 337.508674 84.516836 
L 337.371512 84.428995 
L 337.371512 84.422166 
L 337.265212 84.296729 
L 337.110905 84.203517 
L 337.001176 84.108882 
L 336.836582 84.016424 
L 336.733711 83.958549 
L 336.726853 83.959266 
L 336.589691 83.863658 
L 336.479962 83.789118 
L 336.209068 83.710579 
L 336.209068 83.707132 
L 336.106197 83.659222 
L 336.099339 83.659935 
L 335.866164 83.573707 
L 335.759864 83.525992 
L 335.756435 83.526348 
L 335.608986 83.430936 
L 335.526689 83.390978 
L 335.499257 83.393815 
L 335.331234 83.300269 
L 335.221505 83.249139 
L 335.115205 83.152437 
L 335.115205 83.148962 
L 335.022621 83.02636 
L 335.005475 83.028116 
L 334.837453 82.937406 
L 334.837453 82.933923 
L 334.731152 82.850687 
L 334.727723 82.851037 
L 334.545984 82.75791 
L 334.439684 82.681397 
L 334.436255 82.681746 
L 334.161932 82.601177 
L 334.072777 82.536681 
L 334.06249 82.537723 
L 333.860176 82.453033 
L 333.860176 82.449525 
L 333.750447 82.404466 
L 333.544705 82.316323 
L 333.445263 82.284146 
L 333.434976 82.285182 
L 332.985772 82.221261 
L 332.889758 82.20272 
L 332.876042 82.204101 
L 332.447412 82.137795 
L 332.365116 82.131938 
L 332.399406 82.139092 
L 332.337683 82.134699 
L 331.771892 82.081917 
L 331.730743 82.068334 
L 331.662163 82.071695 
L 331.175239 82.014221 
L 331.175239 82.010666 
L 331.096371 82.004389 
L 331.06551 82.007498 
L 330.609448 81.943069 
L 330.499718 81.907765 
L 330.108808 81.836416 
L 330.005937 81.785975 
L 329.999079 81.786664 
L 329.515584 81.727816 
L 329.515584 81.724231 
L 329.405855 81.681453 
L 328.877783 81.623104 
L 328.788628 81.606871 
L 328.768054 81.608936 
L 328.377143 81.540102 
L 328.277701 81.506792 
L 328.267414 81.507824 
L 327.663903 81.459967 
L 327.581606 81.439273 
L 327.557603 81.441681 
L 326.919802 81.396954 
L 326.88894 81.385531 
L 326.810072 81.38982 
L 326.299146 81.332061 
L 326.199704 81.305633 
L 326.189416 81.306666 
L 325.507038 81.265794 
L 325.448744 81.249729 
L 325.400738 81.254556 
L 324.505758 81.238495 
L 324.505758 81.234826 
L 324.416603 81.221799 
L 324.396029 81.223874 
L 323.446185 81.209502 
L 323.367317 81.187993 
L 323.336456 81.191116 
L 321.748811 81.241461 
L 321.748811 81.237751 
L 321.652798 81.243836 
L 319.3622 81.367358 
L 319.279903 81.357153 
L 319.286761 81.371419 
L 319.262758 81.358927 
L 316.773276 81.505513 
L 316.745843 81.497056 
L 316.670404 81.501197 
L 313.04591 81.772237 
L 313.04591 81.768406 
L 312.936181 81.780211 
L 310.350686 81.949072 
L 310.350686 81.945203 
L 310.240957 81.953338 
L 307.912639 82.097266 
L 307.912639 82.09336 
L 307.80291 82.101641 
L 306.273558 82.166481 
L 306.273558 82.162549 
L 306.252984 82.15699 
L 306.163829 82.166984 
L 304.634478 82.228729 
L 304.634478 82.224771 
L 304.593329 82.229425 
L 304.524749 82.229266 
L 302.882239 82.304762 
L 302.87881 82.297181 
L 302.775939 82.304947 
L 302.77251 82.301351 
L 299.823536 82.529445 
L 299.799533 82.524175 
L 299.713807 82.534173 
L 298.27704 82.593199 
L 298.270182 82.577765 
L 298.167311 82.585803 
L 296.624243 82.658168 
L 296.624243 82.649991 
L 296.514514 82.663023 
L 295.760125 82.646258 
L 295.760125 82.642154 
L 295.715548 82.606407 
L 295.650396 82.614165 
L 294.549674 82.634462 
L 294.450232 82.621602 
L 294.439945 82.622834 
L 293.291217 82.64907 
L 293.188346 82.636557 
L 293.184917 82.63697 
L 292.334515 82.639806 
L 292.334515 82.631468 
L 292.327657 82.619789 
L 292.252218 82.624744 
L 291.343523 82.626251 
L 291.261226 82.615304 
L 291.257797 82.61572 
L 290.07135 82.65113 
L 289.978766 82.645603 
L 289.96162 82.647701 
L 286.343984 82.981796 
L 286.343984 82.97752 
L 286.234255 82.991321 
L 286.234255 82.987042 
L 284.248842 83.135472 
L 284.248842 83.126843 
L 284.21798 83.109201 
L 284.139112 83.110625 
L 283.950515 83.039613 
L 283.950515 83.026642 
L 283.110401 81.909886 
L 283.000671 81.739513 
L 282.93552 81.642287 
L 282.93552 81.637901 
L 282.839507 81.456466 
L 282.82579 81.458137 
L 282.740064 81.363056 
L 282.740064 81.358657 
L 282.633764 81.235094 
L 282.630335 81.235509 
L 282.54118 81.136107 
L 282.43488 81.016541 
L 282.431451 81.016954 
L 282.284002 80.928633 
L 282.284002 80.924211 
L 282.177702 80.777649 
L 282.174273 80.778059 
L 281.968531 80.691835 
L 281.858801 80.616162 
L 281.759359 80.516925 
L 281.64963 80.463239 
L 281.533043 80.365753 
L 281.423314 80.253903 
L 281.303297 80.156456 
L 281.193568 80.057626 
L 281.022116 79.974795 
L 281.022116 79.970318 
L 280.919245 79.928593 
L 280.912387 79.929394 
L 280.617489 79.856186 
L 280.548909 79.801307 
L 280.50776 79.806104 
L 280.350024 79.734549 
L 280.350024 79.716551 
L 280.25744 79.646276 
L 280.240295 79.648266 
L 280.024266 79.565134 
L 279.914536 79.460458 
L 279.780804 79.371929 
L 279.780804 79.367406 
L 279.780804 79.35836 
L 279.671075 79.361953 
L 279.2253 79.304582 
L 279.125857 79.293353 
L 279.11557 79.294539 
L 278.841247 79.217086 
L 278.752092 79.149985 
L 278.731518 79.152349 
L 278.604644 79.057577 
L 278.494914 78.969794 
L 278.333749 78.87859 
L 278.22402 78.76761 
L 277.990846 78.684164 
L 277.881116 78.609459 
L 277.713093 78.518246 
L 277.620509 78.473529 
L 277.603364 78.475462 
L 277.325612 78.396278 
L 277.239886 78.373665 
L 277.215883 78.376366 
L 276.646662 78.334266 
L 276.646662 78.329641 
L 276.540362 78.299974 
L 276.536933 78.30036 
L 276.015719 78.247829 
L 276.008861 78.239317 
L 275.90599 78.246267 
L 275.216753 78.221704 
L 275.216753 78.212381 
L 275.131027 78.203416 
L 275.172176 78.212756 
L 275.107024 78.206129 
L 274.829272 78.130116 
L 274.719542 78.100422 
L 274.596097 78.011377 
L 274.596097 78.006695 
L 274.506942 77.997987 
L 274.486368 78.000302 
L 273.927435 77.955289 
L 273.862283 77.934419 
L 273.817705 77.934735 
L 272.380938 77.988722 
L 272.271209 77.968032 
L 271.842579 77.907602 
L 271.736279 77.815082 
L 271.73285 77.81547 
L 271.352226 77.749045 
L 271.263071 77.658949 
L 271.242497 77.661271 
L 270.899593 77.590059 
L 270.807009 77.576575 
L 270.789864 77.578509 
L 269.747436 77.586031 
L 269.689142 77.578205 
L 269.692571 77.587443 
L 269.637707 77.58404 
L 268.567847 77.594768 
L 268.434114 77.600355 
L 266.555001 77.70461 
L 266.555001 77.699723 
L 266.445272 77.712437 
L 265.015362 77.77104 
L 265.015362 77.766115 
L 264.905633 77.778964 
L 264.230112 77.749594 
L 264.230112 77.744648 
L 264.151245 77.753913 
L 264.120383 77.752591 
L 262.975084 77.778472 
L 262.961368 77.770139 
L 262.865355 77.781505 
L 261.630901 77.818369 
L 261.545175 77.803535 
L 261.521172 77.8064 
L 260.746209 77.788512 
L 260.718777 77.776686 
L 260.63648 77.781507 
L 259.930098 77.755182 
L 259.875233 77.736468 
L 259.820368 77.743061 
L 259.038548 77.725563 
L 258.928818 77.687917 
L 258.483043 77.63462 
L 258.383601 77.595545 
L 258.373314 77.596784 
L 257.951542 77.540181 
L 257.903536 77.520349 
L 257.841813 77.527784 
L 257.430328 77.469592 
L 257.330886 77.425016 
L 257.320599 77.426254 
L 257.156005 77.337948 
L 257.049705 77.314638 
L 256.744521 77.242878 
L 256.634791 77.214686 
L 256.411904 77.132701 
L 256.305604 77.08841 
L 256.302175 77.088819 
L 255.935267 77.023644 
L 255.863258 77.006251 
L 255.825538 77.010754 
L 255.235743 76.971846 
L 255.184308 76.96234 
L 255.126014 76.969314 
L 254.738533 76.90588 
L 254.628804 76.845667 
L 254.399058 76.762926 
L 254.292758 76.723066 
L 254.289329 76.723474 
L 254.059583 76.640353 
L 253.949854 76.579643 
L 253.675531 76.501379 
L 253.565801 76.461538 
L 253.32234 76.379219 
L 253.226327 76.268667 
L 253.21261 76.27028 
L 253.065162 76.181478 
L 253.065162 76.176169 
L 252.962291 76.124473 
L 252.955433 76.125276 
L 252.831987 76.028017 
L 252.722258 75.971589 
L 252.540519 75.886103 
L 252.434219 75.818362 
L 252.43079 75.81876 
L 252.324489 75.724168 
L 252.21476 75.603023 
L 252.190757 75.525417 
L 252.190757 75.498619 
L 252.081028 75.312632 
L 251.919863 75.228829 
L 251.919863 75.223451 
L 251.816992 75.159771 
L 251.810134 75.160547 
L 251.628395 75.073323 
L 251.522094 75.020569 
L 251.518665 75.020955 
L 251.402078 74.942259 
L 251.402078 74.926045 
L 251.32321 73.451566 
L 251.292349 73.45481 
L 250.812283 73.395882 
L 250.78828 73.387448 
L 250.705983 73.3961 
L 250.459092 73.3123 
L 250.366508 73.223082 
L 250.349363 73.224874 
L 250.201914 73.130205 
L 250.092185 72.860379 
L 250.047608 72.765549 
L 250.047608 72.754499 
L 249.937878 72.433671 
L 249.869298 72.340792 
L 249.869298 72.329699 
L 249.766426 72.217892 
L 249.759568 72.218577 
L 249.608691 72.122449 
L 249.519536 72.036688 
L 249.498961 72.038727 
L 249.426952 71.973426 
L 249.426952 71.934406 
L 249.317222 70.555506 
L 249.14577 70.492338 
L 248.922883 70.428066 
L 248.922883 70.411124 
L 248.844015 70.361808 
L 248.813154 70.364615 
L 248.497682 70.29708 
L 248.497682 70.285749 
L 248.39824 70.175685 
L 248.387953 70.176613 
L 248.14792 70.090331 
L 248.045049 69.980099 
L 248.038191 69.980712 
L 247.976468 69.889402 
L 247.976468 69.878006 
L 247.866739 69.585297 
L 247.811874 69.538659 
L 247.808445 69.481785 
L 247.698716 69.296669 
L 247.602703 69.19599 
L 247.496403 69.073033 
L 247.492974 69.073325 
L 247.39696 68.972255 
L 247.300947 68.871006 
L 247.287231 68.872159 
L 247.191218 68.782255 
L 247.191218 68.770724 
L 247.084918 68.669964 
L 247.081489 68.670249 
L 246.951185 68.57128 
L 246.841456 68.429883 
L 246.601423 68.339384 
L 246.519127 68.311271 
L 246.491694 68.313506 
L 245.600144 68.310655 
L 245.600144 68.275632 
L 245.555567 67.664931 
L 245.490415 67.670046 
L 245.305247 67.608271 
L 245.305247 67.596523 
L 245.209234 67.539381 
L 245.195518 67.540451 
L 244.993204 67.450261 
L 244.890333 67.393408 
L 244.883475 67.393939 
L 244.595436 67.315834 
L 244.595436 67.309925 
L 244.492565 67.294202 
L 244.485706 67.29473 
L 243.892483 67.245611 
L 243.892483 67.233738 
L 243.820473 66.262207 
L 243.786183 66.264667 
L 243.542721 66.180369 
L 243.542721 66.17438 
L 243.432992 66.026307 
L 242.709464 65.975175 
L 242.709464 65.969147 
L 242.709464 65.957092 
L 242.599735 65.964836 
L 240.830351 65.981395 
L 240.830351 65.9753 
L 240.720622 65.983143 
L 238.560327 66.028442 
L 238.55004 66.010657 
L 238.450598 66.017882 
L 237.281296 65.997658 
L 237.240147 65.98821 
L 237.171566 65.993223 
L 234.925546 66.052346 
L 234.860394 66.038247 
L 234.815817 66.041566 
L 233.776818 66.011305 
L 233.708237 65.984609 
L 233.667089 65.987682 
L 233.337901 65.91021 
L 233.337901 65.903825 
L 233.245317 65.808477 
L 233.228172 65.809744 
L 232.9127 65.724182 
L 232.816687 65.673523 
L 232.802971 65.674528 
L 232.446351 65.597827 
L 232.340051 65.573405 
L 232.336622 65.573655 
L 231.928566 65.493728 
L 231.818837 65.449995 
L 231.493078 65.369969 
L 231.493078 65.363487 
L 231.462217 65.339779 
L 231.383349 65.345455 
L 230.91357 65.27527 
L 230.91357 65.26876 
L 230.838132 65.222069 
L 230.803841 65.224523 
L 230.292914 65.150056 
L 230.186614 65.111828 
L 230.183185 65.112072 
L 229.541955 65.059291 
L 229.541955 65.052715 
L 229.442513 65.026889 
L 229.432226 65.027619 
L 228.876721 64.961514 
L 228.794424 64.934289 
L 228.766992 64.936231 
L 228.307501 64.862694 
L 228.142907 64.787931 
L 227.899445 64.698496 
L 227.868584 64.673996 
L 227.789716 64.679488 
L 227.542825 64.58985 
L 227.481103 64.560702 
L 227.433096 64.56402 
L 227.196492 64.473214 
L 227.018182 64.371384 
L 226.610127 64.291539 
L 226.500397 64.211348 
L 226.298084 64.123691 
L 226.298084 64.116935 
L 226.195213 64.022377 
L 226.188355 64.022832 
L 226.013474 63.926052 
L 225.903745 63.858664 
L 225.77687 63.758292 
L 225.67057 63.649559 
L 225.667141 63.649779 
L 225.547125 63.548504 
L 225.451111 63.445486 
L 225.437395 63.446352 
L 225.231653 63.349996 
L 225.125353 63.288221 
L 225.121924 63.288435 
L 224.840743 63.20309 
L 224.840743 63.196228 
L 224.737871 63.15452 
L 224.731013 63.154943 
L 224.49441 63.059441 
L 224.398397 63.01709 
L 224.38468 63.017925 
L 224.017773 62.936694 
L 224.017773 62.929783 
L 223.908044 62.881086 
L 223.59943 62.7957 
L 223.59943 62.788762 
L 223.520563 62.779599 
L 223.489701 62.781444 
L 222.989062 62.706974 
L 222.879332 62.685611 
L 222.382122 62.610263 
L 222.354689 62.590875 
L 222.272392 62.595736 
L 222.052934 62.510447 
L 222.052934 62.503425 
L 221.946634 62.481548 
L 221.943205 62.481748 
L 221.538578 62.399749 
L 221.432278 62.377706 
L 221.428849 62.377905 
L 220.969358 62.298444 
L 220.869916 62.268743 
L 220.863057 62.269138 
L 220.286979 62.195652 
L 220.197824 62.165136 
L 220.17725 62.166312 
L 219.529161 62.096126 
L 219.398858 62.082049 
L 217.872936 62.061165 
L 217.807784 62.028653 
L 217.763206 62.031204 
L 216.652198 61.985647 
L 216.611049 61.951434 
L 216.542468 61.955357 
L 216.028113 61.874697 
L 215.921812 61.836616 
L 215.918383 61.83681 
L 214.135283 61.827435 
L 214.032412 61.810969 
L 214.025554 61.811362 
L 212.845964 61.774219 
L 212.815103 61.760946 
L 212.739664 61.765282 
L 211.285752 61.743256 
L 211.285752 61.735646 
L 211.176023 61.742006 
L 208.487656 61.792289 
L 208.487656 61.784524 
L 208.381356 61.790849 
L 206.454236 61.796895 
L 206.371939 61.786096 
L 206.365081 61.78651 
L 204.108773 61.812834 
L 204.005902 61.803119 
L 204.002473 61.803331 
L 201.492417 61.854623 
L 201.492417 61.846435 
L 201.420407 61.850987 
L 198.498866 61.931076 
L 198.382278 61.930313 
L 195.793354 61.991834 
L 195.793354 61.983271 
L 195.693912 61.989958 
L 191.301313 62.180942 
L 191.301313 62.172062 
L 191.191584 62.179891 
L 188.345482 62.278859 
L 188.345482 62.269756 
L 188.239181 62.277622 
L 186.078887 62.329255 
L 185.993161 62.28931 
L 185.972587 62.290867 
L 185.163333 62.249562 
L 185.159904 62.231091 
L 185.053604 62.239147 
L 184.350651 62.189028 
L 184.275212 62.175871 
L 184.24778 62.177952 
L 183.359659 62.150662 
L 183.359659 62.141136 
L 183.359659 62.131611 
L 183.24993 62.13997 
L 182.183499 62.116167 
L 182.183499 62.106536 
L 182.073769 62.114961 
L 181.360529 62.063391 
L 181.257658 62.013003 
L 181.2508 62.013528 
L 180.657576 61.951665 
L 180.57185 61.919074 
L 180.551276 61.920642 
L 180.03692 61.851817 
L 180.03692 61.841975 
L 179.927191 61.850312 
L 179.255099 61.792679 
L 179.169373 61.759492 
L 179.155657 61.760532 
L 178.394411 61.718628 
L 178.394411 61.708623 
L 178.356691 61.691467 
L 178.284681 61.696926 
L 177.568012 61.64071 
L 177.516577 61.624424 
L 177.458283 61.628842 
L 175.280843 61.694323 
L 175.280843 61.68401 
L 175.280843 61.673695 
L 175.171114 61.68225 
L 172.815364 61.764754 
L 172.815364 61.754189 
L 172.709064 61.762765 
L 171.131706 61.784737 
L 171.11799 61.764368 
L 171.021977 61.772258 
L 170.205866 61.785703 
L 170.151001 61.692529 
L 170.102995 61.696478 
L 166.382487 61.90179 
L 166.382487 61.890499 
L 166.272758 61.900122 
L 159.534697 62.391136 
L 159.421538 62.390311 
L 157.617864 62.463109 
L 157.504706 62.462362 
L 156.585723 62.457748 
L 156.534288 62.437944 
L 156.475994 62.444027 
L 155.773041 62.416405 
L 155.680457 62.324317 
L 155.663312 62.326101 
L 155.032369 62.289628 
L 155.032369 62.276791 
L 154.922639 62.288256 
L 154.500868 62.229232 
L 154.49058 62.19152 
L 154.391138 62.201879 
L 154.02766 62.13591 
L 153.938505 62.106116 
L 153.917931 62.108251 
L 153.389859 62.058491 
L 153.331565 62.03829 
L 153.28013 62.043629 
L 152.748629 61.99337 
L 152.645757 61.937818 
L 152.642328 61.938173 
L 152.361147 61.860921 
L 152.251418 61.805575 
L 152.007956 61.723556 
L 151.911943 61.666332 
L 151.898227 61.667719 
L 151.678768 61.595862 
L 151.678768 61.582413 
L 151.579326 61.48464 
L 151.569039 61.485662 
L 151.318719 61.402421 
L 151.198703 61.373628 
L 150.927809 61.291575 
L 150.862657 61.188975 
L 150.81808 61.193283 
L 150.680918 61.097272 
L 150.53004 61.043259 
L 150.386021 60.960904 
L 150.279721 60.860911 
L 150.269434 60.86187 
L 149.953962 60.780846 
L 149.881952 60.718319 
L 149.844233 60.721788 
L 149.127564 60.676498 
L 149.079557 60.638943 
L 149.017834 60.64462 
L 148.722937 60.573403 
L 148.582346 60.459372 
L 147.89311 60.422452 
L 147.851961 60.369171 
L 147.78338 60.375345 
L 147.389041 60.310643 
L 147.310173 60.245887 
L 147.279312 60.248634 
L 146.771814 60.192799 
L 146.665514 60.115228 
L 146.662085 60.11553 
L 145.900838 60.080624 
L 145.791109 60.016889 
L 145.39334 59.948554 
L 145.28704 59.898625 
L 145.283611 59.898922 
L 142.159756 60.074141 
L 142.046598 60.069218 
L 141.408797 60.019819 
L 141.309355 59.997791 
L 141.299068 59.998752 
L 139.663416 60.042864 
L 139.663416 60.026802 
L 139.553687 60.037368 
L 136.258381 60.253276 
L 136.258381 60.23636 
L 136.148651 60.247858 
L 135.383976 60.226182 
L 135.383976 60.209022 
L 135.274246 60.220637 
L 133.600875 60.296994 
L 133.600875 60.279331 
L 133.494575 60.291038 
L 132.400712 60.305825 
L 132.325273 60.278237 
L 132.30127 60.280935 
L 121.630101 61.390989 
L 121.568378 61.356933 
L 121.520371 61.364583 
L 121.16718 61.310584 
L 121.16718 61.288424 
L 121.057451 61.305931 
L 120.591102 61.269083 
L 120.52595 61.212156 
L 120.481373 61.219286 
L 120.467656 61.131444 
L 120.423079 61.13851 
L 120.316779 61.042443 
L 120.296204 61.045676 
L 120.255056 60.9616 
L 120.183046 60.814 
L 120.145327 60.819768 
L 120.052743 60.742893 
L 120.011594 60.703549 
L 119.943013 60.713926 
L 119.709839 60.657631 
L 119.60011 60.536131 
L 119.342932 60.482003 
L 119.236631 60.428165 
L 119.233202 60.428672 
L 118.941734 60.378517 
L 118.84915 60.321903 
L 118.832005 60.324422 
L 118.591972 60.265559 
L 118.513104 60.087985 
L 118.482243 60.0924 
L 116.692285 60.260607 
L 116.692285 60.235969 
L 116.582555 60.252728 
L 115.721867 60.286384 
L 115.721867 60.235971 
L 115.612137 60.253119 
L 115.018914 60.244852 
L 115.018914 60.21921 
L 114.909184 60.236609 
L 114.28167 60.25959 
L 114.28167 60.233483 
L 114.216518 60.139383 
L 114.171941 60.146496 
L 114.165083 60.095186 
L 113.482704 60.15191 
L 113.372975 56.247176 
L 113.287249 56.143117 
L 113.266675 56.089477 
L 113.17752 56.095146 
L 112.656306 56.07296 
L 112.652877 56.017313 
L 112.64259 55.822218 
L 112.543147 55.827968 
L 104.79352 56.178849 
L 104.776374 56.075207 
L 104.68379 56.082672 
L 101.703955 56.232658 
L 101.68681 56.117588 
L 101.594226 56.126023 
L 94.564696 56.880111 
L 90.240678 57.676215 
L 87.689473 58.421161 
L 85.666341 59.236238 
L 84.020402 60.133288 
L 82.652215 61.127802 
L 81.983553 61.732214 
L 81.983553 61.475337 
L 81.873824 61.580549 
L 80.803963 62.774966 
L 79.867836 64.156011 
L 79.806113 64.089382 
L 78.736253 66.293997 
L 78.012726 68.395081 
L 77.35435 71.016444 
L 76.757697 74.345423 
L 76.219338 78.666026 
L 75.735844 84.429579 
L 75.252349 93.033763 
L 74.875155 105.026122 
L 74.556254 122.816476 
L 74.288789 151.095958 
L 74.069331 200.243906 
L 73.897879 295.488 
L 73.897879 222.182069 
L 73.897879 53.568 
L 73.832727 53.568 
" clip-path="url(#pf14ac60918)" style="fill: none; stroke: #1f77b4; stroke-width: 1.5; stroke-linecap: square"/>
   </g>
   <g id="patch_3">
    <path d="M 57.6 307.584 
L 57.6 41.472 
" style="fill: none; stroke: #000000; stroke-width: 0.8; stroke-linejoin: miter; stroke-linecap: square"/>
   </g>
   <g id="patch_4">
    <path d="M 414.72 307.584 
L 414.72 41.472 
" style="fill: none; stroke: #000000; stroke-width: 0.8; stroke-linejoin: miter; stroke-linecap: square"/>
   </g>
   <g id="patch_5">
    <path d="M 57.6 307.584 
L 414.72 307.584 
" style="fill: none; stroke: #000000; stroke-width: 0.8; stroke-linejoin: miter; stroke-linecap: square"/>
   </g>
   <g id="patch_6">
    <path d="M 57.6 41.472 
L 414.72 41.472 
" style="fill: none; stroke: #000000; stroke-width: 0.8; stroke-linejoin: miter; stroke-linecap: square"/>
   </g>
   <g id="text_15">
    <!-- Precision Recall -->
    <g transform="translate(189.584063 35.472) scale(0.12 -0.12)">
     <defs>
      <path id="DejaVuSans-50" d="M 1259 4147 
L 1259 2394 
L 2053 2394 
Q 2494 2394 2734 2622 
Q 2975 2850 2975 3272 
Q 2975 3691 2734 3919 
Q 2494 4147 2053 4147 
L 1259 4147 
z
M 628 4666 
L 2053 4666 
Q 2838 4666 3239 4311 
Q 3641 3956 3641 3272 
Q 3641 2581 3239 2228 
Q 2838 1875 2053 1875 
L 1259 1875 
L 1259 0 
L 628 0 
L 628 4666 
z
" transform="scale(0.015625)"/>
      <path id="DejaVuSans-72" d="M 2631 2963 
Q 2534 3019 2420 3045 
Q 2306 3072 2169 3072 
Q 1681 3072 1420 2755 
Q 1159 2438 1159 1844 
L 1159 0 
L 581 0 
L 581 3500 
L 1159 3500 
L 1159 2956 
Q 1341 3275 1631 3429 
Q 1922 3584 2338 3584 
Q 2397 3584 2469 3576 
Q 2541 3569 2628 3553 
L 2631 2963 
z
" transform="scale(0.015625)"/>
      <path id="DejaVuSans-65" d="M 3597 1894 
L 3597 1613 
L 953 1613 
Q 991 1019 1311 708 
Q 1631 397 2203 397 
Q 2534 397 2845 478 
Q 3156 559 3463 722 
L 3463 178 
Q 3153 47 2828 -22 
Q 2503 -91 2169 -91 
Q 1331 -91 842 396 
Q 353 884 353 1716 
Q 353 2575 817 3079 
Q 1281 3584 2069 3584 
Q 2775 3584 3186 3129 
Q 3597 2675 3597 1894 
z
M 3022 2063 
Q 3016 2534 2758 2815 
Q 2500 3097 2075 3097 
Q 1594 3097 1305 2825 
Q 1016 2553 972 2059 
L 3022 2063 
z
" transform="scale(0.015625)"/>
      <path id="DejaVuSans-63" d="M 3122 3366 
L 3122 2828 
Q 2878 2963 2633 3030 
Q 2388 3097 2138 3097 
Q 1578 3097 1268 2742 
Q 959 2388 959 1747 
Q 959 1106 1268 751 
Q 1578 397 2138 397 
Q 2388 397 2633 464 
Q 2878 531 3122 666 
L 3122 134 
Q 2881 22 2623 -34 
Q 2366 -91 2075 -91 
Q 1284 -91 818 406 
Q 353 903 353 1747 
Q 353 2603 823 3093 
Q 1294 3584 2113 3584 
Q 2378 3584 2631 3529 
Q 2884 3475 3122 3366 
z
" transform="scale(0.015625)"/>
      <path id="DejaVuSans-69" d="M 603 3500 
L 1178 3500 
L 1178 0 
L 603 0 
L 603 3500 
z
M 603 4863 
L 1178 4863 
L 1178 4134 
L 603 4134 
L 603 4863 
z
" transform="scale(0.015625)"/>
      <path id="DejaVuSans-73" d="M 2834 3397 
L 2834 2853 
Q 2591 2978 2328 3040 
Q 2066 3103 1784 3103 
Q 1356 3103 1142 2972 
Q 928 2841 928 2578 
Q 928 2378 1081 2264 
Q 1234 2150 1697 2047 
L 1894 2003 
Q 2506 1872 2764 1633 
Q 3022 1394 3022 966 
Q 3022 478 2636 193 
Q 2250 -91 1575 -91 
Q 1294 -91 989 -36 
Q 684 19 347 128 
L 347 722 
Q 666 556 975 473 
Q 1284 391 1588 391 
Q 1994 391 2212 530 
Q 2431 669 2431 922 
Q 2431 1156 2273 1281 
Q 2116 1406 1581 1522 
L 1381 1569 
Q 847 1681 609 1914 
Q 372 2147 372 2553 
Q 372 3047 722 3315 
Q 1072 3584 1716 3584 
Q 2034 3584 2315 3537 
Q 2597 3491 2834 3397 
z
" transform="scale(0.015625)"/>
      <path id="DejaVuSans-6f" d="M 1959 3097 
Q 1497 3097 1228 2736 
Q 959 2375 959 1747 
Q 959 1119 1226 758 
Q 1494 397 1959 397 
Q 2419 397 2687 759 
Q 2956 1122 2956 1747 
Q 2956 2369 2687 2733 
Q 2419 3097 1959 3097 
z
M 1959 3584 
Q 2709 3584 3137 3096 
Q 3566 2609 3566 1747 
Q 3566 888 3137 398 
Q 2709 -91 1959 -91 
Q 1206 -91 779 398 
Q 353 888 353 1747 
Q 353 2609 779 3096 
Q 1206 3584 1959 3584 
z
" transform="scale(0.015625)"/>
      <path id="DejaVuSans-6e" d="M 3513 2113 
L 3513 0 
L 2938 0 
L 2938 2094 
Q 2938 2591 2744 2837 
Q 2550 3084 2163 3084 
Q 1697 3084 1428 2787 
Q 1159 2491 1159 1978 
L 1159 0 
L 581 0 
L 581 3500 
L 1159 3500 
L 1159 2956 
Q 1366 3272 1645 3428 
Q 1925 3584 2291 3584 
Q 2894 3584 3203 3211 
Q 3513 2838 3513 2113 
z
" transform="scale(0.015625)"/>
      <path id="DejaVuSans-20" transform="scale(0.015625)"/>
      <path id="DejaVuSans-52" d="M 2841 2188 
Q 3044 2119 3236 1894 
Q 3428 1669 3622 1275 
L 4263 0 
L 3584 0 
L 2988 1197 
Q 2756 1666 2539 1819 
Q 2322 1972 1947 1972 
L 1259 1972 
L 1259 0 
L 628 0 
L 628 4666 
L 2053 4666 
Q 2853 4666 3247 4331 
Q 3641 3997 3641 3322 
Q 3641 2881 3436 2590 
Q 3231 2300 2841 2188 
z
M 1259 4147 
L 1259 2491 
L 2053 2491 
Q 2509 2491 2742 2702 
Q 2975 2913 2975 3322 
Q 2975 3731 2742 3939 
Q 2509 4147 2053 4147 
L 1259 4147 
z
" transform="scale(0.015625)"/>
      <path id="DejaVuSans-61" d="M 2194 1759 
Q 1497 1759 1228 1600 
Q 959 1441 959 1056 
Q 959 750 1161 570 
Q 1363 391 1709 391 
Q 2188 391 2477 730 
Q 2766 1069 2766 1631 
L 2766 1759 
L 2194 1759 
z
M 3341 1997 
L 3341 0 
L 2766 0 
L 2766 531 
Q 2569 213 2275 61 
Q 1981 -91 1556 -91 
Q 1019 -91 701 211 
Q 384 513 384 1019 
Q 384 1609 779 1909 
Q 1175 2209 1959 2209 
L 2766 2209 
L 2766 2266 
Q 2766 2663 2505 2880 
Q 2244 3097 1772 3097 
Q 1472 3097 1187 3025 
Q 903 2953 641 2809 
L 641 3341 
Q 956 3463 1253 3523 
Q 1550 3584 1831 3584 
Q 2591 3584 2966 3190 
Q 3341 2797 3341 1997 
z
" transform="scale(0.015625)"/>
      <path id="DejaVuSans-6c" d="M 603 4863 
L 1178 4863 
L 1178 0 
L 603 0 
L 603 4863 
z
" transform="scale(0.015625)"/>
     </defs>
     <use xlink:href="#DejaVuSans-50"/>
     <use xlink:href="#DejaVuSans-72" transform="translate(58.552734 0)"/>
     <use xlink:href="#DejaVuSans-65" transform="translate(97.416016 0)"/>
     <use xlink:href="#DejaVuSans-63" transform="translate(158.939453 0)"/>
     <use xlink:href="#DejaVuSans-69" transform="translate(213.919922 0)"/>
     <use xlink:href="#DejaVuSans-73" transform="translate(241.703125 0)"/>
     <use xlink:href="#DejaVuSans-69" transform="translate(293.802734 0)"/>
     <use xlink:href="#DejaVuSans-6f" transform="translate(321.585938 0)"/>
     <use xlink:href="#DejaVuSans-6e" transform="translate(382.767578 0)"/>
     <use xlink:href="#DejaVuSans-20" transform="translate(446.146484 0)"/>
     <use xlink:href="#DejaVuSans-52" transform="translate(477.933594 0)"/>
     <use xlink:href="#DejaVuSans-65" transform="translate(542.916016 0)"/>
     <use xlink:href="#DejaVuSans-63" transform="translate(604.439453 0)"/>
     <use xlink:href="#DejaVuSans-61" transform="translate(659.419922 0)"/>
     <use xlink:href="#DejaVuSans-6c" transform="translate(720.699219 0)"/>
     <use xlink:href="#DejaVuSans-6c" transform="translate(748.482422 0)"/>
    </g>
   </g>
  </g>
 </g>
 <defs>
  <clipPath id="pf14ac60918">
   <rect x="57.6" y="41.472" width="357.12" height="266.112"/>
  </clipPath>
 </defs>
</svg>
