<?xml version="1.0" encoding="utf-8" standalone="no"?>
<!DOCTYPE svg PUBLIC "-//W3C//DTD SVG 1.1//EN"
  "http://www.w3.org/Graphics/SVG/1.1/DTD/svg11.dtd">
<svg xmlns:xlink="http://www.w3.org/1999/xlink" width="460.8pt" height="345.6pt" viewBox="0 0 460.8 345.6" xmlns="http://www.w3.org/2000/svg" version="1.1">
 <metadata>
  <rdf:RDF xmlns:dc="http://purl.org/dc/elements/1.1/" xmlns:cc="http://creativecommons.org/ns#" xmlns:rdf="http://www.w3.org/1999/02/22-rdf-syntax-ns#">
   <cc:Work>
    <dc:type rdf:resource="http://purl.org/dc/dcmitype/StillImage"/>
    <dc:date>2026-03-16T13:32:33.431591</dc:date>
    <dc:format>image/svg+xml</dc:format>
    <dc:creator>
     <cc:Agent>
      <dc:title>Matplotlib v3.10.8, https://matplotlib.org/</dc:title>
     </cc:Agent>
    </dc:creator>
   </cc:Work>
  </rdf:RDF>
 </metadata>
 <defs>
  <style type="text/css">*{stroke-linejoin: round; stroke-linecap: butt}</style>
 </defs>
 <g id="figure_1">
  <g id="patch_1">
   <path d="M 0 345.6 
L 460.8 345.6 
L 460.8 0 
L 0 0 
z
" style="fill: #ffffff"/>
  </g>
  <g id="axes_1">
   <g id="patch_2">
    <path d="M 57.6 307.584 
L 414.72 307.584 
L 414.72 41.472 
L 57.6 41.472 
z
" style="fill: #ffffff"/>
   </g>
   <g id="matplotlib.axis_1">
    <g id="xtick_1">
     <g id="line2d_1">
      <defs>
       <path id="md22b9c76a6" d="M 0 0 
L 0 3.5 
" style="stroke: #000000; stroke-width: 0.8"/>
      </defs>
      <g>
       <use xlink:href="#md22b9c76a6" x="73.832727" y="307.584" style="stroke: #000000; stroke-width: 0.8"/>
      </g>
     </g>
     <g id="text_1">
      <!-- 0.0 -->
      <g transform="translate(65.881165 322.182437) scale(0.1 -0.1)">
       <defs>
        <path id="DejaVuSans-30" d="M 2034 4250 
Q 1547 4250 1301 3770 
Q 1056 3291 1056 2328 
Q 1056 1369 1301 889 
Q 1547 409 2034 409 
Q 2525 409 2770 889 
Q 3016 1369 3016 2328 
Q 3016 3291 2770 3770 
Q 2525 4250 2034 4250 
z
M 2034 4750 
Q 2819 4750 3233 4129 
Q 3647 3509 3647 2328 
Q 3647 1150 3233 529 
Q 2819 -91 2034 -91 
Q 1250 -91 836 529 
Q 422 1150 422 2328 
Q 422 3509 836 4129 
Q 1250 4750 2034 4750 
z
" transform="scale(0.015625)"/>
        <path id="DejaVuSans-2e" d="M 684 794 
L 1344 794 
L 1344 0 
L 684 0 
L 684 794 
z
" transform="scale(0.015625)"/>
       </defs>
       <use xlink:href="#DejaVuSans-30"/>
       <use xlink:href="#DejaVuSans-2e" transform="translate(63.623047 0)"/>
       <use xlink:href="#DejaVuSans-30" transform="translate(95.410156 0)"/>
      </g>
     </g>
    </g>
    <g id="xtick_2">
     <g id="line2d_2">
      <g>
       <use xlink:href="#md22b9c76a6" x="138.763636" y="307.584" style="stroke: #000000; stroke-width: 0.8"/>
      </g>
     </g>
     <g id="text_2">
      <!-- 0.2 -->
      <g transform="translate(130.812074 322.182437) scale(0.1 -0.1)">
       <defs>
        <path id="DejaVuSans-32" d="M 1228 531 
L 3431 531 
L 3431 0 
L 469 0 
L 469 531 
Q 828 903 1448 1529 
Q 2069 2156 2228 2338 
Q 2531 2678 2651 2914 
Q 2772 3150 2772 3378 
Q 2772 3750 2511 3984 
Q 2250 4219 1831 4219 
Q 1534 4219 1204 4116 
Q 875 4013 500 3803 
L 500 4441 
Q 881 4594 1212 4672 
Q 1544 4750 1819 4750 
Q 2544 4750 2975 4387 
Q 3406 4025 3406 3419 
Q 3406 3131 3298 2873 
Q 3191 2616 2906 2266 
Q 2828 2175 2409 1742 
Q 1991 1309 1228 531 
z
" transform="scale(0.015625)"/>
       </defs>
       <use xlink:href="#DejaVuSans-30"/>
       <use xlink:href="#DejaVuSans-2e" transform="translate(63.623047 0)"/>
       <use xlink:href="#DejaVuSans-32" transform="translate(95.410156 0)"/>
      </g>
     </g>
    </g>
    <g id="xtick_3">
     <g id="line2d_3">
      <g>
       <use xlink:href="#md22b9c76a6" x="203.694545" y="307.584" style="stroke: #000000; stroke-width: 0.8"/>
      </g>
     </g>
     <g id="text_3">
      <!-- 0.4 -->
      <g transform="translate(195.742983 322.182437) scale(0.1 -0.1)">
       <defs>
        <path id="DejaVuSans-34" d="M 2419 4116 
L 825 1625 
L 2419 1625 
L 2419 4116 
z
M 2253 4666 
L 3047 4666 
L 3047 1625 
L 3713 1625 
L 3713 1100 
L 3047 1100 
L 3047 0 
L 2419 0 
L 2419 1100 
L 313 1100 
L 313 1709 
L 2253 4666 
z
" transform="scale(0.015625)"/>
       </defs>
       <use xlink:href="#DejaVuSans-30"/>
       <use xlink:href="#DejaVuSans-2e" transform="translate(63.623047 0)"/>
       <use xlink:href="#DejaVuSans-34" transform="translate(95.410156 0)"/>
      </g>
     </g>
    </g>
    <g id="xtick_4">
     <g id="line2d_4">
      <g>
       <use xlink:href="#md22b9c76a6" x="268.625455" y="307.584" style="stroke: #000000; stroke-width: 0.8"/>
      </g>
     </g>
     <g id="text_4">
      <!-- 0.6 -->
      <g transform="translate(260.673892 322.182437) scale(0.1 -0.1)">
       <defs>
        <path id="DejaVuSans-36" d="M 2113 2584 
Q 1688 2584 1439 2293 
Q 1191 2003 1191 1497 
Q 1191 994 1439 701 
Q 1688 409 2113 409 
Q 2538 409 2786 701 
Q 3034 994 3034 1497 
Q 3034 2003 2786 2293 
Q 2538 2584 2113 2584 
z
M 3366 4563 
L 3366 3988 
Q 3128 4100 2886 4159 
Q 2644 4219 2406 4219 
Q 1781 4219 1451 3797 
Q 1122 3375 1075 2522 
Q 1259 2794 1537 2939 
Q 1816 3084 2150 3084 
Q 2853 3084 3261 2657 
Q 3669 2231 3669 1497 
Q 3669 778 3244 343 
Q 2819 -91 2113 -91 
Q 1303 -91 875 529 
Q 447 1150 447 2328 
Q 447 3434 972 4092 
Q 1497 4750 2381 4750 
Q 2619 4750 2861 4703 
Q 3103 4656 3366 4563 
z
" transform="scale(0.015625)"/>
       </defs>
       <use xlink:href="#DejaVuSans-30"/>
       <use xlink:href="#DejaVuSans-2e" transform="translate(63.623047 0)"/>
       <use xlink:href="#DejaVuSans-36" transform="translate(95.410156 0)"/>
      </g>
     </g>
    </g>
    <g id="xtick_5">
     <g id="line2d_5">
      <g>
       <use xlink:href="#md22b9c76a6" x="333.556364" y="307.584" style="stroke: #000000; stroke-width: 0.8"/>
      </g>
     </g>
     <g id="text_5">
      <!-- 0.8 -->
      <g transform="translate(325.604801 322.182437) scale(0.1 -0.1)">
       <defs>
        <path id="DejaVuSans-38" d="M 2034 2216 
Q 1584 2216 1326 1975 
Q 1069 1734 1069 1313 
Q 1069 891 1326 650 
Q 1584 409 2034 409 
Q 2484 409 2743 651 
Q 3003 894 3003 1313 
Q 3003 1734 2745 1975 
Q 2488 2216 2034 2216 
z
M 1403 2484 
Q 997 2584 770 2862 
Q 544 3141 544 3541 
Q 544 4100 942 4425 
Q 1341 4750 2034 4750 
Q 2731 4750 3128 4425 
Q 3525 4100 3525 3541 
Q 3525 3141 3298 2862 
Q 3072 2584 2669 2484 
Q 3125 2378 3379 2068 
Q 3634 1759 3634 1313 
Q 3634 634 3220 271 
Q 2806 -91 2034 -91 
Q 1263 -91 848 271 
Q 434 634 434 1313 
Q 434 1759 690 2068 
Q 947 2378 1403 2484 
z
M 1172 3481 
Q 1172 3119 1398 2916 
Q 1625 2713 2034 2713 
Q 2441 2713 2670 2916 
Q 2900 3119 2900 3481 
Q 2900 3844 2670 4047 
Q 2441 4250 2034 4250 
Q 1625 4250 1398 4047 
Q 1172 3844 1172 3481 
z
" transform="scale(0.015625)"/>
       </defs>
       <use xlink:href="#DejaVuSans-30"/>
       <use xlink:href="#DejaVuSans-2e" transform="translate(63.623047 0)"/>
       <use xlink:href="#DejaVuSans-38" transform="translate(95.410156 0)"/>
      </g>
     </g>
    </g>
    <g id="xtick_6">
     <g id="line2d_6">
      <g>
       <use xlink:href="#md22b9c76a6" x="398.487273" y="307.584" style="stroke: #000000; stroke-width: 0.8"/>
      </g>
     </g>
     <g id="text_6">
      <!-- 1.0 -->
      <g transform="translate(390.53571 322.182437) scale(0.1 -0.1)">
       <defs>
        <path id="DejaVuSans-31" d="M 794 531 
L 1825 531 
L 1825 4091 
L 703 3866 
L 703 4441 
L 1819 4666 
L 2450 4666 
L 2450 531 
L 3481 531 
L 3481 0 
L 794 0 
L 794 531 
z
" transform="scale(0.015625)"/>
       </defs>
       <use xlink:href="#DejaVuSans-31"/>
       <use xlink:href="#DejaVuSans-2e" transform="translate(63.623047 0)"/>
       <use xlink:href="#DejaVuSans-30" transform="translate(95.410156 0)"/>
      </g>
     </g>
    </g>
   </g>
   <g id="matplotlib.axis_2">
    <g id="ytick_1">
     <g id="line2d_7">
      <defs>
       <path id="m6e5822ac95" d="M 0 0 
L -3.5 0 
" style="stroke: #000000; stroke-width: 0.8"/>
      </defs>
      <g>
       <use xlink:href="#m6e5822ac95" x="57.6" y="295.488" style="stroke: #000000; stroke-width: 0.8"/>
      </g>
     </g>
     <g id="text_7">
      <!-- 0.0 -->
      <g transform="translate(34.696875 299.287219) scale(0.1 -0.1)">
       <use xlink:href="#DejaVuSans-30"/>
       <use xlink:href="#DejaVuSans-2e" transform="translate(63.623047 0)"/>
       <use xlink:href="#DejaVuSans-30" transform="translate(95.410156 0)"/>
      </g>
     </g>
    </g>
    <g id="ytick_2">
     <g id="line2d_8">
      <g>
       <use xlink:href="#m6e5822ac95" x="57.6" y="247.104" style="stroke: #000000; stroke-width: 0.8"/>
      </g>
     </g>
     <g id="text_8">
      <!-- 0.2 -->
      <g transform="translate(34.696875 250.903219) scale(0.1 -0.1)">
       <use xlink:href="#DejaVuSans-30"/>
       <use xlink:href="#DejaVuSans-2e" transform="translate(63.623047 0)"/>
       <use xlink:href="#DejaVuSans-32" transform="translate(95.410156 0)"/>
      </g>
     </g>
    </g>
    <g id="ytick_3">
     <g id="line2d_9">
      <g>
       <use xlink:href="#m6e5822ac95" x="57.6" y="198.72" style="stroke: #000000; stroke-width: 0.8"/>
      </g>
     </g>
     <g id="text_9">
      <!-- 0.4 -->
      <g transform="translate(34.696875 202.519219) scale(0.1 -0.1)">
       <use xlink:href="#DejaVuSans-30"/>
       <use xlink:href="#DejaVuSans-2e" transform="translate(63.623047 0)"/>
       <use xlink:href="#DejaVuSans-34" transform="translate(95.410156 0)"/>
      </g>
     </g>
    </g>
    <g id="ytick_4">
     <g id="line2d_10">
      <g>
       <use xlink:href="#m6e5822ac95" x="57.6" y="150.336" style="stroke: #000000; stroke-width: 0.8"/>
      </g>
     </g>
     <g id="text_10">
      <!-- 0.6 -->
      <g transform="translate(34.696875 154.135219) scale(0.1 -0.1)">
       <use xlink:href="#DejaVuSans-30"/>
       <use xlink:href="#DejaVuSans-2e" transform="translate(63.623047 0)"/>
       <use xlink:href="#DejaVuSans-36" transform="translate(95.410156 0)"/>
      </g>
     </g>
    </g>
    <g id="ytick_5">
     <g id="line2d_11">
      <g>
       <use xlink:href="#m6e5822ac95" x="57.6" y="101.952" style="stroke: #000000; stroke-width: 0.8"/>
      </g>
     </g>
     <g id="text_11">
      <!-- 0.8 -->
      <g transform="translate(34.696875 105.751219) scale(0.1 -0.1)">
       <use xlink:href="#DejaVuSans-30"/>
       <use xlink:href="#DejaVuSans-2e" transform="translate(63.623047 0)"/>
       <use xlink:href="#DejaVuSans-38" transform="translate(95.410156 0)"/>
      </g>
     </g>
    </g>
    <g id="ytick_6">
     <g id="line2d_12">
      <g>
       <use xlink:href="#m6e5822ac95" x="57.6" y="53.568" style="stroke: #000000; stroke-width: 0.8"/>
      </g>
     </g>
     <g id="text_12">
      <!-- 1.0 -->
      <g transform="translate(34.696875 57.367219) scale(0.1 -0.1)">
       <use xlink:href="#DejaVuSans-31"/>
       <use xlink:href="#DejaVuSans-2e" transform="translate(63.623047 0)"/>
       <use xlink:href="#DejaVuSans-30" transform="translate(95.410156 0)"/>
      </g>
     </g>
    </g>
   </g>
   <g id="line2d_13">
    <path d="M 73.832727 295.488 
L 73.832727 295.439451 
L 73.939432 295.439451 
L 74.11404 295.439451 
L 74.11404 295.329578 
L 74.220745 266.568393 
L 74.269247 266.553062 
L 74.269247 266.53262 
L 74.375952 266.008807 
L 75.006481 265.942372 
L 75.113186 263.93655 
L 75.118036 263.93655 
L 75.118036 263.836898 
L 75.224741 261.718648 
L 75.244142 261.652213 
L 75.350847 260.92143 
L 75.4139 260.824332 
L 75.520605 259.83292 
L 75.530305 259.812478 
L 75.530305 259.723047 
L 75.63701 250.95109 
L 75.646711 250.920427 
L 75.646711 250.869324 
L 75.753416 246.121786 
L 75.763116 246.096234 
L 75.763116 246.032355 
L 75.869821 242.235347 
L 75.894072 242.140805 
L 75.894072 242.125474 
L 76.000777 241.136616 
L 76.010478 241.085512 
L 76.010478 241.067626 
L 76.117182 240.262742 
L 76.126883 240.198863 
L 76.233588 239.401644 
L 76.248138 239.370982 
L 76.248138 239.294326 
L 76.349993 238.509884 
L 76.403346 238.405121 
L 76.510051 238.042285 
L 76.539152 237.970739 
L 76.539152 237.932412 
L 76.645857 237.480143 
L 76.689509 237.390712 
L 76.796214 236.846457 
L 76.825315 236.757026 
L 76.825315 236.739139 
L 76.93202 235.732396 
L 76.951421 235.66085 
L 76.951421 235.632743 
L 77.058126 234.646441 
L 77.072676 234.585117 
L 77.072676 234.569785 
L 77.179381 233.550266 
L 77.184232 233.550266 
L 77.184232 233.440393 
L 77.290936 229.247331 
L 77.300637 229.203893 
L 77.300637 229.147678 
L 77.37339 223.674468 
L 77.412192 223.674468 
L 77.412192 223.564595 
L 77.518897 221.270037 
L 77.523747 221.270037 
L 77.523747 221.167829 
L 77.630452 218.101605 
L 77.635302 218.101605 
L 77.635302 217.994287 
L 77.742007 216.933884 
L 77.766258 216.836787 
L 77.872963 215.904144 
L 77.887514 215.822378 
L 77.994219 215.017494 
L 78.00877 214.997053 
L 78.00877 214.925507 
L 78.115474 213.630028 
L 78.125175 213.619807 
L 78.125175 213.53293 
L 78.23188 212.079029 
L 78.260981 212.027925 
L 78.260981 211.971711 
L 78.367686 209.127788 
L 78.377386 208.959146 
L 78.484091 204.239715 
L 78.493792 204.163059 
L 78.493792 204.129842 
L 78.600497 200.613905 
L 78.605347 200.613905 
L 78.605347 200.504032 
L 78.712052 197.67544 
L 78.726603 197.565566 
L 78.833307 195.14836 
L 78.838158 195.14836 
L 78.838158 195.038486 
L 78.944863 192.644276 
L 78.949713 192.644276 
L 78.949713 192.544624 
L 79.056418 191.016622 
L 79.075819 190.91697 
L 79.182524 189.511617 
L 79.211625 189.478399 
L 79.211625 189.470734 
L 79.31833 188.558532 
L 79.32318 188.558532 
L 79.32318 188.486987 
L 79.429885 187.068858 
L 79.444436 186.969206 
L 79.551141 186.343185 
L 79.585092 186.240977 
L 79.691797 185.607291 
L 79.725749 185.502528 
L 79.827603 185.04004 
L 79.876105 184.935277 
L 79.98281 184.495785 
L 80.007062 184.421684 
L 80.113766 183.803329 
L 80.171969 183.698566 
L 80.273824 183.338285 
L 80.317476 183.251409 
L 80.317476 183.230967 
L 80.41933 182.962672 
L 80.472683 182.86302 
L 80.579388 182.653495 
L 80.637591 182.546177 
L 80.744295 182.387755 
L 80.851 182.280438 
L 80.952855 182.170564 
L 81.020758 182.063247 
L 81.020758 182.060691 
L 81.127463 181.889494 
L 81.209917 181.800062 
L 81.311772 181.526657 
L 81.350573 181.419339 
L 81.457278 181.194483 
L 81.525181 181.08461 
L 81.631886 180.767767 
L 81.670688 180.668114 
L 81.777393 180.420261 
L 81.806494 180.318054 
L 81.913199 179.906669 
L 81.918049 179.906669 
L 81.918049 179.809572 
L 82.024754 179.318976 
L 82.044155 179.226989 
L 82.15086 178.779831 
L 82.170261 178.715952 
L 82.272116 178.312232 
L 82.291517 178.261128 
L 82.398222 177.811415 
L 82.441874 177.701542 
L 82.548579 177.328485 
L 82.592231 177.228833 
L 82.698935 176.904324 
L 82.742587 176.797006 
L 82.742587 176.794451 
L 82.854143 176.628364 
L 82.960847 176.181206 
L 82.980248 176.127547 
L 83.086953 174.717084 
L 83.106354 174.607211 
L 83.213059 172.902901 
L 83.22276 172.833911 
L 83.22276 172.793028 
L 83.329464 170.733547 
L 83.344015 170.644116 
L 83.45072 169.417626 
L 83.465271 169.317974 
L 83.567125 169.090562 
L 83.712632 168.998575 
L 83.770835 168.773719 
L 83.809637 168.773719 
L 84.53717 168.743057 
L 84.53717 168.671511 
L 84.643875 168.147698 
L 84.716628 168.042935 
L 84.823333 167.83341 
L 84.891236 167.726092 
L 84.988241 167.501236 
L 85.546016 167.450132 
L 85.546016 167.391363 
L 85.652721 166.635027 
L 85.769127 166.525154 
L 85.875832 166.425502 
L 86.011638 166.315629 
L 86.113493 166.213421 
L 86.244449 166.103548 
L 86.331753 166.052445 
L 86.477259 165.947682 
L 86.583964 165.868471 
L 86.884678 165.758598 
L 86.981683 165.725381 
L 87.190242 165.615508 
L 87.296947 165.408537 
L 87.423053 165.298664 
L 87.515207 165.017594 
L 87.520057 165.017594 
L 87.617062 164.923052 
L 87.723767 164.698195 
L 88.994525 164.598543 
L 89.10123 164.460563 
L 89.232186 164.358356 
L 89.338891 164.294476 
L 89.663856 164.184603 
L 89.770561 164.141165 
L 90.080975 164.031292 
L 90.18283 163.87287 
L 90.279834 163.775773 
L 90.386539 163.303063 
L 90.62905 163.19319 
L 90.62905 163.18808 
L 90.706654 163.18808 
L 91.827056 163.080762 
L 91.933761 162.904454 
L 92.030765 162.797136 
L 92.13747 162.694929 
L 92.316928 162.587611 
L 92.423633 162.562059 
L 92.588541 162.457296 
L 92.690395 162.344868 
L 92.7971 162.234995 
L 92.894105 162.074018 
L 93.00081 161.9667 
L 93.102664 161.874714 
L 93.189968 161.764841 
L 93.296673 161.624305 
L 93.369427 161.522098 
L 93.476132 161.333014 
L 93.548885 161.228251 
L 93.65559 161.026392 
L 93.718643 160.93185 
L 93.815647 160.765763 
L 93.88355 160.683997 
L 93.88355 160.673776 
L 93.990255 160.328826 
L 94.029057 160.264946 
L 94.135762 159.746243 
L 94.198815 159.664477 
L 94.30552 159.391072 
L 94.383123 159.286309 
L 94.383123 159.281199 
L 94.489828 159.023125 
L 94.53348 158.949025 
L 94.53348 158.918362 
L 94.640185 158.765051 
L 94.712938 158.678175 
L 94.819643 158.320449 
L 94.868146 158.210575 
L 94.974851 157.911619 
L 95.028203 157.804301 
L 95.130058 157.479792 
L 95.168859 157.369919 
L 95.275564 156.754119 
L 95.294965 156.682574 
L 95.40167 156.191978 
L 95.440472 156.107657 
L 95.542327 155.333435 
L 95.561728 155.254224 
L 95.663582 154.421233 
L 95.702384 154.331802 
L 95.809089 153.437486 
L 95.83334 153.401713 
L 95.940045 152.584054 
L 95.954596 152.481846 
L 96.061301 150.920627 
L 96.075851 150.82864 
L 96.177706 149.691582 
L 96.182556 149.691582 
L 96.216508 149.589374 
L 96.323213 148.758939 
L 96.362014 148.649066 
L 96.459019 148.396102 
L 96.468719 148.396102 
L 96.589975 148.286229 
L 96.69668 148.015379 
L 96.837336 147.905506 
L 96.944041 147.512007 
L 96.953742 147.448128 
L 97.060447 146.433718 
L 97.1332 146.331511 
L 97.239905 145.856246 
L 97.35631 145.761704 
L 97.463015 145.544513 
L 97.501817 145.457637 
L 97.608522 145.069248 
L 97.618222 144.977262 
L 97.618222 144.959375 
L 97.724927 144.499442 
L 97.77828 144.397234 
L 97.884985 144.093167 
L 97.909236 144.00118 
L 98.015941 143.658785 
L 98.151747 143.551467 
L 98.258452 143.433929 
L 98.379707 143.326611 
L 98.481562 143.155413 
L 98.641619 143.048095 
L 98.748324 142.917781 
L 98.918082 142.807908 
L 99.024787 142.672483 
L 99.102391 142.575386 
L 99.209095 142.197218 
L 99.262448 142.0899 
L 99.359452 141.964696 
L 99.471008 141.854823 
L 99.577712 141.796054 
L 99.635915 141.691291 
L 99.74262 141.596749 
L 99.834774 141.486876 
L 99.936629 141.338675 
L 100.014233 141.233913 
L 100.120937 141.057605 
L 100.251893 140.952842 
L 100.353748 140.871076 
L 100.484704 140.761203 
L 100.586559 140.707544 
L 100.722365 140.600226 
L 100.82907 140.505684 
L 100.984277 140.400922 
L 101.090982 140.245055 
L 101.304392 140.142848 
L 101.411097 140.03553 
L 101.590555 139.933322 
L 101.69726 139.892439 
L 101.886419 139.785122 
L 101.988273 139.736573 
L 102.279287 139.629255 
L 102.385992 139.575596 
L 102.754609 139.465723 
L 102.856463 139.427395 
L 103.137776 139.317522 
L 103.244481 139.261308 
L 103.42879 139.151435 
L 103.530644 139.069669 
L 103.739204 138.959796 
L 103.845909 138.916358 
L 103.957464 138.816706 
L 104.064169 138.425762 
L 104.069019 138.425762 
L 104.069019 138.323555 
L 104.175724 136.230856 
L 104.195125 136.179753 
L 104.195125 136.141425 
L 104.30183 134.166265 
L 104.30668 134.166265 
L 104.30668 134.081944 
L 104.413385 133.468699 
L 104.442486 133.379268 
L 104.549191 132.817127 
L 104.568592 132.707253 
L 104.675297 132.288203 
L 104.684998 132.275427 
L 104.684998 132.229433 
L 104.791702 131.582971 
L 104.811103 131.483319 
L 104.912958 130.742315 
L 104.96146 130.642662 
L 105.053615 130.116294 
L 105.068165 130.116294 
L 105.097267 130.047304 
L 105.199121 129.556708 
L 105.223372 129.4545 
L 105.330077 128.409429 
L 105.349478 128.401763 
L 105.456183 127.619876 
L 105.485284 127.527889 
L 105.591989 125.404529 
L 105.60654 125.404529 
L 105.60654 125.315097 
L 105.713245 124.620086 
L 105.727796 124.515324 
L 105.82965 123.350158 
L 105.8345 123.350158 
L 105.858752 123.260727 
L 105.960606 122.28209 
L 105.999408 122.190104 
L 106.106113 121.060711 
L 106.110963 121.060711 
L 106.110963 120.963614 
L 106.217668 119.668134 
L 106.237069 119.568482 
L 106.343774 117.961269 
L 106.368025 117.856506 
L 106.368025 117.853951 
L 106.47473 115.485293 
L 106.494131 115.416303 
L 106.494131 115.38053 
L 106.600836 113.95218 
L 106.605686 113.95218 
L 106.605686 113.893411 
L 106.712391 112.748687 
L 106.717241 112.748687 
L 106.717241 112.643925 
L 106.823946 111.317783 
L 106.843347 111.307562 
L 106.843347 111.238572 
L 106.950052 110.290597 
L 106.984003 110.198611 
L 106.984003 110.196056 
L 107.085858 109.386061 
L 107.114959 109.352844 
L 107.114959 109.291519 
L 107.221664 108.803479 
L 107.260466 108.696161 
L 107.367171 108.162127 
L 107.391422 108.07014 
L 107.498127 107.750742 
L 107.522378 107.653644 
L 107.522378 107.640868 
L 107.629083 107.331691 
L 107.682436 107.221818 
L 107.78914 106.897309 
L 107.818242 106.805322 
L 107.924947 106.475703 
L 107.958898 106.368385 
L 108.065603 106.064318 
L 108.094705 106.015769 
L 108.094705 105.962111 
L 108.201409 105.767916 
L 108.283863 105.658043 
L 108.390568 105.320759 
L 108.42937 105.244103 
L 108.42937 105.210886 
L 108.526374 105.029467 
L 108.599128 104.940036 
L 108.696132 104.6513 
L 108.807687 104.543982 
L 108.914392 104.31146 
L 108.987146 104.206697 
L 109.089 103.984396 
L 109.161754 103.887299 
L 109.268459 103.550014 
L 109.312111 103.442696 
L 109.418815 103.105411 
L 109.462467 103.013425 
L 109.569172 102.757906 
L 109.627375 102.663364 
L 109.73408 102.377183 
L 109.811684 102.290307 
L 109.918388 102.001571 
L 110.015393 101.894253 
L 110.015393 101.891698 
L 110.122098 101.776714 
L 110.228803 101.666841 
L 110.335508 101.554413 
L 110.481014 101.452205 
L 110.481014 101.44454 
L 110.582869 101.283563 
L 110.728376 101.181356 
L 110.728376 101.1788 
L 110.835081 101.084258 
L 111.004838 100.984606 
L 111.004838 100.974385 
L 111.101843 100.890064 
L 111.344354 100.780191 
L 111.446209 100.726532 
L 111.591716 100.616659 
L 111.69842 100.511897 
L 111.805125 100.412244 
L 111.90698 100.348365 
L 112.008835 100.261488 
L 112.110689 100.141394 
L 112.207694 100.036632 
L 112.207694 100.034077 
L 112.304698 99.944645 
L 112.34835 99.834772 
L 112.455055 99.753006 
L 112.629663 99.645688 
L 112.736368 99.551146 
L 112.901276 99.441273 
L 112.99828 99.356952 
L 113.20199 99.249634 
L 113.303844 99.157647 
L 113.551206 99.047774 
L 113.64821 98.953232 
L 113.822818 98.843359 
L 113.929523 98.759038 
L 114.157484 98.649165 
L 114.264189 98.536737 
L 114.356343 98.434529 
L 114.463048 98.380871 
L 115.083876 98.270998 
L 115.180881 98.258222 
L 115.903564 98.148349 
L 116.010269 98.135573 
L 121.117554 98.03081 
L 121.117554 98.028255 
L 121.122404 98.023144 
L 122.54837 97.915827 
L 122.650225 97.805953 
L 122.805432 97.698636 
L 122.902436 97.642422 
L 123.21285 97.537659 
L 123.319555 97.399679 
L 123.363207 97.300026 
L 123.469912 97.00618 
L 123.518415 96.898862 
L 123.625119 96.500253 
L 123.64452 96.421042 
L 123.751225 96.145082 
L 123.814278 96.035209 
L 123.920983 95.835904 
L 124.027688 95.726031 
L 124.134393 95.613603 
L 124.328402 95.506285 
L 124.435107 95.401522 
L 124.585464 95.306981 
L 124.692169 95.23799 
L 124.818274 95.128117 
L 124.924979 95.038686 
L 125.007433 94.95692 
L 125.109288 94.732063 
L 125.172341 94.624746 
L 125.279046 94.568531 
L 127.893316 94.458658 
L 127.956369 94.445883 
L 128.805158 94.34112 
L 128.897312 94.292571 
L 129.120422 94.185253 
L 129.227127 94.039608 
L 129.251378 93.973173 
L 129.251378 93.968063 
L 129.358083 93.771313 
L 129.430837 93.684437 
L 129.537542 93.569453 
L 129.668498 93.45958 
L 129.775203 93.204062 
L 129.891608 93.096744 
L 129.998313 92.989426 
L 130.119568 92.879553 
L 130.226273 92.698135 
L 130.303877 92.595927 
L 130.405732 92.452837 
L 130.473635 92.350629 
L 130.58034 92.161545 
L 130.701595 92.051672 
L 130.8083 91.959686 
L 130.900454 91.867699 
L 131.007159 91.647953 
L 131.065362 91.54319 
L 131.172067 91.369437 
L 131.23512 91.262119 
L 131.341825 91.073036 
L 131.487331 90.963163 
L 131.594036 90.799631 
L 131.657089 90.692313 
L 131.763794 90.232379 
L 131.870499 90.176165 
L 131.977204 89.698345 
L 132.020856 89.608913 
L 132.127561 89.261408 
L 132.166363 89.166866 
L 132.273068 88.993113 
L 132.617433 88.88324 
L 132.714438 88.862799 
L 132.719288 88.862799 
L 133.694183 88.755481 
L 133.703883 88.747815 
L 133.796038 88.747815 
L 133.975496 88.691601 
L 133.975496 88.637942 
L 134.082201 88.379868 
L 134.184056 88.275106 
L 134.29076 88.06047 
L 134.348963 87.955707 
L 134.455668 87.797286 
L 134.48962 87.689968 
L 134.596325 87.283693 
L 134.736981 87.176375 
L 134.843686 87.112496 
L 135.037695 87.002623 
L 135.1444 86.864643 
L 135.343259 86.75988 
L 135.343259 86.754769 
L 135.449964 86.685779 
L 135.658523 86.578462 
L 135.765228 86.519692 
L 135.944687 86.412374 
L 136.031991 86.376602 
L 136.2357 86.266729 
L 136.342405 86.228401 
L 136.628568 86.118528 
L 136.735273 86.0802 
L 137.249397 85.972882 
L 137.346401 85.954996 
L 137.812023 85.847678 
L 137.909027 85.827237 
L 138.486204 85.719919 
L 138.588058 85.694367 
L 139.208887 85.584494 
L 139.301041 85.530835 
L 139.548402 85.423517 
L 139.655107 85.397965 
L 139.994623 85.288092 
L 140.091627 85.224212 
L 140.348689 85.122005 
L 140.455394 85.030018 
L 140.760958 84.927811 
L 140.867663 84.886928 
L 141.148976 84.777055 
L 141.255681 84.736172 
L 141.536994 84.626299 
L 141.619448 84.600747 
L 142.070519 84.490874 
L 142.177224 84.429549 
L 142.497338 84.327342 
L 142.574942 84.271128 
L 142.861105 84.161255 
L 142.953259 84.120372 
L 143.287925 84.023275 
L 143.389779 83.951729 
L 143.608039 83.841856 
L 143.705044 83.798418 
L 143.855401 83.698766 
L 143.962106 83.611889 
L 144.165815 83.502016 
L 144.257969 83.453468 
L 144.524732 83.34615 
L 144.631436 83.289936 
L 144.835146 83.180063 
L 144.941851 83.111073 
L 145.261966 83.003755 
L 145.36867 82.944986 
L 145.562679 82.835113 
L 145.669384 82.776343 
L 146.0186 82.66647 
L 146.125305 82.615366 
L 146.367816 82.505493 
L 146.474521 82.472276 
L 146.66853 82.362403 
L 146.770385 82.295968 
L 146.906191 82.198871 
L 146.906191 82.193761 
L 147.012896 82.129881 
L 147.30876 82.022563 
L 147.415465 81.953573 
L 147.614324 81.8437 
L 147.721029 81.807927 
L 147.992641 81.698054 
L 148.079945 81.644395 
L 148.332157 81.534522 
L 148.438862 81.460422 
L 148.734725 81.353104 
L 148.84143 81.307111 
L 149.083941 81.197238 
L 149.190646 81.16402 
L 149.447708 81.054147 
L 149.554413 80.949384 
L 149.767823 80.852287 
L 149.874528 80.788408 
L 150.13644 80.678535 
L 150.243145 80.635096 
L 150.480806 80.527779 
L 150.587511 80.438347 
L 150.868824 80.328474 
L 150.975529 80.282481 
L 151.22774 80.172608 
L 151.334445 80.131725 
L 151.722463 80.021852 
L 151.829168 79.9963 
L 152.09108 79.886427 
L 152.197785 79.855764 
L 152.629455 79.748447 
L 152.726459 79.707564 
L 153.124177 79.597691 
L 153.226032 79.521035 
L 153.531596 79.411162 
L 153.638301 79.362613 
L 153.774107 79.270627 
L 153.880812 79.027884 
L 153.943865 78.925676 
L 154.05057 78.721261 
L 154.103923 78.611388 
L 154.210627 78.422304 
L 154.25913 78.312431 
L 154.360984 78.118237 
L 154.47739 78.008364 
L 154.584095 77.839722 
L 154.622896 77.729849 
L 154.729601 77.589314 
L 154.841156 77.481996 
L 154.943011 77.310798 
L 155.078817 77.200925 
L 155.185522 76.983734 
L 155.263126 76.873861 
L 155.369831 76.733326 
L 155.525038 76.623453 
L 155.622042 76.531466 
L 155.864554 76.424148 
L 155.966408 76.314275 
L 156.097364 76.204402 
L 156.204069 76.127747 
L 156.354426 76.017873 
L 156.461131 75.941218 
L 156.616338 75.831345 
L 156.718193 75.718917 
L 156.892801 75.609044 
L 156.999506 75.514502 
L 157.203215 75.409739 
L 157.203215 75.407184 
L 157.30992 75.289645 
L 157.508779 75.179772 
L 157.596083 75.131224 
L 157.74159 75.031571 
L 157.74159 75.021351 
L 157.848295 74.929364 
L 158.003502 74.827156 
L 158.110207 74.724949 
L 158.289665 74.617631 
L 158.39637 74.505203 
L 158.61948 74.39533 
L 158.726185 74.290567 
L 158.944445 74.180694 
L 159.05115 74.101483 
L 159.201507 73.99161 
L 159.303362 73.91751 
L 159.531322 73.807637 
L 159.638027 73.730981 
L 159.841737 73.621108 
L 159.948442 73.531676 
L 160.103649 73.434579 
L 160.210354 73.314486 
L 160.414063 73.204613 
L 160.515918 73.145843 
L 160.695376 73.038525 
L 160.78753 72.964425 
L 160.976689 72.854552 
L 161.073693 72.780451 
L 161.282253 72.673134 
L 161.379257 72.581147 
L 161.388958 72.581147 
L 161.553866 72.471274 
L 161.65572 72.394618 
L 161.791526 72.294966 
L 161.898231 72.231086 
L 162.048588 72.128879 
L 162.155293 72.039447 
L 162.422055 71.932129 
L 162.52391 71.893802 
L 162.73247 71.791594 
L 162.839175 71.717494 
L 163.076836 71.607621 
L 163.183541 71.536075 
L 163.299946 71.433868 
L 163.406651 71.346992 
L 163.576409 71.239674 
L 163.683114 71.152797 
L 163.954726 71.045479 
L 164.061431 70.989265 
L 164.221488 70.879392 
L 164.323343 70.823178 
L 164.541603 70.713305 
L 164.643458 70.651981 
L 164.856868 70.542108 
L 164.958722 70.468007 
L 165.12848 70.360689 
L 165.220634 70.286589 
L 165.545599 70.181826 
L 165.652304 70.105171 
L 165.914216 69.995298 
L 166.016071 69.933973 
L 166.21493 69.8241 
L 166.316785 69.780662 
L 166.535045 69.670789 
L 166.64175 69.609464 
L 166.889111 69.499591 
L 166.995816 69.466374 
L 167.160724 69.356501 
L 167.267429 69.292621 
L 167.446887 69.192969 
L 167.553592 69.072875 
L 167.757301 68.968112 
L 167.859156 68.904233 
L 168.082266 68.80458 
L 168.188971 68.646159 
L 168.324777 68.538841 
L 168.431482 68.464741 
L 168.572139 68.367643 
L 168.678844 68.244994 
L 168.81465 68.137677 
L 168.921355 68.071242 
L 169.057161 67.963924 
L 169.163866 67.897489 
L 169.377276 67.790171 
L 169.46943 67.723736 
L 169.663439 67.621529 
L 169.745893 67.578091 
L 169.978703 67.468218 
L 170.085408 67.389007 
L 170.352171 67.279134 
L 170.439475 67.199923 
L 170.76929 67.092605 
L 170.875995 67.044057 
L 171.113656 66.939294 
L 171.21066 66.857528 
L 171.42892 66.75532 
L 171.506524 66.709327 
L 171.685982 66.599454 
L 171.782986 66.47425 
L 171.879991 66.374598 
L 171.986696 66.282611 
L 172.07885 66.180403 
L 172.185555 66.039868 
L 172.248608 65.950436 
L 172.355313 65.687252 
L 172.413515 65.618262 
L 172.51537 65.401071 
L 172.73848 65.291198 
L 172.816084 65.250315 
L 174.605816 65.140442 
L 174.712521 65.120001 
L 175.187843 65.010128 
L 175.265447 64.992241 
L 175.803822 64.884923 
L 175.910526 64.849151 
L 176.439201 64.739278 
L 176.545906 64.69584 
L 177.166734 64.585967 
L 177.273439 64.555304 
L 177.884567 64.445431 
L 177.986422 64.417324 
L 178.757607 64.307451 
L 178.864312 64.29212 
L 179.422088 64.187357 
L 179.514242 64.151585 
L 180.353331 64.041712 
L 180.440635 64.02127 
L 180.98871 63.913952 
L 181.095415 63.888401 
L 182.050909 63.778527 
L 182.138213 63.755531 
L 183.064606 63.645658 
L 183.14706 63.632882 
L 183.995849 63.523009 
L 184.102554 63.515343 
L 184.931942 63.40547 
L 185.028946 63.379918 
L 185.843784 63.270045 
L 185.897136 63.257269 
L 187.036939 63.147396 
L 187.133943 63.121844 
L 188.448354 63.011971 
L 188.521107 62.994085 
L 189.723962 62.884212 
L 189.830667 62.873991 
L 191.542796 62.764118 
L 191.562197 62.759008 
L 194.477181 62.649135 
L 194.564485 62.628693 
L 195.883746 62.51882 
L 195.9759 62.500934 
L 197.450368 62.391061 
L 197.552223 62.38084 
L 198.701726 62.270967 
L 198.769629 62.263302 
L 201.112287 62.153429 
L 201.19474 62.145763 
L 202.416997 62.03589 
L 202.470349 62.015448 
L 204.22128 61.905575 
L 204.318284 61.892799 
L 205.933409 61.782926 
L 206.030413 61.76504 
L 207.684339 61.655167 
L 207.781344 61.634726 
L 209.503173 61.524852 
L 209.609878 61.501856 
L 212.568514 61.391983 
L 212.665518 61.386872 
L 215.328291 61.276999 
L 215.430146 61.269334 
L 217.054971 61.159461 
L 217.074371 61.14924 
L 233.589382 61.039367 
L 233.686386 61.031701 
L 237.833327 60.921828 
L 237.915781 60.916718 
L 240.248738 60.824731 
L 240.321492 60.763407 
L 242.586546 60.653534 
L 242.664149 60.648423 
L 244.216221 60.53855 
L 244.293824 60.523219 
L 245.651887 60.413346 
L 245.758592 60.398015 
L 246.272716 60.288142 
L 246.37942 60.260035 
L 247.24276 60.150162 
L 247.330064 60.132276 
L 248.98399 60.022403 
L 249.047043 60.014737 
L 250.822225 59.904864 
L 250.822225 59.902309 
L 253.189134 59.792436 
L 253.208535 59.77966 
L 254.071875 59.669787 
L 254.159179 59.659566 
L 256.37088 59.549693 
L 256.438784 59.542027 
L 258.383723 59.432154 
L 258.471027 59.421934 
L 259.368318 59.314616 
L 259.470173 59.289064 
L 260.794284 59.179191 
L 260.896139 59.166415 
L 262.554915 59.056542 
L 262.647069 59.048876 
L 265.169185 58.939003 
L 265.227388 58.928782 
L 266.493296 58.818909 
L 266.590301 58.806133 
L 268.09387 58.69626 
L 268.195725 58.68604 
L 269.529536 58.581277 
L 269.529536 58.573611 
L 271.173762 58.463738 
L 271.270766 58.453518 
L 273.157503 58.3462 
L 273.210856 58.325758 
L 276.450805 58.223551 
L 276.547809 58.203109 
L 279.297886 58.093236 
L 279.39489 58.08046 
L 283.323571 57.970587 
L 283.323571 57.968032 
L 283.401175 57.968032 
L 288.479359 57.860714 
L 288.527861 57.853049 
L 292.994916 57.743176 
L 293.101621 57.738065 
L 295.939002 57.628192 
L 296.021456 57.623082 
L 299.174101 57.513209 
L 299.174101 57.510654 
L 302.336446 57.400781 
L 302.380098 57.388005 
L 304.489946 57.280687 
L 304.5918 57.267911 
L 307.249723 57.160593 
L 307.259423 57.152927 
L 310.130755 57.043054 
L 310.218059 57.032834 
L 312.308505 56.922961 
L 312.41036 56.894854 
L 313.976982 56.784981 
L 314.030335 56.777315 
L 317.643751 56.667442 
L 317.687403 56.659776 
L 321.616084 56.549903 
L 321.688837 56.544793 
L 324.511667 56.43492 
L 324.613522 56.419589 
L 325.375007 56.309716 
L 325.481712 56.286719 
L 327.033783 56.176846 
L 327.033783 56.174291 
L 328.91567 56.064418 
L 328.993274 56.049087 
L 330.380437 55.939214 
L 330.42894 55.928993 
L 332.723095 55.81912 
L 332.8298 55.801233 
L 335.070603 55.69136 
L 335.070603 55.688805 
L 337.374459 55.578932 
L 337.471464 55.573822 
L 339.634663 55.463949 
L 339.736518 55.451173 
L 343.670049 55.3413 
L 343.747653 55.336189 
L 347.137959 55.226316 
L 347.220413 55.218651 
L 350.896882 55.108778 
L 350.974485 55.096002 
L 354.466646 54.986129 
L 354.466646 54.983574 
L 357.512586 54.876256 
L 357.609591 54.86859 
L 363.415308 54.758717 
L 363.45896 54.753607 
L 368.250981 54.643734 
L 368.314034 54.636068 
L 371.592785 54.526195 
L 371.612186 54.521085 
L 373.363116 54.411212 
L 373.460121 54.398436 
L 374.895787 54.288563 
L 374.987941 54.283452 
L 377.14144 54.173579 
L 377.228744 54.165914 
L 381.307782 54.056041 
L 381.307782 54.053486 
L 385.963996 53.943612 
L 385.988247 53.938502 
L 392.759159 53.828629 
L 392.841613 53.818408 
L 394.558592 53.708535 
L 394.558592 53.70598 
L 398.346616 53.598662 
L 398.346616 53.593552 
L 398.487273 53.590997 
L 398.487273 53.568 
" clip-path="url(#p0d16046240)" style="fill: none; stroke: #1f77b4; stroke-width: 1.5; stroke-linecap: square"/>
   </g>
   <g id="line2d_14">
    <path d="M 73.832727 295.488 
L 398.487273 53.568 
" clip-path="url(#p0d16046240)" style="fill: none; stroke-dasharray: 5.55,2.4; stroke-dashoffset: 0; stroke: #ff7f0e; stroke-width: 1.5"/>
   </g>
   <g id="patch_3">
    <path d="M 57.6 307.584 
L 57.6 41.472 
" style="fill: none; stroke: #000000; stroke-width: 0.8; stroke-linejoin: miter; stroke-linecap: square"/>
   </g>
   <g id="patch_4">
    <path d="M 414.72 307.584 
L 414.72 41.472 
" style="fill: none; stroke: #000000; stroke-width: 0.8; stroke-linejoin: miter; stroke-linecap: square"/>
   </g>
   <g id="patch_5">
    <path d="M 57.6 307.584 
L 414.72 307.584 
" style="fill: none; stroke: #000000; stroke-width: 0.8; stroke-linejoin: miter; stroke-linecap: square"/>
   </g>
   <g id="patch_6">
    <path d="M 57.6 41.472 
L 414.72 41.472 
" style="fill: none; stroke: #000000; stroke-width: 0.8; stroke-linejoin: miter; stroke-linecap: square"/>
   </g>
   <g id="text_13">
    <!-- ROC Curve -->
    <g transform="translate(203.469375 35.472) scale(0.12 -0.12)">
     <defs>
      <path id="DejaVuSans-52" d="M 2841 2188 
Q 3044 2119 3236 1894 
Q 3428 1669 3622 1275 
L 4263 0 
L 3584 0 
L 2988 1197 
Q 2756 1666 2539 1819 
Q 2322 1972 1947 1972 
L 1259 1972 
L 1259 0 
L 628 0 
L 628 4666 
L 2053 4666 
Q 2853 4666 3247 4331 
Q 3641 3997 3641 3322 
Q 3641 2881 3436 2590 
Q 3231 2300 2841 2188 
z
M 1259 4147 
L 1259 2491 
L 2053 2491 
Q 2509 2491 2742 2702 
Q 2975 2913 2975 3322 
Q 2975 3731 2742 3939 
Q 2509 4147 2053 4147 
L 1259 4147 
z
" transform="scale(0.015625)"/>
      <path id="DejaVuSans-4f" d="M 2522 4238 
Q 1834 4238 1429 3725 
Q 1025 3213 1025 2328 
Q 1025 1447 1429 934 
Q 1834 422 2522 422 
Q 3209 422 3611 934 
Q 4013 1447 4013 2328 
Q 4013 3213 3611 3725 
Q 3209 4238 2522 4238 
z
M 2522 4750 
Q 3503 4750 4090 4092 
Q 4678 3434 4678 2328 
Q 4678 1225 4090 567 
Q 3503 -91 2522 -91 
Q 1538 -91 948 565 
Q 359 1222 359 2328 
Q 359 3434 948 4092 
Q 1538 4750 2522 4750 
z
" transform="scale(0.015625)"/>
      <path id="DejaVuSans-43" d="M 4122 4306 
L 4122 3641 
Q 3803 3938 3442 4084 
Q 3081 4231 2675 4231 
Q 1875 4231 1450 3742 
Q 1025 3253 1025 2328 
Q 1025 1406 1450 917 
Q 1875 428 2675 428 
Q 3081 428 3442 575 
Q 3803 722 4122 1019 
L 4122 359 
Q 3791 134 3420 21 
Q 3050 -91 2638 -91 
Q 1578 -91 968 557 
Q 359 1206 359 2328 
Q 359 3453 968 4101 
Q 1578 4750 2638 4750 
Q 3056 4750 3426 4639 
Q 3797 4528 4122 4306 
z
" transform="scale(0.015625)"/>
      <path id="DejaVuSans-20" transform="scale(0.015625)"/>
      <path id="DejaVuSans-75" d="M 544 1381 
L 544 3500 
L 1119 3500 
L 1119 1403 
Q 1119 906 1312 657 
Q 1506 409 1894 409 
Q 2359 409 2629 706 
Q 2900 1003 2900 1516 
L 2900 3500 
L 3475 3500 
L 3475 0 
L 2900 0 
L 2900 538 
Q 2691 219 2414 64 
Q 2138 -91 1772 -91 
Q 1169 -91 856 284 
Q 544 659 544 1381 
z
M 1991 3584 
L 1991 3584 
z
" transform="scale(0.015625)"/>
      <path id="DejaVuSans-72" d="M 2631 2963 
Q 2534 3019 2420 3045 
Q 2306 3072 2169 3072 
Q 1681 3072 1420 2755 
Q 1159 2438 1159 1844 
L 1159 0 
L 581 0 
L 581 3500 
L 1159 3500 
L 1159 2956 
Q 1341 3275 1631 3429 
Q 1922 3584 2338 3584 
Q 2397 3584 2469 3576 
Q 2541 3569 2628 3553 
L 2631 2963 
z
" transform="scale(0.015625)"/>
      <path id="DejaVuSans-76" d="M 191 3500 
L 800 3500 
L 1894 563 
L 2988 3500 
L 3597 3500 
L 2284 0 
L 1503 0 
L 191 3500 
z
" transform="scale(0.015625)"/>
      <path id="DejaVuSans-65" d="M 3597 1894 
L 3597 1613 
L 953 1613 
Q 991 1019 1311 708 
Q 1631 397 2203 397 
Q 2534 397 2845 478 
Q 3156 559 3463 722 
L 3463 178 
Q 3153 47 2828 -22 
Q 2503 -91 2169 -91 
Q 1331 -91 842 396 
Q 353 884 353 1716 
Q 353 2575 817 3079 
Q 1281 3584 2069 3584 
Q 2775 3584 3186 3129 
Q 3597 2675 3597 1894 
z
M 3022 2063 
Q 3016 2534 2758 2815 
Q 2500 3097 2075 3097 
Q 1594 3097 1305 2825 
Q 1016 2553 972 2059 
L 3022 2063 
z
" transform="scale(0.015625)"/>
     </defs>
     <use xlink:href="#DejaVuSans-52"/>
     <use xlink:href="#DejaVuSans-4f" transform="translate(69.482422 0)"/>
     <use xlink:href="#DejaVuSans-43" transform="translate(148.193359 0)"/>
     <use xlink:href="#DejaVuSans-20" transform="translate(218.017578 0)"/>
     <use xlink:href="#DejaVuSans-43" transform="translate(249.804688 0)"/>
     <use xlink:href="#DejaVuSans-75" transform="translate(319.628906 0)"/>
     <use xlink:href="#DejaVuSans-72" transform="translate(383.007812 0)"/>
     <use xlink:href="#DejaVuSans-76" transform="translate(424.121094 0)"/>
     <use xlink:href="#DejaVuSans-65" transform="translate(483.300781 0)"/>
    </g>
   </g>
   <g id="legend_1">
    <g id="patch_7">
     <path d="M 64.6 64.150125 
L 154.75 64.150125 
Q 156.75 64.150125 156.75 62.150125 
L 156.75 48.472 
Q 156.75 46.472 154.75 46.472 
L 64.6 46.472 
Q 62.6 46.472 62.6 48.472 
L 62.6 62.150125 
Q 62.6 64.150125 64.6 64.150125 
z
" style="fill: #ffffff; opacity: 0.8; stroke: #cccccc; stroke-linejoin: miter"/>
    </g>
    <g id="line2d_15">
     <path d="M 66.6 54.570438 
L 76.6 54.570438 
L 86.6 54.570438 
" style="fill: none; stroke: #1f77b4; stroke-width: 1.5; stroke-linecap: square"/>
    </g>
    <g id="text_14">
     <!-- AUC=0.911 -->
     <g transform="translate(94.6 58.070438) scale(0.1 -0.1)">
      <defs>
       <path id="DejaVuSans-41" d="M 2188 4044 
L 1331 1722 
L 3047 1722 
L 2188 4044 
z
M 1831 4666 
L 2547 4666 
L 4325 0 
L 3669 0 
L 3244 1197 
L 1141 1197 
L 716 0 
L 50 0 
L 1831 4666 
z
" transform="scale(0.015625)"/>
       <path id="DejaVuSans-55" d="M 556 4666 
L 1191 4666 
L 1191 1831 
Q 1191 1081 1462 751 
Q 1734 422 2344 422 
Q 2950 422 3222 751 
Q 3494 1081 3494 1831 
L 3494 4666 
L 4128 4666 
L 4128 1753 
Q 4128 841 3676 375 
Q 3225 -91 2344 -91 
Q 1459 -91 1007 375 
Q 556 841 556 1753 
L 556 4666 
z
" transform="scale(0.015625)"/>
       <path id="DejaVuSans-3d" d="M 678 2906 
L 4684 2906 
L 4684 2381 
L 678 2381 
L 678 2906 
z
M 678 1631 
L 4684 1631 
L 4684 1100 
L 678 1100 
L 678 1631 
z
" transform="scale(0.015625)"/>
       <path id="DejaVuSans-39" d="M 703 97 
L 703 672 
Q 941 559 1184 500 
Q 1428 441 1663 441 
Q 2288 441 2617 861 
Q 2947 1281 2994 2138 
Q 2813 1869 2534 1725 
Q 2256 1581 1919 1581 
Q 1219 1581 811 2004 
Q 403 2428 403 3163 
Q 403 3881 828 4315 
Q 1253 4750 1959 4750 
Q 2769 4750 3195 4129 
Q 3622 3509 3622 2328 
Q 3622 1225 3098 567 
Q 2575 -91 1691 -91 
Q 1453 -91 1209 -44 
Q 966 3 703 97 
z
M 1959 2075 
Q 2384 2075 2632 2365 
Q 2881 2656 2881 3163 
Q 2881 3666 2632 3958 
Q 2384 4250 1959 4250 
Q 1534 4250 1286 3958 
Q 1038 3666 1038 3163 
Q 1038 2656 1286 2365 
Q 1534 2075 1959 2075 
z
" transform="scale(0.015625)"/>
      </defs>
      <use xlink:href="#DejaVuSans-41"/>
      <use xlink:href="#DejaVuSans-55" transform="translate(68.408203 0)"/>
      <use xlink:href="#DejaVuSans-43" transform="translate(141.601562 0)"/>
      <use xlink:href="#DejaVuSans-3d" transform="translate(211.425781 0)"/>
      <use xlink:href="#DejaVuSans-30" transform="translate(295.214844 0)"/>
      <use xlink:href="#DejaVuSans-2e" transform="translate(358.837891 0)"/>
      <use xlink:href="#DejaVuSans-39" transform="translate(390.625 0)"/>
      <use xlink:href="#DejaVuSans-31" transform="translate(454.248047 0)"/>
      <use xlink:href="#DejaVuSans-31" transform="translate(517.871094 0)"/>
     </g>
    </g>
   </g>
  </g>
 </g>
 <defs>
  <clipPath id="p0d16046240">
   <rect x="57.6" y="41.472" width="357.12" height="266.112"/>
  </clipPath>
 </defs>
</svg>
