<?xml version="1.0" encoding="utf-8" standalone="no"?>
<!DOCTYPE svg PUBLIC "-//W3C//DTD SVG 1.1//EN"
  "http://www.w3.org/Graphics/SVG/1.1/DTD/svg11.dtd">
<svg xmlns:xlink="http://www.w3.org/1999/xlink" width="460.8pt" height="345.6pt" viewBox="0 0 460.8 345.6" xmlns="http://www.w3.org/2000/svg" version="1.1">
 <metadata>
  <rdf:RDF xmlns:dc="http://purl.org/dc/elements/1.1/" xmlns:cc="http://creativecommons.org/ns#" xmlns:rdf="http://www.w3.org/1999/02/22-rdf-syntax-ns#">
   <cc:Work>
    <dc:type rdf:resource="http://purl.org/dc/dcmitype/StillImage"/>
    <dc:date>2026-03-17T10:51:29.904081</dc:date>
    <dc:format>image/svg+xml</dc:format>
    <dc:creator>
     <cc:Agent>
      <dc:title>Matplotlib v3.10.8, https://matplotlib.org/</dc:title>
     </cc:Agent>
    </dc:creator>
   </cc:Work>
  </rdf:RDF>
 </metadata>
 <defs>
  <style type="text/css">*{stroke-linejoin: round; stroke-linecap: butt}</style>
 </defs>
 <g id="figure_1">
  <g id="patch_1">
   <path d="M 0 345.6 
L 460.8 345.6 
L 460.8 0 
L 0 0 
z
" style="fill: #ffffff"/>
  </g>
  <g id="axes_1">
   <g id="patch_2">
    <path d="M 57.6 307.584 
L 414.72 307.584 
L 414.72 41.472 
L 57.6 41.472 
z
" style="fill: #ffffff"/>
   </g>
   <g id="matplotlib.axis_1">
    <g id="xtick_1">
     <g id="line2d_1">
      <defs>
       <path id="mc22f6a55f0" d="M 0 0 
L 0 3.5 
" style="stroke: #000000; stroke-width: 0.8"/>
      </defs>
      <g>
       <use xlink:href="#mc22f6a55f0" x="73.832727" y="307.584" style="stroke: #000000; stroke-width: 0.8"/>
      </g>
     </g>
     <g id="text_1">
      <!-- 0.0 -->
      <g transform="translate(65.881165 322.182437) scale(0.1 -0.1)">
       <defs>
        <path id="DejaVuSans-30" d="M 2034 4250 
Q 1547 4250 1301 3770 
Q 1056 3291 1056 2328 
Q 1056 1369 1301 889 
Q 1547 409 2034 409 
Q 2525 409 2770 889 
Q 3016 1369 3016 2328 
Q 3016 3291 2770 3770 
Q 2525 4250 2034 4250 
z
M 2034 4750 
Q 2819 4750 3233 4129 
Q 3647 3509 3647 2328 
Q 3647 1150 3233 529 
Q 2819 -91 2034 -91 
Q 1250 -91 836 529 
Q 422 1150 422 2328 
Q 422 3509 836 4129 
Q 1250 4750 2034 4750 
z
" transform="scale(0.015625)"/>
        <path id="DejaVuSans-2e" d="M 684 794 
L 1344 794 
L 1344 0 
L 684 0 
L 684 794 
z
" transform="scale(0.015625)"/>
       </defs>
       <use xlink:href="#DejaVuSans-30"/>
       <use xlink:href="#DejaVuSans-2e" transform="translate(63.623047 0)"/>
       <use xlink:href="#DejaVuSans-30" transform="translate(95.410156 0)"/>
      </g>
     </g>
    </g>
    <g id="xtick_2">
     <g id="line2d_2">
      <g>
       <use xlink:href="#mc22f6a55f0" x="138.763636" y="307.584" style="stroke: #000000; stroke-width: 0.8"/>
      </g>
     </g>
     <g id="text_2">
      <!-- 0.2 -->
      <g transform="translate(130.812074 322.182437) scale(0.1 -0.1)">
       <defs>
        <path id="DejaVuSans-32" d="M 1228 531 
L 3431 531 
L 3431 0 
L 469 0 
L 469 531 
Q 828 903 1448 1529 
Q 2069 2156 2228 2338 
Q 2531 2678 2651 2914 
Q 2772 3150 2772 3378 
Q 2772 3750 2511 3984 
Q 2250 4219 1831 4219 
Q 1534 4219 1204 4116 
Q 875 4013 500 3803 
L 500 4441 
Q 881 4594 1212 4672 
Q 1544 4750 1819 4750 
Q 2544 4750 2975 4387 
Q 3406 4025 3406 3419 
Q 3406 3131 3298 2873 
Q 3191 2616 2906 2266 
Q 2828 2175 2409 1742 
Q 1991 1309 1228 531 
z
" transform="scale(0.015625)"/>
       </defs>
       <use xlink:href="#DejaVuSans-30"/>
       <use xlink:href="#DejaVuSans-2e" transform="translate(63.623047 0)"/>
       <use xlink:href="#DejaVuSans-32" transform="translate(95.410156 0)"/>
      </g>
     </g>
    </g>
    <g id="xtick_3">
     <g id="line2d_3">
      <g>
       <use xlink:href="#mc22f6a55f0" x="203.694545" y="307.584" style="stroke: #000000; stroke-width: 0.8"/>
      </g>
     </g>
     <g id="text_3">
      <!-- 0.4 -->
      <g transform="translate(195.742983 322.182437) scale(0.1 -0.1)">
       <defs>
        <path id="DejaVuSans-34" d="M 2419 4116 
L 825 1625 
L 2419 1625 
L 2419 4116 
z
M 2253 4666 
L 3047 4666 
L 3047 1625 
L 3713 1625 
L 3713 1100 
L 3047 1100 
L 3047 0 
L 2419 0 
L 2419 1100 
L 313 1100 
L 313 1709 
L 2253 4666 
z
" transform="scale(0.015625)"/>
       </defs>
       <use xlink:href="#DejaVuSans-30"/>
       <use xlink:href="#DejaVuSans-2e" transform="translate(63.623047 0)"/>
       <use xlink:href="#DejaVuSans-34" transform="translate(95.410156 0)"/>
      </g>
     </g>
    </g>
    <g id="xtick_4">
     <g id="line2d_4">
      <g>
       <use xlink:href="#mc22f6a55f0" x="268.625455" y="307.584" style="stroke: #000000; stroke-width: 0.8"/>
      </g>
     </g>
     <g id="text_4">
      <!-- 0.6 -->
      <g transform="translate(260.673892 322.182437) scale(0.1 -0.1)">
       <defs>
        <path id="DejaVuSans-36" d="M 2113 2584 
Q 1688 2584 1439 2293 
Q 1191 2003 1191 1497 
Q 1191 994 1439 701 
Q 1688 409 2113 409 
Q 2538 409 2786 701 
Q 3034 994 3034 1497 
Q 3034 2003 2786 2293 
Q 2538 2584 2113 2584 
z
M 3366 4563 
L 3366 3988 
Q 3128 4100 2886 4159 
Q 2644 4219 2406 4219 
Q 1781 4219 1451 3797 
Q 1122 3375 1075 2522 
Q 1259 2794 1537 2939 
Q 1816 3084 2150 3084 
Q 2853 3084 3261 2657 
Q 3669 2231 3669 1497 
Q 3669 778 3244 343 
Q 2819 -91 2113 -91 
Q 1303 -91 875 529 
Q 447 1150 447 2328 
Q 447 3434 972 4092 
Q 1497 4750 2381 4750 
Q 2619 4750 2861 4703 
Q 3103 4656 3366 4563 
z
" transform="scale(0.015625)"/>
       </defs>
       <use xlink:href="#DejaVuSans-30"/>
       <use xlink:href="#DejaVuSans-2e" transform="translate(63.623047 0)"/>
       <use xlink:href="#DejaVuSans-36" transform="translate(95.410156 0)"/>
      </g>
     </g>
    </g>
    <g id="xtick_5">
     <g id="line2d_5">
      <g>
       <use xlink:href="#mc22f6a55f0" x="333.556364" y="307.584" style="stroke: #000000; stroke-width: 0.8"/>
      </g>
     </g>
     <g id="text_5">
      <!-- 0.8 -->
      <g transform="translate(325.604801 322.182437) scale(0.1 -0.1)">
       <defs>
        <path id="DejaVuSans-38" d="M 2034 2216 
Q 1584 2216 1326 1975 
Q 1069 1734 1069 1313 
Q 1069 891 1326 650 
Q 1584 409 2034 409 
Q 2484 409 2743 651 
Q 3003 894 3003 1313 
Q 3003 1734 2745 1975 
Q 2488 2216 2034 2216 
z
M 1403 2484 
Q 997 2584 770 2862 
Q 544 3141 544 3541 
Q 544 4100 942 4425 
Q 1341 4750 2034 4750 
Q 2731 4750 3128 4425 
Q 3525 4100 3525 3541 
Q 3525 3141 3298 2862 
Q 3072 2584 2669 2484 
Q 3125 2378 3379 2068 
Q 3634 1759 3634 1313 
Q 3634 634 3220 271 
Q 2806 -91 2034 -91 
Q 1263 -91 848 271 
Q 434 634 434 1313 
Q 434 1759 690 2068 
Q 947 2378 1403 2484 
z
M 1172 3481 
Q 1172 3119 1398 2916 
Q 1625 2713 2034 2713 
Q 2441 2713 2670 2916 
Q 2900 3119 2900 3481 
Q 2900 3844 2670 4047 
Q 2441 4250 2034 4250 
Q 1625 4250 1398 4047 
Q 1172 3844 1172 3481 
z
" transform="scale(0.015625)"/>
       </defs>
       <use xlink:href="#DejaVuSans-30"/>
       <use xlink:href="#DejaVuSans-2e" transform="translate(63.623047 0)"/>
       <use xlink:href="#DejaVuSans-38" transform="translate(95.410156 0)"/>
      </g>
     </g>
    </g>
    <g id="xtick_6">
     <g id="line2d_6">
      <g>
       <use xlink:href="#mc22f6a55f0" x="398.487273" y="307.584" style="stroke: #000000; stroke-width: 0.8"/>
      </g>
     </g>
     <g id="text_6">
      <!-- 1.0 -->
      <g transform="translate(390.53571 322.182437) scale(0.1 -0.1)">
       <defs>
        <path id="DejaVuSans-31" d="M 794 531 
L 1825 531 
L 1825 4091 
L 703 3866 
L 703 4441 
L 1819 4666 
L 2450 4666 
L 2450 531 
L 3481 531 
L 3481 0 
L 794 0 
L 794 531 
z
" transform="scale(0.015625)"/>
       </defs>
       <use xlink:href="#DejaVuSans-31"/>
       <use xlink:href="#DejaVuSans-2e" transform="translate(63.623047 0)"/>
       <use xlink:href="#DejaVuSans-30" transform="translate(95.410156 0)"/>
      </g>
     </g>
    </g>
   </g>
   <g id="matplotlib.axis_2">
    <g id="ytick_1">
     <g id="line2d_7">
      <defs>
       <path id="m67de7aa025" d="M 0 0 
L -3.5 0 
" style="stroke: #000000; stroke-width: 0.8"/>
      </defs>
      <g>
       <use xlink:href="#m67de7aa025" x="57.6" y="278.405695" style="stroke: #000000; stroke-width: 0.8"/>
      </g>
     </g>
     <g id="text_7">
      <!-- 0.5 -->
      <g transform="translate(34.696875 282.204913) scale(0.1 -0.1)">
       <defs>
        <path id="DejaVuSans-35" d="M 691 4666 
L 3169 4666 
L 3169 4134 
L 1269 4134 
L 1269 2991 
Q 1406 3038 1543 3061 
Q 1681 3084 1819 3084 
Q 2600 3084 3056 2656 
Q 3513 2228 3513 1497 
Q 3513 744 3044 326 
Q 2575 -91 1722 -91 
Q 1428 -91 1123 -41 
Q 819 9 494 109 
L 494 744 
Q 775 591 1075 516 
Q 1375 441 1709 441 
Q 2250 441 2565 725 
Q 2881 1009 2881 1497 
Q 2881 1984 2565 2268 
Q 2250 2553 1709 2553 
Q 1456 2553 1204 2497 
Q 953 2441 691 2322 
L 691 4666 
z
" transform="scale(0.015625)"/>
       </defs>
       <use xlink:href="#DejaVuSans-30"/>
       <use xlink:href="#DejaVuSans-2e" transform="translate(63.623047 0)"/>
       <use xlink:href="#DejaVuSans-35" transform="translate(95.410156 0)"/>
      </g>
     </g>
    </g>
    <g id="ytick_2">
     <g id="line2d_8">
      <g>
       <use xlink:href="#m67de7aa025" x="57.6" y="233.438156" style="stroke: #000000; stroke-width: 0.8"/>
      </g>
     </g>
     <g id="text_8">
      <!-- 0.6 -->
      <g transform="translate(34.696875 237.237374) scale(0.1 -0.1)">
       <use xlink:href="#DejaVuSans-30"/>
       <use xlink:href="#DejaVuSans-2e" transform="translate(63.623047 0)"/>
       <use xlink:href="#DejaVuSans-36" transform="translate(95.410156 0)"/>
      </g>
     </g>
    </g>
    <g id="ytick_3">
     <g id="line2d_9">
      <g>
       <use xlink:href="#m67de7aa025" x="57.6" y="188.470617" style="stroke: #000000; stroke-width: 0.8"/>
      </g>
     </g>
     <g id="text_9">
      <!-- 0.7 -->
      <g transform="translate(34.696875 192.269836) scale(0.1 -0.1)">
       <defs>
        <path id="DejaVuSans-37" d="M 525 4666 
L 3525 4666 
L 3525 4397 
L 1831 0 
L 1172 0 
L 2766 4134 
L 525 4134 
L 525 4666 
z
" transform="scale(0.015625)"/>
       </defs>
       <use xlink:href="#DejaVuSans-30"/>
       <use xlink:href="#DejaVuSans-2e" transform="translate(63.623047 0)"/>
       <use xlink:href="#DejaVuSans-37" transform="translate(95.410156 0)"/>
      </g>
     </g>
    </g>
    <g id="ytick_4">
     <g id="line2d_10">
      <g>
       <use xlink:href="#m67de7aa025" x="57.6" y="143.503078" style="stroke: #000000; stroke-width: 0.8"/>
      </g>
     </g>
     <g id="text_10">
      <!-- 0.8 -->
      <g transform="translate(34.696875 147.302297) scale(0.1 -0.1)">
       <use xlink:href="#DejaVuSans-30"/>
       <use xlink:href="#DejaVuSans-2e" transform="translate(63.623047 0)"/>
       <use xlink:href="#DejaVuSans-38" transform="translate(95.410156 0)"/>
      </g>
     </g>
    </g>
    <g id="ytick_5">
     <g id="line2d_11">
      <g>
       <use xlink:href="#m67de7aa025" x="57.6" y="98.535539" style="stroke: #000000; stroke-width: 0.8"/>
      </g>
     </g>
     <g id="text_11">
      <!-- 0.9 -->
      <g transform="translate(34.696875 102.334758) scale(0.1 -0.1)">
       <defs>
        <path id="DejaVuSans-39" d="M 703 97 
L 703 672 
Q 941 559 1184 500 
Q 1428 441 1663 441 
Q 2288 441 2617 861 
Q 2947 1281 2994 2138 
Q 2813 1869 2534 1725 
Q 2256 1581 1919 1581 
Q 1219 1581 811 2004 
Q 403 2428 403 3163 
Q 403 3881 828 4315 
Q 1253 4750 1959 4750 
Q 2769 4750 3195 4129 
Q 3622 3509 3622 2328 
Q 3622 1225 3098 567 
Q 2575 -91 1691 -91 
Q 1453 -91 1209 -44 
Q 966 3 703 97 
z
M 1959 2075 
Q 2384 2075 2632 2365 
Q 2881 2656 2881 3163 
Q 2881 3666 2632 3958 
Q 2384 4250 1959 4250 
Q 1534 4250 1286 3958 
Q 1038 3666 1038 3163 
Q 1038 2656 1286 2365 
Q 1534 2075 1959 2075 
z
" transform="scale(0.015625)"/>
       </defs>
       <use xlink:href="#DejaVuSans-30"/>
       <use xlink:href="#DejaVuSans-2e" transform="translate(63.623047 0)"/>
       <use xlink:href="#DejaVuSans-39" transform="translate(95.410156 0)"/>
      </g>
     </g>
    </g>
    <g id="ytick_6">
     <g id="line2d_12">
      <g>
       <use xlink:href="#m67de7aa025" x="57.6" y="53.568" style="stroke: #000000; stroke-width: 0.8"/>
      </g>
     </g>
     <g id="text_12">
      <!-- 1.0 -->
      <g transform="translate(34.696875 57.367219) scale(0.1 -0.1)">
       <use xlink:href="#DejaVuSans-31"/>
       <use xlink:href="#DejaVuSans-2e" transform="translate(63.623047 0)"/>
       <use xlink:href="#DejaVuSans-30" transform="translate(95.410156 0)"/>
      </g>
     </g>
    </g>
   </g>
   <g id="line2d_13">
    <path d="M 398.487273 295.488 
L 398.376286 244.274258 
L 398.375973 244.274364 
L 398.373472 244.157922 
L 398.262485 241.823408 
L 398.262172 241.823514 
L 398.254981 241.708723 
L 398.144307 240.724869 
L 398.143994 240.724974 
L 398.143682 240.72508 
L 398.124298 240.614398 
L 398.013311 239.650068 
L 397.992364 239.535016 
L 397.881377 238.504979 
L 397.870747 238.391207 
L 397.75976 237.375382 
L 397.759447 237.375487 
L 397.752882 237.260513 
L 397.641895 236.239805 
L 397.640957 236.24012 
L 397.626888 236.127681 
L 397.515901 235.346333 
L 397.515276 235.346234 
L 397.498393 235.238529 
L 397.496517 235.235762 
L 397.38553 234.6017 
L 397.385217 234.601805 
L 397.371461 234.490976 
L 397.370523 234.489582 
L 397.259536 233.766424 
L 397.258286 233.764812 
L 397.238589 233.656288 
L 397.127602 232.860932 
L 397.12729 232.861036 
L 397.113846 232.748969 
L 397.113533 232.748601 
L 397.074766 232.531429 
L 396.963779 231.77508 
L 396.963466 231.775185 
L 396.941894 231.669104 
L 396.940644 231.665711 
L 396.829657 230.897826 
L 396.801832 230.743809 
L 396.691157 230.016406 
L 396.690532 230.016613 
L 396.675525 229.904833 
L 396.564538 229.22359 
L 396.563913 229.223797 
L 396.549531 229.111726 
L 396.438544 228.429068 
L 396.424163 228.313334 
L 396.313176 227.519483 
L 396.292229 227.402279 
L 396.181242 226.761865 
L 396.167798 226.64606 
L 396.056811 225.819397 
L 396.056186 225.819603 
L 396.043055 225.708636 
L 396.04243 225.707347 
L 395.931442 224.877748 
L 395.910496 224.760147 
L 395.799508 223.845832 
L 395.744484 223.514018 
L 395.633497 222.793619 
L 395.630683 222.790803 
L 395.615364 222.683454 
L 395.615051 222.682877 
L 395.578472 222.452642 
L 395.467485 221.68095 
L 395.466234 221.679475 
L 395.449039 221.570235 
L 395.4184 221.406578 
L 395.307413 220.633548 
L 395.307101 220.63365 
L 395.296471 220.525319 
L 395.294908 220.520816 
L 395.183921 219.68717 
L 395.183295 219.686678 
L 395.165162 219.576683 
L 395.16485 219.576785 
L 395.146091 219.442674 
L 395.035104 218.682531 
L 395.016971 218.56428 
L 394.905984 217.847137 
L 394.877534 217.681831 
L 394.766859 216.991107 
L 394.766546 216.991209 
L 394.743724 216.829868 
L 394.632737 215.887956 
L 394.632424 215.888057 
L 394.619293 215.775574 
L 394.508306 215.011969 
L 394.507993 215.012069 
L 394.48861 214.904442 
L 394.487359 214.902141 
L 394.376997 214.169314 
L 394.376372 214.169334 
L 394.375747 214.169173 
L 394.361365 214.057576 
L 394.250378 213.225735 
L 394.24944 213.225489 
L 394.23287 213.114692 
L 394.121883 212.405514 
L 394.121258 212.405164 
L 394.107502 212.293484 
L 393.996515 211.49305 
L 393.996202 211.49315 
L 393.98651 211.380495 
L 393.986198 211.379855 
L 393.87521 210.404139 
L 393.874898 210.404238 
L 393.859891 210.292733 
L 393.859578 210.292646 
L 393.834255 210.12312 
L 393.723267 209.349027 
L 393.721704 209.348211 
L 393.708261 209.239432 
L 393.707635 209.237752 
L 393.680748 209.065829 
L 393.569761 208.289173 
L 393.556005 208.169766 
L 393.445018 207.408879 
L 393.444705 207.408978 
L 393.430949 207.296965 
L 393.319962 206.412127 
L 393.288698 206.161959 
L 393.177711 205.270674 
L 393.175835 205.269331 
L 393.165518 205.15829 
L 393.054531 204.267468 
L 393.043589 204.148201 
L 392.932601 203.140385 
L 392.932289 203.140482 
L 392.914156 203.029941 
L 392.803169 202.070508 
L 392.783472 201.947686 
L 392.672485 201.132267 
L 392.651226 201.008656 
L 392.540238 200.098485 
L 392.538988 200.096667 
L 392.523356 199.987397 
L 392.412369 199.185375 
L 392.412056 199.185472 
L 392.396737 199.087473 
L 392.392047 199.075394 
L 392.281373 198.283419 
L 392.28106 198.283515 
L 392.262927 198.160113 
L 392.152253 197.391321 
L 392.15194 197.391417 
L 392.151002 197.390071 
L 392.134745 197.290826 
L 392.130993 197.281755 
L 392.020006 196.59575 
L 392.01813 196.592832 
L 392.006562 196.483736 
L 391.895575 195.935065 
L 391.893699 195.931097 
L 391.87838 195.824263 
L 391.767393 195.334155 
L 391.76583 195.330278 
L 391.746446 195.224402 
L 391.635459 194.784425 
L 391.63202 194.777147 
L 391.612011 194.675793 
L 391.611698 194.67568 
L 391.583873 194.547648 
L 391.557612 194.361191 
L 391.446624 193.815932 
L 391.445374 193.816312 
L 391.421301 193.708098 
L 391.420988 193.707983 
L 391.310001 193.167107 
L 391.309376 193.166876 
L 391.291555 193.056637 
L 391.180568 192.507318 
L 391.174628 192.489018 
L 391.160559 192.397614 
L 391.049572 191.896494 
L 391.049259 191.896589 
L 391.032064 191.787645 
L 391.030814 191.786109 
L 390.919826 191.304784 
L 390.919201 191.304759 
L 390.893877 191.198199 
L 390.893252 191.196893 
L 390.782265 190.689541 
L 390.781327 190.688752 
L 390.757566 190.583993 
L 390.755378 190.581648 
L 390.644391 190.043441 
L 390.644078 190.043535 
L 390.621568 189.94369 
L 390.618442 189.935364 
L 390.507455 189.372406 
L 390.504953 189.367747 
L 390.484944 189.265332 
L 390.484007 189.263448 
L 390.373019 188.696071 
L 390.346132 188.566258 
L 390.235145 188.007872 
L 390.234833 188.007965 
L 390.213573 187.905732 
L 390.210447 187.899452 
L 390.09946 187.386695 
L 390.063506 187.25234 
L 389.952519 186.741413 
L 389.951581 186.740149 
L 389.929696 186.632469 
L 389.818709 186.147418 
L 389.818396 186.14751 
L 389.797137 186.038048 
L 389.68615 185.517653 
L 389.685837 185.517745 
L 389.660826 185.409533 
L 389.660513 185.409403 
L 389.549526 184.941164 
L 389.547025 184.934984 
L 389.526391 184.832361 
L 389.526078 184.832453 
L 389.415091 184.337687 
L 389.408526 184.319002 
L 389.391018 184.23583 
L 389.388829 184.229746 
L 389.277842 183.786892 
L 389.276904 183.786267 
L 389.259709 183.685331 
L 389.255957 183.677877 
L 389.14497 183.256361 
L 389.117771 183.170597 
L 389.130276 183.20195 
L 389.112456 183.150237 
L 389.001469 182.7308 
L 388.963014 182.59375 
L 388.852652 182.240742 
L 388.852027 182.240924 
L 388.802317 182.098187 
L 388.69133 181.724282 
L 388.682889 181.697061 
L 388.66882 181.634702 
L 388.663192 181.616923 
L 388.553143 181.225711 
L 388.552205 181.225983 
L 388.517815 181.132851 
L 388.549704 181.216401 
L 388.515939 181.121246 
L 388.405265 180.714856 
L 388.404952 180.714947 
L 388.375564 180.618129 
L 388.4012 180.693041 
L 388.373375 180.60864 
L 388.262388 180.234364 
L 388.245818 180.18655 
L 388.251133 180.194012 
L 388.231437 180.127693 
L 388.120762 179.822924 
L 388.12045 179.823014 
L 388.096689 179.758592 
L 388.086372 179.717349 
L 387.975385 179.370291 
L 387.967881 179.34947 
L 387.950061 179.270303 
L 387.947247 179.262983 
L 387.83626 178.902988 
L 387.828131 178.889488 
L 387.809998 178.799169 
L 387.808123 178.795514 
L 387.697135 178.405872 
L 387.689945 178.38503 
L 387.673375 178.304671 
L 387.670248 178.298084 
L 387.559261 177.896342 
L 387.553008 177.880071 
L 387.54019 177.817572 
L 387.527372 177.790027 
L 387.416697 177.351256 
L 387.416385 177.351345 
L 387.403254 177.313653 
L 387.398877 177.280513 
L 387.385433 177.244773 
L 387.274759 176.808864 
L 387.274446 176.808953 
L 387.273196 176.808128 
L 387.260065 176.74095 
L 387.246309 176.701594 
L 387.135322 176.318967 
L 387.134696 176.318433 
L 387.127818 176.271051 
L 387.109998 176.210867 
L 386.999011 175.812703 
L 386.960243 175.671551 
L 386.849256 175.252813 
L 386.815804 175.1136 
L 386.704817 174.699038 
L 386.630408 174.428363 
L 386.519421 173.999523 
L 386.447201 173.729888 
L 386.336214 173.325604 
L 386.261181 173.051214 
L 386.150506 172.681911 
L 386.113302 172.539502 
L 386.002315 172.088447 
L 385.959483 171.942804 
L 385.848496 171.544117 
L 385.703119 170.987478 
L 385.592132 170.538919 
L 385.520224 170.263103 
L 385.409237 169.840091 
L 385.223217 169.190937 
L 385.11223 168.762656 
L 385.041573 168.485201 
L 384.930586 168.034514 
L 384.87306 167.773559 
L 384.762073 167.336599 
L 384.761135 167.336351 
L 384.744565 167.256083 
L 384.735499 167.229022 
L 384.624824 166.773199 
L 384.624511 166.773284 
L 384.592622 166.668218 
L 384.606378 166.706283 
L 384.59231 166.667036 
L 384.24653 165.291972 
L 384.135543 164.819014 
L 384.103654 164.6746 
L 383.992666 164.236829 
L 383.954524 164.089345 
L 383.843537 163.589622 
L 383.814462 163.446246 
L 383.703475 163.01015 
L 383.66971 162.864037 
L 383.559035 162.400132 
L 383.534336 162.319844 
L 383.546529 162.348167 
L 383.529647 162.293693 
L 383.41866 161.823448 
L 383.415221 161.814413 
L 383.407092 161.760798 
L 383.393023 161.716074 
L 383.282036 161.232253 
L 383.277034 161.211763 
L 383.248584 161.126215 
L 383.137597 160.665343 
L 383.104144 160.518446 
L 382.993157 160.040401 
L 382.95439 159.889453 
L 382.843403 159.422756 
L 382.83715 159.406041 
L 382.818391 159.315429 
L 382.818079 159.314712 
L 382.707092 158.803313 
L 382.678016 158.70057 
L 382.69865 158.750495 
L 382.677391 158.696457 
L 382.566404 158.236645 
L 382.496998 157.939686 
L 382.38601 157.439588 
L 382.347243 157.286521 
L 382.236569 156.826988 
L 382.236256 156.827069 
L 382.19999 156.6751 
L 382.089003 156.180438 
L 382.084938 156.166539 
L 382.071495 156.078132 
L 382.068056 156.071131 
L 381.957694 155.614784 
L 381.957381 155.614865 
L 381.916738 155.459392 
L 381.805751 154.925297 
L 381.80325 154.92073 
L 381.786367 154.841471 
L 381.778239 154.818053 
L 381.667252 154.364001 
L 381.662875 154.350542 
L 381.646617 154.26447 
L 381.640677 154.256625 
L 381.530315 153.787297 
L 381.52969 153.787455 
L 381.504679 153.710154 
L 381.529065 153.781267 
L 381.499051 153.680654 
L 381.388377 153.189486 
L 381.388064 153.189564 
L 381.34961 153.033799 
L 381.238935 152.596517 
L 381.23831 152.596674 
L 381.221427 152.509956 
L 381.214549 152.488309 
L 381.103562 152.016975 
L 381.068234 151.862443 
L 380.957247 151.403825 
L 380.917541 151.24605 
L 380.806867 150.719725 
L 380.804991 150.719064 
L 380.794987 150.665243 
L 380.77998 150.61208 
L 380.669305 150.124361 
L 380.668993 150.124438 
L 380.642418 150.023885 
L 380.66274 150.088684 
L 380.64148 150.017048 
L 380.530493 149.552846 
L 380.530181 149.552923 
L 380.507358 149.444215 
L 380.396371 148.9946 
L 380.356666 148.835189 
L 380.245678 148.36415 
L 380.213477 148.209045 
L 380.102489 147.708345 
L 380.087483 147.651433 
L 380.079354 147.600868 
L 380.079041 147.600083 
L 379.968054 147.06841 
L 379.967742 147.068486 
L 379.955549 146.999392 
L 379.94273 146.960403 
L 379.831743 146.495468 
L 379.808608 146.422368 
L 379.80173 146.388436 
L 379.690743 145.911424 
L 379.65604 145.752769 
L 379.545991 145.306589 
L 379.545053 145.306813 
L 379.542864 145.302674 
L 379.537237 145.255351 
L 379.521605 145.198447 
L 379.410618 144.669109 
L 379.374664 144.508771 
L 379.263677 143.967773 
L 379.258049 143.953237 
L 379.240229 143.86192 
L 379.239604 143.860009 
L 379.100791 143.193258 
L 378.989804 142.676342 
L 378.988554 142.675153 
L 378.968232 142.567313 
L 378.857245 142.06509 
L 378.856932 142.065163 
L 378.846303 141.984662 
L 378.838799 141.955468 
L 378.727812 141.467516 
L 378.727187 141.467064 
L 378.719684 141.414477 
L 378.705302 141.358688 
L 378.594315 140.827943 
L 378.563364 140.6681 
L 378.452689 140.126928 
L 378.452377 140.127 
L 378.421425 139.966693 
L 378.310438 139.368875 
L 378.310125 139.368946 
L 378.290429 139.266979 
L 378.287303 139.260431 
L 378.176316 138.756903 
L 378.175065 138.753848 
L 378.158495 138.654082 
L 378.156932 138.647452 
L 378.046257 138.11795 
L 378.045945 138.11802 
L 378.040943 138.103609 
L 378.029688 138.025075 
L 378.024685 138.00913 
L 377.913698 137.456575 
L 377.913386 137.456645 
L 377.903068 137.391337 
L 377.889938 137.348063 
L 377.779263 136.766834 
L 377.77895 136.766904 
L 377.776449 136.76101 
L 377.766132 136.6954 
L 377.75519 136.658495 
L 377.644203 136.159141 
L 377.622943 136.073481 
L 377.637325 136.120266 
L 377.620129 136.050963 
L 377.509142 135.465913 
L 377.503827 135.459034 
L 377.494448 135.398223 
L 377.484444 135.35767 
L 377.373457 134.831766 
L 377.369705 134.819842 
L 377.360951 134.760813 
L 377.350634 134.72326 
L 377.239647 134.191951 
L 377.211509 134.085691 
L 377.211509 134.084442 
L 377.100522 133.558955 
L 377.085515 133.503608 
L 377.093019 133.52392 
L 377.075824 133.45085 
L 376.964836 132.879362 
L 376.964524 132.879429 
L 376.954519 132.818651 
L 376.943264 132.770397 
L 376.83259 132.207605 
L 376.832277 132.207672 
L 376.830714 132.207375 
L 376.815707 132.120219 
L 376.809142 132.099182 
L 376.767873 131.924252 
L 376.656886 131.371965 
L 376.635627 131.284699 
L 376.65501 131.355535 
L 376.633126 131.263627 
L 376.522764 130.717993 
L 376.522138 130.718125 
L 376.397395 130.258882 
L 376.286408 129.847814 
L 376.261084 129.746355 
L 376.276716 129.797914 
L 376.259834 129.739882 
L 376.148847 129.273264 
L 376.117895 129.104327 
L 376.006908 128.589809 
L 375.98346 128.498388 
L 375.98221 128.481842 
L 375.871222 128.011824 
L 375.819324 127.824346 
L 375.70865 127.326405 
L 375.708337 127.326468 
L 375.678949 127.23415 
L 375.677073 127.219552 
L 375.566399 126.595698 
L 375.566086 126.595761 
L 375.542013 126.489789 
L 375.565148 126.585164 
L 375.542013 126.4875 
L 375.431026 125.920466 
L 375.42321 125.893155 
L 375.409453 125.811539 
L 375.298466 125.157919 
L 375.271267 125.054519 
L 375.270954 125.050293 
L 375.159967 124.670096 
L 375.113384 124.483798 
L 375.002396 123.981553 
L 374.982075 123.91083 
L 374.977385 123.873546 
L 374.866398 123.462522 
L 374.865148 123.45877 
L 374.855456 123.386034 
L 374.84764 123.353236 
L 374.73759 122.839582 
L 374.736653 122.839765 
L 374.73634 122.839826 
L 374.733526 122.807938 
L 374.716956 122.73055 
L 374.606282 122.253468 
L 374.605969 122.253528 
L 374.580333 122.158468 
L 374.578144 122.145798 
L 374.467157 121.635889 
L 374.445272 121.551497 
L 374.441833 121.527895 
L 374.330846 120.991867 
L 374.329908 120.990356 
L 374.325844 120.936355 
L 374.310525 120.882791 
L 374.199537 120.421493 
L 374.1714 120.318914 
L 374.197974 120.411951 
L 374.170775 120.313941 
L 374.059787 119.828715 
L 374.030712 119.724188 
L 374.058537 119.82078 
L 374.030399 119.721521 
L 373.919725 119.3108 
L 373.919412 119.310858 
L 373.895339 119.202964 
L 373.895339 119.202622 
L 373.784352 118.717482 
L 373.773722 118.684494 
L 373.762154 118.60881 
L 373.651167 118.165749 
L 373.621154 118.058803 
L 373.510792 117.715352 
L 373.510167 117.715467 
L 373.482029 117.611972 
L 373.509229 117.709776 
L 373.482029 117.607831 
L 373.371355 117.150542 
L 373.371042 117.150599 
L 373.346656 117.054672 
L 373.345093 117.042493 
L 373.234106 116.563013 
L 373.197527 116.459524 
L 373.197214 116.456801 
L 373.086227 116.069117 
L 373.054025 115.966906 
L 373.084976 116.05959 
L 373.053713 115.962083 
L 372.942725 115.579323 
L 372.909273 115.472779 
L 372.798598 115.101591 
L 372.798286 115.101647 
L 372.766709 114.997558 
L 372.766709 114.994753 
L 372.656035 114.645835 
L 372.655722 114.64589 
L 372.623833 114.539052 
L 372.623833 114.538701 
L 372.512846 114.180928 
L 372.48846 114.086521 
L 372.487834 114.072528 
L 372.376847 113.776094 
L 372.340268 113.671522 
L 372.340268 113.669755 
L 372.229281 113.315383 
L 372.226468 113.307723 
L 372.218652 113.233603 
L 372.212711 113.205568 
L 372.101724 112.825866 
L 372.062644 112.722423 
L 372.062644 112.719934 
L 371.951657 112.363144 
L 371.951345 112.360703 
L 371.922269 112.255544 
L 371.811595 111.909658 
L 371.811282 111.909711 
L 371.772827 111.803666 
L 371.66184 111.451673 
L 371.625887 111.345202 
L 371.514899 111.033001 
L 371.47707 110.93694 
L 371.475819 110.927084 
L 371.365145 110.538907 
L 371.364832 110.538959 
L 371.324814 110.43642 
L 371.36452 110.535048 
L 371.324502 110.433227 
L 371.213827 110.072965 
L 371.213515 110.073017 
L 371.213202 110.070539 
L 371.16912 109.967951 
L 371.058133 109.65255 
L 371.016239 109.547455 
L 371.016239 109.547092 
L 370.905252 109.250677 
L 370.868986 109.146514 
L 370.868986 109.144333 
L 370.757998 108.85029 
L 370.717981 108.744969 
L 370.717981 108.744605 
L 370.606993 108.474858 
L 370.55916 108.372326 
L 370.55916 108.370134 
L 370.448172 108.057131 
L 370.415658 107.968639 
L 370.44786 108.054985 
L 370.412844 107.950412 
L 370.30217 107.670143 
L 370.301857 107.670193 
L 370.259025 107.567306 
L 370.258713 107.564786 
L 370.148976 107.280955 
L 370.147726 107.281155 
L 370.108958 107.175467 
L 370.108958 107.175099 
L 369.997971 106.900575 
L 369.957641 106.794828 
L 369.846653 106.507663 
L 369.808511 106.404214 
L 369.808511 106.401254 
L 369.697524 106.060221 
L 369.652192 105.955327 
L 369.652192 105.954957 
L 369.54183 105.65657 
L 369.541204 105.656668 
L 369.50275 105.561158 
L 369.501499 105.550568 
L 369.391137 105.287782 
L 369.390512 105.287879 
L 369.361437 105.180207 
L 369.251075 104.852057 
L 369.250449 104.852154 
L 369.211995 104.74634 
L 369.211995 104.745966 
L 369.101008 104.42548 
L 369.059114 104.329598 
L 369.058176 104.319998 
L 368.947189 104.03492 
L 368.909985 103.928641 
L 368.909985 103.928266 
L 368.798998 103.623516 
L 368.760855 103.517054 
L 368.649868 103.21816 
L 368.600471 103.115702 
L 368.600471 103.113436 
L 368.490735 102.790356 
L 368.489484 102.790542 
L 368.449779 102.684783 
L 368.449779 102.684405 
L 368.339104 102.405585 
L 368.338792 102.405631 
L 368.294397 102.299876 
L 368.18341 101.987571 
L 368.145268 101.885887 
L 368.183097 101.985335 
L 368.144642 101.881032 
L 368.034281 101.582535 
L 368.033655 101.582626 
L 367.987697 101.477191 
L 367.877961 101.18266 
L 367.87671 101.182841 
L 367.833878 101.08045 
L 367.833878 101.077008 
L 367.722891 100.776017 
L 367.679747 100.67105 
L 367.679747 100.670283 
L 367.56876 100.348007 
L 367.53437 100.240683 
L 367.423695 99.910803 
L 367.423382 99.910848 
L 367.384928 99.804146 
L 367.332092 99.656177 
L 367.22173 99.349589 
L 367.177022 99.252214 
L 367.176397 99.243791 
L 367.06541 98.963472 
L 367.00976 98.813799 
L 366.899398 98.499831 
L 366.898773 98.499917 
L 366.850626 98.395757 
L 366.850626 98.394591 
L 366.739639 98.09804 
L 366.70181 97.992919 
L 366.70181 97.99136 
L 366.590823 97.678679 
L 366.545177 97.573902 
L 366.590197 97.673686 
L 366.545177 97.573511 
L 366.434503 97.265691 
L 366.43419 97.265734 
L 366.388545 97.16023 
L 366.388545 97.159838 
L 366.277558 96.880163 
L 366.244105 96.775463 
L 366.243792 96.772755 
L 366.132805 96.478092 
L 366.093413 96.373875 
L 366.093413 96.371512 
L 365.982426 96.048737 
L 365.944909 95.942362 
L 365.944909 95.941967 
L 365.833922 95.620556 
L 365.804221 95.525496 
L 365.80297 95.512596 
L 365.691983 95.171542 
L 365.652903 95.065087 
L 365.652903 95.06469 
L 365.541916 94.775038 
L 365.506275 94.669021 
L 365.506275 94.667827 
L 365.395288 94.343825 
L 365.276798 94.038785 
L 365.16581 93.696076 
L 365.124855 93.589493 
L 365.01418 93.252866 
L 365.013867 93.252905 
L 364.98104 93.146973 
L 364.98104 93.145367 
L 364.870053 92.82421 
L 364.83535 92.718186 
L 364.83535 92.716576 
L 364.724363 92.396438 
L 364.682469 92.29056 
L 364.682469 92.289753 
L 364.571482 91.988841 
L 364.525524 91.885151 
L 364.57117 91.986047 
L 364.525524 91.882723 
L 364.414537 91.591032 
L 364.373269 91.484434 
L 364.262281 91.196342 
L 364.21476 91.093015 
L 364.261969 91.193128 
L 364.214448 91.090205 
L 364.103773 90.792251 
L 364.10346 90.792288 
L 364.063442 90.687347 
L 364.063442 90.685308 
L 363.952455 90.384861 
L 363.915877 90.280428 
L 363.915877 90.277567 
L 363.805515 89.960172 
L 363.804889 89.960244 
L 363.767685 89.860069 
L 363.767373 89.852729 
L 363.656385 89.535248 
L 363.623246 89.427724 
L 363.623246 89.427313 
L 363.512259 89.134787 
L 363.472866 89.027661 
L 363.361879 88.749942 
L 363.310918 88.644213 
L 363.199931 88.382631 
L 363.155537 88.276691 
L 363.155537 88.275864 
L 363.044549 88.026383 
L 363.004219 87.919288 
L 362.893232 87.644601 
L 362.85634 87.545972 
L 362.855402 87.537344 
L 362.744415 87.24812 
L 362.703147 87.141754 
L 362.703147 87.140921 
L 362.521503 86.74269 
L 362.410516 86.473478 
L 362.372374 86.36657 
L 362.372374 86.366151 
L 362.261387 86.107912 
L 362.210114 86.002083 
L 362.210114 86.001663 
L 362.099439 85.69262 
L 362.099127 85.692652 
L 362.05098 85.589522 
L 362.05098 85.586156 
L 361.939993 85.393362 
L 361.868086 85.289879 
L 361.868086 85.289458 
L 361.757099 85.057306 
L 361.703325 84.951245 
L 361.592338 84.674435 
L 361.54763 84.569256 
L 361.54763 84.567561 
L 361.436643 84.337037 
L 361.387871 84.231558 
L 361.387871 84.230284 
L 361.277197 83.951904 
L 361.276884 83.951934 
L 361.227174 83.849208 
L 361.227174 83.845378 
L 361.1165 83.598573 
L 361.116187 83.598604 
L 361.06085 83.492721 
L 360.949863 83.265753 
L 360.94955 83.25596 
L 360.905155 83.158553 
L 360.794481 82.903118 
L 360.794168 82.903148 
L 360.753525 82.796117 
L 360.753525 82.795689 
L 360.64285 82.550262 
L 360.642538 82.550292 
L 360.593141 82.446375 
L 360.593141 82.44337 
L 360.482154 82.186537 
L 360.430568 82.080802 
L 360.430568 82.079942 
L 360.319581 81.850391 
L 360.263618 81.74477 
L 360.263618 81.744338 
L 360.152944 81.527084 
L 360.152631 81.527113 
L 360.10042 81.420862 
L 360.10042 81.42043 
L 359.989433 81.202188 
L 359.938786 81.095945 
L 359.938786 81.095512 
L 359.828111 80.852802 
L 359.827799 80.85283 
L 359.779027 80.746122 
L 359.779027 80.745688 
L 359.668352 80.499695 
L 359.66804 80.499723 
L 359.619268 80.392716 
L 359.508281 80.117745 
L 359.460447 80.014697 
L 359.460134 80.010801 
L 359.349147 79.783067 
L 359.301 79.675838 
L 359.191264 79.412369 
L 359.190013 79.412475 
L 359.136239 79.306728 
L 359.136239 79.305852 
L 359.025877 79.064051 
L 359.025252 79.064104 
L 358.968352 78.958757 
L 358.968352 78.957441 
L 358.857365 78.72205 
L 358.807655 78.615366 
L 358.807655 78.614926 
L 358.696668 78.373162 
L 358.65196 78.266212 
L 358.65196 78.265771 
L 358.541286 78.014041 
L 358.540973 78.014067 
L 358.494077 77.906556 
L 358.383403 77.634647 
L 358.38309 77.634672 
L 358.331817 77.527639 
L 358.22083 77.296222 
L 358.172683 77.189094 
L 358.172683 77.18865 
L 358.062322 76.944994 
L 358.061696 76.945043 
L 358.006672 76.838153 
L 357.895685 76.642868 
L 357.832219 76.536352 
L 357.721232 76.365099 
L 357.665894 76.258146 
L 357.55522 76.037247 
L 357.554907 76.03727 
L 357.493942 75.932239 
L 357.493942 75.930448 
L 357.383581 75.660067 
L 357.382955 75.660113 
L 357.329181 75.559155 
L 357.329181 75.552874 
L 357.218507 75.315879 
L 357.218194 75.315902 
L 357.16911 75.208472 
L 357.058748 75.00727 
L 357.058123 75.007315 
L 357.000284 74.900694 
L 357.000284 74.900244 
L 356.88961 74.741383 
L 356.889297 74.741406 
L 356.827707 74.6348 
L 356.717033 74.461082 
L 356.71672 74.461104 
L 356.637622 74.35546 
L 356.526948 74.23154 
L 356.526635 74.231562 
L 356.47036 74.124538 
L 356.359685 73.993519 
L 356.359373 73.99354 
L 356.284026 73.88805 
L 356.284026 73.887597 
L 356.173039 73.726748 
L 356.072057 73.622271 
L 355.961382 73.502396 
L 355.961069 73.502417 
L 355.891976 73.395984 
L 355.781302 73.258948 
L 355.780989 73.258969 
L 355.685946 73.154013 
L 354.58139 71.805732 
L 354.501354 71.700495 
L 354.501354 71.699572 
L 354.390992 71.567927 
L 354.390367 71.567965 
L 354.299702 71.463124 
L 354.299702 71.462662 
L 354.189027 71.329315 
L 354.188714 71.329334 
L 354.098987 71.223704 
L 353.988312 71.102532 
L 353.988 71.102551 
L 353.87076 70.998307 
L 353.760398 70.908373 
L 353.759773 70.90841 
L 353.617834 70.805834 
L 353.50716 70.71103 
L 353.506847 70.711049 
L 353.385855 70.606957 
L 353.275181 70.50492 
L 353.274868 70.504938 
L 353.151376 70.402116 
L 353.151376 70.401183 
L 353.041639 70.316096 
L 353.040388 70.316168 
L 352.917834 70.213499 
L 352.917834 70.212098 
L 352.806847 70.117044 
L 352.687731 70.012976 
L 352.576744 69.918145 
L 352.441058 69.81521 
L 352.441058 69.814741 
L 352.330384 69.70932 
L 352.330071 69.709337 
L 352.201889 69.605223 
L 352.090901 69.510355 
L 351.957717 69.40671 
L 351.847042 69.296035 
L 351.84673 69.296052 
L 351.711357 69.192228 
L 351.60037 69.106753 
L 351.481566 69.003654 
L 351.481566 69.002237 
L 351.371517 68.916018 
L 351.370579 68.916068 
L 351.245523 68.811624 
L 351.134849 68.729946 
L 351.134536 68.729962 
L 350.98572 68.626977 
L 350.875983 68.544556 
L 350.874733 68.544621 
L 350.738734 68.441635 
L 350.738734 68.440686 
L 350.628998 68.354722 
L 350.627747 68.354786 
L 350.491749 68.251049 
L 350.491749 68.250574 
L 350.385764 68.206064 
L 350.380762 68.20632 
L 350.206621 68.104764 
L 350.206621 68.104288 
L 350.095634 68.033684 
L 349.907738 67.932049 
L 349.798939 67.864955 
L 349.796751 67.865065 
L 349.612606 67.763417 
L 349.502244 67.713433 
L 349.501619 67.713464 
L 349.340922 67.611334 
L 349.340922 67.610376 
L 349.233686 67.566322 
L 349.229935 67.566507 
L 348.993892 67.467329 
L 348.883217 67.395934 
L 348.882904 67.39595 
L 348.642172 67.29713 
L 348.642172 67.296649 
L 348.532748 67.245667 
L 348.531185 67.245743 
L 348.263565 67.147887 
L 348.154766 67.093335 
L 348.152578 67.09344 
L 347.970309 66.991658 
L 347.970309 66.991176 
L 347.859322 66.919662 
L 347.67549 66.817165 
L 347.564502 66.758997 
L 347.370353 66.657169 
L 347.264681 66.600036 
L 347.259366 66.600282 
L 346.965485 66.502739 
L 346.855435 66.451452 
L 346.854497 66.451495 
L 346.595319 66.352486 
L 346.487771 66.320879 
L 346.484332 66.321036 
L 346.230156 66.221483 
L 346.119169 66.181626 
L 345.824662 66.084038 
L 345.713987 66.045982 
L 345.713675 66.045996 
L 345.430423 65.947555 
L 345.320999 65.911268 
L 345.319436 65.911337 
L 345.034621 65.813111 
L 344.923947 65.767423 
L 344.923634 65.767437 
L 344.691343 65.666568 
L 344.580668 65.618273 
L 344.580356 65.618286 
L 344.316175 65.518956 
L 344.207376 65.486189 
L 344.205188 65.486283 
L 343.855657 65.390757 
L 343.746233 65.372707 
L 343.744669 65.372773 
L 343.33855 65.279281 
L 343.231627 65.245689 
L 343.227563 65.24586 
L 342.911484 65.148661 
L 342.911484 65.148166 
L 342.802686 65.117007 
L 342.800497 65.117098 
L 342.356236 65.024864 
L 342.247125 65.00453 
L 342.245249 65.004608 
L 341.832252 64.911157 
L 341.832252 64.910658 
L 341.721265 64.884321 
L 341.336405 64.789298 
L 341.227606 64.770756 
L 341.225418 64.770845 
L 340.832117 64.676276 
L 340.832117 64.675775 
L 340.72113 64.6437 
L 340.255297 64.551626 
L 340.144935 64.521899 
L 340.144309 64.521924 
L 339.689419 64.429453 
L 339.580307 64.405088 
L 339.578431 64.405163 
L 339.048194 64.315223 
L 338.93877 64.2953 
L 338.937207 64.295362 
L 338.512017 64.201324 
L 338.361637 64.171253 
L 337.897993 64.078251 
L 337.796385 64.051213 
L 337.787005 64.051577 
L 337.28897 63.959945 
L 337.182673 63.934493 
L 337.177983 63.934673 
L 336.705584 63.84209 
L 336.595222 63.821273 
L 336.594597 63.821297 
L 336.087183 63.729581 
L 335.978072 63.705536 
L 335.976196 63.705607 
L 335.480974 63.613457 
L 335.370612 63.590883 
L 335.369987 63.590907 
L 334.846315 63.499851 
L 334.735328 63.488523 
L 333.999062 63.404852 
L 333.892764 63.38551 
L 333.888074 63.385683 
L 333.126797 63.302846 
L 333.02769 63.296104 
L 333.015809 63.29654 
L 332.391468 63.208648 
L 332.282669 63.191783 
L 332.280481 63.191863 
L 331.720543 63.101094 
L 331.610181 63.086801 
L 331.609556 63.086823 
L 331.006786 62.997606 
L 330.8983 62.978437 
L 330.895799 62.978527 
L 330.191734 62.892895 
L 330.051046 62.875283 
L 329.446713 62.786046 
L 329.306651 62.768821 
L 328.663551 62.680387 
L 328.553814 62.661981 
L 328.552564 62.662025 
L 327.939164 62.573045 
L 327.939164 62.572514 
L 327.796913 62.551406 
L 327.134117 62.463548 
L 327.025318 62.453424 
L 326.345014 62.366134 
L 326.236528 62.344677 
L 326.234027 62.344762 
L 325.554348 62.25684 
L 325.445549 62.237417 
L 325.443361 62.237491 
L 324.813704 62.147819 
L 324.705218 62.133125 
L 324.702717 62.133209 
L 324.008969 62.045638 
L 323.87047 62.029135 
L 323.104503 61.943865 
L 322.814685 61.912101 
L 322.0087 61.827914 
L 321.897713 61.815704 
L 321.136122 61.729414 
L 321.027636 61.716482 
L 321.025135 61.716563 
L 320.379221 61.626458 
L 320.1907 61.612149 
L 319.25278 61.531268 
L 319.15805 61.517147 
L 319.141793 61.517665 
L 318.202936 61.436624 
L 318.0957 61.425017 
L 318.091949 61.425135 
L 317.221247 61.341772 
L 317.115887 61.328338 
L 317.11026 61.328515 
L 316.135761 61.248222 
L 315.999763 61.233392 
L 315.032768 61.152642 
L 314.844559 61.135912 
L 313.99668 61.051259 
L 313.885693 61.042202 
L 312.770194 60.965551 
L 312.637322 60.955362 
L 311.76662 60.871043 
L 311.657822 60.861171 
L 311.655633 60.861237 
L 310.713024 60.778915 
L 310.579214 60.766251 
L 309.654738 60.683176 
L 309.546878 60.670782 
L 309.543751 60.670875 
L 308.768717 60.583207 
L 308.635533 60.570878 
L 307.671664 60.488578 
L 307.539418 60.477854 
L 306.553039 60.395983 
L 306.416415 60.377069 
L 305.309045 60.298387 
L 305.179925 60.292653 
L 304.192921 60.210283 
L 304.060362 60.198047 
L 302.858262 60.121486 
L 302.723827 60.104404 
L 301.622397 60.024653 
L 301.165317 59.979768 
L 300.233338 59.894748 
L 300.100154 59.879092 
L 299.047495 59.79711 
L 298.917437 59.787296 
L 297.955445 59.702578 
L 297.719714 59.686344 
L 296.813997 59.599808 
L 296.70301 59.587421 
L 295.796667 59.500678 
L 295.68568 59.490031 
L 294.749011 59.403861 
L 294.640525 59.398008 
L 294.638024 59.398073 
L 293.616942 59.313866 
L 293.508769 59.302937 
L 293.505955 59.303009 
L 292.402336 59.220619 
L 292.295726 59.213931 
L 292.291349 59.214043 
L 291.359057 59.127011 
L 291.125516 59.107667 
L 290.100995 59.022596 
L 289.993759 59.015749 
L 289.990008 59.015842 
L 288.964862 58.930503 
L 288.833241 58.914594 
L 287.876563 58.827247 
L 287.774642 58.814961 
L 287.765888 58.815173 
L 286.825468 58.727158 
L 286.69666 58.716691 
L 285.49331 58.634619 
L 285.364815 58.624018 
L 284.535069 58.532793 
L 284.409075 58.527242 
L 283.442705 58.438974 
L 283.333281 58.421135 
L 283.331718 58.421171 
L 282.437881 58.330933 
L 282.310011 58.32062 
L 281.352395 58.231545 
L 281.220461 58.212571 
L 280.305052 58.122226 
L 280.178746 58.114304 
L 278.948821 58.030458 
L 278.839397 58.02811 
L 278.837834 58.028144 
L 277.509114 57.945971 
L 277.38187 57.935812 
L 276.225103 57.849483 
L 276.121619 57.844834 
L 276.114116 57.844991 
L 274.852301 57.760414 
L 274.748818 57.752252 
L 274.741314 57.752407 
L 273.458241 57.667751 
L 273.357258 57.655279 
L 273.347253 57.655482 
L 272.051361 57.571216 
L 271.942875 57.56363 
L 271.941312 57.563661 
L 270.822062 57.475379 
L 270.698569 57.469387 
L 269.466143 57.38286 
L 269.35797 57.37647 
L 269.355468 57.376519 
L 267.857299 57.294534 
L 267.653145 57.281305 
L 266.560469 57.191678 
L 266.434787 57.181095 
L 265.066988 57.096036 
L 264.943183 57.088889 
L 263.52161 57.004157 
L 263.366853 56.995254 
L 262.047513 56.908001 
L 261.921519 56.895494 
L 260.795391 56.80424 
L 260.671585 56.795986 
L 259.158721 56.711466 
L 259.049298 56.705826 
L 259.047734 56.705852 
L 257.702133 56.617805 
L 257.553629 56.61346 
L 256.266178 56.523797 
L 256.142373 56.515136 
L 254.844292 56.424968 
L 254.74456 56.414257 
L 254.733305 56.414433 
L 253.234823 56.327395 
L 253.112268 56.320749 
L 251.421824 56.235735 
L 251.2283 56.220615 
L 249.638527 56.133807 
L 249.515347 56.122938 
L 247.686404 56.038519 
L 247.600115 56.030936 
L 247.575417 56.031285 
L 245.834639 55.945308 
L 245.734594 55.937783 
L 245.723651 55.937933 
L 244.088233 55.84944 
L 243.96599 55.840437 
L 242.598817 55.748234 
L 242.4772 55.739892 
L 240.921191 55.649175 
L 240.772375 55.636003 
L 238.804307 55.549932 
L 238.696134 55.54531 
L 238.69332 55.545343 
L 236.849683 55.456461 
L 236.728379 55.448448 
L 235.068887 55.357027 
L 234.947896 55.348843 
L 233.088939 55.25918 
L 233.088939 55.258304 
L 232.992021 55.250563 
L 232.977952 55.250711 
L 231.463212 55.156149 
L 231.286883 55.142849 
L 229.564551 55.049027 
L 229.46138 55.043724 
L 229.453876 55.043795 
L 227.759369 54.949272 
L 227.460172 54.930125 
L 225.5662 54.836544 
L 225.393311 54.822307 
L 223.376471 54.727907 
L 223.267047 54.717523 
L 223.265484 54.717535 
L 221.672584 54.619175 
L 221.530021 54.605029 
L 219.511305 54.508876 
L 219.403445 54.500916 
L 219.400318 54.500936 
L 217.479772 54.402254 
L 217.343148 54.395238 
L 215.200003 54.296763 
L 215.06463 54.290515 
L 212.505048 54.192648 
L 212.388433 54.191149 
L 210.534166 54.088805 
L 210.416926 54.085144 
L 208.379765 53.982438 
L 208.276594 53.973361 
L 208.268778 53.973385 
L 205.864578 53.870198 
L 205.747026 53.864081 
L 201.900618 53.762218 
L 201.813704 53.757959 
L 201.789631 53.757995 
L 194.513878 53.657683 
L 151.48495 53.578863 
L 150.718357 53.577142 
L 73.832727 53.568 
L 73.832727 53.568 
" clip-path="url(#p6533003f38)" style="fill: none; stroke: #1f77b4; stroke-width: 1.5; stroke-linecap: square"/>
   </g>
   <g id="patch_3">
    <path d="M 57.6 307.584 
L 57.6 41.472 
" style="fill: none; stroke: #000000; stroke-width: 0.8; stroke-linejoin: miter; stroke-linecap: square"/>
   </g>
   <g id="patch_4">
    <path d="M 414.72 307.584 
L 414.72 41.472 
" style="fill: none; stroke: #000000; stroke-width: 0.8; stroke-linejoin: miter; stroke-linecap: square"/>
   </g>
   <g id="patch_5">
    <path d="M 57.6 307.584 
L 414.72 307.584 
" style="fill: none; stroke: #000000; stroke-width: 0.8; stroke-linejoin: miter; stroke-linecap: square"/>
   </g>
   <g id="patch_6">
    <path d="M 57.6 41.472 
L 414.72 41.472 
" style="fill: none; stroke: #000000; stroke-width: 0.8; stroke-linejoin: miter; stroke-linecap: square"/>
   </g>
   <g id="text_13">
    <!-- Precision Recall -->
    <g transform="translate(189.584063 35.472) scale(0.12 -0.12)">
     <defs>
      <path id="DejaVuSans-50" d="M 1259 4147 
L 1259 2394 
L 2053 2394 
Q 2494 2394 2734 2622 
Q 2975 2850 2975 3272 
Q 2975 3691 2734 3919 
Q 2494 4147 2053 4147 
L 1259 4147 
z
M 628 4666 
L 2053 4666 
Q 2838 4666 3239 4311 
Q 3641 3956 3641 3272 
Q 3641 2581 3239 2228 
Q 2838 1875 2053 1875 
L 1259 1875 
L 1259 0 
L 628 0 
L 628 4666 
z
" transform="scale(0.015625)"/>
      <path id="DejaVuSans-72" d="M 2631 2963 
Q 2534 3019 2420 3045 
Q 2306 3072 2169 3072 
Q 1681 3072 1420 2755 
Q 1159 2438 1159 1844 
L 1159 0 
L 581 0 
L 581 3500 
L 1159 3500 
L 1159 2956 
Q 1341 3275 1631 3429 
Q 1922 3584 2338 3584 
Q 2397 3584 2469 3576 
Q 2541 3569 2628 3553 
L 2631 2963 
z
" transform="scale(0.015625)"/>
      <path id="DejaVuSans-65" d="M 3597 1894 
L 3597 1613 
L 953 1613 
Q 991 1019 1311 708 
Q 1631 397 2203 397 
Q 2534 397 2845 478 
Q 3156 559 3463 722 
L 3463 178 
Q 3153 47 2828 -22 
Q 2503 -91 2169 -91 
Q 1331 -91 842 396 
Q 353 884 353 1716 
Q 353 2575 817 3079 
Q 1281 3584 2069 3584 
Q 2775 3584 3186 3129 
Q 3597 2675 3597 1894 
z
M 3022 2063 
Q 3016 2534 2758 2815 
Q 2500 3097 2075 3097 
Q 1594 3097 1305 2825 
Q 1016 2553 972 2059 
L 3022 2063 
z
" transform="scale(0.015625)"/>
      <path id="DejaVuSans-63" d="M 3122 3366 
L 3122 2828 
Q 2878 2963 2633 3030 
Q 2388 3097 2138 3097 
Q 1578 3097 1268 2742 
Q 959 2388 959 1747 
Q 959 1106 1268 751 
Q 1578 397 2138 397 
Q 2388 397 2633 464 
Q 2878 531 3122 666 
L 3122 134 
Q 2881 22 2623 -34 
Q 2366 -91 2075 -91 
Q 1284 -91 818 406 
Q 353 903 353 1747 
Q 353 2603 823 3093 
Q 1294 3584 2113 3584 
Q 2378 3584 2631 3529 
Q 2884 3475 3122 3366 
z
" transform="scale(0.015625)"/>
      <path id="DejaVuSans-69" d="M 603 3500 
L 1178 3500 
L 1178 0 
L 603 0 
L 603 3500 
z
M 603 4863 
L 1178 4863 
L 1178 4134 
L 603 4134 
L 603 4863 
z
" transform="scale(0.015625)"/>
      <path id="DejaVuSans-73" d="M 2834 3397 
L 2834 2853 
Q 2591 2978 2328 3040 
Q 2066 3103 1784 3103 
Q 1356 3103 1142 2972 
Q 928 2841 928 2578 
Q 928 2378 1081 2264 
Q 1234 2150 1697 2047 
L 1894 2003 
Q 2506 1872 2764 1633 
Q 3022 1394 3022 966 
Q 3022 478 2636 193 
Q 2250 -91 1575 -91 
Q 1294 -91 989 -36 
Q 684 19 347 128 
L 347 722 
Q 666 556 975 473 
Q 1284 391 1588 391 
Q 1994 391 2212 530 
Q 2431 669 2431 922 
Q 2431 1156 2273 1281 
Q 2116 1406 1581 1522 
L 1381 1569 
Q 847 1681 609 1914 
Q 372 2147 372 2553 
Q 372 3047 722 3315 
Q 1072 3584 1716 3584 
Q 2034 3584 2315 3537 
Q 2597 3491 2834 3397 
z
" transform="scale(0.015625)"/>
      <path id="DejaVuSans-6f" d="M 1959 3097 
Q 1497 3097 1228 2736 
Q 959 2375 959 1747 
Q 959 1119 1226 758 
Q 1494 397 1959 397 
Q 2419 397 2687 759 
Q 2956 1122 2956 1747 
Q 2956 2369 2687 2733 
Q 2419 3097 1959 3097 
z
M 1959 3584 
Q 2709 3584 3137 3096 
Q 3566 2609 3566 1747 
Q 3566 888 3137 398 
Q 2709 -91 1959 -91 
Q 1206 -91 779 398 
Q 353 888 353 1747 
Q 353 2609 779 3096 
Q 1206 3584 1959 3584 
z
" transform="scale(0.015625)"/>
      <path id="DejaVuSans-6e" d="M 3513 2113 
L 3513 0 
L 2938 0 
L 2938 2094 
Q 2938 2591 2744 2837 
Q 2550 3084 2163 3084 
Q 1697 3084 1428 2787 
Q 1159 2491 1159 1978 
L 1159 0 
L 581 0 
L 581 3500 
L 1159 3500 
L 1159 2956 
Q 1366 3272 1645 3428 
Q 1925 3584 2291 3584 
Q 2894 3584 3203 3211 
Q 3513 2838 3513 2113 
z
" transform="scale(0.015625)"/>
      <path id="DejaVuSans-20" transform="scale(0.015625)"/>
      <path id="DejaVuSans-52" d="M 2841 2188 
Q 3044 2119 3236 1894 
Q 3428 1669 3622 1275 
L 4263 0 
L 3584 0 
L 2988 1197 
Q 2756 1666 2539 1819 
Q 2322 1972 1947 1972 
L 1259 1972 
L 1259 0 
L 628 0 
L 628 4666 
L 2053 4666 
Q 2853 4666 3247 4331 
Q 3641 3997 3641 3322 
Q 3641 2881 3436 2590 
Q 3231 2300 2841 2188 
z
M 1259 4147 
L 1259 2491 
L 2053 2491 
Q 2509 2491 2742 2702 
Q 2975 2913 2975 3322 
Q 2975 3731 2742 3939 
Q 2509 4147 2053 4147 
L 1259 4147 
z
" transform="scale(0.015625)"/>
      <path id="DejaVuSans-61" d="M 2194 1759 
Q 1497 1759 1228 1600 
Q 959 1441 959 1056 
Q 959 750 1161 570 
Q 1363 391 1709 391 
Q 2188 391 2477 730 
Q 2766 1069 2766 1631 
L 2766 1759 
L 2194 1759 
z
M 3341 1997 
L 3341 0 
L 2766 0 
L 2766 531 
Q 2569 213 2275 61 
Q 1981 -91 1556 -91 
Q 1019 -91 701 211 
Q 384 513 384 1019 
Q 384 1609 779 1909 
Q 1175 2209 1959 2209 
L 2766 2209 
L 2766 2266 
Q 2766 2663 2505 2880 
Q 2244 3097 1772 3097 
Q 1472 3097 1187 3025 
Q 903 2953 641 2809 
L 641 3341 
Q 956 3463 1253 3523 
Q 1550 3584 1831 3584 
Q 2591 3584 2966 3190 
Q 3341 2797 3341 1997 
z
" transform="scale(0.015625)"/>
      <path id="DejaVuSans-6c" d="M 603 4863 
L 1178 4863 
L 1178 0 
L 603 0 
L 603 4863 
z
" transform="scale(0.015625)"/>
     </defs>
     <use xlink:href="#DejaVuSans-50"/>
     <use xlink:href="#DejaVuSans-72" transform="translate(58.552734 0)"/>
     <use xlink:href="#DejaVuSans-65" transform="translate(97.416016 0)"/>
     <use xlink:href="#DejaVuSans-63" transform="translate(158.939453 0)"/>
     <use xlink:href="#DejaVuSans-69" transform="translate(213.919922 0)"/>
     <use xlink:href="#DejaVuSans-73" transform="translate(241.703125 0)"/>
     <use xlink:href="#DejaVuSans-69" transform="translate(293.802734 0)"/>
     <use xlink:href="#DejaVuSans-6f" transform="translate(321.585938 0)"/>
     <use xlink:href="#DejaVuSans-6e" transform="translate(382.767578 0)"/>
     <use xlink:href="#DejaVuSans-20" transform="translate(446.146484 0)"/>
     <use xlink:href="#DejaVuSans-52" transform="translate(477.933594 0)"/>
     <use xlink:href="#DejaVuSans-65" transform="translate(542.916016 0)"/>
     <use xlink:href="#DejaVuSans-63" transform="translate(604.439453 0)"/>
     <use xlink:href="#DejaVuSans-61" transform="translate(659.419922 0)"/>
     <use xlink:href="#DejaVuSans-6c" transform="translate(720.699219 0)"/>
     <use xlink:href="#DejaVuSans-6c" transform="translate(748.482422 0)"/>
    </g>
   </g>
  </g>
 </g>
 <defs>
  <clipPath id="p6533003f38">
   <rect x="57.6" y="41.472" width="357.12" height="266.112"/>
  </clipPath>
 </defs>
</svg>
