<?xml version="1.0" encoding="utf-8" standalone="no"?>
<!DOCTYPE svg PUBLIC "-//W3C//DTD SVG 1.1//EN"
  "http://www.w3.org/Graphics/SVG/1.1/DTD/svg11.dtd">
<svg xmlns:xlink="http://www.w3.org/1999/xlink" width="460.8pt" height="345.6pt" viewBox="0 0 460.8 345.6" xmlns="http://www.w3.org/2000/svg" version="1.1">
 <metadata>
  <rdf:RDF xmlns:dc="http://purl.org/dc/elements/1.1/" xmlns:cc="http://creativecommons.org/ns#" xmlns:rdf="http://www.w3.org/1999/02/22-rdf-syntax-ns#">
   <cc:Work>
    <dc:type rdf:resource="http://purl.org/dc/dcmitype/StillImage"/>
    <dc:date>2026-03-17T10:51:29.139465</dc:date>
    <dc:format>image/svg+xml</dc:format>
    <dc:creator>
     <cc:Agent>
      <dc:title>Matplotlib v3.10.8, https://matplotlib.org/</dc:title>
     </cc:Agent>
    </dc:creator>
   </cc:Work>
  </rdf:RDF>
 </metadata>
 <defs>
  <style type="text/css">*{stroke-linejoin: round; stroke-linecap: butt}</style>
 </defs>
 <g id="figure_1">
  <g id="patch_1">
   <path d="M 0 345.6 
L 460.8 345.6 
L 460.8 0 
L 0 0 
z
" style="fill: #ffffff"/>
  </g>
  <g id="axes_1">
   <g id="patch_2">
    <path d="M 57.6 307.584 
L 414.72 307.584 
L 414.72 41.472 
L 57.6 41.472 
z
" style="fill: #ffffff"/>
   </g>
   <g id="matplotlib.axis_1">
    <g id="xtick_1">
     <g id="line2d_1">
      <defs>
       <path id="m7cfc498eeb" d="M 0 0 
L 0 3.5 
" style="stroke: #000000; stroke-width: 0.8"/>
      </defs>
      <g>
       <use xlink:href="#m7cfc498eeb" x="73.832727" y="307.584" style="stroke: #000000; stroke-width: 0.8"/>
      </g>
     </g>
     <g id="text_1">
      <!-- 0.0 -->
      <g transform="translate(65.881165 322.182437) scale(0.1 -0.1)">
       <defs>
        <path id="DejaVuSans-30" d="M 2034 4250 
Q 1547 4250 1301 3770 
Q 1056 3291 1056 2328 
Q 1056 1369 1301 889 
Q 1547 409 2034 409 
Q 2525 409 2770 889 
Q 3016 1369 3016 2328 
Q 3016 3291 2770 3770 
Q 2525 4250 2034 4250 
z
M 2034 4750 
Q 2819 4750 3233 4129 
Q 3647 3509 3647 2328 
Q 3647 1150 3233 529 
Q 2819 -91 2034 -91 
Q 1250 -91 836 529 
Q 422 1150 422 2328 
Q 422 3509 836 4129 
Q 1250 4750 2034 4750 
z
" transform="scale(0.015625)"/>
        <path id="DejaVuSans-2e" d="M 684 794 
L 1344 794 
L 1344 0 
L 684 0 
L 684 794 
z
" transform="scale(0.015625)"/>
       </defs>
       <use xlink:href="#DejaVuSans-30"/>
       <use xlink:href="#DejaVuSans-2e" transform="translate(63.623047 0)"/>
       <use xlink:href="#DejaVuSans-30" transform="translate(95.410156 0)"/>
      </g>
     </g>
    </g>
    <g id="xtick_2">
     <g id="line2d_2">
      <g>
       <use xlink:href="#m7cfc498eeb" x="138.763636" y="307.584" style="stroke: #000000; stroke-width: 0.8"/>
      </g>
     </g>
     <g id="text_2">
      <!-- 0.2 -->
      <g transform="translate(130.812074 322.182437) scale(0.1 -0.1)">
       <defs>
        <path id="DejaVuSans-32" d="M 1228 531 
L 3431 531 
L 3431 0 
L 469 0 
L 469 531 
Q 828 903 1448 1529 
Q 2069 2156 2228 2338 
Q 2531 2678 2651 2914 
Q 2772 3150 2772 3378 
Q 2772 3750 2511 3984 
Q 2250 4219 1831 4219 
Q 1534 4219 1204 4116 
Q 875 4013 500 3803 
L 500 4441 
Q 881 4594 1212 4672 
Q 1544 4750 1819 4750 
Q 2544 4750 2975 4387 
Q 3406 4025 3406 3419 
Q 3406 3131 3298 2873 
Q 3191 2616 2906 2266 
Q 2828 2175 2409 1742 
Q 1991 1309 1228 531 
z
" transform="scale(0.015625)"/>
       </defs>
       <use xlink:href="#DejaVuSans-30"/>
       <use xlink:href="#DejaVuSans-2e" transform="translate(63.623047 0)"/>
       <use xlink:href="#DejaVuSans-32" transform="translate(95.410156 0)"/>
      </g>
     </g>
    </g>
    <g id="xtick_3">
     <g id="line2d_3">
      <g>
       <use xlink:href="#m7cfc498eeb" x="203.694545" y="307.584" style="stroke: #000000; stroke-width: 0.8"/>
      </g>
     </g>
     <g id="text_3">
      <!-- 0.4 -->
      <g transform="translate(195.742983 322.182437) scale(0.1 -0.1)">
       <defs>
        <path id="DejaVuSans-34" d="M 2419 4116 
L 825 1625 
L 2419 1625 
L 2419 4116 
z
M 2253 4666 
L 3047 4666 
L 3047 1625 
L 3713 1625 
L 3713 1100 
L 3047 1100 
L 3047 0 
L 2419 0 
L 2419 1100 
L 313 1100 
L 313 1709 
L 2253 4666 
z
" transform="scale(0.015625)"/>
       </defs>
       <use xlink:href="#DejaVuSans-30"/>
       <use xlink:href="#DejaVuSans-2e" transform="translate(63.623047 0)"/>
       <use xlink:href="#DejaVuSans-34" transform="translate(95.410156 0)"/>
      </g>
     </g>
    </g>
    <g id="xtick_4">
     <g id="line2d_4">
      <g>
       <use xlink:href="#m7cfc498eeb" x="268.625455" y="307.584" style="stroke: #000000; stroke-width: 0.8"/>
      </g>
     </g>
     <g id="text_4">
      <!-- 0.6 -->
      <g transform="translate(260.673892 322.182437) scale(0.1 -0.1)">
       <defs>
        <path id="DejaVuSans-36" d="M 2113 2584 
Q 1688 2584 1439 2293 
Q 1191 2003 1191 1497 
Q 1191 994 1439 701 
Q 1688 409 2113 409 
Q 2538 409 2786 701 
Q 3034 994 3034 1497 
Q 3034 2003 2786 2293 
Q 2538 2584 2113 2584 
z
M 3366 4563 
L 3366 3988 
Q 3128 4100 2886 4159 
Q 2644 4219 2406 4219 
Q 1781 4219 1451 3797 
Q 1122 3375 1075 2522 
Q 1259 2794 1537 2939 
Q 1816 3084 2150 3084 
Q 2853 3084 3261 2657 
Q 3669 2231 3669 1497 
Q 3669 778 3244 343 
Q 2819 -91 2113 -91 
Q 1303 -91 875 529 
Q 447 1150 447 2328 
Q 447 3434 972 4092 
Q 1497 4750 2381 4750 
Q 2619 4750 2861 4703 
Q 3103 4656 3366 4563 
z
" transform="scale(0.015625)"/>
       </defs>
       <use xlink:href="#DejaVuSans-30"/>
       <use xlink:href="#DejaVuSans-2e" transform="translate(63.623047 0)"/>
       <use xlink:href="#DejaVuSans-36" transform="translate(95.410156 0)"/>
      </g>
     </g>
    </g>
    <g id="xtick_5">
     <g id="line2d_5">
      <g>
       <use xlink:href="#m7cfc498eeb" x="333.556364" y="307.584" style="stroke: #000000; stroke-width: 0.8"/>
      </g>
     </g>
     <g id="text_5">
      <!-- 0.8 -->
      <g transform="translate(325.604801 322.182437) scale(0.1 -0.1)">
       <defs>
        <path id="DejaVuSans-38" d="M 2034 2216 
Q 1584 2216 1326 1975 
Q 1069 1734 1069 1313 
Q 1069 891 1326 650 
Q 1584 409 2034 409 
Q 2484 409 2743 651 
Q 3003 894 3003 1313 
Q 3003 1734 2745 1975 
Q 2488 2216 2034 2216 
z
M 1403 2484 
Q 997 2584 770 2862 
Q 544 3141 544 3541 
Q 544 4100 942 4425 
Q 1341 4750 2034 4750 
Q 2731 4750 3128 4425 
Q 3525 4100 3525 3541 
Q 3525 3141 3298 2862 
Q 3072 2584 2669 2484 
Q 3125 2378 3379 2068 
Q 3634 1759 3634 1313 
Q 3634 634 3220 271 
Q 2806 -91 2034 -91 
Q 1263 -91 848 271 
Q 434 634 434 1313 
Q 434 1759 690 2068 
Q 947 2378 1403 2484 
z
M 1172 3481 
Q 1172 3119 1398 2916 
Q 1625 2713 2034 2713 
Q 2441 2713 2670 2916 
Q 2900 3119 2900 3481 
Q 2900 3844 2670 4047 
Q 2441 4250 2034 4250 
Q 1625 4250 1398 4047 
Q 1172 3844 1172 3481 
z
" transform="scale(0.015625)"/>
       </defs>
       <use xlink:href="#DejaVuSans-30"/>
       <use xlink:href="#DejaVuSans-2e" transform="translate(63.623047 0)"/>
       <use xlink:href="#DejaVuSans-38" transform="translate(95.410156 0)"/>
      </g>
     </g>
    </g>
    <g id="xtick_6">
     <g id="line2d_6">
      <g>
       <use xlink:href="#m7cfc498eeb" x="398.487273" y="307.584" style="stroke: #000000; stroke-width: 0.8"/>
      </g>
     </g>
     <g id="text_6">
      <!-- 1.0 -->
      <g transform="translate(390.53571 322.182437) scale(0.1 -0.1)">
       <defs>
        <path id="DejaVuSans-31" d="M 794 531 
L 1825 531 
L 1825 4091 
L 703 3866 
L 703 4441 
L 1819 4666 
L 2450 4666 
L 2450 531 
L 3481 531 
L 3481 0 
L 794 0 
L 794 531 
z
" transform="scale(0.015625)"/>
       </defs>
       <use xlink:href="#DejaVuSans-31"/>
       <use xlink:href="#DejaVuSans-2e" transform="translate(63.623047 0)"/>
       <use xlink:href="#DejaVuSans-30" transform="translate(95.410156 0)"/>
      </g>
     </g>
    </g>
   </g>
   <g id="matplotlib.axis_2">
    <g id="ytick_1">
     <g id="line2d_7">
      <defs>
       <path id="m378a7b06e4" d="M 0 0 
L -3.5 0 
" style="stroke: #000000; stroke-width: 0.8"/>
      </defs>
      <g>
       <use xlink:href="#m378a7b06e4" x="57.6" y="295.488" style="stroke: #000000; stroke-width: 0.8"/>
      </g>
     </g>
     <g id="text_7">
      <!-- 0.0 -->
      <g transform="translate(34.696875 299.287219) scale(0.1 -0.1)">
       <use xlink:href="#DejaVuSans-30"/>
       <use xlink:href="#DejaVuSans-2e" transform="translate(63.623047 0)"/>
       <use xlink:href="#DejaVuSans-30" transform="translate(95.410156 0)"/>
      </g>
     </g>
    </g>
    <g id="ytick_2">
     <g id="line2d_8">
      <g>
       <use xlink:href="#m378a7b06e4" x="57.6" y="247.104" style="stroke: #000000; stroke-width: 0.8"/>
      </g>
     </g>
     <g id="text_8">
      <!-- 0.2 -->
      <g transform="translate(34.696875 250.903219) scale(0.1 -0.1)">
       <use xlink:href="#DejaVuSans-30"/>
       <use xlink:href="#DejaVuSans-2e" transform="translate(63.623047 0)"/>
       <use xlink:href="#DejaVuSans-32" transform="translate(95.410156 0)"/>
      </g>
     </g>
    </g>
    <g id="ytick_3">
     <g id="line2d_9">
      <g>
       <use xlink:href="#m378a7b06e4" x="57.6" y="198.72" style="stroke: #000000; stroke-width: 0.8"/>
      </g>
     </g>
     <g id="text_9">
      <!-- 0.4 -->
      <g transform="translate(34.696875 202.519219) scale(0.1 -0.1)">
       <use xlink:href="#DejaVuSans-30"/>
       <use xlink:href="#DejaVuSans-2e" transform="translate(63.623047 0)"/>
       <use xlink:href="#DejaVuSans-34" transform="translate(95.410156 0)"/>
      </g>
     </g>
    </g>
    <g id="ytick_4">
     <g id="line2d_10">
      <g>
       <use xlink:href="#m378a7b06e4" x="57.6" y="150.336" style="stroke: #000000; stroke-width: 0.8"/>
      </g>
     </g>
     <g id="text_10">
      <!-- 0.6 -->
      <g transform="translate(34.696875 154.135219) scale(0.1 -0.1)">
       <use xlink:href="#DejaVuSans-30"/>
       <use xlink:href="#DejaVuSans-2e" transform="translate(63.623047 0)"/>
       <use xlink:href="#DejaVuSans-36" transform="translate(95.410156 0)"/>
      </g>
     </g>
    </g>
    <g id="ytick_5">
     <g id="line2d_11">
      <g>
       <use xlink:href="#m378a7b06e4" x="57.6" y="101.952" style="stroke: #000000; stroke-width: 0.8"/>
      </g>
     </g>
     <g id="text_11">
      <!-- 0.8 -->
      <g transform="translate(34.696875 105.751219) scale(0.1 -0.1)">
       <use xlink:href="#DejaVuSans-30"/>
       <use xlink:href="#DejaVuSans-2e" transform="translate(63.623047 0)"/>
       <use xlink:href="#DejaVuSans-38" transform="translate(95.410156 0)"/>
      </g>
     </g>
    </g>
    <g id="ytick_6">
     <g id="line2d_12">
      <g>
       <use xlink:href="#m378a7b06e4" x="57.6" y="53.568" style="stroke: #000000; stroke-width: 0.8"/>
      </g>
     </g>
     <g id="text_12">
      <!-- 1.0 -->
      <g transform="translate(34.696875 57.367219) scale(0.1 -0.1)">
       <use xlink:href="#DejaVuSans-31"/>
       <use xlink:href="#DejaVuSans-2e" transform="translate(63.623047 0)"/>
       <use xlink:href="#DejaVuSans-30" transform="translate(95.410156 0)"/>
      </g>
     </g>
    </g>
   </g>
   <g id="line2d_13">
    <path d="M 73.832727 295.488 
L 73.943613 194.93545 
L 73.946566 194.847854 
L 73.946566 194.825023 
L 74.057452 188.673761 
L 74.060137 188.524429 
L 74.171022 183.74278 
L 74.17666 183.51121 
L 74.287546 178.842084 
L 74.290768 178.692519 
L 74.401653 174.780536 
L 74.406486 174.629341 
L 74.517372 170.364179 
L 74.5265 170.125854 
L 74.637386 166.518126 
L 74.643024 166.394886 
L 74.753909 162.731246 
L 74.759279 162.622917 
L 74.759279 162.621053 
L 74.870165 159.537035 
L 74.884395 159.191311 
L 74.99528 156.203975 
L 74.999844 156.093315 
L 75.11073 153.423513 
L 75.12845 153.067772 
L 75.239336 150.547534 
L 75.243094 150.39727 
L 75.35398 147.920131 
L 75.36284 147.765441 
L 75.473726 145.370307 
L 75.479095 145.266171 
L 75.479095 145.259414 
L 75.589981 142.893634 
L 75.594008 142.78344 
L 75.594008 142.782974 
L 75.704894 140.779225 
L 75.711874 140.672526 
L 75.711874 140.66973 
L 75.82276 139.03267 
L 75.828398 138.924807 
L 75.828398 138.922244 
L 75.939284 137.085532 
L 75.943042 136.981162 
L 75.943042 136.974872 
L 76.053928 135.311021 
L 76.065205 135.154468 
L 76.17609 133.326608 
L 76.183608 133.218977 
L 76.183608 133.215716 
L 76.294493 131.416045 
L 76.300937 131.310278 
L 76.300937 131.30655 
L 76.411822 129.62313 
L 76.420951 129.514568 
L 76.420951 129.512471 
L 76.531837 127.964871 
L 76.538817 127.854444 
L 76.649434 126.176149 
L 76.657757 126.065257 
L 76.768643 124.283292 
L 76.779919 124.126971 
L 76.890805 122.440755 
L 76.897517 122.332659 
L 76.897517 122.329863 
L 77.008403 120.686979 
L 77.02129 120.529261 
L 77.131907 119.181546 
L 77.140499 119.072983 
L 77.140499 119.070654 
L 77.151238 118.915265 
L 77.262124 117.46388 
L 77.269641 117.354152 
L 77.269641 117.353686 
L 77.380527 115.845225 
L 77.392072 115.688205 
L 77.502957 114.192323 
L 77.517724 114.03344 
L 77.62861 112.648916 
L 77.638544 112.53849 
L 77.638544 112.538024 
L 77.749429 111.295145 
L 77.765002 111.13463 
L 77.875619 109.952089 
L 77.890923 109.791808 
L 78.231634 106.647917 
L 78.342519 105.726067 
L 78.364804 105.559728 
L 78.475689 104.60666 
L 78.491262 104.497165 
L 78.491262 104.496699 
L 78.602147 103.539904 
L 78.617719 103.429011 
L 78.728336 102.5668 
L 78.743909 102.462431 
L 78.743909 102.458936 
L 78.854794 101.416176 
L 78.865802 101.305982 
L 78.976688 100.456817 
L 78.99575 100.349885 
L 78.99575 100.348255 
L 79.106636 99.629318 
L 79.123551 99.519358 
L 79.123551 99.518892 
L 79.234436 98.846083 
L 79.256989 98.736355 
L 79.367875 98.087309 
L 79.390428 97.981542 
L 79.501045 97.272157 
L 79.520376 97.164294 
L 79.631261 96.569296 
L 79.655962 96.465625 
L 79.766848 95.895322 
L 79.788595 95.785129 
L 79.899481 95.195955 
L 79.917738 95.086227 
L 80.028624 94.636834 
L 80.04876 94.526407 
L 80.159646 93.995708 
L 80.188911 93.885748 
L 80.299796 93.55377 
L 80.336848 93.444275 
L 80.447733 93.075488 
L 80.477804 92.965062 
L 80.588689 92.571348 
L 80.619834 92.460921 
L 80.730719 92.114266 
L 80.765623 92.004306 
L 80.876508 91.65369 
L 80.923494 91.543264 
L 81.034379 91.291427 
L 81.092373 91.182165 
L 81.203258 90.893286 
L 81.238699 90.782394 
L 81.349316 90.483264 
L 81.392274 90.373536 
L 81.392274 90.372604 
L 81.503159 90.103528 
L 81.55095 89.992868 
L 81.661836 89.752912 
L 81.713117 89.643883 
L 81.824002 89.411382 
L 81.870988 89.30049 
L 81.981873 89.1246 
L 82.049264 89.013941 
L 82.160149 88.821743 
L 82.229956 88.711782 
L 82.340573 88.549637 
L 82.412259 88.438745 
L 82.522876 88.27194 
L 82.603154 88.162679 
L 82.71404 88.000301 
L 82.793244 87.891971 
L 82.793244 87.890573 
L 82.904129 87.720507 
L 82.984407 87.609848 
L 83.095293 87.449334 
L 83.168322 87.338674 
L 83.279207 87.184916 
L 83.359485 87.074956 
L 83.47037 86.903026 
L 83.545279 86.792366 
L 83.655896 86.657246 
L 83.760337 86.546586 
L 83.871223 86.438489 
L 84.941147 85.364744 
L 85.052033 85.274586 
L 85.155938 85.163927 
L 85.266823 85.05979 
L 85.390596 84.949131 
L 85.501482 84.852916 
L 85.61183 84.742722 
L 85.722447 84.651399 
L 85.874143 84.540507 
L 85.98476 84.454309 
L 86.152565 84.34365 
L 86.26345 84.279118 
L 86.72525 84.024485 
L 86.899767 83.913592 
L 87.010384 83.825997 
L 87.176578 83.71557 
L 87.176578 83.715337 
L 87.286927 83.650805 
L 87.499837 83.539913 
L 87.610186 83.472586 
L 87.838401 83.362392 
L 87.949286 83.303917 
L 88.15817 83.193491 
L 88.268787 83.134783 
L 88.470958 83.023891 
L 88.581844 82.95866 
L 88.781867 82.847768 
L 88.891679 82.793254 
L 89.09036 82.682827 
L 89.201246 82.62575 
L 89.428386 82.515557 
L 89.539272 82.454753 
L 89.76158 82.34386 
L 89.872465 82.282357 
L 90.068462 82.171465 
L 90.178273 82.103904 
L 90.378297 81.993245 
L 90.488914 81.928247 
L 90.699408 81.817588 
L 90.810294 81.76284 
L 91.037166 81.652181 
L 91.147246 81.597667 
L 91.359889 81.486774 
L 91.470774 81.428067 
L 91.679658 81.317407 
L 91.790275 81.264524 
L 92.024128 81.153631 
L 92.132865 81.091196 
L 92.373162 80.980304 
L 92.483242 80.927886 
L 92.658028 80.816994 
L 92.768913 80.741746 
L 93.018607 80.630853 
L 93.129493 80.574242 
L 93.364151 80.463583 
L 93.474768 80.420018 
L 93.698687 80.309359 
L 93.809304 80.252515 
L 94.062757 80.141622 
L 94.173642 80.095262 
L 94.433539 79.98437 
L 94.544156 79.934981 
L 94.771833 79.824088 
L 94.88245 79.774466 
L 95.11684 79.663574 
L 95.224504 79.620941 
L 95.50937 79.510049 
L 95.620255 79.467416 
L 95.906195 79.356523 
L 96.015738 79.314123 
L 96.302752 79.203231 
L 96.413637 79.154308 
L 96.679977 79.043649 
L 96.790863 78.995424 
L 97.066868 78.884765 
L 97.177754 78.831416 
L 97.457518 78.720523 
L 97.568404 78.675794 
L 97.850585 78.576783 
L 98.165521 78.466589 
L 98.274796 78.427218 
L 98.276138 78.427218 
L 98.583557 78.316558 
L 98.694442 78.270897 
L 98.988973 78.160237 
L 99.099322 78.119002 
L 99.38204 78.00811 
L 99.492925 77.96804 
L 99.765441 77.877415 
L 100.073933 77.766523 
L 100.183476 77.720862 
L 100.484988 77.609969 
L 100.595605 77.571064 
L 100.861945 77.460404 
L 100.972562 77.416374 
L 101.266288 77.305481 
L 101.376368 77.264246 
L 101.667946 77.153354 
L 101.778832 77.104431 
L 102.076048 76.993538 
L 102.35447 76.883345 
L 102.464818 76.841644 
L 102.760692 76.730751 
L 102.871309 76.688351 
L 102.871578 76.688351 
L 103.195643 76.577459 
L 103.304917 76.538088 
L 103.306528 76.538088 
L 103.608309 76.427195 
L 103.719194 76.385494 
L 103.994931 76.274602 
L 104.105817 76.228707 
L 104.404912 76.117815 
L 104.513381 76.086365 
L 104.515798 76.086365 
L 104.810598 75.975472 
L 104.921215 75.926782 
L 105.22219 75.81589 
L 105.332538 75.774189 
L 105.649354 75.663296 
L 105.760239 75.617169 
L 106.060677 75.506277 
L 106.171294 75.464808 
L 106.490795 75.354615 
L 106.490795 75.354149 
L 106.601681 75.315244 
L 106.933532 75.204351 
L 107.044149 75.157991 
L 107.34942 75.047098 
L 107.458426 75.006329 
L 107.788934 74.895437 
L 107.897672 74.856065 
L 108.193277 74.745173 
L 108.303894 74.702074 
L 108.605675 74.591182 
L 108.71656 74.54552 
L 109.026127 74.434861 
L 109.133253 74.396188 
L 109.417045 74.285296 
L 109.527662 74.248021 
L 109.843136 74.137362 
L 109.954021 74.094962 
L 110.274864 73.984536 
L 110.384944 73.944931 
L 110.711694 73.834272 
L 110.822311 73.807015 
L 111.203564 73.696122 
L 111.314449 73.659547 
L 111.651133 73.548887 
L 111.76175 73.516505 
L 112.108637 73.405612 
L 112.219522 73.375327 
L 112.597016 73.264667 
L 112.707902 73.230188 
L 113.157888 73.119296 
L 113.267968 73.082953 
L 113.614586 72.972061 
L 113.724934 72.939212 
L 114.113973 72.82832 
L 114.22459 72.7985 
L 114.610944 72.687608 
L 114.72183 72.662913 
L 115.093149 72.552021 
L 115.204034 72.52523 
L 115.627977 72.414337 
L 115.738862 72.378926 
L 116.270737 72.268034 
L 116.380548 72.240311 
L 116.829729 72.129419 
L 116.938735 72.096104 
L 117.434364 71.985212 
L 117.544981 71.957955 
L 118.079809 71.847063 
L 118.190426 71.815612 
L 118.709681 71.70472 
L 118.820298 71.681423 
L 119.330157 71.570531 
L 119.440774 71.554689 
L 120.021245 71.44403 
L 120.131593 71.420034 
L 120.650581 71.309142 
L 120.760929 71.287942 
L 121.357778 71.177049 
L 121.468126 71.157014 
L 121.965903 71.046122 
L 122.076789 71.021893 
L 122.592554 70.911001 
L 122.826675 70.854157 
L 123.541927 70.743265 
L 123.652544 70.723928 
L 124.343095 70.613036 
L 124.451833 70.593467 
L 125.007066 70.482575 
L 125.11473 70.460909 
L 125.639624 70.350016 
L 125.750509 70.330447 
L 126.346015 70.219555 
L 126.454484 70.199752 
L 126.456901 70.199752 
L 126.995756 70.08886 
L 127.106642 70.062069 
L 127.326802 70.017805 
L 127.823236 69.906913 
L 127.933048 69.886412 
L 128.602388 69.775519 
L 128.710589 69.75595 
L 129.337776 69.645291 
L 129.447857 69.627352 
L 130.124715 69.51646 
L 130.233989 69.495726 
L 130.845605 69.384834 
L 130.952731 69.369225 
L 130.956222 69.369225 
L 131.596566 69.258333 
L 131.812161 69.218262 
L 132.48714 69.10737 
L 132.591313 69.084772 
L 132.597757 69.084772 
L 133.253136 68.97388 
L 133.364022 68.957106 
L 134.033899 68.846214 
L 134.143174 68.829673 
L 134.807144 68.718781 
L 134.91803 68.703172 
L 135.568039 68.59228 
L 135.987417 68.531242 
L 136.669645 68.42035 
L 136.780262 68.401946 
L 137.454167 68.291053 
L 137.664393 68.255409 
L 138.322188 68.144517 
L 138.535368 68.10631 
L 139.225919 67.995418 
L 139.439367 67.956978 
L 140.134482 67.846086 
L 140.239729 67.828847 
L 140.244831 67.828847 
L 140.910949 67.717954 
L 141.021835 67.700016 
L 141.609018 67.589123 
L 141.716145 67.573282 
L 141.718561 67.573282 
L 142.312456 67.462622 
L 142.456903 67.4342 
L 143.151213 67.323308 
L 143.261293 67.306068 
L 143.26183 67.306068 
L 143.893313 67.195176 
L 144.003393 67.179567 
L 144.004199 67.179567 
L 144.635951 67.068675 
L 144.744152 67.049805 
L 144.746299 67.049805 
L 145.374024 66.938912 
L 145.484373 66.921906 
L 146.08686 66.811013 
L 147.001598 66.661914 
L 147.613214 66.551022 
L 148.07904 66.469018 
L 148.730124 66.358125 
L 148.943303 66.319919 
L 149.5866 66.209026 
L 149.697486 66.187594 
L 150.377297 66.076701 
L 150.487914 66.055268 
L 150.488183 66.055268 
L 151.153764 65.944376 
L 151.292841 65.924108 
L 151.924862 65.813681 
L 152.133745 65.779435 
L 152.84846 65.668543 
L 152.959346 65.64711 
L 153.597541 65.536218 
L 153.801324 65.506398 
L 154.523288 65.395505 
L 155.014889 65.30325 
L 155.718596 65.192358 
L 155.930433 65.155316 
L 156.622327 65.044424 
L 156.733212 65.028116 
L 157.396914 64.917224 
L 157.507263 64.894859 
L 157.5078 64.894859 
L 158.123174 64.798644 
L 158.790904 64.687751 
L 159.000593 64.652806 
L 159.676914 64.541914 
L 159.78592 64.524442 
L 159.787799 64.524442 
L 161.747761 64.212965 
L 162.467309 64.102072 
L 164.85363 63.698107 
L 165.578547 63.587215 
L 166.027191 63.513597 
L 166.66297 63.402705 
L 166.805 63.378477 
L 167.839484 63.194898 
L 168.550709 63.084239 
L 168.762546 63.047197 
L 169.421684 62.936305 
L 169.635937 62.897399 
L 170.317897 62.786507 
L 171.317746 62.612947 
L 171.955673 62.502054 
L 172.398947 62.430766 
L 173.073388 62.319874 
L 173.283077 62.284463 
L 175.488974 61.919637 
L 176.18409 61.808744 
L 176.29417 61.791272 
L 176.962973 61.680845 
L 176.962973 61.680612 
L 177.070368 61.664771 
L 177.071979 61.664771 
L 177.747495 61.553878 
L 177.858112 61.53361 
L 178.483957 61.422951 
L 178.5935 61.406643 
L 179.186322 61.295984 
L 179.295865 61.27059 
L 179.872577 61.159698 
L 179.981315 61.135935 
L 180.694419 61.025043 
L 180.802082 61.002445 
L 180.80423 61.002445 
L 181.463636 60.891553 
L 181.573985 60.873847 
L 182.19285 60.763188 
L 182.296218 60.743386 
L 182.301319 60.743386 
L 182.920989 60.632494 
L 183.346005 60.56703 
L 184.065553 60.456138 
L 184.174291 60.439131 
L 184.964719 60.328239 
L 185.074262 60.3103 
L 185.924295 60.199641 
L 186.03357 60.187061 
L 186.869641 60.076168 
L 186.979453 60.063355 
L 187.862241 59.952463 
L 187.971516 59.939184 
L 187.972321 59.939184 
L 188.825576 59.828291 
L 188.934045 59.813148 
L 189.861134 59.702489 
L 189.970945 59.688045 
L 189.971751 59.688045 
L 190.931058 59.577153 
L 191.037648 59.564805 
L 191.038453 59.564805 
L 192.054143 59.453913 
L 192.163686 59.442032 
L 192.165029 59.442032 
L 193.087822 59.33114 
L 193.19817 59.3139 
L 194.107002 59.203008 
L 194.216008 59.187865 
L 194.217888 59.187865 
L 195.144708 59.076972 
L 195.342852 59.051346 
L 196.307529 58.940454 
L 196.417341 58.931368 
L 197.414505 58.820476 
L 197.79012 58.77761 
L 198.843935 58.666717 
L 198.954552 58.649012 
L 199.809686 58.538353 
L 199.919229 58.525772 
L 200.953176 58.41488 
L 201.057618 58.40626 
L 202.306355 58.295368 
L 202.414825 58.285816 
L 203.826534 58.174924 
L 203.935809 58.165372 
L 205.426454 58.05448 
L 205.610368 58.040502 
L 207.218879 57.92961 
L 207.558785 57.902352 
L 209.05829 57.79146 
L 209.157362 57.783772 
L 209.168102 57.783772 
L 211.020132 57.673113 
L 211.154376 57.662629 
L 212.984658 57.55197 
L 213.093127 57.545913 
L 213.095006 57.545913 
L 214.849038 57.435253 
L 214.849038 57.43502 
L 215.027851 57.426168 
L 216.699994 57.315275 
L 216.887399 57.299201 
L 218.478458 57.188308 
L 218.585316 57.177825 
L 218.588807 57.177825 
L 220.173691 57.066933 
L 220.358679 57.05342 
L 222.103314 56.942528 
L 222.208561 56.937869 
L 222.212588 56.937869 
L 223.958565 56.826976 
L 224.065961 56.819056 
L 224.069451 56.819056 
L 225.542376 56.708163 
L 225.871542 56.686031 
L 227.631481 56.575139 
L 227.732969 56.565121 
L 227.741829 56.565121 
L 229.209653 56.454229 
L 229.311947 56.447939 
L 229.320001 56.447939 
L 231.224655 56.337047 
L 231.322653 56.327961 
L 231.335272 56.327961 
L 232.812224 56.217069 
L 233.156694 56.188414 
L 234.796887 56.077521 
L 234.905624 56.0696 
L 234.907772 56.0696 
L 236.607569 55.958708 
L 236.78504 55.950787 
L 238.489133 55.839895 
L 238.598139 55.830343 
L 238.600018 55.830343 
L 240.242628 55.719451 
L 240.342774 55.711297 
L 240.353245 55.711297 
L 241.951016 55.600638 
L 242.061902 55.591552 
L 243.980517 55.48066 
L 244.163894 55.468312 
L 245.975382 55.35742 
L 246.466178 55.331095 
L 248.137247 55.220435 
L 248.322772 55.205759 
L 250.113855 55.094866 
L 250.298038 55.082053 
L 251.898495 54.971161 
L 251.997567 54.964405 
L 252.007769 54.964405 
L 253.711862 54.853512 
L 253.893629 54.842097 
L 255.59262 54.731205 
L 255.692498 54.725846 
L 255.702969 54.725846 
L 257.437669 54.614954 
L 258.180039 54.567429 
L 260.002535 54.456536 
L 260.113152 54.447917 
L 261.829864 54.337024 
L 261.939407 54.32724 
L 263.730221 54.216347 
L 263.908766 54.207029 
L 266.539411 54.096136 
L 266.64788 54.090545 
L 269.097564 53.979653 
L 269.276108 53.968703 
L 271.862453 53.857811 
L 271.969042 53.851754 
L 274.279918 53.740862 
L 274.390804 53.736668 
L 282.421815 53.625776 
L 282.521961 53.624145 
L 398.487273 53.568 
L 398.487273 53.568 
" clip-path="url(#pdd59e5e6e7)" style="fill: none; stroke: #1f77b4; stroke-width: 1.5; stroke-linecap: square"/>
   </g>
   <g id="line2d_14">
    <path d="M 73.832727 295.488 
L 398.487273 53.568 
" clip-path="url(#pdd59e5e6e7)" style="fill: none; stroke-dasharray: 5.55,2.4; stroke-dashoffset: 0; stroke: #ff7f0e; stroke-width: 1.5"/>
   </g>
   <g id="patch_3">
    <path d="M 57.6 307.584 
L 57.6 41.472 
" style="fill: none; stroke: #000000; stroke-width: 0.8; stroke-linejoin: miter; stroke-linecap: square"/>
   </g>
   <g id="patch_4">
    <path d="M 414.72 307.584 
L 414.72 41.472 
" style="fill: none; stroke: #000000; stroke-width: 0.8; stroke-linejoin: miter; stroke-linecap: square"/>
   </g>
   <g id="patch_5">
    <path d="M 57.6 307.584 
L 414.72 307.584 
" style="fill: none; stroke: #000000; stroke-width: 0.8; stroke-linejoin: miter; stroke-linecap: square"/>
   </g>
   <g id="patch_6">
    <path d="M 57.6 41.472 
L 414.72 41.472 
" style="fill: none; stroke: #000000; stroke-width: 0.8; stroke-linejoin: miter; stroke-linecap: square"/>
   </g>
   <g id="text_13">
    <!-- ROC Curve -->
    <g transform="translate(203.469375 35.472) scale(0.12 -0.12)">
     <defs>
      <path id="DejaVuSans-52" d="M 2841 2188 
Q 3044 2119 3236 1894 
Q 3428 1669 3622 1275 
L 4263 0 
L 3584 0 
L 2988 1197 
Q 2756 1666 2539 1819 
Q 2322 1972 1947 1972 
L 1259 1972 
L 1259 0 
L 628 0 
L 628 4666 
L 2053 4666 
Q 2853 4666 3247 4331 
Q 3641 3997 3641 3322 
Q 3641 2881 3436 2590 
Q 3231 2300 2841 2188 
z
M 1259 4147 
L 1259 2491 
L 2053 2491 
Q 2509 2491 2742 2702 
Q 2975 2913 2975 3322 
Q 2975 3731 2742 3939 
Q 2509 4147 2053 4147 
L 1259 4147 
z
" transform="scale(0.015625)"/>
      <path id="DejaVuSans-4f" d="M 2522 4238 
Q 1834 4238 1429 3725 
Q 1025 3213 1025 2328 
Q 1025 1447 1429 934 
Q 1834 422 2522 422 
Q 3209 422 3611 934 
Q 4013 1447 4013 2328 
Q 4013 3213 3611 3725 
Q 3209 4238 2522 4238 
z
M 2522 4750 
Q 3503 4750 4090 4092 
Q 4678 3434 4678 2328 
Q 4678 1225 4090 567 
Q 3503 -91 2522 -91 
Q 1538 -91 948 565 
Q 359 1222 359 2328 
Q 359 3434 948 4092 
Q 1538 4750 2522 4750 
z
" transform="scale(0.015625)"/>
      <path id="DejaVuSans-43" d="M 4122 4306 
L 4122 3641 
Q 3803 3938 3442 4084 
Q 3081 4231 2675 4231 
Q 1875 4231 1450 3742 
Q 1025 3253 1025 2328 
Q 1025 1406 1450 917 
Q 1875 428 2675 428 
Q 3081 428 3442 575 
Q 3803 722 4122 1019 
L 4122 359 
Q 3791 134 3420 21 
Q 3050 -91 2638 -91 
Q 1578 -91 968 557 
Q 359 1206 359 2328 
Q 359 3453 968 4101 
Q 1578 4750 2638 4750 
Q 3056 4750 3426 4639 
Q 3797 4528 4122 4306 
z
" transform="scale(0.015625)"/>
      <path id="DejaVuSans-20" transform="scale(0.015625)"/>
      <path id="DejaVuSans-75" d="M 544 1381 
L 544 3500 
L 1119 3500 
L 1119 1403 
Q 1119 906 1312 657 
Q 1506 409 1894 409 
Q 2359 409 2629 706 
Q 2900 1003 2900 1516 
L 2900 3500 
L 3475 3500 
L 3475 0 
L 2900 0 
L 2900 538 
Q 2691 219 2414 64 
Q 2138 -91 1772 -91 
Q 1169 -91 856 284 
Q 544 659 544 1381 
z
M 1991 3584 
L 1991 3584 
z
" transform="scale(0.015625)"/>
      <path id="DejaVuSans-72" d="M 2631 2963 
Q 2534 3019 2420 3045 
Q 2306 3072 2169 3072 
Q 1681 3072 1420 2755 
Q 1159 2438 1159 1844 
L 1159 0 
L 581 0 
L 581 3500 
L 1159 3500 
L 1159 2956 
Q 1341 3275 1631 3429 
Q 1922 3584 2338 3584 
Q 2397 3584 2469 3576 
Q 2541 3569 2628 3553 
L 2631 2963 
z
" transform="scale(0.015625)"/>
      <path id="DejaVuSans-76" d="M 191 3500 
L 800 3500 
L 1894 563 
L 2988 3500 
L 3597 3500 
L 2284 0 
L 1503 0 
L 191 3500 
z
" transform="scale(0.015625)"/>
      <path id="DejaVuSans-65" d="M 3597 1894 
L 3597 1613 
L 953 1613 
Q 991 1019 1311 708 
Q 1631 397 2203 397 
Q 2534 397 2845 478 
Q 3156 559 3463 722 
L 3463 178 
Q 3153 47 2828 -22 
Q 2503 -91 2169 -91 
Q 1331 -91 842 396 
Q 353 884 353 1716 
Q 353 2575 817 3079 
Q 1281 3584 2069 3584 
Q 2775 3584 3186 3129 
Q 3597 2675 3597 1894 
z
M 3022 2063 
Q 3016 2534 2758 2815 
Q 2500 3097 2075 3097 
Q 1594 3097 1305 2825 
Q 1016 2553 972 2059 
L 3022 2063 
z
" transform="scale(0.015625)"/>
     </defs>
     <use xlink:href="#DejaVuSans-52"/>
     <use xlink:href="#DejaVuSans-4f" transform="translate(69.482422 0)"/>
     <use xlink:href="#DejaVuSans-43" transform="translate(148.193359 0)"/>
     <use xlink:href="#DejaVuSans-20" transform="translate(218.017578 0)"/>
     <use xlink:href="#DejaVuSans-43" transform="translate(249.804688 0)"/>
     <use xlink:href="#DejaVuSans-75" transform="translate(319.628906 0)"/>
     <use xlink:href="#DejaVuSans-72" transform="translate(383.007812 0)"/>
     <use xlink:href="#DejaVuSans-76" transform="translate(424.121094 0)"/>
     <use xlink:href="#DejaVuSans-65" transform="translate(483.300781 0)"/>
    </g>
   </g>
   <g id="legend_1">
    <g id="patch_7">
     <path d="M 64.6 64.150125 
L 154.75 64.150125 
Q 156.75 64.150125 156.75 62.150125 
L 156.75 48.472 
Q 156.75 46.472 154.75 46.472 
L 64.6 46.472 
Q 62.6 46.472 62.6 48.472 
L 62.6 62.150125 
Q 62.6 64.150125 64.6 64.150125 
z
" style="fill: #ffffff; opacity: 0.8; stroke: #cccccc; stroke-linejoin: miter"/>
    </g>
    <g id="line2d_15">
     <path d="M 66.6 54.570438 
L 76.6 54.570438 
L 86.6 54.570438 
" style="fill: none; stroke: #1f77b4; stroke-width: 1.5; stroke-linecap: square"/>
    </g>
    <g id="text_14">
     <!-- AUC=0.968 -->
     <g transform="translate(94.6 58.070438) scale(0.1 -0.1)">
      <defs>
       <path id="DejaVuSans-41" d="M 2188 4044 
L 1331 1722 
L 3047 1722 
L 2188 4044 
z
M 1831 4666 
L 2547 4666 
L 4325 0 
L 3669 0 
L 3244 1197 
L 1141 1197 
L 716 0 
L 50 0 
L 1831 4666 
z
" transform="scale(0.015625)"/>
       <path id="DejaVuSans-55" d="M 556 4666 
L 1191 4666 
L 1191 1831 
Q 1191 1081 1462 751 
Q 1734 422 2344 422 
Q 2950 422 3222 751 
Q 3494 1081 3494 1831 
L 3494 4666 
L 4128 4666 
L 4128 1753 
Q 4128 841 3676 375 
Q 3225 -91 2344 -91 
Q 1459 -91 1007 375 
Q 556 841 556 1753 
L 556 4666 
z
" transform="scale(0.015625)"/>
       <path id="DejaVuSans-3d" d="M 678 2906 
L 4684 2906 
L 4684 2381 
L 678 2381 
L 678 2906 
z
M 678 1631 
L 4684 1631 
L 4684 1100 
L 678 1100 
L 678 1631 
z
" transform="scale(0.015625)"/>
       <path id="DejaVuSans-39" d="M 703 97 
L 703 672 
Q 941 559 1184 500 
Q 1428 441 1663 441 
Q 2288 441 2617 861 
Q 2947 1281 2994 2138 
Q 2813 1869 2534 1725 
Q 2256 1581 1919 1581 
Q 1219 1581 811 2004 
Q 403 2428 403 3163 
Q 403 3881 828 4315 
Q 1253 4750 1959 4750 
Q 2769 4750 3195 4129 
Q 3622 3509 3622 2328 
Q 3622 1225 3098 567 
Q 2575 -91 1691 -91 
Q 1453 -91 1209 -44 
Q 966 3 703 97 
z
M 1959 2075 
Q 2384 2075 2632 2365 
Q 2881 2656 2881 3163 
Q 2881 3666 2632 3958 
Q 2384 4250 1959 4250 
Q 1534 4250 1286 3958 
Q 1038 3666 1038 3163 
Q 1038 2656 1286 2365 
Q 1534 2075 1959 2075 
z
" transform="scale(0.015625)"/>
      </defs>
      <use xlink:href="#DejaVuSans-41"/>
      <use xlink:href="#DejaVuSans-55" transform="translate(68.408203 0)"/>
      <use xlink:href="#DejaVuSans-43" transform="translate(141.601562 0)"/>
      <use xlink:href="#DejaVuSans-3d" transform="translate(211.425781 0)"/>
      <use xlink:href="#DejaVuSans-30" transform="translate(295.214844 0)"/>
      <use xlink:href="#DejaVuSans-2e" transform="translate(358.837891 0)"/>
      <use xlink:href="#DejaVuSans-39" transform="translate(390.625 0)"/>
      <use xlink:href="#DejaVuSans-36" transform="translate(454.248047 0)"/>
      <use xlink:href="#DejaVuSans-38" transform="translate(517.871094 0)"/>
     </g>
    </g>
   </g>
  </g>
 </g>
 <defs>
  <clipPath id="pdd59e5e6e7">
   <rect x="57.6" y="41.472" width="357.12" height="266.112"/>
  </clipPath>
 </defs>
</svg>
