<?xml version="1.0" encoding="utf-8" standalone="no"?>
<!DOCTYPE svg PUBLIC "-//W3C//DTD SVG 1.1//EN"
  "http://www.w3.org/Graphics/SVG/1.1/DTD/svg11.dtd">
<svg xmlns:xlink="http://www.w3.org/1999/xlink" width="460.8pt" height="345.6pt" viewBox="0 0 460.8 345.6" xmlns="http://www.w3.org/2000/svg" version="1.1">
 <metadata>
  <rdf:RDF xmlns:dc="http://purl.org/dc/elements/1.1/" xmlns:cc="http://creativecommons.org/ns#" xmlns:rdf="http://www.w3.org/1999/02/22-rdf-syntax-ns#">
   <cc:Work>
    <dc:type rdf:resource="http://purl.org/dc/dcmitype/StillImage"/>
    <dc:date>2026-03-16T13:32:14.977931</dc:date>
    <dc:format>image/svg+xml</dc:format>
    <dc:creator>
     <cc:Agent>
      <dc:title>Matplotlib v3.10.8, https://matplotlib.org/</dc:title>
     </cc:Agent>
    </dc:creator>
   </cc:Work>
  </rdf:RDF>
 </metadata>
 <defs>
  <style type="text/css">*{stroke-linejoin: round; stroke-linecap: butt}</style>
 </defs>
 <g id="figure_1">
  <g id="patch_1">
   <path d="M 0 345.6 
L 460.8 345.6 
L 460.8 0 
L 0 0 
z
" style="fill: #ffffff"/>
  </g>
  <g id="axes_1">
   <g id="patch_2">
    <path d="M 57.6 307.584 
L 414.72 307.584 
L 414.72 41.472 
L 57.6 41.472 
z
" style="fill: #ffffff"/>
   </g>
   <g id="matplotlib.axis_1">
    <g id="xtick_1">
     <g id="line2d_1">
      <defs>
       <path id="m13f82378ef" d="M 0 0 
L 0 3.5 
" style="stroke: #000000; stroke-width: 0.8"/>
      </defs>
      <g>
       <use xlink:href="#m13f82378ef" x="73.832727" y="307.584" style="stroke: #000000; stroke-width: 0.8"/>
      </g>
     </g>
     <g id="text_1">
      <!-- 0.0 -->
      <g transform="translate(65.881165 322.182437) scale(0.1 -0.1)">
       <defs>
        <path id="DejaVuSans-30" d="M 2034 4250 
Q 1547 4250 1301 3770 
Q 1056 3291 1056 2328 
Q 1056 1369 1301 889 
Q 1547 409 2034 409 
Q 2525 409 2770 889 
Q 3016 1369 3016 2328 
Q 3016 3291 2770 3770 
Q 2525 4250 2034 4250 
z
M 2034 4750 
Q 2819 4750 3233 4129 
Q 3647 3509 3647 2328 
Q 3647 1150 3233 529 
Q 2819 -91 2034 -91 
Q 1250 -91 836 529 
Q 422 1150 422 2328 
Q 422 3509 836 4129 
Q 1250 4750 2034 4750 
z
" transform="scale(0.015625)"/>
        <path id="DejaVuSans-2e" d="M 684 794 
L 1344 794 
L 1344 0 
L 684 0 
L 684 794 
z
" transform="scale(0.015625)"/>
       </defs>
       <use xlink:href="#DejaVuSans-30"/>
       <use xlink:href="#DejaVuSans-2e" transform="translate(63.623047 0)"/>
       <use xlink:href="#DejaVuSans-30" transform="translate(95.410156 0)"/>
      </g>
     </g>
    </g>
    <g id="xtick_2">
     <g id="line2d_2">
      <g>
       <use xlink:href="#m13f82378ef" x="138.763636" y="307.584" style="stroke: #000000; stroke-width: 0.8"/>
      </g>
     </g>
     <g id="text_2">
      <!-- 0.2 -->
      <g transform="translate(130.812074 322.182437) scale(0.1 -0.1)">
       <defs>
        <path id="DejaVuSans-32" d="M 1228 531 
L 3431 531 
L 3431 0 
L 469 0 
L 469 531 
Q 828 903 1448 1529 
Q 2069 2156 2228 2338 
Q 2531 2678 2651 2914 
Q 2772 3150 2772 3378 
Q 2772 3750 2511 3984 
Q 2250 4219 1831 4219 
Q 1534 4219 1204 4116 
Q 875 4013 500 3803 
L 500 4441 
Q 881 4594 1212 4672 
Q 1544 4750 1819 4750 
Q 2544 4750 2975 4387 
Q 3406 4025 3406 3419 
Q 3406 3131 3298 2873 
Q 3191 2616 2906 2266 
Q 2828 2175 2409 1742 
Q 1991 1309 1228 531 
z
" transform="scale(0.015625)"/>
       </defs>
       <use xlink:href="#DejaVuSans-30"/>
       <use xlink:href="#DejaVuSans-2e" transform="translate(63.623047 0)"/>
       <use xlink:href="#DejaVuSans-32" transform="translate(95.410156 0)"/>
      </g>
     </g>
    </g>
    <g id="xtick_3">
     <g id="line2d_3">
      <g>
       <use xlink:href="#m13f82378ef" x="203.694545" y="307.584" style="stroke: #000000; stroke-width: 0.8"/>
      </g>
     </g>
     <g id="text_3">
      <!-- 0.4 -->
      <g transform="translate(195.742983 322.182437) scale(0.1 -0.1)">
       <defs>
        <path id="DejaVuSans-34" d="M 2419 4116 
L 825 1625 
L 2419 1625 
L 2419 4116 
z
M 2253 4666 
L 3047 4666 
L 3047 1625 
L 3713 1625 
L 3713 1100 
L 3047 1100 
L 3047 0 
L 2419 0 
L 2419 1100 
L 313 1100 
L 313 1709 
L 2253 4666 
z
" transform="scale(0.015625)"/>
       </defs>
       <use xlink:href="#DejaVuSans-30"/>
       <use xlink:href="#DejaVuSans-2e" transform="translate(63.623047 0)"/>
       <use xlink:href="#DejaVuSans-34" transform="translate(95.410156 0)"/>
      </g>
     </g>
    </g>
    <g id="xtick_4">
     <g id="line2d_4">
      <g>
       <use xlink:href="#m13f82378ef" x="268.625455" y="307.584" style="stroke: #000000; stroke-width: 0.8"/>
      </g>
     </g>
     <g id="text_4">
      <!-- 0.6 -->
      <g transform="translate(260.673892 322.182437) scale(0.1 -0.1)">
       <defs>
        <path id="DejaVuSans-36" d="M 2113 2584 
Q 1688 2584 1439 2293 
Q 1191 2003 1191 1497 
Q 1191 994 1439 701 
Q 1688 409 2113 409 
Q 2538 409 2786 701 
Q 3034 994 3034 1497 
Q 3034 2003 2786 2293 
Q 2538 2584 2113 2584 
z
M 3366 4563 
L 3366 3988 
Q 3128 4100 2886 4159 
Q 2644 4219 2406 4219 
Q 1781 4219 1451 3797 
Q 1122 3375 1075 2522 
Q 1259 2794 1537 2939 
Q 1816 3084 2150 3084 
Q 2853 3084 3261 2657 
Q 3669 2231 3669 1497 
Q 3669 778 3244 343 
Q 2819 -91 2113 -91 
Q 1303 -91 875 529 
Q 447 1150 447 2328 
Q 447 3434 972 4092 
Q 1497 4750 2381 4750 
Q 2619 4750 2861 4703 
Q 3103 4656 3366 4563 
z
" transform="scale(0.015625)"/>
       </defs>
       <use xlink:href="#DejaVuSans-30"/>
       <use xlink:href="#DejaVuSans-2e" transform="translate(63.623047 0)"/>
       <use xlink:href="#DejaVuSans-36" transform="translate(95.410156 0)"/>
      </g>
     </g>
    </g>
    <g id="xtick_5">
     <g id="line2d_5">
      <g>
       <use xlink:href="#m13f82378ef" x="333.556364" y="307.584" style="stroke: #000000; stroke-width: 0.8"/>
      </g>
     </g>
     <g id="text_5">
      <!-- 0.8 -->
      <g transform="translate(325.604801 322.182437) scale(0.1 -0.1)">
       <defs>
        <path id="DejaVuSans-38" d="M 2034 2216 
Q 1584 2216 1326 1975 
Q 1069 1734 1069 1313 
Q 1069 891 1326 650 
Q 1584 409 2034 409 
Q 2484 409 2743 651 
Q 3003 894 3003 1313 
Q 3003 1734 2745 1975 
Q 2488 2216 2034 2216 
z
M 1403 2484 
Q 997 2584 770 2862 
Q 544 3141 544 3541 
Q 544 4100 942 4425 
Q 1341 4750 2034 4750 
Q 2731 4750 3128 4425 
Q 3525 4100 3525 3541 
Q 3525 3141 3298 2862 
Q 3072 2584 2669 2484 
Q 3125 2378 3379 2068 
Q 3634 1759 3634 1313 
Q 3634 634 3220 271 
Q 2806 -91 2034 -91 
Q 1263 -91 848 271 
Q 434 634 434 1313 
Q 434 1759 690 2068 
Q 947 2378 1403 2484 
z
M 1172 3481 
Q 1172 3119 1398 2916 
Q 1625 2713 2034 2713 
Q 2441 2713 2670 2916 
Q 2900 3119 2900 3481 
Q 2900 3844 2670 4047 
Q 2441 4250 2034 4250 
Q 1625 4250 1398 4047 
Q 1172 3844 1172 3481 
z
" transform="scale(0.015625)"/>
       </defs>
       <use xlink:href="#DejaVuSans-30"/>
       <use xlink:href="#DejaVuSans-2e" transform="translate(63.623047 0)"/>
       <use xlink:href="#DejaVuSans-38" transform="translate(95.410156 0)"/>
      </g>
     </g>
    </g>
    <g id="xtick_6">
     <g id="line2d_6">
      <g>
       <use xlink:href="#m13f82378ef" x="398.487273" y="307.584" style="stroke: #000000; stroke-width: 0.8"/>
      </g>
     </g>
     <g id="text_6">
      <!-- 1.0 -->
      <g transform="translate(390.53571 322.182437) scale(0.1 -0.1)">
       <defs>
        <path id="DejaVuSans-31" d="M 794 531 
L 1825 531 
L 1825 4091 
L 703 3866 
L 703 4441 
L 1819 4666 
L 2450 4666 
L 2450 531 
L 3481 531 
L 3481 0 
L 794 0 
L 794 531 
z
" transform="scale(0.015625)"/>
       </defs>
       <use xlink:href="#DejaVuSans-31"/>
       <use xlink:href="#DejaVuSans-2e" transform="translate(63.623047 0)"/>
       <use xlink:href="#DejaVuSans-30" transform="translate(95.410156 0)"/>
      </g>
     </g>
    </g>
   </g>
   <g id="matplotlib.axis_2">
    <g id="ytick_1">
     <g id="line2d_7">
      <defs>
       <path id="m2da1587f6c" d="M 0 0 
L -3.5 0 
" style="stroke: #000000; stroke-width: 0.8"/>
      </defs>
      <g>
       <use xlink:href="#m2da1587f6c" x="57.6" y="287.210039" style="stroke: #000000; stroke-width: 0.8"/>
      </g>
     </g>
     <g id="text_7">
      <!-- 0.6 -->
      <g transform="translate(34.696875 291.009258) scale(0.1 -0.1)">
       <use xlink:href="#DejaVuSans-30"/>
       <use xlink:href="#DejaVuSans-2e" transform="translate(63.623047 0)"/>
       <use xlink:href="#DejaVuSans-36" transform="translate(95.410156 0)"/>
      </g>
     </g>
    </g>
    <g id="ytick_2">
     <g id="line2d_8">
      <g>
       <use xlink:href="#m2da1587f6c" x="57.6" y="228.79953" style="stroke: #000000; stroke-width: 0.8"/>
      </g>
     </g>
     <g id="text_8">
      <!-- 0.7 -->
      <g transform="translate(34.696875 232.598748) scale(0.1 -0.1)">
       <defs>
        <path id="DejaVuSans-37" d="M 525 4666 
L 3525 4666 
L 3525 4397 
L 1831 0 
L 1172 0 
L 2766 4134 
L 525 4134 
L 525 4666 
z
" transform="scale(0.015625)"/>
       </defs>
       <use xlink:href="#DejaVuSans-30"/>
       <use xlink:href="#DejaVuSans-2e" transform="translate(63.623047 0)"/>
       <use xlink:href="#DejaVuSans-37" transform="translate(95.410156 0)"/>
      </g>
     </g>
    </g>
    <g id="ytick_3">
     <g id="line2d_9">
      <g>
       <use xlink:href="#m2da1587f6c" x="57.6" y="170.38902" style="stroke: #000000; stroke-width: 0.8"/>
      </g>
     </g>
     <g id="text_9">
      <!-- 0.8 -->
      <g transform="translate(34.696875 174.188238) scale(0.1 -0.1)">
       <use xlink:href="#DejaVuSans-30"/>
       <use xlink:href="#DejaVuSans-2e" transform="translate(63.623047 0)"/>
       <use xlink:href="#DejaVuSans-38" transform="translate(95.410156 0)"/>
      </g>
     </g>
    </g>
    <g id="ytick_4">
     <g id="line2d_10">
      <g>
       <use xlink:href="#m2da1587f6c" x="57.6" y="111.97851" style="stroke: #000000; stroke-width: 0.8"/>
      </g>
     </g>
     <g id="text_10">
      <!-- 0.9 -->
      <g transform="translate(34.696875 115.777729) scale(0.1 -0.1)">
       <defs>
        <path id="DejaVuSans-39" d="M 703 97 
L 703 672 
Q 941 559 1184 500 
Q 1428 441 1663 441 
Q 2288 441 2617 861 
Q 2947 1281 2994 2138 
Q 2813 1869 2534 1725 
Q 2256 1581 1919 1581 
Q 1219 1581 811 2004 
Q 403 2428 403 3163 
Q 403 3881 828 4315 
Q 1253 4750 1959 4750 
Q 2769 4750 3195 4129 
Q 3622 3509 3622 2328 
Q 3622 1225 3098 567 
Q 2575 -91 1691 -91 
Q 1453 -91 1209 -44 
Q 966 3 703 97 
z
M 1959 2075 
Q 2384 2075 2632 2365 
Q 2881 2656 2881 3163 
Q 2881 3666 2632 3958 
Q 2384 4250 1959 4250 
Q 1534 4250 1286 3958 
Q 1038 3666 1038 3163 
Q 1038 2656 1286 2365 
Q 1534 2075 1959 2075 
z
" transform="scale(0.015625)"/>
       </defs>
       <use xlink:href="#DejaVuSans-30"/>
       <use xlink:href="#DejaVuSans-2e" transform="translate(63.623047 0)"/>
       <use xlink:href="#DejaVuSans-39" transform="translate(95.410156 0)"/>
      </g>
     </g>
    </g>
    <g id="ytick_5">
     <g id="line2d_11">
      <g>
       <use xlink:href="#m2da1587f6c" x="57.6" y="53.568" style="stroke: #000000; stroke-width: 0.8"/>
      </g>
     </g>
     <g id="text_11">
      <!-- 1.0 -->
      <g transform="translate(34.696875 57.367219) scale(0.1 -0.1)">
       <use xlink:href="#DejaVuSans-31"/>
       <use xlink:href="#DejaVuSans-2e" transform="translate(63.623047 0)"/>
       <use xlink:href="#DejaVuSans-30" transform="translate(95.410156 0)"/>
      </g>
     </g>
    </g>
   </g>
   <g id="line2d_12">
    <path d="M 398.487273 295.488 
L 398.377543 92.91968 
L 398.374114 92.920068 
L 398.374114 92.812687 
L 398.264385 91.030412 
L 398.257527 91.020338 
L 398.257527 90.955442 
L 398.250669 90.923727 
L 398.14094 89.612066 
L 398.120366 89.538075 
L 398.120366 89.505438 
L 398.010636 86.650678 
L 398.007207 86.651008 
L 398.007207 86.563018 
L 398.003778 86.541346 
L 397.894049 84.586055 
L 397.89062 84.586366 
L 397.89062 84.492141 
L 397.887191 84.475819 
L 397.777462 82.872797 
L 397.770604 82.856652 
L 397.763746 82.767968 
L 397.654016 81.826783 
L 397.623155 81.784528 
L 397.623155 81.722893 
L 397.513426 80.929219 
L 397.489422 80.90304 
L 397.489422 80.824311 
L 397.379693 80.066925 
L 397.341974 79.968297 
L 397.341974 79.962653 
L 397.232244 79.490875 
L 397.228815 79.44023 
L 397.201383 79.385748 
L 397.091654 78.88991 
L 397.067651 78.795288 
L 397.067651 78.783942 
L 396.96135 78.434143 
L 396.957921 78.434395 
L 396.899628 78.336379 
L 396.899628 78.330694 
L 396.789898 77.980243 
L 396.71446 77.655176 
L 396.608159 77.33747 
L 396.60473 77.337712 
L 396.57044 77.248741 
L 396.57044 77.231601 
L 396.460711 76.919092 
L 396.429849 76.818218 
L 396.429849 76.812494 
L 396.32012 76.453372 
L 396.278972 76.347203 
L 396.169242 75.975666 
L 396.145239 75.868065 
L 396.045797 75.575503 
L 396.03551 75.576179 
L 395.973787 75.470819 
L 395.864058 75.207068 
L 395.816051 75.106329 
L 395.816051 75.100558 
L 395.709751 74.795538 
L 395.706322 74.795756 
L 395.67889 74.699238 
L 395.67889 74.687676 
L 395.579448 74.410459 
L 395.569161 74.411101 
L 395.480006 74.312425 
L 395.480006 74.306632 
L 395.370276 74.052581 
L 395.32227 73.980113 
L 395.32227 73.945297 
L 395.212541 73.620941 
L 395.191966 73.552428 
L 395.191966 73.511731 
L 395.082237 73.198241 
L 395.051376 73.106875 
L 395.051376 73.089399 
L 394.941646 72.693469 
L 394.924501 72.589389 
L 394.924501 72.583551 
L 394.814772 72.046181 
L 394.773624 71.937263 
L 394.663894 71.474456 
L 394.629604 71.400036 
L 394.629604 71.370693 
L 394.523304 70.976931 
L 394.519875 70.977112 
L 394.468439 70.903373 
L 394.468439 70.873965 
L 394.35871 70.473431 
L 394.310703 70.393373 
L 394.310703 70.369793 
L 394.200974 70.109879 
L 394.176971 70.004805 
L 394.067242 69.856645 
L 394.015806 69.776416 
L 394.015806 69.752763 
L 393.906077 69.485909 
L 393.840925 69.400212 
L 393.840925 69.382439 
L 393.731196 69.126828 
L 393.648899 69.035774 
L 393.648899 69.023903 
L 393.559744 68.748912 
L 393.53917 68.749863 
L 393.439727 68.653378 
L 393.439727 68.647431 
L 393.329998 68.408447 
L 393.254559 68.304639 
L 393.14483 68.07704 
L 393.055675 67.973576 
L 392.949375 67.811031 
L 392.945946 67.81118 
L 392.853362 67.707628 
L 392.750491 67.50869 
L 392.743633 67.508983 
L 392.671623 67.404295 
L 392.561893 67.175248 
L 392.500171 67.069878 
L 392.390442 66.768254 
L 392.335577 66.662321 
L 392.225848 66.552487 
L 392.122977 66.448282 
L 392.016676 66.301946 
L 392.013247 66.30208 
L 391.944666 66.1963 
L 391.834937 66.031703 
L 391.749211 65.950503 
L 391.749211 65.926358 
L 391.660056 65.754596 
L 391.639482 65.755369 
L 391.564043 65.673581 
L 391.564043 65.649399 
L 391.454314 65.405422 
L 391.382304 65.30511 
L 391.382304 65.299053 
L 391.272575 65.139398 
L 391.214281 65.032323 
L 391.114839 64.878053 
L 391.107981 64.878292 
L 391.035971 64.78364 
L 391.035971 64.771492 
L 390.929671 64.647543 
L 390.926242 64.647661 
L 390.833658 64.541359 
L 390.723929 64.405094 
L 390.655348 64.303857 
L 390.655348 64.297765 
L 390.57648 64.208975 
L 390.545619 64.209993 
L 390.480467 64.102377 
L 390.370738 63.916759 
L 390.288441 63.815567 
L 390.288441 63.809458 
L 390.18214 63.647789 
L 390.178711 63.647896 
L 390.096415 63.540359 
L 389.993543 63.316997 
L 389.986685 63.317205 
L 389.883814 63.21614 
L 389.883814 63.21001 
L 389.777514 63.065999 
L 389.774085 63.0661 
L 389.674643 62.958557 
L 389.582059 62.795411 
L 389.568343 62.795805 
L 389.455184 62.688395 
L 389.355742 62.562021 
L 389.345455 62.56231 
L 389.211722 62.455223 
L 389.101993 62.261046 
L 388.954545 62.160175 
L 388.954545 62.154005 
L 388.844815 62.008771 
L 388.676792 61.914329 
L 388.676792 61.908148 
L 388.570492 61.811975 
L 388.567063 61.812064 
L 388.495053 61.708728 
L 388.388753 61.56901 
L 388.385324 61.569096 
L 388.306456 61.465727 
L 388.196727 61.356822 
L 388.056136 61.254752 
L 387.946407 61.095906 
L 387.867539 60.998321 
L 387.867539 60.992104 
L 387.764668 60.870101 
L 387.75781 60.870259 
L 387.600074 60.768043 
L 387.497203 60.652 
L 387.490345 60.652153 
L 387.411477 60.554163 
L 387.411477 60.547928 
L 387.315464 60.431505 
L 387.301748 60.431802 
L 387.157728 60.328768 
L 387.051428 60.212311 
L 387.047999 60.212383 
L 386.927983 60.114845 
L 386.927983 60.108591 
L 386.82854 59.985485 
L 386.818253 59.985694 
L 386.729098 59.881041 
L 386.629656 59.80783 
L 386.619369 59.808033 
L 386.50964 59.703598 
L 386.410198 59.567473 
L 386.399911 59.567668 
L 386.269607 59.463372 
L 386.159878 59.32714 
L 385.978139 59.2235 
L 385.892413 59.155789 
L 385.86841 59.156214 
L 385.727819 59.051599 
L 385.628377 58.895695 
L 385.61809 58.89587 
L 385.446638 58.791471 
L 385.340338 58.711128 
L 385.336909 58.711184 
L 385.199747 58.612295 
L 385.199747 58.605973 
L 385.093447 58.525451 
L 385.090018 58.525505 
L 384.901421 58.420856 
L 384.801978 58.35271 
L 384.791691 58.352867 
L 384.589378 58.248155 
L 384.486507 58.148163 
L 384.479649 58.148263 
L 384.181322 58.044613 
L 384.085309 57.969691 
L 384.071593 57.969885 
L 383.862422 57.864635 
L 383.759551 57.795997 
L 383.752693 57.796089 
L 383.577812 57.690098 
L 383.471511 57.62772 
L 383.468082 57.627765 
L 383.204046 57.522651 
L 383.104604 57.447238 
L 383.094317 57.447366 
L 382.840568 57.34178 
L 382.730839 57.259893 
L 382.346787 57.155465 
L 382.267919 57.066563 
L 382.237057 57.066911 
L 381.990167 56.960504 
L 381.887295 56.884502 
L 381.880437 56.884575 
L 381.688411 56.777262 
L 381.595827 56.733162 
L 381.578682 56.733337 
L 381.259781 56.639918 
L 381.136336 56.576645 
L 380.896303 56.469217 
L 380.807148 56.411909 
L 380.786574 56.412098 
L 380.488248 56.317816 
L 380.488248 56.304875 
L 380.40938 56.227901 
L 380.378518 56.228167 
L 380.100766 56.120383 
L 379.87445 56.05738 
L 379.48011 55.950105 
L 379.442391 55.930895 
L 379.370381 55.93145 
L 378.821735 55.824924 
L 378.73258 55.799507 
L 378.725722 55.799557 
L 378.26623 55.691899 
L 378.201079 55.646619 
L 378.156501 55.646923 
L 377.806739 55.544611 
L 377.714155 55.512477 
L 377.69701 55.512586 
L 377.429545 55.40942 
L 377.326674 55.364133 
L 377.319816 55.364174 
L 376.894615 55.268145 
L 376.894615 55.261574 
L 376.788315 55.2293 
L 376.784885 55.229319 
L 376.335681 55.133009 
L 376.335681 55.126424 
L 376.239668 55.107153 
L 375.526428 55.0051 
L 375.430415 54.965904 
L 375.416699 54.965967 
L 374.77204 54.862957 
L 374.682885 54.830197 
L 374.66231 54.830284 
L 373.859915 54.727282 
L 373.859915 54.720633 
L 373.750186 54.721054 
L 372.580884 54.618693 
L 372.580884 54.612013 
L 372.471155 54.612396 
L 371.246988 54.509303 
L 371.246988 54.50259 
L 371.137258 54.502934 
L 368.359737 54.40326 
L 368.359737 54.396479 
L 368.250008 54.396788 
L 365.191305 54.29578 
L 365.191305 54.288922 
L 365.081576 54.289194 
L 362.763545 54.184313 
L 362.660674 54.170692 
L 362.653816 54.170706 
L 360.236344 54.071087 
L 360.21577 54.057159 
L 360.126614 54.057311 
L 358.220069 53.955104 
L 358.220069 53.948071 
L 358.11034 53.948217 
L 346.287013 53.854564 
L 346.287013 53.847219 
L 346.177284 53.847332 
L 288.737454 53.800908 
L 288.617437 53.79172 
L 148.884102 54.047977 
L 100.123169 54.252855 
L 99.800839 54.030413 
L 99.166467 54.041983 
L 98.792701 53.888805 
L 94.533835 53.858118 
L 93.457117 53.772054 
L 89.753755 53.819498 
L 88.814198 53.701662 
L 81.253167 53.837795 
L 79.809542 53.902923 
L 77.388641 54.130722 
L 73.832727 53.568 
L 73.832727 53.568 
" clip-path="url(#pa78890cc2f)" style="fill: none; stroke: #1f77b4; stroke-width: 1.5; stroke-linecap: square"/>
   </g>
   <g id="patch_3">
    <path d="M 57.6 307.584 
L 57.6 41.472 
" style="fill: none; stroke: #000000; stroke-width: 0.8; stroke-linejoin: miter; stroke-linecap: square"/>
   </g>
   <g id="patch_4">
    <path d="M 414.72 307.584 
L 414.72 41.472 
" style="fill: none; stroke: #000000; stroke-width: 0.8; stroke-linejoin: miter; stroke-linecap: square"/>
   </g>
   <g id="patch_5">
    <path d="M 57.6 307.584 
L 414.72 307.584 
" style="fill: none; stroke: #000000; stroke-width: 0.8; stroke-linejoin: miter; stroke-linecap: square"/>
   </g>
   <g id="patch_6">
    <path d="M 57.6 41.472 
L 414.72 41.472 
" style="fill: none; stroke: #000000; stroke-width: 0.8; stroke-linejoin: miter; stroke-linecap: square"/>
   </g>
   <g id="text_12">
    <!-- Precision Recall -->
    <g transform="translate(189.584063 35.472) scale(0.12 -0.12)">
     <defs>
      <path id="DejaVuSans-50" d="M 1259 4147 
L 1259 2394 
L 2053 2394 
Q 2494 2394 2734 2622 
Q 2975 2850 2975 3272 
Q 2975 3691 2734 3919 
Q 2494 4147 2053 4147 
L 1259 4147 
z
M 628 4666 
L 2053 4666 
Q 2838 4666 3239 4311 
Q 3641 3956 3641 3272 
Q 3641 2581 3239 2228 
Q 2838 1875 2053 1875 
L 1259 1875 
L 1259 0 
L 628 0 
L 628 4666 
z
" transform="scale(0.015625)"/>
      <path id="DejaVuSans-72" d="M 2631 2963 
Q 2534 3019 2420 3045 
Q 2306 3072 2169 3072 
Q 1681 3072 1420 2755 
Q 1159 2438 1159 1844 
L 1159 0 
L 581 0 
L 581 3500 
L 1159 3500 
L 1159 2956 
Q 1341 3275 1631 3429 
Q 1922 3584 2338 3584 
Q 2397 3584 2469 3576 
Q 2541 3569 2628 3553 
L 2631 2963 
z
" transform="scale(0.015625)"/>
      <path id="DejaVuSans-65" d="M 3597 1894 
L 3597 1613 
L 953 1613 
Q 991 1019 1311 708 
Q 1631 397 2203 397 
Q 2534 397 2845 478 
Q 3156 559 3463 722 
L 3463 178 
Q 3153 47 2828 -22 
Q 2503 -91 2169 -91 
Q 1331 -91 842 396 
Q 353 884 353 1716 
Q 353 2575 817 3079 
Q 1281 3584 2069 3584 
Q 2775 3584 3186 3129 
Q 3597 2675 3597 1894 
z
M 3022 2063 
Q 3016 2534 2758 2815 
Q 2500 3097 2075 3097 
Q 1594 3097 1305 2825 
Q 1016 2553 972 2059 
L 3022 2063 
z
" transform="scale(0.015625)"/>
      <path id="DejaVuSans-63" d="M 3122 3366 
L 3122 2828 
Q 2878 2963 2633 3030 
Q 2388 3097 2138 3097 
Q 1578 3097 1268 2742 
Q 959 2388 959 1747 
Q 959 1106 1268 751 
Q 1578 397 2138 397 
Q 2388 397 2633 464 
Q 2878 531 3122 666 
L 3122 134 
Q 2881 22 2623 -34 
Q 2366 -91 2075 -91 
Q 1284 -91 818 406 
Q 353 903 353 1747 
Q 353 2603 823 3093 
Q 1294 3584 2113 3584 
Q 2378 3584 2631 3529 
Q 2884 3475 3122 3366 
z
" transform="scale(0.015625)"/>
      <path id="DejaVuSans-69" d="M 603 3500 
L 1178 3500 
L 1178 0 
L 603 0 
L 603 3500 
z
M 603 4863 
L 1178 4863 
L 1178 4134 
L 603 4134 
L 603 4863 
z
" transform="scale(0.015625)"/>
      <path id="DejaVuSans-73" d="M 2834 3397 
L 2834 2853 
Q 2591 2978 2328 3040 
Q 2066 3103 1784 3103 
Q 1356 3103 1142 2972 
Q 928 2841 928 2578 
Q 928 2378 1081 2264 
Q 1234 2150 1697 2047 
L 1894 2003 
Q 2506 1872 2764 1633 
Q 3022 1394 3022 966 
Q 3022 478 2636 193 
Q 2250 -91 1575 -91 
Q 1294 -91 989 -36 
Q 684 19 347 128 
L 347 722 
Q 666 556 975 473 
Q 1284 391 1588 391 
Q 1994 391 2212 530 
Q 2431 669 2431 922 
Q 2431 1156 2273 1281 
Q 2116 1406 1581 1522 
L 1381 1569 
Q 847 1681 609 1914 
Q 372 2147 372 2553 
Q 372 3047 722 3315 
Q 1072 3584 1716 3584 
Q 2034 3584 2315 3537 
Q 2597 3491 2834 3397 
z
" transform="scale(0.015625)"/>
      <path id="DejaVuSans-6f" d="M 1959 3097 
Q 1497 3097 1228 2736 
Q 959 2375 959 1747 
Q 959 1119 1226 758 
Q 1494 397 1959 397 
Q 2419 397 2687 759 
Q 2956 1122 2956 1747 
Q 2956 2369 2687 2733 
Q 2419 3097 1959 3097 
z
M 1959 3584 
Q 2709 3584 3137 3096 
Q 3566 2609 3566 1747 
Q 3566 888 3137 398 
Q 2709 -91 1959 -91 
Q 1206 -91 779 398 
Q 353 888 353 1747 
Q 353 2609 779 3096 
Q 1206 3584 1959 3584 
z
" transform="scale(0.015625)"/>
      <path id="DejaVuSans-6e" d="M 3513 2113 
L 3513 0 
L 2938 0 
L 2938 2094 
Q 2938 2591 2744 2837 
Q 2550 3084 2163 3084 
Q 1697 3084 1428 2787 
Q 1159 2491 1159 1978 
L 1159 0 
L 581 0 
L 581 3500 
L 1159 3500 
L 1159 2956 
Q 1366 3272 1645 3428 
Q 1925 3584 2291 3584 
Q 2894 3584 3203 3211 
Q 3513 2838 3513 2113 
z
" transform="scale(0.015625)"/>
      <path id="DejaVuSans-20" transform="scale(0.015625)"/>
      <path id="DejaVuSans-52" d="M 2841 2188 
Q 3044 2119 3236 1894 
Q 3428 1669 3622 1275 
L 4263 0 
L 3584 0 
L 2988 1197 
Q 2756 1666 2539 1819 
Q 2322 1972 1947 1972 
L 1259 1972 
L 1259 0 
L 628 0 
L 628 4666 
L 2053 4666 
Q 2853 4666 3247 4331 
Q 3641 3997 3641 3322 
Q 3641 2881 3436 2590 
Q 3231 2300 2841 2188 
z
M 1259 4147 
L 1259 2491 
L 2053 2491 
Q 2509 2491 2742 2702 
Q 2975 2913 2975 3322 
Q 2975 3731 2742 3939 
Q 2509 4147 2053 4147 
L 1259 4147 
z
" transform="scale(0.015625)"/>
      <path id="DejaVuSans-61" d="M 2194 1759 
Q 1497 1759 1228 1600 
Q 959 1441 959 1056 
Q 959 750 1161 570 
Q 1363 391 1709 391 
Q 2188 391 2477 730 
Q 2766 1069 2766 1631 
L 2766 1759 
L 2194 1759 
z
M 3341 1997 
L 3341 0 
L 2766 0 
L 2766 531 
Q 2569 213 2275 61 
Q 1981 -91 1556 -91 
Q 1019 -91 701 211 
Q 384 513 384 1019 
Q 384 1609 779 1909 
Q 1175 2209 1959 2209 
L 2766 2209 
L 2766 2266 
Q 2766 2663 2505 2880 
Q 2244 3097 1772 3097 
Q 1472 3097 1187 3025 
Q 903 2953 641 2809 
L 641 3341 
Q 956 3463 1253 3523 
Q 1550 3584 1831 3584 
Q 2591 3584 2966 3190 
Q 3341 2797 3341 1997 
z
" transform="scale(0.015625)"/>
      <path id="DejaVuSans-6c" d="M 603 4863 
L 1178 4863 
L 1178 0 
L 603 0 
L 603 4863 
z
" transform="scale(0.015625)"/>
     </defs>
     <use xlink:href="#DejaVuSans-50"/>
     <use xlink:href="#DejaVuSans-72" transform="translate(58.552734 0)"/>
     <use xlink:href="#DejaVuSans-65" transform="translate(97.416016 0)"/>
     <use xlink:href="#DejaVuSans-63" transform="translate(158.939453 0)"/>
     <use xlink:href="#DejaVuSans-69" transform="translate(213.919922 0)"/>
     <use xlink:href="#DejaVuSans-73" transform="translate(241.703125 0)"/>
     <use xlink:href="#DejaVuSans-69" transform="translate(293.802734 0)"/>
     <use xlink:href="#DejaVuSans-6f" transform="translate(321.585938 0)"/>
     <use xlink:href="#DejaVuSans-6e" transform="translate(382.767578 0)"/>
     <use xlink:href="#DejaVuSans-20" transform="translate(446.146484 0)"/>
     <use xlink:href="#DejaVuSans-52" transform="translate(477.933594 0)"/>
     <use xlink:href="#DejaVuSans-65" transform="translate(542.916016 0)"/>
     <use xlink:href="#DejaVuSans-63" transform="translate(604.439453 0)"/>
     <use xlink:href="#DejaVuSans-61" transform="translate(659.419922 0)"/>
     <use xlink:href="#DejaVuSans-6c" transform="translate(720.699219 0)"/>
     <use xlink:href="#DejaVuSans-6c" transform="translate(748.482422 0)"/>
    </g>
   </g>
  </g>
 </g>
 <defs>
  <clipPath id="pa78890cc2f">
   <rect x="57.6" y="41.472" width="357.12" height="266.112"/>
  </clipPath>
 </defs>
</svg>
