<?xml version="1.0" encoding="utf-8" standalone="no"?>
<!DOCTYPE svg PUBLIC "-//W3C//DTD SVG 1.1//EN"
  "http://www.w3.org/Graphics/SVG/1.1/DTD/svg11.dtd">
<svg xmlns:xlink="http://www.w3.org/1999/xlink" width="460.8pt" height="345.6pt" viewBox="0 0 460.8 345.6" xmlns="http://www.w3.org/2000/svg" version="1.1">
 <metadata>
  <rdf:RDF xmlns:dc="http://purl.org/dc/elements/1.1/" xmlns:cc="http://creativecommons.org/ns#" xmlns:rdf="http://www.w3.org/1999/02/22-rdf-syntax-ns#">
   <cc:Work>
    <dc:type rdf:resource="http://purl.org/dc/dcmitype/StillImage"/>
    <dc:date>2026-03-17T02:05:27.467035</dc:date>
    <dc:format>image/svg+xml</dc:format>
    <dc:creator>
     <cc:Agent>
      <dc:title>Matplotlib v3.10.8, https://matplotlib.org/</dc:title>
     </cc:Agent>
    </dc:creator>
   </cc:Work>
  </rdf:RDF>
 </metadata>
 <defs>
  <style type="text/css">*{stroke-linejoin: round; stroke-linecap: butt}</style>
 </defs>
 <g id="figure_1">
  <g id="patch_1">
   <path d="M 0 345.6 
L 460.8 345.6 
L 460.8 0 
L 0 0 
z
" style="fill: #ffffff"/>
  </g>
  <g id="axes_1">
   <g id="patch_2">
    <path d="M 57.6 307.584 
L 414.72 307.584 
L 414.72 41.472 
L 57.6 41.472 
z
" style="fill: #ffffff"/>
   </g>
   <g id="matplotlib.axis_1">
    <g id="xtick_1">
     <g id="line2d_1">
      <defs>
       <path id="mcff267ddac" d="M 0 0 
L 0 3.5 
" style="stroke: #000000; stroke-width: 0.8"/>
      </defs>
      <g>
       <use xlink:href="#mcff267ddac" x="73.832727" y="307.584" style="stroke: #000000; stroke-width: 0.8"/>
      </g>
     </g>
     <g id="text_1">
      <!-- 0.0 -->
      <g transform="translate(65.881165 322.182437) scale(0.1 -0.1)">
       <defs>
        <path id="DejaVuSans-30" d="M 2034 4250 
Q 1547 4250 1301 3770 
Q 1056 3291 1056 2328 
Q 1056 1369 1301 889 
Q 1547 409 2034 409 
Q 2525 409 2770 889 
Q 3016 1369 3016 2328 
Q 3016 3291 2770 3770 
Q 2525 4250 2034 4250 
z
M 2034 4750 
Q 2819 4750 3233 4129 
Q 3647 3509 3647 2328 
Q 3647 1150 3233 529 
Q 2819 -91 2034 -91 
Q 1250 -91 836 529 
Q 422 1150 422 2328 
Q 422 3509 836 4129 
Q 1250 4750 2034 4750 
z
" transform="scale(0.015625)"/>
        <path id="DejaVuSans-2e" d="M 684 794 
L 1344 794 
L 1344 0 
L 684 0 
L 684 794 
z
" transform="scale(0.015625)"/>
       </defs>
       <use xlink:href="#DejaVuSans-30"/>
       <use xlink:href="#DejaVuSans-2e" transform="translate(63.623047 0)"/>
       <use xlink:href="#DejaVuSans-30" transform="translate(95.410156 0)"/>
      </g>
     </g>
    </g>
    <g id="xtick_2">
     <g id="line2d_2">
      <g>
       <use xlink:href="#mcff267ddac" x="138.763636" y="307.584" style="stroke: #000000; stroke-width: 0.8"/>
      </g>
     </g>
     <g id="text_2">
      <!-- 0.2 -->
      <g transform="translate(130.812074 322.182437) scale(0.1 -0.1)">
       <defs>
        <path id="DejaVuSans-32" d="M 1228 531 
L 3431 531 
L 3431 0 
L 469 0 
L 469 531 
Q 828 903 1448 1529 
Q 2069 2156 2228 2338 
Q 2531 2678 2651 2914 
Q 2772 3150 2772 3378 
Q 2772 3750 2511 3984 
Q 2250 4219 1831 4219 
Q 1534 4219 1204 4116 
Q 875 4013 500 3803 
L 500 4441 
Q 881 4594 1212 4672 
Q 1544 4750 1819 4750 
Q 2544 4750 2975 4387 
Q 3406 4025 3406 3419 
Q 3406 3131 3298 2873 
Q 3191 2616 2906 2266 
Q 2828 2175 2409 1742 
Q 1991 1309 1228 531 
z
" transform="scale(0.015625)"/>
       </defs>
       <use xlink:href="#DejaVuSans-30"/>
       <use xlink:href="#DejaVuSans-2e" transform="translate(63.623047 0)"/>
       <use xlink:href="#DejaVuSans-32" transform="translate(95.410156 0)"/>
      </g>
     </g>
    </g>
    <g id="xtick_3">
     <g id="line2d_3">
      <g>
       <use xlink:href="#mcff267ddac" x="203.694545" y="307.584" style="stroke: #000000; stroke-width: 0.8"/>
      </g>
     </g>
     <g id="text_3">
      <!-- 0.4 -->
      <g transform="translate(195.742983 322.182437) scale(0.1 -0.1)">
       <defs>
        <path id="DejaVuSans-34" d="M 2419 4116 
L 825 1625 
L 2419 1625 
L 2419 4116 
z
M 2253 4666 
L 3047 4666 
L 3047 1625 
L 3713 1625 
L 3713 1100 
L 3047 1100 
L 3047 0 
L 2419 0 
L 2419 1100 
L 313 1100 
L 313 1709 
L 2253 4666 
z
" transform="scale(0.015625)"/>
       </defs>
       <use xlink:href="#DejaVuSans-30"/>
       <use xlink:href="#DejaVuSans-2e" transform="translate(63.623047 0)"/>
       <use xlink:href="#DejaVuSans-34" transform="translate(95.410156 0)"/>
      </g>
     </g>
    </g>
    <g id="xtick_4">
     <g id="line2d_4">
      <g>
       <use xlink:href="#mcff267ddac" x="268.625455" y="307.584" style="stroke: #000000; stroke-width: 0.8"/>
      </g>
     </g>
     <g id="text_4">
      <!-- 0.6 -->
      <g transform="translate(260.673892 322.182437) scale(0.1 -0.1)">
       <defs>
        <path id="DejaVuSans-36" d="M 2113 2584 
Q 1688 2584 1439 2293 
Q 1191 2003 1191 1497 
Q 1191 994 1439 701 
Q 1688 409 2113 409 
Q 2538 409 2786 701 
Q 3034 994 3034 1497 
Q 3034 2003 2786 2293 
Q 2538 2584 2113 2584 
z
M 3366 4563 
L 3366 3988 
Q 3128 4100 2886 4159 
Q 2644 4219 2406 4219 
Q 1781 4219 1451 3797 
Q 1122 3375 1075 2522 
Q 1259 2794 1537 2939 
Q 1816 3084 2150 3084 
Q 2853 3084 3261 2657 
Q 3669 2231 3669 1497 
Q 3669 778 3244 343 
Q 2819 -91 2113 -91 
Q 1303 -91 875 529 
Q 447 1150 447 2328 
Q 447 3434 972 4092 
Q 1497 4750 2381 4750 
Q 2619 4750 2861 4703 
Q 3103 4656 3366 4563 
z
" transform="scale(0.015625)"/>
       </defs>
       <use xlink:href="#DejaVuSans-30"/>
       <use xlink:href="#DejaVuSans-2e" transform="translate(63.623047 0)"/>
       <use xlink:href="#DejaVuSans-36" transform="translate(95.410156 0)"/>
      </g>
     </g>
    </g>
    <g id="xtick_5">
     <g id="line2d_5">
      <g>
       <use xlink:href="#mcff267ddac" x="333.556364" y="307.584" style="stroke: #000000; stroke-width: 0.8"/>
      </g>
     </g>
     <g id="text_5">
      <!-- 0.8 -->
      <g transform="translate(325.604801 322.182437) scale(0.1 -0.1)">
       <defs>
        <path id="DejaVuSans-38" d="M 2034 2216 
Q 1584 2216 1326 1975 
Q 1069 1734 1069 1313 
Q 1069 891 1326 650 
Q 1584 409 2034 409 
Q 2484 409 2743 651 
Q 3003 894 3003 1313 
Q 3003 1734 2745 1975 
Q 2488 2216 2034 2216 
z
M 1403 2484 
Q 997 2584 770 2862 
Q 544 3141 544 3541 
Q 544 4100 942 4425 
Q 1341 4750 2034 4750 
Q 2731 4750 3128 4425 
Q 3525 4100 3525 3541 
Q 3525 3141 3298 2862 
Q 3072 2584 2669 2484 
Q 3125 2378 3379 2068 
Q 3634 1759 3634 1313 
Q 3634 634 3220 271 
Q 2806 -91 2034 -91 
Q 1263 -91 848 271 
Q 434 634 434 1313 
Q 434 1759 690 2068 
Q 947 2378 1403 2484 
z
M 1172 3481 
Q 1172 3119 1398 2916 
Q 1625 2713 2034 2713 
Q 2441 2713 2670 2916 
Q 2900 3119 2900 3481 
Q 2900 3844 2670 4047 
Q 2441 4250 2034 4250 
Q 1625 4250 1398 4047 
Q 1172 3844 1172 3481 
z
" transform="scale(0.015625)"/>
       </defs>
       <use xlink:href="#DejaVuSans-30"/>
       <use xlink:href="#DejaVuSans-2e" transform="translate(63.623047 0)"/>
       <use xlink:href="#DejaVuSans-38" transform="translate(95.410156 0)"/>
      </g>
     </g>
    </g>
    <g id="xtick_6">
     <g id="line2d_6">
      <g>
       <use xlink:href="#mcff267ddac" x="398.487273" y="307.584" style="stroke: #000000; stroke-width: 0.8"/>
      </g>
     </g>
     <g id="text_6">
      <!-- 1.0 -->
      <g transform="translate(390.53571 322.182437) scale(0.1 -0.1)">
       <defs>
        <path id="DejaVuSans-31" d="M 794 531 
L 1825 531 
L 1825 4091 
L 703 3866 
L 703 4441 
L 1819 4666 
L 2450 4666 
L 2450 531 
L 3481 531 
L 3481 0 
L 794 0 
L 794 531 
z
" transform="scale(0.015625)"/>
       </defs>
       <use xlink:href="#DejaVuSans-31"/>
       <use xlink:href="#DejaVuSans-2e" transform="translate(63.623047 0)"/>
       <use xlink:href="#DejaVuSans-30" transform="translate(95.410156 0)"/>
      </g>
     </g>
    </g>
   </g>
   <g id="matplotlib.axis_2">
    <g id="ytick_1">
     <g id="line2d_7">
      <defs>
       <path id="m6cf72953b0" d="M 0 0 
L -3.5 0 
" style="stroke: #000000; stroke-width: 0.8"/>
      </defs>
      <g>
       <use xlink:href="#m6cf72953b0" x="57.6" y="278.405695" style="stroke: #000000; stroke-width: 0.8"/>
      </g>
     </g>
     <g id="text_7">
      <!-- 0.5 -->
      <g transform="translate(34.696875 282.204913) scale(0.1 -0.1)">
       <defs>
        <path id="DejaVuSans-35" d="M 691 4666 
L 3169 4666 
L 3169 4134 
L 1269 4134 
L 1269 2991 
Q 1406 3038 1543 3061 
Q 1681 3084 1819 3084 
Q 2600 3084 3056 2656 
Q 3513 2228 3513 1497 
Q 3513 744 3044 326 
Q 2575 -91 1722 -91 
Q 1428 -91 1123 -41 
Q 819 9 494 109 
L 494 744 
Q 775 591 1075 516 
Q 1375 441 1709 441 
Q 2250 441 2565 725 
Q 2881 1009 2881 1497 
Q 2881 1984 2565 2268 
Q 2250 2553 1709 2553 
Q 1456 2553 1204 2497 
Q 953 2441 691 2322 
L 691 4666 
z
" transform="scale(0.015625)"/>
       </defs>
       <use xlink:href="#DejaVuSans-30"/>
       <use xlink:href="#DejaVuSans-2e" transform="translate(63.623047 0)"/>
       <use xlink:href="#DejaVuSans-35" transform="translate(95.410156 0)"/>
      </g>
     </g>
    </g>
    <g id="ytick_2">
     <g id="line2d_8">
      <g>
       <use xlink:href="#m6cf72953b0" x="57.6" y="233.438156" style="stroke: #000000; stroke-width: 0.8"/>
      </g>
     </g>
     <g id="text_8">
      <!-- 0.6 -->
      <g transform="translate(34.696875 237.237374) scale(0.1 -0.1)">
       <use xlink:href="#DejaVuSans-30"/>
       <use xlink:href="#DejaVuSans-2e" transform="translate(63.623047 0)"/>
       <use xlink:href="#DejaVuSans-36" transform="translate(95.410156 0)"/>
      </g>
     </g>
    </g>
    <g id="ytick_3">
     <g id="line2d_9">
      <g>
       <use xlink:href="#m6cf72953b0" x="57.6" y="188.470617" style="stroke: #000000; stroke-width: 0.8"/>
      </g>
     </g>
     <g id="text_9">
      <!-- 0.7 -->
      <g transform="translate(34.696875 192.269836) scale(0.1 -0.1)">
       <defs>
        <path id="DejaVuSans-37" d="M 525 4666 
L 3525 4666 
L 3525 4397 
L 1831 0 
L 1172 0 
L 2766 4134 
L 525 4134 
L 525 4666 
z
" transform="scale(0.015625)"/>
       </defs>
       <use xlink:href="#DejaVuSans-30"/>
       <use xlink:href="#DejaVuSans-2e" transform="translate(63.623047 0)"/>
       <use xlink:href="#DejaVuSans-37" transform="translate(95.410156 0)"/>
      </g>
     </g>
    </g>
    <g id="ytick_4">
     <g id="line2d_10">
      <g>
       <use xlink:href="#m6cf72953b0" x="57.6" y="143.503078" style="stroke: #000000; stroke-width: 0.8"/>
      </g>
     </g>
     <g id="text_10">
      <!-- 0.8 -->
      <g transform="translate(34.696875 147.302297) scale(0.1 -0.1)">
       <use xlink:href="#DejaVuSans-30"/>
       <use xlink:href="#DejaVuSans-2e" transform="translate(63.623047 0)"/>
       <use xlink:href="#DejaVuSans-38" transform="translate(95.410156 0)"/>
      </g>
     </g>
    </g>
    <g id="ytick_5">
     <g id="line2d_11">
      <g>
       <use xlink:href="#m6cf72953b0" x="57.6" y="98.535539" style="stroke: #000000; stroke-width: 0.8"/>
      </g>
     </g>
     <g id="text_11">
      <!-- 0.9 -->
      <g transform="translate(34.696875 102.334758) scale(0.1 -0.1)">
       <defs>
        <path id="DejaVuSans-39" d="M 703 97 
L 703 672 
Q 941 559 1184 500 
Q 1428 441 1663 441 
Q 2288 441 2617 861 
Q 2947 1281 2994 2138 
Q 2813 1869 2534 1725 
Q 2256 1581 1919 1581 
Q 1219 1581 811 2004 
Q 403 2428 403 3163 
Q 403 3881 828 4315 
Q 1253 4750 1959 4750 
Q 2769 4750 3195 4129 
Q 3622 3509 3622 2328 
Q 3622 1225 3098 567 
Q 2575 -91 1691 -91 
Q 1453 -91 1209 -44 
Q 966 3 703 97 
z
M 1959 2075 
Q 2384 2075 2632 2365 
Q 2881 2656 2881 3163 
Q 2881 3666 2632 3958 
Q 2384 4250 1959 4250 
Q 1534 4250 1286 3958 
Q 1038 3666 1038 3163 
Q 1038 2656 1286 2365 
Q 1534 2075 1959 2075 
z
" transform="scale(0.015625)"/>
       </defs>
       <use xlink:href="#DejaVuSans-30"/>
       <use xlink:href="#DejaVuSans-2e" transform="translate(63.623047 0)"/>
       <use xlink:href="#DejaVuSans-39" transform="translate(95.410156 0)"/>
      </g>
     </g>
    </g>
    <g id="ytick_6">
     <g id="line2d_12">
      <g>
       <use xlink:href="#m6cf72953b0" x="57.6" y="53.568" style="stroke: #000000; stroke-width: 0.8"/>
      </g>
     </g>
     <g id="text_12">
      <!-- 1.0 -->
      <g transform="translate(34.696875 57.367219) scale(0.1 -0.1)">
       <use xlink:href="#DejaVuSans-31"/>
       <use xlink:href="#DejaVuSans-2e" transform="translate(63.623047 0)"/>
       <use xlink:href="#DejaVuSans-30" transform="translate(95.410156 0)"/>
      </g>
     </g>
    </g>
   </g>
   <g id="line2d_13">
    <path d="M 398.487273 295.488 
L 398.376286 255.635527 
L 398.375973 255.635634 
L 398.375348 255.518505 
L 398.264361 245.466171 
L 398.264048 245.466277 
L 398.25717 245.35136 
L 398.146183 243.944022 
L 398.144932 243.943148 
L 398.12805 243.864801 
L 398.11273 243.83825 
L 398.001743 243.588823 
L 397.979546 243.537905 
L 397.998304 243.577118 
L 397.962663 243.484872 
L 397.851676 243.264116 
L 397.797902 243.145482 
L 397.687227 242.884674 
L 397.686915 242.884779 
L 397.640332 242.78684 
L 397.680037 242.860765 
L 397.639706 242.783556 
L 397.528719 242.504937 
L 397.504333 242.450385 
L 397.525905 242.495959 
L 397.491828 242.400259 
L 397.38084 241.905438 
L 397.379903 241.905608 
L 397.368022 241.792605 
L 397.257035 241.086927 
L 397.146361 240.889808 
L 397.035374 240.672936 
L 397.03256 240.663802 
L 396.980974 240.574108 
L 396.869987 240.329122 
L 396.828719 240.234273 
L 396.827155 240.226314 
L 396.716168 239.855619 
L 396.71523 239.855488 
L 396.699598 239.744052 
L 396.588611 239.161081 
L 396.588299 239.161187 
L 396.567664 239.055886 
L 396.565789 239.051558 
L 396.455114 238.554639 
L 396.454801 238.554744 
L 396.453863 238.554004 
L 396.435105 238.444933 
L 396.43448 238.444389 
L 396.323493 237.89904 
L 396.321929 237.899264 
L 396.305672 237.787815 
L 396.194685 237.088293 
L 396.194372 237.088399 
L 396.17874 236.977042 
L 396.178428 236.976535 
L 396.067441 236.265707 
L 396.06494 236.262242 
L 396.048057 236.157301 
L 396.046806 236.155721 
L 395.935819 235.6254 
L 395.935507 235.625506 
L 395.917374 235.515921 
L 395.916436 235.514999 
L 395.805449 234.909566 
L 395.781063 234.793162 
L 395.670076 234.107923 
L 395.655694 233.992992 
L 395.544707 233.247351 
L 395.543769 233.246721 
L 395.523135 233.137481 
L 395.412148 232.546107 
L 395.373693 232.328281 
L 395.262706 231.709036 
L 395.222063 231.546613 
L 395.111388 230.940445 
L 395.111076 230.940549 
L 395.108262 230.936516 
L 395.091379 230.830107 
L 394.980392 230.227764 
L 394.978204 230.225268 
L 394.960071 230.124453 
L 394.957569 230.118344 
L 394.846582 229.466574 
L 394.815318 229.308718 
L 394.704331 228.517976 
L 394.688074 228.40183 
L 394.577087 227.759924 
L 394.529253 227.449395 
L 394.418266 226.827895 
L 394.399507 226.710954 
L 394.28852 226.052103 
L 394.241624 225.813371 
L 394.130637 225.163187 
L 394.128761 225.160115 
L 394.113442 225.054359 
L 394.112191 225.052421 
L 394.001204 224.328886 
L 394.000892 224.328989 
L 393.984009 224.22016 
L 393.982446 224.218141 
L 393.871459 223.512446 
L 393.871146 223.51255 
L 393.8527 223.401809 
L 393.741713 222.651709 
L 393.741401 222.651812 
L 393.722017 222.541289 
L 393.61103 221.774756 
L 393.592897 221.620441 
L 393.48191 220.843199 
L 393.481597 220.843302 
L 393.461901 220.732986 
L 393.350913 220.002228 
L 393.34935 219.9989 
L 393.331217 219.892205 
L 393.22023 219.105356 
L 393.189904 218.939253 
L 393.078917 218.062304 
L 393.076416 218.056745 
L 393.065161 217.95003 
L 392.954174 216.94399 
L 392.93479 216.784846 
L 392.823803 215.957115 
L 392.804732 215.797364 
L 392.693745 214.965394 
L 392.676549 214.846613 
L 392.565562 214.015567 
L 392.477398 213.251416 
L 392.366411 212.438108 
L 392.366098 212.438209 
L 392.352029 212.327519 
L 392.351091 212.326344 
L 392.240104 211.648538 
L 392.237291 211.645359 
L 392.226973 211.542997 
L 392.224785 211.537012 
L 392.113798 210.804726 
L 392.113173 210.80418 
L 392.103481 210.69161 
L 391.992494 209.7135 
L 391.979675 209.594795 
L 391.868688 208.790814 
L 391.868376 208.790914 
L 391.853056 208.679954 
L 391.852744 208.679485 
L 391.741756 207.784899 
L 391.718621 207.614614 
L 391.607634 206.50178 
L 391.606696 206.50073 
L 391.595754 206.39107 
L 391.595128 206.389341 
L 391.484141 205.601815 
L 391.483203 205.601143 
L 391.468509 205.492126 
L 391.467884 205.490577 
L 391.356897 204.683777 
L 391.334387 204.560647 
L 391.2234 203.75716 
L 391.199326 203.633245 
L 391.088339 202.634683 
L 391.088027 202.634781 
L 391.074583 202.522712 
L 390.963596 201.92533 
L 390.93327 201.667868 
L 390.822283 200.793695 
L 390.818531 200.784835 
L 390.807589 200.682473 
L 390.806963 200.682267 
L 390.695976 199.715773 
L 390.695664 199.715871 
L 390.677531 199.605234 
L 390.566543 198.874868 
L 390.565293 198.874036 
L 390.544971 198.765405 
L 390.433984 198.172901 
L 390.433359 198.172482 
L 390.416789 198.066188 
L 390.415538 198.062484 
L 390.304864 197.471785 
L 390.286418 197.360362 
L 390.175744 196.606999 
L 390.175431 196.607095 
L 390.167615 196.584292 
L 390.155109 196.505243 
L 390.151983 196.498141 
L 390.040996 196.152341 
L 389.996601 196.053375 
L 390.034118 196.127916 
L 389.996288 196.049943 
L 389.885301 195.775814 
L 389.884989 195.77591 
L 389.858727 195.669773 
L 389.856851 195.668477 
L 389.745864 195.202449 
L 389.744301 195.199796 
L 389.728044 195.093438 
L 389.727418 195.091958 
L 389.616431 194.483849 
L 389.587981 194.355232 
L 389.476994 193.934298 
L 389.464176 193.895645 
L 389.456672 193.852823 
L 389.446042 193.827605 
L 389.335055 193.288669 
L 389.32974 193.276318 
L 389.310669 193.18005 
L 389.199682 192.630736 
L 389.197806 192.626628 
L 389.17811 192.521339 
L 389.067123 192.020713 
L 389.045551 191.893908 
L 388.934876 191.289841 
L 388.934564 191.289936 
L 388.934251 191.290031 
L 388.921433 191.220894 
L 388.907989 191.181998 
L 388.797002 190.638389 
L 388.796377 190.638578 
L 388.774805 190.530732 
L 388.774179 190.52941 
L 388.663192 190.034628 
L 388.66288 190.034722 
L 388.642245 189.925655 
L 388.641933 189.925099 
L 388.60723 189.723602 
L 388.496243 189.166224 
L 388.494992 189.164856 
L 388.472169 189.06205 
L 388.469356 189.058317 
L 388.358369 188.477719 
L 388.332419 188.347908 
L 388.222058 187.795896 
L 388.221432 187.796084 
L 388.218306 187.790198 
L 388.201423 187.707642 
L 388.195483 187.688061 
L 388.084496 187.157097 
L 387.951312 186.518278 
L 387.840324 186.021084 
L 387.840012 186.021177 
L 387.826256 185.95284 
L 387.812499 185.913457 
L 387.787801 185.782939 
L 387.676814 185.231838 
L 387.675563 185.231537 
L 387.65618 185.125451 
L 387.654929 185.122459 
L 387.543942 184.562739 
L 387.537376 184.550727 
L 387.526747 184.487004 
L 387.51643 184.455147 
L 387.405442 183.866808 
L 387.375742 183.733251 
L 387.264755 183.102394 
L 387.263191 183.098989 
L 387.245684 182.993379 
L 387.245371 182.992334 
L 387.244433 182.992382 
L 387.134384 182.478617 
L 387.133446 182.476838 
L 387.109685 182.370288 
L 386.998698 181.676309 
L 386.997135 181.676078 
L 386.978689 181.566415 
L 386.867702 181.224365 
L 386.825183 181.12158 
L 386.825183 181.121119 
L 386.714196 180.799281 
L 386.679805 180.698371 
L 386.713258 180.792624 
L 386.679805 180.693747 
L 386.568818 180.379095 
L 386.556938 180.354278 
L 386.543182 180.273425 
L 386.540368 180.271692 
L 386.429381 179.779163 
L 386.425317 179.769173 
L 386.404057 179.673145 
L 386.403432 179.670998 
L 386.369042 179.533492 
L 386.258054 179.096169 
L 386.249926 179.070462 
L 386.23617 178.987892 
L 386.235857 178.987046 
L 386.12487 178.579545 
L 386.082351 178.437576 
L 385.971364 178.00662 
L 385.970113 178.005096 
L 385.958858 177.95249 
L 385.941976 177.899599 
L 385.830988 177.442701 
L 385.827237 177.434318 
L 385.818483 177.383603 
L 385.802226 177.3355 
L 385.691551 176.925666 
L 385.691238 176.925756 
L 385.673105 176.879675 
L 385.658724 176.81967 
L 385.547737 176.41683 
L 385.51491 176.316838 
L 385.539295 176.379933 
L 385.513972 176.311146 
L 385.402985 175.880137 
L 385.367656 175.740457 
L 385.257294 175.328962 
L 385.256669 175.32914 
L 385.183511 175.059966 
L 385.072837 174.675059 
L 385.072524 174.675148 
L 384.981546 174.382099 
L 384.870559 173.962721 
L 384.853364 173.911599 
L 384.846486 173.871598 
L 384.841483 173.855553 
L 384.730496 173.430074 
L 384.708612 173.361807 
L 384.71674 173.376544 
L 384.699858 173.323389 
L 384.588871 172.873439 
L 384.575427 172.831805 
L 384.566673 172.78297 
L 384.560108 172.76625 
L 384.449433 172.347376 
L 384.449121 172.347464 
L 384.420983 172.261486 
L 384.440679 172.313073 
L 384.416919 172.241293 
L 384.305931 171.834566 
L 384.300304 171.818682 
L 384.298115 171.792975 
L 384.278732 171.726806 
L 384.167745 171.298205 
L 384.133042 171.196548 
L 384.166181 171.291977 
L 384.132729 171.192683 
L 384.021742 170.78485 
L 384.021429 170.784937 
L 383.997043 170.677499 
L 383.996731 170.676595 
L 383.885744 170.229084 
L 383.839786 170.08041 
L 383.729111 169.665967 
L 383.728798 169.666054 
L 383.724109 169.653126 
L 383.716605 169.61526 
L 383.699098 169.559177 
L 383.664395 169.415844 
L 383.553407 168.940412 
L 383.549968 168.932834 
L 383.542152 168.870507 
L 383.529334 168.831883 
L 383.418347 168.377788 
L 383.382706 168.272752 
L 383.418034 168.376363 
L 383.382706 168.2725 
L 383.271719 167.847809 
L 383.271406 167.847895 
L 383.250147 167.751354 
L 383.246708 167.739655 
L 383.21857 167.59886 
L 383.107583 167.137454 
L 383.103519 167.126125 
L 383.085073 167.030073 
L 383.084135 167.028806 
L 382.973148 166.579699 
L 382.938758 166.435069 
L 382.827771 165.955024 
L 382.824331 165.948795 
L 382.807762 165.868048 
L 382.800571 165.847725 
L 382.689584 165.386903 
L 382.651129 165.238998 
L 382.540142 164.841846 
L 382.493246 164.688898 
L 382.382259 164.253543 
L 382.376319 164.236764 
L 382.358498 164.145994 
L 382.357873 164.145126 
L 382.246886 163.692908 
L 382.229065 163.650922 
L 382.24626 163.689698 
L 382.215309 163.586498 
L 382.104635 163.196458 
L 382.104322 163.196542 
L 382.066805 163.047728 
L 381.955818 162.603792 
L 381.917051 162.453862 
L 381.806064 162.01688 
L 381.782303 161.901216 
L 381.671316 161.455298 
L 381.267073 159.836179 
L 381.156398 159.349814 
L 381.094495 159.128074 
L 380.983508 158.595968 
L 380.949431 158.446452 
L 380.838443 157.954129 
L 380.83688 157.951837 
L 380.815621 157.846646 
L 380.814996 157.845999 
L 380.704008 157.395972 
L 380.664303 157.242265 
L 380.553316 156.757841 
L 380.532994 156.694245 
L 380.548939 156.731488 
L 380.524866 156.650607 
L 380.413879 156.15835 
L 380.396371 156.095925 
L 380.389493 156.050138 
L 380.278506 155.576304 
L 380.271002 155.549164 
L 380.257871 155.475725 
L 380.253494 155.468069 
L 380.142507 155.044241 
L 380.104365 154.889646 
L 380.028394 154.574604 
L 379.918032 154.11845 
L 379.917719 154.11853 
L 379.887706 154.026481 
L 379.915843 154.109318 
L 379.886455 154.012116 
L 379.775781 153.541368 
L 379.775468 153.541447 
L 378.116289 146.110119 
L 378.005302 145.632533 
L 377.937146 145.310371 
L 377.826159 144.799213 
L 377.825846 144.799288 
L 377.815529 144.74033 
L 377.802398 144.690843 
L 377.691411 144.129072 
L 377.682345 144.10408 
L 377.669214 144.026614 
L 377.667025 144.020934 
L 377.556038 143.556393 
L 377.529151 143.455224 
L 377.551974 143.536921 
L 377.528526 143.448853 
L 377.417851 142.987981 
L 377.417539 142.988055 
L 377.384712 142.828078 
L 377.273725 142.25689 
L 377.244024 142.098961 
L 377.133037 141.619975 
L 377.130848 141.61419 
L 377.113028 141.510994 
L 377.112715 141.510767 
L 377.001728 140.960879 
L 376.99016 140.929851 
L 376.980781 140.865181 
L 376.977655 140.852654 
L 376.866667 140.324148 
L 376.848847 140.259352 
L 376.861978 140.293499 
L 376.841656 140.215962 
L 376.730669 139.639913 
L 376.697217 139.476962 
L 376.586542 138.938484 
L 376.579664 138.916585 
L 376.56497 138.832739 
L 376.564345 138.830441 
L 376.453358 138.306165 
L 376.453045 138.306236 
L 376.437413 138.216133 
L 376.431786 138.197205 
L 376.320798 137.609808 
L 376.31267 137.578762 
L 376.302353 137.507315 
L 376.300164 137.500737 
L 376.189177 137.009919 
L 376.187926 137.005882 
L 376.181361 136.961087 
L 376.166667 136.901131 
L 376.05568 136.384734 
L 376.044425 136.341421 
L 376.043487 136.326765 
L 376.030981 136.276588 
L 375.919994 135.735895 
L 375.918118 135.733825 
L 375.900298 135.63144 
L 375.898735 135.626811 
L 375.78806 135.04058 
L 375.787748 135.040649 
L 375.771803 134.978604 
L 375.768989 134.947994 
L 375.762736 134.932508 
L 375.652062 134.355449 
L 375.651749 134.355517 
L 375.637055 134.292276 
L 375.631115 134.249044 
L 375.629864 134.246809 
L 375.518877 133.699576 
L 375.518252 133.699083 
L 375.501682 133.591252 
L 375.500744 133.589882 
L 375.389757 133.042115 
L 375.364746 132.942287 
L 375.389444 133.039339 
L 375.363495 132.934338 
L 375.253133 132.433797 
L 375.252508 132.433932 
L 375.217805 132.264031 
L 375.107131 131.741507 
L 375.106818 131.741574 
L 375.089936 131.676064 
L 375.086184 131.632573 
L 374.975197 131.087088 
L 374.973008 131.083717 
L 374.955813 130.980543 
L 374.954875 130.977863 
L 374.843888 130.462072 
L 374.842637 130.459769 
L 374.827318 130.357056 
L 374.824504 130.352834 
L 374.713517 129.83614 
L 374.688506 129.730532 
L 374.708515 129.804648 
L 374.688506 129.727952 
L 374.577519 129.160862 
L 374.572204 129.142562 
L 374.561574 129.051902 
L 374.561262 129.050996 
L 374.450274 128.527473 
L 374.434643 128.458937 
L 374.432767 128.433335 
L 374.42839 128.418647 
L 374.317403 127.927109 
L 374.288014 127.821673 
L 374.314276 127.903309 
L 374.288014 127.820042 
L 374.177027 127.370963 
L 374.157018 127.281183 
L 374.167961 127.318527 
L 374.153579 127.262582 
L 374.042592 126.738235 
L 374.026022 126.670361 
L 374.032588 126.686099 
L 374.020082 126.629528 
L 373.909095 126.187618 
L 373.855946 125.996679 
L 373.744959 125.557764 
L 373.719948 125.452321 
L 373.744646 125.554851 
L 373.719948 125.449673 
L 373.609899 125.087512 
L 373.608961 125.0877 
L 373.592391 125.05122 
L 373.581761 124.980021 
L 373.471087 124.458008 
L 373.470774 124.45807 
L 373.442011 124.357233 
L 373.441386 124.350695 
L 373.330399 123.872302 
L 373.301323 123.779468 
L 373.329461 123.866808 
L 373.300698 123.765216 
L 373.190649 123.278009 
L 373.189711 123.278193 
L 373.162199 123.173587 
L 373.189398 123.275237 
L 373.162199 123.170568 
L 373.051211 122.728338 
L 373.026825 122.640224 
L 373.050899 122.726717 
L 373.023699 122.620637 
L 372.913337 122.173556 
L 372.912712 122.173678 
L 372.879885 122.081793 
L 372.878947 122.067113 
L 372.768272 121.690501 
L 372.76796 121.690562 
L 372.735133 121.587505 
L 372.735133 121.583778 
L 372.624145 121.200815 
L 372.589755 121.09633 
L 372.589755 121.094291 
L 372.478768 120.706227 
L 372.437812 120.601936 
L 372.437812 120.601254 
L 372.326825 120.077461 
L 372.305253 119.996726 
L 372.318696 120.031122 
L 372.301501 119.96938 
L 372.190514 119.525398 
L 372.167066 119.437154 
L 372.163627 119.417547 
L 372.05264 118.849277 
L 372.049201 118.835107 
L 372.039509 118.738708 
L 371.928522 118.194216 
L 371.902573 118.09353 
L 371.927271 118.185457 
L 371.902573 118.086263 
L 371.791586 117.554351 
L 371.791273 117.551631 
L 371.758446 117.447604 
L 371.647771 117.119878 
L 371.647459 117.119935 
L 371.647146 117.117904 
L 371.610567 117.013882 
L 371.49958 116.636631 
L 371.488325 116.588752 
L 371.496454 116.616602 
L 371.478321 116.527705 
L 371.367333 116.106432 
L 371.32075 115.910555 
L 371.209763 115.553204 
L 371.190067 115.445662 
L 371.201947 115.493805 
L 371.190067 115.443904 
L 371.07908 115.044475 
L 371.053756 114.943569 
L 371.077204 115.028242 
L 371.052818 114.93633 
L 370.941831 114.525931 
L 370.867422 114.301686 
L 370.756748 113.859219 
L 370.756435 113.859274 
L 370.747056 113.823286 
L 370.740803 113.750154 
L 370.740491 113.749498 
L 370.629504 113.314692 
L 370.599803 113.209781 
L 370.599803 113.207287 
L 370.489128 112.789384 
L 370.488816 112.789438 
L 370.461303 112.682333 
L 370.461303 112.681618 
L 370.350316 112.243968 
L 370.303733 112.139381 
L 370.192746 111.784217 
L 370.151165 111.681999 
L 370.150852 111.678815 
L 370.039865 111.342285 
L 369.992344 111.247223 
L 369.991406 111.238003 
L 369.826645 110.920301 
L 369.715657 110.589418 
L 369.679079 110.484674 
L 369.679079 110.483224 
L 369.568404 110.196624 
L 369.568091 110.196677 
L 369.540266 110.106513 
L 369.539016 110.088915 
L 369.428029 109.774198 
L 369.399891 109.667778 
L 369.399891 109.666321 
L 369.289217 109.224203 
L 369.288904 109.224255 
L 369.260766 109.136077 
L 369.258578 109.116698 
L 369.147904 108.844386 
L 369.147591 108.844438 
L 369.091003 108.741621 
L 369.091003 108.741254 
L 368.980329 108.595843 
L 368.980016 108.595894 
L 368.914049 108.497311 
L 368.913736 108.494425 
L 368.802749 108.226634 
L 368.741472 108.125122 
L 368.741472 108.124385 
L 368.632986 107.973706 
L 368.630485 107.974111 
L 368.561079 107.874043 
L 368.561079 107.872936 
L 368.450404 107.62401 
L 368.450091 107.62406 
L 368.399444 107.521386 
L 368.44759 107.605996 
L 368.399444 107.519907 
L 368.288457 107.209962 
L 368.225616 107.107786 
L 368.114629 106.968331 
L 368.065857 106.864415 
L 368.065857 106.863672 
L 367.559068 106.183775 
L 367.448081 106.056075 
L 367.34616 105.960044 
L 367.235486 105.729029 
L 367.235173 105.729078 
L 367.190778 105.626301 
L 367.190466 105.623727 
L 367.079479 105.45553 
L 367.028831 105.353493 
L 367.028831 105.35124 
L 366.917844 105.06794 
L 366.866571 104.965677 
L 366.866571 104.963795 
L 366.755584 104.670966 
L 366.649286 104.398293 
L 366.538299 104.117442 
L 366.498281 104.013425 
L 366.498281 104.011532 
L 366.387294 103.701393 
L 366.347589 103.59662 
L 366.347589 103.595102 
L 366.236602 103.32355 
L 366.201899 103.218479 
L 366.201899 103.216577 
L 366.090912 102.906107 
L 366.049956 102.800508 
L 366.049956 102.800127 
L 365.938969 102.50742 
L 365.898325 102.401453 
L 365.787651 102.104363 
L 365.743256 101.99901 
L 365.743256 101.998627 
L 365.632269 101.712198 
L 365.596941 101.606728 
L 365.596941 101.60519 
L 365.486266 101.335573 
L 365.485954 101.335619 
L 365.438745 101.231203 
L 365.483765 101.31707 
L 365.438745 101.230432 
L 365.327758 100.889805 
L 365.287115 100.784076 
L 365.287115 100.783689 
L 365.176128 100.486091 
L 365.140799 100.393604 
L 365.140174 100.379362 
L 365.029187 100.103755 
L 364.989794 99.997215 
L 364.878807 99.684618 
L 364.840665 99.578345 
L 364.840665 99.577955 
L 364.729678 99.255416 
L 364.619003 98.967242 
L 364.508016 98.678089 
L 364.47175 98.572322 
L 364.47175 98.571147 
L 364.360763 98.255225 
L 364.249463 97.964565 
L 364.138476 97.705914 
L 364.100021 97.605592 
L 364.099396 97.599371 
L 363.989034 97.270796 
L 363.988409 97.270881 
L 363.948391 97.16847 
L 363.987784 97.265832 
L 363.948078 97.164561 
L 363.837091 96.833048 
L 363.79551 96.726549 
L 363.684523 96.396756 
L 363.249328 95.219759 
L 363.212124 95.115395 
L 363.212124 95.112593 
L 363.101137 94.782089 
L 363.067997 94.674458 
L 362.95701 94.365424 
L 362.926684 94.257916 
L 362.926684 94.257514 
L 362.815697 93.943909 
L 362.780681 93.837081 
L 362.780681 93.836678 
L 362.680011 93.549493 
L 362.569024 93.247212 
L 362.526505 93.141591 
L 362.526505 93.140781 
L 362.415831 92.834292 
L 362.370498 92.731126 
L 362.370498 92.728284 
L 362.259511 92.398922 
L 362.154777 92.103886 
L 362.043789 91.759553 
L 362.007836 91.652365 
L 361.896849 91.366302 
L 361.864334 91.259211 
L 361.864334 91.258392 
L 361.753347 90.979695 
L 361.657679 90.693247 
L 361.546692 90.363938 
L 361.515428 90.256346 
L 361.546379 90.360679 
L 361.515428 90.255934 
L 361.404441 89.962762 
L 361.363798 89.857192 
L 361.363798 89.855953 
L 361.253123 89.556485 
L 361.252811 89.556521 
L 361.211542 89.451116 
L 361.211542 89.449873 
L 361.100555 89.137915 
L 361.067103 89.030046 
L 360.956116 88.73877 
L 360.915785 88.635113 
L 360.915785 88.631782 
L 360.804798 88.326291 
L 360.763842 88.220715 
L 360.763842 88.219463 
L 360.652855 87.942727 
L 360.610336 87.836181 
L 360.610336 87.835762 
L 360.499349 87.59174 
L 360.453078 87.485734 
L 360.453078 87.485315 
L 360.342716 87.263219 
L 360.342091 87.263287 
L 360.288004 87.15785 
L 360.288004 87.15743 
L 360.177017 86.927642 
L 360.133248 86.8208 
L 360.02226 86.578154 
L 359.972551 86.472921 
L 359.972551 86.472077 
L 359.862502 86.208785 
L 359.861564 86.208884 
L 359.808415 86.106242 
L 359.808415 86.102857 
L 359.697428 85.870257 
L 359.643654 85.766543 
L 359.643654 85.764423 
L 359.532667 85.515893 
L 359.479518 85.410112 
L 359.369156 85.153578 
L 359.368531 85.153642 
L 359.320384 85.049591 
L 359.320384 85.047036 
L 359.209397 84.771917 
L 359.171568 84.6648 
L 359.171568 84.664373 
L 359.060893 84.380728 
L 359.06058 84.38076 
L 359.015873 84.273595 
L 358.905511 84.042662 
L 358.904886 84.042724 
L 358.860804 83.935642 
L 358.749816 83.649156 
L 358.699794 83.543626 
L 358.699794 83.542766 
L 358.588807 83.284711 
L 358.541911 83.17857 
L 358.588494 83.27699 
L 358.541911 83.178139 
L 358.430924 82.919349 
L 358.376837 82.814459 
L 358.376837 82.813163 
L 358.26585 82.552764 
L 358.031996 82.070559 
L 357.921008 81.821236 
L 357.871299 81.715861 
L 357.871299 81.714557 
L 357.760312 81.489359 
L 357.710289 81.383293 
L 357.710289 81.382858 
L 357.599302 81.048331 
L 357.558034 80.940674 
L 357.447046 80.652815 
L 357.401714 80.546957 
L 357.401714 80.545643 
L 357.290727 80.256931 
L 357.254148 80.150859 
L 357.254148 80.148663 
L 357.143786 79.859047 
L 357.143161 79.859101 
L 357.108145 79.751706 
L 357.108145 79.750826 
L 356.997158 79.425134 
L 356.936193 79.319193 
L 356.825519 79.01455 
L 356.825206 79.014577 
L 356.790503 78.910039 
L 356.79019 78.906084 
L 356.679203 78.552678 
L 356.631994 78.445293 
L 356.521945 78.210658 
L 356.521007 78.210735 
L 356.455353 78.105018 
L 356.344366 77.864905 
L 356.305911 77.756664 
L 356.194924 77.45787 
L 356.15178 77.351917 
L 356.15178 77.35013 
L 356.041105 77.057128 
L 356.040793 77.057152 
L 355.992959 76.949905 
L 355.883222 76.690942 
L 355.881972 76.69104 
L 355.83445 76.585256 
L 355.83445 76.583461 
L 355.723463 76.310823 
L 355.675004 76.204799 
L 355.675004 76.203449 
L 355.564017 75.984087 
L 355.516183 75.876835 
L 355.516183 75.876385 
L 355.405196 75.63115 
L 355.362052 75.523705 
L 355.362052 75.523253 
L 355.251065 75.179126 
L 355.198541 75.073819 
L 355.198541 75.072007 
L 355.087554 74.898741 
L 355.013146 74.792941 
L 354.903096 74.636425 
L 354.902158 74.636492 
L 354.830564 74.530678 
L 354.830564 74.530223 
L 354.719577 74.255886 
L 354.661738 74.148755 
L 354.550751 73.920181 
L 354.482283 73.814852 
L 354.482283 73.813938 
L 354.371296 73.587473 
L 354.323462 73.479974 
L 354.323462 73.479516 
L 354.212475 73.228136 
L 354.167142 73.120168 
L 354.056468 72.86071 
L 354.056155 72.860731 
L 354.003632 72.753389 
L 354.003632 72.752929 
L 353.892645 72.601892 
L 353.798853 72.497442 
L 353.798853 72.496982 
L 353.688803 72.379162 
L 353.687866 72.379223 
L 353.610956 72.274355 
L 353.610956 72.272971 
L 353.499969 72.103171 
L 353.392734 71.999015 
L 353.282059 71.843556 
L 353.281746 71.843575 
L 353.205462 71.737181 
L 353.095726 71.600749 
L 353.094475 71.600826 
L 352.998807 71.496297 
L 352.998807 71.495833 
L 352.888758 71.372548 
L 352.88782 71.372605 
L 352.768705 71.268774 
L 352.657717 71.144759 
L 352.561737 71.039707 
L 352.45075 70.891588 
L 352.312563 70.788757 
L 352.201576 70.684166 
L 352.085274 70.581157 
L 352.085274 70.579754 
L 351.975225 70.4945 
L 351.974287 70.494555 
L 351.854233 70.391041 
L 351.854233 70.390573 
L 351.744497 70.302266 
L 351.743246 70.302339 
L 351.543469 70.203162 
L 351.543469 70.202692 
L 351.432482 70.133001 
L 351.267096 70.031547 
L 351.157359 69.959708 
L 351.156108 69.95978 
L 351.013545 69.857218 
L 351.013545 69.856747 
L 350.903183 69.77485 
L 350.902558 69.774885 
L 350.786568 69.6715 
L 350.786568 69.670556 
L 350.676206 69.570972 
L 350.675581 69.571007 
L 350.56053 69.466357 
L 350.449855 69.372684 
L 350.449542 69.372702 
L 350.320422 69.269032 
L 350.320422 69.268559 
L 350.209435 69.179396 
L 350.085004 69.0752 
L 349.974017 68.992451 
L 349.820199 68.890043 
L 349.820199 68.889568 
L 349.709524 68.810382 
L 349.709211 68.810399 
L 349.581967 68.706295 
L 349.473168 68.624419 
L 349.47098 68.624535 
L 349.237438 68.525744 
L 349.127389 68.446557 
L 349.126451 68.446606 
L 348.956687 68.34558 
L 348.956687 68.344624 
L 348.846326 68.28867 
L 348.8457 68.288702 
L 348.585584 68.191095 
L 348.47616 68.123413 
L 348.474597 68.123493 
L 348.315463 68.021335 
L 348.315463 68.020855 
L 348.205414 67.965021 
L 348.204476 67.965068 
L 348.044717 67.862193 
L 347.93373 67.797589 
L 347.714257 67.697419 
L 347.604833 67.632544 
L 347.60327 67.632621 
L 347.411309 67.531726 
L 347.411309 67.531243 
L 347.300947 67.481675 
L 347.300322 67.481706 
L 347.042394 67.383755 
L 347.042394 67.383271 
L 346.87607 67.333858 
L 346.566244 67.23807 
L 346.456194 67.197845 
L 346.455256 67.197891 
L 346.126985 67.102629 
L 346.021 67.06984 
L 346.015998 67.07008 
L 345.674282 66.975584 
L 345.563608 66.945331 
L 345.563295 66.945346 
L 345.281919 66.848103 
L 345.281919 66.847615 
L 345.175622 66.798494 
L 345.170932 66.798716 
L 344.941767 66.69866 
L 344.83078 66.665742 
L 344.429663 66.573407 
L 344.321177 66.551514 
L 344.318676 66.551631 
L 343.903803 66.460031 
L 343.795004 66.426752 
L 343.792816 66.426853 
L 343.407956 66.333941 
L 343.407956 66.333449 
L 343.297594 66.299617 
L 343.296969 66.299645 
L 342.91336 66.206269 
L 342.807375 66.186423 
L 342.803624 66.186594 
L 342.335289 66.097173 
L 342.228366 66.059945 
L 342.224302 66.060129 
L 341.79536 65.968964 
L 341.79536 65.968468 
L 341.685936 65.952549 
L 341.684373 65.952619 
L 341.095985 65.868186 
L 340.986561 65.843712 
L 340.984998 65.843782 
L 340.486963 65.754827 
L 340.377851 65.736715 
L 340.375976 65.736798 
L 339.885444 65.647563 
L 339.777896 65.637799 
L 339.774457 65.637951 
L 339.246408 65.550441 
L 339.138235 65.512018 
L 339.135421 65.512141 
L 338.681155 65.420903 
L 338.570168 65.401576 
L 337.936135 65.318195 
L 337.835465 65.302861 
L 337.825147 65.303308 
L 337.1042 65.223669 
L 336.994776 65.211663 
L 336.993213 65.21173 
L 336.295714 65.131056 
L 336.185039 65.11597 
L 336.184726 65.115984 
L 335.559759 65.031673 
L 335.345289 65.006117 
L 334.4477 64.933318 
L 334.336713 64.927783 
L 333.739571 64.842198 
L 333.59857 64.826044 
L 332.978293 64.74143 
L 332.871057 64.720651 
L 332.867306 64.720808 
L 332.251718 64.635465 
L 332.108216 64.614533 
L 331.543901 64.527034 
L 331.399462 64.504454 
L 330.825768 64.417335 
L 330.715093 64.402091 
L 330.101381 64.31663 
L 329.991332 64.300744 
L 329.990394 64.300782 
L 329.335101 64.216488 
L 329.229429 64.199276 
L 329.224114 64.199492 
L 328.71201 64.109384 
L 328.601023 64.081765 
L 328.13644 63.989775 
L 328.032331 63.979696 
L 328.025453 63.979971 
L 327.39861 63.893996 
L 327.323577 63.885335 
L 327.287623 63.885705 
L 326.449436 63.808104 
L 326.339387 63.797046 
L 326.338449 63.797083 
L 325.326434 63.726254 
L 325.223888 63.715879 
L 325.215446 63.716212 
L 324.158724 63.647008 
L 324.051488 63.637807 
L 324.047737 63.637954 
L 323.035097 63.566879 
L 322.925673 63.553367 
L 322.924109 63.553428 
L 322.177838 63.4718 
L 322.066851 63.457714 
L 321.350281 63.374871 
L 321.253362 63.368842 
L 321.239294 63.369387 
L 320.404858 63.291067 
L 320.266671 63.274557 
L 319.154299 63.206244 
L 319.053003 63.193121 
L 319.043312 63.193494 
L 318.173235 63.11627 
L 318.064749 63.102775 
L 318.062248 63.102871 
L 317.29628 63.021021 
L 317.194672 63.011043 
L 317.185293 63.0114 
L 316.296458 62.934132 
L 316.188285 62.923208 
L 316.185471 62.923315 
L 315.256618 62.847436 
L 315.145631 62.839322 
L 314.24898 62.762116 
L 314.138618 62.749411 
L 314.137993 62.749435 
L 313.350141 62.668047 
L 313.249783 62.653746 
L 313.239466 62.65413 
L 312.317804 62.577602 
L 312.20838 62.560699 
L 312.206817 62.560756 
L 311.336115 62.482194 
L 311.198866 62.464485 
L 310.272827 62.387793 
L 310.139643 62.376656 
L 309.301768 62.296611 
L 309.111058 62.276544 
L 308.09279 62.202847 
L 307.988994 62.195627 
L 307.982116 62.195876 
L 307.113915 62.116625 
L 307.010744 62.108731 
L 307.002928 62.109012 
L 306.86943 62.096394 
L 306.069698 62.014493 
L 305.936826 62.002909 
L 304.9839 61.925753 
L 304.880729 61.91535 
L 304.873538 61.915605 
L 304.076932 61.832776 
L 303.970009 61.821241 
L 303.965945 61.821384 
L 302.884836 61.748419 
L 302.751339 61.734751 
L 301.976618 61.650878 
L 301.870945 61.641477 
L 301.865631 61.641661 
L 301.162191 61.555245 
L 301.022128 61.528438 
L 300.188631 61.446347 
L 300.058885 61.438189 
L 299.133159 61.359115 
L 299.003726 61.351458 
L 297.638115 61.287111 
L 297.467101 61.278338 
L 296.503233 61.200126 
L 296.33003 61.18948 
L 295.300507 61.11326 
L 295.218908 61.10433 
L 295.18952 61.1047 
L 293.983356 61.034163 
L 293.811717 61.023822 
L 292.716852 60.949297 
L 292.39796 60.923796 
L 291.316226 60.848442 
L 291.152403 60.843823 
L 290.158521 60.765988 
L 290.050035 60.760728 
L 290.048159 60.76079 
L 289.006443 60.684332 
L 288.876385 60.672103 
L 287.53516 60.605096 
L 287.43449 60.601345 
L 287.424173 60.60168 
L 286.195186 60.530764 
L 285.747486 60.507949 
L 284.470665 60.438074 
L 284.36593 60.431727 
L 284.35999 60.431918 
L 283.198221 60.358718 
L 283.198221 60.358066 
L 283.087859 60.350514 
L 281.943285 60.276494 
L 281.834799 60.261576 
L 281.832298 60.261655 
L 280.604248 60.189956 
L 280.438237 60.178685 
L 279.09326 60.110311 
L 278.964765 60.097045 
L 277.905229 60.019376 
L 277.777047 60.00797 
L 276.558064 59.934956 
L 276.432383 59.928733 
L 275.144307 59.857532 
L 275.049577 59.847545 
L 275.033945 59.848026 
L 273.921885 59.771762 
L 273.794328 59.760621 
L 272.672264 59.684353 
L 272.512505 59.676123 
L 271.33823 59.601116 
L 271.237247 59.593763 
L 271.227243 59.594065 
L 269.975746 59.521057 
L 269.871949 59.515788 
L 269.865071 59.515994 
L 268.621703 59.442408 
L 268.518219 59.43705 
L 268.510716 59.437273 
L 267.36239 59.360539 
L 267.198879 59.345537 
L 266.056181 59.268247 
L 265.929249 59.25413 
L 264.884094 59.173637 
L 264.783424 59.164349 
L 264.773107 59.164647 
L 263.81768 59.081288 
L 263.691686 59.070453 
L 262.620582 58.99011 
L 262.513034 58.975709 
L 262.509907 58.975798 
L 261.525405 58.892677 
L 261.425985 58.883025 
L 261.414418 58.883349 
L 260.134783 58.808144 
L 260.01004 58.797599 
L 258.822634 58.720146 
L 258.621294 58.705622 
L 257.389493 58.628914 
L 257.279444 58.619928 
L 257.278506 58.619954 
L 257.120935 58.6055 
L 255.991055 58.525458 
L 255.838174 58.515977 
L 254.834288 58.432184 
L 254.685471 58.427776 
L 253.422406 58.350504 
L 253.236073 58.344679 
L 251.624728 58.276041 
L 251.50061 58.265348 
L 250.098733 58.191402 
L 249.950541 58.183523 
L 248.271978 58.116155 
L 248.162554 58.111869 
L 248.160991 58.111909 
L 246.925751 58.033368 
L 246.835086 58.026923 
L 246.815077 58.027434 
L 245.667064 57.94624 
L 245.476666 57.932576 
L 244.404624 57.84899 
L 244.297389 57.841139 
L 244.293637 57.841232 
L 243.311323 57.755067 
L 243.056209 57.726258 
L 242.048883 57.640162 
L 241.925703 57.629157 
L 240.784568 57.54584 
L 240.557904 57.532976 
L 239.360181 57.45042 
L 239.238877 57.443219 
L 238.061475 57.359688 
L 237.93892 57.348177 
L 236.744949 57.264478 
L 236.6349 57.253365 
L 236.633962 57.253386 
L 235.311496 57.171974 
L 235.21614 57.164656 
L 235.200508 57.165002 
L 233.790816 57.085728 
L 233.588538 57.083217 
L 231.76616 57.01216 
L 231.619845 56.999536 
L 230.107606 56.921734 
L 229.931277 56.909524 
L 228.572857 56.827635 
L 228.451553 56.816732 
L 227.063432 56.735613 
L 226.993401 56.728906 
L 226.952445 56.729746 
L 225.478661 56.64964 
L 225.300457 56.633099 
L 224.214346 56.544408 
L 224.093354 56.533863 
L 222.947529 56.445767 
L 222.7415 56.432945 
L 221.63538 56.343418 
L 221.514701 56.332508 
L 220.334799 56.243719 
L 220.228189 56.23332 
L 220.224124 56.233394 
L 218.937924 56.145803 
L 218.799425 56.137706 
L 217.37535 56.051689 
L 217.253733 56.036334 
L 215.722736 55.952069 
L 215.601745 55.937412 
L 214.481556 55.846381 
L 214.481556 55.845391 
L 214.362128 55.835433 
L 212.997455 55.746532 
L 212.878027 55.736378 
L 211.648727 55.644476 
L 211.509602 55.631389 
L 209.80978 55.546409 
L 209.692227 55.538882 
L 208.149975 55.450381 
L 208.031485 55.441647 
L 206.803123 55.347725 
L 206.66775 55.337981 
L 205.43126 55.244297 
L 205.311206 55.229901 
L 203.78271 55.13875 
L 203.650151 55.131745 
L 202.181056 55.038612 
L 202.030676 55.034884 
L 200.482797 54.942454 
L 200.366495 54.938192 
L 197.261669 54.861597 
L 197.144116 54.852624 
L 195.499631 54.759624 
L 195.39771 54.757169 
L 195.388644 54.757257 
L 193.742595 54.662727 
L 193.59628 54.65822 
L 192.199718 54.559926 
L 192.082478 54.550254 
L 190.67685 54.451812 
L 190.546479 54.441999 
L 188.761931 54.344639 
L 188.634374 54.339399 
L 186.597525 54.24271 
L 186.470281 54.236004 
L 183.216326 54.144342 
L 183.100649 54.138535 
L 179.117931 54.048192 
L 167.916672 53.988988 
L 167.795993 53.988035 
L 159.436943 53.914255 
L 152.416616 53.832616 
L 152.254044 53.831374 
L 136.361312 53.774754 
L 136.15622 53.764165 
L 122.731155 53.697341 
L 122.472289 53.69514 
L 101.642975 53.638762 
L 101.522609 53.633994 
L 78.037733 53.601431 
L 77.900484 53.568 
L 73.832727 53.568 
L 73.832727 53.568 
" clip-path="url(#p064fbeab93)" style="fill: none; stroke: #1f77b4; stroke-width: 1.5; stroke-linecap: square"/>
   </g>
   <g id="patch_3">
    <path d="M 57.6 307.584 
L 57.6 41.472 
" style="fill: none; stroke: #000000; stroke-width: 0.8; stroke-linejoin: miter; stroke-linecap: square"/>
   </g>
   <g id="patch_4">
    <path d="M 414.72 307.584 
L 414.72 41.472 
" style="fill: none; stroke: #000000; stroke-width: 0.8; stroke-linejoin: miter; stroke-linecap: square"/>
   </g>
   <g id="patch_5">
    <path d="M 57.6 307.584 
L 414.72 307.584 
" style="fill: none; stroke: #000000; stroke-width: 0.8; stroke-linejoin: miter; stroke-linecap: square"/>
   </g>
   <g id="patch_6">
    <path d="M 57.6 41.472 
L 414.72 41.472 
" style="fill: none; stroke: #000000; stroke-width: 0.8; stroke-linejoin: miter; stroke-linecap: square"/>
   </g>
   <g id="text_13">
    <!-- Precision Recall -->
    <g transform="translate(189.584063 35.472) scale(0.12 -0.12)">
     <defs>
      <path id="DejaVuSans-50" d="M 1259 4147 
L 1259 2394 
L 2053 2394 
Q 2494 2394 2734 2622 
Q 2975 2850 2975 3272 
Q 2975 3691 2734 3919 
Q 2494 4147 2053 4147 
L 1259 4147 
z
M 628 4666 
L 2053 4666 
Q 2838 4666 3239 4311 
Q 3641 3956 3641 3272 
Q 3641 2581 3239 2228 
Q 2838 1875 2053 1875 
L 1259 1875 
L 1259 0 
L 628 0 
L 628 4666 
z
" transform="scale(0.015625)"/>
      <path id="DejaVuSans-72" d="M 2631 2963 
Q 2534 3019 2420 3045 
Q 2306 3072 2169 3072 
Q 1681 3072 1420 2755 
Q 1159 2438 1159 1844 
L 1159 0 
L 581 0 
L 581 3500 
L 1159 3500 
L 1159 2956 
Q 1341 3275 1631 3429 
Q 1922 3584 2338 3584 
Q 2397 3584 2469 3576 
Q 2541 3569 2628 3553 
L 2631 2963 
z
" transform="scale(0.015625)"/>
      <path id="DejaVuSans-65" d="M 3597 1894 
L 3597 1613 
L 953 1613 
Q 991 1019 1311 708 
Q 1631 397 2203 397 
Q 2534 397 2845 478 
Q 3156 559 3463 722 
L 3463 178 
Q 3153 47 2828 -22 
Q 2503 -91 2169 -91 
Q 1331 -91 842 396 
Q 353 884 353 1716 
Q 353 2575 817 3079 
Q 1281 3584 2069 3584 
Q 2775 3584 3186 3129 
Q 3597 2675 3597 1894 
z
M 3022 2063 
Q 3016 2534 2758 2815 
Q 2500 3097 2075 3097 
Q 1594 3097 1305 2825 
Q 1016 2553 972 2059 
L 3022 2063 
z
" transform="scale(0.015625)"/>
      <path id="DejaVuSans-63" d="M 3122 3366 
L 3122 2828 
Q 2878 2963 2633 3030 
Q 2388 3097 2138 3097 
Q 1578 3097 1268 2742 
Q 959 2388 959 1747 
Q 959 1106 1268 751 
Q 1578 397 2138 397 
Q 2388 397 2633 464 
Q 2878 531 3122 666 
L 3122 134 
Q 2881 22 2623 -34 
Q 2366 -91 2075 -91 
Q 1284 -91 818 406 
Q 353 903 353 1747 
Q 353 2603 823 3093 
Q 1294 3584 2113 3584 
Q 2378 3584 2631 3529 
Q 2884 3475 3122 3366 
z
" transform="scale(0.015625)"/>
      <path id="DejaVuSans-69" d="M 603 3500 
L 1178 3500 
L 1178 0 
L 603 0 
L 603 3500 
z
M 603 4863 
L 1178 4863 
L 1178 4134 
L 603 4134 
L 603 4863 
z
" transform="scale(0.015625)"/>
      <path id="DejaVuSans-73" d="M 2834 3397 
L 2834 2853 
Q 2591 2978 2328 3040 
Q 2066 3103 1784 3103 
Q 1356 3103 1142 2972 
Q 928 2841 928 2578 
Q 928 2378 1081 2264 
Q 1234 2150 1697 2047 
L 1894 2003 
Q 2506 1872 2764 1633 
Q 3022 1394 3022 966 
Q 3022 478 2636 193 
Q 2250 -91 1575 -91 
Q 1294 -91 989 -36 
Q 684 19 347 128 
L 347 722 
Q 666 556 975 473 
Q 1284 391 1588 391 
Q 1994 391 2212 530 
Q 2431 669 2431 922 
Q 2431 1156 2273 1281 
Q 2116 1406 1581 1522 
L 1381 1569 
Q 847 1681 609 1914 
Q 372 2147 372 2553 
Q 372 3047 722 3315 
Q 1072 3584 1716 3584 
Q 2034 3584 2315 3537 
Q 2597 3491 2834 3397 
z
" transform="scale(0.015625)"/>
      <path id="DejaVuSans-6f" d="M 1959 3097 
Q 1497 3097 1228 2736 
Q 959 2375 959 1747 
Q 959 1119 1226 758 
Q 1494 397 1959 397 
Q 2419 397 2687 759 
Q 2956 1122 2956 1747 
Q 2956 2369 2687 2733 
Q 2419 3097 1959 3097 
z
M 1959 3584 
Q 2709 3584 3137 3096 
Q 3566 2609 3566 1747 
Q 3566 888 3137 398 
Q 2709 -91 1959 -91 
Q 1206 -91 779 398 
Q 353 888 353 1747 
Q 353 2609 779 3096 
Q 1206 3584 1959 3584 
z
" transform="scale(0.015625)"/>
      <path id="DejaVuSans-6e" d="M 3513 2113 
L 3513 0 
L 2938 0 
L 2938 2094 
Q 2938 2591 2744 2837 
Q 2550 3084 2163 3084 
Q 1697 3084 1428 2787 
Q 1159 2491 1159 1978 
L 1159 0 
L 581 0 
L 581 3500 
L 1159 3500 
L 1159 2956 
Q 1366 3272 1645 3428 
Q 1925 3584 2291 3584 
Q 2894 3584 3203 3211 
Q 3513 2838 3513 2113 
z
" transform="scale(0.015625)"/>
      <path id="DejaVuSans-20" transform="scale(0.015625)"/>
      <path id="DejaVuSans-52" d="M 2841 2188 
Q 3044 2119 3236 1894 
Q 3428 1669 3622 1275 
L 4263 0 
L 3584 0 
L 2988 1197 
Q 2756 1666 2539 1819 
Q 2322 1972 1947 1972 
L 1259 1972 
L 1259 0 
L 628 0 
L 628 4666 
L 2053 4666 
Q 2853 4666 3247 4331 
Q 3641 3997 3641 3322 
Q 3641 2881 3436 2590 
Q 3231 2300 2841 2188 
z
M 1259 4147 
L 1259 2491 
L 2053 2491 
Q 2509 2491 2742 2702 
Q 2975 2913 2975 3322 
Q 2975 3731 2742 3939 
Q 2509 4147 2053 4147 
L 1259 4147 
z
" transform="scale(0.015625)"/>
      <path id="DejaVuSans-61" d="M 2194 1759 
Q 1497 1759 1228 1600 
Q 959 1441 959 1056 
Q 959 750 1161 570 
Q 1363 391 1709 391 
Q 2188 391 2477 730 
Q 2766 1069 2766 1631 
L 2766 1759 
L 2194 1759 
z
M 3341 1997 
L 3341 0 
L 2766 0 
L 2766 531 
Q 2569 213 2275 61 
Q 1981 -91 1556 -91 
Q 1019 -91 701 211 
Q 384 513 384 1019 
Q 384 1609 779 1909 
Q 1175 2209 1959 2209 
L 2766 2209 
L 2766 2266 
Q 2766 2663 2505 2880 
Q 2244 3097 1772 3097 
Q 1472 3097 1187 3025 
Q 903 2953 641 2809 
L 641 3341 
Q 956 3463 1253 3523 
Q 1550 3584 1831 3584 
Q 2591 3584 2966 3190 
Q 3341 2797 3341 1997 
z
" transform="scale(0.015625)"/>
      <path id="DejaVuSans-6c" d="M 603 4863 
L 1178 4863 
L 1178 0 
L 603 0 
L 603 4863 
z
" transform="scale(0.015625)"/>
     </defs>
     <use xlink:href="#DejaVuSans-50"/>
     <use xlink:href="#DejaVuSans-72" transform="translate(58.552734 0)"/>
     <use xlink:href="#DejaVuSans-65" transform="translate(97.416016 0)"/>
     <use xlink:href="#DejaVuSans-63" transform="translate(158.939453 0)"/>
     <use xlink:href="#DejaVuSans-69" transform="translate(213.919922 0)"/>
     <use xlink:href="#DejaVuSans-73" transform="translate(241.703125 0)"/>
     <use xlink:href="#DejaVuSans-69" transform="translate(293.802734 0)"/>
     <use xlink:href="#DejaVuSans-6f" transform="translate(321.585938 0)"/>
     <use xlink:href="#DejaVuSans-6e" transform="translate(382.767578 0)"/>
     <use xlink:href="#DejaVuSans-20" transform="translate(446.146484 0)"/>
     <use xlink:href="#DejaVuSans-52" transform="translate(477.933594 0)"/>
     <use xlink:href="#DejaVuSans-65" transform="translate(542.916016 0)"/>
     <use xlink:href="#DejaVuSans-63" transform="translate(604.439453 0)"/>
     <use xlink:href="#DejaVuSans-61" transform="translate(659.419922 0)"/>
     <use xlink:href="#DejaVuSans-6c" transform="translate(720.699219 0)"/>
     <use xlink:href="#DejaVuSans-6c" transform="translate(748.482422 0)"/>
    </g>
   </g>
  </g>
 </g>
 <defs>
  <clipPath id="p064fbeab93">
   <rect x="57.6" y="41.472" width="357.12" height="266.112"/>
  </clipPath>
 </defs>
</svg>
