<?xml version="1.0" encoding="utf-8" standalone="no"?>
<!DOCTYPE svg PUBLIC "-//W3C//DTD SVG 1.1//EN"
  "http://www.w3.org/Graphics/SVG/1.1/DTD/svg11.dtd">
<svg xmlns:xlink="http://www.w3.org/1999/xlink" width="460.8pt" height="345.6pt" viewBox="0 0 460.8 345.6" xmlns="http://www.w3.org/2000/svg" version="1.1">
 <metadata>
  <rdf:RDF xmlns:dc="http://purl.org/dc/elements/1.1/" xmlns:cc="http://creativecommons.org/ns#" xmlns:rdf="http://www.w3.org/1999/02/22-rdf-syntax-ns#">
   <cc:Work>
    <dc:type rdf:resource="http://purl.org/dc/dcmitype/StillImage"/>
    <dc:date>2026-03-17T02:05:26.644392</dc:date>
    <dc:format>image/svg+xml</dc:format>
    <dc:creator>
     <cc:Agent>
      <dc:title>Matplotlib v3.10.8, https://matplotlib.org/</dc:title>
     </cc:Agent>
    </dc:creator>
   </cc:Work>
  </rdf:RDF>
 </metadata>
 <defs>
  <style type="text/css">*{stroke-linejoin: round; stroke-linecap: butt}</style>
 </defs>
 <g id="figure_1">
  <g id="patch_1">
   <path d="M 0 345.6 
L 460.8 345.6 
L 460.8 0 
L 0 0 
z
" style="fill: #ffffff"/>
  </g>
  <g id="axes_1">
   <g id="patch_2">
    <path d="M 57.6 307.584 
L 414.72 307.584 
L 414.72 41.472 
L 57.6 41.472 
z
" style="fill: #ffffff"/>
   </g>
   <g id="matplotlib.axis_1">
    <g id="xtick_1">
     <g id="line2d_1">
      <defs>
       <path id="mc282b7d1f2" d="M 0 0 
L 0 3.5 
" style="stroke: #000000; stroke-width: 0.8"/>
      </defs>
      <g>
       <use xlink:href="#mc282b7d1f2" x="73.832727" y="307.584" style="stroke: #000000; stroke-width: 0.8"/>
      </g>
     </g>
     <g id="text_1">
      <!-- 0.0 -->
      <g transform="translate(65.881165 322.182437) scale(0.1 -0.1)">
       <defs>
        <path id="DejaVuSans-30" d="M 2034 4250 
Q 1547 4250 1301 3770 
Q 1056 3291 1056 2328 
Q 1056 1369 1301 889 
Q 1547 409 2034 409 
Q 2525 409 2770 889 
Q 3016 1369 3016 2328 
Q 3016 3291 2770 3770 
Q 2525 4250 2034 4250 
z
M 2034 4750 
Q 2819 4750 3233 4129 
Q 3647 3509 3647 2328 
Q 3647 1150 3233 529 
Q 2819 -91 2034 -91 
Q 1250 -91 836 529 
Q 422 1150 422 2328 
Q 422 3509 836 4129 
Q 1250 4750 2034 4750 
z
" transform="scale(0.015625)"/>
        <path id="DejaVuSans-2e" d="M 684 794 
L 1344 794 
L 1344 0 
L 684 0 
L 684 794 
z
" transform="scale(0.015625)"/>
       </defs>
       <use xlink:href="#DejaVuSans-30"/>
       <use xlink:href="#DejaVuSans-2e" transform="translate(63.623047 0)"/>
       <use xlink:href="#DejaVuSans-30" transform="translate(95.410156 0)"/>
      </g>
     </g>
    </g>
    <g id="xtick_2">
     <g id="line2d_2">
      <g>
       <use xlink:href="#mc282b7d1f2" x="138.763636" y="307.584" style="stroke: #000000; stroke-width: 0.8"/>
      </g>
     </g>
     <g id="text_2">
      <!-- 0.2 -->
      <g transform="translate(130.812074 322.182437) scale(0.1 -0.1)">
       <defs>
        <path id="DejaVuSans-32" d="M 1228 531 
L 3431 531 
L 3431 0 
L 469 0 
L 469 531 
Q 828 903 1448 1529 
Q 2069 2156 2228 2338 
Q 2531 2678 2651 2914 
Q 2772 3150 2772 3378 
Q 2772 3750 2511 3984 
Q 2250 4219 1831 4219 
Q 1534 4219 1204 4116 
Q 875 4013 500 3803 
L 500 4441 
Q 881 4594 1212 4672 
Q 1544 4750 1819 4750 
Q 2544 4750 2975 4387 
Q 3406 4025 3406 3419 
Q 3406 3131 3298 2873 
Q 3191 2616 2906 2266 
Q 2828 2175 2409 1742 
Q 1991 1309 1228 531 
z
" transform="scale(0.015625)"/>
       </defs>
       <use xlink:href="#DejaVuSans-30"/>
       <use xlink:href="#DejaVuSans-2e" transform="translate(63.623047 0)"/>
       <use xlink:href="#DejaVuSans-32" transform="translate(95.410156 0)"/>
      </g>
     </g>
    </g>
    <g id="xtick_3">
     <g id="line2d_3">
      <g>
       <use xlink:href="#mc282b7d1f2" x="203.694545" y="307.584" style="stroke: #000000; stroke-width: 0.8"/>
      </g>
     </g>
     <g id="text_3">
      <!-- 0.4 -->
      <g transform="translate(195.742983 322.182437) scale(0.1 -0.1)">
       <defs>
        <path id="DejaVuSans-34" d="M 2419 4116 
L 825 1625 
L 2419 1625 
L 2419 4116 
z
M 2253 4666 
L 3047 4666 
L 3047 1625 
L 3713 1625 
L 3713 1100 
L 3047 1100 
L 3047 0 
L 2419 0 
L 2419 1100 
L 313 1100 
L 313 1709 
L 2253 4666 
z
" transform="scale(0.015625)"/>
       </defs>
       <use xlink:href="#DejaVuSans-30"/>
       <use xlink:href="#DejaVuSans-2e" transform="translate(63.623047 0)"/>
       <use xlink:href="#DejaVuSans-34" transform="translate(95.410156 0)"/>
      </g>
     </g>
    </g>
    <g id="xtick_4">
     <g id="line2d_4">
      <g>
       <use xlink:href="#mc282b7d1f2" x="268.625455" y="307.584" style="stroke: #000000; stroke-width: 0.8"/>
      </g>
     </g>
     <g id="text_4">
      <!-- 0.6 -->
      <g transform="translate(260.673892 322.182437) scale(0.1 -0.1)">
       <defs>
        <path id="DejaVuSans-36" d="M 2113 2584 
Q 1688 2584 1439 2293 
Q 1191 2003 1191 1497 
Q 1191 994 1439 701 
Q 1688 409 2113 409 
Q 2538 409 2786 701 
Q 3034 994 3034 1497 
Q 3034 2003 2786 2293 
Q 2538 2584 2113 2584 
z
M 3366 4563 
L 3366 3988 
Q 3128 4100 2886 4159 
Q 2644 4219 2406 4219 
Q 1781 4219 1451 3797 
Q 1122 3375 1075 2522 
Q 1259 2794 1537 2939 
Q 1816 3084 2150 3084 
Q 2853 3084 3261 2657 
Q 3669 2231 3669 1497 
Q 3669 778 3244 343 
Q 2819 -91 2113 -91 
Q 1303 -91 875 529 
Q 447 1150 447 2328 
Q 447 3434 972 4092 
Q 1497 4750 2381 4750 
Q 2619 4750 2861 4703 
Q 3103 4656 3366 4563 
z
" transform="scale(0.015625)"/>
       </defs>
       <use xlink:href="#DejaVuSans-30"/>
       <use xlink:href="#DejaVuSans-2e" transform="translate(63.623047 0)"/>
       <use xlink:href="#DejaVuSans-36" transform="translate(95.410156 0)"/>
      </g>
     </g>
    </g>
    <g id="xtick_5">
     <g id="line2d_5">
      <g>
       <use xlink:href="#mc282b7d1f2" x="333.556364" y="307.584" style="stroke: #000000; stroke-width: 0.8"/>
      </g>
     </g>
     <g id="text_5">
      <!-- 0.8 -->
      <g transform="translate(325.604801 322.182437) scale(0.1 -0.1)">
       <defs>
        <path id="DejaVuSans-38" d="M 2034 2216 
Q 1584 2216 1326 1975 
Q 1069 1734 1069 1313 
Q 1069 891 1326 650 
Q 1584 409 2034 409 
Q 2484 409 2743 651 
Q 3003 894 3003 1313 
Q 3003 1734 2745 1975 
Q 2488 2216 2034 2216 
z
M 1403 2484 
Q 997 2584 770 2862 
Q 544 3141 544 3541 
Q 544 4100 942 4425 
Q 1341 4750 2034 4750 
Q 2731 4750 3128 4425 
Q 3525 4100 3525 3541 
Q 3525 3141 3298 2862 
Q 3072 2584 2669 2484 
Q 3125 2378 3379 2068 
Q 3634 1759 3634 1313 
Q 3634 634 3220 271 
Q 2806 -91 2034 -91 
Q 1263 -91 848 271 
Q 434 634 434 1313 
Q 434 1759 690 2068 
Q 947 2378 1403 2484 
z
M 1172 3481 
Q 1172 3119 1398 2916 
Q 1625 2713 2034 2713 
Q 2441 2713 2670 2916 
Q 2900 3119 2900 3481 
Q 2900 3844 2670 4047 
Q 2441 4250 2034 4250 
Q 1625 4250 1398 4047 
Q 1172 3844 1172 3481 
z
" transform="scale(0.015625)"/>
       </defs>
       <use xlink:href="#DejaVuSans-30"/>
       <use xlink:href="#DejaVuSans-2e" transform="translate(63.623047 0)"/>
       <use xlink:href="#DejaVuSans-38" transform="translate(95.410156 0)"/>
      </g>
     </g>
    </g>
    <g id="xtick_6">
     <g id="line2d_6">
      <g>
       <use xlink:href="#mc282b7d1f2" x="398.487273" y="307.584" style="stroke: #000000; stroke-width: 0.8"/>
      </g>
     </g>
     <g id="text_6">
      <!-- 1.0 -->
      <g transform="translate(390.53571 322.182437) scale(0.1 -0.1)">
       <defs>
        <path id="DejaVuSans-31" d="M 794 531 
L 1825 531 
L 1825 4091 
L 703 3866 
L 703 4441 
L 1819 4666 
L 2450 4666 
L 2450 531 
L 3481 531 
L 3481 0 
L 794 0 
L 794 531 
z
" transform="scale(0.015625)"/>
       </defs>
       <use xlink:href="#DejaVuSans-31"/>
       <use xlink:href="#DejaVuSans-2e" transform="translate(63.623047 0)"/>
       <use xlink:href="#DejaVuSans-30" transform="translate(95.410156 0)"/>
      </g>
     </g>
    </g>
   </g>
   <g id="matplotlib.axis_2">
    <g id="ytick_1">
     <g id="line2d_7">
      <defs>
       <path id="m4cc3424cb5" d="M 0 0 
L -3.5 0 
" style="stroke: #000000; stroke-width: 0.8"/>
      </defs>
      <g>
       <use xlink:href="#m4cc3424cb5" x="57.6" y="295.488" style="stroke: #000000; stroke-width: 0.8"/>
      </g>
     </g>
     <g id="text_7">
      <!-- 0.0 -->
      <g transform="translate(34.696875 299.287219) scale(0.1 -0.1)">
       <use xlink:href="#DejaVuSans-30"/>
       <use xlink:href="#DejaVuSans-2e" transform="translate(63.623047 0)"/>
       <use xlink:href="#DejaVuSans-30" transform="translate(95.410156 0)"/>
      </g>
     </g>
    </g>
    <g id="ytick_2">
     <g id="line2d_8">
      <g>
       <use xlink:href="#m4cc3424cb5" x="57.6" y="247.104" style="stroke: #000000; stroke-width: 0.8"/>
      </g>
     </g>
     <g id="text_8">
      <!-- 0.2 -->
      <g transform="translate(34.696875 250.903219) scale(0.1 -0.1)">
       <use xlink:href="#DejaVuSans-30"/>
       <use xlink:href="#DejaVuSans-2e" transform="translate(63.623047 0)"/>
       <use xlink:href="#DejaVuSans-32" transform="translate(95.410156 0)"/>
      </g>
     </g>
    </g>
    <g id="ytick_3">
     <g id="line2d_9">
      <g>
       <use xlink:href="#m4cc3424cb5" x="57.6" y="198.72" style="stroke: #000000; stroke-width: 0.8"/>
      </g>
     </g>
     <g id="text_9">
      <!-- 0.4 -->
      <g transform="translate(34.696875 202.519219) scale(0.1 -0.1)">
       <use xlink:href="#DejaVuSans-30"/>
       <use xlink:href="#DejaVuSans-2e" transform="translate(63.623047 0)"/>
       <use xlink:href="#DejaVuSans-34" transform="translate(95.410156 0)"/>
      </g>
     </g>
    </g>
    <g id="ytick_4">
     <g id="line2d_10">
      <g>
       <use xlink:href="#m4cc3424cb5" x="57.6" y="150.336" style="stroke: #000000; stroke-width: 0.8"/>
      </g>
     </g>
     <g id="text_10">
      <!-- 0.6 -->
      <g transform="translate(34.696875 154.135219) scale(0.1 -0.1)">
       <use xlink:href="#DejaVuSans-30"/>
       <use xlink:href="#DejaVuSans-2e" transform="translate(63.623047 0)"/>
       <use xlink:href="#DejaVuSans-36" transform="translate(95.410156 0)"/>
      </g>
     </g>
    </g>
    <g id="ytick_5">
     <g id="line2d_11">
      <g>
       <use xlink:href="#m4cc3424cb5" x="57.6" y="101.952" style="stroke: #000000; stroke-width: 0.8"/>
      </g>
     </g>
     <g id="text_11">
      <!-- 0.8 -->
      <g transform="translate(34.696875 105.751219) scale(0.1 -0.1)">
       <use xlink:href="#DejaVuSans-30"/>
       <use xlink:href="#DejaVuSans-2e" transform="translate(63.623047 0)"/>
       <use xlink:href="#DejaVuSans-38" transform="translate(95.410156 0)"/>
      </g>
     </g>
    </g>
    <g id="ytick_6">
     <g id="line2d_12">
      <g>
       <use xlink:href="#m4cc3424cb5" x="57.6" y="53.568" style="stroke: #000000; stroke-width: 0.8"/>
      </g>
     </g>
     <g id="text_12">
      <!-- 1.0 -->
      <g transform="translate(34.696875 57.367219) scale(0.1 -0.1)">
       <use xlink:href="#DejaVuSans-31"/>
       <use xlink:href="#DejaVuSans-2e" transform="translate(63.623047 0)"/>
       <use xlink:href="#DejaVuSans-30" transform="translate(95.410156 0)"/>
      </g>
     </g>
    </g>
   </g>
   <g id="line2d_13">
    <path d="M 73.832727 295.488 
L 73.943613 214.770267 
L 73.948714 214.351392 
L 74.0596 207.175773 
L 74.061747 207.080489 
L 74.061747 207.06558 
L 74.172633 200.832545 
L 74.176392 200.728409 
L 74.176392 200.721886 
L 74.287277 196.372857 
L 74.289962 196.223525 
L 74.400848 192.219054 
L 74.405681 192.068091 
L 74.516566 188.533981 
L 74.524889 188.297286 
L 74.635506 184.872903 
L 74.635775 184.872903 
L 74.656985 184.398349 
L 74.767871 181.288006 
L 74.770019 181.177113 
L 74.880904 177.750168 
L 74.884932 177.599904 
L 74.995817 173.968646 
L 75.000113 173.864277 
L 75.000113 173.857754 
L 75.110998 171.107344 
L 75.115831 170.996685 
L 75.226717 168.652337 
L 75.23316 168.543076 
L 75.23316 168.541678 
L 75.344046 165.975313 
L 75.350758 165.865352 
L 75.350758 165.864653 
L 75.461644 162.595892 
L 75.467282 162.444464 
L 75.578167 159.719215 
L 75.584074 159.567087 
L 75.69496 157.157742 
L 75.70194 157.004683 
L 75.812826 154.774722 
L 75.817122 154.625157 
L 75.928007 152.667767 
L 75.934182 152.562466 
L 75.934182 152.556875 
L 76.045068 150.362791 
L 76.053123 150.251899 
L 76.164008 147.777789 
L 76.172063 147.62403 
L 76.282948 145.492847 
L 76.289392 145.384751 
L 76.289392 145.382188 
L 76.400277 143.196491 
L 76.408064 143.042733 
L 76.518949 140.679748 
L 76.527541 140.570952 
L 76.527541 140.569088 
L 76.638426 138.549497 
L 76.645407 138.438604 
L 76.756024 136.116855 
L 76.756292 136.116855 
L 76.763005 135.96496 
L 76.87389 133.921839 
L 76.883019 133.814208 
L 76.883019 133.811179 
L 76.993904 131.954665 
L 76.9982 131.867535 
L 76.9982 131.843772 
L 77.109086 130.000537 
L 77.117409 129.846313 
L 77.228294 127.864695 
L 77.23608 127.753802 
L 77.346697 126.218549 
L 77.366566 126.054308 
L 77.396636 125.780338 
L 77.507522 124.354347 
L 77.515308 124.200589 
L 77.625925 122.763648 
L 77.63559 122.655551 
L 77.63559 122.652755 
L 77.746476 121.220241 
L 77.758021 121.113542 
L 77.758021 121.109349 
L 77.868907 119.615331 
L 77.890654 119.358834 
L 78.00154 117.965458 
L 78.014695 117.807273 
L 78.041813 117.53773 
L 78.152698 116.216108 
L 78.168271 116.055827 
L 78.279156 114.593725 
L 78.2856 114.490288 
L 78.2856 114.483299 
L 78.396485 113.291672 
L 78.409373 113.182411 
L 78.409373 113.181479 
L 78.520258 111.665329 
L 78.529655 111.561892 
L 78.529655 111.554437 
L 78.640541 110.376322 
L 78.65316 110.27405 
L 78.65316 110.26776 
L 78.764045 108.926335 
L 78.772905 108.817074 
L 78.772905 108.815443 
L 78.883791 107.283219 
L 78.895067 107.173025 
L 78.895067 107.172559 
L 79.005953 106.083438 
L 79.016155 105.974642 
L 79.127041 105.31022 
L 79.141539 105.201425 
L 79.141539 105.200493 
L 79.252425 104.260937 
L 79.274172 104.097627 
L 79.385058 103.265934 
L 79.401167 103.157139 
L 79.401167 103.155741 
L 79.512053 102.304712 
L 79.528699 102.194053 
L 79.639584 101.193459 
L 79.651666 101.083732 
L 79.762552 100.060074 
L 79.77705 99.952444 
L 79.77705 99.949182 
L 79.887936 98.951617 
L 79.901629 98.843054 
L 79.901629 98.840725 
L 80.012514 97.98061 
L 80.032651 97.871815 
L 80.143536 97.208557 
L 80.159109 97.098597 
L 80.269457 96.426487 
L 80.290668 96.316526 
L 80.401553 95.568236 
L 80.426523 95.458509 
L 80.537408 94.877722 
L 80.562915 94.766829 
L 80.6738 94.258029 
L 80.697695 94.147603 
L 80.808581 93.592675 
L 80.83006 93.482482 
L 80.940946 93.17217 
L 80.97209 93.061278 
L 81.082976 92.611884 
L 81.110898 92.500992 
L 81.221784 92.090737 
L 81.251049 91.980543 
L 81.361398 91.627831 
L 81.411873 91.517638 
L 81.522759 91.242038 
L 81.575114 91.131611 
L 81.686 90.894917 
L 81.747752 90.784024 
L 81.858369 90.478837 
L 81.912872 90.368411 
L 81.912872 90.367945 
L 82.023489 90.107954 
L 82.090342 89.997062 
L 82.201228 89.819308 
L 82.264054 89.708881 
L 82.374671 89.534156 
L 82.449848 89.423264 
L 82.560733 89.256692 
L 82.646649 89.1458 
L 82.757535 88.968512 
L 82.828684 88.858086 
L 82.828684 88.85762 
L 82.939301 88.650512 
L 82.9981 88.539853 
L 83.10818 88.318068 
L 83.190874 88.207408 
L 83.301492 88.046894 
L 83.378816 87.936002 
L 83.489702 87.803444 
L 83.598171 87.692551 
L 83.707982 87.549975 
L 83.805175 87.439083 
L 83.91606 87.321202 
L 84.048962 87.210542 
L 84.159042 87.090564 
L 84.295434 86.979672 
L 84.406051 86.858063 
L 84.516668 86.747404 
L 84.627285 86.673087 
L 84.838048 86.562428 
L 84.948397 86.499993 
L 85.14842 86.389333 
L 85.258769 86.311988 
L 85.434897 86.203193 
L 85.545245 86.142854 
L 85.713587 86.032195 
L 85.822862 85.93598 
L 85.969188 85.825087 
L 86.078462 85.766147 
L 86.330841 85.655254 
L 86.440653 85.600274 
L 86.628326 85.489382 
L 86.739211 85.430441 
L 86.95776 85.320248 
L 86.95776 85.319782 
L 87.068646 85.262938 
L 87.281825 85.152977 
L 87.392711 85.102423 
L 87.642673 84.991531 
L 87.75329 84.937017 
L 87.930492 84.826124 
L 88.041378 84.764854 
L 88.286239 84.653962 
L 88.39605 84.61925 
L 88.397124 84.61925 
L 88.621043 84.50859 
L 88.731929 84.458968 
L 89.002833 84.348076 
L 89.113718 84.298221 
L 89.368514 84.187329 
L 89.479131 84.136309 
L 89.721038 84.025417 
L 89.831924 83.978357 
L 90.065508 83.867465 
L 90.176394 83.803399 
L 90.388231 83.692507 
L 90.498579 83.634731 
L 90.691085 83.524071 
L 90.798212 83.475381 
L 91.004142 83.364955 
L 91.113417 83.309742 
L 91.114759 83.309742 
L 91.328207 83.198849 
L 91.706507 83.017368 
L 91.945729 82.906476 
L 92.056346 82.857553 
L 92.296106 82.74666 
L 92.406455 82.689583 
L 92.643261 82.57939 
L 92.752267 82.516023 
L 92.754146 82.516023 
L 92.95766 82.405596 
L 93.067472 82.344559 
L 93.298372 82.233667 
L 93.408183 82.176124 
L 93.624047 82.065232 
L 93.734933 82.008388 
L 93.945159 81.897495 
L 94.054971 81.839952 
L 94.289361 81.729293 
L 94.400246 81.679671 
L 94.67303 81.568779 
L 94.783647 81.522418 
L 95.077104 81.411526 
L 95.18799 81.362603 
L 95.462384 81.251711 
L 95.57327 81.205816 
L 95.852766 81.094924 
L 95.962846 81.054154 
L 95.963383 81.054154 
L 96.263284 80.943262 
L 96.373901 80.893407 
L 96.670312 80.782981 
L 96.670312 80.782748 
L 96.780392 80.731961 
L 97.090495 80.621768 
L 97.199501 80.579135 
L 97.498328 80.468242 
L 97.608945 80.423047 
L 97.609214 80.423047 
L 97.927641 80.29375 
L 98.215728 80.183091 
L 98.325808 80.145117 
L 98.62732 80.034225 
L 98.918361 79.928458 
L 99.227928 79.818031 
L 99.227928 79.817565 
L 99.549845 79.685007 
L 99.844913 79.574115 
L 99.984258 79.520998 
L 100.285502 79.410339 
L 100.395313 79.373064 
L 100.39585 79.373064 
L 100.686086 79.262172 
L 100.79536 79.225363 
L 101.073514 79.114704 
L 101.183325 79.069974 
L 101.467117 78.959082 
L 101.578003 78.919943 
L 101.870923 78.809284 
L 101.981809 78.758963 
L 102.294866 78.648536 
L 102.402798 78.608466 
L 102.704578 78.497574 
L 102.815464 78.450048 
L 103.114559 78.339156 
L 103.223834 78.297688 
L 103.225445 78.297688 
L 105.409863 77.470422 
L 105.720772 77.35953 
L 105.831389 77.312703 
L 106.117865 77.201811 
L 106.228482 77.162672 
L 106.495896 77.052013 
L 106.606513 77.007516 
L 106.803584 76.896857 
L 106.913932 76.847002 
L 107.117446 76.73611 
L 107.228331 76.6364 
L 107.426744 76.52574 
L 107.426744 76.525507 
L 108.159985 76.033248 
L 108.442702 75.923288 
L 108.551172 75.88578 
L 108.732401 75.774888 
L 108.842212 75.715248 
L 109.097008 75.604356 
L 109.207893 75.520022 
L 109.413286 75.409129 
L 109.524172 75.373019 
L 109.926367 75.262127 
L 110.033762 75.236501 
L 110.398906 75.125841 
L 110.509254 75.086004 
L 110.825264 74.975112 
L 110.93615 74.945991 
L 111.212156 74.835797 
L 111.323041 74.76847 
L 111.667243 74.65781 
L 111.777054 74.621701 
L 112.192673 74.510808 
L 112.30168 74.482852 
L 112.69931 74.37196 
L 112.809927 74.346333 
L 113.299112 74.235907 
L 113.409461 74.209349 
L 113.82159 74.098689 
L 113.930864 74.067938 
L 114.393201 73.957045 
L 114.503818 73.926294 
L 114.504086 73.926294 
L 114.936083 73.815634 
L 115.0467 73.791173 
L 115.525146 73.680281 
L 115.636031 73.648364 
L 116.031246 73.537938 
L 116.140789 73.498566 
L 116.141594 73.498566 
L 116.666488 73.388373 
L 116.777105 73.363911 
L 117.386573 73.253019 
L 117.491015 73.234382 
L 118.075244 73.123489 
L 118.184787 73.091573 
L 118.746733 72.980913 
L 118.746733 72.98068 
L 118.997232 72.910324 
L 119.419563 72.799432 
L 119.530449 72.771243 
L 119.955465 72.660584 
L 120.065545 72.627502 
L 120.55661 72.51661 
L 120.66669 72.489586 
L 121.163661 72.378694 
L 121.272667 72.357726 
L 121.821457 72.246834 
L 121.932342 72.224236 
L 122.503953 72.113344 
L 122.61108 72.074671 
L 123.079054 71.963779 
L 123.189671 71.94421 
L 123.674023 71.833551 
L 123.78464 71.810254 
L 124.388738 71.699362 
L 124.49855 71.679093 
L 125.013241 71.568201 
L 125.122516 71.546069 
L 125.750778 71.435177 
L 125.96691 71.392777 
L 126.614772 71.28235 
L 126.723241 71.262315 
L 126.724315 71.262315 
L 127.348281 71.151423 
L 127.459166 71.129058 
L 128.105148 71.018166 
L 128.210127 71.00279 
L 128.212812 71.00279 
L 128.827649 70.891898 
L 128.937729 70.87326 
L 128.938535 70.87326 
L 129.155205 70.832025 
L 129.786957 70.721133 
L 129.897842 70.699001 
L 130.568257 70.588109 
L 130.678068 70.5725 
L 131.340965 70.461607 
L 131.451314 70.439476 
L 132.160659 70.328583 
L 132.271544 70.309247 
L 132.483113 70.272438 
L 133.114059 70.161546 
L 133.329924 70.12101 
L 134.037658 70.01035 
L 134.146933 69.991946 
L 134.795868 69.881519 
L 134.903532 69.867774 
L 134.906485 69.867774 
L 135.585759 69.756882 
L 135.696645 69.739875 
L 136.330008 69.628983 
L 136.440625 69.611511 
L 137.124195 69.500851 
L 137.234544 69.483845 
L 137.234812 69.483845 
L 137.878378 69.372952 
L 138.083503 69.341735 
L 138.773785 69.231308 
L 138.884402 69.20242 
L 139.486621 69.091761 
L 139.486621 69.091528 
L 139.696041 69.055185 
L 140.405118 68.944293 
L 140.511708 68.923559 
L 140.515735 68.923559 
L 141.188834 68.812899 
L 141.408189 68.769568 
L 142.093907 68.658675 
L 142.551948 68.580864 
L 143.164905 68.469972 
L 143.371641 68.43759 
L 143.989969 68.326697 
L 144.099781 68.306429 
L 144.100854 68.306429 
L 144.797312 68.195537 
L 144.907661 68.1762 
L 144.908198 68.1762 
L 145.357647 68.101884 
L 146.084443 67.990992 
L 146.298428 67.952319 
L 146.937698 67.84166 
L 146.937698 67.841427 
L 147.156247 67.798328 
L 147.824514 67.687436 
L 148.281212 67.610323 
L 148.999685 67.499664 
L 149.208032 67.465884 
L 149.84059 67.355224 
L 149.95067 67.333093 
L 149.951475 67.333093 
L 150.570608 67.222433 
L 150.570608 67.2222 
L 151.046369 67.136701 
L 151.713562 67.025809 
L 151.923519 66.990398 
L 152.594202 66.879506 
L 152.800401 66.847589 
L 153.26757 66.765818 
L 153.942011 66.654925 
L 154.147942 66.623242 
L 154.857018 66.51235 
L 157.311804 66.093475 
L 161.147154 65.426723 
L 161.25616 65.406455 
L 161.258039 65.406455 
L 161.921742 65.295563 
L 162.136532 65.255492 
L 162.842387 65.1446 
L 163.047512 65.113382 
L 163.75632 65.00249 
L 163.866937 64.982222 
L 164.609037 64.871562 
L 164.609037 64.87133 
L 165.106009 64.776745 
L 165.849989 64.665853 
L 165.960874 64.649545 
L 166.628335 64.538886 
L 166.769828 64.515356 
L 167.379296 64.404464 
L 167.489108 64.386991 
L 167.490182 64.386991 
L 167.695038 64.355773 
L 168.324911 64.244881 
L 168.434991 64.225312 
L 169.107553 64.114419 
L 169.21817 64.093685 
L 169.680506 64.013545 
L 170.353068 63.902652 
L 170.552823 63.871901 
L 171.231829 63.761241 
L 171.34191 63.741672 
L 172.003732 63.63078 
L 172.220671 63.589545 
L 172.836582 63.478652 
L 172.947467 63.456986 
L 173.622715 63.346094 
L 173.733332 63.331184 
L 173.7336 63.331184 
L 174.390053 63.220292 
L 174.500402 63.199558 
L 175.160882 63.088665 
L 175.271231 63.066767 
L 175.987825 62.955874 
L 176.091461 62.941663 
L 176.098442 62.941663 
L 176.793826 62.831004 
L 176.904443 62.812134 
L 177.575663 62.701241 
L 177.683863 62.688195 
L 177.686548 62.688195 
L 178.420594 62.577303 
L 178.530674 62.561228 
L 178.53148 62.561228 
L 179.311169 62.450336 
L 179.421517 62.42867 
L 179.421786 62.42867 
L 179.981046 62.317777 
L 180.088978 62.291452 
L 180.674013 62.18056 
L 180.784362 62.15307 
L 181.863952 62.042177 
L 181.972958 62.026103 
L 182.883938 61.91521 
L 182.993749 61.899136 
L 184.052129 61.788243 
L 184.159255 61.778226 
L 185.070503 61.667333 
L 185.180315 61.651259 
L 186.138012 61.540366 
L 186.240305 61.526388 
L 186.248897 61.526388 
L 187.090607 61.415729 
L 187.199344 61.402217 
L 187.201224 61.402217 
L 187.40259 61.374494 
L 188.37559 61.263601 
L 188.483254 61.251254 
L 188.485939 61.251254 
L 189.382688 61.140362 
L 189.492768 61.128015 
L 190.471407 61.017355 
L 190.471407 61.017122 
L 190.577191 61.004542 
L 190.577997 61.004542 
L 191.582679 60.89365 
L 191.687657 60.880836 
L 191.693564 60.880836 
L 191.888486 60.857307 
L 192.805373 60.746414 
L 192.914916 60.732436 
L 193.937586 60.621544 
L 194.04525 60.610362 
L 194.046055 60.610362 
L 194.987911 60.499469 
L 195.096112 60.487821 
L 196.077167 60.376929 
L 196.186978 60.36528 
L 197.043455 60.254621 
L 197.153803 60.235984 
L 198.061024 60.125557 
L 198.163855 60.114142 
L 199.188673 60.00325 
L 199.294726 59.988806 
L 199.832239 59.877913 
L 199.942588 59.855315 
L 200.741071 59.744423 
L 200.926327 59.730445 
L 202.166742 59.619553 
L 202.354146 59.60208 
L 203.478037 59.491188 
L 203.581405 59.48117 
L 203.588117 59.48117 
L 204.950156 59.370278 
L 205.05782 59.362124 
L 206.627132 59.251232 
L 206.736943 59.244942 
L 208.361295 59.134049 
L 208.724023 59.097706 
L 210.468389 58.986814 
L 210.575247 58.976564 
L 210.579006 58.976564 
L 212.082538 58.865671 
L 212.26511 58.854023 
L 213.807573 58.743131 
L 213.913626 58.737772 
L 213.918459 58.737772 
L 214.462415 58.696071 
L 216.499165 58.585179 
L 216.680394 58.574695 
L 218.274676 58.463803 
L 218.38046 58.454717 
L 218.385561 58.454717 
L 220.344718 58.343825 
L 220.527021 58.33241 
L 222.101434 58.221517 
L 222.64378 58.180282 
L 224.257124 58.06939 
L 224.443455 58.054713 
L 226.170369 57.943821 
L 226.268636 57.938462 
L 226.280718 57.938462 
L 227.974877 57.82757 
L 228.157985 57.815689 
L 229.999813 57.704796 
L 230.320656 57.686625 
L 232.414862 57.575733 
L 232.754767 57.549174 
L 234.5139 57.438282 
L 234.618342 57.432924 
L 234.623175 57.432924 
L 236.137984 57.322031 
L 236.320556 57.309218 
L 238.001022 57.198326 
L 238.18252 57.187376 
L 239.810631 57.076484 
L 239.990517 57.067165 
L 241.605204 56.956273 
L 241.953701 56.925987 
L 243.563287 56.815095 
L 243.894064 56.792497 
L 245.294497 56.681605 
L 245.480827 56.666928 
L 245.817243 56.642001 
L 247.287483 56.531108 
L 247.471665 56.51713 
L 249.025942 56.406238 
L 249.355377 56.384339 
L 251.054369 56.273447 
L 251.164449 56.263662 
L 251.164986 56.263662 
L 252.688655 56.15277 
L 253.025876 56.127376 
L 254.470878 56.016484 
L 254.580421 56.006699 
L 254.581763 56.006699 
L 254.945564 55.969192 
L 256.442385 55.858299 
L 256.623614 55.845952 
L 258.088753 55.73506 
L 258.197759 55.72644 
L 258.199638 55.72644 
L 259.998507 55.615548 
L 260.100533 55.608559 
L 260.109393 55.608559 
L 261.631183 55.497666 
L 261.739652 55.488581 
L 261.742068 55.488581 
L 261.924103 55.474603 
L 263.318629 55.36371 
L 263.506839 55.34717 
L 265.391625 55.236277 
L 265.49553 55.228589 
L 265.501705 55.228589 
L 267.040141 55.11793 
L 267.151026 55.108145 
L 268.445944 54.997253 
L 268.556024 54.987934 
L 270.111106 54.877275 
L 270.217964 54.870053 
L 270.971878 54.759161 
L 271.082764 54.743552 
L 271.722302 54.63266 
L 271.831845 54.608431 
L 272.439702 54.497539 
L 272.639725 54.470514 
L 274.603983 54.359855 
L 274.707351 54.350536 
L 274.7146 54.350536 
L 275.586112 54.239644 
L 275.69646 54.223569 
L 276.412786 54.112677 
L 276.520718 54.095437 
L 277.17207 53.984545 
L 277.282687 53.96847 
L 278.028278 53.857578 
L 278.137821 53.838708 
L 281.579568 53.727815 
L 281.688574 53.726884 
L 316.81512 53.615991 
L 316.877409 53.615059 
L 316.910702 53.615059 
L 398.487273 53.568 
L 398.487273 53.568 
" clip-path="url(#p8d9c280893)" style="fill: none; stroke: #1f77b4; stroke-width: 1.5; stroke-linecap: square"/>
   </g>
   <g id="line2d_14">
    <path d="M 73.832727 295.488 
L 398.487273 53.568 
" clip-path="url(#p8d9c280893)" style="fill: none; stroke-dasharray: 5.55,2.4; stroke-dashoffset: 0; stroke: #ff7f0e; stroke-width: 1.5"/>
   </g>
   <g id="patch_3">
    <path d="M 57.6 307.584 
L 57.6 41.472 
" style="fill: none; stroke: #000000; stroke-width: 0.8; stroke-linejoin: miter; stroke-linecap: square"/>
   </g>
   <g id="patch_4">
    <path d="M 414.72 307.584 
L 414.72 41.472 
" style="fill: none; stroke: #000000; stroke-width: 0.8; stroke-linejoin: miter; stroke-linecap: square"/>
   </g>
   <g id="patch_5">
    <path d="M 57.6 307.584 
L 414.72 307.584 
" style="fill: none; stroke: #000000; stroke-width: 0.8; stroke-linejoin: miter; stroke-linecap: square"/>
   </g>
   <g id="patch_6">
    <path d="M 57.6 41.472 
L 414.72 41.472 
" style="fill: none; stroke: #000000; stroke-width: 0.8; stroke-linejoin: miter; stroke-linecap: square"/>
   </g>
   <g id="text_13">
    <!-- ROC Curve -->
    <g transform="translate(203.469375 35.472) scale(0.12 -0.12)">
     <defs>
      <path id="DejaVuSans-52" d="M 2841 2188 
Q 3044 2119 3236 1894 
Q 3428 1669 3622 1275 
L 4263 0 
L 3584 0 
L 2988 1197 
Q 2756 1666 2539 1819 
Q 2322 1972 1947 1972 
L 1259 1972 
L 1259 0 
L 628 0 
L 628 4666 
L 2053 4666 
Q 2853 4666 3247 4331 
Q 3641 3997 3641 3322 
Q 3641 2881 3436 2590 
Q 3231 2300 2841 2188 
z
M 1259 4147 
L 1259 2491 
L 2053 2491 
Q 2509 2491 2742 2702 
Q 2975 2913 2975 3322 
Q 2975 3731 2742 3939 
Q 2509 4147 2053 4147 
L 1259 4147 
z
" transform="scale(0.015625)"/>
      <path id="DejaVuSans-4f" d="M 2522 4238 
Q 1834 4238 1429 3725 
Q 1025 3213 1025 2328 
Q 1025 1447 1429 934 
Q 1834 422 2522 422 
Q 3209 422 3611 934 
Q 4013 1447 4013 2328 
Q 4013 3213 3611 3725 
Q 3209 4238 2522 4238 
z
M 2522 4750 
Q 3503 4750 4090 4092 
Q 4678 3434 4678 2328 
Q 4678 1225 4090 567 
Q 3503 -91 2522 -91 
Q 1538 -91 948 565 
Q 359 1222 359 2328 
Q 359 3434 948 4092 
Q 1538 4750 2522 4750 
z
" transform="scale(0.015625)"/>
      <path id="DejaVuSans-43" d="M 4122 4306 
L 4122 3641 
Q 3803 3938 3442 4084 
Q 3081 4231 2675 4231 
Q 1875 4231 1450 3742 
Q 1025 3253 1025 2328 
Q 1025 1406 1450 917 
Q 1875 428 2675 428 
Q 3081 428 3442 575 
Q 3803 722 4122 1019 
L 4122 359 
Q 3791 134 3420 21 
Q 3050 -91 2638 -91 
Q 1578 -91 968 557 
Q 359 1206 359 2328 
Q 359 3453 968 4101 
Q 1578 4750 2638 4750 
Q 3056 4750 3426 4639 
Q 3797 4528 4122 4306 
z
" transform="scale(0.015625)"/>
      <path id="DejaVuSans-20" transform="scale(0.015625)"/>
      <path id="DejaVuSans-75" d="M 544 1381 
L 544 3500 
L 1119 3500 
L 1119 1403 
Q 1119 906 1312 657 
Q 1506 409 1894 409 
Q 2359 409 2629 706 
Q 2900 1003 2900 1516 
L 2900 3500 
L 3475 3500 
L 3475 0 
L 2900 0 
L 2900 538 
Q 2691 219 2414 64 
Q 2138 -91 1772 -91 
Q 1169 -91 856 284 
Q 544 659 544 1381 
z
M 1991 3584 
L 1991 3584 
z
" transform="scale(0.015625)"/>
      <path id="DejaVuSans-72" d="M 2631 2963 
Q 2534 3019 2420 3045 
Q 2306 3072 2169 3072 
Q 1681 3072 1420 2755 
Q 1159 2438 1159 1844 
L 1159 0 
L 581 0 
L 581 3500 
L 1159 3500 
L 1159 2956 
Q 1341 3275 1631 3429 
Q 1922 3584 2338 3584 
Q 2397 3584 2469 3576 
Q 2541 3569 2628 3553 
L 2631 2963 
z
" transform="scale(0.015625)"/>
      <path id="DejaVuSans-76" d="M 191 3500 
L 800 3500 
L 1894 563 
L 2988 3500 
L 3597 3500 
L 2284 0 
L 1503 0 
L 191 3500 
z
" transform="scale(0.015625)"/>
      <path id="DejaVuSans-65" d="M 3597 1894 
L 3597 1613 
L 953 1613 
Q 991 1019 1311 708 
Q 1631 397 2203 397 
Q 2534 397 2845 478 
Q 3156 559 3463 722 
L 3463 178 
Q 3153 47 2828 -22 
Q 2503 -91 2169 -91 
Q 1331 -91 842 396 
Q 353 884 353 1716 
Q 353 2575 817 3079 
Q 1281 3584 2069 3584 
Q 2775 3584 3186 3129 
Q 3597 2675 3597 1894 
z
M 3022 2063 
Q 3016 2534 2758 2815 
Q 2500 3097 2075 3097 
Q 1594 3097 1305 2825 
Q 1016 2553 972 2059 
L 3022 2063 
z
" transform="scale(0.015625)"/>
     </defs>
     <use xlink:href="#DejaVuSans-52"/>
     <use xlink:href="#DejaVuSans-4f" transform="translate(69.482422 0)"/>
     <use xlink:href="#DejaVuSans-43" transform="translate(148.193359 0)"/>
     <use xlink:href="#DejaVuSans-20" transform="translate(218.017578 0)"/>
     <use xlink:href="#DejaVuSans-43" transform="translate(249.804688 0)"/>
     <use xlink:href="#DejaVuSans-75" transform="translate(319.628906 0)"/>
     <use xlink:href="#DejaVuSans-72" transform="translate(383.007812 0)"/>
     <use xlink:href="#DejaVuSans-76" transform="translate(424.121094 0)"/>
     <use xlink:href="#DejaVuSans-65" transform="translate(483.300781 0)"/>
    </g>
   </g>
   <g id="legend_1">
    <g id="patch_7">
     <path d="M 64.6 64.150125 
L 154.75 64.150125 
Q 156.75 64.150125 156.75 62.150125 
L 156.75 48.472 
Q 156.75 46.472 154.75 46.472 
L 64.6 46.472 
Q 62.6 46.472 62.6 48.472 
L 62.6 62.150125 
Q 62.6 64.150125 64.6 64.150125 
z
" style="fill: #ffffff; opacity: 0.8; stroke: #cccccc; stroke-linejoin: miter"/>
    </g>
    <g id="line2d_15">
     <path d="M 66.6 54.570438 
L 76.6 54.570438 
L 86.6 54.570438 
" style="fill: none; stroke: #1f77b4; stroke-width: 1.5; stroke-linecap: square"/>
    </g>
    <g id="text_14">
     <!-- AUC=0.964 -->
     <g transform="translate(94.6 58.070438) scale(0.1 -0.1)">
      <defs>
       <path id="DejaVuSans-41" d="M 2188 4044 
L 1331 1722 
L 3047 1722 
L 2188 4044 
z
M 1831 4666 
L 2547 4666 
L 4325 0 
L 3669 0 
L 3244 1197 
L 1141 1197 
L 716 0 
L 50 0 
L 1831 4666 
z
" transform="scale(0.015625)"/>
       <path id="DejaVuSans-55" d="M 556 4666 
L 1191 4666 
L 1191 1831 
Q 1191 1081 1462 751 
Q 1734 422 2344 422 
Q 2950 422 3222 751 
Q 3494 1081 3494 1831 
L 3494 4666 
L 4128 4666 
L 4128 1753 
Q 4128 841 3676 375 
Q 3225 -91 2344 -91 
Q 1459 -91 1007 375 
Q 556 841 556 1753 
L 556 4666 
z
" transform="scale(0.015625)"/>
       <path id="DejaVuSans-3d" d="M 678 2906 
L 4684 2906 
L 4684 2381 
L 678 2381 
L 678 2906 
z
M 678 1631 
L 4684 1631 
L 4684 1100 
L 678 1100 
L 678 1631 
z
" transform="scale(0.015625)"/>
       <path id="DejaVuSans-39" d="M 703 97 
L 703 672 
Q 941 559 1184 500 
Q 1428 441 1663 441 
Q 2288 441 2617 861 
Q 2947 1281 2994 2138 
Q 2813 1869 2534 1725 
Q 2256 1581 1919 1581 
Q 1219 1581 811 2004 
Q 403 2428 403 3163 
Q 403 3881 828 4315 
Q 1253 4750 1959 4750 
Q 2769 4750 3195 4129 
Q 3622 3509 3622 2328 
Q 3622 1225 3098 567 
Q 2575 -91 1691 -91 
Q 1453 -91 1209 -44 
Q 966 3 703 97 
z
M 1959 2075 
Q 2384 2075 2632 2365 
Q 2881 2656 2881 3163 
Q 2881 3666 2632 3958 
Q 2384 4250 1959 4250 
Q 1534 4250 1286 3958 
Q 1038 3666 1038 3163 
Q 1038 2656 1286 2365 
Q 1534 2075 1959 2075 
z
" transform="scale(0.015625)"/>
      </defs>
      <use xlink:href="#DejaVuSans-41"/>
      <use xlink:href="#DejaVuSans-55" transform="translate(68.408203 0)"/>
      <use xlink:href="#DejaVuSans-43" transform="translate(141.601562 0)"/>
      <use xlink:href="#DejaVuSans-3d" transform="translate(211.425781 0)"/>
      <use xlink:href="#DejaVuSans-30" transform="translate(295.214844 0)"/>
      <use xlink:href="#DejaVuSans-2e" transform="translate(358.837891 0)"/>
      <use xlink:href="#DejaVuSans-39" transform="translate(390.625 0)"/>
      <use xlink:href="#DejaVuSans-36" transform="translate(454.248047 0)"/>
      <use xlink:href="#DejaVuSans-34" transform="translate(517.871094 0)"/>
     </g>
    </g>
   </g>
  </g>
 </g>
 <defs>
  <clipPath id="p8d9c280893">
   <rect x="57.6" y="41.472" width="357.12" height="266.112"/>
  </clipPath>
 </defs>
</svg>
